<?xml version="1.0" encoding="UTF-8" standalone="no"?><svg xmlns="http://www.w3.org/2000/svg" xmlns:xlink="http://www.w3.org/1999/xlink" contentScriptType="application/ecmascript" contentStyleType="text/css" height="542px" preserveAspectRatio="none" style="width:2958px;height:542px;" version="1.1" viewBox="0 0 2958 542" width="2958px" zoomAndPan="magnify"><defs><filter height="300%" id="f1kwpmahhfiqmi" width="300%" x="-1" y="-1"><feGaussianBlur result="blurOut" stdDeviation="2.0"/><feColorMatrix in="blurOut" result="blurOut2" type="matrix" values="0 0 0 0 0 0 0 0 0 0 0 0 0 0 0 0 0 0 .4 0"/><feOffset dx="4.0" dy="4.0" in="blurOut2" result="blurOut3"/><feBlend in="SourceGraphic" in2="blurOut3" mode="normal"/></filter></defs><g><!--cluster sg.edu.ntu.scse.cz2002.ui--><polygon fill="#FFFFFF" filter="url(#f1kwpmahhfiqmi)" points="14,16,198,16,205,38.29,2936,38.29,2936,501,14,501,14,16" style="stroke: #000000; stroke-width: 1.5;"/><line style="stroke: #000000; stroke-width: 1.5;" x1="14" x2="205" y1="38.29" y2="38.29"/><text fill="#000000" font-family="sans-serif" font-size="14" font-weight="bold" lengthAdjust="spacingAndGlyphs" textLength="178" x="18" y="31.3369">sg.edu.ntu.scse.cz2002.ui</text><!--class sg.edu.ntu.scse.cz2002.ui.ReservationMenuUI--><a target="_top" xlink:actuate="onRequest" xlink:href="../sg/edu/ntu/scse/cz2002/ui/ReservationMenuUI.html" xlink:show="new" xlink:title="../sg/edu/ntu/scse/cz2002/ui/ReservationMenuUI.html" xlink:type="simple"><rect fill="#FEFECE" filter="url(#f1kwpmahhfiqmi)" height="214.3911" id="sg.edu.ntu.scse.cz2002.ui.ReservationMenuUI" style="stroke: #A80036; stroke-width: 1.5;" width="450" x="22" y="266"/><ellipse cx="188.25" cy="282" fill="#ADD1B2" rx="11" ry="11" style="stroke: #A80036; stroke-width: 1.0;"/><path d="M192.0781,287.6563 Q190.2031,288.3125 188.3906,288.3125 Q185.7969,288.3125 184.2109,286.5313 Q182.625,284.75 182.625,281.8438 Q182.625,279.1563 184.0313,277.3906 Q184.8906,276.3125 186.0078,275.8594 Q187.125,275.4063 188.9063,275.4063 Q190.625,275.4063 192.0781,275.7656 L192.0781,277.75 Q190.2031,277.0469 188.9531,277.0469 Q187.2656,277.0469 186.2734,278.3672 Q185.2813,279.6875 185.2813,281.9219 Q185.2813,283.9688 186.3203,285.2656 Q187.3594,286.5625 189,286.5625 Q190.3906,286.5625 192.0781,285.7813 L192.0781,287.6563 Z "/><text fill="#000000" font-family="sans-serif" font-size="12" lengthAdjust="spacingAndGlyphs" textLength="109" x="208.75" y="286.4209">ReservationMenuUI</text><line style="stroke: #A80036; stroke-width: 1.5;" x1="23" x2="471" y1="298" y2="298"/><rect fill="none" height="6" style="stroke: #C82930; stroke-width: 1.0;" width="6" x="30" y="306.8997"/><text fill="#000000" font-family="sans-serif" font-size="11" lengthAdjust="spacingAndGlyphs" textLength="77" x="42" y="312.4521">input: Scanner</text><rect fill="none" height="6" style="stroke: #C82930; stroke-width: 1.0;" width="6" x="30" y="319.699"/><text fill="#000000" font-family="sans-serif" font-size="11" lengthAdjust="spacingAndGlyphs" textLength="89" x="42" y="325.2515">MAX_TABLES: int</text><line style="stroke: #A80036; stroke-width: 1.5;" x1="23" x2="471" y1="331.5986" y2="331.5986"/><polygon fill="#FFFF44" points="33,338.4983,37,342.4983,33,346.4983,29,342.4983" style="stroke: #B38D22; stroke-width: 1.0;"/><text fill="#000000" font-family="sans-serif" font-size="11" lengthAdjust="spacingAndGlyphs" textLength="140" x="42" y="346.0508">generateMenuScreen(): int</text><rect fill="#F24D5C" height="6" style="stroke: #C82930; stroke-width: 1.0;" width="6" x="30" y="353.2976"/><text fill="#000000" font-family="sans-serif" font-size="11" lengthAdjust="spacingAndGlyphs" textLength="176" x="42" y="358.8501">createReservationBooking(): void</text><rect fill="#F24D5C" height="6" style="stroke: #C82930; stroke-width: 1.0;" width="6" x="30" y="366.0969"/><text fill="#000000" font-family="sans-serif" font-size="11" lengthAdjust="spacingAndGlyphs" textLength="424" x="42" y="371.6494">findTableForReservation(numPax:int, resvDate:LocalDate, resvSession:char): int</text><rect fill="#F24D5C" height="6" style="stroke: #C82930; stroke-width: 1.0;" width="6" x="30" y="378.8962"/><text fill="#000000" font-family="sans-serif" font-size="11" lengthAdjust="spacingAndGlyphs" textLength="174" x="42" y="384.4487">checkReservationBooking(): void</text><rect fill="#F24D5C" height="6" style="stroke: #C82930; stroke-width: 1.0;" width="6" x="30" y="391.6956"/><text fill="#000000" font-family="sans-serif" font-size="11" lengthAdjust="spacingAndGlyphs" textLength="183" x="42" y="397.248">removeReservationBooking(): void</text><rect fill="#F24D5C" height="6" style="stroke: #C82930; stroke-width: 1.0;" width="6" x="30" y="404.4949"/><text fill="#000000" font-family="sans-serif" font-size="11" lengthAdjust="spacingAndGlyphs" textLength="122" x="42" y="410.0474">listReservations(): void</text><rect fill="#F24D5C" height="6" style="stroke: #C82930; stroke-width: 1.0;" width="6" x="30" y="417.2942"/><text fill="#000000" font-family="sans-serif" font-size="11" lengthAdjust="spacingAndGlyphs" textLength="178" x="42" y="422.8467">checkExpiredReservations(): void</text><rect fill="#F24D5C" height="6" style="stroke: #C82930; stroke-width: 1.0;" width="6" x="30" y="430.0935"/><text fill="#000000" font-family="sans-serif" font-size="11" lengthAdjust="spacingAndGlyphs" textLength="202" x="42" y="435.646">printReservationLine(telNo:String): int</text><rect fill="#F24D5C" height="6" style="stroke: #C82930; stroke-width: 1.0;" width="6" x="30" y="442.8928"/><text fill="#000000" font-family="sans-serif" font-size="11" lengthAdjust="spacingAndGlyphs" textLength="219" x="42" y="448.4453">printReservationLine(r:Reservation): void</text><rect fill="#F24D5C" height="6" style="stroke: #C82930; stroke-width: 1.0;" width="6" x="30" y="455.6921"/><text fill="#000000" font-family="sans-serif" font-size="11" lengthAdjust="spacingAndGlyphs" textLength="370" x="42" y="461.2446">checkMorningSessionDate(date:LocalDate, isToday:boolean): boolean</text><rect fill="#F24D5C" height="6" style="stroke: #C82930; stroke-width: 1.0;" width="6" x="30" y="468.4915"/><text fill="#000000" font-family="sans-serif" font-size="11" lengthAdjust="spacingAndGlyphs" textLength="367" x="42" y="474.0439">checkEveningSessionDate(date:LocalDate, isToday:boolean): boolean</text></a><!--class sg.edu.ntu.scse.cz2002.ui.FoodMenuUI--><a target="_top" xlink:actuate="onRequest" xlink:href="../sg/edu/ntu/scse/cz2002/ui/FoodMenuUI.html" xlink:show="new" xlink:title="../sg/edu/ntu/scse/cz2002/ui/FoodMenuUI.html" xlink:type="simple"><rect fill="#FEFECE" filter="url(#f1kwpmahhfiqmi)" height="150.3945" id="sg.edu.ntu.scse.cz2002.ui.FoodMenuUI" style="stroke: #A80036; stroke-width: 1.5;" width="703" x="507.5" y="298"/><ellipse cx="819.75" cy="314" fill="#ADD1B2" rx="11" ry="11" style="stroke: #A80036; stroke-width: 1.0;"/><path d="M823.5781,319.6563 Q821.7031,320.3125 819.8906,320.3125 Q817.2969,320.3125 815.7109,318.5313 Q814.125,316.75 814.125,313.8438 Q814.125,311.1563 815.5313,309.3906 Q816.3906,308.3125 817.5078,307.8594 Q818.625,307.4063 820.4063,307.4063 Q822.125,307.4063 823.5781,307.7656 L823.5781,309.75 Q821.7031,309.0469 820.4531,309.0469 Q818.7656,309.0469 817.7734,310.3672 Q816.7813,311.6875 816.7813,313.9219 Q816.7813,315.9688 817.8203,317.2656 Q818.8594,318.5625 820.5,318.5625 Q821.8906,318.5625 823.5781,317.7813 L823.5781,319.6563 Z "/><text fill="#000000" font-family="sans-serif" font-size="12" lengthAdjust="spacingAndGlyphs" textLength="70" x="840.25" y="318.4209">FoodMenuUI</text><line style="stroke: #A80036; stroke-width: 1.5;" x1="508.5" x2="1209.5" y1="330" y2="330"/><polygon fill="none" points="518.5,337.8997,514.5,343.8997,522.5,343.8997" style="stroke: #1963A0; stroke-width: 1.0;"/><text fill="#000000" font-family="sans-serif" font-size="11" lengthAdjust="spacingAndGlyphs" textLength="61" x="527.5" y="344.4521">sc: Scanner</text><line style="stroke: #A80036; stroke-width: 1.5;" x1="508.5" x2="1209.5" y1="350.7993" y2="350.7993"/><polygon fill="#FFFF44" points="518.5,357.699,522.5,361.699,518.5,365.699,514.5,361.699" style="stroke: #B38D22; stroke-width: 1.0;"/><text fill="#000000" font-family="sans-serif" font-size="11" lengthAdjust="spacingAndGlyphs" textLength="140" x="527.5" y="365.2515">generateMenuScreen(): int</text><ellipse cx="518.5" cy="375.4983" fill="#84BE84" rx="3" ry="3" style="stroke: #038048; stroke-width: 1.0;"/><text fill="#000000" font-family="sans-serif" font-size="11" lengthAdjust="spacingAndGlyphs" textLength="92" x="527.5" y="378.0508">printMenu(): void</text><ellipse cx="518.5" cy="388.2976" fill="#84BE84" rx="3" ry="3" style="stroke: #038048; stroke-width: 1.0;"/><text fill="#000000" font-family="sans-serif" font-size="11" lengthAdjust="spacingAndGlyphs" textLength="614" x="527.5" y="390.8501">addNewMenuItem(newItemName:String, newItemType:String, newItemDescription:String, newItemPrice:double): void</text><ellipse cx="518.5" cy="401.0969" fill="#84BE84" rx="3" ry="3" style="stroke: #038048; stroke-width: 1.0;"/><text fill="#000000" font-family="sans-serif" font-size="11" lengthAdjust="spacingAndGlyphs" textLength="677" x="527.5" y="403.6494">editMenuItem(targetItemID:int, editItemName:String, editItemType:String, editItemDescription:String, editItemPrice:double): void</text><ellipse cx="518.5" cy="413.8962" fill="#84BE84" rx="3" ry="3" style="stroke: #038048; stroke-width: 1.0;"/><text fill="#000000" font-family="sans-serif" font-size="11" lengthAdjust="spacingAndGlyphs" textLength="204" x="527.5" y="416.4487">deleteMenuItem(targetItemID:int): void</text><ellipse cx="518.5" cy="426.6956" fill="#84BE84" rx="3" ry="3" style="stroke: #038048; stroke-width: 1.0;"/><text fill="#000000" font-family="sans-serif" font-size="11" lengthAdjust="spacingAndGlyphs" text-decoration="underline" textLength="242" x="527.5" y="429.248">retrieveMenuItem(targetItemID:int): MenuItem</text><line style="stroke: #000000; stroke-width: 1.0;" x1="527.5" x2="769.5" y1="431.248" y2="431.248"/><ellipse cx="518.5" cy="439.4949" fill="#84BE84" rx="3" ry="3" style="stroke: #038048; stroke-width: 1.0;"/><text fill="#000000" font-family="sans-serif" font-size="11" lengthAdjust="spacingAndGlyphs" text-decoration="underline" textLength="401" x="527.5" y="442.0474">retrieveMenuItemListFiltered(targetItemType:String): ArrayList&lt;MenuItem&gt;</text><line style="stroke: #000000; stroke-width: 1.0;" x1="527.5" x2="928.5" y1="444.0474" y2="444.0474"/></a><!--class sg.edu.ntu.scse.cz2002.ui.PromotionMenuUI--><a target="_top" xlink:actuate="onRequest" xlink:href="../sg/edu/ntu/scse/cz2002/ui/PromotionMenuUI.html" xlink:show="new" xlink:title="../sg/edu/ntu/scse/cz2002/ui/PromotionMenuUI.html" xlink:type="simple"><rect fill="#FEFECE" filter="url(#f1kwpmahhfiqmi)" height="137.5952" id="sg.edu.ntu.scse.cz2002.ui.PromotionMenuUI" style="stroke: #A80036; stroke-width: 1.5;" width="816" x="1245" y="304"/><ellipse cx="1598.75" cy="320" fill="#ADD1B2" rx="11" ry="11" style="stroke: #A80036; stroke-width: 1.0;"/><path d="M1602.5781,325.6563 Q1600.7031,326.3125 1598.8906,326.3125 Q1596.2969,326.3125 1594.7109,324.5313 Q1593.125,322.75 1593.125,319.8438 Q1593.125,317.1563 1594.5313,315.3906 Q1595.3906,314.3125 1596.5078,313.8594 Q1597.625,313.4063 1599.4063,313.4063 Q1601.125,313.4063 1602.5781,313.7656 L1602.5781,315.75 Q1600.7031,315.0469 1599.4531,315.0469 Q1597.7656,315.0469 1596.7734,316.3672 Q1595.7813,317.6875 1595.7813,319.9219 Q1595.7813,321.9688 1596.8203,323.2656 Q1597.8594,324.5625 1599.5,324.5625 Q1600.8906,324.5625 1602.5781,323.7813 L1602.5781,325.6563 Z "/><text fill="#000000" font-family="sans-serif" font-size="12" lengthAdjust="spacingAndGlyphs" textLength="100" x="1619.25" y="324.4209">PromotionMenuUI</text><line style="stroke: #A80036; stroke-width: 1.5;" x1="1246" x2="2060" y1="336" y2="336"/><polygon fill="none" points="1256,343.8997,1252,349.8997,1260,349.8997" style="stroke: #1963A0; stroke-width: 1.0;"/><text fill="#000000" font-family="sans-serif" font-size="11" lengthAdjust="spacingAndGlyphs" textLength="61" x="1265" y="350.4521">sc: Scanner</text><line style="stroke: #A80036; stroke-width: 1.5;" x1="1246" x2="2060" y1="356.7993" y2="356.7993"/><polygon fill="#FFFF44" points="1256,363.699,1260,367.699,1256,371.699,1252,367.699" style="stroke: #B38D22; stroke-width: 1.0;"/><text fill="#000000" font-family="sans-serif" font-size="11" lengthAdjust="spacingAndGlyphs" textLength="140" x="1265" y="371.2515">generateMenuScreen(): int</text><ellipse cx="1256" cy="381.4983" fill="#84BE84" rx="3" ry="3" style="stroke: #038048; stroke-width: 1.0;"/><text fill="#000000" font-family="sans-serif" font-size="11" lengthAdjust="spacingAndGlyphs" textLength="119" x="1265" y="384.0508">printPromotion(): void</text><ellipse cx="1256" cy="394.2976" fill="#84BE84" rx="3" ry="3" style="stroke: #038048; stroke-width: 1.0;"/><text fill="#000000" font-family="sans-serif" font-size="11" lengthAdjust="spacingAndGlyphs" textLength="716" x="1265" y="396.8501">addNewPromotion(newPromoName:String, newPromoPrice:double, newPromoMain:int, newPromoDessert:int, newPromoDrink:int): void</text><ellipse cx="1256" cy="407.0969" fill="#84BE84" rx="3" ry="3" style="stroke: #038048; stroke-width: 1.0;"/><text fill="#000000" font-family="sans-serif" font-size="11" lengthAdjust="spacingAndGlyphs" textLength="790" x="1265" y="409.6494">editPromotion(targetPromoID:int, editPromoName:String, editPromoPrice:double, editPromoMain:int, editPromoDessert:int, editPromoDrink:int): void</text><ellipse cx="1256" cy="419.8962" fill="#84BE84" rx="3" ry="3" style="stroke: #038048; stroke-width: 1.0;"/><text fill="#000000" font-family="sans-serif" font-size="11" lengthAdjust="spacingAndGlyphs" textLength="220" x="1265" y="422.4487">deletePromotion(targetPromoID:int): void</text><ellipse cx="1256" cy="432.6956" fill="#84BE84" rx="3" ry="3" style="stroke: #038048; stroke-width: 1.0;"/><text fill="#000000" font-family="sans-serif" font-size="11" lengthAdjust="spacingAndGlyphs" text-decoration="underline" textLength="262" x="1265" y="435.248">retrievePromotion(targetPromoID:int): Promotion</text><line style="stroke: #000000; stroke-width: 1.0;" x1="1265" x2="1527" y1="437.248" y2="437.248"/></a><!--class sg.edu.ntu.scse.cz2002.ui.MainMenuUI--><a target="_top" xlink:actuate="onRequest" xlink:href="../sg/edu/ntu/scse/cz2002/ui/MainMenuUI.html" xlink:show="new" xlink:title="../sg/edu/ntu/scse/cz2002/ui/MainMenuUI.html" xlink:type="simple"><rect fill="#FEFECE" filter="url(#f1kwpmahhfiqmi)" height="73.5986" id="sg.edu.ntu.scse.cz2002.ui.MainMenuUI" style="stroke: #A80036; stroke-width: 1.5;" width="181" x="2096.5" y="336"/><ellipse cx="2148.25" cy="352" fill="#ADD1B2" rx="11" ry="11" style="stroke: #A80036; stroke-width: 1.0;"/><path d="M2152.0781,357.6563 Q2150.2031,358.3125 2148.3906,358.3125 Q2145.7969,358.3125 2144.2109,356.5313 Q2142.625,354.75 2142.625,351.8438 Q2142.625,349.1563 2144.0313,347.3906 Q2144.8906,346.3125 2146.0078,345.8594 Q2147.125,345.4063 2148.9063,345.4063 Q2150.625,345.4063 2152.0781,345.7656 L2152.0781,347.75 Q2150.2031,347.0469 2148.9531,347.0469 Q2147.2656,347.0469 2146.2734,348.3672 Q2145.2813,349.6875 2145.2813,351.9219 Q2145.2813,353.9688 2146.3203,355.2656 Q2147.3594,356.5625 2149,356.5625 Q2150.3906,356.5625 2152.0781,355.7813 L2152.0781,357.6563 Z "/><text fill="#000000" font-family="sans-serif" font-size="12" lengthAdjust="spacingAndGlyphs" textLength="69" x="2168.75" y="356.4209">MainMenuUI</text><line style="stroke: #A80036; stroke-width: 1.5;" x1="2097.5" x2="2276.5" y1="368" y2="368"/><line style="stroke: #A80036; stroke-width: 1.5;" x1="2097.5" x2="2276.5" y1="376" y2="376"/><polygon fill="#FFFF44" points="2107.5,382.8997,2111.5,386.8997,2107.5,390.8997,2103.5,386.8997" style="stroke: #B38D22; stroke-width: 1.0;"/><text fill="#000000" font-family="sans-serif" font-size="11" lengthAdjust="spacingAndGlyphs" textLength="140" x="2116.5" y="390.4521">generateMenuScreen(): int</text><rect fill="#F24D5C" height="6" style="stroke: #C82930; stroke-width: 1.0;" width="6" x="2104.5" y="397.699"/><text fill="#000000" font-family="sans-serif" font-size="11" lengthAdjust="spacingAndGlyphs" textLength="155" x="2116.5" y="403.2515">checkTableAvailability(): void</text></a><!--class sg.edu.ntu.scse.cz2002.ui.StaffMgmtMenuUI--><a target="_top" xlink:actuate="onRequest" xlink:href="../sg/edu/ntu/scse/cz2002/ui/StaffMgmtMenuUI.html" xlink:show="new" xlink:title="../sg/edu/ntu/scse/cz2002/ui/StaffMgmtMenuUI.html" xlink:type="simple"><rect fill="#FEFECE" filter="url(#f1kwpmahhfiqmi)" height="111.9966" id="sg.edu.ntu.scse.cz2002.ui.StaffMgmtMenuUI" style="stroke: #A80036; stroke-width: 1.5;" width="166" x="2313" y="317"/><ellipse cx="2343.75" cy="333" fill="#ADD1B2" rx="11" ry="11" style="stroke: #A80036; stroke-width: 1.0;"/><path d="M2347.5781,338.6563 Q2345.7031,339.3125 2343.8906,339.3125 Q2341.2969,339.3125 2339.7109,337.5313 Q2338.125,335.75 2338.125,332.8438 Q2338.125,330.1563 2339.5313,328.3906 Q2340.3906,327.3125 2341.5078,326.8594 Q2342.625,326.4063 2344.4063,326.4063 Q2346.125,326.4063 2347.5781,326.7656 L2347.5781,328.75 Q2345.7031,328.0469 2344.4531,328.0469 Q2342.7656,328.0469 2341.7734,329.3672 Q2340.7813,330.6875 2340.7813,332.9219 Q2340.7813,334.9688 2341.8203,336.2656 Q2342.8594,337.5625 2344.5,337.5625 Q2345.8906,337.5625 2347.5781,336.7813 L2347.5781,338.6563 Z "/><text fill="#000000" font-family="sans-serif" font-size="12" lengthAdjust="spacingAndGlyphs" textLength="99" x="2361.25" y="337.4209">StaffMgmtMenuUI</text><line style="stroke: #A80036; stroke-width: 1.5;" x1="2314" x2="2478" y1="349" y2="349"/><line style="stroke: #A80036; stroke-width: 1.5;" x1="2314" x2="2478" y1="357" y2="357"/><polygon fill="#FFFF44" points="2324,363.8997,2328,367.8997,2324,371.8997,2320,367.8997" style="stroke: #B38D22; stroke-width: 1.0;"/><text fill="#000000" font-family="sans-serif" font-size="11" lengthAdjust="spacingAndGlyphs" textLength="140" x="2333" y="371.4521">generateMenuScreen(): int</text><rect fill="#F24D5C" height="6" style="stroke: #C82930; stroke-width: 1.0;" width="6" x="2321" y="378.699"/><text fill="#000000" font-family="sans-serif" font-size="11" lengthAdjust="spacingAndGlyphs" textLength="116" x="2333" y="384.2515">createNewStaff(): void</text><rect fill="#F24D5C" height="6" style="stroke: #C82930; stroke-width: 1.0;" width="6" x="2321" y="391.4983"/><text fill="#000000" font-family="sans-serif" font-size="11" lengthAdjust="spacingAndGlyphs" textLength="102" x="2333" y="397.0508">editStaffInfo(): void</text><rect fill="#F24D5C" height="6" style="stroke: #C82930; stroke-width: 1.0;" width="6" x="2321" y="404.2976"/><text fill="#000000" font-family="sans-serif" font-size="11" lengthAdjust="spacingAndGlyphs" textLength="101" x="2333" y="409.8501">removeStaff(): void</text><rect fill="#F24D5C" height="6" style="stroke: #C82930; stroke-width: 1.0;" width="6" x="2321" y="417.0969"/><text fill="#000000" font-family="sans-serif" font-size="11" lengthAdjust="spacingAndGlyphs" textLength="91" x="2333" y="422.6494">listAllStaff(): void</text></a><!--class sg.edu.ntu.scse.cz2002.ui.BaseMenu--><a target="_top" xlink:actuate="onRequest" xlink:href="../sg/edu/ntu/scse/cz2002/ui/BaseMenu.html" xlink:show="new" xlink:title="../sg/edu/ntu/scse/cz2002/ui/BaseMenu.html" xlink:type="simple"><rect fill="#FEFECE" filter="url(#f1kwpmahhfiqmi)" height="150.3945" id="sg.edu.ntu.scse.cz2002.ui.BaseMenu" style="stroke: #A80036; stroke-width: 1.5;" width="286" x="1777" y="43"/><ellipse cx="1886.75" cy="59" fill="#A9DCDF" rx="11" ry="11" style="stroke: #A80036; stroke-width: 1.0;"/><path d="M1882.4219,64.25 L1886.1406,51.9688 L1888.5938,51.9688 L1892.3125,64.25 L1889.7656,64.25 L1888.8281,61.125 L1885.1875,61.125 L1884.25,64.25 L1882.4219,64.25 Z M1885.6563,59.5938 L1888.375,59.5938 L1887,55.1094 L1885.6563,59.5938 Z "/><text fill="#000000" font-family="sans-serif" font-size="12" font-style="italic" lengthAdjust="spacingAndGlyphs" textLength="58" x="1907.25" y="63.4209">BaseMenu</text><line style="stroke: #A80036; stroke-width: 1.5;" x1="1778" x2="2062" y1="75" y2="75"/><rect fill="none" height="6" style="stroke: #C82930; stroke-width: 1.0;" width="6" x="1785" y="83.8997"/><text fill="#000000" font-family="sans-serif" font-size="11" lengthAdjust="spacingAndGlyphs" text-decoration="underline" textLength="161" x="1797" y="89.4521">PRINT_WINDOW_MAX_SIZE: int</text><line style="stroke: #000000; stroke-width: 1.0;" x1="1797" x2="1958" y1="91.4521" y2="91.4521"/><line style="stroke: #A80036; stroke-width: 1.5;" x1="1778" x2="2062" y1="95.7993" y2="95.7993"/><ellipse cx="1788" cy="107.699" fill="#84BE84" rx="3" ry="3" style="stroke: #038048; stroke-width: 1.0;"/><text fill="#000000" font-family="sans-serif" font-size="11" lengthAdjust="spacingAndGlyphs" textLength="136" x="1797" y="110.2515">startMainMenu(): boolean</text><polygon fill="#FFFF44" points="1788,115.4983,1792,119.4983,1788,123.4983,1784,119.4983" style="stroke: #B38D22; stroke-width: 1.0;"/><text fill="#000000" font-family="sans-serif" font-size="11" lengthAdjust="spacingAndGlyphs" text-decoration="underline" textLength="203" x="1797" y="123.0508">printHeader(headerName:String): void</text><line style="stroke: #000000; stroke-width: 1.0;" x1="1797" x2="2000" y1="125.0508" y2="125.0508"/><polygon fill="#FFFF44" points="1788,128.2976,1792,132.2976,1788,136.2976,1784,132.2976" style="stroke: #B38D22; stroke-width: 1.0;"/><text fill="#000000" font-family="sans-serif" font-size="11" lengthAdjust="spacingAndGlyphs" text-decoration="underline" textLength="260" x="1797" y="135.8501">printHeader(headerName:String, length:int): void</text><line style="stroke: #000000; stroke-width: 1.0;" x1="1797" x2="2057" y1="137.8501" y2="137.8501"/><polygon fill="#FFFF44" points="1788,141.0969,1792,145.0969,1788,149.0969,1784,145.0969" style="stroke: #B38D22; stroke-width: 1.0;"/><text fill="#000000" font-family="sans-serif" font-size="11" lengthAdjust="spacingAndGlyphs" text-decoration="underline" textLength="149" x="1797" y="148.6494">printBreaks(length:int): void</text><line style="stroke: #000000; stroke-width: 1.0;" x1="1797" x2="1946" y1="150.6494" y2="150.6494"/><polygon fill="#FFFF44" points="1788,153.8962,1792,157.8962,1788,161.8962,1784,157.8962" style="stroke: #B38D22; stroke-width: 1.0;"/><text fill="#000000" font-family="sans-serif" font-size="11" lengthAdjust="spacingAndGlyphs" text-decoration="underline" textLength="98" x="1797" y="161.4487">printBreaks(): void</text><line style="stroke: #000000; stroke-width: 1.0;" x1="1797" x2="1895" y1="163.4487" y2="163.4487"/><polygon fill="#FFFF44" points="1788,166.6956,1792,170.6956,1788,174.6956,1784,170.6956" style="stroke: #B38D22; stroke-width: 1.0;"/><text fill="#000000" font-family="sans-serif" font-size="11" lengthAdjust="spacingAndGlyphs" text-decoration="underline" textLength="245" x="1797" y="174.248">doMenuChoice(max:int, specialEscape:int): int</text><line style="stroke: #000000; stroke-width: 1.0;" x1="1797" x2="2042" y1="176.248" y2="176.248"/><polygon fill="#FFFF44" points="1788,179.4949,1792,183.4949,1788,187.4949,1784,183.4949" style="stroke: #B38D22; stroke-width: 1.0;"/><text fill="#000000" font-family="sans-serif" font-size="11" font-style="italic" lengthAdjust="spacingAndGlyphs" textLength="140" x="1797" y="187.0474">generateMenuScreen(): int</text></a><!--class sg.edu.ntu.scse.cz2002.ui.OrderMenuUI--><a target="_top" xlink:actuate="onRequest" xlink:href="../sg/edu/ntu/scse/cz2002/ui/OrderMenuUI.html" xlink:show="new" xlink:title="../sg/edu/ntu/scse/cz2002/ui/OrderMenuUI.html" xlink:type="simple"><rect fill="#FEFECE" filter="url(#f1kwpmahhfiqmi)" height="239.9897" id="sg.edu.ntu.scse.cz2002.ui.OrderMenuUI" style="stroke: #A80036; stroke-width: 1.5;" width="413" x="2514.5" y="253"/><ellipse cx="2678.75" cy="269" fill="#ADD1B2" rx="11" ry="11" style="stroke: #A80036; stroke-width: 1.0;"/><path d="M2682.5781,274.6563 Q2680.7031,275.3125 2678.8906,275.3125 Q2676.2969,275.3125 2674.7109,273.5313 Q2673.125,271.75 2673.125,268.8438 Q2673.125,266.1563 2674.5313,264.3906 Q2675.3906,263.3125 2676.5078,262.8594 Q2677.625,262.4063 2679.4063,262.4063 Q2681.125,262.4063 2682.5781,262.7656 L2682.5781,264.75 Q2680.7031,264.0469 2679.4531,264.0469 Q2677.7656,264.0469 2676.7734,265.3672 Q2675.7813,266.6875 2675.7813,268.9219 Q2675.7813,270.9688 2676.8203,272.2656 Q2677.8594,273.5625 2679.5,273.5625 Q2680.8906,273.5625 2682.5781,272.7813 L2682.5781,274.6563 Z "/><text fill="#000000" font-family="sans-serif" font-size="12" lengthAdjust="spacingAndGlyphs" textLength="76" x="2699.25" y="273.4209">OrderMenuUI</text><line style="stroke: #A80036; stroke-width: 1.5;" x1="2515.5" x2="2926.5" y1="285" y2="285"/><ellipse cx="2525.5" cy="296.8997" fill="none" rx="3" ry="3" style="stroke: #038048; stroke-width: 1.0;"/><text fill="#000000" font-family="sans-serif" font-size="11" lengthAdjust="spacingAndGlyphs" text-decoration="underline" textLength="202" x="2534.5" y="299.4521">incompleteOrders: ArrayList&lt;Order&gt;</text><line style="stroke: #000000; stroke-width: 1.0;" x1="2534.5" x2="2736.5" y1="301.4521" y2="301.4521"/><line style="stroke: #A80036; stroke-width: 1.5;" x1="2515.5" x2="2926.5" y1="305.7993" y2="305.7993"/><polygon fill="#FFFF44" points="2525.5,312.699,2529.5,316.699,2525.5,320.699,2521.5,316.699" style="stroke: #B38D22; stroke-width: 1.0;"/><text fill="#000000" font-family="sans-serif" font-size="11" lengthAdjust="spacingAndGlyphs" textLength="140" x="2534.5" y="320.2515">generateMenuScreen(): int</text><rect fill="#F24D5C" height="6" style="stroke: #C82930; stroke-width: 1.0;" width="6" x="2522.5" y="327.4983"/><text fill="#000000" font-family="sans-serif" font-size="11" lengthAdjust="spacingAndGlyphs" textLength="244" x="2534.5" y="333.0508">editOrderMenuScreen(orderNumber:int): void</text><rect fill="#F24D5C" height="6" style="stroke: #C82930; stroke-width: 1.0;" width="6" x="2522.5" y="340.2976"/><text fill="#000000" font-family="sans-serif" font-size="11" lengthAdjust="spacingAndGlyphs" textLength="102" x="2534.5" y="345.8501">createOrder(): void</text><rect fill="#F24D5C" height="6" style="stroke: #C82930; stroke-width: 1.0;" width="6" x="2522.5" y="353.0969"/><text fill="#000000" font-family="sans-serif" font-size="11" lengthAdjust="spacingAndGlyphs" textLength="92" x="2534.5" y="358.6494">viewOrder(): void</text><rect fill="#F24D5C" height="6" style="stroke: #C82930; stroke-width: 1.0;" width="6" x="2522.5" y="365.8962"/><text fill="#000000" font-family="sans-serif" font-size="11" lengthAdjust="spacingAndGlyphs" textLength="89" x="2534.5" y="371.4487">editOrder(): void</text><rect fill="#F24D5C" height="6" style="stroke: #C82930; stroke-width: 1.0;" width="6" x="2522.5" y="378.6956"/><text fill="#000000" font-family="sans-serif" font-size="11" lengthAdjust="spacingAndGlyphs" textLength="154" x="2534.5" y="384.248">addOrderItem(o:Order): void</text><rect fill="#F24D5C" height="6" style="stroke: #C82930; stroke-width: 1.0;" width="6" x="2522.5" y="391.4949"/><text fill="#000000" font-family="sans-serif" font-size="11" lengthAdjust="spacingAndGlyphs" textLength="168" x="2534.5" y="397.0474">addAlaCarteItem(o:Order): void</text><rect fill="#F24D5C" height="6" style="stroke: #C82930; stroke-width: 1.0;" width="6" x="2522.5" y="404.2942"/><text fill="#000000" font-family="sans-serif" font-size="11" lengthAdjust="spacingAndGlyphs" textLength="154" x="2534.5" y="409.8467">editOrderItem(o:Order): void</text><rect fill="#F24D5C" height="6" style="stroke: #C82930; stroke-width: 1.0;" width="6" x="2522.5" y="417.0935"/><text fill="#000000" font-family="sans-serif" font-size="11" lengthAdjust="spacingAndGlyphs" textLength="174" x="2534.5" y="422.646">removeOrderItem(o:Order): void</text><rect fill="#F24D5C" height="6" style="stroke: #C82930; stroke-width: 1.0;" width="6" x="2522.5" y="429.8928"/><text fill="#000000" font-family="sans-serif" font-size="11" lengthAdjust="spacingAndGlyphs" textLength="255" x="2534.5" y="435.4453">findOrder(id:int, allowFromPaid:boolean): Order</text><rect fill="#F24D5C" height="6" style="stroke: #C82930; stroke-width: 1.0;" width="6" x="2522.5" y="442.6921"/><text fill="#000000" font-family="sans-serif" font-size="11" lengthAdjust="spacingAndGlyphs" textLength="310" x="2534.5" y="448.2446">printOrderList(orders:ArrayList&lt;Order&gt;, tag:String): void</text><rect fill="#F24D5C" height="6" style="stroke: #C82930; stroke-width: 1.0;" width="6" x="2522.5" y="455.4915"/><text fill="#000000" font-family="sans-serif" font-size="11" lengthAdjust="spacingAndGlyphs" textLength="173" x="2534.5" y="461.0439">printOrderDetails(o:Order): void</text><rect fill="#F24D5C" height="6" style="stroke: #C82930; stroke-width: 1.0;" width="6" x="2522.5" y="468.2908"/><text fill="#000000" font-family="sans-serif" font-size="11" lengthAdjust="spacingAndGlyphs" textLength="257" x="2534.5" y="473.8433">getOrderItemToEdit(o:Order, prompt:String): int</text><rect fill="#F24D5C" height="6" style="stroke: #C82930; stroke-width: 1.0;" width="6" x="2522.5" y="481.0901"/><text fill="#000000" font-family="sans-serif" font-size="11" lengthAdjust="spacingAndGlyphs" textLength="387" x="2534.5" y="486.6426">printOrderItems(items:ArrayList&lt;OrderItem&gt;, prettyPrint:boolean): void</text></a><!--link sg.edu.ntu.scse.cz2002.ui.BaseMenu to sg.edu.ntu.scse.cz2002.ui.ReservationMenuUI--><path d="M1756.5053,125.9589 C1433.4374,142.9107 724.2778,186.5416 490,253 C476.9863,256.6917 463.8307,261.0676 450.7294,265.9276 " fill="none" id="sg.edu.ntu.scse.cz2002.ui.BaseMenu-sg.edu.ntu.scse.cz2002.ui.ReservationMenuUI" style="stroke: #A80036; stroke-width: 1.0;"/><polygon fill="none" points="1756.4131,118.9543,1776.75,124.9051,1757.141,132.9354,1756.4131,118.9543" style="stroke: #A80036; stroke-width: 1.0;"/><!--link sg.edu.ntu.scse.cz2002.ui.BaseMenu to sg.edu.ntu.scse.cz2002.ui.FoodMenuUI--><path d="M1756.849,144.0543 C1615.8209,167.9463 1407.0461,206.606 1228,253 C1177.9503,265.9687 1124.7442,281.9472 1074.7727,297.9652 " fill="none" id="sg.edu.ntu.scse.cz2002.ui.BaseMenu-sg.edu.ntu.scse.cz2002.ui.FoodMenuUI" style="stroke: #A80036; stroke-width: 1.0;"/><polygon fill="none" points="1755.8364,137.1264,1776.7209,140.7095,1758.1602,150.9322,1755.8364,137.1264" style="stroke: #A80036; stroke-width: 1.0;"/><!--link sg.edu.ntu.scse.cz2002.ui.BaseMenu to sg.edu.ntu.scse.cz2002.ui.PromotionMenuUI--><path d="M1826.429,207.3655 C1793.3627,238.9457 1756.6971,273.9635 1725.6283,303.6359 " fill="none" id="sg.edu.ntu.scse.cz2002.ui.BaseMenu-sg.edu.ntu.scse.cz2002.ui.PromotionMenuUI" style="stroke: #A80036; stroke-width: 1.0;"/><polygon fill="none" points="1822.0372,201.8804,1841.3353,193.1292,1831.7065,212.0048,1822.0372,201.8804" style="stroke: #A80036; stroke-width: 1.0;"/><!--link sg.edu.ntu.scse.cz2002.ui.BaseMenu to sg.edu.ntu.scse.cz2002.ui.MainMenuUI--><path d="M2027.9017,206.2191 C2045.3388,221.4345 2062.9294,237.3868 2079,253 C2106.2397,279.4644 2134.9003,311.5324 2155.8464,335.8579 " fill="none" id="sg.edu.ntu.scse.cz2002.ui.BaseMenu-sg.edu.ntu.scse.cz2002.ui.MainMenuUI" style="stroke: #A80036; stroke-width: 1.0;"/><polygon fill="none" points="2023.2272,211.4313,2012.6598,193.0648,2032.3743,200.8327,2023.2272,211.4313" style="stroke: #A80036; stroke-width: 1.0;"/><!--link sg.edu.ntu.scse.cz2002.ui.BaseMenu to sg.edu.ntu.scse.cz2002.ui.StaffMgmtMenuUI--><path d="M2082.5858,156.194 C2152.0439,177.4756 2231.5516,208.8096 2295,253 C2319.4677,270.0412 2341.4827,294.459 2358.6666,316.8251 " fill="none" id="sg.edu.ntu.scse.cz2002.ui.BaseMenu-sg.edu.ntu.scse.cz2002.ui.StaffMgmtMenuUI" style="stroke: #A80036; stroke-width: 1.0;"/><polygon fill="none" points="2080.4593,162.8647,2063.2832,150.4557,2084.4487,149.4451,2080.4593,162.8647" style="stroke: #A80036; stroke-width: 1.0;"/><!--link sg.edu.ntu.scse.cz2002.ui.BaseMenu to sg.edu.ntu.scse.cz2002.ui.OrderMenuUI--><path d="M2083.2039,144.3724 C2200.6364,166.1707 2361.5382,201.8846 2497,253 C2502.7788,255.1806 2508.5954,257.4815 2514.4285,259.8832 " fill="none" id="sg.edu.ntu.scse.cz2002.ui.BaseMenu-sg.edu.ntu.scse.cz2002.ui.OrderMenuUI" style="stroke: #A80036; stroke-width: 1.0;"/><polygon fill="none" points="2081.6879,151.2114,2063.2729,140.7287,2084.2057,137.4396,2081.6879,151.2114" style="stroke: #A80036; stroke-width: 1.0;"/><text fill="#888888" font-family="sans-serif" font-size="10" lengthAdjust="spacingAndGlyphs" textLength="182" x="1390" y="528.502">UMLDoclet 1.1.3, PlantUML 1.2018.12</text><!--
@startuml

    namespace sg.edu.ntu.scse.cz2002.ui {

        class ReservationMenuUI [[../sg/edu/ntu/scse/cz2002/ui/ReservationMenuUI.html]] {
            -input: Scanner
            -MAX_TABLES: int
            #generateMenuScreen(): int
            -createReservationBooking(): void
            -findTableForReservation(numPax:int, resvDate:LocalDate, resvSession:char): int
            -checkReservationBooking(): void
            -removeReservationBooking(): void
            -listReservations(): void
            -checkExpiredReservations(): void
            -printReservationLine(telNo:String): int
            -printReservationLine(r:Reservation): void
            -checkMorningSessionDate(date:LocalDate, isToday:boolean): boolean
            -checkEveningSessionDate(date:LocalDate, isToday:boolean): boolean
        }

        class FoodMenuUI [[../sg/edu/ntu/scse/cz2002/ui/FoodMenuUI.html]] {
            ~sc: Scanner
            #generateMenuScreen(): int
            +printMenu(): void
            +addNewMenuItem(newItemName:String, newItemType:String, newItemDescription:String, newItemPrice:double): void
            +editMenuItem(targetItemID:int, editItemName:String, editItemType:String, editItemDescription:String, editItemPrice:double): void
            +deleteMenuItem(targetItemID:int): void
            {static} +retrieveMenuItem(targetItemID:int): MenuItem
            {static} +retrieveMenuItemListFiltered(targetItemType:String): ArrayList<MenuItem>
        }

        class PromotionMenuUI [[../sg/edu/ntu/scse/cz2002/ui/PromotionMenuUI.html]] {
            ~sc: Scanner
            #generateMenuScreen(): int
            +printPromotion(): void
            +addNewPromotion(newPromoName:String, newPromoPrice:double, newPromoMain:int, newPromoDessert:int, newPromoDrink:int): void
            +editPromotion(targetPromoID:int, editPromoName:String, editPromoPrice:double, editPromoMain:int, editPromoDessert:int, editPromoDrink:int): void
            +deletePromotion(targetPromoID:int): void
            {static} +retrievePromotion(targetPromoID:int): Promotion
        }

        class MainMenuUI [[../sg/edu/ntu/scse/cz2002/ui/MainMenuUI.html]] {
            #generateMenuScreen(): int
            -checkTableAvailability(): void
        }

        class StaffMgmtMenuUI [[../sg/edu/ntu/scse/cz2002/ui/StaffMgmtMenuUI.html]] {
            #generateMenuScreen(): int
            -createNewStaff(): void
            -editStaffInfo(): void
            -removeStaff(): void
            -listAllStaff(): void
        }

        abstract class BaseMenu [[../sg/edu/ntu/scse/cz2002/ui/BaseMenu.html]] {
            {static} -PRINT_WINDOW_MAX_SIZE: int
            +startMainMenu(): boolean
            {static} #printHeader(headerName:String): void
            {static} #printHeader(headerName:String, length:int): void
            {static} #printBreaks(length:int): void
            {static} #printBreaks(): void
            {static} #doMenuChoice(max:int, specialEscape:int): int
            {abstract} #generateMenuScreen(): int
        }

        class OrderMenuUI [[../sg/edu/ntu/scse/cz2002/ui/OrderMenuUI.html]] {
            {static} +incompleteOrders: ArrayList<Order>
            #generateMenuScreen(): int
            -editOrderMenuScreen(orderNumber:int): void
            -createOrder(): void
            -viewOrder(): void
            -editOrder(): void
            -addOrderItem(o:Order): void
            -addAlaCarteItem(o:Order): void
            -editOrderItem(o:Order): void
            -removeOrderItem(o:Order): void
            -findOrder(id:int, allowFromPaid:boolean): Order
            -printOrderList(orders:ArrayList<Order>, tag:String): void
            -printOrderDetails(o:Order): void
            -getOrderItemToEdit(o:Order, prompt:String): int
            -printOrderItems(items:ArrayList<OrderItem>, prettyPrint:boolean): void
        }

        BaseMenu <|- - ReservationMenuUI

        BaseMenu <|- - FoodMenuUI

        BaseMenu <|- - PromotionMenuUI

        BaseMenu <|- - MainMenuUI

        BaseMenu <|- - StaffMgmtMenuUI

        BaseMenu <|- - OrderMenuUI

    }


    center footer UMLDoclet 1.1.3, PlantUML 1.2018.12
@enduml

PlantUML version 1.2018.12(Sun Oct 21 10:15:15 GMT 2018)
(APACHE source distribution)
Java Runtime: Java(TM) SE Runtime Environment
JVM: Java HotSpot(TM) 64-Bit Server VM
Java Version: 1.8.0_202-b08
Operating System: Linux
OS Version: 4.19.23-coreos-r1
Default Encoding: UTF-8
Language: en
Country: null
--></g></svg>