<?xml version="1.0" encoding="UTF-8" standalone="no"?><svg xmlns="http://www.w3.org/2000/svg" xmlns:xlink="http://www.w3.org/1999/xlink" contentScriptType="application/ecmascript" contentStyleType="text/css" height="650px" preserveAspectRatio="none" style="width:3547px;height:650px;" version="1.1" viewBox="0 0 3547 650" width="3547px" zoomAndPan="magnify"><defs><filter height="300%" id="f1eulhza27pfih" width="300%" x="-1" y="-1"><feGaussianBlur result="blurOut" stdDeviation="2.0"/><feColorMatrix in="blurOut" result="blurOut2" type="matrix" values="0 0 0 0 0 0 0 0 0 0 0 0 0 0 0 0 0 0 .4 0"/><feOffset dx="4.0" dy="4.0" in="blurOut2" result="blurOut3"/><feBlend in="SourceGraphic" in2="blurOut3" mode="normal"/></filter></defs><g><!--cluster sg.edu.ntu.scse.cz2002.ui--><polygon fill="#FFFFFF" filter="url(#f1eulhza27pfih)" points="14,124,198,124,205,146.29,3525,146.29,3525,609,14,609,14,124" style="stroke: #000000; stroke-width: 1.5;"/><line style="stroke: #000000; stroke-width: 1.5;" x1="14" x2="205" y1="146.29" y2="146.29"/><text fill="#000000" font-family="sans-serif" font-size="14" font-weight="bold" lengthAdjust="spacingAndGlyphs" textLength="178" x="18" y="139.3369">sg.edu.ntu.scse.cz2002.ui</text><!--cluster java.lang--><polygon fill="#FFFFFF" filter="url(#f1eulhza27pfih)" points="2942,16,3011,16,3018,38.29,3106,38.29,3106,99,2942,99,2942,16" style="stroke: #000000; stroke-width: 1.5;"/><line style="stroke: #000000; stroke-width: 1.5;" x1="2942" x2="3018" y1="38.29" y2="38.29"/><text fill="#000000" font-family="sans-serif" font-size="14" font-weight="bold" lengthAdjust="spacingAndGlyphs" textLength="63" x="2946" y="31.3369">java.lang</text><!--class sg.edu.ntu.scse.cz2002.ui.ReservationMenuUI--><a target="_top" xlink:actuate="onRequest" xlink:href="../sg/edu/ntu/scse/cz2002/ui/ReservationMenuUI.html" xlink:show="new" xlink:title="../sg/edu/ntu/scse/cz2002/ui/ReservationMenuUI.html" xlink:type="simple"><rect fill="#FEFECE" filter="url(#f1eulhza27pfih)" height="214.3911" id="sg.edu.ntu.scse.cz2002.ui.ReservationMenuUI" style="stroke: #A80036; stroke-width: 1.5;" width="450" x="22" y="374"/><ellipse cx="188.25" cy="390" fill="#ADD1B2" rx="11" ry="11" style="stroke: #A80036; stroke-width: 1.0;"/><path d="M192.0781,395.6563 Q190.2031,396.3125 188.3906,396.3125 Q185.7969,396.3125 184.2109,394.5313 Q182.625,392.75 182.625,389.8438 Q182.625,387.1563 184.0313,385.3906 Q184.8906,384.3125 186.0078,383.8594 Q187.125,383.4063 188.9063,383.4063 Q190.625,383.4063 192.0781,383.7656 L192.0781,385.75 Q190.2031,385.0469 188.9531,385.0469 Q187.2656,385.0469 186.2734,386.3672 Q185.2813,387.6875 185.2813,389.9219 Q185.2813,391.9688 186.3203,393.2656 Q187.3594,394.5625 189,394.5625 Q190.3906,394.5625 192.0781,393.7813 L192.0781,395.6563 Z "/><text fill="#000000" font-family="sans-serif" font-size="12" lengthAdjust="spacingAndGlyphs" textLength="109" x="208.75" y="394.4209">ReservationMenuUI</text><line style="stroke: #A80036; stroke-width: 1.5;" x1="23" x2="471" y1="406" y2="406"/><rect fill="none" height="6" style="stroke: #C82930; stroke-width: 1.0;" width="6" x="30" y="414.8997"/><text fill="#000000" font-family="sans-serif" font-size="11" lengthAdjust="spacingAndGlyphs" textLength="77" x="42" y="420.4521">input: Scanner</text><rect fill="none" height="6" style="stroke: #C82930; stroke-width: 1.0;" width="6" x="30" y="427.699"/><text fill="#000000" font-family="sans-serif" font-size="11" lengthAdjust="spacingAndGlyphs" textLength="89" x="42" y="433.2515">MAX_TABLES: int</text><line style="stroke: #A80036; stroke-width: 1.5;" x1="23" x2="471" y1="439.5986" y2="439.5986"/><polygon fill="#FFFF44" points="33,446.4983,37,450.4983,33,454.4983,29,450.4983" style="stroke: #B38D22; stroke-width: 1.0;"/><text fill="#000000" font-family="sans-serif" font-size="11" lengthAdjust="spacingAndGlyphs" textLength="140" x="42" y="454.0508">generateMenuScreen(): int</text><rect fill="#F24D5C" height="6" style="stroke: #C82930; stroke-width: 1.0;" width="6" x="30" y="461.2976"/><text fill="#000000" font-family="sans-serif" font-size="11" lengthAdjust="spacingAndGlyphs" textLength="176" x="42" y="466.8501">createReservationBooking(): void</text><rect fill="#F24D5C" height="6" style="stroke: #C82930; stroke-width: 1.0;" width="6" x="30" y="474.0969"/><text fill="#000000" font-family="sans-serif" font-size="11" lengthAdjust="spacingAndGlyphs" textLength="424" x="42" y="479.6494">findTableForReservation(numPax:int, resvDate:LocalDate, resvSession:char): int</text><rect fill="#F24D5C" height="6" style="stroke: #C82930; stroke-width: 1.0;" width="6" x="30" y="486.8962"/><text fill="#000000" font-family="sans-serif" font-size="11" lengthAdjust="spacingAndGlyphs" textLength="174" x="42" y="492.4487">checkReservationBooking(): void</text><rect fill="#F24D5C" height="6" style="stroke: #C82930; stroke-width: 1.0;" width="6" x="30" y="499.6956"/><text fill="#000000" font-family="sans-serif" font-size="11" lengthAdjust="spacingAndGlyphs" textLength="183" x="42" y="505.248">removeReservationBooking(): void</text><rect fill="#F24D5C" height="6" style="stroke: #C82930; stroke-width: 1.0;" width="6" x="30" y="512.4949"/><text fill="#000000" font-family="sans-serif" font-size="11" lengthAdjust="spacingAndGlyphs" textLength="122" x="42" y="518.0474">listReservations(): void</text><rect fill="#F24D5C" height="6" style="stroke: #C82930; stroke-width: 1.0;" width="6" x="30" y="525.2942"/><text fill="#000000" font-family="sans-serif" font-size="11" lengthAdjust="spacingAndGlyphs" textLength="178" x="42" y="530.8467">checkExpiredReservations(): void</text><rect fill="#F24D5C" height="6" style="stroke: #C82930; stroke-width: 1.0;" width="6" x="30" y="538.0935"/><text fill="#000000" font-family="sans-serif" font-size="11" lengthAdjust="spacingAndGlyphs" textLength="202" x="42" y="543.646">printReservationLine(telNo:String): int</text><rect fill="#F24D5C" height="6" style="stroke: #C82930; stroke-width: 1.0;" width="6" x="30" y="550.8928"/><text fill="#000000" font-family="sans-serif" font-size="11" lengthAdjust="spacingAndGlyphs" textLength="219" x="42" y="556.4453">printReservationLine(r:Reservation): void</text><rect fill="#F24D5C" height="6" style="stroke: #C82930; stroke-width: 1.0;" width="6" x="30" y="563.6921"/><text fill="#000000" font-family="sans-serif" font-size="11" lengthAdjust="spacingAndGlyphs" textLength="370" x="42" y="569.2446">checkMorningSessionDate(date:LocalDate, isToday:boolean): boolean</text><rect fill="#F24D5C" height="6" style="stroke: #C82930; stroke-width: 1.0;" width="6" x="30" y="576.4915"/><text fill="#000000" font-family="sans-serif" font-size="11" lengthAdjust="spacingAndGlyphs" textLength="367" x="42" y="582.0439">checkEveningSessionDate(date:LocalDate, isToday:boolean): boolean</text></a><!--class sg.edu.ntu.scse.cz2002.ui.MenuChoiceInvalidException--><a target="_top" xlink:actuate="onRequest" xlink:href="../sg/edu/ntu/scse/cz2002/ui/MenuChoiceInvalidException.html" xlink:show="new" xlink:title="../sg/edu/ntu/scse/cz2002/ui/MenuChoiceInvalidException.html" xlink:type="simple"><rect fill="#FEFECE" filter="url(#f1eulhza27pfih)" height="60.7993" id="sg.edu.ntu.scse.cz2002.ui.MenuChoiceInvalidException" style="stroke: #A80036; stroke-width: 1.5;" width="240" x="2904" y="195.5"/><ellipse cx="2939.7" cy="211.5" fill="#ADD1B2" rx="11" ry="11" style="stroke: #A80036; stroke-width: 1.0;"/><path d="M2943.5281,217.1563 Q2941.6531,217.8125 2939.8406,217.8125 Q2937.2469,217.8125 2935.6609,216.0313 Q2934.075,214.25 2934.075,211.3438 Q2934.075,208.6563 2935.4813,206.8906 Q2936.3406,205.8125 2937.4578,205.3594 Q2938.575,204.9063 2940.3563,204.9063 Q2942.075,204.9063 2943.5281,205.2656 L2943.5281,207.25 Q2941.6531,206.5469 2940.4031,206.5469 Q2938.7156,206.5469 2937.7234,207.8672 Q2936.7313,209.1875 2936.7313,211.4219 Q2936.7313,213.4688 2937.7703,214.7656 Q2938.8094,216.0625 2940.45,216.0625 Q2941.8406,216.0625 2943.5281,215.2813 L2943.5281,217.1563 Z "/><text fill="#000000" font-family="sans-serif" font-size="12" lengthAdjust="spacingAndGlyphs" textLength="162" x="2958.3" y="215.9209">MenuChoiceInvalidException</text><line style="stroke: #A80036; stroke-width: 1.5;" x1="2905" x2="3143" y1="227.5" y2="227.5"/><line style="stroke: #A80036; stroke-width: 1.5;" x1="2905" x2="3143" y1="235.5" y2="235.5"/><ellipse cx="2915" cy="247.3997" fill="#84BE84" rx="3" ry="3" style="stroke: #038048; stroke-width: 1.0;"/><text fill="#000000" font-family="sans-serif" font-size="11" lengthAdjust="spacingAndGlyphs" textLength="214" x="2924" y="249.9521">MenuChoiceInvalidException(tag:String)</text></a><!--class sg.edu.ntu.scse.cz2002.ui.FoodMenuUI--><a target="_top" xlink:actuate="onRequest" xlink:href="../sg/edu/ntu/scse/cz2002/ui/FoodMenuUI.html" xlink:show="new" xlink:title="../sg/edu/ntu/scse/cz2002/ui/FoodMenuUI.html" xlink:type="simple"><rect fill="#FEFECE" filter="url(#f1eulhza27pfih)" height="150.3945" id="sg.edu.ntu.scse.cz2002.ui.FoodMenuUI" style="stroke: #A80036; stroke-width: 1.5;" width="685" x="507.5" y="406"/><ellipse cx="810.75" cy="422" fill="#ADD1B2" rx="11" ry="11" style="stroke: #A80036; stroke-width: 1.0;"/><path d="M814.5781,427.6563 Q812.7031,428.3125 810.8906,428.3125 Q808.2969,428.3125 806.7109,426.5313 Q805.125,424.75 805.125,421.8438 Q805.125,419.1563 806.5313,417.3906 Q807.3906,416.3125 808.5078,415.8594 Q809.625,415.4063 811.4063,415.4063 Q813.125,415.4063 814.5781,415.7656 L814.5781,417.75 Q812.7031,417.0469 811.4531,417.0469 Q809.7656,417.0469 808.7734,418.3672 Q807.7813,419.6875 807.7813,421.9219 Q807.7813,423.9688 808.8203,425.2656 Q809.8594,426.5625 811.5,426.5625 Q812.8906,426.5625 814.5781,425.7813 L814.5781,427.6563 Z "/><text fill="#000000" font-family="sans-serif" font-size="12" lengthAdjust="spacingAndGlyphs" textLength="70" x="831.25" y="426.4209">FoodMenuUI</text><line style="stroke: #A80036; stroke-width: 1.5;" x1="508.5" x2="1191.5" y1="438" y2="438"/><polygon fill="none" points="518.5,445.8997,514.5,451.8997,522.5,451.8997" style="stroke: #1963A0; stroke-width: 1.0;"/><text fill="#000000" font-family="sans-serif" font-size="11" lengthAdjust="spacingAndGlyphs" textLength="61" x="527.5" y="452.4521">sc: Scanner</text><line style="stroke: #A80036; stroke-width: 1.5;" x1="508.5" x2="1191.5" y1="458.7993" y2="458.7993"/><polygon fill="#FFFF44" points="518.5,465.699,522.5,469.699,518.5,473.699,514.5,469.699" style="stroke: #B38D22; stroke-width: 1.0;"/><text fill="#000000" font-family="sans-serif" font-size="11" lengthAdjust="spacingAndGlyphs" textLength="140" x="527.5" y="473.2515">generateMenuScreen(): int</text><ellipse cx="518.5" cy="483.4983" fill="#84BE84" rx="3" ry="3" style="stroke: #038048; stroke-width: 1.0;"/><text fill="#000000" font-family="sans-serif" font-size="11" lengthAdjust="spacingAndGlyphs" textLength="92" x="527.5" y="486.0508">printMenu(): void</text><ellipse cx="518.5" cy="496.2976" fill="#84BE84" rx="3" ry="3" style="stroke: #038048; stroke-width: 1.0;"/><text fill="#000000" font-family="sans-serif" font-size="11" lengthAdjust="spacingAndGlyphs" textLength="596" x="527.5" y="498.8501">addNewMenuItem(newItemName:String, newItemType:int, newItemDescription:String, newItemPrice:double): void</text><ellipse cx="518.5" cy="509.0969" fill="#84BE84" rx="3" ry="3" style="stroke: #038048; stroke-width: 1.0;"/><text fill="#000000" font-family="sans-serif" font-size="11" lengthAdjust="spacingAndGlyphs" textLength="659" x="527.5" y="511.6494">editMenuItem(targetItemID:int, editItemName:String, editItemType:int, editItemDescription:String, editItemPrice:double): void</text><ellipse cx="518.5" cy="521.8962" fill="#84BE84" rx="3" ry="3" style="stroke: #038048; stroke-width: 1.0;"/><text fill="#000000" font-family="sans-serif" font-size="11" lengthAdjust="spacingAndGlyphs" textLength="204" x="527.5" y="524.4487">deleteMenuItem(targetItemID:int): void</text><ellipse cx="518.5" cy="534.6956" fill="#84BE84" rx="3" ry="3" style="stroke: #038048; stroke-width: 1.0;"/><text fill="#000000" font-family="sans-serif" font-size="11" lengthAdjust="spacingAndGlyphs" text-decoration="underline" textLength="242" x="527.5" y="537.248">retrieveMenuItem(targetItemID:int): MenuItem</text><line style="stroke: #000000; stroke-width: 1.0;" x1="527.5" x2="769.5" y1="539.248" y2="539.248"/><ellipse cx="518.5" cy="547.4949" fill="#84BE84" rx="3" ry="3" style="stroke: #038048; stroke-width: 1.0;"/><text fill="#000000" font-family="sans-serif" font-size="11" lengthAdjust="spacingAndGlyphs" text-decoration="underline" textLength="502" x="527.5" y="550.0474">retrieveMenuItemListFiltered(targetItemType:MenuItem.MenuItemType): ArrayList&lt;MenuItem&gt;</text><line style="stroke: #000000; stroke-width: 1.0;" x1="527.5" x2="1029.5" y1="552.0474" y2="552.0474"/></a><!--class sg.edu.ntu.scse.cz2002.ui.PromotionMenuUI--><a target="_top" xlink:actuate="onRequest" xlink:href="../sg/edu/ntu/scse/cz2002/ui/PromotionMenuUI.html" xlink:show="new" xlink:title="../sg/edu/ntu/scse/cz2002/ui/PromotionMenuUI.html" xlink:type="simple"><rect fill="#FEFECE" filter="url(#f1eulhza27pfih)" height="137.5952" id="sg.edu.ntu.scse.cz2002.ui.PromotionMenuUI" style="stroke: #A80036; stroke-width: 1.5;" width="816" x="1227" y="412"/><ellipse cx="1580.75" cy="428" fill="#ADD1B2" rx="11" ry="11" style="stroke: #A80036; stroke-width: 1.0;"/><path d="M1584.5781,433.6563 Q1582.7031,434.3125 1580.8906,434.3125 Q1578.2969,434.3125 1576.7109,432.5313 Q1575.125,430.75 1575.125,427.8438 Q1575.125,425.1563 1576.5313,423.3906 Q1577.3906,422.3125 1578.5078,421.8594 Q1579.625,421.4063 1581.4063,421.4063 Q1583.125,421.4063 1584.5781,421.7656 L1584.5781,423.75 Q1582.7031,423.0469 1581.4531,423.0469 Q1579.7656,423.0469 1578.7734,424.3672 Q1577.7813,425.6875 1577.7813,427.9219 Q1577.7813,429.9688 1578.8203,431.2656 Q1579.8594,432.5625 1581.5,432.5625 Q1582.8906,432.5625 1584.5781,431.7813 L1584.5781,433.6563 Z "/><text fill="#000000" font-family="sans-serif" font-size="12" lengthAdjust="spacingAndGlyphs" textLength="100" x="1601.25" y="432.4209">PromotionMenuUI</text><line style="stroke: #A80036; stroke-width: 1.5;" x1="1228" x2="2042" y1="444" y2="444"/><polygon fill="none" points="1238,451.8997,1234,457.8997,1242,457.8997" style="stroke: #1963A0; stroke-width: 1.0;"/><text fill="#000000" font-family="sans-serif" font-size="11" lengthAdjust="spacingAndGlyphs" textLength="61" x="1247" y="458.4521">sc: Scanner</text><line style="stroke: #A80036; stroke-width: 1.5;" x1="1228" x2="2042" y1="464.7993" y2="464.7993"/><polygon fill="#FFFF44" points="1238,471.699,1242,475.699,1238,479.699,1234,475.699" style="stroke: #B38D22; stroke-width: 1.0;"/><text fill="#000000" font-family="sans-serif" font-size="11" lengthAdjust="spacingAndGlyphs" textLength="140" x="1247" y="479.2515">generateMenuScreen(): int</text><ellipse cx="1238" cy="489.4983" fill="#84BE84" rx="3" ry="3" style="stroke: #038048; stroke-width: 1.0;"/><text fill="#000000" font-family="sans-serif" font-size="11" lengthAdjust="spacingAndGlyphs" textLength="119" x="1247" y="492.0508">printPromotion(): void</text><ellipse cx="1238" cy="502.2976" fill="#84BE84" rx="3" ry="3" style="stroke: #038048; stroke-width: 1.0;"/><text fill="#000000" font-family="sans-serif" font-size="11" lengthAdjust="spacingAndGlyphs" textLength="716" x="1247" y="504.8501">addNewPromotion(newPromoName:String, newPromoPrice:double, newPromoMain:int, newPromoDessert:int, newPromoDrink:int): void</text><ellipse cx="1238" cy="515.0969" fill="#84BE84" rx="3" ry="3" style="stroke: #038048; stroke-width: 1.0;"/><text fill="#000000" font-family="sans-serif" font-size="11" lengthAdjust="spacingAndGlyphs" textLength="790" x="1247" y="517.6494">editPromotion(targetPromoID:int, editPromoName:String, editPromoPrice:double, editPromoMain:int, editPromoDessert:int, editPromoDrink:int): void</text><ellipse cx="1238" cy="527.8962" fill="#84BE84" rx="3" ry="3" style="stroke: #038048; stroke-width: 1.0;"/><text fill="#000000" font-family="sans-serif" font-size="11" lengthAdjust="spacingAndGlyphs" textLength="220" x="1247" y="530.4487">deletePromotion(targetPromoID:int): void</text><ellipse cx="1238" cy="540.6956" fill="#84BE84" rx="3" ry="3" style="stroke: #038048; stroke-width: 1.0;"/><text fill="#000000" font-family="sans-serif" font-size="11" lengthAdjust="spacingAndGlyphs" text-decoration="underline" textLength="262" x="1247" y="543.248">retrievePromotion(targetPromoID:int): Promotion</text><line style="stroke: #000000; stroke-width: 1.0;" x1="1247" x2="1509" y1="545.248" y2="545.248"/></a><!--class sg.edu.ntu.scse.cz2002.ui.CheckoutMenuUI--><a target="_top" xlink:actuate="onRequest" xlink:href="../sg/edu/ntu/scse/cz2002/ui/CheckoutMenuUI.html" xlink:show="new" xlink:title="../sg/edu/ntu/scse/cz2002/ui/CheckoutMenuUI.html" xlink:type="simple"><rect fill="#FEFECE" filter="url(#f1eulhza27pfih)" height="150.3945" id="sg.edu.ntu.scse.cz2002.ui.CheckoutMenuUI" style="stroke: #A80036; stroke-width: 1.5;" width="550" x="2078" y="406"/><ellipse cx="2301.25" cy="422" fill="#ADD1B2" rx="11" ry="11" style="stroke: #A80036; stroke-width: 1.0;"/><path d="M2305.0781,427.6563 Q2303.2031,428.3125 2301.3906,428.3125 Q2298.7969,428.3125 2297.2109,426.5313 Q2295.625,424.75 2295.625,421.8438 Q2295.625,419.1563 2297.0313,417.3906 Q2297.8906,416.3125 2299.0078,415.8594 Q2300.125,415.4063 2301.9063,415.4063 Q2303.625,415.4063 2305.0781,415.7656 L2305.0781,417.75 Q2303.2031,417.0469 2301.9531,417.0469 Q2300.2656,417.0469 2299.2734,418.3672 Q2298.2813,419.6875 2298.2813,421.9219 Q2298.2813,423.9688 2299.3203,425.2656 Q2300.3594,426.5625 2302,426.5625 Q2303.3906,426.5625 2305.0781,425.7813 L2305.0781,427.6563 Z "/><text fill="#000000" font-family="sans-serif" font-size="12" lengthAdjust="spacingAndGlyphs" textLength="95" x="2321.75" y="426.4209">CheckoutMenuUI</text><line style="stroke: #A80036; stroke-width: 1.5;" x1="2079" x2="2627" y1="438" y2="438"/><line style="stroke: #A80036; stroke-width: 1.5;" x1="2079" x2="2627" y1="446" y2="446"/><polygon fill="#FFFF44" points="2089,452.8997,2093,456.8997,2089,460.8997,2085,456.8997" style="stroke: #B38D22; stroke-width: 1.0;"/><text fill="#000000" font-family="sans-serif" font-size="11" lengthAdjust="spacingAndGlyphs" textLength="140" x="2098" y="460.4521">generateMenuScreen(): int</text><rect fill="#F24D5C" height="6" style="stroke: #C82930; stroke-width: 1.0;" width="6" x="2086" y="467.699"/><text fill="#000000" font-family="sans-serif" font-size="11" lengthAdjust="spacingAndGlyphs" textLength="106" x="2098" y="473.2515">checkout(): boolean</text><rect fill="#F24D5C" height="6" style="stroke: #C82930; stroke-width: 1.0;" width="6" x="2086" y="480.4983"/><text fill="#000000" font-family="sans-serif" font-size="11" lengthAdjust="spacingAndGlyphs" textLength="74" x="2098" y="486.0508">reprint(): void</text><rect fill="#F24D5C" height="6" style="stroke: #C82930; stroke-width: 1.0;" width="6" x="2086" y="493.2976"/><text fill="#000000" font-family="sans-serif" font-size="11" lengthAdjust="spacingAndGlyphs" textLength="524" x="2098" y="498.8501">generateReceipt(o:Order, total:double, paid:double, type:Invoice.PaymentType): ArrayList&lt;String&gt;</text><rect fill="#F24D5C" height="6" style="stroke: #C82930; stroke-width: 1.0;" width="6" x="2086" y="506.0969"/><text fill="#000000" font-family="sans-serif" font-size="11" lengthAdjust="spacingAndGlyphs" textLength="312" x="2098" y="511.6494">centerText(toCenter:String, length:int, spacer:char): String</text><rect fill="#F24D5C" height="6" style="stroke: #C82930; stroke-width: 1.0;" width="6" x="2086" y="518.8962"/><text fill="#000000" font-family="sans-serif" font-size="11" lengthAdjust="spacingAndGlyphs" textLength="202" x="2098" y="524.4487">spacer(length:int, spacer:char): String</text><rect fill="#F24D5C" height="6" style="stroke: #C82930; stroke-width: 1.0;" width="6" x="2086" y="531.6956"/><text fill="#000000" font-family="sans-serif" font-size="11" lengthAdjust="spacingAndGlyphs" textLength="228" x="2098" y="537.248">requestCashPayment(total:double): double</text><rect fill="#F24D5C" height="6" style="stroke: #C82930; stroke-width: 1.0;" width="6" x="2086" y="544.4949"/><text fill="#000000" font-family="sans-serif" font-size="11" lengthAdjust="spacingAndGlyphs" textLength="187" x="2098" y="550.0474">printOrderDetails(o:Order): double</text></a><!--class sg.edu.ntu.scse.cz2002.ui.MainMenuUI--><a target="_top" xlink:actuate="onRequest" xlink:href="../sg/edu/ntu/scse/cz2002/ui/MainMenuUI.html" xlink:show="new" xlink:title="../sg/edu/ntu/scse/cz2002/ui/MainMenuUI.html" xlink:type="simple"><rect fill="#FEFECE" filter="url(#f1eulhza27pfih)" height="73.5986" id="sg.edu.ntu.scse.cz2002.ui.MainMenuUI" style="stroke: #A80036; stroke-width: 1.5;" width="181" x="2663.5" y="444"/><ellipse cx="2715.25" cy="460" fill="#ADD1B2" rx="11" ry="11" style="stroke: #A80036; stroke-width: 1.0;"/><path d="M2719.0781,465.6563 Q2717.2031,466.3125 2715.3906,466.3125 Q2712.7969,466.3125 2711.2109,464.5313 Q2709.625,462.75 2709.625,459.8438 Q2709.625,457.1563 2711.0313,455.3906 Q2711.8906,454.3125 2713.0078,453.8594 Q2714.125,453.4063 2715.9063,453.4063 Q2717.625,453.4063 2719.0781,453.7656 L2719.0781,455.75 Q2717.2031,455.0469 2715.9531,455.0469 Q2714.2656,455.0469 2713.2734,456.3672 Q2712.2813,457.6875 2712.2813,459.9219 Q2712.2813,461.9688 2713.3203,463.2656 Q2714.3594,464.5625 2716,464.5625 Q2717.3906,464.5625 2719.0781,463.7813 L2719.0781,465.6563 Z "/><text fill="#000000" font-family="sans-serif" font-size="12" lengthAdjust="spacingAndGlyphs" textLength="69" x="2735.75" y="464.4209">MainMenuUI</text><line style="stroke: #A80036; stroke-width: 1.5;" x1="2664.5" x2="2843.5" y1="476" y2="476"/><line style="stroke: #A80036; stroke-width: 1.5;" x1="2664.5" x2="2843.5" y1="484" y2="484"/><polygon fill="#FFFF44" points="2674.5,490.8997,2678.5,494.8997,2674.5,498.8997,2670.5,494.8997" style="stroke: #B38D22; stroke-width: 1.0;"/><text fill="#000000" font-family="sans-serif" font-size="11" lengthAdjust="spacingAndGlyphs" textLength="140" x="2683.5" y="498.4521">generateMenuScreen(): int</text><rect fill="#F24D5C" height="6" style="stroke: #C82930; stroke-width: 1.0;" width="6" x="2671.5" y="505.699"/><text fill="#000000" font-family="sans-serif" font-size="11" lengthAdjust="spacingAndGlyphs" textLength="155" x="2683.5" y="511.2515">checkTableAvailability(): void</text></a><!--class sg.edu.ntu.scse.cz2002.ui.StaffMgmtMenuUI--><a target="_top" xlink:actuate="onRequest" xlink:href="../sg/edu/ntu/scse/cz2002/ui/StaffMgmtMenuUI.html" xlink:show="new" xlink:title="../sg/edu/ntu/scse/cz2002/ui/StaffMgmtMenuUI.html" xlink:type="simple"><rect fill="#FEFECE" filter="url(#f1eulhza27pfih)" height="111.9966" id="sg.edu.ntu.scse.cz2002.ui.StaffMgmtMenuUI" style="stroke: #A80036; stroke-width: 1.5;" width="166" x="2880" y="425"/><ellipse cx="2910.75" cy="441" fill="#ADD1B2" rx="11" ry="11" style="stroke: #A80036; stroke-width: 1.0;"/><path d="M2914.5781,446.6563 Q2912.7031,447.3125 2910.8906,447.3125 Q2908.2969,447.3125 2906.7109,445.5313 Q2905.125,443.75 2905.125,440.8438 Q2905.125,438.1563 2906.5313,436.3906 Q2907.3906,435.3125 2908.5078,434.8594 Q2909.625,434.4063 2911.4063,434.4063 Q2913.125,434.4063 2914.5781,434.7656 L2914.5781,436.75 Q2912.7031,436.0469 2911.4531,436.0469 Q2909.7656,436.0469 2908.7734,437.3672 Q2907.7813,438.6875 2907.7813,440.9219 Q2907.7813,442.9688 2908.8203,444.2656 Q2909.8594,445.5625 2911.5,445.5625 Q2912.8906,445.5625 2914.5781,444.7813 L2914.5781,446.6563 Z "/><text fill="#000000" font-family="sans-serif" font-size="12" lengthAdjust="spacingAndGlyphs" textLength="99" x="2928.25" y="445.4209">StaffMgmtMenuUI</text><line style="stroke: #A80036; stroke-width: 1.5;" x1="2881" x2="3045" y1="457" y2="457"/><line style="stroke: #A80036; stroke-width: 1.5;" x1="2881" x2="3045" y1="465" y2="465"/><polygon fill="#FFFF44" points="2891,471.8997,2895,475.8997,2891,479.8997,2887,475.8997" style="stroke: #B38D22; stroke-width: 1.0;"/><text fill="#000000" font-family="sans-serif" font-size="11" lengthAdjust="spacingAndGlyphs" textLength="140" x="2900" y="479.4521">generateMenuScreen(): int</text><rect fill="#F24D5C" height="6" style="stroke: #C82930; stroke-width: 1.0;" width="6" x="2888" y="486.699"/><text fill="#000000" font-family="sans-serif" font-size="11" lengthAdjust="spacingAndGlyphs" textLength="116" x="2900" y="492.2515">createNewStaff(): void</text><rect fill="#F24D5C" height="6" style="stroke: #C82930; stroke-width: 1.0;" width="6" x="2888" y="499.4983"/><text fill="#000000" font-family="sans-serif" font-size="11" lengthAdjust="spacingAndGlyphs" textLength="102" x="2900" y="505.0508">editStaffInfo(): void</text><rect fill="#F24D5C" height="6" style="stroke: #C82930; stroke-width: 1.0;" width="6" x="2888" y="512.2976"/><text fill="#000000" font-family="sans-serif" font-size="11" lengthAdjust="spacingAndGlyphs" textLength="101" x="2900" y="517.8501">removeStaff(): void</text><rect fill="#F24D5C" height="6" style="stroke: #C82930; stroke-width: 1.0;" width="6" x="2888" y="525.0969"/><text fill="#000000" font-family="sans-serif" font-size="11" lengthAdjust="spacingAndGlyphs" textLength="91" x="2900" y="530.6494">listAllStaff(): void</text></a><!--class sg.edu.ntu.scse.cz2002.ui.BaseMenu--><a target="_top" xlink:actuate="onRequest" xlink:href="../sg/edu/ntu/scse/cz2002/ui/BaseMenu.html" xlink:show="new" xlink:title="../sg/edu/ntu/scse/cz2002/ui/BaseMenu.html" xlink:type="simple"><rect fill="#FEFECE" filter="url(#f1eulhza27pfih)" height="150.3945" id="sg.edu.ntu.scse.cz2002.ui.BaseMenu" style="stroke: #A80036; stroke-width: 1.5;" width="286" x="2210" y="151"/><ellipse cx="2319.75" cy="167" fill="#A9DCDF" rx="11" ry="11" style="stroke: #A80036; stroke-width: 1.0;"/><path d="M2315.4219,172.25 L2319.1406,159.9688 L2321.5938,159.9688 L2325.3125,172.25 L2322.7656,172.25 L2321.8281,169.125 L2318.1875,169.125 L2317.25,172.25 L2315.4219,172.25 Z M2318.6563,167.5938 L2321.375,167.5938 L2320,163.1094 L2318.6563,167.5938 Z "/><text fill="#000000" font-family="sans-serif" font-size="12" font-style="italic" lengthAdjust="spacingAndGlyphs" textLength="58" x="2340.25" y="171.4209">BaseMenu</text><line style="stroke: #A80036; stroke-width: 1.5;" x1="2211" x2="2495" y1="183" y2="183"/><rect fill="none" height="6" style="stroke: #C82930; stroke-width: 1.0;" width="6" x="2218" y="191.8997"/><text fill="#000000" font-family="sans-serif" font-size="11" lengthAdjust="spacingAndGlyphs" text-decoration="underline" textLength="161" x="2230" y="197.4521">PRINT_WINDOW_MAX_SIZE: int</text><line style="stroke: #000000; stroke-width: 1.0;" x1="2230" x2="2391" y1="199.4521" y2="199.4521"/><line style="stroke: #A80036; stroke-width: 1.5;" x1="2211" x2="2495" y1="203.7993" y2="203.7993"/><ellipse cx="2221" cy="215.699" fill="#84BE84" rx="3" ry="3" style="stroke: #038048; stroke-width: 1.0;"/><text fill="#000000" font-family="sans-serif" font-size="11" lengthAdjust="spacingAndGlyphs" textLength="136" x="2230" y="218.2515">startMainMenu(): boolean</text><polygon fill="#FFFF44" points="2221,223.4983,2225,227.4983,2221,231.4983,2217,227.4983" style="stroke: #B38D22; stroke-width: 1.0;"/><text fill="#000000" font-family="sans-serif" font-size="11" lengthAdjust="spacingAndGlyphs" text-decoration="underline" textLength="203" x="2230" y="231.0508">printHeader(headerName:String): void</text><line style="stroke: #000000; stroke-width: 1.0;" x1="2230" x2="2433" y1="233.0508" y2="233.0508"/><polygon fill="#FFFF44" points="2221,236.2976,2225,240.2976,2221,244.2976,2217,240.2976" style="stroke: #B38D22; stroke-width: 1.0;"/><text fill="#000000" font-family="sans-serif" font-size="11" lengthAdjust="spacingAndGlyphs" text-decoration="underline" textLength="260" x="2230" y="243.8501">printHeader(headerName:String, length:int): void</text><line style="stroke: #000000; stroke-width: 1.0;" x1="2230" x2="2490" y1="245.8501" y2="245.8501"/><polygon fill="#FFFF44" points="2221,249.0969,2225,253.0969,2221,257.0969,2217,253.0969" style="stroke: #B38D22; stroke-width: 1.0;"/><text fill="#000000" font-family="sans-serif" font-size="11" lengthAdjust="spacingAndGlyphs" text-decoration="underline" textLength="149" x="2230" y="256.6494">printBreaks(length:int): void</text><line style="stroke: #000000; stroke-width: 1.0;" x1="2230" x2="2379" y1="258.6494" y2="258.6494"/><polygon fill="#FFFF44" points="2221,261.8962,2225,265.8962,2221,269.8962,2217,265.8962" style="stroke: #B38D22; stroke-width: 1.0;"/><text fill="#000000" font-family="sans-serif" font-size="11" lengthAdjust="spacingAndGlyphs" text-decoration="underline" textLength="98" x="2230" y="269.4487">printBreaks(): void</text><line style="stroke: #000000; stroke-width: 1.0;" x1="2230" x2="2328" y1="271.4487" y2="271.4487"/><polygon fill="#FFFF44" points="2221,274.6956,2225,278.6956,2221,282.6956,2217,278.6956" style="stroke: #B38D22; stroke-width: 1.0;"/><text fill="#000000" font-family="sans-serif" font-size="11" lengthAdjust="spacingAndGlyphs" text-decoration="underline" textLength="245" x="2230" y="282.248">doMenuChoice(max:int, specialEscape:int): int</text><line style="stroke: #000000; stroke-width: 1.0;" x1="2230" x2="2475" y1="284.248" y2="284.248"/><polygon fill="#FFFF44" points="2221,287.4949,2225,291.4949,2221,295.4949,2217,291.4949" style="stroke: #B38D22; stroke-width: 1.0;"/><text fill="#000000" font-family="sans-serif" font-size="11" font-style="italic" lengthAdjust="spacingAndGlyphs" textLength="140" x="2230" y="295.0474">generateMenuScreen(): int</text></a><!--class sg.edu.ntu.scse.cz2002.ui.OrderMenuUI--><a target="_top" xlink:actuate="onRequest" xlink:href="../sg/edu/ntu/scse/cz2002/ui/OrderMenuUI.html" xlink:show="new" xlink:title="../sg/edu/ntu/scse/cz2002/ui/OrderMenuUI.html" xlink:type="simple"><rect fill="#FEFECE" filter="url(#f1eulhza27pfih)" height="239.9897" id="sg.edu.ntu.scse.cz2002.ui.OrderMenuUI" style="stroke: #A80036; stroke-width: 1.5;" width="436" x="3081" y="361"/><ellipse cx="3256.75" cy="377" fill="#ADD1B2" rx="11" ry="11" style="stroke: #A80036; stroke-width: 1.0;"/><path d="M3260.5781,382.6563 Q3258.7031,383.3125 3256.8906,383.3125 Q3254.2969,383.3125 3252.7109,381.5313 Q3251.125,379.75 3251.125,376.8438 Q3251.125,374.1563 3252.5313,372.3906 Q3253.3906,371.3125 3254.5078,370.8594 Q3255.625,370.4063 3257.4063,370.4063 Q3259.125,370.4063 3260.5781,370.7656 L3260.5781,372.75 Q3258.7031,372.0469 3257.4531,372.0469 Q3255.7656,372.0469 3254.7734,373.3672 Q3253.7813,374.6875 3253.7813,376.9219 Q3253.7813,378.9688 3254.8203,380.2656 Q3255.8594,381.5625 3257.5,381.5625 Q3258.8906,381.5625 3260.5781,380.7813 L3260.5781,382.6563 Z "/><text fill="#000000" font-family="sans-serif" font-size="12" lengthAdjust="spacingAndGlyphs" textLength="76" x="3277.25" y="381.4209">OrderMenuUI</text><line style="stroke: #A80036; stroke-width: 1.5;" x1="3082" x2="3516" y1="393" y2="393"/><ellipse cx="3092" cy="404.8997" fill="none" rx="3" ry="3" style="stroke: #038048; stroke-width: 1.0;"/><text fill="#000000" font-family="sans-serif" font-size="11" lengthAdjust="spacingAndGlyphs" text-decoration="underline" textLength="202" x="3101" y="407.4521">incompleteOrders: ArrayList&lt;Order&gt;</text><line style="stroke: #000000; stroke-width: 1.0;" x1="3101" x2="3303" y1="409.4521" y2="409.4521"/><line style="stroke: #A80036; stroke-width: 1.5;" x1="3082" x2="3516" y1="413.7993" y2="413.7993"/><polygon fill="#FFFF44" points="3092,420.699,3096,424.699,3092,428.699,3088,424.699" style="stroke: #B38D22; stroke-width: 1.0;"/><text fill="#000000" font-family="sans-serif" font-size="11" lengthAdjust="spacingAndGlyphs" textLength="140" x="3101" y="428.2515">generateMenuScreen(): int</text><rect fill="#F24D5C" height="6" style="stroke: #C82930; stroke-width: 1.0;" width="6" x="3089" y="435.4983"/><text fill="#000000" font-family="sans-serif" font-size="11" lengthAdjust="spacingAndGlyphs" textLength="244" x="3101" y="441.0508">editOrderMenuScreen(orderNumber:int): void</text><rect fill="#F24D5C" height="6" style="stroke: #C82930; stroke-width: 1.0;" width="6" x="3089" y="448.2976"/><text fill="#000000" font-family="sans-serif" font-size="11" lengthAdjust="spacingAndGlyphs" textLength="102" x="3101" y="453.8501">createOrder(): void</text><rect fill="#F24D5C" height="6" style="stroke: #C82930; stroke-width: 1.0;" width="6" x="3089" y="461.0969"/><text fill="#000000" font-family="sans-serif" font-size="11" lengthAdjust="spacingAndGlyphs" textLength="92" x="3101" y="466.6494">viewOrder(): void</text><rect fill="#F24D5C" height="6" style="stroke: #C82930; stroke-width: 1.0;" width="6" x="3089" y="473.8962"/><text fill="#000000" font-family="sans-serif" font-size="11" lengthAdjust="spacingAndGlyphs" textLength="89" x="3101" y="479.4487">editOrder(): void</text><rect fill="#F24D5C" height="6" style="stroke: #C82930; stroke-width: 1.0;" width="6" x="3089" y="486.6956"/><text fill="#000000" font-family="sans-serif" font-size="11" lengthAdjust="spacingAndGlyphs" textLength="154" x="3101" y="492.248">addOrderItem(o:Order): void</text><rect fill="#F24D5C" height="6" style="stroke: #C82930; stroke-width: 1.0;" width="6" x="3089" y="499.4949"/><text fill="#000000" font-family="sans-serif" font-size="11" lengthAdjust="spacingAndGlyphs" textLength="168" x="3101" y="505.0474">addAlaCarteItem(o:Order): void</text><rect fill="#F24D5C" height="6" style="stroke: #C82930; stroke-width: 1.0;" width="6" x="3089" y="512.2942"/><text fill="#000000" font-family="sans-serif" font-size="11" lengthAdjust="spacingAndGlyphs" textLength="154" x="3101" y="517.8467">editOrderItem(o:Order): void</text><rect fill="#F24D5C" height="6" style="stroke: #C82930; stroke-width: 1.0;" width="6" x="3089" y="525.0935"/><text fill="#000000" font-family="sans-serif" font-size="11" lengthAdjust="spacingAndGlyphs" textLength="174" x="3101" y="530.646">removeOrderItem(o:Order): void</text><rect fill="#F24D5C" height="6" style="stroke: #C82930; stroke-width: 1.0;" width="6" x="3089" y="537.8928"/><text fill="#000000" font-family="sans-serif" font-size="11" lengthAdjust="spacingAndGlyphs" textLength="255" x="3101" y="543.4453">findOrder(id:int, allowFromPaid:boolean): Order</text><ellipse cx="3092" cy="553.6921" fill="#84BE84" rx="3" ry="3" style="stroke: #038048; stroke-width: 1.0;"/><text fill="#000000" font-family="sans-serif" font-size="11" lengthAdjust="spacingAndGlyphs" text-decoration="underline" textLength="410" x="3101" y="556.2446">printOrderList(orders:ArrayList&lt;Order&gt;, tag:String, tableSort:boolean): void</text><line style="stroke: #000000; stroke-width: 1.0;" x1="3101" x2="3511" y1="558.2446" y2="558.2446"/><rect fill="#F24D5C" height="6" style="stroke: #C82930; stroke-width: 1.0;" width="6" x="3089" y="563.4915"/><text fill="#000000" font-family="sans-serif" font-size="11" lengthAdjust="spacingAndGlyphs" textLength="173" x="3101" y="569.0439">printOrderDetails(o:Order): void</text><rect fill="#F24D5C" height="6" style="stroke: #C82930; stroke-width: 1.0;" width="6" x="3089" y="576.2908"/><text fill="#000000" font-family="sans-serif" font-size="11" lengthAdjust="spacingAndGlyphs" textLength="257" x="3101" y="581.8433">getOrderItemToEdit(o:Order, prompt:String): int</text><ellipse cx="3092" cy="592.0901" fill="#84BE84" rx="3" ry="3" style="stroke: #038048; stroke-width: 1.0;"/><text fill="#000000" font-family="sans-serif" font-size="11" lengthAdjust="spacingAndGlyphs" text-decoration="underline" textLength="387" x="3101" y="594.6426">printOrderItems(items:ArrayList&lt;OrderItem&gt;, prettyPrint:boolean): void</text><line style="stroke: #000000; stroke-width: 1.0;" x1="3101" x2="3488" y1="596.6426" y2="596.6426"/></a><!--class java.lang.IllegalStateException--><rect fill="#FEFECE" filter="url(#f1eulhza27pfih)" height="48" id="java.lang.IllegalStateException" style="stroke: #A80036; stroke-width: 1.5;" width="149" x="2949.5" y="43"/><ellipse cx="2964.5" cy="59" fill="#ADD1B2" rx="11" ry="11" style="stroke: #A80036; stroke-width: 1.0;"/><path d="M2968.3281,64.6563 Q2966.4531,65.3125 2964.6406,65.3125 Q2962.0469,65.3125 2960.4609,63.5313 Q2958.875,61.75 2958.875,58.8438 Q2958.875,56.1563 2960.2813,54.3906 Q2961.1406,53.3125 2962.2578,52.8594 Q2963.375,52.4063 2965.1563,52.4063 Q2966.875,52.4063 2968.3281,52.7656 L2968.3281,54.75 Q2966.4531,54.0469 2965.2031,54.0469 Q2963.5156,54.0469 2962.5234,55.3672 Q2961.5313,56.6875 2961.5313,58.9219 Q2961.5313,60.9688 2962.5703,62.2656 Q2963.6094,63.5625 2965.25,63.5625 Q2966.6406,63.5625 2968.3281,62.7813 L2968.3281,64.6563 Z "/><text fill="#000000" font-family="sans-serif" font-size="12" lengthAdjust="spacingAndGlyphs" textLength="117" x="2978.5" y="63.4209">IllegalStateException</text><line style="stroke: #A80036; stroke-width: 1.5;" x1="2950.5" x2="3097.5" y1="75" y2="75"/><line style="stroke: #A80036; stroke-width: 1.5;" x1="2950.5" x2="3097.5" y1="83" y2="83"/><!--link sg.edu.ntu.scse.cz2002.ui.BaseMenu to sg.edu.ntu.scse.cz2002.ui.ReservationMenuUI--><path d="M2189.7423,229.7934 C1796.9671,240.2099 808.2598,274.4531 490,361 C476.6063,364.6423 463.0727,369.0386 449.6091,373.9668 " fill="none" id="sg.edu.ntu.scse.cz2002.ui.BaseMenu-sg.edu.ntu.scse.cz2002.ui.ReservationMenuUI" style="stroke: #A80036; stroke-width: 1.0;"/><polygon fill="none" points="2189.7881,222.7899,2209.9644,229.2643,2190.1544,236.7851,2189.7881,222.7899" style="stroke: #A80036; stroke-width: 1.0;"/><!--link java.lang.IllegalStateException to sg.edu.ntu.scse.cz2002.ui.MenuChoiceInvalidException--><path d="M3024,111.2874 C3024,138.0516 3024,171.4886 3024,195.3447 " fill="none" id="java.lang.IllegalStateException-sg.edu.ntu.scse.cz2002.ui.MenuChoiceInvalidException" style="stroke: #A80036; stroke-width: 1.0;"/><polygon fill="none" points="3017.0001,111.1487,3024,91.1487,3031.0001,111.1486,3017.0001,111.1487" style="stroke: #A80036; stroke-width: 1.0;"/><!--link sg.edu.ntu.scse.cz2002.ui.BaseMenu to sg.edu.ntu.scse.cz2002.ui.FoodMenuUI--><path d="M2189.736,234.7785 C1966.3374,249.1642 1553.8838,284.2244 1210,361 C1157.758,372.6636 1102.414,389.0113 1051.1994,405.895 " fill="none" id="sg.edu.ntu.scse.cz2002.ui.BaseMenu-sg.edu.ntu.scse.cz2002.ui.FoodMenuUI" style="stroke: #A80036; stroke-width: 1.0;"/><polygon fill="none" points="2189.3667,227.788,2209.7687,233.5114,2190.2505,241.76,2189.3667,227.788" style="stroke: #A80036; stroke-width: 1.0;"/><!--link sg.edu.ntu.scse.cz2002.ui.BaseMenu to sg.edu.ntu.scse.cz2002.ui.PromotionMenuUI--><path d="M2190.9388,283.5566 C2083.7958,321.6087 1942.7613,371.6976 1829.5558,411.9029 " fill="none" id="sg.edu.ntu.scse.cz2002.ui.BaseMenu-sg.edu.ntu.scse.cz2002.ui.PromotionMenuUI" style="stroke: #A80036; stroke-width: 1.0;"/><polygon fill="none" points="2188.6685,276.9345,2209.858,276.8374,2193.354,290.1272,2188.6685,276.9345" style="stroke: #A80036; stroke-width: 1.0;"/><!--link sg.edu.ntu.scse.cz2002.ui.BaseMenu to sg.edu.ntu.scse.cz2002.ui.CheckoutMenuUI--><path d="M2353,321.4716 C2353,349.3934 2353,379.5065 2353,405.9675 " fill="none" id="sg.edu.ntu.scse.cz2002.ui.BaseMenu-sg.edu.ntu.scse.cz2002.ui.CheckoutMenuUI" style="stroke: #A80036; stroke-width: 1.0;"/><polygon fill="none" points="2346.0001,321.1292,2353,301.1292,2360.0001,321.1292,2346.0001,321.1292" style="stroke: #A80036; stroke-width: 1.0;"/><!--link sg.edu.ntu.scse.cz2002.ui.BaseMenu to sg.edu.ntu.scse.cz2002.ui.MainMenuUI--><path d="M2514.4981,286.2683 C2559.1757,306.6196 2606.267,331.7326 2646,361 C2677.5938,384.272 2706.9317,417.9789 2727.0323,443.7476 " fill="none" id="sg.edu.ntu.scse.cz2002.ui.BaseMenu-sg.edu.ntu.scse.cz2002.ui.MainMenuUI" style="stroke: #A80036; stroke-width: 1.0;"/><polygon fill="none" points="2511.6249,292.6516,2496.1944,278.1292,2517.3133,279.8593,2511.6249,292.6516" style="stroke: #A80036; stroke-width: 1.0;"/><!--link sg.edu.ntu.scse.cz2002.ui.BaseMenu to sg.edu.ntu.scse.cz2002.ui.StaffMgmtMenuUI--><path d="M2516.1332,243.5571 C2621.3585,260.8279 2757.5562,294.7587 2862,361 C2887.5249,377.1887 2909.9033,401.8991 2927.065,424.6979 " fill="none" id="sg.edu.ntu.scse.cz2002.ui.BaseMenu-sg.edu.ntu.scse.cz2002.ui.StaffMgmtMenuUI" style="stroke: #A80036; stroke-width: 1.0;"/><polygon fill="none" points="2514.8608,250.4431,2496.191,240.4212,2517.0356,236.613,2514.8608,250.4431" style="stroke: #A80036; stroke-width: 1.0;"/><!--link sg.edu.ntu.scse.cz2002.ui.BaseMenu to sg.edu.ntu.scse.cz2002.ui.OrderMenuUI--><path d="M2516.1778,243.5834 C2662.5191,262.478 2881.6448,298.5631 3064,361 C3069.6342,362.9291 3075.3022,364.9717 3080.986,367.1114 " fill="none" id="sg.edu.ntu.scse.cz2002.ui.BaseMenu-sg.edu.ntu.scse.cz2002.ui.OrderMenuUI" style="stroke: #A80036; stroke-width: 1.0;"/><polygon fill="none" points="2514.9847,250.4883,2496.0229,241.0304,2516.744,236.5993,2514.9847,250.4883" style="stroke: #A80036; stroke-width: 1.0;"/><text fill="#888888" font-family="sans-serif" font-size="10" lengthAdjust="spacingAndGlyphs" textLength="182" x="1684.5" y="636.502">UMLDoclet 1.1.3, PlantUML 1.2018.12</text><!--
@startuml

    namespace sg.edu.ntu.scse.cz2002.ui {

        class ReservationMenuUI [[../sg/edu/ntu/scse/cz2002/ui/ReservationMenuUI.html]] {
            -input: Scanner
            -MAX_TABLES: int
            #generateMenuScreen(): int
            -createReservationBooking(): void
            -findTableForReservation(numPax:int, resvDate:LocalDate, resvSession:char): int
            -checkReservationBooking(): void
            -removeReservationBooking(): void
            -listReservations(): void
            -checkExpiredReservations(): void
            -printReservationLine(telNo:String): int
            -printReservationLine(r:Reservation): void
            -checkMorningSessionDate(date:LocalDate, isToday:boolean): boolean
            -checkEveningSessionDate(date:LocalDate, isToday:boolean): boolean
        }

        class MenuChoiceInvalidException [[../sg/edu/ntu/scse/cz2002/ui/MenuChoiceInvalidException.html]] {
            +MenuChoiceInvalidException(tag:String)
        }

        class FoodMenuUI [[../sg/edu/ntu/scse/cz2002/ui/FoodMenuUI.html]] {
            ~sc: Scanner
            #generateMenuScreen(): int
            +printMenu(): void
            +addNewMenuItem(newItemName:String, newItemType:int, newItemDescription:String, newItemPrice:double): void
            +editMenuItem(targetItemID:int, editItemName:String, editItemType:int, editItemDescription:String, editItemPrice:double): void
            +deleteMenuItem(targetItemID:int): void
            {static} +retrieveMenuItem(targetItemID:int): MenuItem
            {static} +retrieveMenuItemListFiltered(targetItemType:MenuItem.MenuItemType): ArrayList<MenuItem>
        }

        class PromotionMenuUI [[../sg/edu/ntu/scse/cz2002/ui/PromotionMenuUI.html]] {
            ~sc: Scanner
            #generateMenuScreen(): int
            +printPromotion(): void
            +addNewPromotion(newPromoName:String, newPromoPrice:double, newPromoMain:int, newPromoDessert:int, newPromoDrink:int): void
            +editPromotion(targetPromoID:int, editPromoName:String, editPromoPrice:double, editPromoMain:int, editPromoDessert:int, editPromoDrink:int): void
            +deletePromotion(targetPromoID:int): void
            {static} +retrievePromotion(targetPromoID:int): Promotion
        }

        class CheckoutMenuUI [[../sg/edu/ntu/scse/cz2002/ui/CheckoutMenuUI.html]] {
            #generateMenuScreen(): int
            -checkout(): boolean
            -reprint(): void
            -generateReceipt(o:Order, total:double, paid:double, type:Invoice.PaymentType): ArrayList<String>
            -centerText(toCenter:String, length:int, spacer:char): String
            -spacer(length:int, spacer:char): String
            -requestCashPayment(total:double): double
            -printOrderDetails(o:Order): double
        }

        class MainMenuUI [[../sg/edu/ntu/scse/cz2002/ui/MainMenuUI.html]] {
            #generateMenuScreen(): int
            -checkTableAvailability(): void
        }

        class StaffMgmtMenuUI [[../sg/edu/ntu/scse/cz2002/ui/StaffMgmtMenuUI.html]] {
            #generateMenuScreen(): int
            -createNewStaff(): void
            -editStaffInfo(): void
            -removeStaff(): void
            -listAllStaff(): void
        }

        abstract class BaseMenu [[../sg/edu/ntu/scse/cz2002/ui/BaseMenu.html]] {
            {static} -PRINT_WINDOW_MAX_SIZE: int
            +startMainMenu(): boolean
            {static} #printHeader(headerName:String): void
            {static} #printHeader(headerName:String, length:int): void
            {static} #printBreaks(length:int): void
            {static} #printBreaks(): void
            {static} #doMenuChoice(max:int, specialEscape:int): int
            {abstract} #generateMenuScreen(): int
        }

        class OrderMenuUI [[../sg/edu/ntu/scse/cz2002/ui/OrderMenuUI.html]] {
            {static} +incompleteOrders: ArrayList<Order>
            #generateMenuScreen(): int
            -editOrderMenuScreen(orderNumber:int): void
            -createOrder(): void
            -viewOrder(): void
            -editOrder(): void
            -addOrderItem(o:Order): void
            -addAlaCarteItem(o:Order): void
            -editOrderItem(o:Order): void
            -removeOrderItem(o:Order): void
            -findOrder(id:int, allowFromPaid:boolean): Order
            {static} +printOrderList(orders:ArrayList<Order>, tag:String, tableSort:boolean): void
            -printOrderDetails(o:Order): void
            -getOrderItemToEdit(o:Order, prompt:String): int
            {static} +printOrderItems(items:ArrayList<OrderItem>, prettyPrint:boolean): void
        }

        BaseMenu <|- - ReservationMenuUI

        class java.lang.IllegalStateException
        java.lang.IllegalStateException <|- - MenuChoiceInvalidException

        BaseMenu <|- - FoodMenuUI

        BaseMenu <|- - PromotionMenuUI

        BaseMenu <|- - CheckoutMenuUI

        BaseMenu <|- - MainMenuUI

        BaseMenu <|- - StaffMgmtMenuUI

        BaseMenu <|- - OrderMenuUI

    }


    center footer UMLDoclet 1.1.3, PlantUML 1.2018.12
@enduml

PlantUML version 1.2018.12(Sun Oct 21 10:15:15 GMT 2018)
(APACHE source distribution)
Java Runtime: Java(TM) SE Runtime Environment
JVM: Java HotSpot(TM) 64-Bit Server VM
Java Version: 1.8.0_202-b08
Operating System: Linux
OS Version: 4.19.23-coreos-r1
Default Encoding: UTF-8
Language: en
Country: null
--></g></svg>