<?xml version="1.0" encoding="UTF-8" standalone="no"?><svg xmlns="http://www.w3.org/2000/svg" xmlns:xlink="http://www.w3.org/1999/xlink" contentScriptType="application/ecmascript" contentStyleType="text/css" height="102px" preserveAspectRatio="none" style="width:198px;height:102px;" version="1.1" viewBox="0 0 198 102" width="198px" zoomAndPan="magnify"><defs><filter height="300%" id="f166ov7254duag" width="300%" x="-1" y="-1"><feGaussianBlur result="blurOut" stdDeviation="2.0"/><feColorMatrix in="blurOut" result="blurOut2" type="matrix" values="0 0 0 0 0 0 0 0 0 0 0 0 0 0 0 0 0 0 .4 0"/><feOffset dx="4.0" dy="4.0" in="blurOut2" result="blurOut3"/><feBlend in="SourceGraphic" in2="blurOut3" mode="normal"/></filter></defs><g><!--class MainMenuUI--><rect fill="#FEFECE" filter="url(#f166ov7254duag)" height="60.7993" id="MainMenuUI" style="stroke: #A80036; stroke-width: 1.5;" width="166" x="6" y="8"/><ellipse cx="50.25" cy="24" fill="#ADD1B2" rx="11" ry="11" style="stroke: #A80036; stroke-width: 1.0;"/><path d="M54.0781,29.6563 Q52.2031,30.3125 50.3906,30.3125 Q47.7969,30.3125 46.2109,28.5313 Q44.625,26.75 44.625,23.8438 Q44.625,21.1563 46.0313,19.3906 Q46.8906,18.3125 48.0078,17.8594 Q49.125,17.4063 50.9063,17.4063 Q52.625,17.4063 54.0781,17.7656 L54.0781,19.75 Q52.2031,19.0469 50.9531,19.0469 Q49.2656,19.0469 48.2734,20.3672 Q47.2813,21.6875 47.2813,23.9219 Q47.2813,25.9688 48.3203,27.2656 Q49.3594,28.5625 51,28.5625 Q52.3906,28.5625 54.0781,27.7813 L54.0781,29.6563 Z "/><text fill="#000000" font-family="sans-serif" font-size="12" lengthAdjust="spacingAndGlyphs" textLength="69" x="70.75" y="28.4209">MainMenuUI</text><line style="stroke: #A80036; stroke-width: 1.5;" x1="7" x2="171" y1="40" y2="40"/><line style="stroke: #A80036; stroke-width: 1.5;" x1="7" x2="171" y1="48" y2="48"/><polygon fill="#FFFF44" points="17,54.8997,21,58.8997,17,62.8997,13,58.8997" style="stroke: #B38D22; stroke-width: 1.0;"/><text fill="#000000" font-family="sans-serif" font-size="11" lengthAdjust="spacingAndGlyphs" textLength="140" x="26" y="62.4521">generateMenuScreen(): int</text><text fill="#888888" font-family="sans-serif" font-size="10" lengthAdjust="spacingAndGlyphs" textLength="182" x="4" y="88.502">UMLDoclet 1.1.3, PlantUML 1.2018.12</text><!--
@startuml

    class MainMenuUI {
        #generateMenuScreen(): int
    }


    center footer UMLDoclet 1.1.3, PlantUML 1.2018.12
@enduml

PlantUML version 1.2018.12(Sun Oct 21 10:15:15 GMT 2018)
(APACHE source distribution)
Java Runtime: Java(TM) SE Runtime Environment
JVM: Java HotSpot(TM) 64-Bit Server VM
Java Version: 1.8.0_202-b08
Operating System: Linux
OS Version: 4.19.23-coreos-r1
Default Encoding: UTF-8
Language: en
Country: null
--></g></svg>