<?xml version="1.0" encoding="UTF-8" standalone="no"?><svg xmlns="http://www.w3.org/2000/svg" xmlns:xlink="http://www.w3.org/1999/xlink" contentScriptType="application/ecmascript" contentStyleType="text/css" height="191px" preserveAspectRatio="none" style="width:567px;height:191px;" version="1.1" viewBox="0 0 567 191" width="567px" zoomAndPan="magnify"><defs><filter height="300%" id="f1jrlvwmmytpru" width="300%" x="-1" y="-1"><feGaussianBlur result="blurOut" stdDeviation="2.0"/><feColorMatrix in="blurOut" result="blurOut2" type="matrix" values="0 0 0 0 0 0 0 0 0 0 0 0 0 0 0 0 0 0 .4 0"/><feOffset dx="4.0" dy="4.0" in="blurOut2" result="blurOut3"/><feBlend in="SourceGraphic" in2="blurOut3" mode="normal"/></filter></defs><g><!--class CheckoutMenuUI--><a target="_top" xlink:actuate="onRequest" xlink:href="../sg/edu/ntu/scse/cz2002/ui/CheckoutMenuUI.html" xlink:show="new" xlink:title="../sg/edu/ntu/scse/cz2002/ui/CheckoutMenuUI.html" xlink:type="simple"><rect fill="#FEFECE" filter="url(#f1jrlvwmmytpru)" height="150.3945" id="CheckoutMenuUI" style="stroke: #A80036; stroke-width: 1.5;" width="550" x="6" y="8"/><ellipse cx="229.25" cy="24" fill="#ADD1B2" rx="11" ry="11" style="stroke: #A80036; stroke-width: 1.0;"/><path d="M233.0781,29.6563 Q231.2031,30.3125 229.3906,30.3125 Q226.7969,30.3125 225.2109,28.5313 Q223.625,26.75 223.625,23.8438 Q223.625,21.1563 225.0313,19.3906 Q225.8906,18.3125 227.0078,17.8594 Q228.125,17.4063 229.9063,17.4063 Q231.625,17.4063 233.0781,17.7656 L233.0781,19.75 Q231.2031,19.0469 229.9531,19.0469 Q228.2656,19.0469 227.2734,20.3672 Q226.2813,21.6875 226.2813,23.9219 Q226.2813,25.9688 227.3203,27.2656 Q228.3594,28.5625 230,28.5625 Q231.3906,28.5625 233.0781,27.7813 L233.0781,29.6563 Z "/><text fill="#000000" font-family="sans-serif" font-size="12" lengthAdjust="spacingAndGlyphs" textLength="95" x="249.75" y="28.4209">CheckoutMenuUI</text><line style="stroke: #A80036; stroke-width: 1.5;" x1="7" x2="555" y1="40" y2="40"/><line style="stroke: #A80036; stroke-width: 1.5;" x1="7" x2="555" y1="48" y2="48"/><polygon fill="#FFFF44" points="17,54.8997,21,58.8997,17,62.8997,13,58.8997" style="stroke: #B38D22; stroke-width: 1.0;"/><text fill="#000000" font-family="sans-serif" font-size="11" lengthAdjust="spacingAndGlyphs" textLength="140" x="26" y="62.4521">generateMenuScreen(): int</text><rect fill="#F24D5C" height="6" style="stroke: #C82930; stroke-width: 1.0;" width="6" x="14" y="69.699"/><text fill="#000000" font-family="sans-serif" font-size="11" lengthAdjust="spacingAndGlyphs" textLength="106" x="26" y="75.2515">checkout(): boolean</text><rect fill="#F24D5C" height="6" style="stroke: #C82930; stroke-width: 1.0;" width="6" x="14" y="82.4983"/><text fill="#000000" font-family="sans-serif" font-size="11" lengthAdjust="spacingAndGlyphs" textLength="74" x="26" y="88.0508">reprint(): void</text><rect fill="#F24D5C" height="6" style="stroke: #C82930; stroke-width: 1.0;" width="6" x="14" y="95.2976"/><text fill="#000000" font-family="sans-serif" font-size="11" lengthAdjust="spacingAndGlyphs" textLength="524" x="26" y="100.8501">generateReceipt(o:Order, total:double, paid:double, type:Invoice.PaymentType): ArrayList&lt;String&gt;</text><rect fill="#F24D5C" height="6" style="stroke: #C82930; stroke-width: 1.0;" width="6" x="14" y="108.0969"/><text fill="#000000" font-family="sans-serif" font-size="11" lengthAdjust="spacingAndGlyphs" textLength="312" x="26" y="113.6494">centerText(toCenter:String, length:int, spacer:char): String</text><rect fill="#F24D5C" height="6" style="stroke: #C82930; stroke-width: 1.0;" width="6" x="14" y="120.8962"/><text fill="#000000" font-family="sans-serif" font-size="11" lengthAdjust="spacingAndGlyphs" textLength="202" x="26" y="126.4487">spacer(length:int, spacer:char): String</text><rect fill="#F24D5C" height="6" style="stroke: #C82930; stroke-width: 1.0;" width="6" x="14" y="133.6956"/><text fill="#000000" font-family="sans-serif" font-size="11" lengthAdjust="spacingAndGlyphs" textLength="228" x="26" y="139.248">requestCashPayment(total:double): double</text><rect fill="#F24D5C" height="6" style="stroke: #C82930; stroke-width: 1.0;" width="6" x="14" y="146.4949"/><text fill="#000000" font-family="sans-serif" font-size="11" lengthAdjust="spacingAndGlyphs" textLength="187" x="26" y="152.0474">printOrderDetails(o:Order): double</text></a><text fill="#888888" font-family="sans-serif" font-size="10" lengthAdjust="spacingAndGlyphs" textLength="182" x="196" y="177.502">UMLDoclet 1.1.3, PlantUML 1.2018.12</text><!--
@startuml

    class CheckoutMenuUI [[../sg/edu/ntu/scse/cz2002/ui/CheckoutMenuUI.html]] {
        #generateMenuScreen(): int
        -checkout(): boolean
        -reprint(): void
        -generateReceipt(o:Order, total:double, paid:double, type:Invoice.PaymentType): ArrayList<String>
        -centerText(toCenter:String, length:int, spacer:char): String
        -spacer(length:int, spacer:char): String
        -requestCashPayment(total:double): double
        -printOrderDetails(o:Order): double
    }


    center footer UMLDoclet 1.1.3, PlantUML 1.2018.12
@enduml

PlantUML version 1.2018.12(Sun Oct 21 10:15:15 GMT 2018)
(APACHE source distribution)
Java Runtime: Java(TM) SE Runtime Environment
JVM: Java HotSpot(TM) 64-Bit Server VM
Java Version: 1.8.0_202-b08
Operating System: Linux
OS Version: 4.19.23-coreos-r1
Default Encoding: UTF-8
Language: en
Country: null
--></g></svg>