<?xml version="1.0" encoding="UTF-8" standalone="no"?><svg xmlns="http://www.w3.org/2000/svg" xmlns:xlink="http://www.w3.org/1999/xlink" contentScriptType="application/ecmascript" contentStyleType="text/css" height="453px" preserveAspectRatio="none" style="width:2273px;height:453px;" version="1.1" viewBox="0 0 2273 453" width="2273px" zoomAndPan="magnify"><defs><filter height="300%" id="f9wvzwgtod6in" width="300%" x="-1" y="-1"><feGaussianBlur result="blurOut" stdDeviation="2.0"/><feColorMatrix in="blurOut" result="blurOut2" type="matrix" values="0 0 0 0 0 0 0 0 0 0 0 0 0 0 0 0 0 0 .4 0"/><feOffset dx="4.0" dy="4.0" in="blurOut2" result="blurOut3"/><feBlend in="SourceGraphic" in2="blurOut3" mode="normal"/></filter></defs><g><!--cluster sg.edu.ntu.scse.cz2002.util--><polygon fill="#FFFFFF" filter="url(#f9wvzwgtod6in)" points="14,16,209,16,216,38.29,2251,38.29,2251,412,14,412,14,16" style="stroke: #000000; stroke-width: 1.5;"/><line style="stroke: #000000; stroke-width: 1.5;" x1="14" x2="216" y1="38.29" y2="38.29"/><text fill="#000000" font-family="sans-serif" font-size="14" font-weight="bold" lengthAdjust="spacingAndGlyphs" textLength="189" x="18" y="31.3369">sg.edu.ntu.scse.cz2002.util</text><!--class sg.edu.ntu.scse.cz2002.util.CSVBaseHelper--><rect fill="#FEFECE" filter="url(#f9wvzwgtod6in)" height="73.5986" id="sg.edu.ntu.scse.cz2002.util.CSVBaseHelper" style="stroke: #A80036; stroke-width: 1.5;" width="301" x="626.5" y="55.5"/><ellipse cx="728.75" cy="71.5" fill="#ADD1B2" rx="11" ry="11" style="stroke: #A80036; stroke-width: 1.0;"/><path d="M732.5781,77.1563 Q730.7031,77.8125 728.8906,77.8125 Q726.2969,77.8125 724.7109,76.0313 Q723.125,74.25 723.125,71.3438 Q723.125,68.6563 724.5313,66.8906 Q725.3906,65.8125 726.5078,65.3594 Q727.625,64.9063 729.4063,64.9063 Q731.125,64.9063 732.5781,65.2656 L732.5781,67.25 Q730.7031,66.5469 729.4531,66.5469 Q727.7656,66.5469 726.7734,67.8672 Q725.7813,69.1875 725.7813,71.4219 Q725.7813,73.4688 726.8203,74.7656 Q727.8594,76.0625 729.5,76.0625 Q730.8906,76.0625 732.5781,75.2813 L732.5781,77.1563 Z "/><text fill="#000000" font-family="sans-serif" font-size="12" lengthAdjust="spacingAndGlyphs" textLength="88" x="749.25" y="75.9209">CSVBaseHelper</text><line style="stroke: #A80036; stroke-width: 1.5;" x1="627.5" x2="926.5" y1="87.5" y2="87.5"/><line style="stroke: #A80036; stroke-width: 1.5;" x1="627.5" x2="926.5" y1="95.5" y2="95.5"/><polygon fill="#FFFF44" points="637.5,102.3997,641.5,106.3997,637.5,110.3997,633.5,106.3997" style="stroke: #B38D22; stroke-width: 1.0;"/><text fill="#000000" font-family="sans-serif" font-size="11" lengthAdjust="spacingAndGlyphs" textLength="231" x="646.5" y="109.9521">readAll(BufferedReader, int): List&lt;String[]&gt;</text><polygon fill="#FFFF44" points="637.5,115.199,641.5,119.199,637.5,123.199,633.5,119.199" style="stroke: #B38D22; stroke-width: 1.0;"/><text fill="#000000" font-family="sans-serif" font-size="11" lengthAdjust="spacingAndGlyphs" textLength="275" x="646.5" y="122.7515">writeToCsvFile(List&lt;String[]&gt;, BufferedWriter): void</text><!--class sg.edu.ntu.scse.cz2002.util.TableCSVHelper--><rect fill="#FEFECE" filter="url(#f9wvzwgtod6in)" height="73.5986" id="sg.edu.ntu.scse.cz2002.util.TableCSVHelper" style="stroke: #A80036; stroke-width: 1.5;" width="208" x="22" y="266"/><ellipse cx="74.75" cy="282" fill="#ADD1B2" rx="11" ry="11" style="stroke: #A80036; stroke-width: 1.0;"/><path d="M78.5781,287.6563 Q76.7031,288.3125 74.8906,288.3125 Q72.2969,288.3125 70.7109,286.5313 Q69.125,284.75 69.125,281.8438 Q69.125,279.1563 70.5313,277.3906 Q71.3906,276.3125 72.5078,275.8594 Q73.625,275.4063 75.4063,275.4063 Q77.125,275.4063 78.5781,275.7656 L78.5781,277.75 Q76.7031,277.0469 75.4531,277.0469 Q73.7656,277.0469 72.7734,278.3672 Q71.7813,279.6875 71.7813,281.9219 Q71.7813,283.9688 72.8203,285.2656 Q73.8594,286.5625 75.5,286.5625 Q76.8906,286.5625 78.5781,285.7813 L78.5781,287.6563 Z "/><text fill="#000000" font-family="sans-serif" font-size="12" lengthAdjust="spacingAndGlyphs" textLength="94" x="95.25" y="286.4209">TableCSVHelper</text><line style="stroke: #A80036; stroke-width: 1.5;" x1="23" x2="229" y1="298" y2="298"/><line style="stroke: #A80036; stroke-width: 1.5;" x1="23" x2="229" y1="306" y2="306"/><ellipse cx="33" cy="317.8997" fill="#84BE84" rx="3" ry="3" style="stroke: #038048; stroke-width: 1.0;"/><text fill="#000000" font-family="sans-serif" font-size="11" lengthAdjust="spacingAndGlyphs" text-decoration="underline" textLength="161" x="42" y="320.4521">getInstance(): TableCSVHelper</text><line style="stroke: #000000; stroke-width: 1.0;" x1="42" x2="203" y1="322.4521" y2="322.4521"/><ellipse cx="33" cy="330.699" fill="#84BE84" rx="3" ry="3" style="stroke: #038048; stroke-width: 1.0;"/><text fill="#000000" font-family="sans-serif" font-size="11" lengthAdjust="spacingAndGlyphs" textLength="182" x="42" y="333.2515">readFromCsv(): ArrayList&lt;Table&gt;</text><!--class sg.edu.ntu.scse.cz2002.util.ICsvSerializable--><rect fill="#FEFECE" filter="url(#f9wvzwgtod6in)" height="60.7993" id="sg.edu.ntu.scse.cz2002.util.ICsvSerializable" style="stroke: #A80036; stroke-width: 1.5;" width="121" x="1662.5" y="62"/><ellipse cx="1677.5" cy="78" fill="#B4A7E5" rx="11" ry="11" style="stroke: #A80036; stroke-width: 1.0;"/><path d="M1673.5156,84 L1673.5156,82.3594 L1676.3906,82.3594 L1676.3906,73.3438 L1673.5156,73.3438 L1673.5156,71.7188 L1681.7188,71.7188 L1681.7188,73.3438 L1678.8438,73.3438 L1678.8438,82.3594 L1681.7188,82.3594 L1681.7188,84 L1673.5156,84 Z "/><text fill="#000000" font-family="sans-serif" font-size="12" font-style="italic" lengthAdjust="spacingAndGlyphs" textLength="89" x="1691.5" y="82.4209">ICsvSerializable</text><line style="stroke: #A80036; stroke-width: 1.5;" x1="1663.5" x2="1782.5" y1="94" y2="94"/><line style="stroke: #A80036; stroke-width: 1.5;" x1="1663.5" x2="1782.5" y1="102" y2="102"/><ellipse cx="1673.5" cy="113.8997" fill="#84BE84" rx="3" ry="3" style="stroke: #038048; stroke-width: 1.0;"/><text fill="#000000" font-family="sans-serif" font-size="11" font-style="italic" lengthAdjust="spacingAndGlyphs" textLength="85" x="1682.5" y="116.4521">toCsv(): String[]</text><!--class sg.edu.ntu.scse.cz2002.util.OrderCSVHelper--><rect fill="#FEFECE" filter="url(#f9wvzwgtod6in)" height="86.3979" id="sg.edu.ntu.scse.cz2002.util.OrderCSVHelper" style="stroke: #A80036; stroke-width: 1.5;" width="222" x="265" y="260"/><ellipse cx="324.25" cy="276" fill="#ADD1B2" rx="11" ry="11" style="stroke: #A80036; stroke-width: 1.0;"/><path d="M328.0781,281.6563 Q326.2031,282.3125 324.3906,282.3125 Q321.7969,282.3125 320.2109,280.5313 Q318.625,278.75 318.625,275.8438 Q318.625,273.1563 320.0313,271.3906 Q320.8906,270.3125 322.0078,269.8594 Q323.125,269.4063 324.9063,269.4063 Q326.625,269.4063 328.0781,269.7656 L328.0781,271.75 Q326.2031,271.0469 324.9531,271.0469 Q323.2656,271.0469 322.2734,272.3672 Q321.2813,273.6875 321.2813,275.9219 Q321.2813,277.9688 322.3203,279.2656 Q323.3594,280.5625 325,280.5625 Q326.3906,280.5625 328.0781,279.7813 L328.0781,281.6563 Z "/><text fill="#000000" font-family="sans-serif" font-size="12" lengthAdjust="spacingAndGlyphs" textLength="95" x="344.75" y="280.4209">OrderCSVHelper</text><line style="stroke: #A80036; stroke-width: 1.5;" x1="266" x2="486" y1="292" y2="292"/><line style="stroke: #A80036; stroke-width: 1.5;" x1="266" x2="486" y1="300" y2="300"/><ellipse cx="276" cy="311.8997" fill="#84BE84" rx="3" ry="3" style="stroke: #038048; stroke-width: 1.0;"/><text fill="#000000" font-family="sans-serif" font-size="11" lengthAdjust="spacingAndGlyphs" text-decoration="underline" textLength="164" x="285" y="314.4521">getInstance(): OrderCSVHelper</text><line style="stroke: #000000; stroke-width: 1.0;" x1="285" x2="449" y1="316.4521" y2="316.4521"/><ellipse cx="276" cy="324.699" fill="#84BE84" rx="3" ry="3" style="stroke: #038048; stroke-width: 1.0;"/><text fill="#000000" font-family="sans-serif" font-size="11" lengthAdjust="spacingAndGlyphs" textLength="185" x="285" y="327.2515">readFromCsv(): ArrayList&lt;Order&gt;</text><ellipse cx="276" cy="337.4983" fill="#84BE84" rx="3" ry="3" style="stroke: #038048; stroke-width: 1.0;"/><text fill="#000000" font-family="sans-serif" font-size="11" lengthAdjust="spacingAndGlyphs" textLength="196" x="285" y="340.0508">writeToCsv(ArrayList&lt;Order&gt;): void</text><!--class sg.edu.ntu.scse.cz2002.util.PromoCSVHelper--><rect fill="#FEFECE" filter="url(#f9wvzwgtod6in)" height="86.3979" id="sg.edu.ntu.scse.cz2002.util.PromoCSVHelper" style="stroke: #A80036; stroke-width: 1.5;" width="246" x="522" y="260"/><ellipse cx="591.75" cy="276" fill="#ADD1B2" rx="11" ry="11" style="stroke: #A80036; stroke-width: 1.0;"/><path d="M595.5781,281.6563 Q593.7031,282.3125 591.8906,282.3125 Q589.2969,282.3125 587.7109,280.5313 Q586.125,278.75 586.125,275.8438 Q586.125,273.1563 587.5313,271.3906 Q588.3906,270.3125 589.5078,269.8594 Q590.625,269.4063 592.4063,269.4063 Q594.125,269.4063 595.5781,269.7656 L595.5781,271.75 Q593.7031,271.0469 592.4531,271.0469 Q590.7656,271.0469 589.7734,272.3672 Q588.7813,273.6875 588.7813,275.9219 Q588.7813,277.9688 589.8203,279.2656 Q590.8594,280.5625 592.5,280.5625 Q593.8906,280.5625 595.5781,279.7813 L595.5781,281.6563 Z "/><text fill="#000000" font-family="sans-serif" font-size="12" lengthAdjust="spacingAndGlyphs" textLength="98" x="612.25" y="280.4209">PromoCSVHelper</text><line style="stroke: #A80036; stroke-width: 1.5;" x1="523" x2="767" y1="292" y2="292"/><line style="stroke: #A80036; stroke-width: 1.5;" x1="523" x2="767" y1="300" y2="300"/><ellipse cx="533" cy="311.8997" fill="#84BE84" rx="3" ry="3" style="stroke: #038048; stroke-width: 1.0;"/><text fill="#000000" font-family="sans-serif" font-size="11" lengthAdjust="spacingAndGlyphs" text-decoration="underline" textLength="167" x="542" y="314.4521">getInstance(): PromoCSVHelper</text><line style="stroke: #000000; stroke-width: 1.0;" x1="542" x2="709" y1="316.4521" y2="316.4521"/><ellipse cx="533" cy="324.699" fill="#84BE84" rx="3" ry="3" style="stroke: #038048; stroke-width: 1.0;"/><text fill="#000000" font-family="sans-serif" font-size="11" lengthAdjust="spacingAndGlyphs" textLength="209" x="542" y="327.2515">readFromCsv(): ArrayList&lt;Promotion&gt;</text><ellipse cx="533" cy="337.4983" fill="#84BE84" rx="3" ry="3" style="stroke: #038048; stroke-width: 1.0;"/><text fill="#000000" font-family="sans-serif" font-size="11" lengthAdjust="spacingAndGlyphs" textLength="220" x="542" y="340.0508">writeToCsv(ArrayList&lt;Promotion&gt;): void</text><!--class sg.edu.ntu.scse.cz2002.util.StaffCSVHelper--><rect fill="#FEFECE" filter="url(#f9wvzwgtod6in)" height="86.3979" id="sg.edu.ntu.scse.cz2002.util.StaffCSVHelper" style="stroke: #A80036; stroke-width: 1.5;" width="214" x="803" y="260"/><ellipse cx="862.75" cy="276" fill="#ADD1B2" rx="11" ry="11" style="stroke: #A80036; stroke-width: 1.0;"/><path d="M866.5781,281.6563 Q864.7031,282.3125 862.8906,282.3125 Q860.2969,282.3125 858.7109,280.5313 Q857.125,278.75 857.125,275.8438 Q857.125,273.1563 858.5313,271.3906 Q859.3906,270.3125 860.5078,269.8594 Q861.625,269.4063 863.4063,269.4063 Q865.125,269.4063 866.5781,269.7656 L866.5781,271.75 Q864.7031,271.0469 863.4531,271.0469 Q861.7656,271.0469 860.7734,272.3672 Q859.7813,273.6875 859.7813,275.9219 Q859.7813,277.9688 860.8203,279.2656 Q861.8594,280.5625 863.5,280.5625 Q864.8906,280.5625 866.5781,279.7813 L866.5781,281.6563 Z "/><text fill="#000000" font-family="sans-serif" font-size="12" lengthAdjust="spacingAndGlyphs" textLength="86" x="883.25" y="280.4209">StaffCSVHelper</text><line style="stroke: #A80036; stroke-width: 1.5;" x1="804" x2="1016" y1="292" y2="292"/><line style="stroke: #A80036; stroke-width: 1.5;" x1="804" x2="1016" y1="300" y2="300"/><ellipse cx="814" cy="311.8997" fill="#84BE84" rx="3" ry="3" style="stroke: #038048; stroke-width: 1.0;"/><text fill="#000000" font-family="sans-serif" font-size="11" lengthAdjust="spacingAndGlyphs" text-decoration="underline" textLength="156" x="823" y="314.4521">getInstance(): StaffCSVHelper</text><line style="stroke: #000000; stroke-width: 1.0;" x1="823" x2="979" y1="316.4521" y2="316.4521"/><ellipse cx="814" cy="324.699" fill="#84BE84" rx="3" ry="3" style="stroke: #038048; stroke-width: 1.0;"/><text fill="#000000" font-family="sans-serif" font-size="11" lengthAdjust="spacingAndGlyphs" textLength="177" x="823" y="327.2515">readFromCsv(): ArrayList&lt;Staff&gt;</text><ellipse cx="814" cy="337.4983" fill="#84BE84" rx="3" ry="3" style="stroke: #038048; stroke-width: 1.0;"/><text fill="#000000" font-family="sans-serif" font-size="11" lengthAdjust="spacingAndGlyphs" textLength="188" x="823" y="340.0508">writeToCsv(ArrayList&lt;Staff&gt;): void</text><!--class sg.edu.ntu.scse.cz2002.util.FileIOHelper--><rect fill="#FEFECE" filter="url(#f9wvzwgtod6in)" height="99.1973" id="sg.edu.ntu.scse.cz2002.util.FileIOHelper" style="stroke: #A80036; stroke-width: 1.5;" width="271" x="1818.5" y="43"/><ellipse cx="1914.75" cy="59" fill="#ADD1B2" rx="11" ry="11" style="stroke: #A80036; stroke-width: 1.0;"/><path d="M1918.5781,64.6563 Q1916.7031,65.3125 1914.8906,65.3125 Q1912.2969,65.3125 1910.7109,63.5313 Q1909.125,61.75 1909.125,58.8438 Q1909.125,56.1563 1910.5313,54.3906 Q1911.3906,53.3125 1912.5078,52.8594 Q1913.625,52.4063 1915.4063,52.4063 Q1917.125,52.4063 1918.5781,52.7656 L1918.5781,54.75 Q1916.7031,54.0469 1915.4531,54.0469 Q1913.7656,54.0469 1912.7734,55.3672 Q1911.7813,56.6875 1911.7813,58.9219 Q1911.7813,60.9688 1912.8203,62.2656 Q1913.8594,63.5625 1915.5,63.5625 Q1916.8906,63.5625 1918.5781,62.7813 L1918.5781,64.6563 Z "/><text fill="#000000" font-family="sans-serif" font-size="12" lengthAdjust="spacingAndGlyphs" textLength="70" x="1935.25" y="63.4209">FileIOHelper</text><line style="stroke: #A80036; stroke-width: 1.5;" x1="1819.5" x2="2088.5" y1="75" y2="75"/><line style="stroke: #A80036; stroke-width: 1.5;" x1="1819.5" x2="2088.5" y1="83" y2="83"/><ellipse cx="1829.5" cy="94.8997" fill="#84BE84" rx="3" ry="3" style="stroke: #038048; stroke-width: 1.0;"/><text fill="#000000" font-family="sans-serif" font-size="11" lengthAdjust="spacingAndGlyphs" text-decoration="underline" textLength="121" x="1838.5" y="97.4521">exists(String): boolean</text><line style="stroke: #000000; stroke-width: 1.0;" x1="1838.5" x2="1959.5" y1="99.4521" y2="99.4521"/><ellipse cx="1829.5" cy="107.699" fill="#84BE84" rx="3" ry="3" style="stroke: #038048; stroke-width: 1.0;"/><text fill="#000000" font-family="sans-serif" font-size="11" lengthAdjust="spacingAndGlyphs" text-decoration="underline" textLength="99" x="1838.5" y="110.2515">getFile(String): File</text><line style="stroke: #000000; stroke-width: 1.0;" x1="1838.5" x2="1937.5" y1="112.2515" y2="112.2515"/><ellipse cx="1829.5" cy="120.4983" fill="#84BE84" rx="3" ry="3" style="stroke: #038048; stroke-width: 1.0;"/><text fill="#000000" font-family="sans-serif" font-size="11" lengthAdjust="spacingAndGlyphs" text-decoration="underline" textLength="245" x="1838.5" y="123.0508">getFileBufferedReader(String): BufferedReader</text><line style="stroke: #000000; stroke-width: 1.0;" x1="1838.5" x2="2083.5" y1="125.0508" y2="125.0508"/><ellipse cx="1829.5" cy="133.2976" fill="#84BE84" rx="3" ry="3" style="stroke: #038048; stroke-width: 1.0;"/><text fill="#000000" font-family="sans-serif" font-size="11" lengthAdjust="spacingAndGlyphs" text-decoration="underline" textLength="235" x="1838.5" y="135.8501">getFileBufferedWriter(String): BufferedWriter</text><line style="stroke: #000000; stroke-width: 1.0;" x1="1838.5" x2="2073.5" y1="137.8501" y2="137.8501"/><!--class sg.edu.ntu.scse.cz2002.util.ReservationCSVHelper--><rect fill="#FEFECE" filter="url(#f9wvzwgtod6in)" height="86.3979" id="sg.edu.ntu.scse.cz2002.util.ReservationCSVHelper" style="stroke: #A80036; stroke-width: 1.5;" width="253" x="1052.5" y="260"/><ellipse cx="1110.75" cy="276" fill="#ADD1B2" rx="11" ry="11" style="stroke: #A80036; stroke-width: 1.0;"/><path d="M1114.5781,281.6563 Q1112.7031,282.3125 1110.8906,282.3125 Q1108.2969,282.3125 1106.7109,280.5313 Q1105.125,278.75 1105.125,275.8438 Q1105.125,273.1563 1106.5313,271.3906 Q1107.3906,270.3125 1108.5078,269.8594 Q1109.625,269.4063 1111.4063,269.4063 Q1113.125,269.4063 1114.5781,269.7656 L1114.5781,271.75 Q1112.7031,271.0469 1111.4531,271.0469 Q1109.7656,271.0469 1108.7734,272.3672 Q1107.7813,273.6875 1107.7813,275.9219 Q1107.7813,277.9688 1108.8203,279.2656 Q1109.8594,280.5625 1111.5,280.5625 Q1112.8906,280.5625 1114.5781,279.7813 L1114.5781,281.6563 Z "/><text fill="#000000" font-family="sans-serif" font-size="12" lengthAdjust="spacingAndGlyphs" textLength="128" x="1131.25" y="280.4209">ReservationCSVHelper</text><line style="stroke: #A80036; stroke-width: 1.5;" x1="1053.5" x2="1304.5" y1="292" y2="292"/><line style="stroke: #A80036; stroke-width: 1.5;" x1="1053.5" x2="1304.5" y1="300" y2="300"/><ellipse cx="1063.5" cy="311.8997" fill="#84BE84" rx="3" ry="3" style="stroke: #038048; stroke-width: 1.0;"/><text fill="#000000" font-family="sans-serif" font-size="11" lengthAdjust="spacingAndGlyphs" text-decoration="underline" textLength="195" x="1072.5" y="314.4521">getInstance(): ReservationCSVHelper</text><line style="stroke: #000000; stroke-width: 1.0;" x1="1072.5" x2="1267.5" y1="316.4521" y2="316.4521"/><ellipse cx="1063.5" cy="324.699" fill="#84BE84" rx="3" ry="3" style="stroke: #038048; stroke-width: 1.0;"/><text fill="#000000" font-family="sans-serif" font-size="11" lengthAdjust="spacingAndGlyphs" textLength="216" x="1072.5" y="327.2515">readFromCsv(): ArrayList&lt;Reservation&gt;</text><ellipse cx="1063.5" cy="337.4983" fill="#84BE84" rx="3" ry="3" style="stroke: #038048; stroke-width: 1.0;"/><text fill="#000000" font-family="sans-serif" font-size="11" lengthAdjust="spacingAndGlyphs" textLength="227" x="1072.5" y="340.0508">writeToCsv(ArrayList&lt;Reservation&gt;): void</text><!--class sg.edu.ntu.scse.cz2002.util.ScannerHelper--><rect fill="#FEFECE" filter="url(#f9wvzwgtod6in)" height="124.7959" id="sg.edu.ntu.scse.cz2002.util.ScannerHelper" style="stroke: #A80036; stroke-width: 1.5;" width="209" x="1618.5" y="240.5"/><ellipse cx="1676.75" cy="256.5" fill="#ADD1B2" rx="11" ry="11" style="stroke: #A80036; stroke-width: 1.0;"/><path d="M1680.5781,262.1563 Q1678.7031,262.8125 1676.8906,262.8125 Q1674.2969,262.8125 1672.7109,261.0313 Q1671.125,259.25 1671.125,256.3438 Q1671.125,253.6563 1672.5313,251.8906 Q1673.3906,250.8125 1674.5078,250.3594 Q1675.625,249.9063 1677.4063,249.9063 Q1679.125,249.9063 1680.5781,250.2656 L1680.5781,252.25 Q1678.7031,251.5469 1677.4531,251.5469 Q1675.7656,251.5469 1674.7734,252.8672 Q1673.7813,254.1875 1673.7813,256.4219 Q1673.7813,258.4688 1674.8203,259.7656 Q1675.8594,261.0625 1677.5,261.0625 Q1678.8906,261.0625 1680.5781,260.2813 L1680.5781,262.1563 Z "/><text fill="#000000" font-family="sans-serif" font-size="12" lengthAdjust="spacingAndGlyphs" textLength="84" x="1697.25" y="260.9209">ScannerHelper</text><line style="stroke: #A80036; stroke-width: 1.5;" x1="1619.5" x2="1826.5" y1="272.5" y2="272.5"/><ellipse cx="1629.5" cy="284.3997" fill="none" rx="3" ry="3" style="stroke: #038048; stroke-width: 1.0;"/><text fill="#000000" font-family="sans-serif" font-size="11" lengthAdjust="spacingAndGlyphs" text-decoration="underline" textLength="94" x="1638.5" y="286.9521">instance: Scanner</text><line style="stroke: #000000; stroke-width: 1.0;" x1="1638.5" x2="1732.5" y1="288.9521" y2="288.9521"/><line style="stroke: #A80036; stroke-width: 1.5;" x1="1619.5" x2="1826.5" y1="293.2993" y2="293.2993"/><ellipse cx="1629.5" cy="305.199" fill="#84BE84" rx="3" ry="3" style="stroke: #038048; stroke-width: 1.0;"/><text fill="#000000" font-family="sans-serif" font-size="11" lengthAdjust="spacingAndGlyphs" text-decoration="underline" textLength="143" x="1638.5" y="307.7515">getIntegerInput(String): int</text><line style="stroke: #000000; stroke-width: 1.0;" x1="1638.5" x2="1781.5" y1="309.7515" y2="309.7515"/><ellipse cx="1629.5" cy="317.9983" fill="#84BE84" rx="3" ry="3" style="stroke: #038048; stroke-width: 1.0;"/><text fill="#000000" font-family="sans-serif" font-size="11" lengthAdjust="spacingAndGlyphs" text-decoration="underline" textLength="163" x="1638.5" y="320.5508">getIntegerInput(String, int): int</text><line style="stroke: #000000; stroke-width: 1.0;" x1="1638.5" x2="1801.5" y1="322.5508" y2="322.5508"/><ellipse cx="1629.5" cy="330.7976" fill="#84BE84" rx="3" ry="3" style="stroke: #038048; stroke-width: 1.0;"/><text fill="#000000" font-family="sans-serif" font-size="11" lengthAdjust="spacingAndGlyphs" text-decoration="underline" textLength="183" x="1638.5" y="333.3501">getIntegerInput(String, int, int): int</text><line style="stroke: #000000; stroke-width: 1.0;" x1="1638.5" x2="1821.5" y1="335.3501" y2="335.3501"/><ellipse cx="1629.5" cy="343.5969" fill="#84BE84" rx="3" ry="3" style="stroke: #038048; stroke-width: 1.0;"/><text fill="#000000" font-family="sans-serif" font-size="11" lengthAdjust="spacingAndGlyphs" text-decoration="underline" textLength="168" x="1638.5" y="346.1494">getYesNoInput(String): boolean</text><line style="stroke: #000000; stroke-width: 1.0;" x1="1638.5" x2="1806.5" y1="348.1494" y2="348.1494"/><ellipse cx="1629.5" cy="356.3962" fill="#84BE84" rx="3" ry="3" style="stroke: #038048; stroke-width: 1.0;"/><text fill="#000000" font-family="sans-serif" font-size="11" lengthAdjust="spacingAndGlyphs" text-decoration="underline" textLength="145" x="1638.5" y="358.9487">getScannerInput(): Scanner</text><line style="stroke: #000000; stroke-width: 1.0;" x1="1638.5" x2="1783.5" y1="360.9487" y2="360.9487"/><!--class sg.edu.ntu.scse.cz2002.util.MenuItemCSVHelper--><rect fill="#FEFECE" filter="url(#f9wvzwgtod6in)" height="86.3979" id="sg.edu.ntu.scse.cz2002.util.MenuItemCSVHelper" style="stroke: #A80036; stroke-width: 1.5;" width="242" x="1341" y="260"/><ellipse cx="1399.25" cy="276" fill="#ADD1B2" rx="11" ry="11" style="stroke: #A80036; stroke-width: 1.0;"/><path d="M1403.0781,281.6563 Q1401.2031,282.3125 1399.3906,282.3125 Q1396.7969,282.3125 1395.2109,280.5313 Q1393.625,278.75 1393.625,275.8438 Q1393.625,273.1563 1395.0313,271.3906 Q1395.8906,270.3125 1397.0078,269.8594 Q1398.125,269.4063 1399.9063,269.4063 Q1401.625,269.4063 1403.0781,269.7656 L1403.0781,271.75 Q1401.2031,271.0469 1399.9531,271.0469 Q1398.2656,271.0469 1397.2734,272.3672 Q1396.2813,273.6875 1396.2813,275.9219 Q1396.2813,277.9688 1397.3203,279.2656 Q1398.3594,280.5625 1400,280.5625 Q1401.3906,280.5625 1403.0781,279.7813 L1403.0781,281.6563 Z "/><text fill="#000000" font-family="sans-serif" font-size="12" lengthAdjust="spacingAndGlyphs" textLength="117" x="1419.75" y="280.4209">MenuItemCSVHelper</text><line style="stroke: #A80036; stroke-width: 1.5;" x1="1342" x2="1582" y1="292" y2="292"/><line style="stroke: #A80036; stroke-width: 1.5;" x1="1342" x2="1582" y1="300" y2="300"/><ellipse cx="1352" cy="311.8997" fill="#84BE84" rx="3" ry="3" style="stroke: #038048; stroke-width: 1.0;"/><text fill="#000000" font-family="sans-serif" font-size="11" lengthAdjust="spacingAndGlyphs" text-decoration="underline" textLength="184" x="1361" y="314.4521">getInstance(): MenuItemCSVHelper</text><line style="stroke: #000000; stroke-width: 1.0;" x1="1361" x2="1545" y1="316.4521" y2="316.4521"/><ellipse cx="1352" cy="324.699" fill="#84BE84" rx="3" ry="3" style="stroke: #038048; stroke-width: 1.0;"/><text fill="#000000" font-family="sans-serif" font-size="11" lengthAdjust="spacingAndGlyphs" textLength="205" x="1361" y="327.2515">readFromCsv(): ArrayList&lt;MenuItem&gt;</text><ellipse cx="1352" cy="337.4983" fill="#84BE84" rx="3" ry="3" style="stroke: #038048; stroke-width: 1.0;"/><text fill="#000000" font-family="sans-serif" font-size="11" lengthAdjust="spacingAndGlyphs" textLength="216" x="1361" y="340.0508">writeToCsv(ArrayList&lt;MenuItem&gt;): void</text><!--class sg.edu.ntu.scse.cz2002.util.DateTimeFormatHelper--><rect fill="#FEFECE" filter="url(#f9wvzwgtod6in)" height="201.5918" id="sg.edu.ntu.scse.cz2002.util.DateTimeFormatHelper" style="stroke: #A80036; stroke-width: 1.5;" width="380" x="1863" y="202"/><ellipse cx="1981.25" cy="218" fill="#ADD1B2" rx="11" ry="11" style="stroke: #A80036; stroke-width: 1.0;"/><path d="M1985.0781,223.6563 Q1983.2031,224.3125 1981.3906,224.3125 Q1978.7969,224.3125 1977.2109,222.5313 Q1975.625,220.75 1975.625,217.8438 Q1975.625,215.1563 1977.0313,213.3906 Q1977.8906,212.3125 1979.0078,211.8594 Q1980.125,211.4063 1981.9063,211.4063 Q1983.625,211.4063 1985.0781,211.7656 L1985.0781,213.75 Q1983.2031,213.0469 1981.9531,213.0469 Q1980.2656,213.0469 1979.2734,214.3672 Q1978.2813,215.6875 1978.2813,217.9219 Q1978.2813,219.9688 1979.3203,221.2656 Q1980.3594,222.5625 1982,222.5625 Q1983.3906,222.5625 1985.0781,221.7813 L1985.0781,223.6563 Z "/><text fill="#000000" font-family="sans-serif" font-size="12" lengthAdjust="spacingAndGlyphs" textLength="135" x="2001.75" y="222.4209">DateTimeFormatHelper</text><line style="stroke: #A80036; stroke-width: 1.5;" x1="1864" x2="2242" y1="234" y2="234"/><line style="stroke: #A80036; stroke-width: 1.5;" x1="1864" x2="2242" y1="242" y2="242"/><ellipse cx="1874" cy="253.8997" fill="#84BE84" rx="3" ry="3" style="stroke: #038048; stroke-width: 1.0;"/><text fill="#000000" font-family="sans-serif" font-size="11" lengthAdjust="spacingAndGlyphs" text-decoration="underline" textLength="204" x="1883" y="256.4521">formatToStringDate(LocalDate): String</text><line style="stroke: #000000; stroke-width: 1.0;" x1="1883" x2="2087" y1="258.4521" y2="258.4521"/><ellipse cx="1874" cy="266.699" fill="#84BE84" rx="3" ry="3" style="stroke: #038048; stroke-width: 1.0;"/><text fill="#000000" font-family="sans-serif" font-size="11" lengthAdjust="spacingAndGlyphs" text-decoration="underline" textLength="208" x="1883" y="269.2515">formatToStringTime(LocalTime): String</text><line style="stroke: #000000; stroke-width: 1.0;" x1="1883" x2="2091" y1="271.2515" y2="271.2515"/><ellipse cx="1874" cy="279.4983" fill="#84BE84" rx="3" ry="3" style="stroke: #038048; stroke-width: 1.0;"/><text fill="#000000" font-family="sans-serif" font-size="11" lengthAdjust="spacingAndGlyphs" text-decoration="underline" textLength="200" x="1883" y="282.0508">formatToLocalDate(String): LocalDate</text><line style="stroke: #000000; stroke-width: 1.0;" x1="1883" x2="2083" y1="284.0508" y2="284.0508"/><ellipse cx="1874" cy="292.2976" fill="#84BE84" rx="3" ry="3" style="stroke: #038048; stroke-width: 1.0;"/><text fill="#000000" font-family="sans-serif" font-size="11" lengthAdjust="spacingAndGlyphs" text-decoration="underline" textLength="204" x="1883" y="294.8501">formatToLocalTime(String): LocalTime</text><line style="stroke: #000000; stroke-width: 1.0;" x1="1883" x2="2087" y1="296.8501" y2="296.8501"/><ellipse cx="1874" cy="305.0969" fill="#84BE84" rx="3" ry="3" style="stroke: #038048; stroke-width: 1.0;"/><text fill="#000000" font-family="sans-serif" font-size="11" lengthAdjust="spacingAndGlyphs" text-decoration="underline" textLength="183" x="1883" y="307.6494">getTodayDate(boolean): LocalDate</text><line style="stroke: #000000; stroke-width: 1.0;" x1="1883" x2="2066" y1="309.6494" y2="309.6494"/><ellipse cx="1874" cy="317.8962" fill="#84BE84" rx="3" ry="3" style="stroke: #038048; stroke-width: 1.0;"/><text fill="#000000" font-family="sans-serif" font-size="11" lengthAdjust="spacingAndGlyphs" text-decoration="underline" textLength="134" x="1883" y="320.4487">getTimeNow(): LocalTime</text><line style="stroke: #000000; stroke-width: 1.0;" x1="1883" x2="2017" y1="322.4487" y2="322.4487"/><ellipse cx="1874" cy="330.6956" fill="#84BE84" rx="3" ry="3" style="stroke: #038048; stroke-width: 1.0;"/><text fill="#000000" font-family="sans-serif" font-size="11" lengthAdjust="spacingAndGlyphs" text-decoration="underline" textLength="292" x="1883" y="333.248">getTimeDifferenceMinutes(LocalTime, LocalTime): long</text><line style="stroke: #000000; stroke-width: 1.0;" x1="1883" x2="2175" y1="335.248" y2="335.248"/><ellipse cx="1874" cy="343.4949" fill="#84BE84" rx="3" ry="3" style="stroke: #038048; stroke-width: 1.0;"/><text fill="#000000" font-family="sans-serif" font-size="11" lengthAdjust="spacingAndGlyphs" text-decoration="underline" textLength="230" x="1883" y="346.0474">compareIfBeforeToday(LocalDate): boolean</text><line style="stroke: #000000; stroke-width: 1.0;" x1="1883" x2="2113" y1="348.0474" y2="348.0474"/><ellipse cx="1874" cy="356.2942" fill="#84BE84" rx="3" ry="3" style="stroke: #038048; stroke-width: 1.0;"/><text fill="#000000" font-family="sans-serif" font-size="11" lengthAdjust="spacingAndGlyphs" text-decoration="underline" textLength="197" x="1883" y="358.8467">formatMillisToDateTime(long): String</text><line style="stroke: #000000; stroke-width: 1.0;" x1="1883" x2="2080" y1="360.8467" y2="360.8467"/><ellipse cx="1874" cy="369.0935" fill="#84BE84" rx="3" ry="3" style="stroke: #038048; stroke-width: 1.0;"/><text fill="#000000" font-family="sans-serif" font-size="11" lengthAdjust="spacingAndGlyphs" text-decoration="underline" textLength="354" x="1883" y="371.646">checkResvTimeSession(LocalTime, LocalTime, LocalTime): boolean</text><line style="stroke: #000000; stroke-width: 1.0;" x1="1883" x2="2237" y1="373.646" y2="373.646"/><ellipse cx="1874" cy="381.8928" fill="#84BE84" rx="3" ry="3" style="stroke: #038048; stroke-width: 1.0;"/><text fill="#000000" font-family="sans-serif" font-size="11" lengthAdjust="spacingAndGlyphs" text-decoration="underline" textLength="154" x="1883" y="384.4453">validateDate(String): boolean</text><line style="stroke: #000000; stroke-width: 1.0;" x1="1883" x2="2037" y1="386.4453" y2="386.4453"/><ellipse cx="1874" cy="394.6921" fill="#84BE84" rx="3" ry="3" style="stroke: #038048; stroke-width: 1.0;"/><text fill="#000000" font-family="sans-serif" font-size="11" lengthAdjust="spacingAndGlyphs" text-decoration="underline" textLength="216" x="1883" y="397.2446">getSysTimeMillisWithSGTimeZone(): long</text><line style="stroke: #000000; stroke-width: 1.0;" x1="1883" x2="2099" y1="399.2446" y2="399.2446"/><!--link sg.edu.ntu.scse.cz2002.util.CSVBaseHelper to sg.edu.ntu.scse.cz2002.util.TableCSVHelper--><path d="M606.3135,106.58 C499.2214,120.4667 360.5969,147.9136 248,202 C215.2829,217.7158 183.8692,244.0775 161.1134,265.9281 " fill="none" id="sg.edu.ntu.scse.cz2002.util.CSVBaseHelper-sg.edu.ntu.scse.cz2002.util.TableCSVHelper" style="stroke: #A80036; stroke-width: 1.0;"/><polygon fill="none" points="605.5597,99.6199,626.2701,104.101,607.2856,113.5131,605.5597,99.6199" style="stroke: #A80036; stroke-width: 1.0;"/><!--link sg.edu.ntu.scse.cz2002.util.CSVBaseHelper to sg.edu.ntu.scse.cz2002.util.OrderCSVHelper--><path d="M645.8612,136.7102 C599.9839,154.3871 548.9792,176.615 505,202 C476.5472,218.4231 447.5099,240.586 424.2072,259.9665 " fill="none" id="sg.edu.ntu.scse.cz2002.util.CSVBaseHelper-sg.edu.ntu.scse.cz2002.util.OrderCSVHelper" style="stroke: #A80036; stroke-width: 1.0;"/><polygon fill="none" points="643.653,130.0616,664.8362,129.542,648.6005,143.1583,643.653,130.0616" style="stroke: #A80036; stroke-width: 1.0;"/><!--link sg.edu.ntu.scse.cz2002.util.CSVBaseHelper to sg.edu.ntu.scse.cz2002.util.PromoCSVHelper--><path d="M742.8401,146.9747 C720.8402,182.0578 692.6333,227.0393 672.163,259.6833 " fill="none" id="sg.edu.ntu.scse.cz2002.util.CSVBaseHelper-sg.edu.ntu.scse.cz2002.util.PromoCSVHelper" style="stroke: #A80036; stroke-width: 1.0;"/><polygon fill="none" points="737.1491,142.8739,753.7049,129.6486,749.01,150.3116,737.1491,142.8739" style="stroke: #A80036; stroke-width: 1.0;"/><!--link sg.edu.ntu.scse.cz2002.util.CSVBaseHelper to sg.edu.ntu.scse.cz2002.util.StaffCSVHelper--><path d="M811.4187,146.9747 C833.5852,182.0578 862.0058,227.0393 882.6313,259.6833 " fill="none" id="sg.edu.ntu.scse.cz2002.util.CSVBaseHelper-sg.edu.ntu.scse.cz2002.util.StaffCSVHelper" style="stroke: #A80036; stroke-width: 1.0;"/><polygon fill="none" points="805.2367,150.2955,800.4716,129.6486,817.0723,142.8175,805.2367,150.2955" style="stroke: #A80036; stroke-width: 1.0;"/><!--link sg.edu.ntu.scse.cz2002.util.CSVBaseHelper to sg.edu.ntu.scse.cz2002.util.ReservationCSVHelper--><path d="M896.5928,137.1307 C941.0326,155.2927 991.254,177.7299 1035,202 C1065.4404,218.8882 1097.3255,240.764 1123.3322,259.8363 " fill="none" id="sg.edu.ntu.scse.cz2002.util.CSVBaseHelper-sg.edu.ntu.scse.cz2002.util.ReservationCSVHelper" style="stroke: #A80036; stroke-width: 1.0;"/><polygon fill="none" points="893.8728,143.5817,877.9368,129.6158,899.1038,130.5956,893.8728,143.5817" style="stroke: #A80036; stroke-width: 1.0;"/><!--link sg.edu.ntu.scse.cz2002.util.CSVBaseHelper to sg.edu.ntu.scse.cz2002.util.MenuItemCSVHelper--><path d="M947.5227,107.6443 C1058.1716,122.0146 1203.4678,149.5999 1323,202 C1355.784,216.3717 1388.375,239.4624 1413.7504,259.94 " fill="none" id="sg.edu.ntu.scse.cz2002.util.CSVBaseHelper-sg.edu.ntu.scse.cz2002.util.MenuItemCSVHelper" style="stroke: #A80036; stroke-width: 1.0;"/><polygon fill="none" points="946.6055,114.5842,927.6299,105.154,948.3445,100.6926,946.6055,114.5842" style="stroke: #A80036; stroke-width: 1.0;"/><!--link sg.edu.ntu.scse.cz2002.util.ICsvSerializable to sg.edu.ntu.scse.cz2002.util.FileIOHelper--><!--link sg.edu.ntu.scse.cz2002.util.ICsvSerializable to sg.edu.ntu.scse.cz2002.util.ScannerHelper--><!--link sg.edu.ntu.scse.cz2002.util.ScannerHelper to sg.edu.ntu.scse.cz2002.util.DateTimeFormatHelper--><text fill="#888888" font-family="sans-serif" font-size="10" lengthAdjust="spacingAndGlyphs" textLength="182" x="1047.5" y="439.502">UMLDoclet 1.1.3, PlantUML 1.2018.12</text><!--
@startuml

    namespace sg.edu.ntu.scse.cz2002.util {

        class CSVBaseHelper {
            #readAll(BufferedReader, int): List<String[]>
            #writeToCsvFile(List<String[]>, BufferedWriter): void
        }

        class TableCSVHelper {
            {static} +getInstance(): TableCSVHelper
            +readFromCsv(): ArrayList<Table>
        }

        interface ICsvSerializable {
            {abstract} +toCsv(): String[]
        }

        class OrderCSVHelper {
            {static} +getInstance(): OrderCSVHelper
            +readFromCsv(): ArrayList<Order>
            +writeToCsv(ArrayList<Order>): void
        }

        class PromoCSVHelper {
            {static} +getInstance(): PromoCSVHelper
            +readFromCsv(): ArrayList<Promotion>
            +writeToCsv(ArrayList<Promotion>): void
        }

        class StaffCSVHelper {
            {static} +getInstance(): StaffCSVHelper
            +readFromCsv(): ArrayList<Staff>
            +writeToCsv(ArrayList<Staff>): void
        }

        class FileIOHelper {
            {static} +exists(String): boolean
            {static} +getFile(String): File
            {static} +getFileBufferedReader(String): BufferedReader
            {static} +getFileBufferedWriter(String): BufferedWriter
        }

        class ReservationCSVHelper {
            {static} +getInstance(): ReservationCSVHelper
            +readFromCsv(): ArrayList<Reservation>
            +writeToCsv(ArrayList<Reservation>): void
        }

        class ScannerHelper {
            {static} +instance: Scanner
            {static} +getIntegerInput(String): int
            {static} +getIntegerInput(String, int): int
            {static} +getIntegerInput(String, int, int): int
            {static} +getYesNoInput(String): boolean
            {static} +getScannerInput(): Scanner
        }

        class MenuItemCSVHelper {
            {static} +getInstance(): MenuItemCSVHelper
            +readFromCsv(): ArrayList<MenuItem>
            +writeToCsv(ArrayList<MenuItem>): void
        }

        class DateTimeFormatHelper {
            {static} +formatToStringDate(LocalDate): String
            {static} +formatToStringTime(LocalTime): String
            {static} +formatToLocalDate(String): LocalDate
            {static} +formatToLocalTime(String): LocalTime
            {static} +getTodayDate(boolean): LocalDate
            {static} +getTimeNow(): LocalTime
            {static} +getTimeDifferenceMinutes(LocalTime, LocalTime): long
            {static} +compareIfBeforeToday(LocalDate): boolean
            {static} +formatMillisToDateTime(long): String
            {static} +checkResvTimeSession(LocalTime, LocalTime, LocalTime): boolean
            {static} +validateDate(String): boolean
            {static} +getSysTimeMillisWithSGTimeZone(): long
        }

        CSVBaseHelper <|- - TableCSVHelper

        CSVBaseHelper <|- - OrderCSVHelper

        CSVBaseHelper <|- - PromoCSVHelper

        CSVBaseHelper <|- - StaffCSVHelper

        CSVBaseHelper <|- - ReservationCSVHelper

        CSVBaseHelper <|- - MenuItemCSVHelper

    }


    center footer UMLDoclet 1.1.3, PlantUML 1.2018.12
@enduml

PlantUML version 1.2018.12(Sun Oct 21 10:15:15 GMT 2018)
(APACHE source distribution)
Java Runtime: Java(TM) SE Runtime Environment
JVM: Java HotSpot(TM) 64-Bit Server VM
Java Version: 1.8.0_202-b08
Operating System: Linux
OS Version: 4.19.23-coreos-r1
Default Encoding: UTF-8
Language: en
Country: null
--></g></svg>