<?xml version="1.0" encoding="UTF-8" standalone="no"?><svg xmlns="http://www.w3.org/2000/svg" xmlns:xlink="http://www.w3.org/1999/xlink" contentScriptType="application/ecmascript" contentStyleType="text/css" height="166px" preserveAspectRatio="none" style="width:226px;height:166px;" version="1.1" viewBox="0 0 226 166" width="226px" zoomAndPan="magnify"><defs><filter height="300%" id="f1jsm1h9wfaoog" width="300%" x="-1" y="-1"><feGaussianBlur result="blurOut" stdDeviation="2.0"/><feColorMatrix in="blurOut" result="blurOut2" type="matrix" values="0 0 0 0 0 0 0 0 0 0 0 0 0 0 0 0 0 0 .4 0"/><feOffset dx="4.0" dy="4.0" in="blurOut2" result="blurOut3"/><feBlend in="SourceGraphic" in2="blurOut3" mode="normal"/></filter></defs><g><!--class ScannerHelper--><rect fill="#FEFECE" filter="url(#f1jsm1h9wfaoog)" height="124.7959" id="ScannerHelper" style="stroke: #A80036; stroke-width: 1.5;" width="209" x="6" y="8"/><ellipse cx="64.25" cy="24" fill="#ADD1B2" rx="11" ry="11" style="stroke: #A80036; stroke-width: 1.0;"/><path d="M68.0781,29.6563 Q66.2031,30.3125 64.3906,30.3125 Q61.7969,30.3125 60.2109,28.5313 Q58.625,26.75 58.625,23.8438 Q58.625,21.1563 60.0313,19.3906 Q60.8906,18.3125 62.0078,17.8594 Q63.125,17.4063 64.9063,17.4063 Q66.625,17.4063 68.0781,17.7656 L68.0781,19.75 Q66.2031,19.0469 64.9531,19.0469 Q63.2656,19.0469 62.2734,20.3672 Q61.2813,21.6875 61.2813,23.9219 Q61.2813,25.9688 62.3203,27.2656 Q63.3594,28.5625 65,28.5625 Q66.3906,28.5625 68.0781,27.7813 L68.0781,29.6563 Z "/><text fill="#000000" font-family="sans-serif" font-size="12" lengthAdjust="spacingAndGlyphs" textLength="84" x="84.75" y="28.4209">ScannerHelper</text><line style="stroke: #A80036; stroke-width: 1.5;" x1="7" x2="214" y1="40" y2="40"/><ellipse cx="17" cy="51.8997" fill="none" rx="3" ry="3" style="stroke: #038048; stroke-width: 1.0;"/><text fill="#000000" font-family="sans-serif" font-size="11" lengthAdjust="spacingAndGlyphs" text-decoration="underline" textLength="94" x="26" y="54.4521">instance: Scanner</text><line style="stroke: #000000; stroke-width: 1.0;" x1="26" x2="120" y1="56.4521" y2="56.4521"/><line style="stroke: #A80036; stroke-width: 1.5;" x1="7" x2="214" y1="60.7993" y2="60.7993"/><ellipse cx="17" cy="72.699" fill="#84BE84" rx="3" ry="3" style="stroke: #038048; stroke-width: 1.0;"/><text fill="#000000" font-family="sans-serif" font-size="11" lengthAdjust="spacingAndGlyphs" text-decoration="underline" textLength="143" x="26" y="75.2515">getIntegerInput(String): int</text><line style="stroke: #000000; stroke-width: 1.0;" x1="26" x2="169" y1="77.2515" y2="77.2515"/><ellipse cx="17" cy="85.4983" fill="#84BE84" rx="3" ry="3" style="stroke: #038048; stroke-width: 1.0;"/><text fill="#000000" font-family="sans-serif" font-size="11" lengthAdjust="spacingAndGlyphs" text-decoration="underline" textLength="163" x="26" y="88.0508">getIntegerInput(String, int): int</text><line style="stroke: #000000; stroke-width: 1.0;" x1="26" x2="189" y1="90.0508" y2="90.0508"/><ellipse cx="17" cy="98.2976" fill="#84BE84" rx="3" ry="3" style="stroke: #038048; stroke-width: 1.0;"/><text fill="#000000" font-family="sans-serif" font-size="11" lengthAdjust="spacingAndGlyphs" text-decoration="underline" textLength="183" x="26" y="100.8501">getIntegerInput(String, int, int): int</text><line style="stroke: #000000; stroke-width: 1.0;" x1="26" x2="209" y1="102.8501" y2="102.8501"/><ellipse cx="17" cy="111.0969" fill="#84BE84" rx="3" ry="3" style="stroke: #038048; stroke-width: 1.0;"/><text fill="#000000" font-family="sans-serif" font-size="11" lengthAdjust="spacingAndGlyphs" text-decoration="underline" textLength="168" x="26" y="113.6494">getYesNoInput(String): boolean</text><line style="stroke: #000000; stroke-width: 1.0;" x1="26" x2="194" y1="115.6494" y2="115.6494"/><ellipse cx="17" cy="123.8962" fill="#84BE84" rx="3" ry="3" style="stroke: #038048; stroke-width: 1.0;"/><text fill="#000000" font-family="sans-serif" font-size="11" lengthAdjust="spacingAndGlyphs" text-decoration="underline" textLength="145" x="26" y="126.4487">getScannerInput(): Scanner</text><line style="stroke: #000000; stroke-width: 1.0;" x1="26" x2="171" y1="128.4487" y2="128.4487"/><text fill="#888888" font-family="sans-serif" font-size="10" lengthAdjust="spacingAndGlyphs" textLength="182" x="25.5" y="152.502">UMLDoclet 1.1.3, PlantUML 1.2018.12</text><!--
@startuml

    class ScannerHelper {
        {static} +instance: Scanner
        {static} +getIntegerInput(String): int
        {static} +getIntegerInput(String, int): int
        {static} +getIntegerInput(String, int, int): int
        {static} +getYesNoInput(String): boolean
        {static} +getScannerInput(): Scanner
    }


    center footer UMLDoclet 1.1.3, PlantUML 1.2018.12
@enduml

PlantUML version 1.2018.12(Sun Oct 21 10:15:15 GMT 2018)
(APACHE source distribution)
Java Runtime: Java(TM) SE Runtime Environment
JVM: Java HotSpot(TM) 64-Bit Server VM
Java Version: 1.8.0_202-b08
Operating System: Linux
OS Version: 4.19.23-coreos-r1
Default Encoding: UTF-8
Language: en
Country: null
--></g></svg>