<?xml version="1.0" encoding="UTF-8" standalone="no"?><svg xmlns="http://www.w3.org/2000/svg" xmlns:xlink="http://www.w3.org/1999/xlink" contentScriptType="application/ecmascript" contentStyleType="text/css" height="191px" preserveAspectRatio="none" style="width:303px;height:191px;" version="1.1" viewBox="0 0 303 191" width="303px" zoomAndPan="magnify"><defs><filter height="300%" id="fqbwel887nb3a" width="300%" x="-1" y="-1"><feGaussianBlur result="blurOut" stdDeviation="2.0"/><feColorMatrix in="blurOut" result="blurOut2" type="matrix" values="0 0 0 0 0 0 0 0 0 0 0 0 0 0 0 0 0 0 .4 0"/><feOffset dx="4.0" dy="4.0" in="blurOut2" result="blurOut3"/><feBlend in="SourceGraphic" in2="blurOut3" mode="normal"/></filter></defs><g><!--class BaseMenu--><a target="_top" xlink:actuate="onRequest" xlink:href="../sg/edu/ntu/scse/cz2002/ui/BaseMenu.html" xlink:show="new" xlink:title="../sg/edu/ntu/scse/cz2002/ui/BaseMenu.html" xlink:type="simple"><rect fill="#FEFECE" filter="url(#fqbwel887nb3a)" height="150.3945" id="BaseMenu" style="stroke: #A80036; stroke-width: 1.5;" width="286" x="6" y="8"/><ellipse cx="115.75" cy="24" fill="#A9DCDF" rx="11" ry="11" style="stroke: #A80036; stroke-width: 1.0;"/><path d="M111.4219,29.25 L115.1406,16.9688 L117.5938,16.9688 L121.3125,29.25 L118.7656,29.25 L117.8281,26.125 L114.1875,26.125 L113.25,29.25 L111.4219,29.25 Z M114.6563,24.5938 L117.375,24.5938 L116,20.1094 L114.6563,24.5938 Z "/><text fill="#000000" font-family="sans-serif" font-size="12" font-style="italic" lengthAdjust="spacingAndGlyphs" textLength="58" x="136.25" y="28.4209">BaseMenu</text><line style="stroke: #A80036; stroke-width: 1.5;" x1="7" x2="291" y1="40" y2="40"/><rect fill="none" height="6" style="stroke: #C82930; stroke-width: 1.0;" width="6" x="14" y="48.8997"/><text fill="#000000" font-family="sans-serif" font-size="11" lengthAdjust="spacingAndGlyphs" text-decoration="underline" textLength="161" x="26" y="54.4521">PRINT_WINDOW_MAX_SIZE: int</text><line style="stroke: #000000; stroke-width: 1.0;" x1="26" x2="187" y1="56.4521" y2="56.4521"/><line style="stroke: #A80036; stroke-width: 1.5;" x1="7" x2="291" y1="60.7993" y2="60.7993"/><ellipse cx="17" cy="72.699" fill="#84BE84" rx="3" ry="3" style="stroke: #038048; stroke-width: 1.0;"/><text fill="#000000" font-family="sans-serif" font-size="11" lengthAdjust="spacingAndGlyphs" textLength="136" x="26" y="75.2515">startMainMenu(): boolean</text><polygon fill="#FFFF44" points="17,80.4983,21,84.4983,17,88.4983,13,84.4983" style="stroke: #B38D22; stroke-width: 1.0;"/><text fill="#000000" font-family="sans-serif" font-size="11" lengthAdjust="spacingAndGlyphs" text-decoration="underline" textLength="203" x="26" y="88.0508">printHeader(headerName:String): void</text><line style="stroke: #000000; stroke-width: 1.0;" x1="26" x2="229" y1="90.0508" y2="90.0508"/><polygon fill="#FFFF44" points="17,93.2976,21,97.2976,17,101.2976,13,97.2976" style="stroke: #B38D22; stroke-width: 1.0;"/><text fill="#000000" font-family="sans-serif" font-size="11" lengthAdjust="spacingAndGlyphs" text-decoration="underline" textLength="260" x="26" y="100.8501">printHeader(headerName:String, length:int): void</text><line style="stroke: #000000; stroke-width: 1.0;" x1="26" x2="286" y1="102.8501" y2="102.8501"/><polygon fill="#FFFF44" points="17,106.0969,21,110.0969,17,114.0969,13,110.0969" style="stroke: #B38D22; stroke-width: 1.0;"/><text fill="#000000" font-family="sans-serif" font-size="11" lengthAdjust="spacingAndGlyphs" text-decoration="underline" textLength="149" x="26" y="113.6494">printBreaks(length:int): void</text><line style="stroke: #000000; stroke-width: 1.0;" x1="26" x2="175" y1="115.6494" y2="115.6494"/><polygon fill="#FFFF44" points="17,118.8962,21,122.8962,17,126.8962,13,122.8962" style="stroke: #B38D22; stroke-width: 1.0;"/><text fill="#000000" font-family="sans-serif" font-size="11" lengthAdjust="spacingAndGlyphs" text-decoration="underline" textLength="98" x="26" y="126.4487">printBreaks(): void</text><line style="stroke: #000000; stroke-width: 1.0;" x1="26" x2="124" y1="128.4487" y2="128.4487"/><polygon fill="#FFFF44" points="17,131.6956,21,135.6956,17,139.6956,13,135.6956" style="stroke: #B38D22; stroke-width: 1.0;"/><text fill="#000000" font-family="sans-serif" font-size="11" lengthAdjust="spacingAndGlyphs" text-decoration="underline" textLength="245" x="26" y="139.248">doMenuChoice(max:int, specialEscape:int): int</text><line style="stroke: #000000; stroke-width: 1.0;" x1="26" x2="271" y1="141.248" y2="141.248"/><polygon fill="#FFFF44" points="17,144.4949,21,148.4949,17,152.4949,13,148.4949" style="stroke: #B38D22; stroke-width: 1.0;"/><text fill="#000000" font-family="sans-serif" font-size="11" font-style="italic" lengthAdjust="spacingAndGlyphs" textLength="140" x="26" y="152.0474">generateMenuScreen(): int</text></a><text fill="#888888" font-family="sans-serif" font-size="10" lengthAdjust="spacingAndGlyphs" textLength="182" x="64" y="177.502">UMLDoclet 1.1.3, PlantUML 1.2018.12</text><!--
@startuml

    abstract class BaseMenu [[../sg/edu/ntu/scse/cz2002/ui/BaseMenu.html]] {
        {static} -PRINT_WINDOW_MAX_SIZE: int
        +startMainMenu(): boolean
        {static} #printHeader(headerName:String): void
        {static} #printHeader(headerName:String, length:int): void
        {static} #printBreaks(length:int): void
        {static} #printBreaks(): void
        {static} #doMenuChoice(max:int, specialEscape:int): int
        {abstract} #generateMenuScreen(): int
    }


    center footer UMLDoclet 1.1.3, PlantUML 1.2018.12
@enduml

PlantUML version 1.2018.12(Sun Oct 21 10:15:15 GMT 2018)
(APACHE source distribution)
Java Runtime: Java(TM) SE Runtime Environment
JVM: Java HotSpot(TM) 64-Bit Server VM
Java Version: 1.8.0_202-b08
Operating System: Linux
OS Version: 4.19.23-coreos-r1
Default Encoding: UTF-8
Language: en
Country: null
--></g></svg>