<?xml version="1.0" encoding="UTF-8" standalone="no"?><svg xmlns="http://www.w3.org/2000/svg" xmlns:xlink="http://www.w3.org/1999/xlink" contentScriptType="application/ecmascript" contentStyleType="text/css" height="153px" preserveAspectRatio="none" style="width:352px;height:153px;" version="1.1" viewBox="0 0 352 153" width="352px" zoomAndPan="magnify"><defs><filter height="300%" id="f1spt338rdtz5x" width="300%" x="-1" y="-1"><feGaussianBlur result="blurOut" stdDeviation="2.0"/><feColorMatrix in="blurOut" result="blurOut2" type="matrix" values="0 0 0 0 0 0 0 0 0 0 0 0 0 0 0 0 0 0 .4 0"/><feOffset dx="4.0" dy="4.0" in="blurOut2" result="blurOut3"/><feBlend in="SourceGraphic" in2="blurOut3" mode="normal"/></filter></defs><g><!--class PromoCSVHelper--><a target="_top" xlink:actuate="onRequest" xlink:href="../sg/edu/ntu/scse/cz2002/util/PromoCSVHelper.html" xlink:show="new" xlink:title="../sg/edu/ntu/scse/cz2002/util/PromoCSVHelper.html" xlink:type="simple"><rect fill="#FEFECE" filter="url(#f1spt338rdtz5x)" height="111.9966" id="PromoCSVHelper" style="stroke: #A80036; stroke-width: 1.5;" width="335" x="6" y="8"/><ellipse cx="120.25" cy="24" fill="#ADD1B2" rx="11" ry="11" style="stroke: #A80036; stroke-width: 1.0;"/><path d="M124.0781,29.6563 Q122.2031,30.3125 120.3906,30.3125 Q117.7969,30.3125 116.2109,28.5313 Q114.625,26.75 114.625,23.8438 Q114.625,21.1563 116.0313,19.3906 Q116.8906,18.3125 118.0078,17.8594 Q119.125,17.4063 120.9063,17.4063 Q122.625,17.4063 124.0781,17.7656 L124.0781,19.75 Q122.2031,19.0469 120.9531,19.0469 Q119.2656,19.0469 118.2734,20.3672 Q117.2813,21.6875 117.2813,23.9219 Q117.2813,25.9688 118.3203,27.2656 Q119.3594,28.5625 121,28.5625 Q122.3906,28.5625 124.0781,27.7813 L124.0781,29.6563 Z "/><text fill="#000000" font-family="sans-serif" font-size="12" lengthAdjust="spacingAndGlyphs" textLength="98" x="140.75" y="28.4209">PromoCSVHelper</text><line style="stroke: #A80036; stroke-width: 1.5;" x1="7" x2="340" y1="40" y2="40"/><rect fill="none" height="6" style="stroke: #C82930; stroke-width: 1.0;" width="6" x="14" y="48.8997"/><text fill="#000000" font-family="sans-serif" font-size="11" lengthAdjust="spacingAndGlyphs" text-decoration="underline" textLength="149" x="26" y="54.4521">pInstance: PromoCSVHelper</text><line style="stroke: #000000; stroke-width: 1.0;" x1="26" x2="175" y1="56.4521" y2="56.4521"/><rect fill="none" height="6" style="stroke: #C82930; stroke-width: 1.0;" width="6" x="14" y="61.699"/><text fill="#000000" font-family="sans-serif" font-size="11" lengthAdjust="spacingAndGlyphs" textLength="115" x="26" y="67.2515">promotionCsv: String</text><line style="stroke: #A80036; stroke-width: 1.5;" x1="7" x2="340" y1="73.5986" y2="73.5986"/><ellipse cx="17" cy="85.4983" fill="#84BE84" rx="3" ry="3" style="stroke: #038048; stroke-width: 1.0;"/><text fill="#000000" font-family="sans-serif" font-size="11" lengthAdjust="spacingAndGlyphs" text-decoration="underline" textLength="167" x="26" y="88.0508">getInstance(): PromoCSVHelper</text><line style="stroke: #000000; stroke-width: 1.0;" x1="26" x2="193" y1="90.0508" y2="90.0508"/><ellipse cx="17" cy="98.2976" fill="#84BE84" rx="3" ry="3" style="stroke: #038048; stroke-width: 1.0;"/><text fill="#000000" font-family="sans-serif" font-size="11" lengthAdjust="spacingAndGlyphs" textLength="232" x="26" y="100.8501">readFromCsv(): ArrayList&lt;PromotionItem&gt;</text><ellipse cx="17" cy="111.0969" fill="#84BE84" rx="3" ry="3" style="stroke: #038048; stroke-width: 1.0;"/><text fill="#000000" font-family="sans-serif" font-size="11" lengthAdjust="spacingAndGlyphs" textLength="309" x="26" y="113.6494">writeToCsv(promotions:ArrayList&lt;PromotionItem&gt;): void</text></a><text fill="#888888" font-family="sans-serif" font-size="10" lengthAdjust="spacingAndGlyphs" textLength="182" x="88.5" y="139.502">UMLDoclet 1.1.3, PlantUML 1.2018.12</text><!--
@startuml

    class PromoCSVHelper [[../sg/edu/ntu/scse/cz2002/util/PromoCSVHelper.html]] {
        {static} -pInstance: PromoCSVHelper
        -promotionCsv: String
        {static} +getInstance(): PromoCSVHelper
        +readFromCsv(): ArrayList<PromotionItem>
        +writeToCsv(promotions:ArrayList<PromotionItem>): void
    }


    center footer UMLDoclet 1.1.3, PlantUML 1.2018.12
@enduml

PlantUML version 1.2018.12(Sun Oct 21 10:15:15 GMT 2018)
(APACHE source distribution)
Java Runtime: Java(TM) SE Runtime Environment
JVM: Java HotSpot(TM) 64-Bit Server VM
Java Version: 1.8.0_202-b08
Operating System: Linux
OS Version: 4.19.23-coreos-r1
Default Encoding: UTF-8
Language: en
Country: null
--></g></svg>