<?xml version="1.0" encoding="UTF-8" standalone="no"?><svg xmlns="http://www.w3.org/2000/svg" xmlns:xlink="http://www.w3.org/1999/xlink" contentScriptType="application/ecmascript" contentStyleType="text/css" height="402px" preserveAspectRatio="none" style="width:320px;height:402px;" version="1.1" viewBox="0 0 320 402" width="320px" zoomAndPan="magnify"><defs><filter height="300%" id="fmu83x05w3msa" width="300%" x="-1" y="-1"><feGaussianBlur result="blurOut" stdDeviation="2.0"/><feColorMatrix in="blurOut" result="blurOut2" type="matrix" values="0 0 0 0 0 0 0 0 0 0 0 0 0 0 0 0 0 0 .4 0"/><feOffset dx="4.0" dy="4.0" in="blurOut2" result="blurOut3"/><feBlend in="SourceGraphic" in2="blurOut3" mode="normal"/></filter></defs><g><!--cluster sg.edu.ntu.scse.cz2002.objects.person--><polygon fill="#FFFFFF" filter="url(#fmu83x05w3msa)" points="14,137,288,137,295,159.29,298,159.29,298,361,14,361,14,137" style="stroke: #000000; stroke-width: 1.5;"/><line style="stroke: #000000; stroke-width: 1.5;" x1="14" x2="295" y1="159.29" y2="159.29"/><text fill="#000000" font-family="sans-serif" font-size="14" font-weight="bold" lengthAdjust="spacingAndGlyphs" textLength="268" x="18" y="152.3369">sg.edu.ntu.scse.cz2002.objects.person</text><!--cluster sg.edu.ntu.scse.cz2002.util--><polygon fill="#FFFFFF" filter="url(#fmu83x05w3msa)" points="60,16,255,16,262,38.29,265,38.29,265,112,60,112,60,16" style="stroke: #000000; stroke-width: 1.5;"/><line style="stroke: #000000; stroke-width: 1.5;" x1="60" x2="262" y1="38.29" y2="38.29"/><text fill="#000000" font-family="sans-serif" font-size="14" font-weight="bold" lengthAdjust="spacingAndGlyphs" textLength="189" x="64" y="31.3369">sg.edu.ntu.scse.cz2002.util</text><!--class sg.edu.ntu.scse.cz2002.objects.person.Staff--><rect fill="#FEFECE" filter="url(#fmu83x05w3msa)" height="188.7925" id="sg.edu.ntu.scse.cz2002.objects.person.Staff" style="stroke: #A80036; stroke-width: 1.5;" width="178" x="54" y="164"/><ellipse cx="126.25" cy="180" fill="#ADD1B2" rx="11" ry="11" style="stroke: #A80036; stroke-width: 1.0;"/><path d="M130.0781,185.6563 Q128.2031,186.3125 126.3906,186.3125 Q123.7969,186.3125 122.2109,184.5313 Q120.625,182.75 120.625,179.8438 Q120.625,177.1563 122.0313,175.3906 Q122.8906,174.3125 124.0078,173.8594 Q125.125,173.4063 126.9063,173.4063 Q128.625,173.4063 130.0781,173.7656 L130.0781,175.75 Q128.2031,175.0469 126.9531,175.0469 Q125.2656,175.0469 124.2734,176.3672 Q123.2813,177.6875 123.2813,179.9219 Q123.2813,181.9688 124.3203,183.2656 Q125.3594,184.5625 127,184.5625 Q128.3906,184.5625 130.0781,183.7813 L130.0781,185.6563 Z "/><text fill="#000000" font-family="sans-serif" font-size="12" lengthAdjust="spacingAndGlyphs" textLength="25" x="146.75" y="184.4209">Staff</text><line style="stroke: #A80036; stroke-width: 1.5;" x1="55" x2="231" y1="196" y2="196"/><line style="stroke: #A80036; stroke-width: 1.5;" x1="55" x2="231" y1="204" y2="204"/><ellipse cx="65" cy="215.8997" fill="#84BE84" rx="3" ry="3" style="stroke: #038048; stroke-width: 1.0;"/><text fill="#000000" font-family="sans-serif" font-size="11" lengthAdjust="spacingAndGlyphs" textLength="152" x="74" y="218.4521">Staff(int, String, char, String)</text><ellipse cx="65" cy="228.699" fill="#84BE84" rx="3" ry="3" style="stroke: #038048; stroke-width: 1.0;"/><text fill="#000000" font-family="sans-serif" font-size="11" lengthAdjust="spacingAndGlyphs" textLength="72" x="74" y="231.2515">Staff(String[])</text><ellipse cx="65" cy="241.4983" fill="#84BE84" rx="3" ry="3" style="stroke: #038048; stroke-width: 1.0;"/><text fill="#000000" font-family="sans-serif" font-size="11" lengthAdjust="spacingAndGlyphs" textLength="85" x="74" y="244.0508">toCsv(): String[]</text><ellipse cx="65" cy="254.2976" fill="#84BE84" rx="3" ry="3" style="stroke: #038048; stroke-width: 1.0;"/><text fill="#000000" font-family="sans-serif" font-size="11" lengthAdjust="spacingAndGlyphs" textLength="79" x="74" y="256.8501">getStaffId(): int</text><ellipse cx="65" cy="267.0969" fill="#84BE84" rx="3" ry="3" style="stroke: #038048; stroke-width: 1.0;"/><text fill="#000000" font-family="sans-serif" font-size="11" lengthAdjust="spacingAndGlyphs" textLength="117" x="74" y="269.6494">getStaffName(): String</text><ellipse cx="65" cy="279.8962" fill="#84BE84" rx="3" ry="3" style="stroke: #038048; stroke-width: 1.0;"/><text fill="#000000" font-family="sans-serif" font-size="11" lengthAdjust="spacingAndGlyphs" textLength="139" x="74" y="282.4487">setStaffName(String): void</text><ellipse cx="65" cy="292.6956" fill="#84BE84" rx="3" ry="3" style="stroke: #038048; stroke-width: 1.0;"/><text fill="#000000" font-family="sans-serif" font-size="11" lengthAdjust="spacingAndGlyphs" textLength="94" x="74" y="295.248">getGender(): char</text><ellipse cx="65" cy="305.4949" fill="#84BE84" rx="3" ry="3" style="stroke: #038048; stroke-width: 1.0;"/><text fill="#000000" font-family="sans-serif" font-size="11" lengthAdjust="spacingAndGlyphs" textLength="116" x="74" y="308.0474">setGender(char): void</text><ellipse cx="65" cy="318.2942" fill="#84BE84" rx="3" ry="3" style="stroke: #038048; stroke-width: 1.0;"/><text fill="#000000" font-family="sans-serif" font-size="11" lengthAdjust="spacingAndGlyphs" textLength="103" x="74" y="320.8467">getJobTitle(): String</text><ellipse cx="65" cy="331.0935" fill="#84BE84" rx="3" ry="3" style="stroke: #038048; stroke-width: 1.0;"/><text fill="#000000" font-family="sans-serif" font-size="11" lengthAdjust="spacingAndGlyphs" textLength="125" x="74" y="333.646">setJobTitle(String): void</text><ellipse cx="65" cy="343.8928" fill="#84BE84" rx="3" ry="3" style="stroke: #038048; stroke-width: 1.0;"/><text fill="#000000" font-family="sans-serif" font-size="11" lengthAdjust="spacingAndGlyphs" text-decoration="underline" textLength="93" x="74" y="346.4453">getStaff(int): Staff</text><line style="stroke: #000000; stroke-width: 1.0;" x1="74" x2="167" y1="348.4453" y2="348.4453"/><!--class sg.edu.ntu.scse.cz2002.util.ICsvSerializable--><rect fill="#FEFECE" filter="url(#fmu83x05w3msa)" height="60.7993" id="sg.edu.ntu.scse.cz2002.util.ICsvSerializable" style="stroke: #A80036; stroke-width: 1.5;" width="121" x="82.5" y="43"/><ellipse cx="97.5" cy="59" fill="#B4A7E5" rx="11" ry="11" style="stroke: #A80036; stroke-width: 1.0;"/><path d="M93.5156,65 L93.5156,63.3594 L96.3906,63.3594 L96.3906,54.3438 L93.5156,54.3438 L93.5156,52.7188 L101.7188,52.7188 L101.7188,54.3438 L98.8438,54.3438 L98.8438,63.3594 L101.7188,63.3594 L101.7188,65 L93.5156,65 Z "/><text fill="#000000" font-family="sans-serif" font-size="12" font-style="italic" lengthAdjust="spacingAndGlyphs" textLength="89" x="111.5" y="63.4209">ICsvSerializable</text><line style="stroke: #A80036; stroke-width: 1.5;" x1="83.5" x2="202.5" y1="75" y2="75"/><line style="stroke: #A80036; stroke-width: 1.5;" x1="83.5" x2="202.5" y1="83" y2="83"/><ellipse cx="93.5" cy="94.8997" fill="#84BE84" rx="3" ry="3" style="stroke: #038048; stroke-width: 1.0;"/><text fill="#000000" font-family="sans-serif" font-size="11" font-style="italic" lengthAdjust="spacingAndGlyphs" textLength="85" x="102.5" y="97.4521">toCsv(): String[]</text><!--link sg.edu.ntu.scse.cz2002.util.ICsvSerializable to sg.edu.ntu.scse.cz2002.objects.person.Staff--><path d="M143,124.1247 C143,136.5333 143,150.2162 143,163.9592 " fill="none" id="sg.edu.ntu.scse.cz2002.util.ICsvSerializable-sg.edu.ntu.scse.cz2002.objects.person.Staff" style="stroke: #A80036; stroke-width: 1.0; stroke-dasharray: 7.0,7.0;"/><polygon fill="none" points="136.0001,124.049,143,104.049,150.0001,124.049,136.0001,124.049" style="stroke: #A80036; stroke-width: 1.0;"/><text fill="#888888" font-family="sans-serif" font-size="10" lengthAdjust="spacingAndGlyphs" textLength="182" x="71" y="388.502">UMLDoclet 1.1.3, PlantUML 1.2018.12</text><!--
@startuml

    namespace sg.edu.ntu.scse.cz2002.objects.person {

        class Staff {
            +Staff(int, String, char, String)
            +Staff(String[])
            +toCsv(): String[]
            +getStaffId(): int
            +getStaffName(): String
            +setStaffName(String): void
            +getGender(): char
            +setGender(char): void
            +getJobTitle(): String
            +setJobTitle(String): void
            {static} +getStaff(int): Staff
        }

        interface sg.edu.ntu.scse.cz2002.util.ICsvSerializable {
            {abstract} +toCsv(): String[]
        }
        sg.edu.ntu.scse.cz2002.util.ICsvSerializable <|.. Staff

    }


    center footer UMLDoclet 1.1.3, PlantUML 1.2018.12
@enduml

PlantUML version 1.2018.12(Sun Oct 21 10:15:15 GMT 2018)
(APACHE source distribution)
Java Runtime: Java(TM) SE Runtime Environment
JVM: Java HotSpot(TM) 64-Bit Server VM
Java Version: 1.8.0_202-b08
Operating System: Linux
OS Version: 4.19.23-coreos-r1
Default Encoding: UTF-8
Language: en
Country: null
--></g></svg>