<?xml version="1.0" encoding="UTF-8" standalone="no"?><svg xmlns="http://www.w3.org/2000/svg" xmlns:xlink="http://www.w3.org/1999/xlink" contentScriptType="application/ecmascript" contentStyleType="text/css" height="1024px" preserveAspectRatio="none" style="width:1379px;height:1024px;" version="1.1" viewBox="0 0 1379 1024" width="1379px" zoomAndPan="magnify"><defs><filter height="300%" id="f15giwdcva8aqf" width="300%" x="-1" y="-1"><feGaussianBlur result="blurOut" stdDeviation="2.0"/><feColorMatrix in="blurOut" result="blurOut2" type="matrix" values="0 0 0 0 0 0 0 0 0 0 0 0 0 0 0 0 0 0 .4 0"/><feOffset dx="4.0" dy="4.0" in="blurOut2" result="blurOut3"/><feBlend in="SourceGraphic" in2="blurOut3" mode="normal"/></filter></defs><g><!--cluster sg.edu.ntu.scse.cz2002.objects.restaurantItem--><polygon fill="#FFFFFF" filter="url(#f15giwdcva8aqf)" points="14,143,346,143,353,165.29,1357,165.29,1357,983,14,983,14,143" style="stroke: #000000; stroke-width: 1.5;"/><line style="stroke: #000000; stroke-width: 1.5;" x1="14" x2="353" y1="165.29" y2="165.29"/><text fill="#000000" font-family="sans-serif" font-size="14" font-weight="bold" lengthAdjust="spacingAndGlyphs" textLength="326" x="18" y="158.3369">sg.edu.ntu.scse.cz2002.objects.restaurantItem</text><!--cluster sg.edu.ntu.scse.cz2002.util--><polygon fill="#FFFFFF" filter="url(#f15giwdcva8aqf)" points="660,16,855,16,862,38.29,865,38.29,865,112,660,112,660,16" style="stroke: #000000; stroke-width: 1.5;"/><line style="stroke: #000000; stroke-width: 1.5;" x1="660" x2="862" y1="38.29" y2="38.29"/><text fill="#000000" font-family="sans-serif" font-size="14" font-weight="bold" lengthAdjust="spacingAndGlyphs" textLength="189" x="664" y="31.3369">sg.edu.ntu.scse.cz2002.util</text><!--class sg.edu.ntu.scse.cz2002.objects.restaurantItem.MenuItem--><a target="_top" xlink:actuate="onRequest" xlink:href="../sg/edu/ntu/scse/cz2002/objects/restaurantItem/MenuItem.html" xlink:show="new" xlink:title="../sg/edu/ntu/scse/cz2002/objects/restaurantItem/MenuItem.html" xlink:type="simple"><rect fill="#FEFECE" filter="url(#f15giwdcva8aqf)" height="201.5918" id="sg.edu.ntu.scse.cz2002.objects.restaurantItem.MenuItem" style="stroke: #A80036; stroke-width: 1.5;" width="628" x="22" y="507.5"/><ellipse cx="303.75" cy="523.5" fill="#ADD1B2" rx="11" ry="11" style="stroke: #A80036; stroke-width: 1.0;"/><path d="M307.5781,529.1563 Q305.7031,529.8125 303.8906,529.8125 Q301.2969,529.8125 299.7109,528.0313 Q298.125,526.25 298.125,523.3438 Q298.125,520.6563 299.5313,518.8906 Q300.3906,517.8125 301.5078,517.3594 Q302.625,516.9063 304.4063,516.9063 Q306.125,516.9063 307.5781,517.2656 L307.5781,519.25 Q305.7031,518.5469 304.4531,518.5469 Q302.7656,518.5469 301.7734,519.8672 Q300.7813,521.1875 300.7813,523.4219 Q300.7813,525.4688 301.8203,526.7656 Q302.8594,528.0625 304.5,528.0625 Q305.8906,528.0625 307.5781,527.2813 L307.5781,529.1563 Z "/><text fill="#000000" font-family="sans-serif" font-size="12" lengthAdjust="spacingAndGlyphs" textLength="56" x="324.25" y="527.9209">MenuItem</text><line style="stroke: #A80036; stroke-width: 1.5;" x1="23" x2="649" y1="539.5" y2="539.5"/><polygon fill="none" points="33,546.3997,37,550.3997,33,554.3997,29,550.3997" style="stroke: #B38D22; stroke-width: 1.0;"/><text fill="#000000" font-family="sans-serif" font-size="11" lengthAdjust="spacingAndGlyphs" textLength="99" x="42" y="553.9521">description: String</text><line style="stroke: #A80036; stroke-width: 1.5;" x1="23" x2="649" y1="560.2993" y2="560.2993"/><ellipse cx="33" cy="572.199" fill="#84BE84" rx="3" ry="3" style="stroke: #038048; stroke-width: 1.0;"/><text fill="#000000" font-family="sans-serif" font-size="11" lengthAdjust="spacingAndGlyphs" textLength="378" x="42" y="574.7515">MenuItem(id:int, name:String, type:int, description:String, price:double)</text><ellipse cx="33" cy="584.9983" fill="#84BE84" rx="3" ry="3" style="stroke: #038048; stroke-width: 1.0;"/><text fill="#000000" font-family="sans-serif" font-size="11" lengthAdjust="spacingAndGlyphs" textLength="121" x="42" y="587.5508">MenuItem(csv:String[])</text><ellipse cx="33" cy="597.7976" fill="#84BE84" rx="3" ry="3" style="stroke: #038048; stroke-width: 1.0;"/><text fill="#000000" font-family="sans-serif" font-size="11" lengthAdjust="spacingAndGlyphs" textLength="85" x="42" y="600.3501">toCsv(): String[]</text><ellipse cx="33" cy="610.5969" fill="#84BE84" rx="3" ry="3" style="stroke: #038048; stroke-width: 1.0;"/><text fill="#000000" font-family="sans-serif" font-size="11" lengthAdjust="spacingAndGlyphs" textLength="119" x="42" y="613.1494">setType(type:int): void</text><ellipse cx="33" cy="623.3962" fill="#84BE84" rx="3" ry="3" style="stroke: #038048; stroke-width: 1.0;"/><text fill="#000000" font-family="sans-serif" font-size="11" lengthAdjust="spacingAndGlyphs" textLength="125" x="42" y="625.9487">getDescription(): String</text><ellipse cx="33" cy="636.1956" fill="#84BE84" rx="3" ry="3" style="stroke: #038048; stroke-width: 1.0;"/><text fill="#000000" font-family="sans-serif" font-size="11" lengthAdjust="spacingAndGlyphs" textLength="211" x="42" y="638.748">setDescription(description:String): void</text><ellipse cx="33" cy="648.9949" fill="#84BE84" rx="3" ry="3" style="stroke: #038048; stroke-width: 1.0;"/><text fill="#000000" font-family="sans-serif" font-size="11" lengthAdjust="spacingAndGlyphs" textLength="291" x="42" y="651.5474">convertToItemType(type:int): MenuItem.MenuItemType</text><ellipse cx="33" cy="661.7942" fill="#84BE84" rx="3" ry="3" style="stroke: #038048; stroke-width: 1.0;"/><text fill="#000000" font-family="sans-serif" font-size="11" lengthAdjust="spacingAndGlyphs" textLength="125" x="42" y="664.3467">printItemDetail(): String</text><ellipse cx="33" cy="674.5935" fill="#84BE84" rx="3" ry="3" style="stroke: #038048; stroke-width: 1.0;"/><text fill="#000000" font-family="sans-serif" font-size="11" lengthAdjust="spacingAndGlyphs" text-decoration="underline" textLength="602" x="42" y="677.146">menuTypeChecker(menuArrayList:ArrayList&lt;MenuItem&gt;, newPromoItemType:int, textParameter:String): boolean</text><line style="stroke: #000000; stroke-width: 1.0;" x1="42" x2="644" y1="679.146" y2="679.146"/><ellipse cx="33" cy="687.3928" fill="#84BE84" rx="3" ry="3" style="stroke: #038048; stroke-width: 1.0;"/><text fill="#000000" font-family="sans-serif" font-size="11" lengthAdjust="spacingAndGlyphs" text-decoration="underline" textLength="242" x="42" y="689.9453">retrieveMenuItem(targetItemID:int): MenuItem</text><line style="stroke: #000000; stroke-width: 1.0;" x1="42" x2="284" y1="691.9453" y2="691.9453"/><ellipse cx="33" cy="700.1921" fill="#84BE84" rx="3" ry="3" style="stroke: #038048; stroke-width: 1.0;"/><text fill="#000000" font-family="sans-serif" font-size="11" lengthAdjust="spacingAndGlyphs" text-decoration="underline" textLength="502" x="42" y="702.7446">retrieveMenuItemListFiltered(targetItemType:MenuItem.MenuItemType): ArrayList&lt;MenuItem&gt;</text><line style="stroke: #000000; stroke-width: 1.0;" x1="42" x2="544" y1="704.7446" y2="704.7446"/></a><!--class sg.edu.ntu.scse.cz2002.objects.restaurantItem.MenuItem.MenuItemType--><a target="_top" xlink:actuate="onRequest" xlink:href="../sg/edu/ntu/scse/cz2002/objects/restaurantItem/MenuItem.MenuItemType.html" xlink:show="new" xlink:title="../sg/edu/ntu/scse/cz2002/objects/restaurantItem/MenuItem.MenuItemType.html" xlink:type="simple"><rect fill="#FEFECE" filter="url(#f15giwdcva8aqf)" height="99.1973" id="sg.edu.ntu.scse.cz2002.objects.restaurantItem.MenuItem.MenuItemType" style="stroke: #A80036; stroke-width: 1.5;" width="177" x="247.5" y="876"/><ellipse cx="262.5" cy="892" fill="#EB937F" rx="11" ry="11" style="stroke: #A80036; stroke-width: 1.0;"/><path d="M258.8906,898 L258.8906,885.7188 L266.5781,885.7188 L266.5781,887.3438 L261.3594,887.3438 L261.3594,890.8281 L265.7656,890.8281 L265.7656,892.3594 L261.3594,892.3594 L261.3594,896.3594 L267.0156,896.3594 L267.0156,898 L258.8906,898 Z "/><text fill="#000000" font-family="sans-serif" font-size="12" lengthAdjust="spacingAndGlyphs" textLength="145" x="276.5" y="896.4209">MenuItem.MenuItemType</text><line style="stroke: #A80036; stroke-width: 1.5;" x1="248.5" x2="423.5" y1="908" y2="908"/><ellipse cx="258.5" cy="919.8997" fill="none" rx="3" ry="3" style="stroke: #038048; stroke-width: 1.0;"/><text fill="#000000" font-family="sans-serif" font-size="11" lengthAdjust="spacingAndGlyphs" text-decoration="underline" textLength="20" x="267.5" y="922.4521">ALL</text><line style="stroke: #000000; stroke-width: 1.0;" x1="267.5" x2="287.5" y1="924.4521" y2="924.4521"/><ellipse cx="258.5" cy="932.699" fill="none" rx="3" ry="3" style="stroke: #038048; stroke-width: 1.0;"/><text fill="#000000" font-family="sans-serif" font-size="11" lengthAdjust="spacingAndGlyphs" text-decoration="underline" textLength="28" x="267.5" y="935.2515">MAIN</text><line style="stroke: #000000; stroke-width: 1.0;" x1="267.5" x2="295.5" y1="937.2515" y2="937.2515"/><ellipse cx="258.5" cy="945.4983" fill="none" rx="3" ry="3" style="stroke: #038048; stroke-width: 1.0;"/><text fill="#000000" font-family="sans-serif" font-size="11" lengthAdjust="spacingAndGlyphs" text-decoration="underline" textLength="46" x="267.5" y="948.0508">DESSERT</text><line style="stroke: #000000; stroke-width: 1.0;" x1="267.5" x2="313.5" y1="950.0508" y2="950.0508"/><ellipse cx="258.5" cy="958.2976" fill="none" rx="3" ry="3" style="stroke: #038048; stroke-width: 1.0;"/><text fill="#000000" font-family="sans-serif" font-size="11" lengthAdjust="spacingAndGlyphs" text-decoration="underline" textLength="33" x="267.5" y="960.8501">DRINK</text><line style="stroke: #000000; stroke-width: 1.0;" x1="267.5" x2="300.5" y1="962.8501" y2="962.8501"/><line style="stroke: #A80036; stroke-width: 1.5;" x1="248.5" x2="423.5" y1="967.1973" y2="967.1973"/></a><!--class sg.edu.ntu.scse.cz2002.objects.restaurantItem.PromotionItem--><a target="_top" xlink:actuate="onRequest" xlink:href="../sg/edu/ntu/scse/cz2002/objects/restaurantItem/PromotionItem.html" xlink:show="new" xlink:title="../sg/edu/ntu/scse/cz2002/objects/restaurantItem/PromotionItem.html" xlink:type="simple"><rect fill="#FEFECE" filter="url(#f15giwdcva8aqf)" height="227.1904" id="sg.edu.ntu.scse.cz2002.objects.restaurantItem.PromotionItem" style="stroke: #A80036; stroke-width: 1.5;" width="664" x="685" y="495"/><ellipse cx="971.25" cy="511" fill="#ADD1B2" rx="11" ry="11" style="stroke: #A80036; stroke-width: 1.0;"/><path d="M975.0781,516.6563 Q973.2031,517.3125 971.3906,517.3125 Q968.7969,517.3125 967.2109,515.5313 Q965.625,513.75 965.625,510.8438 Q965.625,508.1563 967.0313,506.3906 Q967.8906,505.3125 969.0078,504.8594 Q970.125,504.4063 971.9063,504.4063 Q973.625,504.4063 975.0781,504.7656 L975.0781,506.75 Q973.2031,506.0469 971.9531,506.0469 Q970.2656,506.0469 969.2734,507.3672 Q968.2813,508.6875 968.2813,510.9219 Q968.2813,512.9688 969.3203,514.2656 Q970.3594,515.5625 972,515.5625 Q973.3906,515.5625 975.0781,514.7813 L975.0781,516.6563 Z "/><text fill="#000000" font-family="sans-serif" font-size="12" lengthAdjust="spacingAndGlyphs" textLength="83" x="991.75" y="515.4209">PromotionItem</text><line style="stroke: #A80036; stroke-width: 1.5;" x1="686" x2="1348" y1="527" y2="527"/><polygon fill="none" points="696,533.8997,700,537.8997,696,541.8997,692,537.8997" style="stroke: #B38D22; stroke-width: 1.0;"/><text fill="#000000" font-family="sans-serif" font-size="11" lengthAdjust="spacingAndGlyphs" textLength="81" x="705" y="541.4521">promoMain: int</text><polygon fill="none" points="696,546.699,700,550.699,696,554.699,692,550.699" style="stroke: #B38D22; stroke-width: 1.0;"/><text fill="#000000" font-family="sans-serif" font-size="11" lengthAdjust="spacingAndGlyphs" textLength="97" x="705" y="554.2515">promoDessert: int</text><polygon fill="none" points="696,559.4983,700,563.4983,696,567.4983,692,563.4983" style="stroke: #B38D22; stroke-width: 1.0;"/><text fill="#000000" font-family="sans-serif" font-size="11" lengthAdjust="spacingAndGlyphs" textLength="85" x="705" y="567.0508">promoDrink: int</text><line style="stroke: #A80036; stroke-width: 1.5;" x1="686" x2="1348" y1="573.3979" y2="573.3979"/><ellipse cx="696" cy="585.2976" fill="#84BE84" rx="3" ry="3" style="stroke: #038048; stroke-width: 1.0;"/><text fill="#000000" font-family="sans-serif" font-size="11" lengthAdjust="spacingAndGlyphs" textLength="638" x="705" y="587.8501">PromotionItem(promoID:int, promoName:String, promoPrice:double, promoMain:int, promoDessert:int, promoDrink:int)</text><ellipse cx="696" cy="598.0969" fill="#84BE84" rx="3" ry="3" style="stroke: #038048; stroke-width: 1.0;"/><text fill="#000000" font-family="sans-serif" font-size="11" lengthAdjust="spacingAndGlyphs" textLength="148" x="705" y="600.6494">PromotionItem(csv:String[])</text><ellipse cx="696" cy="610.8962" fill="#84BE84" rx="3" ry="3" style="stroke: #038048; stroke-width: 1.0;"/><text fill="#000000" font-family="sans-serif" font-size="11" lengthAdjust="spacingAndGlyphs" textLength="85" x="705" y="613.4487">toCsv(): String[]</text><ellipse cx="696" cy="623.6956" fill="#84BE84" rx="3" ry="3" style="stroke: #038048; stroke-width: 1.0;"/><text fill="#000000" font-family="sans-serif" font-size="11" lengthAdjust="spacingAndGlyphs" textLength="105" x="705" y="626.248">getPromoMain(): int</text><ellipse cx="696" cy="636.4949" fill="#84BE84" rx="3" ry="3" style="stroke: #038048; stroke-width: 1.0;"/><text fill="#000000" font-family="sans-serif" font-size="11" lengthAdjust="spacingAndGlyphs" textLength="191" x="705" y="639.0474">setPromoMain(promoMain:int): void</text><ellipse cx="696" cy="649.2942" fill="#84BE84" rx="3" ry="3" style="stroke: #038048; stroke-width: 1.0;"/><text fill="#000000" font-family="sans-serif" font-size="11" lengthAdjust="spacingAndGlyphs" textLength="121" x="705" y="651.8467">getPromoDessert(): int</text><ellipse cx="696" cy="662.0935" fill="#84BE84" rx="3" ry="3" style="stroke: #038048; stroke-width: 1.0;"/><text fill="#000000" font-family="sans-serif" font-size="11" lengthAdjust="spacingAndGlyphs" textLength="223" x="705" y="664.646">setPromoDessert(promoDessert:int): void</text><ellipse cx="696" cy="674.8928" fill="#84BE84" rx="3" ry="3" style="stroke: #038048; stroke-width: 1.0;"/><text fill="#000000" font-family="sans-serif" font-size="11" lengthAdjust="spacingAndGlyphs" textLength="109" x="705" y="677.4453">getPromoDrink(): int</text><ellipse cx="696" cy="687.6921" fill="#84BE84" rx="3" ry="3" style="stroke: #038048; stroke-width: 1.0;"/><text fill="#000000" font-family="sans-serif" font-size="11" lengthAdjust="spacingAndGlyphs" textLength="199" x="705" y="690.2446">setPromoDrink(promoDrink:int): void</text><ellipse cx="696" cy="700.4915" fill="#84BE84" rx="3" ry="3" style="stroke: #038048; stroke-width: 1.0;"/><text fill="#000000" font-family="sans-serif" font-size="11" lengthAdjust="spacingAndGlyphs" textLength="158" x="705" y="703.0439">printPromotionDetail(): String</text><ellipse cx="696" cy="713.2908" fill="#84BE84" rx="3" ry="3" style="stroke: #038048; stroke-width: 1.0;"/><text fill="#000000" font-family="sans-serif" font-size="11" lengthAdjust="spacingAndGlyphs" text-decoration="underline" textLength="285" x="705" y="715.8433">retrievePromotion(targetPromoID:int): PromotionItem</text><line style="stroke: #000000; stroke-width: 1.0;" x1="705" x2="990" y1="717.8433" y2="717.8433"/></a><!--class sg.edu.ntu.scse.cz2002.objects.restaurantItem.RestaurantItem--><a target="_top" xlink:actuate="onRequest" xlink:href="../sg/edu/ntu/scse/cz2002/objects/restaurantItem/RestaurantItem.html" xlink:show="new" xlink:title="../sg/edu/ntu/scse/cz2002/objects/restaurantItem/RestaurantItem.html" xlink:type="simple"><rect fill="#FEFECE" filter="url(#f15giwdcva8aqf)" height="201.5918" id="sg.edu.ntu.scse.cz2002.objects.restaurantItem.RestaurantItem" style="stroke: #A80036; stroke-width: 1.5;" width="523" x="185.5" y="170"/><ellipse cx="399.25" cy="186" fill="#ADD1B2" rx="11" ry="11" style="stroke: #A80036; stroke-width: 1.0;"/><path d="M403.0781,191.6563 Q401.2031,192.3125 399.3906,192.3125 Q396.7969,192.3125 395.2109,190.5313 Q393.625,188.75 393.625,185.8438 Q393.625,183.1563 395.0313,181.3906 Q395.8906,180.3125 397.0078,179.8594 Q398.125,179.4063 399.9063,179.4063 Q401.625,179.4063 403.0781,179.7656 L403.0781,181.75 Q401.2031,181.0469 399.9531,181.0469 Q398.2656,181.0469 397.2734,182.3672 Q396.2813,183.6875 396.2813,185.9219 Q396.2813,187.9688 397.3203,189.2656 Q398.3594,190.5625 400,190.5625 Q401.3906,190.5625 403.0781,189.7813 L403.0781,191.6563 Z "/><text fill="#000000" font-family="sans-serif" font-size="12" lengthAdjust="spacingAndGlyphs" textLength="87" x="419.75" y="190.4209">RestaurantItem</text><line style="stroke: #A80036; stroke-width: 1.5;" x1="186.5" x2="707.5" y1="202" y2="202"/><polygon fill="none" points="196.5,208.8997,200.5,212.8997,196.5,216.8997,192.5,212.8997" style="stroke: #B38D22; stroke-width: 1.0;"/><text fill="#000000" font-family="sans-serif" font-size="11" lengthAdjust="spacingAndGlyphs" textLength="110" x="205.5" y="216.4521">restaurantItemID: int</text><polygon fill="none" points="196.5,221.699,200.5,225.699,196.5,229.699,192.5,225.699" style="stroke: #B38D22; stroke-width: 1.0;"/><text fill="#000000" font-family="sans-serif" font-size="11" lengthAdjust="spacingAndGlyphs" textLength="147" x="205.5" y="229.2515">restaurantItemName: String</text><polygon fill="none" points="196.5,234.4983,200.5,238.4983,196.5,242.4983,192.5,238.4983" style="stroke: #B38D22; stroke-width: 1.0;"/><text fill="#000000" font-family="sans-serif" font-size="11" lengthAdjust="spacingAndGlyphs" textLength="148" x="205.5" y="242.0508">restaurantItemPrice: double</text><line style="stroke: #A80036; stroke-width: 1.5;" x1="186.5" x2="707.5" y1="248.3979" y2="248.3979"/><ellipse cx="196.5" cy="260.2976" fill="#84BE84" rx="3" ry="3" style="stroke: #038048; stroke-width: 1.0;"/><text fill="#000000" font-family="sans-serif" font-size="11" lengthAdjust="spacingAndGlyphs" textLength="497" x="205.5" y="262.8501">RestaurantItem(restaurantItemID:int, restaurantItemName:String, restaurantItemPrice:double)</text><ellipse cx="196.5" cy="273.0969" fill="#84BE84" rx="3" ry="3" style="stroke: #038048; stroke-width: 1.0;"/><text fill="#000000" font-family="sans-serif" font-size="11" lengthAdjust="spacingAndGlyphs" textLength="150" x="205.5" y="275.6494">RestaurantItem(csv:String[])</text><ellipse cx="196.5" cy="285.8962" fill="#84BE84" rx="3" ry="3" style="stroke: #038048; stroke-width: 1.0;"/><text fill="#000000" font-family="sans-serif" font-size="11" lengthAdjust="spacingAndGlyphs" textLength="85" x="205.5" y="288.4487">toCsv(): String[]</text><ellipse cx="196.5" cy="298.6956" fill="#84BE84" rx="3" ry="3" style="stroke: #038048; stroke-width: 1.0;"/><text fill="#000000" font-family="sans-serif" font-size="11" lengthAdjust="spacingAndGlyphs" textLength="55" x="205.5" y="301.248">getId(): int</text><ellipse cx="196.5" cy="311.4949" fill="#84BE84" rx="3" ry="3" style="stroke: #038048; stroke-width: 1.0;"/><text fill="#000000" font-family="sans-serif" font-size="11" lengthAdjust="spacingAndGlyphs" textLength="170" x="205.5" y="314.0474">setId(restaurantItemID:int): void</text><ellipse cx="196.5" cy="324.2942" fill="#84BE84" rx="3" ry="3" style="stroke: #038048; stroke-width: 1.0;"/><text fill="#000000" font-family="sans-serif" font-size="11" lengthAdjust="spacingAndGlyphs" textLength="93" x="205.5" y="326.8467">getName(): String</text><ellipse cx="196.5" cy="337.0935" fill="#84BE84" rx="3" ry="3" style="stroke: #038048; stroke-width: 1.0;"/><text fill="#000000" font-family="sans-serif" font-size="11" lengthAdjust="spacingAndGlyphs" textLength="227" x="205.5" y="339.646">setName(restaurantItemName:String): void</text><ellipse cx="196.5" cy="349.8928" fill="#84BE84" rx="3" ry="3" style="stroke: #038048; stroke-width: 1.0;"/><text fill="#000000" font-family="sans-serif" font-size="11" lengthAdjust="spacingAndGlyphs" textLength="94" x="205.5" y="352.4453">getPrice(): double</text><ellipse cx="196.5" cy="362.6921" fill="#84BE84" rx="3" ry="3" style="stroke: #038048; stroke-width: 1.0;"/><text fill="#000000" font-family="sans-serif" font-size="11" lengthAdjust="spacingAndGlyphs" textLength="224" x="205.5" y="365.2446">setPrice(restaurantItemPrice:double): void</text></a><!--class sg.edu.ntu.scse.cz2002.util.ICsvSerializable--><rect fill="#FEFECE" filter="url(#f15giwdcva8aqf)" height="60.7993" id="sg.edu.ntu.scse.cz2002.util.ICsvSerializable" style="stroke: #A80036; stroke-width: 1.5;" width="121" x="701.5" y="43"/><ellipse cx="716.5" cy="59" fill="#B4A7E5" rx="11" ry="11" style="stroke: #A80036; stroke-width: 1.0;"/><path d="M712.5156,65 L712.5156,63.3594 L715.3906,63.3594 L715.3906,54.3438 L712.5156,54.3438 L712.5156,52.7188 L720.7188,52.7188 L720.7188,54.3438 L717.8438,54.3438 L717.8438,63.3594 L720.7188,63.3594 L720.7188,65 L712.5156,65 Z "/><text fill="#000000" font-family="sans-serif" font-size="12" font-style="italic" lengthAdjust="spacingAndGlyphs" textLength="89" x="730.5" y="63.4209">ICsvSerializable</text><line style="stroke: #A80036; stroke-width: 1.5;" x1="702.5" x2="821.5" y1="75" y2="75"/><line style="stroke: #A80036; stroke-width: 1.5;" x1="702.5" x2="821.5" y1="83" y2="83"/><ellipse cx="712.5" cy="94.8997" fill="#84BE84" rx="3" ry="3" style="stroke: #038048; stroke-width: 1.0;"/><text fill="#000000" font-family="sans-serif" font-size="11" font-style="italic" lengthAdjust="spacingAndGlyphs" textLength="85" x="721.5" y="97.4521">toCsv(): String[]</text><!--link sg.edu.ntu.scse.cz2002.objects.restaurantItem.RestaurantItem to sg.edu.ntu.scse.cz2002.objects.restaurantItem.MenuItem--><path d="M407.3905,391.4342 C394.9147,429.3675 381.269,470.8578 369.2802,507.3103 " fill="none" id="sg.edu.ntu.scse.cz2002.objects.restaurantItem.RestaurantItem-sg.edu.ntu.scse.cz2002.objects.restaurantItem.MenuItem" style="stroke: #A80036; stroke-width: 1.0;"/><polygon fill="none" points="400.7982,389.073,413.6963,372.2611,414.0974,393.447,400.7982,389.073" style="stroke: #A80036; stroke-width: 1.0;"/><!--link sg.edu.ntu.scse.cz2002.util.ICsvSerializable to sg.edu.ntu.scse.cz2002.objects.restaurantItem.MenuItem--><path d="M768.3907,124.1689 C773.7155,187.2806 773.9814,296.0382 726,372 C690.6369,427.9851 636.7616,472.6302 580.2419,507.3699 " fill="none" id="sg.edu.ntu.scse.cz2002.util.ICsvSerializable-sg.edu.ntu.scse.cz2002.objects.restaurantItem.MenuItem" style="stroke: #A80036; stroke-width: 1.0; stroke-dasharray: 7.0,7.0;"/><polygon fill="none" points="761.4238,124.8477,766.4103,104.2532,775.3551,123.4623,761.4238,124.8477" style="stroke: #A80036; stroke-width: 1.0;"/><!--link sg.edu.ntu.scse.cz2002.objects.restaurantItem.MenuItem to sg.edu.ntu.scse.cz2002.objects.restaurantItem.MenuItem.MenuItemType--><path d="M328.4452,724.7665 C327.371,754.2053 326.9431,785.7655 328,815 C328.7192,834.8944 330.1645,856.7642 331.6313,875.7603 " fill="none" id="sg.edu.ntu.scse.cz2002.objects.restaurantItem.MenuItem-sg.edu.ntu.scse.cz2002.objects.restaurantItem.MenuItem.MenuItemType" style="stroke: #A80036; stroke-width: 1.0;"/><ellipse cx="328.7367" cy="717.5822" fill="#FFFFFF" rx="8" ry="8" style="stroke: #A80036; stroke-width: 1.0;"/><line style="stroke: #A80036; stroke-width: 1.0;" x1="328.4122" x2="329.0613" y1="725.5756" y2="709.5888"/><line style="stroke: #A80036; stroke-width: 1.0;" x1="320.7433" x2="336.7301" y1="717.2576" y2="717.9068"/><!--link sg.edu.ntu.scse.cz2002.objects.restaurantItem.MenuItem to sg.edu.ntu.scse.cz2002.objects.restaurantItem.MenuItem.MenuItemType--><path d="M337.7871,709.6233 C338.2891,751.7872 338.5626,801.2645 338,846 C337.8994,854.0028 337.7417,862.4577 337.5581,870.7495 " fill="none" id="sg.edu.ntu.scse.cz2002.objects.restaurantItem.MenuItem-sg.edu.ntu.scse.cz2002.objects.restaurantItem.MenuItem.MenuItemType" style="stroke: #A80036; stroke-width: 1.0;"/><polygon fill="#A80036" points="337.4407,875.8858,341.6454,866.9796,337.555,870.8871,333.6475,866.7967,337.4407,875.8858" style="stroke: #A80036; stroke-width: 1.0;"/><text fill="#000000" font-family="sans-serif" font-size="13" lengthAdjust="spacingAndGlyphs" textLength="37" x="339" y="796.3525">eType</text><text fill="#000000" font-family="sans-serif" font-size="13" lengthAdjust="spacingAndGlyphs" textLength="27" x="344" y="811.479">type</text><!--link sg.edu.ntu.scse.cz2002.objects.restaurantItem.RestaurantItem to sg.edu.ntu.scse.cz2002.objects.restaurantItem.PromotionItem--><path d="M635.075,382.3602 C696.102,418.4946 763.8599,458.6144 825.1577,494.9092 " fill="none" id="sg.edu.ntu.scse.cz2002.objects.restaurantItem.RestaurantItem-sg.edu.ntu.scse.cz2002.objects.restaurantItem.PromotionItem" style="stroke: #A80036; stroke-width: 1.0;"/><polygon fill="none" points="631.2757,388.2457,617.6326,372.0325,638.4086,376.199,631.2757,388.2457" style="stroke: #A80036; stroke-width: 1.0;"/><!--link sg.edu.ntu.scse.cz2002.util.ICsvSerializable to sg.edu.ntu.scse.cz2002.objects.restaurantItem.PromotionItem--><path d="M785.2617,122.304 C825.2066,206.1099 907.8426,379.4835 962.8589,494.9099 " fill="none" id="sg.edu.ntu.scse.cz2002.util.ICsvSerializable-sg.edu.ntu.scse.cz2002.objects.restaurantItem.PromotionItem" style="stroke: #A80036; stroke-width: 1.0; stroke-dasharray: 7.0,7.0;"/><polygon fill="none" points="778.9121,125.2514,776.6258,104.1855,791.55,119.2277,778.9121,125.2514" style="stroke: #A80036; stroke-width: 1.0;"/><!--link sg.edu.ntu.scse.cz2002.util.ICsvSerializable to sg.edu.ntu.scse.cz2002.objects.restaurantItem.RestaurantItem--><path d="M696.1163,114.8081 C670.2976,130.9959 639.4436,150.3409 608.388,169.8123 " fill="none" id="sg.edu.ntu.scse.cz2002.util.ICsvSerializable-sg.edu.ntu.scse.cz2002.objects.restaurantItem.RestaurantItem" style="stroke: #A80036; stroke-width: 1.0; stroke-dasharray: 7.0,7.0;"/><polygon fill="none" points="692.4635,108.8362,713.1269,104.1427,699.9005,120.6976,692.4635,108.8362" style="stroke: #A80036; stroke-width: 1.0;"/><text fill="#888888" font-family="sans-serif" font-size="10" lengthAdjust="spacingAndGlyphs" textLength="182" x="600.5" y="1010.502">UMLDoclet 1.1.3, PlantUML 1.2018.12</text><!--
@startuml

    namespace sg.edu.ntu.scse.cz2002.objects.restaurantItem {

        class MenuItem [[../sg/edu/ntu/scse/cz2002/objects/restaurantItem/MenuItem.html]] {
            #description: String
            +MenuItem(id:int, name:String, type:int, description:String, price:double)
            +MenuItem(csv:String[])
            +toCsv(): String[]
            +setType(type:int): void
            +getDescription(): String
            +setDescription(description:String): void
            +convertToItemType(type:int): MenuItem.MenuItemType
            +printItemDetail(): String
            {static} +menuTypeChecker(menuArrayList:ArrayList<MenuItem>, newPromoItemType:int, textParameter:String): boolean
            {static} +retrieveMenuItem(targetItemID:int): MenuItem
            {static} +retrieveMenuItemListFiltered(targetItemType:MenuItem.MenuItemType): ArrayList<MenuItem>
        }

        enum sg.edu.ntu.scse.cz2002.objects.restaurantItem.MenuItem.MenuItemType [[../sg/edu/ntu/scse/cz2002/objects/restaurantItem/MenuItem.MenuItemType.html]] {
            {static} +ALL
            {static} +MAIN
            {static} +DESSERT
            {static} +DRINK
        }

        class PromotionItem [[../sg/edu/ntu/scse/cz2002/objects/restaurantItem/PromotionItem.html]] {
            #promoMain: int
            #promoDessert: int
            #promoDrink: int
            +PromotionItem(promoID:int, promoName:String, promoPrice:double, promoMain:int, promoDessert:int, promoDrink:int)
            +PromotionItem(csv:String[])
            +toCsv(): String[]
            +getPromoMain(): int
            +setPromoMain(promoMain:int): void
            +getPromoDessert(): int
            +setPromoDessert(promoDessert:int): void
            +getPromoDrink(): int
            +setPromoDrink(promoDrink:int): void
            +printPromotionDetail(): String
            {static} +retrievePromotion(targetPromoID:int): PromotionItem
        }

        class RestaurantItem [[../sg/edu/ntu/scse/cz2002/objects/restaurantItem/RestaurantItem.html]] {
            #restaurantItemID: int
            #restaurantItemName: String
            #restaurantItemPrice: double
            +RestaurantItem(restaurantItemID:int, restaurantItemName:String, restaurantItemPrice:double)
            +RestaurantItem(csv:String[])
            +toCsv(): String[]
            +getId(): int
            +setId(restaurantItemID:int): void
            +getName(): String
            +setName(restaurantItemName:String): void
            +getPrice(): double
            +setPrice(restaurantItemPrice:double): void
        }

        RestaurantItem <|- - MenuItem

        interface sg.edu.ntu.scse.cz2002.util.ICsvSerializable {
            {abstract} +toCsv(): String[]
        }
        sg.edu.ntu.scse.cz2002.util.ICsvSerializable <|.. MenuItem

        MenuItem +- - sg.edu.ntu.scse.cz2002.objects.restaurantItem.MenuItem.MenuItemType

        RestaurantItem <|- - PromotionItem

        sg.edu.ntu.scse.cz2002.util.ICsvSerializable <|.. PromotionItem

        sg.edu.ntu.scse.cz2002.util.ICsvSerializable <|.. RestaurantItem

        MenuItem - -> sg.edu.ntu.scse.cz2002.objects.restaurantItem.MenuItem.MenuItemType: eType\ntype

    }


    center footer UMLDoclet 1.1.3, PlantUML 1.2018.12
@enduml

PlantUML version 1.2018.12(Sun Oct 21 10:15:15 GMT 2018)
(APACHE source distribution)
Java Runtime: Java(TM) SE Runtime Environment
JVM: Java HotSpot(TM) 64-Bit Server VM
Java Version: 1.8.0_202-b08
Operating System: Linux
OS Version: 4.19.23-coreos-r1
Default Encoding: UTF-8
Language: en
Country: null
--></g></svg>