<?xml version="1.0" encoding="UTF-8" standalone="no"?><svg xmlns="http://www.w3.org/2000/svg" xmlns:xlink="http://www.w3.org/1999/xlink" contentScriptType="application/ecmascript" contentStyleType="text/css" height="332px" preserveAspectRatio="none" style="width:274px;height:332px;" version="1.1" viewBox="0 0 274 332" width="274px" zoomAndPan="magnify"><defs><filter height="300%" id="fnlt0o6oecava" width="300%" x="-1" y="-1"><feGaussianBlur result="blurOut" stdDeviation="2.0"/><feColorMatrix in="blurOut" result="blurOut2" type="matrix" values="0 0 0 0 0 0 0 0 0 0 0 0 0 0 0 0 0 0 .4 0"/><feOffset dx="4.0" dy="4.0" in="blurOut2" result="blurOut3"/><feBlend in="SourceGraphic" in2="blurOut3" mode="normal"/></filter></defs><g><!--class MenuItem--><rect fill="#FEFECE" filter="url(#fnlt0o6oecava)" height="291.187" id="MenuItem" style="stroke: #A80036; stroke-width: 1.5;" width="257" x="6" y="8"/><ellipse cx="102.25" cy="24" fill="#ADD1B2" rx="11" ry="11" style="stroke: #A80036; stroke-width: 1.0;"/><path d="M106.0781,29.6563 Q104.2031,30.3125 102.3906,30.3125 Q99.7969,30.3125 98.2109,28.5313 Q96.625,26.75 96.625,23.8438 Q96.625,21.1563 98.0313,19.3906 Q98.8906,18.3125 100.0078,17.8594 Q101.125,17.4063 102.9063,17.4063 Q104.625,17.4063 106.0781,17.7656 L106.0781,19.75 Q104.2031,19.0469 102.9531,19.0469 Q101.2656,19.0469 100.2734,20.3672 Q99.2813,21.6875 99.2813,23.9219 Q99.2813,25.9688 100.3203,27.2656 Q101.3594,28.5625 103,28.5625 Q104.3906,28.5625 106.0781,27.7813 L106.0781,29.6563 Z "/><text fill="#000000" font-family="sans-serif" font-size="12" lengthAdjust="spacingAndGlyphs" textLength="56" x="122.75" y="28.4209">MenuItem</text><line style="stroke: #A80036; stroke-width: 1.5;" x1="7" x2="262" y1="40" y2="40"/><polygon fill="none" points="17,46.8997,21,50.8997,17,54.8997,13,50.8997" style="stroke: #B38D22; stroke-width: 1.0;"/><text fill="#000000" font-family="sans-serif" font-size="11" lengthAdjust="spacingAndGlyphs" textLength="30" x="26" y="54.4521">id: int</text><polygon fill="none" points="17,59.699,21,63.699,17,67.699,13,63.699" style="stroke: #B38D22; stroke-width: 1.0;"/><text fill="#000000" font-family="sans-serif" font-size="11" lengthAdjust="spacingAndGlyphs" textLength="67" x="26" y="67.2515">name: String</text><polygon fill="none" points="17,72.4983,21,76.4983,17,80.4983,13,76.4983" style="stroke: #B38D22; stroke-width: 1.0;"/><text fill="#000000" font-family="sans-serif" font-size="11" lengthAdjust="spacingAndGlyphs" textLength="61" x="26" y="80.0508">type: String</text><polygon fill="none" points="17,85.2976,21,89.2976,17,93.2976,13,89.2976" style="stroke: #B38D22; stroke-width: 1.0;"/><text fill="#000000" font-family="sans-serif" font-size="11" lengthAdjust="spacingAndGlyphs" textLength="99" x="26" y="92.8501">description: String</text><polygon fill="none" points="17,98.0969,21,102.0969,17,106.0969,13,102.0969" style="stroke: #B38D22; stroke-width: 1.0;"/><text fill="#000000" font-family="sans-serif" font-size="11" lengthAdjust="spacingAndGlyphs" textLength="70" x="26" y="105.6494">price: double</text><line style="stroke: #A80036; stroke-width: 1.5;" x1="7" x2="262" y1="111.9966" y2="111.9966"/><ellipse cx="17" cy="123.8962" fill="#84BE84" rx="3" ry="3" style="stroke: #038048; stroke-width: 1.0;"/><text fill="#000000" font-family="sans-serif" font-size="11" lengthAdjust="spacingAndGlyphs" textLength="60" x="26" y="126.4487">MenuItem()</text><ellipse cx="17" cy="136.6956" fill="#84BE84" rx="3" ry="3" style="stroke: #038048; stroke-width: 1.0;"/><text fill="#000000" font-family="sans-serif" font-size="11" lengthAdjust="spacingAndGlyphs" textLength="231" x="26" y="139.248">MenuItem(int, String, String, String, double)</text><ellipse cx="17" cy="149.4949" fill="#84BE84" rx="3" ry="3" style="stroke: #038048; stroke-width: 1.0;"/><text fill="#000000" font-family="sans-serif" font-size="11" lengthAdjust="spacingAndGlyphs" textLength="100" x="26" y="152.0474">MenuItem(String[])</text><ellipse cx="17" cy="162.2942" fill="#84BE84" rx="3" ry="3" style="stroke: #038048; stroke-width: 1.0;"/><text fill="#000000" font-family="sans-serif" font-size="11" lengthAdjust="spacingAndGlyphs" textLength="85" x="26" y="164.8467">toCsv(): String[]</text><ellipse cx="17" cy="175.0935" fill="#84BE84" rx="3" ry="3" style="stroke: #038048; stroke-width: 1.0;"/><text fill="#000000" font-family="sans-serif" font-size="11" lengthAdjust="spacingAndGlyphs" textLength="55" x="26" y="177.646">getId(): int</text><ellipse cx="17" cy="187.8928" fill="#84BE84" rx="3" ry="3" style="stroke: #038048; stroke-width: 1.0;"/><text fill="#000000" font-family="sans-serif" font-size="11" lengthAdjust="spacingAndGlyphs" textLength="77" x="26" y="190.4453">setId(int): void</text><ellipse cx="17" cy="200.6921" fill="#84BE84" rx="3" ry="3" style="stroke: #038048; stroke-width: 1.0;"/><text fill="#000000" font-family="sans-serif" font-size="11" lengthAdjust="spacingAndGlyphs" textLength="93" x="26" y="203.2446">getName(): String</text><ellipse cx="17" cy="213.4915" fill="#84BE84" rx="3" ry="3" style="stroke: #038048; stroke-width: 1.0;"/><text fill="#000000" font-family="sans-serif" font-size="11" lengthAdjust="spacingAndGlyphs" textLength="115" x="26" y="216.0439">setName(String): void</text><ellipse cx="17" cy="226.2908" fill="#84BE84" rx="3" ry="3" style="stroke: #038048; stroke-width: 1.0;"/><text fill="#000000" font-family="sans-serif" font-size="11" lengthAdjust="spacingAndGlyphs" textLength="89" x="26" y="228.8433">getType(): String</text><ellipse cx="17" cy="239.0901" fill="#84BE84" rx="3" ry="3" style="stroke: #038048; stroke-width: 1.0;"/><text fill="#000000" font-family="sans-serif" font-size="11" lengthAdjust="spacingAndGlyphs" textLength="111" x="26" y="241.6426">setType(String): void</text><ellipse cx="17" cy="251.8894" fill="#84BE84" rx="3" ry="3" style="stroke: #038048; stroke-width: 1.0;"/><text fill="#000000" font-family="sans-serif" font-size="11" lengthAdjust="spacingAndGlyphs" textLength="125" x="26" y="254.4419">getDescription(): String</text><ellipse cx="17" cy="264.6887" fill="#84BE84" rx="3" ry="3" style="stroke: #038048; stroke-width: 1.0;"/><text fill="#000000" font-family="sans-serif" font-size="11" lengthAdjust="spacingAndGlyphs" textLength="147" x="26" y="267.2412">setDescription(String): void</text><ellipse cx="17" cy="277.488" fill="#84BE84" rx="3" ry="3" style="stroke: #038048; stroke-width: 1.0;"/><text fill="#000000" font-family="sans-serif" font-size="11" lengthAdjust="spacingAndGlyphs" textLength="94" x="26" y="280.0405">getPrice(): double</text><ellipse cx="17" cy="290.2874" fill="#84BE84" rx="3" ry="3" style="stroke: #038048; stroke-width: 1.0;"/><text fill="#000000" font-family="sans-serif" font-size="11" lengthAdjust="spacingAndGlyphs" textLength="116" x="26" y="292.8398">setPrice(double): void</text><text fill="#888888" font-family="sans-serif" font-size="10" lengthAdjust="spacingAndGlyphs" textLength="182" x="49.5" y="318.502">UMLDoclet 1.1.3, PlantUML 1.2018.12</text><!--
@startuml

    class MenuItem {
        #id: int
        #name: String
        #type: String
        #description: String
        #price: double
        +MenuItem()
        +MenuItem(int, String, String, String, double)
        +MenuItem(String[])
        +toCsv(): String[]
        +getId(): int
        +setId(int): void
        +getName(): String
        +setName(String): void
        +getType(): String
        +setType(String): void
        +getDescription(): String
        +setDescription(String): void
        +getPrice(): double
        +setPrice(double): void
    }


    center footer UMLDoclet 1.1.3, PlantUML 1.2018.12
@enduml

PlantUML version 1.2018.12(Sun Oct 21 10:15:15 GMT 2018)
(APACHE source distribution)
Java Runtime: Java(TM) SE Runtime Environment
JVM: Java HotSpot(TM) 64-Bit Server VM
Java Version: 1.8.0_202-b08
Operating System: Linux
OS Version: 4.19.23-coreos-r1
Default Encoding: UTF-8
Language: en
Country: null
--></g></svg>