<?xml version="1.0" encoding="UTF-8" standalone="no"?><svg xmlns="http://www.w3.org/2000/svg" xmlns:xlink="http://www.w3.org/1999/xlink" contentScriptType="application/ecmascript" contentStyleType="text/css" height="102px" preserveAspectRatio="none" style="width:198px;height:102px;" version="1.1" viewBox="0 0 198 102" width="198px" zoomAndPan="magnify"><defs><filter height="300%" id="fm5rsnjqw3xy5" width="300%" x="-1" y="-1"><feGaussianBlur result="blurOut" stdDeviation="2.0"/><feColorMatrix in="blurOut" result="blurOut2" type="matrix" values="0 0 0 0 0 0 0 0 0 0 0 0 0 0 0 0 0 0 .4 0"/><feOffset dx="4.0" dy="4.0" in="blurOut2" result="blurOut3"/><feBlend in="SourceGraphic" in2="blurOut3" mode="normal"/></filter></defs><g><!--class ReservationMenuUI--><rect fill="#FEFECE" filter="url(#fm5rsnjqw3xy5)" height="60.7993" id="ReservationMenuUI" style="stroke: #A80036; stroke-width: 1.5;" width="166" x="6" y="8"/><ellipse cx="32.25" cy="24" fill="#ADD1B2" rx="11" ry="11" style="stroke: #A80036; stroke-width: 1.0;"/><path d="M36.0781,29.6563 Q34.2031,30.3125 32.3906,30.3125 Q29.7969,30.3125 28.2109,28.5313 Q26.625,26.75 26.625,23.8438 Q26.625,21.1563 28.0313,19.3906 Q28.8906,18.3125 30.0078,17.8594 Q31.125,17.4063 32.9063,17.4063 Q34.625,17.4063 36.0781,17.7656 L36.0781,19.75 Q34.2031,19.0469 32.9531,19.0469 Q31.2656,19.0469 30.2734,20.3672 Q29.2813,21.6875 29.2813,23.9219 Q29.2813,25.9688 30.3203,27.2656 Q31.3594,28.5625 33,28.5625 Q34.3906,28.5625 36.0781,27.7813 L36.0781,29.6563 Z "/><text fill="#000000" font-family="sans-serif" font-size="12" lengthAdjust="spacingAndGlyphs" textLength="109" x="48.75" y="28.4209">ReservationMenuUI</text><line style="stroke: #A80036; stroke-width: 1.5;" x1="7" x2="171" y1="40" y2="40"/><line style="stroke: #A80036; stroke-width: 1.5;" x1="7" x2="171" y1="48" y2="48"/><polygon fill="#FFFF44" points="17,54.8997,21,58.8997,17,62.8997,13,58.8997" style="stroke: #B38D22; stroke-width: 1.0;"/><text fill="#000000" font-family="sans-serif" font-size="11" lengthAdjust="spacingAndGlyphs" textLength="140" x="26" y="62.4521">generateMenuScreen(): int</text><text fill="#888888" font-family="sans-serif" font-size="10" lengthAdjust="spacingAndGlyphs" textLength="182" x="4" y="88.502">UMLDoclet 1.1.3, PlantUML 1.2018.12</text><!--
@startuml

    class ReservationMenuUI {
        #generateMenuScreen(): int
    }


    center footer UMLDoclet 1.1.3, PlantUML 1.2018.12
@enduml

PlantUML version 1.2018.12(Sun Oct 21 10:15:15 GMT 2018)
(APACHE source distribution)
Java Runtime: Java(TM) SE Runtime Environment
JVM: Java HotSpot(TM) 64-Bit Server VM
Java Version: 1.8.0_202-b08
Operating System: Linux
OS Version: 4.19.23-coreos-r1
Default Encoding: UTF-8
Language: en
Country: null
--></g></svg>