<?xml version="1.0" encoding="UTF-8" standalone="no"?><svg xmlns="http://www.w3.org/2000/svg" xmlns:xlink="http://www.w3.org/1999/xlink" contentScriptType="application/ecmascript" contentStyleType="text/css" height="153px" preserveAspectRatio="none" style="width:340px;height:153px;" version="1.1" viewBox="0 0 340 153" width="340px" zoomAndPan="magnify"><defs><filter height="300%" id="f7h6wihsqrg3o" width="300%" x="-1" y="-1"><feGaussianBlur result="blurOut" stdDeviation="2.0"/><feColorMatrix in="blurOut" result="blurOut2" type="matrix" values="0 0 0 0 0 0 0 0 0 0 0 0 0 0 0 0 0 0 .4 0"/><feOffset dx="4.0" dy="4.0" in="blurOut2" result="blurOut3"/><feBlend in="SourceGraphic" in2="blurOut3" mode="normal"/></filter></defs><g><!--class ReservationCSVHelper--><a target="_top" xlink:actuate="onRequest" xlink:href="../sg/edu/ntu/scse/cz2002/util/ReservationCSVHelper.html" xlink:show="new" xlink:title="../sg/edu/ntu/scse/cz2002/util/ReservationCSVHelper.html" xlink:type="simple"><rect fill="#FEFECE" filter="url(#f7h6wihsqrg3o)" height="111.9966" id="ReservationCSVHelper" style="stroke: #A80036; stroke-width: 1.5;" width="323" x="6" y="8"/><ellipse cx="99.25" cy="24" fill="#ADD1B2" rx="11" ry="11" style="stroke: #A80036; stroke-width: 1.0;"/><path d="M103.0781,29.6563 Q101.2031,30.3125 99.3906,30.3125 Q96.7969,30.3125 95.2109,28.5313 Q93.625,26.75 93.625,23.8438 Q93.625,21.1563 95.0313,19.3906 Q95.8906,18.3125 97.0078,17.8594 Q98.125,17.4063 99.9063,17.4063 Q101.625,17.4063 103.0781,17.7656 L103.0781,19.75 Q101.2031,19.0469 99.9531,19.0469 Q98.2656,19.0469 97.2734,20.3672 Q96.2813,21.6875 96.2813,23.9219 Q96.2813,25.9688 97.3203,27.2656 Q98.3594,28.5625 100,28.5625 Q101.3906,28.5625 103.0781,27.7813 L103.0781,29.6563 Z "/><text fill="#000000" font-family="sans-serif" font-size="12" lengthAdjust="spacingAndGlyphs" textLength="128" x="119.75" y="28.4209">ReservationCSVHelper</text><line style="stroke: #A80036; stroke-width: 1.5;" x1="7" x2="328" y1="40" y2="40"/><rect fill="none" height="6" style="stroke: #C82930; stroke-width: 1.0;" width="6" x="14" y="48.8997"/><text fill="#000000" font-family="sans-serif" font-size="11" lengthAdjust="spacingAndGlyphs" text-decoration="underline" textLength="180" x="26" y="54.4521">mInstance: ReservationCSVHelper</text><line style="stroke: #000000; stroke-width: 1.0;" x1="26" x2="206" y1="56.4521" y2="56.4521"/><rect fill="none" height="6" style="stroke: #C82930; stroke-width: 1.0;" width="6" x="14" y="61.699"/><text fill="#000000" font-family="sans-serif" font-size="11" lengthAdjust="spacingAndGlyphs" textLength="119" x="26" y="67.2515">reservationCsv: String</text><line style="stroke: #A80036; stroke-width: 1.5;" x1="7" x2="328" y1="73.5986" y2="73.5986"/><ellipse cx="17" cy="85.4983" fill="#84BE84" rx="3" ry="3" style="stroke: #038048; stroke-width: 1.0;"/><text fill="#000000" font-family="sans-serif" font-size="11" lengthAdjust="spacingAndGlyphs" text-decoration="underline" textLength="195" x="26" y="88.0508">getInstance(): ReservationCSVHelper</text><line style="stroke: #000000; stroke-width: 1.0;" x1="26" x2="221" y1="90.0508" y2="90.0508"/><ellipse cx="17" cy="98.2976" fill="#84BE84" rx="3" ry="3" style="stroke: #038048; stroke-width: 1.0;"/><text fill="#000000" font-family="sans-serif" font-size="11" lengthAdjust="spacingAndGlyphs" textLength="216" x="26" y="100.8501">readFromCsv(): ArrayList&lt;Reservation&gt;</text><ellipse cx="17" cy="111.0969" fill="#84BE84" rx="3" ry="3" style="stroke: #038048; stroke-width: 1.0;"/><text fill="#000000" font-family="sans-serif" font-size="11" lengthAdjust="spacingAndGlyphs" textLength="297" x="26" y="113.6494">writeToCsv(reservations:ArrayList&lt;Reservation&gt;): void</text></a><text fill="#888888" font-family="sans-serif" font-size="10" lengthAdjust="spacingAndGlyphs" textLength="182" x="82.5" y="139.502">UMLDoclet 1.1.3, PlantUML 1.2018.12</text><!--
@startuml

    class ReservationCSVHelper [[../sg/edu/ntu/scse/cz2002/util/ReservationCSVHelper.html]] {
        {static} -mInstance: ReservationCSVHelper
        -reservationCsv: String
        {static} +getInstance(): ReservationCSVHelper
        +readFromCsv(): ArrayList<Reservation>
        +writeToCsv(reservations:ArrayList<Reservation>): void
    }


    center footer UMLDoclet 1.1.3, PlantUML 1.2018.12
@enduml

PlantUML version 1.2018.12(Sun Oct 21 10:15:15 GMT 2018)
(APACHE source distribution)
Java Runtime: Java(TM) SE Runtime Environment
JVM: Java HotSpot(TM) 64-Bit Server VM
Java Version: 1.8.0_202-b08
Operating System: Linux
OS Version: 4.19.23-coreos-r1
Default Encoding: UTF-8
Language: en
Country: null
--></g></svg>