<?xml version="1.0" encoding="UTF-8" standalone="no"?><svg xmlns="http://www.w3.org/2000/svg" xmlns:xlink="http://www.w3.org/1999/xlink" contentScriptType="application/ecmascript" contentStyleType="text/css" height="191px" preserveAspectRatio="none" style="width:645px;height:191px;" version="1.1" viewBox="0 0 645 191" width="645px" zoomAndPan="magnify"><defs><filter height="300%" id="fbom894f1cfgj" width="300%" x="-1" y="-1"><feGaussianBlur result="blurOut" stdDeviation="2.0"/><feColorMatrix in="blurOut" result="blurOut2" type="matrix" values="0 0 0 0 0 0 0 0 0 0 0 0 0 0 0 0 0 0 .4 0"/><feOffset dx="4.0" dy="4.0" in="blurOut2" result="blurOut3"/><feBlend in="SourceGraphic" in2="blurOut3" mode="normal"/></filter></defs><g><!--class PromotionMenuUI--><a target="_top" xlink:actuate="onRequest" xlink:href="../sg/edu/ntu/scse/cz2002/ui/PromotionMenuUI.html" xlink:show="new" xlink:title="../sg/edu/ntu/scse/cz2002/ui/PromotionMenuUI.html" xlink:type="simple"><rect fill="#FEFECE" filter="url(#fbom894f1cfgj)" height="150.3945" id="PromotionMenuUI" style="stroke: #A80036; stroke-width: 1.5;" width="628" x="6" y="8"/><ellipse cx="265.75" cy="24" fill="#ADD1B2" rx="11" ry="11" style="stroke: #A80036; stroke-width: 1.0;"/><path d="M269.5781,29.6563 Q267.7031,30.3125 265.8906,30.3125 Q263.2969,30.3125 261.7109,28.5313 Q260.125,26.75 260.125,23.8438 Q260.125,21.1563 261.5313,19.3906 Q262.3906,18.3125 263.5078,17.8594 Q264.625,17.4063 266.4063,17.4063 Q268.125,17.4063 269.5781,17.7656 L269.5781,19.75 Q267.7031,19.0469 266.4531,19.0469 Q264.7656,19.0469 263.7734,20.3672 Q262.7813,21.6875 262.7813,23.9219 Q262.7813,25.9688 263.8203,27.2656 Q264.8594,28.5625 266.5,28.5625 Q267.8906,28.5625 269.5781,27.7813 L269.5781,29.6563 Z "/><text fill="#000000" font-family="sans-serif" font-size="12" lengthAdjust="spacingAndGlyphs" textLength="100" x="286.25" y="28.4209">PromotionMenuUI</text><line style="stroke: #A80036; stroke-width: 1.5;" x1="7" x2="633" y1="40" y2="40"/><rect fill="none" height="6" style="stroke: #C82930; stroke-width: 1.0;" width="6" x="14" y="48.8997"/><text fill="#000000" font-family="sans-serif" font-size="11" lengthAdjust="spacingAndGlyphs" textLength="61" x="26" y="54.4521">sc: Scanner</text><line style="stroke: #A80036; stroke-width: 1.5;" x1="7" x2="633" y1="60.7993" y2="60.7993"/><polygon fill="#FFFF44" points="17,67.699,21,71.699,17,75.699,13,71.699" style="stroke: #B38D22; stroke-width: 1.0;"/><text fill="#000000" font-family="sans-serif" font-size="11" lengthAdjust="spacingAndGlyphs" textLength="140" x="26" y="75.2515">generateMenuScreen(): int</text><ellipse cx="17" cy="85.4983" fill="#84BE84" rx="3" ry="3" style="stroke: #038048; stroke-width: 1.0;"/><text fill="#000000" font-family="sans-serif" font-size="11" lengthAdjust="spacingAndGlyphs" textLength="119" x="26" y="88.0508">printPromotion(): void</text><ellipse cx="17" cy="98.2976" fill="#84BE84" rx="3" ry="3" style="stroke: #038048; stroke-width: 1.0;"/><text fill="#000000" font-family="sans-serif" font-size="11" lengthAdjust="spacingAndGlyphs" textLength="135" x="26" y="100.8501">addNewPromotion(): void</text><ellipse cx="17" cy="111.0969" fill="#84BE84" rx="3" ry="3" style="stroke: #038048; stroke-width: 1.0;"/><text fill="#000000" font-family="sans-serif" font-size="11" lengthAdjust="spacingAndGlyphs" textLength="113" x="26" y="113.6494">editPromotion(): void</text><ellipse cx="17" cy="123.8962" fill="#84BE84" rx="3" ry="3" style="stroke: #038048; stroke-width: 1.0;"/><text fill="#000000" font-family="sans-serif" font-size="11" lengthAdjust="spacingAndGlyphs" textLength="125" x="26" y="126.4487">deletePromotion(): void</text><ellipse cx="17" cy="136.6956" fill="#84BE84" rx="3" ry="3" style="stroke: #038048; stroke-width: 1.0;"/><text fill="#000000" font-family="sans-serif" font-size="11" lengthAdjust="spacingAndGlyphs" text-decoration="underline" textLength="285" x="26" y="139.248">retrievePromotion(targetPromoID:int): PromotionItem</text><line style="stroke: #000000; stroke-width: 1.0;" x1="26" x2="311" y1="141.248" y2="141.248"/><ellipse cx="17" cy="149.4949" fill="#84BE84" rx="3" ry="3" style="stroke: #038048; stroke-width: 1.0;"/><text fill="#000000" font-family="sans-serif" font-size="11" lengthAdjust="spacingAndGlyphs" textLength="602" x="26" y="152.0474">menuTypeChecker(menuArrayList:ArrayList&lt;MenuItem&gt;, newPromoItemType:int, textParameter:String): boolean</text></a><text fill="#888888" font-family="sans-serif" font-size="10" lengthAdjust="spacingAndGlyphs" textLength="182" x="235" y="177.502">UMLDoclet 1.1.3, PlantUML 1.2018.12</text><!--
@startuml

    class PromotionMenuUI [[../sg/edu/ntu/scse/cz2002/ui/PromotionMenuUI.html]] {
        -sc: Scanner
        #generateMenuScreen(): int
        +printPromotion(): void
        +addNewPromotion(): void
        +editPromotion(): void
        +deletePromotion(): void
        {static} +retrievePromotion(targetPromoID:int): PromotionItem
        +menuTypeChecker(menuArrayList:ArrayList<MenuItem>, newPromoItemType:int, textParameter:String): boolean
    }


    center footer UMLDoclet 1.1.3, PlantUML 1.2018.12
@enduml

PlantUML version 1.2018.12(Sun Oct 21 10:15:15 GMT 2018)
(APACHE source distribution)
Java Runtime: Java(TM) SE Runtime Environment
JVM: Java HotSpot(TM) 64-Bit Server VM
Java Version: 1.8.0_202-b08
Operating System: Linux
OS Version: 4.19.23-coreos-r1
Default Encoding: UTF-8
Language: en
Country: null
--></g></svg>