<?xml version="1.0" encoding="UTF-8" standalone="no"?><svg xmlns="http://www.w3.org/2000/svg" xmlns:xlink="http://www.w3.org/1999/xlink" contentScriptType="application/ecmascript" contentStyleType="text/css" height="115px" preserveAspectRatio="none" style="width:318px;height:115px;" version="1.1" viewBox="0 0 318 115" width="318px" zoomAndPan="magnify"><defs><filter height="300%" id="f1c69tz4ve67dd" width="300%" x="-1" y="-1"><feGaussianBlur result="blurOut" stdDeviation="2.0"/><feColorMatrix in="blurOut" result="blurOut2" type="matrix" values="0 0 0 0 0 0 0 0 0 0 0 0 0 0 0 0 0 0 .4 0"/><feOffset dx="4.0" dy="4.0" in="blurOut2" result="blurOut3"/><feBlend in="SourceGraphic" in2="blurOut3" mode="normal"/></filter></defs><g><!--class CSVBaseHelper--><rect fill="#FEFECE" filter="url(#f1c69tz4ve67dd)" height="73.5986" id="CSVBaseHelper" style="stroke: #A80036; stroke-width: 1.5;" width="301" x="6" y="8"/><ellipse cx="108.25" cy="24" fill="#ADD1B2" rx="11" ry="11" style="stroke: #A80036; stroke-width: 1.0;"/><path d="M112.0781,29.6563 Q110.2031,30.3125 108.3906,30.3125 Q105.7969,30.3125 104.2109,28.5313 Q102.625,26.75 102.625,23.8438 Q102.625,21.1563 104.0313,19.3906 Q104.8906,18.3125 106.0078,17.8594 Q107.125,17.4063 108.9063,17.4063 Q110.625,17.4063 112.0781,17.7656 L112.0781,19.75 Q110.2031,19.0469 108.9531,19.0469 Q107.2656,19.0469 106.2734,20.3672 Q105.2813,21.6875 105.2813,23.9219 Q105.2813,25.9688 106.3203,27.2656 Q107.3594,28.5625 109,28.5625 Q110.3906,28.5625 112.0781,27.7813 L112.0781,29.6563 Z "/><text fill="#000000" font-family="sans-serif" font-size="12" lengthAdjust="spacingAndGlyphs" textLength="88" x="128.75" y="28.4209">CSVBaseHelper</text><line style="stroke: #A80036; stroke-width: 1.5;" x1="7" x2="306" y1="40" y2="40"/><line style="stroke: #A80036; stroke-width: 1.5;" x1="7" x2="306" y1="48" y2="48"/><polygon fill="#FFFF44" points="17,54.8997,21,58.8997,17,62.8997,13,58.8997" style="stroke: #B38D22; stroke-width: 1.0;"/><text fill="#000000" font-family="sans-serif" font-size="11" lengthAdjust="spacingAndGlyphs" textLength="231" x="26" y="62.4521">readAll(BufferedReader, int): List&lt;String[]&gt;</text><polygon fill="#FFFF44" points="17,67.699,21,71.699,17,75.699,13,71.699" style="stroke: #B38D22; stroke-width: 1.0;"/><text fill="#000000" font-family="sans-serif" font-size="11" lengthAdjust="spacingAndGlyphs" textLength="275" x="26" y="75.2515">writeToCsvFile(List&lt;String[]&gt;, BufferedWriter): void</text><text fill="#888888" font-family="sans-serif" font-size="10" lengthAdjust="spacingAndGlyphs" textLength="182" x="71.5" y="101.502">UMLDoclet 1.1.3, PlantUML 1.2018.12</text><!--
@startuml

    class CSVBaseHelper {
        #readAll(BufferedReader, int): List<String[]>
        #writeToCsvFile(List<String[]>, BufferedWriter): void
    }


    center footer UMLDoclet 1.1.3, PlantUML 1.2018.12
@enduml

PlantUML version 1.2018.12(Sun Oct 21 10:15:15 GMT 2018)
(APACHE source distribution)
Java Runtime: Java(TM) SE Runtime Environment
JVM: Java HotSpot(TM) 64-Bit Server VM
Java Version: 1.8.0_202-b08
Operating System: Linux
OS Version: 4.19.23-coreos-r1
Default Encoding: UTF-8
Language: en
Country: null
--></g></svg>