<?xml version="1.0" encoding="UTF-8" standalone="no"?><svg xmlns="http://www.w3.org/2000/svg" xmlns:xlink="http://www.w3.org/1999/xlink" contentScriptType="application/ecmascript" contentStyleType="text/css" height="1011px" preserveAspectRatio="none" style="width:1155px;height:1011px;" version="1.1" viewBox="0 0 1155 1011" width="1155px" zoomAndPan="magnify"><defs><filter height="300%" id="f14vrz788eyxp7" width="300%" x="-1" y="-1"><feGaussianBlur result="blurOut" stdDeviation="2.0"/><feColorMatrix in="blurOut" result="blurOut2" type="matrix" values="0 0 0 0 0 0 0 0 0 0 0 0 0 0 0 0 0 0 .4 0"/><feOffset dx="4.0" dy="4.0" in="blurOut2" result="blurOut3"/><feBlend in="SourceGraphic" in2="blurOut3" mode="normal"/></filter></defs><g><!--cluster sg.edu.ntu.scse.cz2002.objects.restaurantItem--><polygon fill="#FFFFFF" filter="url(#f14vrz788eyxp7)" points="14,143,346,143,353,165.29,1133,165.29,1133,970,14,970,14,143" style="stroke: #000000; stroke-width: 1.5;"/><line style="stroke: #000000; stroke-width: 1.5;" x1="14" x2="353" y1="165.29" y2="165.29"/><text fill="#000000" font-family="sans-serif" font-size="14" font-weight="bold" lengthAdjust="spacingAndGlyphs" textLength="326" x="18" y="158.3369">sg.edu.ntu.scse.cz2002.objects.restaurantItem</text><!--cluster sg.edu.ntu.scse.cz2002.util--><polygon fill="#FFFFFF" filter="url(#f14vrz788eyxp7)" points="558,16,753,16,760,38.29,763,38.29,763,112,558,112,558,16" style="stroke: #000000; stroke-width: 1.5;"/><line style="stroke: #000000; stroke-width: 1.5;" x1="558" x2="760" y1="38.29" y2="38.29"/><text fill="#000000" font-family="sans-serif" font-size="14" font-weight="bold" lengthAdjust="spacingAndGlyphs" textLength="189" x="562" y="31.3369">sg.edu.ntu.scse.cz2002.util</text><!--class sg.edu.ntu.scse.cz2002.objects.restaurantItem.MenuItem--><a target="_top" xlink:actuate="onRequest" xlink:href="../sg/edu/ntu/scse/cz2002/objects/restaurantItem/MenuItem.html" xlink:show="new" xlink:title="../sg/edu/ntu/scse/cz2002/objects/restaurantItem/MenuItem.html" xlink:type="simple"><rect fill="#FEFECE" filter="url(#f14vrz788eyxp7)" height="163.1938" id="sg.edu.ntu.scse.cz2002.objects.restaurantItem.MenuItem" style="stroke: #A80036; stroke-width: 1.5;" width="404" x="22" y="520.5"/><ellipse cx="191.75" cy="536.5" fill="#ADD1B2" rx="11" ry="11" style="stroke: #A80036; stroke-width: 1.0;"/><path d="M195.5781,542.1563 Q193.7031,542.8125 191.8906,542.8125 Q189.2969,542.8125 187.7109,541.0313 Q186.125,539.25 186.125,536.3438 Q186.125,533.6563 187.5313,531.8906 Q188.3906,530.8125 189.5078,530.3594 Q190.625,529.9063 192.4063,529.9063 Q194.125,529.9063 195.5781,530.2656 L195.5781,532.25 Q193.7031,531.5469 192.4531,531.5469 Q190.7656,531.5469 189.7734,532.8672 Q188.7813,534.1875 188.7813,536.4219 Q188.7813,538.4688 189.8203,539.7656 Q190.8594,541.0625 192.5,541.0625 Q193.8906,541.0625 195.5781,540.2813 L195.5781,542.1563 Z "/><text fill="#000000" font-family="sans-serif" font-size="12" lengthAdjust="spacingAndGlyphs" textLength="56" x="212.25" y="540.9209">MenuItem</text><line style="stroke: #A80036; stroke-width: 1.5;" x1="23" x2="425" y1="552.5" y2="552.5"/><polygon fill="none" points="33,559.3997,37,563.3997,33,567.3997,29,563.3997" style="stroke: #B38D22; stroke-width: 1.0;"/><text fill="#000000" font-family="sans-serif" font-size="11" lengthAdjust="spacingAndGlyphs" textLength="99" x="42" y="566.9521">description: String</text><line style="stroke: #A80036; stroke-width: 1.5;" x1="23" x2="425" y1="573.2993" y2="573.2993"/><ellipse cx="33" cy="585.199" fill="#84BE84" rx="3" ry="3" style="stroke: #038048; stroke-width: 1.0;"/><text fill="#000000" font-family="sans-serif" font-size="11" lengthAdjust="spacingAndGlyphs" textLength="378" x="42" y="587.7515">MenuItem(id:int, name:String, type:int, description:String, price:double)</text><ellipse cx="33" cy="597.9983" fill="#84BE84" rx="3" ry="3" style="stroke: #038048; stroke-width: 1.0;"/><text fill="#000000" font-family="sans-serif" font-size="11" lengthAdjust="spacingAndGlyphs" textLength="121" x="42" y="600.5508">MenuItem(csv:String[])</text><ellipse cx="33" cy="610.7976" fill="#84BE84" rx="3" ry="3" style="stroke: #038048; stroke-width: 1.0;"/><text fill="#000000" font-family="sans-serif" font-size="11" lengthAdjust="spacingAndGlyphs" textLength="85" x="42" y="613.3501">toCsv(): String[]</text><ellipse cx="33" cy="623.5969" fill="#84BE84" rx="3" ry="3" style="stroke: #038048; stroke-width: 1.0;"/><text fill="#000000" font-family="sans-serif" font-size="11" lengthAdjust="spacingAndGlyphs" textLength="119" x="42" y="626.1494">setType(type:int): void</text><ellipse cx="33" cy="636.3962" fill="#84BE84" rx="3" ry="3" style="stroke: #038048; stroke-width: 1.0;"/><text fill="#000000" font-family="sans-serif" font-size="11" lengthAdjust="spacingAndGlyphs" textLength="291" x="42" y="638.9487">convertToItemType(type:int): MenuItem.MenuItemType</text><ellipse cx="33" cy="649.1956" fill="#84BE84" rx="3" ry="3" style="stroke: #038048; stroke-width: 1.0;"/><text fill="#000000" font-family="sans-serif" font-size="11" lengthAdjust="spacingAndGlyphs" textLength="125" x="42" y="651.748">getDescription(): String</text><ellipse cx="33" cy="661.9949" fill="#84BE84" rx="3" ry="3" style="stroke: #038048; stroke-width: 1.0;"/><text fill="#000000" font-family="sans-serif" font-size="11" lengthAdjust="spacingAndGlyphs" textLength="211" x="42" y="664.5474">setDescription(description:String): void</text><ellipse cx="33" cy="674.7942" fill="#84BE84" rx="3" ry="3" style="stroke: #038048; stroke-width: 1.0;"/><text fill="#000000" font-family="sans-serif" font-size="11" lengthAdjust="spacingAndGlyphs" textLength="125" x="42" y="677.3467">printItemDetail(): String</text></a><!--class sg.edu.ntu.scse.cz2002.objects.restaurantItem.MenuItem.MenuItemType--><a target="_top" xlink:actuate="onRequest" xlink:href="../sg/edu/ntu/scse/cz2002/objects/restaurantItem/MenuItem.MenuItemType.html" xlink:show="new" xlink:title="../sg/edu/ntu/scse/cz2002/objects/restaurantItem/MenuItem.MenuItemType.html" xlink:type="simple"><rect fill="#FEFECE" filter="url(#f14vrz788eyxp7)" height="99.1973" id="sg.edu.ntu.scse.cz2002.objects.restaurantItem.MenuItem.MenuItemType" style="stroke: #A80036; stroke-width: 1.5;" width="177" x="135.5" y="863"/><ellipse cx="150.5" cy="879" fill="#EB937F" rx="11" ry="11" style="stroke: #A80036; stroke-width: 1.0;"/><path d="M146.8906,885 L146.8906,872.7188 L154.5781,872.7188 L154.5781,874.3438 L149.3594,874.3438 L149.3594,877.8281 L153.7656,877.8281 L153.7656,879.3594 L149.3594,879.3594 L149.3594,883.3594 L155.0156,883.3594 L155.0156,885 L146.8906,885 Z "/><text fill="#000000" font-family="sans-serif" font-size="12" lengthAdjust="spacingAndGlyphs" textLength="145" x="164.5" y="883.4209">MenuItem.MenuItemType</text><line style="stroke: #A80036; stroke-width: 1.5;" x1="136.5" x2="311.5" y1="895" y2="895"/><ellipse cx="146.5" cy="906.8997" fill="none" rx="3" ry="3" style="stroke: #038048; stroke-width: 1.0;"/><text fill="#000000" font-family="sans-serif" font-size="11" lengthAdjust="spacingAndGlyphs" text-decoration="underline" textLength="20" x="155.5" y="909.4521">ALL</text><line style="stroke: #000000; stroke-width: 1.0;" x1="155.5" x2="175.5" y1="911.4521" y2="911.4521"/><ellipse cx="146.5" cy="919.699" fill="none" rx="3" ry="3" style="stroke: #038048; stroke-width: 1.0;"/><text fill="#000000" font-family="sans-serif" font-size="11" lengthAdjust="spacingAndGlyphs" text-decoration="underline" textLength="28" x="155.5" y="922.2515">MAIN</text><line style="stroke: #000000; stroke-width: 1.0;" x1="155.5" x2="183.5" y1="924.2515" y2="924.2515"/><ellipse cx="146.5" cy="932.4983" fill="none" rx="3" ry="3" style="stroke: #038048; stroke-width: 1.0;"/><text fill="#000000" font-family="sans-serif" font-size="11" lengthAdjust="spacingAndGlyphs" text-decoration="underline" textLength="46" x="155.5" y="935.0508">DESSERT</text><line style="stroke: #000000; stroke-width: 1.0;" x1="155.5" x2="201.5" y1="937.0508" y2="937.0508"/><ellipse cx="146.5" cy="945.2976" fill="none" rx="3" ry="3" style="stroke: #038048; stroke-width: 1.0;"/><text fill="#000000" font-family="sans-serif" font-size="11" lengthAdjust="spacingAndGlyphs" text-decoration="underline" textLength="33" x="155.5" y="947.8501">DRINK</text><line style="stroke: #000000; stroke-width: 1.0;" x1="155.5" x2="188.5" y1="949.8501" y2="949.8501"/><line style="stroke: #A80036; stroke-width: 1.5;" x1="136.5" x2="311.5" y1="954.1973" y2="954.1973"/></a><!--class sg.edu.ntu.scse.cz2002.objects.restaurantItem.PromotionItem--><a target="_top" xlink:actuate="onRequest" xlink:href="../sg/edu/ntu/scse/cz2002/objects/restaurantItem/PromotionItem.html" xlink:show="new" xlink:title="../sg/edu/ntu/scse/cz2002/objects/restaurantItem/PromotionItem.html" xlink:type="simple"><rect fill="#FEFECE" filter="url(#f14vrz788eyxp7)" height="214.3911" id="sg.edu.ntu.scse.cz2002.objects.restaurantItem.PromotionItem" style="stroke: #A80036; stroke-width: 1.5;" width="664" x="461" y="495"/><ellipse cx="747.25" cy="511" fill="#ADD1B2" rx="11" ry="11" style="stroke: #A80036; stroke-width: 1.0;"/><path d="M751.0781,516.6563 Q749.2031,517.3125 747.3906,517.3125 Q744.7969,517.3125 743.2109,515.5313 Q741.625,513.75 741.625,510.8438 Q741.625,508.1563 743.0313,506.3906 Q743.8906,505.3125 745.0078,504.8594 Q746.125,504.4063 747.9063,504.4063 Q749.625,504.4063 751.0781,504.7656 L751.0781,506.75 Q749.2031,506.0469 747.9531,506.0469 Q746.2656,506.0469 745.2734,507.3672 Q744.2813,508.6875 744.2813,510.9219 Q744.2813,512.9688 745.3203,514.2656 Q746.3594,515.5625 748,515.5625 Q749.3906,515.5625 751.0781,514.7813 L751.0781,516.6563 Z "/><text fill="#000000" font-family="sans-serif" font-size="12" lengthAdjust="spacingAndGlyphs" textLength="83" x="767.75" y="515.4209">PromotionItem</text><line style="stroke: #A80036; stroke-width: 1.5;" x1="462" x2="1124" y1="527" y2="527"/><polygon fill="none" points="472,533.8997,476,537.8997,472,541.8997,468,537.8997" style="stroke: #B38D22; stroke-width: 1.0;"/><text fill="#000000" font-family="sans-serif" font-size="11" lengthAdjust="spacingAndGlyphs" textLength="81" x="481" y="541.4521">promoMain: int</text><polygon fill="none" points="472,546.699,476,550.699,472,554.699,468,550.699" style="stroke: #B38D22; stroke-width: 1.0;"/><text fill="#000000" font-family="sans-serif" font-size="11" lengthAdjust="spacingAndGlyphs" textLength="97" x="481" y="554.2515">promoDessert: int</text><polygon fill="none" points="472,559.4983,476,563.4983,472,567.4983,468,563.4983" style="stroke: #B38D22; stroke-width: 1.0;"/><text fill="#000000" font-family="sans-serif" font-size="11" lengthAdjust="spacingAndGlyphs" textLength="85" x="481" y="567.0508">promoDrink: int</text><line style="stroke: #A80036; stroke-width: 1.5;" x1="462" x2="1124" y1="573.3979" y2="573.3979"/><ellipse cx="472" cy="585.2976" fill="#84BE84" rx="3" ry="3" style="stroke: #038048; stroke-width: 1.0;"/><text fill="#000000" font-family="sans-serif" font-size="11" lengthAdjust="spacingAndGlyphs" textLength="638" x="481" y="587.8501">PromotionItem(promoID:int, promoName:String, promoPrice:double, promoMain:int, promoDessert:int, promoDrink:int)</text><ellipse cx="472" cy="598.0969" fill="#84BE84" rx="3" ry="3" style="stroke: #038048; stroke-width: 1.0;"/><text fill="#000000" font-family="sans-serif" font-size="11" lengthAdjust="spacingAndGlyphs" textLength="148" x="481" y="600.6494">PromotionItem(csv:String[])</text><ellipse cx="472" cy="610.8962" fill="#84BE84" rx="3" ry="3" style="stroke: #038048; stroke-width: 1.0;"/><text fill="#000000" font-family="sans-serif" font-size="11" lengthAdjust="spacingAndGlyphs" textLength="85" x="481" y="613.4487">toCsv(): String[]</text><ellipse cx="472" cy="623.6956" fill="#84BE84" rx="3" ry="3" style="stroke: #038048; stroke-width: 1.0;"/><text fill="#000000" font-family="sans-serif" font-size="11" lengthAdjust="spacingAndGlyphs" textLength="105" x="481" y="626.248">getPromoMain(): int</text><ellipse cx="472" cy="636.4949" fill="#84BE84" rx="3" ry="3" style="stroke: #038048; stroke-width: 1.0;"/><text fill="#000000" font-family="sans-serif" font-size="11" lengthAdjust="spacingAndGlyphs" textLength="191" x="481" y="639.0474">setPromoMain(promoMain:int): void</text><ellipse cx="472" cy="649.2942" fill="#84BE84" rx="3" ry="3" style="stroke: #038048; stroke-width: 1.0;"/><text fill="#000000" font-family="sans-serif" font-size="11" lengthAdjust="spacingAndGlyphs" textLength="121" x="481" y="651.8467">getPromoDessert(): int</text><ellipse cx="472" cy="662.0935" fill="#84BE84" rx="3" ry="3" style="stroke: #038048; stroke-width: 1.0;"/><text fill="#000000" font-family="sans-serif" font-size="11" lengthAdjust="spacingAndGlyphs" textLength="223" x="481" y="664.646">setPromoDessert(promoDessert:int): void</text><ellipse cx="472" cy="674.8928" fill="#84BE84" rx="3" ry="3" style="stroke: #038048; stroke-width: 1.0;"/><text fill="#000000" font-family="sans-serif" font-size="11" lengthAdjust="spacingAndGlyphs" textLength="109" x="481" y="677.4453">getPromoDrink(): int</text><ellipse cx="472" cy="687.6921" fill="#84BE84" rx="3" ry="3" style="stroke: #038048; stroke-width: 1.0;"/><text fill="#000000" font-family="sans-serif" font-size="11" lengthAdjust="spacingAndGlyphs" textLength="199" x="481" y="690.2446">setPromoDrink(promoDrink:int): void</text><ellipse cx="472" cy="700.4915" fill="#84BE84" rx="3" ry="3" style="stroke: #038048; stroke-width: 1.0;"/><text fill="#000000" font-family="sans-serif" font-size="11" lengthAdjust="spacingAndGlyphs" textLength="158" x="481" y="703.0439">printPromotionDetail(): String</text></a><!--class sg.edu.ntu.scse.cz2002.objects.restaurantItem.RestaurantItem--><a target="_top" xlink:actuate="onRequest" xlink:href="../sg/edu/ntu/scse/cz2002/objects/restaurantItem/RestaurantItem.html" xlink:show="new" xlink:title="../sg/edu/ntu/scse/cz2002/objects/restaurantItem/RestaurantItem.html" xlink:type="simple"><rect fill="#FEFECE" filter="url(#f14vrz788eyxp7)" height="201.5918" id="sg.edu.ntu.scse.cz2002.objects.restaurantItem.RestaurantItem" style="stroke: #A80036; stroke-width: 1.5;" width="523" x="83.5" y="170"/><ellipse cx="297.25" cy="186" fill="#ADD1B2" rx="11" ry="11" style="stroke: #A80036; stroke-width: 1.0;"/><path d="M301.0781,191.6563 Q299.2031,192.3125 297.3906,192.3125 Q294.7969,192.3125 293.2109,190.5313 Q291.625,188.75 291.625,185.8438 Q291.625,183.1563 293.0313,181.3906 Q293.8906,180.3125 295.0078,179.8594 Q296.125,179.4063 297.9063,179.4063 Q299.625,179.4063 301.0781,179.7656 L301.0781,181.75 Q299.2031,181.0469 297.9531,181.0469 Q296.2656,181.0469 295.2734,182.3672 Q294.2813,183.6875 294.2813,185.9219 Q294.2813,187.9688 295.3203,189.2656 Q296.3594,190.5625 298,190.5625 Q299.3906,190.5625 301.0781,189.7813 L301.0781,191.6563 Z "/><text fill="#000000" font-family="sans-serif" font-size="12" lengthAdjust="spacingAndGlyphs" textLength="87" x="317.75" y="190.4209">RestaurantItem</text><line style="stroke: #A80036; stroke-width: 1.5;" x1="84.5" x2="605.5" y1="202" y2="202"/><polygon fill="none" points="94.5,208.8997,98.5,212.8997,94.5,216.8997,90.5,212.8997" style="stroke: #B38D22; stroke-width: 1.0;"/><text fill="#000000" font-family="sans-serif" font-size="11" lengthAdjust="spacingAndGlyphs" textLength="110" x="103.5" y="216.4521">restaurantItemID: int</text><polygon fill="none" points="94.5,221.699,98.5,225.699,94.5,229.699,90.5,225.699" style="stroke: #B38D22; stroke-width: 1.0;"/><text fill="#000000" font-family="sans-serif" font-size="11" lengthAdjust="spacingAndGlyphs" textLength="147" x="103.5" y="229.2515">restaurantItemName: String</text><polygon fill="none" points="94.5,234.4983,98.5,238.4983,94.5,242.4983,90.5,238.4983" style="stroke: #B38D22; stroke-width: 1.0;"/><text fill="#000000" font-family="sans-serif" font-size="11" lengthAdjust="spacingAndGlyphs" textLength="148" x="103.5" y="242.0508">restaurantItemPrice: double</text><line style="stroke: #A80036; stroke-width: 1.5;" x1="84.5" x2="605.5" y1="248.3979" y2="248.3979"/><ellipse cx="94.5" cy="260.2976" fill="#84BE84" rx="3" ry="3" style="stroke: #038048; stroke-width: 1.0;"/><text fill="#000000" font-family="sans-serif" font-size="11" lengthAdjust="spacingAndGlyphs" textLength="497" x="103.5" y="262.8501">RestaurantItem(restaurantItemID:int, restaurantItemName:String, restaurantItemPrice:double)</text><ellipse cx="94.5" cy="273.0969" fill="#84BE84" rx="3" ry="3" style="stroke: #038048; stroke-width: 1.0;"/><text fill="#000000" font-family="sans-serif" font-size="11" lengthAdjust="spacingAndGlyphs" textLength="150" x="103.5" y="275.6494">RestaurantItem(csv:String[])</text><ellipse cx="94.5" cy="285.8962" fill="#84BE84" rx="3" ry="3" style="stroke: #038048; stroke-width: 1.0;"/><text fill="#000000" font-family="sans-serif" font-size="11" lengthAdjust="spacingAndGlyphs" textLength="85" x="103.5" y="288.4487">toCsv(): String[]</text><ellipse cx="94.5" cy="298.6956" fill="#84BE84" rx="3" ry="3" style="stroke: #038048; stroke-width: 1.0;"/><text fill="#000000" font-family="sans-serif" font-size="11" lengthAdjust="spacingAndGlyphs" textLength="55" x="103.5" y="301.248">getId(): int</text><ellipse cx="94.5" cy="311.4949" fill="#84BE84" rx="3" ry="3" style="stroke: #038048; stroke-width: 1.0;"/><text fill="#000000" font-family="sans-serif" font-size="11" lengthAdjust="spacingAndGlyphs" textLength="170" x="103.5" y="314.0474">setId(restaurantItemID:int): void</text><ellipse cx="94.5" cy="324.2942" fill="#84BE84" rx="3" ry="3" style="stroke: #038048; stroke-width: 1.0;"/><text fill="#000000" font-family="sans-serif" font-size="11" lengthAdjust="spacingAndGlyphs" textLength="93" x="103.5" y="326.8467">getName(): String</text><ellipse cx="94.5" cy="337.0935" fill="#84BE84" rx="3" ry="3" style="stroke: #038048; stroke-width: 1.0;"/><text fill="#000000" font-family="sans-serif" font-size="11" lengthAdjust="spacingAndGlyphs" textLength="227" x="103.5" y="339.646">setName(restaurantItemName:String): void</text><ellipse cx="94.5" cy="349.8928" fill="#84BE84" rx="3" ry="3" style="stroke: #038048; stroke-width: 1.0;"/><text fill="#000000" font-family="sans-serif" font-size="11" lengthAdjust="spacingAndGlyphs" textLength="94" x="103.5" y="352.4453">getPrice(): double</text><ellipse cx="94.5" cy="362.6921" fill="#84BE84" rx="3" ry="3" style="stroke: #038048; stroke-width: 1.0;"/><text fill="#000000" font-family="sans-serif" font-size="11" lengthAdjust="spacingAndGlyphs" textLength="224" x="103.5" y="365.2446">setPrice(restaurantItemPrice:double): void</text></a><!--class sg.edu.ntu.scse.cz2002.util.ICsvSerializable--><rect fill="#FEFECE" filter="url(#f14vrz788eyxp7)" height="60.7993" id="sg.edu.ntu.scse.cz2002.util.ICsvSerializable" style="stroke: #A80036; stroke-width: 1.5;" width="121" x="599.5" y="43"/><ellipse cx="614.5" cy="59" fill="#B4A7E5" rx="11" ry="11" style="stroke: #A80036; stroke-width: 1.0;"/><path d="M610.5156,65 L610.5156,63.3594 L613.3906,63.3594 L613.3906,54.3438 L610.5156,54.3438 L610.5156,52.7188 L618.7188,52.7188 L618.7188,54.3438 L615.8438,54.3438 L615.8438,63.3594 L618.7188,63.3594 L618.7188,65 L610.5156,65 Z "/><text fill="#000000" font-family="sans-serif" font-size="12" font-style="italic" lengthAdjust="spacingAndGlyphs" textLength="89" x="628.5" y="63.4209">ICsvSerializable</text><line style="stroke: #A80036; stroke-width: 1.5;" x1="600.5" x2="719.5" y1="75" y2="75"/><line style="stroke: #A80036; stroke-width: 1.5;" x1="600.5" x2="719.5" y1="83" y2="83"/><ellipse cx="610.5" cy="94.8997" fill="#84BE84" rx="3" ry="3" style="stroke: #038048; stroke-width: 1.0;"/><text fill="#000000" font-family="sans-serif" font-size="11" font-style="italic" lengthAdjust="spacingAndGlyphs" textLength="85" x="619.5" y="97.4521">toCsv(): String[]</text><!--link sg.edu.ntu.scse.cz2002.objects.restaurantItem.RestaurantItem to sg.edu.ntu.scse.cz2002.objects.restaurantItem.MenuItem--><path d="M301.0759,391.1561 C285.3828,434.085 268.0775,481.4245 253.847,520.3523 " fill="none" id="sg.edu.ntu.scse.cz2002.objects.restaurantItem.RestaurantItem-sg.edu.ntu.scse.cz2002.objects.restaurantItem.MenuItem" style="stroke: #A80036; stroke-width: 1.0;"/><polygon fill="none" points="294.5972,388.4903,308.0385,372.1095,307.7462,393.2971,294.5972,388.4903" style="stroke: #A80036; stroke-width: 1.0;"/><!--link sg.edu.ntu.scse.cz2002.util.ICsvSerializable to sg.edu.ntu.scse.cz2002.objects.restaurantItem.MenuItem--><path d="M666.8581,124.0059 C672.7553,187.3874 673.7043,296.8735 624,372 C608.2535,395.8003 486.0978,464.3694 380.8753,520.4925 " fill="none" id="sg.edu.ntu.scse.cz2002.util.ICsvSerializable-sg.edu.ntu.scse.cz2002.objects.restaurantItem.MenuItem" style="stroke: #A80036; stroke-width: 1.0; stroke-dasharray: 7.0,7.0;"/><polygon fill="none" points="659.8878,124.6571,664.6878,104.0183,673.806,123.1457,659.8878,124.6571" style="stroke: #A80036; stroke-width: 1.0;"/><!--link sg.edu.ntu.scse.cz2002.objects.restaurantItem.MenuItem to sg.edu.ntu.scse.cz2002.objects.restaurantItem.MenuItem.MenuItemType--><path d="M217.1512,698.9518 C215.6304,731.6799 214.7861,768.423 216,802 C216.7192,821.8944 218.1645,843.7642 219.6313,862.7603 " fill="none" id="sg.edu.ntu.scse.cz2002.objects.restaurantItem.MenuItem-sg.edu.ntu.scse.cz2002.objects.restaurantItem.MenuItem.MenuItemType" style="stroke: #A80036; stroke-width: 1.0;"/><ellipse cx="217.516" cy="691.7227" fill="#FFFFFF" rx="8" ry="8" style="stroke: #A80036; stroke-width: 1.0;"/><line style="stroke: #A80036; stroke-width: 1.0;" x1="217.1128" x2="217.9192" y1="699.7126" y2="683.7329"/><line style="stroke: #A80036; stroke-width: 1.0;" x1="209.5262" x2="225.5058" y1="691.3195" y2="692.1259"/><!--link sg.edu.ntu.scse.cz2002.objects.restaurantItem.MenuItem to sg.edu.ntu.scse.cz2002.objects.restaurantItem.MenuItem.MenuItemType--><path d="M225.5495,683.5175 C226.1775,727.7467 226.6241,783.3732 226,833 C225.8994,841.0028 225.7417,849.4577 225.5581,857.7495 " fill="none" id="sg.edu.ntu.scse.cz2002.objects.restaurantItem.MenuItem-sg.edu.ntu.scse.cz2002.objects.restaurantItem.MenuItem.MenuItemType" style="stroke: #A80036; stroke-width: 1.0;"/><polygon fill="#A80036" points="225.4407,862.8858,229.6454,853.9796,225.555,857.8871,221.6475,853.7967,225.4407,862.8858" style="stroke: #A80036; stroke-width: 1.0;"/><text fill="#000000" font-family="sans-serif" font-size="13" lengthAdjust="spacingAndGlyphs" textLength="37" x="227" y="783.3525">eType</text><text fill="#000000" font-family="sans-serif" font-size="13" lengthAdjust="spacingAndGlyphs" textLength="27" x="232" y="798.479">type</text><!--link sg.edu.ntu.scse.cz2002.objects.restaurantItem.RestaurantItem to sg.edu.ntu.scse.cz2002.objects.restaurantItem.PromotionItem--><path d="M498.1025,384.1181 C546.6336,419.9748 600.1151,459.4891 648.0548,494.9088 " fill="none" id="sg.edu.ntu.scse.cz2002.objects.restaurantItem.RestaurantItem-sg.edu.ntu.scse.cz2002.objects.restaurantItem.PromotionItem" style="stroke: #A80036; stroke-width: 1.0;"/><polygon fill="none" points="493.7751,389.6243,481.8491,372.1095,502.0945,378.3643,493.7751,389.6243" style="stroke: #A80036; stroke-width: 1.0;"/><!--link sg.edu.ntu.scse.cz2002.util.ICsvSerializable to sg.edu.ntu.scse.cz2002.objects.restaurantItem.PromotionItem--><path d="M682.0107,122.7034 C683.4408,126.4959 684.7901,130.2911 686,134 C725.5477,255.2327 756.0432,398.7208 774.1806,494.5586 " fill="none" id="sg.edu.ntu.scse.cz2002.util.ICsvSerializable-sg.edu.ntu.scse.cz2002.objects.restaurantItem.PromotionItem" style="stroke: #A80036; stroke-width: 1.0; stroke-dasharray: 7.0,7.0;"/><polygon fill="none" points="675.5252,125.3376,674.4588,104.1748,688.4898,120.0535,675.5252,125.3376" style="stroke: #A80036; stroke-width: 1.0;"/><!--link sg.edu.ntu.scse.cz2002.util.ICsvSerializable to sg.edu.ntu.scse.cz2002.objects.restaurantItem.RestaurantItem--><path d="M594.1163,114.8081 C568.2976,130.9959 537.4436,150.3409 506.388,169.8123 " fill="none" id="sg.edu.ntu.scse.cz2002.util.ICsvSerializable-sg.edu.ntu.scse.cz2002.objects.restaurantItem.RestaurantItem" style="stroke: #A80036; stroke-width: 1.0; stroke-dasharray: 7.0,7.0;"/><polygon fill="none" points="590.4635,108.8362,611.1269,104.1427,597.9005,120.6976,590.4635,108.8362" style="stroke: #A80036; stroke-width: 1.0;"/><text fill="#888888" font-family="sans-serif" font-size="10" lengthAdjust="spacingAndGlyphs" textLength="182" x="488.5" y="997.502">UMLDoclet 1.1.3, PlantUML 1.2018.12</text><!--
@startuml

    namespace sg.edu.ntu.scse.cz2002.objects.restaurantItem {

        class MenuItem [[../sg/edu/ntu/scse/cz2002/objects/restaurantItem/MenuItem.html]] {
            #description: String
            +MenuItem(id:int, name:String, type:int, description:String, price:double)
            +MenuItem(csv:String[])
            +toCsv(): String[]
            +setType(type:int): void
            +convertToItemType(type:int): MenuItem.MenuItemType
            +getDescription(): String
            +setDescription(description:String): void
            +printItemDetail(): String
        }

        enum sg.edu.ntu.scse.cz2002.objects.restaurantItem.MenuItem.MenuItemType [[../sg/edu/ntu/scse/cz2002/objects/restaurantItem/MenuItem.MenuItemType.html]] {
            {static} +ALL
            {static} +MAIN
            {static} +DESSERT
            {static} +DRINK
        }

        class PromotionItem [[../sg/edu/ntu/scse/cz2002/objects/restaurantItem/PromotionItem.html]] {
            #promoMain: int
            #promoDessert: int
            #promoDrink: int
            +PromotionItem(promoID:int, promoName:String, promoPrice:double, promoMain:int, promoDessert:int, promoDrink:int)
            +PromotionItem(csv:String[])
            +toCsv(): String[]
            +getPromoMain(): int
            +setPromoMain(promoMain:int): void
            +getPromoDessert(): int
            +setPromoDessert(promoDessert:int): void
            +getPromoDrink(): int
            +setPromoDrink(promoDrink:int): void
            +printPromotionDetail(): String
        }

        class RestaurantItem [[../sg/edu/ntu/scse/cz2002/objects/restaurantItem/RestaurantItem.html]] {
            #restaurantItemID: int
            #restaurantItemName: String
            #restaurantItemPrice: double
            +RestaurantItem(restaurantItemID:int, restaurantItemName:String, restaurantItemPrice:double)
            +RestaurantItem(csv:String[])
            +toCsv(): String[]
            +getId(): int
            +setId(restaurantItemID:int): void
            +getName(): String
            +setName(restaurantItemName:String): void
            +getPrice(): double
            +setPrice(restaurantItemPrice:double): void
        }

        RestaurantItem <|- - MenuItem

        interface sg.edu.ntu.scse.cz2002.util.ICsvSerializable {
            {abstract} +toCsv(): String[]
        }
        sg.edu.ntu.scse.cz2002.util.ICsvSerializable <|.. MenuItem

        MenuItem +- - sg.edu.ntu.scse.cz2002.objects.restaurantItem.MenuItem.MenuItemType

        RestaurantItem <|- - PromotionItem

        sg.edu.ntu.scse.cz2002.util.ICsvSerializable <|.. PromotionItem

        sg.edu.ntu.scse.cz2002.util.ICsvSerializable <|.. RestaurantItem

        MenuItem - -> sg.edu.ntu.scse.cz2002.objects.restaurantItem.MenuItem.MenuItemType: eType\ntype

    }


    center footer UMLDoclet 1.1.3, PlantUML 1.2018.12
@enduml

PlantUML version 1.2018.12(Sun Oct 21 10:15:15 GMT 2018)
(APACHE source distribution)
Java Runtime: Java(TM) SE Runtime Environment
JVM: Java HotSpot(TM) 64-Bit Server VM
Java Version: 1.8.0_202-b08
Operating System: Linux
OS Version: 4.19.23-coreos-r1
Default Encoding: UTF-8
Language: en
Country: null
--></g></svg>