<?xml version="1.0" encoding="UTF-8" standalone="no"?><svg xmlns="http://www.w3.org/2000/svg" xmlns:xlink="http://www.w3.org/1999/xlink" contentScriptType="application/ecmascript" contentStyleType="text/css" height="650px" preserveAspectRatio="none" style="width:2793px;height:650px;" version="1.1" viewBox="0 0 2793 650" width="2793px" zoomAndPan="magnify"><defs><filter height="300%" id="f11j9z38rtnb7y" width="300%" x="-1" y="-1"><feGaussianBlur result="blurOut" stdDeviation="2.0"/><feColorMatrix in="blurOut" result="blurOut2" type="matrix" values="0 0 0 0 0 0 0 0 0 0 0 0 0 0 0 0 0 0 .4 0"/><feOffset dx="4.0" dy="4.0" in="blurOut2" result="blurOut3"/><feBlend in="SourceGraphic" in2="blurOut3" mode="normal"/></filter></defs><g><!--cluster sg.edu.ntu.scse.cz2002.ui--><polygon fill="#FFFFFF" filter="url(#f11j9z38rtnb7y)" points="14,124,198,124,205,146.29,2771,146.29,2771,609,14,609,14,124" style="stroke: #000000; stroke-width: 1.5;"/><line style="stroke: #000000; stroke-width: 1.5;" x1="14" x2="205" y1="146.29" y2="146.29"/><text fill="#000000" font-family="sans-serif" font-size="14" font-weight="bold" lengthAdjust="spacingAndGlyphs" textLength="178" x="18" y="139.3369">sg.edu.ntu.scse.cz2002.ui</text><!--cluster java.lang--><polygon fill="#FFFFFF" filter="url(#f11j9z38rtnb7y)" points="2180,16,2249,16,2256,38.29,2344,38.29,2344,99,2180,99,2180,16" style="stroke: #000000; stroke-width: 1.5;"/><line style="stroke: #000000; stroke-width: 1.5;" x1="2180" x2="2256" y1="38.29" y2="38.29"/><text fill="#000000" font-family="sans-serif" font-size="14" font-weight="bold" lengthAdjust="spacingAndGlyphs" textLength="63" x="2184" y="31.3369">java.lang</text><!--class sg.edu.ntu.scse.cz2002.ui.ReservationMenuUI--><a target="_top" xlink:actuate="onRequest" xlink:href="../sg/edu/ntu/scse/cz2002/ui/ReservationMenuUI.html" xlink:show="new" xlink:title="../sg/edu/ntu/scse/cz2002/ui/ReservationMenuUI.html" xlink:type="simple"><rect fill="#FEFECE" filter="url(#f11j9z38rtnb7y)" height="214.3911" id="sg.edu.ntu.scse.cz2002.ui.ReservationMenuUI" style="stroke: #A80036; stroke-width: 1.5;" width="450" x="22" y="374"/><ellipse cx="188.25" cy="390" fill="#ADD1B2" rx="11" ry="11" style="stroke: #A80036; stroke-width: 1.0;"/><path d="M192.0781,395.6563 Q190.2031,396.3125 188.3906,396.3125 Q185.7969,396.3125 184.2109,394.5313 Q182.625,392.75 182.625,389.8438 Q182.625,387.1563 184.0313,385.3906 Q184.8906,384.3125 186.0078,383.8594 Q187.125,383.4063 188.9063,383.4063 Q190.625,383.4063 192.0781,383.7656 L192.0781,385.75 Q190.2031,385.0469 188.9531,385.0469 Q187.2656,385.0469 186.2734,386.3672 Q185.2813,387.6875 185.2813,389.9219 Q185.2813,391.9688 186.3203,393.2656 Q187.3594,394.5625 189,394.5625 Q190.3906,394.5625 192.0781,393.7813 L192.0781,395.6563 Z "/><text fill="#000000" font-family="sans-serif" font-size="12" lengthAdjust="spacingAndGlyphs" textLength="109" x="208.75" y="394.4209">ReservationMenuUI</text><line style="stroke: #A80036; stroke-width: 1.5;" x1="23" x2="471" y1="406" y2="406"/><rect fill="none" height="6" style="stroke: #C82930; stroke-width: 1.0;" width="6" x="30" y="414.8997"/><text fill="#000000" font-family="sans-serif" font-size="11" lengthAdjust="spacingAndGlyphs" textLength="77" x="42" y="420.4521">input: Scanner</text><rect fill="none" height="6" style="stroke: #C82930; stroke-width: 1.0;" width="6" x="30" y="427.699"/><text fill="#000000" font-family="sans-serif" font-size="11" lengthAdjust="spacingAndGlyphs" textLength="89" x="42" y="433.2515">MAX_TABLES: int</text><line style="stroke: #A80036; stroke-width: 1.5;" x1="23" x2="471" y1="439.5986" y2="439.5986"/><polygon fill="#FFFF44" points="33,446.4983,37,450.4983,33,454.4983,29,450.4983" style="stroke: #B38D22; stroke-width: 1.0;"/><text fill="#000000" font-family="sans-serif" font-size="11" lengthAdjust="spacingAndGlyphs" textLength="140" x="42" y="454.0508">generateMenuScreen(): int</text><rect fill="#F24D5C" height="6" style="stroke: #C82930; stroke-width: 1.0;" width="6" x="30" y="461.2976"/><text fill="#000000" font-family="sans-serif" font-size="11" lengthAdjust="spacingAndGlyphs" textLength="176" x="42" y="466.8501">createReservationBooking(): void</text><rect fill="#F24D5C" height="6" style="stroke: #C82930; stroke-width: 1.0;" width="6" x="30" y="474.0969"/><text fill="#000000" font-family="sans-serif" font-size="11" lengthAdjust="spacingAndGlyphs" textLength="424" x="42" y="479.6494">findTableForReservation(numPax:int, resvDate:LocalDate, resvSession:char): int</text><rect fill="#F24D5C" height="6" style="stroke: #C82930; stroke-width: 1.0;" width="6" x="30" y="486.8962"/><text fill="#000000" font-family="sans-serif" font-size="11" lengthAdjust="spacingAndGlyphs" textLength="174" x="42" y="492.4487">checkReservationBooking(): void</text><rect fill="#F24D5C" height="6" style="stroke: #C82930; stroke-width: 1.0;" width="6" x="30" y="499.6956"/><text fill="#000000" font-family="sans-serif" font-size="11" lengthAdjust="spacingAndGlyphs" textLength="183" x="42" y="505.248">removeReservationBooking(): void</text><rect fill="#F24D5C" height="6" style="stroke: #C82930; stroke-width: 1.0;" width="6" x="30" y="512.4949"/><text fill="#000000" font-family="sans-serif" font-size="11" lengthAdjust="spacingAndGlyphs" textLength="178" x="42" y="518.0474">checkExpiredReservations(): void</text><rect fill="#F24D5C" height="6" style="stroke: #C82930; stroke-width: 1.0;" width="6" x="30" y="525.2942"/><text fill="#000000" font-family="sans-serif" font-size="11" lengthAdjust="spacingAndGlyphs" textLength="122" x="42" y="530.8467">listReservations(): void</text><rect fill="#F24D5C" height="6" style="stroke: #C82930; stroke-width: 1.0;" width="6" x="30" y="538.0935"/><text fill="#000000" font-family="sans-serif" font-size="11" lengthAdjust="spacingAndGlyphs" textLength="219" x="42" y="543.646">printReservationLine(r:Reservation): void</text><rect fill="#F24D5C" height="6" style="stroke: #C82930; stroke-width: 1.0;" width="6" x="30" y="550.8928"/><text fill="#000000" font-family="sans-serif" font-size="11" lengthAdjust="spacingAndGlyphs" textLength="202" x="42" y="556.4453">printReservationLine(telNo:String): int</text><rect fill="#F24D5C" height="6" style="stroke: #C82930; stroke-width: 1.0;" width="6" x="30" y="563.6921"/><text fill="#000000" font-family="sans-serif" font-size="11" lengthAdjust="spacingAndGlyphs" textLength="370" x="42" y="569.2446">checkMorningSessionDate(date:LocalDate, isToday:boolean): boolean</text><rect fill="#F24D5C" height="6" style="stroke: #C82930; stroke-width: 1.0;" width="6" x="30" y="576.4915"/><text fill="#000000" font-family="sans-serif" font-size="11" lengthAdjust="spacingAndGlyphs" textLength="367" x="42" y="582.0439">checkEveningSessionDate(date:LocalDate, isToday:boolean): boolean</text></a><!--class sg.edu.ntu.scse.cz2002.ui.MenuChoiceInvalidException--><a target="_top" xlink:actuate="onRequest" xlink:href="../sg/edu/ntu/scse/cz2002/ui/MenuChoiceInvalidException.html" xlink:show="new" xlink:title="../sg/edu/ntu/scse/cz2002/ui/MenuChoiceInvalidException.html" xlink:type="simple"><rect fill="#FEFECE" filter="url(#f11j9z38rtnb7y)" height="60.7993" id="sg.edu.ntu.scse.cz2002.ui.MenuChoiceInvalidException" style="stroke: #A80036; stroke-width: 1.5;" width="240" x="2142" y="195.5"/><ellipse cx="2177.7" cy="211.5" fill="#ADD1B2" rx="11" ry="11" style="stroke: #A80036; stroke-width: 1.0;"/><path d="M2181.5281,217.1563 Q2179.6531,217.8125 2177.8406,217.8125 Q2175.2469,217.8125 2173.6609,216.0313 Q2172.075,214.25 2172.075,211.3438 Q2172.075,208.6563 2173.4813,206.8906 Q2174.3406,205.8125 2175.4578,205.3594 Q2176.575,204.9063 2178.3563,204.9063 Q2180.075,204.9063 2181.5281,205.2656 L2181.5281,207.25 Q2179.6531,206.5469 2178.4031,206.5469 Q2176.7156,206.5469 2175.7234,207.8672 Q2174.7313,209.1875 2174.7313,211.4219 Q2174.7313,213.4688 2175.7703,214.7656 Q2176.8094,216.0625 2178.45,216.0625 Q2179.8406,216.0625 2181.5281,215.2813 L2181.5281,217.1563 Z "/><text fill="#000000" font-family="sans-serif" font-size="12" lengthAdjust="spacingAndGlyphs" textLength="162" x="2196.3" y="215.9209">MenuChoiceInvalidException</text><line style="stroke: #A80036; stroke-width: 1.5;" x1="2143" x2="2381" y1="227.5" y2="227.5"/><line style="stroke: #A80036; stroke-width: 1.5;" x1="2143" x2="2381" y1="235.5" y2="235.5"/><ellipse cx="2153" cy="247.3997" fill="#84BE84" rx="3" ry="3" style="stroke: #038048; stroke-width: 1.0;"/><text fill="#000000" font-family="sans-serif" font-size="11" lengthAdjust="spacingAndGlyphs" textLength="214" x="2162" y="249.9521">MenuChoiceInvalidException(tag:String)</text></a><!--class sg.edu.ntu.scse.cz2002.ui.FoodMenuUI--><a target="_top" xlink:actuate="onRequest" xlink:href="../sg/edu/ntu/scse/cz2002/ui/FoodMenuUI.html" xlink:show="new" xlink:title="../sg/edu/ntu/scse/cz2002/ui/FoodMenuUI.html" xlink:type="simple"><rect fill="#FEFECE" filter="url(#f11j9z38rtnb7y)" height="124.7959" id="sg.edu.ntu.scse.cz2002.ui.FoodMenuUI" style="stroke: #A80036; stroke-width: 1.5;" width="166" x="507" y="418.5"/><ellipse cx="550.8" cy="434.5" fill="#ADD1B2" rx="11" ry="11" style="stroke: #A80036; stroke-width: 1.0;"/><path d="M554.6281,440.1563 Q552.7531,440.8125 550.9406,440.8125 Q548.3469,440.8125 546.7609,439.0313 Q545.175,437.25 545.175,434.3438 Q545.175,431.6563 546.5813,429.8906 Q547.4406,428.8125 548.5578,428.3594 Q549.675,427.9063 551.4563,427.9063 Q553.175,427.9063 554.6281,428.2656 L554.6281,430.25 Q552.7531,429.5469 551.5031,429.5469 Q549.8156,429.5469 548.8234,430.8672 Q547.8313,432.1875 547.8313,434.4219 Q547.8313,436.4688 548.8703,437.7656 Q549.9094,439.0625 551.55,439.0625 Q552.9406,439.0625 554.6281,438.2813 L554.6281,440.1563 Z "/><text fill="#000000" font-family="sans-serif" font-size="12" lengthAdjust="spacingAndGlyphs" textLength="70" x="571.2" y="438.9209">FoodMenuUI</text><line style="stroke: #A80036; stroke-width: 1.5;" x1="508" x2="672" y1="450.5" y2="450.5"/><rect fill="none" height="6" style="stroke: #C82930; stroke-width: 1.0;" width="6" x="515" y="459.3997"/><text fill="#000000" font-family="sans-serif" font-size="11" lengthAdjust="spacingAndGlyphs" textLength="61" x="527" y="464.9521">sc: Scanner</text><line style="stroke: #A80036; stroke-width: 1.5;" x1="508" x2="672" y1="471.2993" y2="471.2993"/><polygon fill="#FFFF44" points="518,478.199,522,482.199,518,486.199,514,482.199" style="stroke: #B38D22; stroke-width: 1.0;"/><text fill="#000000" font-family="sans-serif" font-size="11" lengthAdjust="spacingAndGlyphs" textLength="140" x="527" y="485.7515">generateMenuScreen(): int</text><rect fill="#F24D5C" height="6" style="stroke: #C82930; stroke-width: 1.0;" width="6" x="515" y="492.9983"/><text fill="#000000" font-family="sans-serif" font-size="11" lengthAdjust="spacingAndGlyphs" textLength="92" x="527" y="498.5508">printMenu(): void</text><rect fill="#F24D5C" height="6" style="stroke: #C82930; stroke-width: 1.0;" width="6" x="515" y="505.7976"/><text fill="#000000" font-family="sans-serif" font-size="11" lengthAdjust="spacingAndGlyphs" textLength="131" x="527" y="511.3501">addNewMenuItem(): void</text><rect fill="#F24D5C" height="6" style="stroke: #C82930; stroke-width: 1.0;" width="6" x="515" y="518.5969"/><text fill="#000000" font-family="sans-serif" font-size="11" lengthAdjust="spacingAndGlyphs" textLength="109" x="527" y="524.1494">editMenuItem(): void</text><rect fill="#F24D5C" height="6" style="stroke: #C82930; stroke-width: 1.0;" width="6" x="515" y="531.3962"/><text fill="#000000" font-family="sans-serif" font-size="11" lengthAdjust="spacingAndGlyphs" textLength="121" x="527" y="536.9487">deleteMenuItem(): void</text></a><!--class sg.edu.ntu.scse.cz2002.ui.PromotionMenuUI--><a target="_top" xlink:actuate="onRequest" xlink:href="../sg/edu/ntu/scse/cz2002/ui/PromotionMenuUI.html" xlink:show="new" xlink:title="../sg/edu/ntu/scse/cz2002/ui/PromotionMenuUI.html" xlink:type="simple"><rect fill="#FEFECE" filter="url(#f11j9z38rtnb7y)" height="124.7959" id="sg.edu.ntu.scse.cz2002.ui.PromotionMenuUI" style="stroke: #A80036; stroke-width: 1.5;" width="166" x="708" y="418.5"/><ellipse cx="738.3" cy="434.5" fill="#ADD1B2" rx="11" ry="11" style="stroke: #A80036; stroke-width: 1.0;"/><path d="M742.1281,440.1563 Q740.2531,440.8125 738.4406,440.8125 Q735.8469,440.8125 734.2609,439.0313 Q732.675,437.25 732.675,434.3438 Q732.675,431.6563 734.0813,429.8906 Q734.9406,428.8125 736.0578,428.3594 Q737.175,427.9063 738.9563,427.9063 Q740.675,427.9063 742.1281,428.2656 L742.1281,430.25 Q740.2531,429.5469 739.0031,429.5469 Q737.3156,429.5469 736.3234,430.8672 Q735.3313,432.1875 735.3313,434.4219 Q735.3313,436.4688 736.3703,437.7656 Q737.4094,439.0625 739.05,439.0625 Q740.4406,439.0625 742.1281,438.2813 L742.1281,440.1563 Z "/><text fill="#000000" font-family="sans-serif" font-size="12" lengthAdjust="spacingAndGlyphs" textLength="100" x="755.7" y="438.9209">PromotionMenuUI</text><line style="stroke: #A80036; stroke-width: 1.5;" x1="709" x2="873" y1="450.5" y2="450.5"/><rect fill="none" height="6" style="stroke: #C82930; stroke-width: 1.0;" width="6" x="716" y="459.3997"/><text fill="#000000" font-family="sans-serif" font-size="11" lengthAdjust="spacingAndGlyphs" textLength="61" x="728" y="464.9521">sc: Scanner</text><line style="stroke: #A80036; stroke-width: 1.5;" x1="709" x2="873" y1="471.2993" y2="471.2993"/><polygon fill="#FFFF44" points="719,478.199,723,482.199,719,486.199,715,482.199" style="stroke: #B38D22; stroke-width: 1.0;"/><text fill="#000000" font-family="sans-serif" font-size="11" lengthAdjust="spacingAndGlyphs" textLength="140" x="728" y="485.7515">generateMenuScreen(): int</text><ellipse cx="719" cy="495.9983" fill="#84BE84" rx="3" ry="3" style="stroke: #038048; stroke-width: 1.0;"/><text fill="#000000" font-family="sans-serif" font-size="11" lengthAdjust="spacingAndGlyphs" textLength="119" x="728" y="498.5508">printPromotion(): void</text><ellipse cx="719" cy="508.7976" fill="#84BE84" rx="3" ry="3" style="stroke: #038048; stroke-width: 1.0;"/><text fill="#000000" font-family="sans-serif" font-size="11" lengthAdjust="spacingAndGlyphs" textLength="135" x="728" y="511.3501">addNewPromotion(): void</text><ellipse cx="719" cy="521.5969" fill="#84BE84" rx="3" ry="3" style="stroke: #038048; stroke-width: 1.0;"/><text fill="#000000" font-family="sans-serif" font-size="11" lengthAdjust="spacingAndGlyphs" textLength="113" x="728" y="524.1494">editPromotion(): void</text><ellipse cx="719" cy="534.3962" fill="#84BE84" rx="3" ry="3" style="stroke: #038048; stroke-width: 1.0;"/><text fill="#000000" font-family="sans-serif" font-size="11" lengthAdjust="spacingAndGlyphs" textLength="125" x="728" y="536.9487">deletePromotion(): void</text></a><!--class sg.edu.ntu.scse.cz2002.ui.CheckoutMenuUI--><a target="_top" xlink:actuate="onRequest" xlink:href="../sg/edu/ntu/scse/cz2002/ui/CheckoutMenuUI.html" xlink:show="new" xlink:title="../sg/edu/ntu/scse/cz2002/ui/CheckoutMenuUI.html" xlink:type="simple"><rect fill="#FEFECE" filter="url(#f11j9z38rtnb7y)" height="175.9932" id="sg.edu.ntu.scse.cz2002.ui.CheckoutMenuUI" style="stroke: #A80036; stroke-width: 1.5;" width="550" x="909" y="393"/><ellipse cx="1132.25" cy="409" fill="#ADD1B2" rx="11" ry="11" style="stroke: #A80036; stroke-width: 1.0;"/><path d="M1136.0781,414.6563 Q1134.2031,415.3125 1132.3906,415.3125 Q1129.7969,415.3125 1128.2109,413.5313 Q1126.625,411.75 1126.625,408.8438 Q1126.625,406.1563 1128.0313,404.3906 Q1128.8906,403.3125 1130.0078,402.8594 Q1131.125,402.4063 1132.9063,402.4063 Q1134.625,402.4063 1136.0781,402.7656 L1136.0781,404.75 Q1134.2031,404.0469 1132.9531,404.0469 Q1131.2656,404.0469 1130.2734,405.3672 Q1129.2813,406.6875 1129.2813,408.9219 Q1129.2813,410.9688 1130.3203,412.2656 Q1131.3594,413.5625 1133,413.5625 Q1134.3906,413.5625 1136.0781,412.7813 L1136.0781,414.6563 Z "/><text fill="#000000" font-family="sans-serif" font-size="12" lengthAdjust="spacingAndGlyphs" textLength="95" x="1152.75" y="413.4209">CheckoutMenuUI</text><line style="stroke: #A80036; stroke-width: 1.5;" x1="910" x2="1458" y1="425" y2="425"/><rect fill="none" height="6" style="stroke: #C82930; stroke-width: 1.0;" width="6" x="917" y="433.8997"/><text fill="#000000" font-family="sans-serif" font-size="11" lengthAdjust="spacingAndGlyphs" text-decoration="underline" textLength="149" x="929" y="439.4521">RECEIPT_SUBFOLDER: String</text><line style="stroke: #000000; stroke-width: 1.0;" x1="929" x2="1078" y1="441.4521" y2="441.4521"/><line style="stroke: #A80036; stroke-width: 1.5;" x1="910" x2="1458" y1="445.7993" y2="445.7993"/><polygon fill="#FFFF44" points="920,452.699,924,456.699,920,460.699,916,456.699" style="stroke: #B38D22; stroke-width: 1.0;"/><text fill="#000000" font-family="sans-serif" font-size="11" lengthAdjust="spacingAndGlyphs" textLength="140" x="929" y="460.2515">generateMenuScreen(): int</text><rect fill="#F24D5C" height="6" style="stroke: #C82930; stroke-width: 1.0;" width="6" x="917" y="467.4983"/><text fill="#000000" font-family="sans-serif" font-size="11" lengthAdjust="spacingAndGlyphs" textLength="106" x="929" y="473.0508">checkout(): boolean</text><rect fill="#F24D5C" height="6" style="stroke: #C82930; stroke-width: 1.0;" width="6" x="917" y="480.2976"/><text fill="#000000" font-family="sans-serif" font-size="11" lengthAdjust="spacingAndGlyphs" textLength="74" x="929" y="485.8501">reprint(): void</text><rect fill="#F24D5C" height="6" style="stroke: #C82930; stroke-width: 1.0;" width="6" x="917" y="493.0969"/><text fill="#000000" font-family="sans-serif" font-size="11" lengthAdjust="spacingAndGlyphs" textLength="524" x="929" y="498.6494">generateReceipt(o:Order, total:double, paid:double, type:Invoice.PaymentType): ArrayList&lt;String&gt;</text><rect fill="#F24D5C" height="6" style="stroke: #C82930; stroke-width: 1.0;" width="6" x="917" y="505.8962"/><text fill="#000000" font-family="sans-serif" font-size="11" lengthAdjust="spacingAndGlyphs" textLength="312" x="929" y="511.4487">centerText(toCenter:String, length:int, spacer:char): String</text><rect fill="#F24D5C" height="6" style="stroke: #C82930; stroke-width: 1.0;" width="6" x="917" y="518.6956"/><text fill="#000000" font-family="sans-serif" font-size="11" lengthAdjust="spacingAndGlyphs" textLength="202" x="929" y="524.248">spacer(length:int, spacer:char): String</text><rect fill="#F24D5C" height="6" style="stroke: #C82930; stroke-width: 1.0;" width="6" x="917" y="531.4949"/><text fill="#000000" font-family="sans-serif" font-size="11" lengthAdjust="spacingAndGlyphs" textLength="228" x="929" y="537.0474">requestCashPayment(total:double): double</text><rect fill="#F24D5C" height="6" style="stroke: #C82930; stroke-width: 1.0;" width="6" x="917" y="544.2942"/><text fill="#000000" font-family="sans-serif" font-size="11" lengthAdjust="spacingAndGlyphs" textLength="331" x="929" y="549.8467">writeReceipt(receipt:ArrayList&lt;String&gt;, receiptId:int): boolean</text><rect fill="#F24D5C" height="6" style="stroke: #C82930; stroke-width: 1.0;" width="6" x="917" y="557.0935"/><text fill="#000000" font-family="sans-serif" font-size="11" lengthAdjust="spacingAndGlyphs" textLength="187" x="929" y="562.646">printOrderDetails(o:Order): double</text></a><!--class sg.edu.ntu.scse.cz2002.ui.MainMenuUI--><a target="_top" xlink:actuate="onRequest" xlink:href="../sg/edu/ntu/scse/cz2002/ui/MainMenuUI.html" xlink:show="new" xlink:title="../sg/edu/ntu/scse/cz2002/ui/MainMenuUI.html" xlink:type="simple"><rect fill="#FEFECE" filter="url(#f11j9z38rtnb7y)" height="73.5986" id="sg.edu.ntu.scse.cz2002.ui.MainMenuUI" style="stroke: #A80036; stroke-width: 1.5;" width="181" x="1494.5" y="444"/><ellipse cx="1546.25" cy="460" fill="#ADD1B2" rx="11" ry="11" style="stroke: #A80036; stroke-width: 1.0;"/><path d="M1550.0781,465.6563 Q1548.2031,466.3125 1546.3906,466.3125 Q1543.7969,466.3125 1542.2109,464.5313 Q1540.625,462.75 1540.625,459.8438 Q1540.625,457.1563 1542.0313,455.3906 Q1542.8906,454.3125 1544.0078,453.8594 Q1545.125,453.4063 1546.9063,453.4063 Q1548.625,453.4063 1550.0781,453.7656 L1550.0781,455.75 Q1548.2031,455.0469 1546.9531,455.0469 Q1545.2656,455.0469 1544.2734,456.3672 Q1543.2813,457.6875 1543.2813,459.9219 Q1543.2813,461.9688 1544.3203,463.2656 Q1545.3594,464.5625 1547,464.5625 Q1548.3906,464.5625 1550.0781,463.7813 L1550.0781,465.6563 Z "/><text fill="#000000" font-family="sans-serif" font-size="12" lengthAdjust="spacingAndGlyphs" textLength="69" x="1566.75" y="464.4209">MainMenuUI</text><line style="stroke: #A80036; stroke-width: 1.5;" x1="1495.5" x2="1674.5" y1="476" y2="476"/><line style="stroke: #A80036; stroke-width: 1.5;" x1="1495.5" x2="1674.5" y1="484" y2="484"/><polygon fill="#FFFF44" points="1505.5,490.8997,1509.5,494.8997,1505.5,498.8997,1501.5,494.8997" style="stroke: #B38D22; stroke-width: 1.0;"/><text fill="#000000" font-family="sans-serif" font-size="11" lengthAdjust="spacingAndGlyphs" textLength="140" x="1514.5" y="498.4521">generateMenuScreen(): int</text><rect fill="#F24D5C" height="6" style="stroke: #C82930; stroke-width: 1.0;" width="6" x="1502.5" y="505.699"/><text fill="#000000" font-family="sans-serif" font-size="11" lengthAdjust="spacingAndGlyphs" textLength="155" x="1514.5" y="511.2515">checkTableAvailability(): void</text></a><!--class sg.edu.ntu.scse.cz2002.ui.StaffMgmtMenuUI--><a target="_top" xlink:actuate="onRequest" xlink:href="../sg/edu/ntu/scse/cz2002/ui/StaffMgmtMenuUI.html" xlink:show="new" xlink:title="../sg/edu/ntu/scse/cz2002/ui/StaffMgmtMenuUI.html" xlink:type="simple"><rect fill="#FEFECE" filter="url(#f11j9z38rtnb7y)" height="111.9966" id="sg.edu.ntu.scse.cz2002.ui.StaffMgmtMenuUI" style="stroke: #A80036; stroke-width: 1.5;" width="166" x="1711" y="425"/><ellipse cx="1741.75" cy="441" fill="#ADD1B2" rx="11" ry="11" style="stroke: #A80036; stroke-width: 1.0;"/><path d="M1745.5781,446.6563 Q1743.7031,447.3125 1741.8906,447.3125 Q1739.2969,447.3125 1737.7109,445.5313 Q1736.125,443.75 1736.125,440.8438 Q1736.125,438.1563 1737.5313,436.3906 Q1738.3906,435.3125 1739.5078,434.8594 Q1740.625,434.4063 1742.4063,434.4063 Q1744.125,434.4063 1745.5781,434.7656 L1745.5781,436.75 Q1743.7031,436.0469 1742.4531,436.0469 Q1740.7656,436.0469 1739.7734,437.3672 Q1738.7813,438.6875 1738.7813,440.9219 Q1738.7813,442.9688 1739.8203,444.2656 Q1740.8594,445.5625 1742.5,445.5625 Q1743.8906,445.5625 1745.5781,444.7813 L1745.5781,446.6563 Z "/><text fill="#000000" font-family="sans-serif" font-size="12" lengthAdjust="spacingAndGlyphs" textLength="99" x="1759.25" y="445.4209">StaffMgmtMenuUI</text><line style="stroke: #A80036; stroke-width: 1.5;" x1="1712" x2="1876" y1="457" y2="457"/><line style="stroke: #A80036; stroke-width: 1.5;" x1="1712" x2="1876" y1="465" y2="465"/><polygon fill="#FFFF44" points="1722,471.8997,1726,475.8997,1722,479.8997,1718,475.8997" style="stroke: #B38D22; stroke-width: 1.0;"/><text fill="#000000" font-family="sans-serif" font-size="11" lengthAdjust="spacingAndGlyphs" textLength="140" x="1731" y="479.4521">generateMenuScreen(): int</text><rect fill="#F24D5C" height="6" style="stroke: #C82930; stroke-width: 1.0;" width="6" x="1719" y="486.699"/><text fill="#000000" font-family="sans-serif" font-size="11" lengthAdjust="spacingAndGlyphs" textLength="116" x="1731" y="492.2515">createNewStaff(): void</text><rect fill="#F24D5C" height="6" style="stroke: #C82930; stroke-width: 1.0;" width="6" x="1719" y="499.4983"/><text fill="#000000" font-family="sans-serif" font-size="11" lengthAdjust="spacingAndGlyphs" textLength="102" x="1731" y="505.0508">editStaffInfo(): void</text><rect fill="#F24D5C" height="6" style="stroke: #C82930; stroke-width: 1.0;" width="6" x="1719" y="512.2976"/><text fill="#000000" font-family="sans-serif" font-size="11" lengthAdjust="spacingAndGlyphs" textLength="101" x="1731" y="517.8501">removeStaff(): void</text><rect fill="#F24D5C" height="6" style="stroke: #C82930; stroke-width: 1.0;" width="6" x="1719" y="525.0969"/><text fill="#000000" font-family="sans-serif" font-size="11" lengthAdjust="spacingAndGlyphs" textLength="91" x="1731" y="530.6494">listAllStaff(): void</text></a><!--class sg.edu.ntu.scse.cz2002.ui.BaseMenu--><a target="_top" xlink:actuate="onRequest" xlink:href="../sg/edu/ntu/scse/cz2002/ui/BaseMenu.html" xlink:show="new" xlink:title="../sg/edu/ntu/scse/cz2002/ui/BaseMenu.html" xlink:type="simple"><rect fill="#FEFECE" filter="url(#f11j9z38rtnb7y)" height="150.3945" id="sg.edu.ntu.scse.cz2002.ui.BaseMenu" style="stroke: #A80036; stroke-width: 1.5;" width="286" x="1241" y="151"/><ellipse cx="1350.75" cy="167" fill="#A9DCDF" rx="11" ry="11" style="stroke: #A80036; stroke-width: 1.0;"/><path d="M1346.4219,172.25 L1350.1406,159.9688 L1352.5938,159.9688 L1356.3125,172.25 L1353.7656,172.25 L1352.8281,169.125 L1349.1875,169.125 L1348.25,172.25 L1346.4219,172.25 Z M1349.6563,167.5938 L1352.375,167.5938 L1351,163.1094 L1349.6563,167.5938 Z "/><text fill="#000000" font-family="sans-serif" font-size="12" font-style="italic" lengthAdjust="spacingAndGlyphs" textLength="58" x="1371.25" y="171.4209">BaseMenu</text><line style="stroke: #A80036; stroke-width: 1.5;" x1="1242" x2="1526" y1="183" y2="183"/><rect fill="none" height="6" style="stroke: #C82930; stroke-width: 1.0;" width="6" x="1249" y="191.8997"/><text fill="#000000" font-family="sans-serif" font-size="11" lengthAdjust="spacingAndGlyphs" text-decoration="underline" textLength="161" x="1261" y="197.4521">PRINT_WINDOW_MAX_SIZE: int</text><line style="stroke: #000000; stroke-width: 1.0;" x1="1261" x2="1422" y1="199.4521" y2="199.4521"/><line style="stroke: #A80036; stroke-width: 1.5;" x1="1242" x2="1526" y1="203.7993" y2="203.7993"/><ellipse cx="1252" cy="215.699" fill="#84BE84" rx="3" ry="3" style="stroke: #038048; stroke-width: 1.0;"/><text fill="#000000" font-family="sans-serif" font-size="11" lengthAdjust="spacingAndGlyphs" textLength="136" x="1261" y="218.2515">startMainMenu(): boolean</text><polygon fill="#FFFF44" points="1252,223.4983,1256,227.4983,1252,231.4983,1248,227.4983" style="stroke: #B38D22; stroke-width: 1.0;"/><text fill="#000000" font-family="sans-serif" font-size="11" lengthAdjust="spacingAndGlyphs" text-decoration="underline" textLength="203" x="1261" y="231.0508">printHeader(headerName:String): void</text><line style="stroke: #000000; stroke-width: 1.0;" x1="1261" x2="1464" y1="233.0508" y2="233.0508"/><polygon fill="#FFFF44" points="1252,236.2976,1256,240.2976,1252,244.2976,1248,240.2976" style="stroke: #B38D22; stroke-width: 1.0;"/><text fill="#000000" font-family="sans-serif" font-size="11" lengthAdjust="spacingAndGlyphs" text-decoration="underline" textLength="260" x="1261" y="243.8501">printHeader(headerName:String, length:int): void</text><line style="stroke: #000000; stroke-width: 1.0;" x1="1261" x2="1521" y1="245.8501" y2="245.8501"/><polygon fill="#FFFF44" points="1252,249.0969,1256,253.0969,1252,257.0969,1248,253.0969" style="stroke: #B38D22; stroke-width: 1.0;"/><text fill="#000000" font-family="sans-serif" font-size="11" lengthAdjust="spacingAndGlyphs" text-decoration="underline" textLength="149" x="1261" y="256.6494">printBreaks(length:int): void</text><line style="stroke: #000000; stroke-width: 1.0;" x1="1261" x2="1410" y1="258.6494" y2="258.6494"/><polygon fill="#FFFF44" points="1252,261.8962,1256,265.8962,1252,269.8962,1248,265.8962" style="stroke: #B38D22; stroke-width: 1.0;"/><text fill="#000000" font-family="sans-serif" font-size="11" lengthAdjust="spacingAndGlyphs" text-decoration="underline" textLength="98" x="1261" y="269.4487">printBreaks(): void</text><line style="stroke: #000000; stroke-width: 1.0;" x1="1261" x2="1359" y1="271.4487" y2="271.4487"/><polygon fill="#FFFF44" points="1252,274.6956,1256,278.6956,1252,282.6956,1248,278.6956" style="stroke: #B38D22; stroke-width: 1.0;"/><text fill="#000000" font-family="sans-serif" font-size="11" lengthAdjust="spacingAndGlyphs" text-decoration="underline" textLength="245" x="1261" y="282.248">doMenuChoice(max:int, specialEscape:int): int</text><line style="stroke: #000000; stroke-width: 1.0;" x1="1261" x2="1506" y1="284.248" y2="284.248"/><polygon fill="#FFFF44" points="1252,287.4949,1256,291.4949,1252,295.4949,1248,291.4949" style="stroke: #B38D22; stroke-width: 1.0;"/><text fill="#000000" font-family="sans-serif" font-size="11" font-style="italic" lengthAdjust="spacingAndGlyphs" textLength="140" x="1261" y="295.0474">generateMenuScreen(): int</text></a><!--class sg.edu.ntu.scse.cz2002.ui.SalesRevenueReportMenuUI--><a target="_top" xlink:actuate="onRequest" xlink:href="../sg/edu/ntu/scse/cz2002/ui/SalesRevenueReportMenuUI.html" xlink:show="new" xlink:title="../sg/edu/ntu/scse/cz2002/ui/SalesRevenueReportMenuUI.html" xlink:type="simple"><rect fill="#FEFECE" filter="url(#f11j9z38rtnb7y)" height="99.1973" id="sg.edu.ntu.scse.cz2002.ui.SalesRevenueReportMenuUI" style="stroke: #A80036; stroke-width: 1.5;" width="380" x="1912" y="431.5"/><ellipse cx="2018.25" cy="447.5" fill="#ADD1B2" rx="11" ry="11" style="stroke: #A80036; stroke-width: 1.0;"/><path d="M2022.0781,453.1563 Q2020.2031,453.8125 2018.3906,453.8125 Q2015.7969,453.8125 2014.2109,452.0313 Q2012.625,450.25 2012.625,447.3438 Q2012.625,444.6563 2014.0313,442.8906 Q2014.8906,441.8125 2016.0078,441.3594 Q2017.125,440.9063 2018.9063,440.9063 Q2020.625,440.9063 2022.0781,441.2656 L2022.0781,443.25 Q2020.2031,442.5469 2018.9531,442.5469 Q2017.2656,442.5469 2016.2734,443.8672 Q2015.2813,445.1875 2015.2813,447.4219 Q2015.2813,449.4688 2016.3203,450.7656 Q2017.3594,452.0625 2019,452.0625 Q2020.3906,452.0625 2022.0781,451.2813 L2022.0781,453.1563 Z "/><text fill="#000000" font-family="sans-serif" font-size="12" lengthAdjust="spacingAndGlyphs" textLength="159" x="2038.75" y="451.9209">SalesRevenueReportMenuUI</text><line style="stroke: #A80036; stroke-width: 1.5;" x1="1913" x2="2291" y1="463.5" y2="463.5"/><line style="stroke: #A80036; stroke-width: 1.5;" x1="1913" x2="2291" y1="471.5" y2="471.5"/><polygon fill="#FFFF44" points="1923,478.3997,1927,482.3997,1923,486.3997,1919,482.3997" style="stroke: #B38D22; stroke-width: 1.0;"/><text fill="#000000" font-family="sans-serif" font-size="11" lengthAdjust="spacingAndGlyphs" textLength="140" x="1932" y="485.9521">generateMenuScreen(): int</text><rect fill="#F24D5C" height="6" style="stroke: #C82930; stroke-width: 1.0;" width="6" x="1920" y="493.199"/><text fill="#000000" font-family="sans-serif" font-size="11" lengthAdjust="spacingAndGlyphs" textLength="140" x="1932" y="498.7515">generateDayReport(): void</text><rect fill="#F24D5C" height="6" style="stroke: #C82930; stroke-width: 1.0;" width="6" x="1920" y="505.9983"/><text fill="#000000" font-family="sans-serif" font-size="11" lengthAdjust="spacingAndGlyphs" textLength="154" x="1932" y="511.5508">generatePeriodReport(): void</text><rect fill="#F24D5C" height="6" style="stroke: #C82930; stroke-width: 1.0;" width="6" x="1920" y="518.7976"/><text fill="#000000" font-family="sans-serif" font-size="11" lengthAdjust="spacingAndGlyphs" textLength="354" x="1932" y="524.3501">generateItemList(invoices:ArrayList&lt;Invoice&gt;): ArrayList&lt;String&gt;</text></a><!--class sg.edu.ntu.scse.cz2002.ui.OrderMenuUI--><a target="_top" xlink:actuate="onRequest" xlink:href="../sg/edu/ntu/scse/cz2002/ui/OrderMenuUI.html" xlink:show="new" xlink:title="../sg/edu/ntu/scse/cz2002/ui/OrderMenuUI.html" xlink:type="simple"><rect fill="#FEFECE" filter="url(#f11j9z38rtnb7y)" height="239.9897" id="sg.edu.ntu.scse.cz2002.ui.OrderMenuUI" style="stroke: #A80036; stroke-width: 1.5;" width="436" x="2327" y="361"/><ellipse cx="2502.75" cy="377" fill="#ADD1B2" rx="11" ry="11" style="stroke: #A80036; stroke-width: 1.0;"/><path d="M2506.5781,382.6563 Q2504.7031,383.3125 2502.8906,383.3125 Q2500.2969,383.3125 2498.7109,381.5313 Q2497.125,379.75 2497.125,376.8438 Q2497.125,374.1563 2498.5313,372.3906 Q2499.3906,371.3125 2500.5078,370.8594 Q2501.625,370.4063 2503.4063,370.4063 Q2505.125,370.4063 2506.5781,370.7656 L2506.5781,372.75 Q2504.7031,372.0469 2503.4531,372.0469 Q2501.7656,372.0469 2500.7734,373.3672 Q2499.7813,374.6875 2499.7813,376.9219 Q2499.7813,378.9688 2500.8203,380.2656 Q2501.8594,381.5625 2503.5,381.5625 Q2504.8906,381.5625 2506.5781,380.7813 L2506.5781,382.6563 Z "/><text fill="#000000" font-family="sans-serif" font-size="12" lengthAdjust="spacingAndGlyphs" textLength="76" x="2523.25" y="381.4209">OrderMenuUI</text><line style="stroke: #A80036; stroke-width: 1.5;" x1="2328" x2="2762" y1="393" y2="393"/><ellipse cx="2338" cy="404.8997" fill="none" rx="3" ry="3" style="stroke: #038048; stroke-width: 1.0;"/><text fill="#000000" font-family="sans-serif" font-size="11" lengthAdjust="spacingAndGlyphs" text-decoration="underline" textLength="202" x="2347" y="407.4521">incompleteOrders: ArrayList&lt;Order&gt;</text><line style="stroke: #000000; stroke-width: 1.0;" x1="2347" x2="2549" y1="409.4521" y2="409.4521"/><line style="stroke: #A80036; stroke-width: 1.5;" x1="2328" x2="2762" y1="413.7993" y2="413.7993"/><polygon fill="#FFFF44" points="2338,420.699,2342,424.699,2338,428.699,2334,424.699" style="stroke: #B38D22; stroke-width: 1.0;"/><text fill="#000000" font-family="sans-serif" font-size="11" lengthAdjust="spacingAndGlyphs" textLength="140" x="2347" y="428.2515">generateMenuScreen(): int</text><rect fill="#F24D5C" height="6" style="stroke: #C82930; stroke-width: 1.0;" width="6" x="2335" y="435.4983"/><text fill="#000000" font-family="sans-serif" font-size="11" lengthAdjust="spacingAndGlyphs" textLength="244" x="2347" y="441.0508">editOrderMenuScreen(orderNumber:int): void</text><rect fill="#F24D5C" height="6" style="stroke: #C82930; stroke-width: 1.0;" width="6" x="2335" y="448.2976"/><text fill="#000000" font-family="sans-serif" font-size="11" lengthAdjust="spacingAndGlyphs" textLength="102" x="2347" y="453.8501">createOrder(): void</text><rect fill="#F24D5C" height="6" style="stroke: #C82930; stroke-width: 1.0;" width="6" x="2335" y="461.0969"/><text fill="#000000" font-family="sans-serif" font-size="11" lengthAdjust="spacingAndGlyphs" textLength="92" x="2347" y="466.6494">viewOrder(): void</text><rect fill="#F24D5C" height="6" style="stroke: #C82930; stroke-width: 1.0;" width="6" x="2335" y="473.8962"/><text fill="#000000" font-family="sans-serif" font-size="11" lengthAdjust="spacingAndGlyphs" textLength="89" x="2347" y="479.4487">editOrder(): void</text><rect fill="#F24D5C" height="6" style="stroke: #C82930; stroke-width: 1.0;" width="6" x="2335" y="486.6956"/><text fill="#000000" font-family="sans-serif" font-size="11" lengthAdjust="spacingAndGlyphs" textLength="154" x="2347" y="492.248">addOrderItem(o:Order): void</text><rect fill="#F24D5C" height="6" style="stroke: #C82930; stroke-width: 1.0;" width="6" x="2335" y="499.4949"/><text fill="#000000" font-family="sans-serif" font-size="11" lengthAdjust="spacingAndGlyphs" textLength="168" x="2347" y="505.0474">addAlaCarteItem(o:Order): void</text><rect fill="#F24D5C" height="6" style="stroke: #C82930; stroke-width: 1.0;" width="6" x="2335" y="512.2942"/><text fill="#000000" font-family="sans-serif" font-size="11" lengthAdjust="spacingAndGlyphs" textLength="154" x="2347" y="517.8467">editOrderItem(o:Order): void</text><rect fill="#F24D5C" height="6" style="stroke: #C82930; stroke-width: 1.0;" width="6" x="2335" y="525.0935"/><text fill="#000000" font-family="sans-serif" font-size="11" lengthAdjust="spacingAndGlyphs" textLength="174" x="2347" y="530.646">removeOrderItem(o:Order): void</text><rect fill="#F24D5C" height="6" style="stroke: #C82930; stroke-width: 1.0;" width="6" x="2335" y="537.8928"/><text fill="#000000" font-family="sans-serif" font-size="11" lengthAdjust="spacingAndGlyphs" textLength="255" x="2347" y="543.4453">findOrder(id:int, allowFromPaid:boolean): Order</text><ellipse cx="2338" cy="553.6921" fill="#84BE84" rx="3" ry="3" style="stroke: #038048; stroke-width: 1.0;"/><text fill="#000000" font-family="sans-serif" font-size="11" lengthAdjust="spacingAndGlyphs" text-decoration="underline" textLength="410" x="2347" y="556.2446">printOrderList(orders:ArrayList&lt;Order&gt;, tag:String, tableSort:boolean): void</text><line style="stroke: #000000; stroke-width: 1.0;" x1="2347" x2="2757" y1="558.2446" y2="558.2446"/><rect fill="#F24D5C" height="6" style="stroke: #C82930; stroke-width: 1.0;" width="6" x="2335" y="563.4915"/><text fill="#000000" font-family="sans-serif" font-size="11" lengthAdjust="spacingAndGlyphs" textLength="173" x="2347" y="569.0439">printOrderDetails(o:Order): void</text><rect fill="#F24D5C" height="6" style="stroke: #C82930; stroke-width: 1.0;" width="6" x="2335" y="576.2908"/><text fill="#000000" font-family="sans-serif" font-size="11" lengthAdjust="spacingAndGlyphs" textLength="257" x="2347" y="581.8433">getOrderItemToEdit(o:Order, prompt:String): int</text><ellipse cx="2338" cy="592.0901" fill="#84BE84" rx="3" ry="3" style="stroke: #038048; stroke-width: 1.0;"/><text fill="#000000" font-family="sans-serif" font-size="11" lengthAdjust="spacingAndGlyphs" text-decoration="underline" textLength="387" x="2347" y="594.6426">printOrderItems(items:ArrayList&lt;OrderItem&gt;, prettyPrint:boolean): void</text><line style="stroke: #000000; stroke-width: 1.0;" x1="2347" x2="2734" y1="596.6426" y2="596.6426"/></a><!--class java.lang.IllegalStateException--><rect fill="#FEFECE" filter="url(#f11j9z38rtnb7y)" height="48" id="java.lang.IllegalStateException" style="stroke: #A80036; stroke-width: 1.5;" width="149" x="2187.5" y="43"/><ellipse cx="2202.5" cy="59" fill="#ADD1B2" rx="11" ry="11" style="stroke: #A80036; stroke-width: 1.0;"/><path d="M2206.3281,64.6563 Q2204.4531,65.3125 2202.6406,65.3125 Q2200.0469,65.3125 2198.4609,63.5313 Q2196.875,61.75 2196.875,58.8438 Q2196.875,56.1563 2198.2813,54.3906 Q2199.1406,53.3125 2200.2578,52.8594 Q2201.375,52.4063 2203.1563,52.4063 Q2204.875,52.4063 2206.3281,52.7656 L2206.3281,54.75 Q2204.4531,54.0469 2203.2031,54.0469 Q2201.5156,54.0469 2200.5234,55.3672 Q2199.5313,56.6875 2199.5313,58.9219 Q2199.5313,60.9688 2200.5703,62.2656 Q2201.6094,63.5625 2203.25,63.5625 Q2204.6406,63.5625 2206.3281,62.7813 L2206.3281,64.6563 Z "/><text fill="#000000" font-family="sans-serif" font-size="12" lengthAdjust="spacingAndGlyphs" textLength="117" x="2216.5" y="63.4209">IllegalStateException</text><line style="stroke: #A80036; stroke-width: 1.5;" x1="2188.5" x2="2335.5" y1="75" y2="75"/><line style="stroke: #A80036; stroke-width: 1.5;" x1="2188.5" x2="2335.5" y1="83" y2="83"/><!--link sg.edu.ntu.scse.cz2002.ui.BaseMenu to sg.edu.ntu.scse.cz2002.ui.ReservationMenuUI--><path d="M1220.6078,235.5143 C1038.7321,249.563 737.7885,283.1849 490,361 C477.7676,364.8415 465.3859,369.2248 453.0255,373.9911 " fill="none" id="sg.edu.ntu.scse.cz2002.ui.BaseMenu-sg.edu.ntu.scse.cz2002.ui.ReservationMenuUI" style="stroke: #A80036; stroke-width: 1.0;"/><polygon fill="none" points="1220.355,228.5136,1240.8232,233.9956,1221.4038,242.4743,1220.355,228.5136" style="stroke: #A80036; stroke-width: 1.0;"/><!--link java.lang.IllegalStateException to sg.edu.ntu.scse.cz2002.ui.MenuChoiceInvalidException--><path d="M2262,111.2874 C2262,138.0516 2262,171.4886 2262,195.3447 " fill="none" id="java.lang.IllegalStateException-sg.edu.ntu.scse.cz2002.ui.MenuChoiceInvalidException" style="stroke: #A80036; stroke-width: 1.0;"/><polygon fill="none" points="2255.0001,111.1487,2262,91.1487,2269.0001,111.1486,2255.0001,111.1487" style="stroke: #A80036; stroke-width: 1.0;"/><!--link sg.edu.ntu.scse.cz2002.ui.BaseMenu to sg.edu.ntu.scse.cz2002.ui.FoodMenuUI--><path d="M1220.8579,245.0571 C1045.1274,267.7947 778.8667,309.3074 691,361 C667.0605,375.0838 646.1638,396.9948 629.6856,418.26 " fill="none" id="sg.edu.ntu.scse.cz2002.ui.BaseMenu-sg.edu.ntu.scse.cz2002.ui.FoodMenuUI" style="stroke: #A80036; stroke-width: 1.0;"/><polygon fill="none" points="1220.0304,238.106,1240.7568,242.5124,1221.8063,251.9929,1220.0304,238.106" style="stroke: #A80036; stroke-width: 1.0;"/><!--link sg.edu.ntu.scse.cz2002.ui.BaseMenu to sg.edu.ntu.scse.cz2002.ui.PromotionMenuUI--><path d="M1221.1336,245.5538 C1120.1484,263.5202 991.2175,297.4775 892,361 C868.9524,375.7559 848.4349,397.4202 832.013,418.2946 " fill="none" id="sg.edu.ntu.scse.cz2002.ui.BaseMenu-sg.edu.ntu.scse.cz2002.ui.PromotionMenuUI" style="stroke: #A80036; stroke-width: 1.0;"/><polygon fill="none" points="1220.0478,238.638,1240.941,242.1697,1222.4056,252.438,1220.0478,238.638" style="stroke: #A80036; stroke-width: 1.0;"/><!--link sg.edu.ntu.scse.cz2002.ui.BaseMenu to sg.edu.ntu.scse.cz2002.ui.CheckoutMenuUI--><path d="M1312.6075,317.0255 C1293.2404,341.7184 1272.3103,368.4044 1253.0737,392.931 " fill="none" id="sg.edu.ntu.scse.cz2002.ui.BaseMenu-sg.edu.ntu.scse.cz2002.ui.CheckoutMenuUI" style="stroke: #A80036; stroke-width: 1.0;"/><polygon fill="none" points="1307.2243,312.5463,1325.0751,301.1292,1318.2403,321.1863,1307.2243,312.5463" style="stroke: #A80036; stroke-width: 1.0;"/><!--link sg.edu.ntu.scse.cz2002.ui.BaseMenu to sg.edu.ntu.scse.cz2002.ui.MainMenuUI--><path d="M1455.6701,316.9247 C1490.164,360.6857 1529.6079,410.7265 1555.7729,443.9208 " fill="none" id="sg.edu.ntu.scse.cz2002.ui.BaseMenu-sg.edu.ntu.scse.cz2002.ui.MainMenuUI" style="stroke: #A80036; stroke-width: 1.0;"/><polygon fill="none" points="1450.1029,321.1697,1443.2195,301.1292,1461.0979,312.503,1450.1029,321.1697" style="stroke: #A80036; stroke-width: 1.0;"/><!--link sg.edu.ntu.scse.cz2002.ui.BaseMenu to sg.edu.ntu.scse.cz2002.ui.StaffMgmtMenuUI--><path d="M1545.6811,280.2155 C1595.5648,301.1333 1648.922,328.077 1693,361 C1716.5618,378.5989 1738.2191,402.7061 1755.3854,424.6981 " fill="none" id="sg.edu.ntu.scse.cz2002.ui.BaseMenu-sg.edu.ntu.scse.cz2002.ui.StaffMgmtMenuUI" style="stroke: #A80036; stroke-width: 1.0;"/><polygon fill="none" points="1542.9923,286.6787,1527.1222,272.6379,1548.2844,273.7175,1542.9923,286.6787" style="stroke: #A80036; stroke-width: 1.0;"/><!--link sg.edu.ntu.scse.cz2002.ui.BaseMenu to sg.edu.ntu.scse.cz2002.ui.SalesRevenueReportMenuUI--><path d="M1546.8982,257.3757 C1649.1027,279.8852 1782.3838,314.4679 1895,361 C1941.0696,380.0356 1989.4324,407.5925 2027.8157,431.4994 " fill="none" id="sg.edu.ntu.scse.cz2002.ui.BaseMenu-sg.edu.ntu.scse.cz2002.ui.SalesRevenueReportMenuUI" style="stroke: #A80036; stroke-width: 1.0;"/><polygon fill="none" points="1545.2738,264.1862,1527.2129,253.1044,1548.2424,250.5045,1545.2738,264.1862" style="stroke: #A80036; stroke-width: 1.0;"/><!--link sg.edu.ntu.scse.cz2002.ui.BaseMenu to sg.edu.ntu.scse.cz2002.ui.OrderMenuUI--><path d="M1547.2647,233.6771 C1735.1369,246.1729 2051.0573,278.4972 2310,361 C2315.5651,362.7731 2321.1588,364.6673 2326.7645,366.6661 " fill="none" id="sg.edu.ntu.scse.cz2002.ui.BaseMenu-sg.edu.ntu.scse.cz2002.ui.OrderMenuUI" style="stroke: #A80036; stroke-width: 1.0;"/><polygon fill="none" points="1546.7561,240.659,1527.247,232.3887,1547.6554,226.6879,1546.7561,240.659" style="stroke: #A80036; stroke-width: 1.0;"/><text fill="#888888" font-family="sans-serif" font-size="10" lengthAdjust="spacingAndGlyphs" textLength="182" x="1307.5" y="636.502">UMLDoclet 1.1.3, PlantUML 1.2018.12</text><!--
@startuml

    namespace sg.edu.ntu.scse.cz2002.ui {

        class ReservationMenuUI [[../sg/edu/ntu/scse/cz2002/ui/ReservationMenuUI.html]] {
            -input: Scanner
            -MAX_TABLES: int
            #generateMenuScreen(): int
            -createReservationBooking(): void
            -findTableForReservation(numPax:int, resvDate:LocalDate, resvSession:char): int
            -checkReservationBooking(): void
            -removeReservationBooking(): void
            -checkExpiredReservations(): void
            -listReservations(): void
            -printReservationLine(r:Reservation): void
            -printReservationLine(telNo:String): int
            -checkMorningSessionDate(date:LocalDate, isToday:boolean): boolean
            -checkEveningSessionDate(date:LocalDate, isToday:boolean): boolean
        }

        class MenuChoiceInvalidException [[../sg/edu/ntu/scse/cz2002/ui/MenuChoiceInvalidException.html]] {
            +MenuChoiceInvalidException(tag:String)
        }

        class FoodMenuUI [[../sg/edu/ntu/scse/cz2002/ui/FoodMenuUI.html]] {
            -sc: Scanner
            #generateMenuScreen(): int
            -printMenu(): void
            -addNewMenuItem(): void
            -editMenuItem(): void
            -deleteMenuItem(): void
        }

        class PromotionMenuUI [[../sg/edu/ntu/scse/cz2002/ui/PromotionMenuUI.html]] {
            -sc: Scanner
            #generateMenuScreen(): int
            +printPromotion(): void
            +addNewPromotion(): void
            +editPromotion(): void
            +deletePromotion(): void
        }

        class CheckoutMenuUI [[../sg/edu/ntu/scse/cz2002/ui/CheckoutMenuUI.html]] {
            {static} -RECEIPT_SUBFOLDER: String
            #generateMenuScreen(): int
            -checkout(): boolean
            -reprint(): void
            -generateReceipt(o:Order, total:double, paid:double, type:Invoice.PaymentType): ArrayList<String>
            -centerText(toCenter:String, length:int, spacer:char): String
            -spacer(length:int, spacer:char): String
            -requestCashPayment(total:double): double
            -writeReceipt(receipt:ArrayList<String>, receiptId:int): boolean
            -printOrderDetails(o:Order): double
        }

        class MainMenuUI [[../sg/edu/ntu/scse/cz2002/ui/MainMenuUI.html]] {
            #generateMenuScreen(): int
            -checkTableAvailability(): void
        }

        class StaffMgmtMenuUI [[../sg/edu/ntu/scse/cz2002/ui/StaffMgmtMenuUI.html]] {
            #generateMenuScreen(): int
            -createNewStaff(): void
            -editStaffInfo(): void
            -removeStaff(): void
            -listAllStaff(): void
        }

        abstract class BaseMenu [[../sg/edu/ntu/scse/cz2002/ui/BaseMenu.html]] {
            {static} -PRINT_WINDOW_MAX_SIZE: int
            +startMainMenu(): boolean
            {static} #printHeader(headerName:String): void
            {static} #printHeader(headerName:String, length:int): void
            {static} #printBreaks(length:int): void
            {static} #printBreaks(): void
            {static} #doMenuChoice(max:int, specialEscape:int): int
            {abstract} #generateMenuScreen(): int
        }

        class SalesRevenueReportMenuUI [[../sg/edu/ntu/scse/cz2002/ui/SalesRevenueReportMenuUI.html]] {
            #generateMenuScreen(): int
            -generateDayReport(): void
            -generatePeriodReport(): void
            -generateItemList(invoices:ArrayList<Invoice>): ArrayList<String>
        }

        class OrderMenuUI [[../sg/edu/ntu/scse/cz2002/ui/OrderMenuUI.html]] {
            {static} +incompleteOrders: ArrayList<Order>
            #generateMenuScreen(): int
            -editOrderMenuScreen(orderNumber:int): void
            -createOrder(): void
            -viewOrder(): void
            -editOrder(): void
            -addOrderItem(o:Order): void
            -addAlaCarteItem(o:Order): void
            -editOrderItem(o:Order): void
            -removeOrderItem(o:Order): void
            -findOrder(id:int, allowFromPaid:boolean): Order
            {static} +printOrderList(orders:ArrayList<Order>, tag:String, tableSort:boolean): void
            -printOrderDetails(o:Order): void
            -getOrderItemToEdit(o:Order, prompt:String): int
            {static} +printOrderItems(items:ArrayList<OrderItem>, prettyPrint:boolean): void
        }

        BaseMenu <|- - ReservationMenuUI

        class java.lang.IllegalStateException
        java.lang.IllegalStateException <|- - MenuChoiceInvalidException

        BaseMenu <|- - FoodMenuUI

        BaseMenu <|- - PromotionMenuUI

        BaseMenu <|- - CheckoutMenuUI

        BaseMenu <|- - MainMenuUI

        BaseMenu <|- - StaffMgmtMenuUI

        BaseMenu <|- - SalesRevenueReportMenuUI

        BaseMenu <|- - OrderMenuUI

    }


    center footer UMLDoclet 1.1.3, PlantUML 1.2018.12
@enduml

PlantUML version 1.2018.12(Sun Oct 21 10:15:15 GMT 2018)
(APACHE source distribution)
Java Runtime: Java(TM) SE Runtime Environment
JVM: Java HotSpot(TM) 64-Bit Server VM
Java Version: 1.8.0_202-b08
Operating System: Linux
OS Version: 4.19.23-coreos-r1
Default Encoding: UTF-8
Language: en
Country: null
--></g></svg>