<?xml version="1.0" encoding="UTF-8" standalone="no"?><svg xmlns="http://www.w3.org/2000/svg" xmlns:xlink="http://www.w3.org/1999/xlink" contentScriptType="application/ecmascript" contentStyleType="text/css" height="319px" preserveAspectRatio="none" style="width:294px;height:319px;" version="1.1" viewBox="0 0 294 319" width="294px" zoomAndPan="magnify"><defs><filter height="300%" id="f1g74ang2s5ykk" width="300%" x="-1" y="-1"><feGaussianBlur result="blurOut" stdDeviation="2.0"/><feColorMatrix in="blurOut" result="blurOut2" type="matrix" values="0 0 0 0 0 0 0 0 0 0 0 0 0 0 0 0 0 0 .4 0"/><feOffset dx="4.0" dy="4.0" in="blurOut2" result="blurOut3"/><feBlend in="SourceGraphic" in2="blurOut3" mode="normal"/></filter></defs><g><!--cluster sg.edu.ntu.scse.cz2002--><polygon fill="#FFFFFF" filter="url(#f1g74ang2s5ykk)" points="14,16,181,16,188,38.29,272,38.29,272,278,14,278,14,16" style="stroke: #000000; stroke-width: 1.5;"/><line style="stroke: #000000; stroke-width: 1.5;" x1="14" x2="188" y1="38.29" y2="38.29"/><text fill="#000000" font-family="sans-serif" font-size="14" font-weight="bold" lengthAdjust="spacingAndGlyphs" textLength="161" x="18" y="31.3369">sg.edu.ntu.scse.cz2002</text><!--class sg.edu.ntu.scse.cz2002.MainApp--><a target="_top" xlink:actuate="onRequest" xlink:href="../sg/edu/ntu/scse/cz2002/MainApp.html" xlink:show="new" xlink:title="../sg/edu/ntu/scse/cz2002/MainApp.html" xlink:type="simple"><rect fill="#FEFECE" filter="url(#f1g74ang2s5ykk)" height="227.1904" id="sg.edu.ntu.scse.cz2002.MainApp" style="stroke: #A80036; stroke-width: 1.5;" width="241" x="22.5" y="43"/><ellipse cx="113.25" cy="59" fill="#ADD1B2" rx="11" ry="11" style="stroke: #A80036; stroke-width: 1.0;"/><path d="M117.0781,64.6563 Q115.2031,65.3125 113.3906,65.3125 Q110.7969,65.3125 109.2109,63.5313 Q107.625,61.75 107.625,58.8438 Q107.625,56.1563 109.0313,54.3906 Q109.8906,53.3125 111.0078,52.8594 Q112.125,52.4063 113.9063,52.4063 Q115.625,52.4063 117.0781,52.7656 L117.0781,54.75 Q115.2031,54.0469 113.9531,54.0469 Q112.2656,54.0469 111.2734,55.3672 Q110.2813,56.6875 110.2813,58.9219 Q110.2813,60.9688 111.3203,62.2656 Q112.3594,63.5625 114,63.5625 Q115.3906,63.5625 117.0781,62.7813 L117.0781,64.6563 Z "/><text fill="#000000" font-family="sans-serif" font-size="12" lengthAdjust="spacingAndGlyphs" textLength="51" x="133.75" y="63.4209">MainApp</text><line style="stroke: #A80036; stroke-width: 1.5;" x1="23.5" x2="262.5" y1="75" y2="75"/><ellipse cx="33.5" cy="86.8997" fill="none" rx="3" ry="3" style="stroke: #038048; stroke-width: 1.0;"/><text fill="#000000" font-family="sans-serif" font-size="11" lengthAdjust="spacingAndGlyphs" text-decoration="underline" textLength="95" x="42.5" y="89.4521">APP_NAME: String</text><line style="stroke: #000000; stroke-width: 1.0;" x1="42.5" x2="137.5" y1="91.4521" y2="91.4521"/><ellipse cx="33.5" cy="99.699" fill="none" rx="3" ry="3" style="stroke: #038048; stroke-width: 1.0;"/><text fill="#000000" font-family="sans-serif" font-size="11" lengthAdjust="spacingAndGlyphs" text-decoration="underline" textLength="134" x="42.5" y="102.2515">tables: ArrayList&lt;Table&gt;</text><line style="stroke: #000000; stroke-width: 1.0;" x1="42.5" x2="176.5" y1="104.2515" y2="104.2515"/><ellipse cx="33.5" cy="112.4983" fill="none" rx="3" ry="3" style="stroke: #038048; stroke-width: 1.0;"/><text fill="#000000" font-family="sans-serif" font-size="11" lengthAdjust="spacingAndGlyphs" text-decoration="underline" textLength="184" x="42.5" y="115.0508">menuItems: ArrayList&lt;MenuItem&gt;</text><line style="stroke: #000000; stroke-width: 1.0;" x1="42.5" x2="226.5" y1="117.0508" y2="117.0508"/><ellipse cx="33.5" cy="125.2976" fill="none" rx="3" ry="3" style="stroke: #038048; stroke-width: 1.0;"/><text fill="#000000" font-family="sans-serif" font-size="11" lengthAdjust="spacingAndGlyphs" text-decoration="underline" textLength="155" x="42.5" y="127.8501">invoices: ArrayList&lt;Invoice&gt;</text><line style="stroke: #000000; stroke-width: 1.0;" x1="42.5" x2="197.5" y1="129.8501" y2="129.8501"/><ellipse cx="33.5" cy="138.0969" fill="none" rx="3" ry="3" style="stroke: #038048; stroke-width: 1.0;"/><text fill="#000000" font-family="sans-serif" font-size="11" lengthAdjust="spacingAndGlyphs" text-decoration="underline" textLength="203" x="42.5" y="140.6494">reservations: ArrayList&lt;Reservation&gt;</text><line style="stroke: #000000; stroke-width: 1.0;" x1="42.5" x2="245.5" y1="142.6494" y2="142.6494"/><ellipse cx="33.5" cy="150.8962" fill="none" rx="3" ry="3" style="stroke: #038048; stroke-width: 1.0;"/><text fill="#000000" font-family="sans-serif" font-size="11" lengthAdjust="spacingAndGlyphs" text-decoration="underline" textLength="215" x="42.5" y="153.4487">promotions: ArrayList&lt;PromotionItem&gt;</text><line style="stroke: #000000; stroke-width: 1.0;" x1="42.5" x2="257.5" y1="155.4487" y2="155.4487"/><ellipse cx="33.5" cy="163.6956" fill="none" rx="3" ry="3" style="stroke: #038048; stroke-width: 1.0;"/><text fill="#000000" font-family="sans-serif" font-size="11" lengthAdjust="spacingAndGlyphs" text-decoration="underline" textLength="127" x="42.5" y="166.248">staffs: ArrayList&lt;Staff&gt;</text><line style="stroke: #000000; stroke-width: 1.0;" x1="42.5" x2="169.5" y1="168.248" y2="168.248"/><ellipse cx="33.5" cy="176.4949" fill="none" rx="3" ry="3" style="stroke: #038048; stroke-width: 1.0;"/><text fill="#000000" font-family="sans-serif" font-size="11" lengthAdjust="spacingAndGlyphs" text-decoration="underline" textLength="127" x="42.5" y="179.0474">restaurantSession: char</text><line style="stroke: #000000; stroke-width: 1.0;" x1="42.5" x2="169.5" y1="181.0474" y2="181.0474"/><ellipse cx="33.5" cy="189.2942" fill="none" rx="3" ry="3" style="stroke: #038048; stroke-width: 1.0;"/><text fill="#000000" font-family="sans-serif" font-size="11" lengthAdjust="spacingAndGlyphs" text-decoration="underline" textLength="85" x="42.5" y="191.8467">DEBUG: boolean</text><line style="stroke: #000000; stroke-width: 1.0;" x1="42.5" x2="127.5" y1="193.8467" y2="193.8467"/><line style="stroke: #A80036; stroke-width: 1.5;" x1="23.5" x2="262.5" y1="198.1938" y2="198.1938"/><rect fill="#F24D5C" height="6" style="stroke: #C82930; stroke-width: 1.0;" width="6" x="30.5" y="207.0935"/><text fill="#000000" font-family="sans-serif" font-size="11" lengthAdjust="spacingAndGlyphs" text-decoration="underline" textLength="54" x="42.5" y="212.646">init(): void</text><line style="stroke: #000000; stroke-width: 1.0;" x1="42.5" x2="96.5" y1="214.646" y2="214.646"/><ellipse cx="33.5" cy="222.8928" fill="#84BE84" rx="3" ry="3" style="stroke: #038048; stroke-width: 1.0;"/><text fill="#000000" font-family="sans-serif" font-size="11" lengthAdjust="spacingAndGlyphs" text-decoration="underline" textLength="95" x="42.5" y="225.4453">saveAll(): boolean</text><line style="stroke: #000000; stroke-width: 1.0;" x1="42.5" x2="137.5" y1="227.4453" y2="227.4453"/><ellipse cx="33.5" cy="235.6921" fill="#84BE84" rx="3" ry="3" style="stroke: #038048; stroke-width: 1.0;"/><text fill="#000000" font-family="sans-serif" font-size="11" lengthAdjust="spacingAndGlyphs" text-decoration="underline" textLength="130" x="42.5" y="238.2446">main(args:String[]): void</text><line style="stroke: #000000; stroke-width: 1.0;" x1="42.5" x2="172.5" y1="240.2446" y2="240.2446"/><rect fill="#F24D5C" height="6" style="stroke: #C82930; stroke-width: 1.0;" width="6" x="30.5" y="245.4915"/><text fill="#000000" font-family="sans-serif" font-size="11" lengthAdjust="spacingAndGlyphs" text-decoration="underline" textLength="136" x="42.5" y="251.0439">printWelcomeAscii(): void</text><line style="stroke: #000000; stroke-width: 1.0;" x1="42.5" x2="178.5" y1="253.0439" y2="253.0439"/><rect fill="#F24D5C" height="6" style="stroke: #C82930; stroke-width: 1.0;" width="6" x="30.5" y="258.2908"/><text fill="#000000" font-family="sans-serif" font-size="11" lengthAdjust="spacingAndGlyphs" text-decoration="underline" textLength="161" x="42.5" y="263.8433">checkTodayReservations(): int</text><line style="stroke: #000000; stroke-width: 1.0;" x1="42.5" x2="203.5" y1="265.8433" y2="265.8433"/></a><text fill="#888888" font-family="sans-serif" font-size="10" lengthAdjust="spacingAndGlyphs" textLength="182" x="58" y="305.502">UMLDoclet 1.1.3, PlantUML 1.2018.12</text><!--
@startuml

    namespace sg.edu.ntu.scse.cz2002 {

        class MainApp [[../sg/edu/ntu/scse/cz2002/MainApp.html]] {
            {static} +APP_NAME: String
            {static} +tables: ArrayList<Table>
            {static} +menuItems: ArrayList<MenuItem>
            {static} +invoices: ArrayList<Invoice>
            {static} +reservations: ArrayList<Reservation>
            {static} +promotions: ArrayList<PromotionItem>
            {static} +staffs: ArrayList<Staff>
            {static} +restaurantSession: char
            {static} +DEBUG: boolean
            {static} -init(): void
            {static} +saveAll(): boolean
            {static} +main(args:String[]): void
            {static} -printWelcomeAscii(): void
            {static} -checkTodayReservations(): int
        }

    }


    center footer UMLDoclet 1.1.3, PlantUML 1.2018.12
@enduml

PlantUML version 1.2018.12(Sun Oct 21 10:15:15 GMT 2018)
(APACHE source distribution)
Java Runtime: Java(TM) SE Runtime Environment
JVM: Java HotSpot(TM) 64-Bit Server VM
Java Version: 1.8.0_202-b08
Operating System: Linux
OS Version: 4.19.23-coreos-r1
Default Encoding: UTF-8
Language: en
Country: null
--></g></svg>