<?xml version="1.0" encoding="UTF-8" standalone="no"?><svg xmlns="http://www.w3.org/2000/svg" xmlns:xlink="http://www.w3.org/1999/xlink" contentScriptType="application/ecmascript" contentStyleType="text/css" height="179px" preserveAspectRatio="none" style="width:264px;height:179px;" version="1.1" viewBox="0 0 264 179" width="264px" zoomAndPan="magnify"><defs><filter height="300%" id="f1pzrxawhro4vu" width="300%" x="-1" y="-1"><feGaussianBlur result="blurOut" stdDeviation="2.0"/><feColorMatrix in="blurOut" result="blurOut2" type="matrix" values="0 0 0 0 0 0 0 0 0 0 0 0 0 0 0 0 0 0 .4 0"/><feOffset dx="4.0" dy="4.0" in="blurOut2" result="blurOut3"/><feBlend in="SourceGraphic" in2="blurOut3" mode="normal"/></filter></defs><g><!--class StaffCSVHelper--><a target="_top" xlink:actuate="onRequest" xlink:href="../sg/edu/ntu/scse/cz2002/util/StaffCSVHelper.html" xlink:show="new" xlink:title="../sg/edu/ntu/scse/cz2002/util/StaffCSVHelper.html" xlink:type="simple"><rect fill="#FEFECE" filter="url(#f1pzrxawhro4vu)" height="137.5952" id="StaffCSVHelper" style="stroke: #A80036; stroke-width: 1.5;" width="247" x="6" y="8"/><ellipse cx="82.25" cy="24" fill="#ADD1B2" rx="11" ry="11" style="stroke: #A80036; stroke-width: 1.0;"/><path d="M86.0781,29.6563 Q84.2031,30.3125 82.3906,30.3125 Q79.7969,30.3125 78.2109,28.5313 Q76.625,26.75 76.625,23.8438 Q76.625,21.1563 78.0313,19.3906 Q78.8906,18.3125 80.0078,17.8594 Q81.125,17.4063 82.9063,17.4063 Q84.625,17.4063 86.0781,17.7656 L86.0781,19.75 Q84.2031,19.0469 82.9531,19.0469 Q81.2656,19.0469 80.2734,20.3672 Q79.2813,21.6875 79.2813,23.9219 Q79.2813,25.9688 80.3203,27.2656 Q81.3594,28.5625 83,28.5625 Q84.3906,28.5625 86.0781,27.7813 L86.0781,29.6563 Z "/><text fill="#000000" font-family="sans-serif" font-size="12" lengthAdjust="spacingAndGlyphs" textLength="86" x="102.75" y="28.4209">StaffCSVHelper</text><line style="stroke: #A80036; stroke-width: 1.5;" x1="7" x2="252" y1="40" y2="40"/><rect fill="none" height="6" style="stroke: #C82930; stroke-width: 1.0;" width="6" x="14" y="48.8997"/><text fill="#000000" font-family="sans-serif" font-size="11" lengthAdjust="spacingAndGlyphs" text-decoration="underline" textLength="141" x="26" y="54.4521">mInstance: StaffCSVHelper</text><line style="stroke: #000000; stroke-width: 1.0;" x1="26" x2="167" y1="56.4521" y2="56.4521"/><rect fill="none" height="6" style="stroke: #C82930; stroke-width: 1.0;" width="6" x="14" y="61.699"/><text fill="#000000" font-family="sans-serif" font-size="11" lengthAdjust="spacingAndGlyphs" textLength="82" x="26" y="67.2515">staffCsv: String</text><line style="stroke: #A80036; stroke-width: 1.5;" x1="7" x2="252" y1="73.5986" y2="73.5986"/><rect fill="#F24D5C" height="6" style="stroke: #C82930; stroke-width: 1.0;" width="6" x="14" y="82.4983"/><text fill="#000000" font-family="sans-serif" font-size="11" lengthAdjust="spacingAndGlyphs" textLength="88" x="26" y="88.0508">StaffCSVHelper()</text><ellipse cx="17" cy="98.2976" fill="#84BE84" rx="3" ry="3" style="stroke: #038048; stroke-width: 1.0;"/><text fill="#000000" font-family="sans-serif" font-size="11" lengthAdjust="spacingAndGlyphs" text-decoration="line-through" textLength="80" x="26" y="100.8501">StaffCSVHelper</text><text fill="#000000" font-family="sans-serif" font-size="11" lengthAdjust="spacingAndGlyphs" textLength="88" x="109" y="100.8501">(filename:String)</text><ellipse cx="17" cy="111.0969" fill="#84BE84" rx="3" ry="3" style="stroke: #038048; stroke-width: 1.0;"/><text fill="#000000" font-family="sans-serif" font-size="11" lengthAdjust="spacingAndGlyphs" text-decoration="underline" textLength="156" x="26" y="113.6494">getInstance(): StaffCSVHelper</text><line style="stroke: #000000; stroke-width: 1.0;" x1="26" x2="182" y1="115.6494" y2="115.6494"/><ellipse cx="17" cy="123.8962" fill="#84BE84" rx="3" ry="3" style="stroke: #038048; stroke-width: 1.0;"/><text fill="#000000" font-family="sans-serif" font-size="11" lengthAdjust="spacingAndGlyphs" textLength="177" x="26" y="126.4487">readFromCsv(): ArrayList&lt;Staff&gt;</text><ellipse cx="17" cy="136.6956" fill="#84BE84" rx="3" ry="3" style="stroke: #038048; stroke-width: 1.0;"/><text fill="#000000" font-family="sans-serif" font-size="11" lengthAdjust="spacingAndGlyphs" textLength="221" x="26" y="139.248">writeToCsv(staffs:ArrayList&lt;Staff&gt;): void</text></a><text fill="#888888" font-family="sans-serif" font-size="10" lengthAdjust="spacingAndGlyphs" textLength="182" x="44.5" y="165.502">UMLDoclet 1.1.3, PlantUML 1.2018.12</text><!--
@startuml

    class StaffCSVHelper [[../sg/edu/ntu/scse/cz2002/util/StaffCSVHelper.html]] {
        {static} -mInstance: StaffCSVHelper
        -staffCsv: String
        -StaffCSVHelper()
        + - -StaffCSVHelper- - (filename:String)
        {static} +getInstance(): StaffCSVHelper
        +readFromCsv(): ArrayList<Staff>
        +writeToCsv(staffs:ArrayList<Staff>): void
    }


    center footer UMLDoclet 1.1.3, PlantUML 1.2018.12
@enduml

PlantUML version 1.2018.12(Sun Oct 21 10:15:15 GMT 2018)
(APACHE source distribution)
Java Runtime: Java(TM) SE Runtime Environment
JVM: Java HotSpot(TM) 64-Bit Server VM
Java Version: 1.8.0_202-b08
Operating System: Linux
OS Version: 4.19.23-coreos-r1
Default Encoding: UTF-8
Language: en
Country: null
--></g></svg>