<?xml version="1.0" encoding="UTF-8" standalone="no"?><svg xmlns="http://www.w3.org/2000/svg" xmlns:xlink="http://www.w3.org/1999/xlink" contentScriptType="application/ecmascript" contentStyleType="text/css" height="191px" preserveAspectRatio="none" style="width:545px;height:191px;" version="1.1" viewBox="0 0 545 191" width="545px" zoomAndPan="magnify"><defs><filter height="300%" id="f158mxvb695ykm" width="300%" x="-1" y="-1"><feGaussianBlur result="blurOut" stdDeviation="2.0"/><feColorMatrix in="blurOut" result="blurOut2" type="matrix" values="0 0 0 0 0 0 0 0 0 0 0 0 0 0 0 0 0 0 .4 0"/><feOffset dx="4.0" dy="4.0" in="blurOut2" result="blurOut3"/><feBlend in="SourceGraphic" in2="blurOut3" mode="normal"/></filter></defs><g><!--class FoodMenuUI--><a target="_top" xlink:actuate="onRequest" xlink:href="../sg/edu/ntu/scse/cz2002/ui/FoodMenuUI.html" xlink:show="new" xlink:title="../sg/edu/ntu/scse/cz2002/ui/FoodMenuUI.html" xlink:type="simple"><rect fill="#FEFECE" filter="url(#f158mxvb695ykm)" height="150.3945" id="FoodMenuUI" style="stroke: #A80036; stroke-width: 1.5;" width="528" x="6" y="8"/><ellipse cx="230.75" cy="24" fill="#ADD1B2" rx="11" ry="11" style="stroke: #A80036; stroke-width: 1.0;"/><path d="M234.5781,29.6563 Q232.7031,30.3125 230.8906,30.3125 Q228.2969,30.3125 226.7109,28.5313 Q225.125,26.75 225.125,23.8438 Q225.125,21.1563 226.5313,19.3906 Q227.3906,18.3125 228.5078,17.8594 Q229.625,17.4063 231.4063,17.4063 Q233.125,17.4063 234.5781,17.7656 L234.5781,19.75 Q232.7031,19.0469 231.4531,19.0469 Q229.7656,19.0469 228.7734,20.3672 Q227.7813,21.6875 227.7813,23.9219 Q227.7813,25.9688 228.8203,27.2656 Q229.8594,28.5625 231.5,28.5625 Q232.8906,28.5625 234.5781,27.7813 L234.5781,29.6563 Z "/><text fill="#000000" font-family="sans-serif" font-size="12" lengthAdjust="spacingAndGlyphs" textLength="70" x="251.25" y="28.4209">FoodMenuUI</text><line style="stroke: #A80036; stroke-width: 1.5;" x1="7" x2="533" y1="40" y2="40"/><rect fill="none" height="6" style="stroke: #C82930; stroke-width: 1.0;" width="6" x="14" y="48.8997"/><text fill="#000000" font-family="sans-serif" font-size="11" lengthAdjust="spacingAndGlyphs" textLength="61" x="26" y="54.4521">sc: Scanner</text><line style="stroke: #A80036; stroke-width: 1.5;" x1="7" x2="533" y1="60.7993" y2="60.7993"/><polygon fill="#FFFF44" points="17,67.699,21,71.699,17,75.699,13,71.699" style="stroke: #B38D22; stroke-width: 1.0;"/><text fill="#000000" font-family="sans-serif" font-size="11" lengthAdjust="spacingAndGlyphs" textLength="140" x="26" y="75.2515">generateMenuScreen(): int</text><rect fill="#F24D5C" height="6" style="stroke: #C82930; stroke-width: 1.0;" width="6" x="14" y="82.4983"/><text fill="#000000" font-family="sans-serif" font-size="11" lengthAdjust="spacingAndGlyphs" textLength="92" x="26" y="88.0508">printMenu(): void</text><rect fill="#F24D5C" height="6" style="stroke: #C82930; stroke-width: 1.0;" width="6" x="14" y="95.2976"/><text fill="#000000" font-family="sans-serif" font-size="11" lengthAdjust="spacingAndGlyphs" textLength="131" x="26" y="100.8501">addNewMenuItem(): void</text><rect fill="#F24D5C" height="6" style="stroke: #C82930; stroke-width: 1.0;" width="6" x="14" y="108.0969"/><text fill="#000000" font-family="sans-serif" font-size="11" lengthAdjust="spacingAndGlyphs" textLength="109" x="26" y="113.6494">editMenuItem(): void</text><rect fill="#F24D5C" height="6" style="stroke: #C82930; stroke-width: 1.0;" width="6" x="14" y="120.8962"/><text fill="#000000" font-family="sans-serif" font-size="11" lengthAdjust="spacingAndGlyphs" textLength="121" x="26" y="126.4487">deleteMenuItem(): void</text><ellipse cx="17" cy="136.6956" fill="#84BE84" rx="3" ry="3" style="stroke: #038048; stroke-width: 1.0;"/><text fill="#000000" font-family="sans-serif" font-size="11" lengthAdjust="spacingAndGlyphs" text-decoration="underline" textLength="242" x="26" y="139.248">retrieveMenuItem(targetItemID:int): MenuItem</text><line style="stroke: #000000; stroke-width: 1.0;" x1="26" x2="268" y1="141.248" y2="141.248"/><ellipse cx="17" cy="149.4949" fill="#84BE84" rx="3" ry="3" style="stroke: #038048; stroke-width: 1.0;"/><text fill="#000000" font-family="sans-serif" font-size="11" lengthAdjust="spacingAndGlyphs" text-decoration="underline" textLength="502" x="26" y="152.0474">retrieveMenuItemListFiltered(targetItemType:MenuItem.MenuItemType): ArrayList&lt;MenuItem&gt;</text><line style="stroke: #000000; stroke-width: 1.0;" x1="26" x2="528" y1="154.0474" y2="154.0474"/></a><text fill="#888888" font-family="sans-serif" font-size="10" lengthAdjust="spacingAndGlyphs" textLength="182" x="185" y="177.502">UMLDoclet 1.1.3, PlantUML 1.2018.12</text><!--
@startuml

    class FoodMenuUI [[../sg/edu/ntu/scse/cz2002/ui/FoodMenuUI.html]] {
        -sc: Scanner
        #generateMenuScreen(): int
        -printMenu(): void
        -addNewMenuItem(): void
        -editMenuItem(): void
        -deleteMenuItem(): void
        {static} +retrieveMenuItem(targetItemID:int): MenuItem
        {static} +retrieveMenuItemListFiltered(targetItemType:MenuItem.MenuItemType): ArrayList<MenuItem>
    }


    center footer UMLDoclet 1.1.3, PlantUML 1.2018.12
@enduml

PlantUML version 1.2018.12(Sun Oct 21 10:15:15 GMT 2018)
(APACHE source distribution)
Java Runtime: Java(TM) SE Runtime Environment
JVM: Java HotSpot(TM) 64-Bit Server VM
Java Version: 1.8.0_202-b08
Operating System: Linux
OS Version: 4.19.23-coreos-r1
Default Encoding: UTF-8
Language: en
Country: null
--></g></svg>