<?xml version="1.0" encoding="UTF-8" standalone="no"?><svg xmlns="http://www.w3.org/2000/svg" xmlns:xlink="http://www.w3.org/1999/xlink" contentScriptType="application/ecmascript" contentStyleType="text/css" height="179px" preserveAspectRatio="none" style="width:360px;height:179px;" version="1.1" viewBox="0 0 360 179" width="360px" zoomAndPan="magnify"><defs><filter height="300%" id="ft65rrg2w2tvp" width="300%" x="-1" y="-1"><feGaussianBlur result="blurOut" stdDeviation="2.0"/><feColorMatrix in="blurOut" result="blurOut2" type="matrix" values="0 0 0 0 0 0 0 0 0 0 0 0 0 0 0 0 0 0 .4 0"/><feOffset dx="4.0" dy="4.0" in="blurOut2" result="blurOut3"/><feBlend in="SourceGraphic" in2="blurOut3" mode="normal"/></filter></defs><g><!--class FoodMenuUI--><rect fill="#FEFECE" filter="url(#ft65rrg2w2tvp)" height="137.5952" id="FoodMenuUI" style="stroke: #A80036; stroke-width: 1.5;" width="343" x="6" y="8"/><ellipse cx="138.25" cy="24" fill="#ADD1B2" rx="11" ry="11" style="stroke: #A80036; stroke-width: 1.0;"/><path d="M142.0781,29.6563 Q140.2031,30.3125 138.3906,30.3125 Q135.7969,30.3125 134.2109,28.5313 Q132.625,26.75 132.625,23.8438 Q132.625,21.1563 134.0313,19.3906 Q134.8906,18.3125 136.0078,17.8594 Q137.125,17.4063 138.9063,17.4063 Q140.625,17.4063 142.0781,17.7656 L142.0781,19.75 Q140.2031,19.0469 138.9531,19.0469 Q137.2656,19.0469 136.2734,20.3672 Q135.2813,21.6875 135.2813,23.9219 Q135.2813,25.9688 136.3203,27.2656 Q137.3594,28.5625 139,28.5625 Q140.3906,28.5625 142.0781,27.7813 L142.0781,29.6563 Z "/><text fill="#000000" font-family="sans-serif" font-size="12" lengthAdjust="spacingAndGlyphs" textLength="70" x="158.75" y="28.4209">FoodMenuUI</text><line style="stroke: #A80036; stroke-width: 1.5;" x1="7" x2="348" y1="40" y2="40"/><line style="stroke: #A80036; stroke-width: 1.5;" x1="7" x2="348" y1="48" y2="48"/><polygon fill="#FFFF44" points="17,54.8997,21,58.8997,17,62.8997,13,58.8997" style="stroke: #B38D22; stroke-width: 1.0;"/><text fill="#000000" font-family="sans-serif" font-size="11" lengthAdjust="spacingAndGlyphs" textLength="140" x="26" y="62.4521">generateMenuScreen(): int</text><ellipse cx="17" cy="72.699" fill="#84BE84" rx="3" ry="3" style="stroke: #038048; stroke-width: 1.0;"/><text fill="#000000" font-family="sans-serif" font-size="11" lengthAdjust="spacingAndGlyphs" textLength="92" x="26" y="75.2515">printMenu(): void</text><ellipse cx="17" cy="85.4983" fill="#84BE84" rx="3" ry="3" style="stroke: #038048; stroke-width: 1.0;"/><text fill="#000000" font-family="sans-serif" font-size="11" lengthAdjust="spacingAndGlyphs" textLength="282" x="26" y="88.0508">addNewMenuItem(String, String, String, double): void</text><ellipse cx="17" cy="98.2976" fill="#84BE84" rx="3" ry="3" style="stroke: #038048; stroke-width: 1.0;"/><text fill="#000000" font-family="sans-serif" font-size="11" lengthAdjust="spacingAndGlyphs" textLength="280" x="26" y="100.8501">editMenuItem(int, String, String, String, double): void</text><ellipse cx="17" cy="111.0969" fill="#84BE84" rx="3" ry="3" style="stroke: #038048; stroke-width: 1.0;"/><text fill="#000000" font-family="sans-serif" font-size="11" lengthAdjust="spacingAndGlyphs" textLength="135" x="26" y="113.6494">deleteMenuItem(int): void</text><ellipse cx="17" cy="123.8962" fill="#84BE84" rx="3" ry="3" style="stroke: #038048; stroke-width: 1.0;"/><text fill="#000000" font-family="sans-serif" font-size="11" lengthAdjust="spacingAndGlyphs" text-decoration="underline" textLength="173" x="26" y="126.4487">retrieveMenuItem(int): MenuItem</text><line style="stroke: #000000; stroke-width: 1.0;" x1="26" x2="199" y1="128.4487" y2="128.4487"/><ellipse cx="17" cy="136.6956" fill="#84BE84" rx="3" ry="3" style="stroke: #038048; stroke-width: 1.0;"/><text fill="#000000" font-family="sans-serif" font-size="11" lengthAdjust="spacingAndGlyphs" text-decoration="underline" textLength="317" x="26" y="139.248">retrieveMenuItemListFiltered(String): ArrayList&lt;MenuItem&gt;</text><line style="stroke: #000000; stroke-width: 1.0;" x1="26" x2="343" y1="141.248" y2="141.248"/><text fill="#888888" font-family="sans-serif" font-size="10" lengthAdjust="spacingAndGlyphs" textLength="182" x="92.5" y="165.502">UMLDoclet 1.1.3, PlantUML 1.2018.12</text><!--
@startuml

    class FoodMenuUI {
        #generateMenuScreen(): int
        +printMenu(): void
        +addNewMenuItem(String, String, String, double): void
        +editMenuItem(int, String, String, String, double): void
        +deleteMenuItem(int): void
        {static} +retrieveMenuItem(int): MenuItem
        {static} +retrieveMenuItemListFiltered(String): ArrayList<MenuItem>
    }


    center footer UMLDoclet 1.1.3, PlantUML 1.2018.12
@enduml

PlantUML version 1.2018.12(Sun Oct 21 10:15:15 GMT 2018)
(APACHE source distribution)
Java Runtime: Java(TM) SE Runtime Environment
JVM: Java HotSpot(TM) 64-Bit Server VM
Java Version: 1.8.0_202-b08
Operating System: Linux
OS Version: 4.19.23-coreos-r1
Default Encoding: UTF-8
Language: en
Country: null
--></g></svg>