<?xml version="1.0" encoding="UTF-8" standalone="no"?><svg xmlns="http://www.w3.org/2000/svg" xmlns:xlink="http://www.w3.org/1999/xlink" contentScriptType="application/ecmascript" contentStyleType="text/css" height="243px" preserveAspectRatio="none" style="width:397px;height:243px;" version="1.1" viewBox="0 0 397 243" width="397px" zoomAndPan="magnify"><defs><filter height="300%" id="f2rdp7vuqr2fw" width="300%" x="-1" y="-1"><feGaussianBlur result="blurOut" stdDeviation="2.0"/><feColorMatrix in="blurOut" result="blurOut2" type="matrix" values="0 0 0 0 0 0 0 0 0 0 0 0 0 0 0 0 0 0 .4 0"/><feOffset dx="4.0" dy="4.0" in="blurOut2" result="blurOut3"/><feBlend in="SourceGraphic" in2="blurOut3" mode="normal"/></filter></defs><g><!--class DateTimeFormatHelper--><rect fill="#FEFECE" filter="url(#f2rdp7vuqr2fw)" height="201.5918" id="DateTimeFormatHelper" style="stroke: #A80036; stroke-width: 1.5;" width="380" x="6" y="8"/><ellipse cx="124.25" cy="24" fill="#ADD1B2" rx="11" ry="11" style="stroke: #A80036; stroke-width: 1.0;"/><path d="M128.0781,29.6563 Q126.2031,30.3125 124.3906,30.3125 Q121.7969,30.3125 120.2109,28.5313 Q118.625,26.75 118.625,23.8438 Q118.625,21.1563 120.0313,19.3906 Q120.8906,18.3125 122.0078,17.8594 Q123.125,17.4063 124.9063,17.4063 Q126.625,17.4063 128.0781,17.7656 L128.0781,19.75 Q126.2031,19.0469 124.9531,19.0469 Q123.2656,19.0469 122.2734,20.3672 Q121.2813,21.6875 121.2813,23.9219 Q121.2813,25.9688 122.3203,27.2656 Q123.3594,28.5625 125,28.5625 Q126.3906,28.5625 128.0781,27.7813 L128.0781,29.6563 Z "/><text fill="#000000" font-family="sans-serif" font-size="12" lengthAdjust="spacingAndGlyphs" textLength="135" x="144.75" y="28.4209">DateTimeFormatHelper</text><line style="stroke: #A80036; stroke-width: 1.5;" x1="7" x2="385" y1="40" y2="40"/><line style="stroke: #A80036; stroke-width: 1.5;" x1="7" x2="385" y1="48" y2="48"/><ellipse cx="17" cy="59.8997" fill="#84BE84" rx="3" ry="3" style="stroke: #038048; stroke-width: 1.0;"/><text fill="#000000" font-family="sans-serif" font-size="11" lengthAdjust="spacingAndGlyphs" text-decoration="underline" textLength="204" x="26" y="62.4521">formatToStringDate(LocalDate): String</text><line style="stroke: #000000; stroke-width: 1.0;" x1="26" x2="230" y1="64.4521" y2="64.4521"/><ellipse cx="17" cy="72.699" fill="#84BE84" rx="3" ry="3" style="stroke: #038048; stroke-width: 1.0;"/><text fill="#000000" font-family="sans-serif" font-size="11" lengthAdjust="spacingAndGlyphs" text-decoration="underline" textLength="208" x="26" y="75.2515">formatToStringTime(LocalTime): String</text><line style="stroke: #000000; stroke-width: 1.0;" x1="26" x2="234" y1="77.2515" y2="77.2515"/><ellipse cx="17" cy="85.4983" fill="#84BE84" rx="3" ry="3" style="stroke: #038048; stroke-width: 1.0;"/><text fill="#000000" font-family="sans-serif" font-size="11" lengthAdjust="spacingAndGlyphs" text-decoration="underline" textLength="200" x="26" y="88.0508">formatToLocalDate(String): LocalDate</text><line style="stroke: #000000; stroke-width: 1.0;" x1="26" x2="226" y1="90.0508" y2="90.0508"/><ellipse cx="17" cy="98.2976" fill="#84BE84" rx="3" ry="3" style="stroke: #038048; stroke-width: 1.0;"/><text fill="#000000" font-family="sans-serif" font-size="11" lengthAdjust="spacingAndGlyphs" text-decoration="underline" textLength="204" x="26" y="100.8501">formatToLocalTime(String): LocalTime</text><line style="stroke: #000000; stroke-width: 1.0;" x1="26" x2="230" y1="102.8501" y2="102.8501"/><ellipse cx="17" cy="111.0969" fill="#84BE84" rx="3" ry="3" style="stroke: #038048; stroke-width: 1.0;"/><text fill="#000000" font-family="sans-serif" font-size="11" lengthAdjust="spacingAndGlyphs" text-decoration="underline" textLength="183" x="26" y="113.6494">getTodayDate(boolean): LocalDate</text><line style="stroke: #000000; stroke-width: 1.0;" x1="26" x2="209" y1="115.6494" y2="115.6494"/><ellipse cx="17" cy="123.8962" fill="#84BE84" rx="3" ry="3" style="stroke: #038048; stroke-width: 1.0;"/><text fill="#000000" font-family="sans-serif" font-size="11" lengthAdjust="spacingAndGlyphs" text-decoration="underline" textLength="134" x="26" y="126.4487">getTimeNow(): LocalTime</text><line style="stroke: #000000; stroke-width: 1.0;" x1="26" x2="160" y1="128.4487" y2="128.4487"/><ellipse cx="17" cy="136.6956" fill="#84BE84" rx="3" ry="3" style="stroke: #038048; stroke-width: 1.0;"/><text fill="#000000" font-family="sans-serif" font-size="11" lengthAdjust="spacingAndGlyphs" text-decoration="underline" textLength="292" x="26" y="139.248">getTimeDifferenceMinutes(LocalTime, LocalTime): long</text><line style="stroke: #000000; stroke-width: 1.0;" x1="26" x2="318" y1="141.248" y2="141.248"/><ellipse cx="17" cy="149.4949" fill="#84BE84" rx="3" ry="3" style="stroke: #038048; stroke-width: 1.0;"/><text fill="#000000" font-family="sans-serif" font-size="11" lengthAdjust="spacingAndGlyphs" text-decoration="underline" textLength="230" x="26" y="152.0474">compareIfBeforeToday(LocalDate): boolean</text><line style="stroke: #000000; stroke-width: 1.0;" x1="26" x2="256" y1="154.0474" y2="154.0474"/><ellipse cx="17" cy="162.2942" fill="#84BE84" rx="3" ry="3" style="stroke: #038048; stroke-width: 1.0;"/><text fill="#000000" font-family="sans-serif" font-size="11" lengthAdjust="spacingAndGlyphs" text-decoration="underline" textLength="197" x="26" y="164.8467">formatMillisToDateTime(long): String</text><line style="stroke: #000000; stroke-width: 1.0;" x1="26" x2="223" y1="166.8467" y2="166.8467"/><ellipse cx="17" cy="175.0935" fill="#84BE84" rx="3" ry="3" style="stroke: #038048; stroke-width: 1.0;"/><text fill="#000000" font-family="sans-serif" font-size="11" lengthAdjust="spacingAndGlyphs" text-decoration="underline" textLength="354" x="26" y="177.646">checkResvTimeSession(LocalTime, LocalTime, LocalTime): boolean</text><line style="stroke: #000000; stroke-width: 1.0;" x1="26" x2="380" y1="179.646" y2="179.646"/><ellipse cx="17" cy="187.8928" fill="#84BE84" rx="3" ry="3" style="stroke: #038048; stroke-width: 1.0;"/><text fill="#000000" font-family="sans-serif" font-size="11" lengthAdjust="spacingAndGlyphs" text-decoration="underline" textLength="154" x="26" y="190.4453">validateDate(String): boolean</text><line style="stroke: #000000; stroke-width: 1.0;" x1="26" x2="180" y1="192.4453" y2="192.4453"/><ellipse cx="17" cy="200.6921" fill="#84BE84" rx="3" ry="3" style="stroke: #038048; stroke-width: 1.0;"/><text fill="#000000" font-family="sans-serif" font-size="11" lengthAdjust="spacingAndGlyphs" text-decoration="underline" textLength="216" x="26" y="203.2446">getSysTimeMillisWithSGTimeZone(): long</text><line style="stroke: #000000; stroke-width: 1.0;" x1="26" x2="242" y1="205.2446" y2="205.2446"/><text fill="#888888" font-family="sans-serif" font-size="10" lengthAdjust="spacingAndGlyphs" textLength="182" x="111" y="229.502">UMLDoclet 1.1.3, PlantUML 1.2018.12</text><!--
@startuml

    class DateTimeFormatHelper {
        {static} +formatToStringDate(LocalDate): String
        {static} +formatToStringTime(LocalTime): String
        {static} +formatToLocalDate(String): LocalDate
        {static} +formatToLocalTime(String): LocalTime
        {static} +getTodayDate(boolean): LocalDate
        {static} +getTimeNow(): LocalTime
        {static} +getTimeDifferenceMinutes(LocalTime, LocalTime): long
        {static} +compareIfBeforeToday(LocalDate): boolean
        {static} +formatMillisToDateTime(long): String
        {static} +checkResvTimeSession(LocalTime, LocalTime, LocalTime): boolean
        {static} +validateDate(String): boolean
        {static} +getSysTimeMillisWithSGTimeZone(): long
    }


    center footer UMLDoclet 1.1.3, PlantUML 1.2018.12
@enduml

PlantUML version 1.2018.12(Sun Oct 21 10:15:15 GMT 2018)
(APACHE source distribution)
Java Runtime: Java(TM) SE Runtime Environment
JVM: Java HotSpot(TM) 64-Bit Server VM
Java Version: 1.8.0_202-b08
Operating System: Linux
OS Version: 4.19.23-coreos-r1
Default Encoding: UTF-8
Language: en
Country: null
--></g></svg>