<?xml version="1.0" encoding="UTF-8" standalone="no"?><svg xmlns="http://www.w3.org/2000/svg" xmlns:xlink="http://www.w3.org/1999/xlink" contentScriptType="application/ecmascript" contentStyleType="text/css" height="268px" preserveAspectRatio="none" style="width:258px;height:268px;" version="1.1" viewBox="0 0 258 268" width="258px" zoomAndPan="magnify"><defs><filter height="300%" id="f15yt4bqh5a9ot" width="300%" x="-1" y="-1"><feGaussianBlur result="blurOut" stdDeviation="2.0"/><feColorMatrix in="blurOut" result="blurOut2" type="matrix" values="0 0 0 0 0 0 0 0 0 0 0 0 0 0 0 0 0 0 .4 0"/><feOffset dx="4.0" dy="4.0" in="blurOut2" result="blurOut3"/><feBlend in="SourceGraphic" in2="blurOut3" mode="normal"/></filter></defs><g><!--class MainApp--><a target="_top" xlink:actuate="onRequest" xlink:href="../sg/edu/ntu/scse/cz2002/MainApp.html" xlink:show="new" xlink:title="../sg/edu/ntu/scse/cz2002/MainApp.html" xlink:type="simple"><rect fill="#FEFECE" filter="url(#f15yt4bqh5a9ot)" height="227.1904" id="MainApp" style="stroke: #A80036; stroke-width: 1.5;" width="241" x="6" y="8"/><ellipse cx="96.75" cy="24" fill="#ADD1B2" rx="11" ry="11" style="stroke: #A80036; stroke-width: 1.0;"/><path d="M100.5781,29.6563 Q98.7031,30.3125 96.8906,30.3125 Q94.2969,30.3125 92.7109,28.5313 Q91.125,26.75 91.125,23.8438 Q91.125,21.1563 92.5313,19.3906 Q93.3906,18.3125 94.5078,17.8594 Q95.625,17.4063 97.4063,17.4063 Q99.125,17.4063 100.5781,17.7656 L100.5781,19.75 Q98.7031,19.0469 97.4531,19.0469 Q95.7656,19.0469 94.7734,20.3672 Q93.7813,21.6875 93.7813,23.9219 Q93.7813,25.9688 94.8203,27.2656 Q95.8594,28.5625 97.5,28.5625 Q98.8906,28.5625 100.5781,27.7813 L100.5781,29.6563 Z "/><text fill="#000000" font-family="sans-serif" font-size="12" lengthAdjust="spacingAndGlyphs" textLength="51" x="117.25" y="28.4209">MainApp</text><line style="stroke: #A80036; stroke-width: 1.5;" x1="7" x2="246" y1="40" y2="40"/><ellipse cx="17" cy="51.8997" fill="none" rx="3" ry="3" style="stroke: #038048; stroke-width: 1.0;"/><text fill="#000000" font-family="sans-serif" font-size="11" lengthAdjust="spacingAndGlyphs" text-decoration="underline" textLength="95" x="26" y="54.4521">APP_NAME: String</text><line style="stroke: #000000; stroke-width: 1.0;" x1="26" x2="121" y1="56.4521" y2="56.4521"/><ellipse cx="17" cy="64.699" fill="none" rx="3" ry="3" style="stroke: #038048; stroke-width: 1.0;"/><text fill="#000000" font-family="sans-serif" font-size="11" lengthAdjust="spacingAndGlyphs" text-decoration="underline" textLength="134" x="26" y="67.2515">tables: ArrayList&lt;Table&gt;</text><line style="stroke: #000000; stroke-width: 1.0;" x1="26" x2="160" y1="69.2515" y2="69.2515"/><ellipse cx="17" cy="77.4983" fill="none" rx="3" ry="3" style="stroke: #038048; stroke-width: 1.0;"/><text fill="#000000" font-family="sans-serif" font-size="11" lengthAdjust="spacingAndGlyphs" text-decoration="underline" textLength="184" x="26" y="80.0508">menuItems: ArrayList&lt;MenuItem&gt;</text><line style="stroke: #000000; stroke-width: 1.0;" x1="26" x2="210" y1="82.0508" y2="82.0508"/><ellipse cx="17" cy="90.2976" fill="none" rx="3" ry="3" style="stroke: #038048; stroke-width: 1.0;"/><text fill="#000000" font-family="sans-serif" font-size="11" lengthAdjust="spacingAndGlyphs" text-decoration="underline" textLength="155" x="26" y="92.8501">invoices: ArrayList&lt;Invoice&gt;</text><line style="stroke: #000000; stroke-width: 1.0;" x1="26" x2="181" y1="94.8501" y2="94.8501"/><ellipse cx="17" cy="103.0969" fill="none" rx="3" ry="3" style="stroke: #038048; stroke-width: 1.0;"/><text fill="#000000" font-family="sans-serif" font-size="11" lengthAdjust="spacingAndGlyphs" text-decoration="underline" textLength="203" x="26" y="105.6494">reservations: ArrayList&lt;Reservation&gt;</text><line style="stroke: #000000; stroke-width: 1.0;" x1="26" x2="229" y1="107.6494" y2="107.6494"/><ellipse cx="17" cy="115.8962" fill="none" rx="3" ry="3" style="stroke: #038048; stroke-width: 1.0;"/><text fill="#000000" font-family="sans-serif" font-size="11" lengthAdjust="spacingAndGlyphs" text-decoration="underline" textLength="215" x="26" y="118.4487">promotions: ArrayList&lt;PromotionItem&gt;</text><line style="stroke: #000000; stroke-width: 1.0;" x1="26" x2="241" y1="120.4487" y2="120.4487"/><ellipse cx="17" cy="128.6956" fill="none" rx="3" ry="3" style="stroke: #038048; stroke-width: 1.0;"/><text fill="#000000" font-family="sans-serif" font-size="11" lengthAdjust="spacingAndGlyphs" text-decoration="underline" textLength="127" x="26" y="131.248">staffs: ArrayList&lt;Staff&gt;</text><line style="stroke: #000000; stroke-width: 1.0;" x1="26" x2="153" y1="133.248" y2="133.248"/><ellipse cx="17" cy="141.4949" fill="none" rx="3" ry="3" style="stroke: #038048; stroke-width: 1.0;"/><text fill="#000000" font-family="sans-serif" font-size="11" lengthAdjust="spacingAndGlyphs" text-decoration="underline" textLength="127" x="26" y="144.0474">restaurantSession: char</text><line style="stroke: #000000; stroke-width: 1.0;" x1="26" x2="153" y1="146.0474" y2="146.0474"/><ellipse cx="17" cy="154.2942" fill="none" rx="3" ry="3" style="stroke: #038048; stroke-width: 1.0;"/><text fill="#000000" font-family="sans-serif" font-size="11" lengthAdjust="spacingAndGlyphs" text-decoration="underline" textLength="85" x="26" y="156.8467">DEBUG: boolean</text><line style="stroke: #000000; stroke-width: 1.0;" x1="26" x2="111" y1="158.8467" y2="158.8467"/><line style="stroke: #A80036; stroke-width: 1.5;" x1="7" x2="246" y1="163.1938" y2="163.1938"/><rect fill="#F24D5C" height="6" style="stroke: #C82930; stroke-width: 1.0;" width="6" x="14" y="172.0935"/><text fill="#000000" font-family="sans-serif" font-size="11" lengthAdjust="spacingAndGlyphs" text-decoration="underline" textLength="54" x="26" y="177.646">init(): void</text><line style="stroke: #000000; stroke-width: 1.0;" x1="26" x2="80" y1="179.646" y2="179.646"/><ellipse cx="17" cy="187.8928" fill="#84BE84" rx="3" ry="3" style="stroke: #038048; stroke-width: 1.0;"/><text fill="#000000" font-family="sans-serif" font-size="11" lengthAdjust="spacingAndGlyphs" text-decoration="underline" textLength="95" x="26" y="190.4453">saveAll(): boolean</text><line style="stroke: #000000; stroke-width: 1.0;" x1="26" x2="121" y1="192.4453" y2="192.4453"/><ellipse cx="17" cy="200.6921" fill="#84BE84" rx="3" ry="3" style="stroke: #038048; stroke-width: 1.0;"/><text fill="#000000" font-family="sans-serif" font-size="11" lengthAdjust="spacingAndGlyphs" text-decoration="underline" textLength="130" x="26" y="203.2446">main(args:String[]): void</text><line style="stroke: #000000; stroke-width: 1.0;" x1="26" x2="156" y1="205.2446" y2="205.2446"/><rect fill="#F24D5C" height="6" style="stroke: #C82930; stroke-width: 1.0;" width="6" x="14" y="210.4915"/><text fill="#000000" font-family="sans-serif" font-size="11" lengthAdjust="spacingAndGlyphs" text-decoration="underline" textLength="136" x="26" y="216.0439">printWelcomeAscii(): void</text><line style="stroke: #000000; stroke-width: 1.0;" x1="26" x2="162" y1="218.0439" y2="218.0439"/><rect fill="#F24D5C" height="6" style="stroke: #C82930; stroke-width: 1.0;" width="6" x="14" y="223.2908"/><text fill="#000000" font-family="sans-serif" font-size="11" lengthAdjust="spacingAndGlyphs" text-decoration="underline" textLength="161" x="26" y="228.8433">checkTodayReservations(): int</text><line style="stroke: #000000; stroke-width: 1.0;" x1="26" x2="187" y1="230.8433" y2="230.8433"/></a><text fill="#888888" font-family="sans-serif" font-size="10" lengthAdjust="spacingAndGlyphs" textLength="182" x="41.5" y="254.502">UMLDoclet 1.1.3, PlantUML 1.2018.12</text><!--
@startuml

    class MainApp [[../sg/edu/ntu/scse/cz2002/MainApp.html]] {
        {static} +APP_NAME: String
        {static} +tables: ArrayList<Table>
        {static} +menuItems: ArrayList<MenuItem>
        {static} +invoices: ArrayList<Invoice>
        {static} +reservations: ArrayList<Reservation>
        {static} +promotions: ArrayList<PromotionItem>
        {static} +staffs: ArrayList<Staff>
        {static} +restaurantSession: char
        {static} +DEBUG: boolean
        {static} -init(): void
        {static} +saveAll(): boolean
        {static} +main(args:String[]): void
        {static} -printWelcomeAscii(): void
        {static} -checkTodayReservations(): int
    }


    center footer UMLDoclet 1.1.3, PlantUML 1.2018.12
@enduml

PlantUML version 1.2018.12(Sun Oct 21 10:15:15 GMT 2018)
(APACHE source distribution)
Java Runtime: Java(TM) SE Runtime Environment
JVM: Java HotSpot(TM) 64-Bit Server VM
Java Version: 1.8.0_202-b08
Operating System: Linux
OS Version: 4.19.23-coreos-r1
Default Encoding: UTF-8
Language: en
Country: null
--></g></svg>