<?xml version="1.0" encoding="UTF-8" standalone="no"?><svg xmlns="http://www.w3.org/2000/svg" xmlns:xlink="http://www.w3.org/1999/xlink" contentScriptType="application/ecmascript" contentStyleType="text/css" height="453px" preserveAspectRatio="none" style="width:340px;height:453px;" version="1.1" viewBox="0 0 340 453" width="340px" zoomAndPan="magnify"><defs><filter height="300%" id="frx9ucsanplk2" width="300%" x="-1" y="-1"><feGaussianBlur result="blurOut" stdDeviation="2.0"/><feColorMatrix in="blurOut" result="blurOut2" type="matrix" values="0 0 0 0 0 0 0 0 0 0 0 0 0 0 0 0 0 0 .4 0"/><feOffset dx="4.0" dy="4.0" in="blurOut2" result="blurOut3"/><feBlend in="SourceGraphic" in2="blurOut3" mode="normal"/></filter></defs><g><!--cluster sg.edu.ntu.scse.cz2002.objects.person--><polygon fill="#FFFFFF" filter="url(#frx9ucsanplk2)" points="14,137,288,137,295,159.29,318,159.29,318,412,14,412,14,137" style="stroke: #000000; stroke-width: 1.5;"/><line style="stroke: #000000; stroke-width: 1.5;" x1="14" x2="295" y1="159.29" y2="159.29"/><text fill="#000000" font-family="sans-serif" font-size="14" font-weight="bold" lengthAdjust="spacingAndGlyphs" textLength="268" x="18" y="152.3369">sg.edu.ntu.scse.cz2002.objects.person</text><!--cluster sg.edu.ntu.scse.cz2002.util--><polygon fill="#FFFFFF" filter="url(#frx9ucsanplk2)" points="64,16,259,16,266,38.29,269,38.29,269,112,64,112,64,16" style="stroke: #000000; stroke-width: 1.5;"/><line style="stroke: #000000; stroke-width: 1.5;" x1="64" x2="266" y1="38.29" y2="38.29"/><text fill="#000000" font-family="sans-serif" font-size="14" font-weight="bold" lengthAdjust="spacingAndGlyphs" textLength="189" x="68" y="31.3369">sg.edu.ntu.scse.cz2002.util</text><!--class sg.edu.ntu.scse.cz2002.objects.person.Staff--><a target="_top" xlink:actuate="onRequest" xlink:href="../sg/edu/ntu/scse/cz2002/objects/person/Staff.html" xlink:show="new" xlink:title="../sg/edu/ntu/scse/cz2002/objects/person/Staff.html" xlink:type="simple"><rect fill="#FEFECE" filter="url(#frx9ucsanplk2)" height="239.9897" id="sg.edu.ntu.scse.cz2002.objects.person.Staff" style="stroke: #A80036; stroke-width: 1.5;" width="287" x="22.5" y="164"/><ellipse cx="149.25" cy="180" fill="#ADD1B2" rx="11" ry="11" style="stroke: #A80036; stroke-width: 1.0;"/><path d="M153.0781,185.6563 Q151.2031,186.3125 149.3906,186.3125 Q146.7969,186.3125 145.2109,184.5313 Q143.625,182.75 143.625,179.8438 Q143.625,177.1563 145.0313,175.3906 Q145.8906,174.3125 147.0078,173.8594 Q148.125,173.4063 149.9063,173.4063 Q151.625,173.4063 153.0781,173.7656 L153.0781,175.75 Q151.2031,175.0469 149.9531,175.0469 Q148.2656,175.0469 147.2734,176.3672 Q146.2813,177.6875 146.2813,179.9219 Q146.2813,181.9688 147.3203,183.2656 Q148.3594,184.5625 150,184.5625 Q151.3906,184.5625 153.0781,183.7813 L153.0781,185.6563 Z "/><text fill="#000000" font-family="sans-serif" font-size="12" lengthAdjust="spacingAndGlyphs" textLength="25" x="169.75" y="184.4209">Staff</text><line style="stroke: #A80036; stroke-width: 1.5;" x1="23.5" x2="308.5" y1="196" y2="196"/><rect fill="none" height="6" style="stroke: #C82930; stroke-width: 1.0;" width="6" x="30.5" y="204.8997"/><text fill="#000000" font-family="sans-serif" font-size="11" lengthAdjust="spacingAndGlyphs" textLength="54" x="42.5" y="210.4521">staffId: int</text><rect fill="none" height="6" style="stroke: #C82930; stroke-width: 1.0;" width="6" x="30.5" y="217.699"/><text fill="#000000" font-family="sans-serif" font-size="11" lengthAdjust="spacingAndGlyphs" textLength="92" x="42.5" y="223.2515">staffName: String</text><rect fill="none" height="6" style="stroke: #C82930; stroke-width: 1.0;" width="6" x="30.5" y="230.4983"/><text fill="#000000" font-family="sans-serif" font-size="11" lengthAdjust="spacingAndGlyphs" textLength="68" x="42.5" y="236.0508">gender: char</text><rect fill="none" height="6" style="stroke: #C82930; stroke-width: 1.0;" width="6" x="30.5" y="243.2976"/><text fill="#000000" font-family="sans-serif" font-size="11" lengthAdjust="spacingAndGlyphs" textLength="78" x="42.5" y="248.8501">jobTitle: String</text><line style="stroke: #A80036; stroke-width: 1.5;" x1="23.5" x2="308.5" y1="255.1973" y2="255.1973"/><ellipse cx="33.5" cy="267.0969" fill="#84BE84" rx="3" ry="3" style="stroke: #038048; stroke-width: 1.0;"/><text fill="#000000" font-family="sans-serif" font-size="11" lengthAdjust="spacingAndGlyphs" textLength="261" x="42.5" y="269.6494">Staff(id:int, name:String, gender:char, title:String)</text><ellipse cx="33.5" cy="279.8962" fill="#84BE84" rx="3" ry="3" style="stroke: #038048; stroke-width: 1.0;"/><text fill="#000000" font-family="sans-serif" font-size="11" lengthAdjust="spacingAndGlyphs" textLength="93" x="42.5" y="282.4487">Staff(csv:String[])</text><ellipse cx="33.5" cy="292.6956" fill="#84BE84" rx="3" ry="3" style="stroke: #038048; stroke-width: 1.0;"/><text fill="#000000" font-family="sans-serif" font-size="11" lengthAdjust="spacingAndGlyphs" textLength="85" x="42.5" y="295.248">toCsv(): String[]</text><ellipse cx="33.5" cy="305.4949" fill="#84BE84" rx="3" ry="3" style="stroke: #038048; stroke-width: 1.0;"/><text fill="#000000" font-family="sans-serif" font-size="11" lengthAdjust="spacingAndGlyphs" textLength="79" x="42.5" y="308.0474">getStaffId(): int</text><ellipse cx="33.5" cy="318.2942" fill="#84BE84" rx="3" ry="3" style="stroke: #038048; stroke-width: 1.0;"/><text fill="#000000" font-family="sans-serif" font-size="11" lengthAdjust="spacingAndGlyphs" textLength="117" x="42.5" y="320.8467">getStaffName(): String</text><ellipse cx="33.5" cy="331.0935" fill="#84BE84" rx="3" ry="3" style="stroke: #038048; stroke-width: 1.0;"/><text fill="#000000" font-family="sans-serif" font-size="11" lengthAdjust="spacingAndGlyphs" textLength="196" x="42.5" y="333.646">setStaffName(staffName:String): void</text><ellipse cx="33.5" cy="343.8928" fill="#84BE84" rx="3" ry="3" style="stroke: #038048; stroke-width: 1.0;"/><text fill="#000000" font-family="sans-serif" font-size="11" lengthAdjust="spacingAndGlyphs" textLength="94" x="42.5" y="346.4453">getGender(): char</text><ellipse cx="33.5" cy="356.6921" fill="#84BE84" rx="3" ry="3" style="stroke: #038048; stroke-width: 1.0;"/><text fill="#000000" font-family="sans-serif" font-size="11" lengthAdjust="spacingAndGlyphs" textLength="157" x="42.5" y="359.2446">setGender(gender:char): void</text><ellipse cx="33.5" cy="369.4915" fill="#84BE84" rx="3" ry="3" style="stroke: #038048; stroke-width: 1.0;"/><text fill="#000000" font-family="sans-serif" font-size="11" lengthAdjust="spacingAndGlyphs" textLength="103" x="42.5" y="372.0439">getJobTitle(): String</text><ellipse cx="33.5" cy="382.2908" fill="#84BE84" rx="3" ry="3" style="stroke: #038048; stroke-width: 1.0;"/><text fill="#000000" font-family="sans-serif" font-size="11" lengthAdjust="spacingAndGlyphs" textLength="168" x="42.5" y="384.8433">setJobTitle(jobTitle:String): void</text><ellipse cx="33.5" cy="395.0901" fill="#84BE84" rx="3" ry="3" style="stroke: #038048; stroke-width: 1.0;"/><text fill="#000000" font-family="sans-serif" font-size="11" lengthAdjust="spacingAndGlyphs" text-decoration="underline" textLength="130" x="42.5" y="397.6426">getStaff(staffId:int): Staff</text><line style="stroke: #000000; stroke-width: 1.0;" x1="42.5" x2="172.5" y1="399.6426" y2="399.6426"/></a><!--class sg.edu.ntu.scse.cz2002.util.ICsvSerializable--><rect fill="#FEFECE" filter="url(#frx9ucsanplk2)" height="60.7993" id="sg.edu.ntu.scse.cz2002.util.ICsvSerializable" style="stroke: #A80036; stroke-width: 1.5;" width="121" x="105.5" y="43"/><ellipse cx="120.5" cy="59" fill="#B4A7E5" rx="11" ry="11" style="stroke: #A80036; stroke-width: 1.0;"/><path d="M116.5156,65 L116.5156,63.3594 L119.3906,63.3594 L119.3906,54.3438 L116.5156,54.3438 L116.5156,52.7188 L124.7188,52.7188 L124.7188,54.3438 L121.8438,54.3438 L121.8438,63.3594 L124.7188,63.3594 L124.7188,65 L116.5156,65 Z "/><text fill="#000000" font-family="sans-serif" font-size="12" font-style="italic" lengthAdjust="spacingAndGlyphs" textLength="89" x="134.5" y="63.4209">ICsvSerializable</text><line style="stroke: #A80036; stroke-width: 1.5;" x1="106.5" x2="225.5" y1="75" y2="75"/><line style="stroke: #A80036; stroke-width: 1.5;" x1="106.5" x2="225.5" y1="83" y2="83"/><ellipse cx="116.5" cy="94.8997" fill="#84BE84" rx="3" ry="3" style="stroke: #038048; stroke-width: 1.0;"/><text fill="#000000" font-family="sans-serif" font-size="11" font-style="italic" lengthAdjust="spacingAndGlyphs" textLength="85" x="125.5" y="97.4521">toCsv(): String[]</text><!--link sg.edu.ntu.scse.cz2002.util.ICsvSerializable to sg.edu.ntu.scse.cz2002.objects.person.Staff--><path d="M166,124.3179 C166,136.4638 166,149.944 166,163.7765 " fill="none" id="sg.edu.ntu.scse.cz2002.util.ICsvSerializable-sg.edu.ntu.scse.cz2002.objects.person.Staff" style="stroke: #A80036; stroke-width: 1.0; stroke-dasharray: 7.0,7.0;"/><polygon fill="none" points="159.0001,124.1085,166,104.1085,173.0001,124.1085,159.0001,124.1085" style="stroke: #A80036; stroke-width: 1.0;"/><text fill="#888888" font-family="sans-serif" font-size="10" lengthAdjust="spacingAndGlyphs" textLength="182" x="81" y="439.502">UMLDoclet 1.1.3, PlantUML 1.2018.12</text><!--
@startuml

    namespace sg.edu.ntu.scse.cz2002.objects.person {

        class Staff [[../sg/edu/ntu/scse/cz2002/objects/person/Staff.html]] {
            -staffId: int
            -staffName: String
            -gender: char
            -jobTitle: String
            +Staff(id:int, name:String, gender:char, title:String)
            +Staff(csv:String[])
            +toCsv(): String[]
            +getStaffId(): int
            +getStaffName(): String
            +setStaffName(staffName:String): void
            +getGender(): char
            +setGender(gender:char): void
            +getJobTitle(): String
            +setJobTitle(jobTitle:String): void
            {static} +getStaff(staffId:int): Staff
        }

        interface sg.edu.ntu.scse.cz2002.util.ICsvSerializable {
            {abstract} +toCsv(): String[]
        }
        sg.edu.ntu.scse.cz2002.util.ICsvSerializable <|.. Staff

    }


    center footer UMLDoclet 1.1.3, PlantUML 1.2018.12
@enduml

PlantUML version 1.2018.12(Sun Oct 21 10:15:15 GMT 2018)
(APACHE source distribution)
Java Runtime: Java(TM) SE Runtime Environment
JVM: Java HotSpot(TM) 64-Bit Server VM
Java Version: 1.8.0_202-b08
Operating System: Linux
OS Version: 4.19.23-coreos-r1
Default Encoding: UTF-8
Language: en
Country: null
--></g></svg>