<?xml version="1.0" encoding="UTF-8" standalone="no"?><svg xmlns="http://www.w3.org/2000/svg" xmlns:xlink="http://www.w3.org/1999/xlink" contentScriptType="application/ecmascript" contentStyleType="text/css" height="504px" preserveAspectRatio="none" style="width:3012px;height:504px;" version="1.1" viewBox="0 0 3012 504" width="3012px" zoomAndPan="magnify"><defs><filter height="300%" id="fwo6wl6e500ar" width="300%" x="-1" y="-1"><feGaussianBlur result="blurOut" stdDeviation="2.0"/><feColorMatrix in="blurOut" result="blurOut2" type="matrix" values="0 0 0 0 0 0 0 0 0 0 0 0 0 0 0 0 0 0 .4 0"/><feOffset dx="4.0" dy="4.0" in="blurOut2" result="blurOut3"/><feBlend in="SourceGraphic" in2="blurOut3" mode="normal"/></filter></defs><g><!--cluster sg.edu.ntu.scse.cz2002.util--><polygon fill="#FFFFFF" filter="url(#fwo6wl6e500ar)" points="14,16,209,16,216,38.29,2990,38.29,2990,463,14,463,14,16" style="stroke: #000000; stroke-width: 1.5;"/><line style="stroke: #000000; stroke-width: 1.5;" x1="14" x2="216" y1="38.29" y2="38.29"/><text fill="#000000" font-family="sans-serif" font-size="14" font-weight="bold" lengthAdjust="spacingAndGlyphs" textLength="189" x="18" y="31.3369">sg.edu.ntu.scse.cz2002.util</text><!--class sg.edu.ntu.scse.cz2002.util.CSVBaseHelper--><a target="_top" xlink:actuate="onRequest" xlink:href="../sg/edu/ntu/scse/cz2002/util/CSVBaseHelper.html" xlink:show="new" xlink:title="../sg/edu/ntu/scse/cz2002/util/CSVBaseHelper.html" xlink:type="simple"><rect fill="#FEFECE" filter="url(#fwo6wl6e500ar)" height="73.5986" id="sg.edu.ntu.scse.cz2002.util.CSVBaseHelper" style="stroke: #A80036; stroke-width: 1.5;" width="402" x="709" y="68.5"/><ellipse cx="861.75" cy="84.5" fill="#ADD1B2" rx="11" ry="11" style="stroke: #A80036; stroke-width: 1.0;"/><path d="M865.5781,90.1563 Q863.7031,90.8125 861.8906,90.8125 Q859.2969,90.8125 857.7109,89.0313 Q856.125,87.25 856.125,84.3438 Q856.125,81.6563 857.5313,79.8906 Q858.3906,78.8125 859.5078,78.3594 Q860.625,77.9063 862.4063,77.9063 Q864.125,77.9063 865.5781,78.2656 L865.5781,80.25 Q863.7031,79.5469 862.4531,79.5469 Q860.7656,79.5469 859.7734,80.8672 Q858.7813,82.1875 858.7813,84.4219 Q858.7813,86.4688 859.8203,87.7656 Q860.8594,89.0625 862.5,89.0625 Q863.8906,89.0625 865.5781,88.2813 L865.5781,90.1563 Z "/><text fill="#000000" font-family="sans-serif" font-size="12" lengthAdjust="spacingAndGlyphs" textLength="88" x="882.25" y="88.9209">CSVBaseHelper</text><line style="stroke: #A80036; stroke-width: 1.5;" x1="710" x2="1110" y1="100.5" y2="100.5"/><line style="stroke: #A80036; stroke-width: 1.5;" x1="710" x2="1110" y1="108.5" y2="108.5"/><polygon fill="#FFFF44" points="720,115.3997,724,119.3997,720,123.3997,716,119.3997" style="stroke: #B38D22; stroke-width: 1.0;"/><text fill="#000000" font-family="sans-serif" font-size="11" lengthAdjust="spacingAndGlyphs" textLength="294" x="729" y="122.9521">readAll(reader:BufferedReader, skip:int): List&lt;String[]&gt;</text><polygon fill="#FFFF44" points="720,128.199,724,132.199,720,136.199,716,132.199" style="stroke: #B38D22; stroke-width: 1.0;"/><text fill="#000000" font-family="sans-serif" font-size="11" lengthAdjust="spacingAndGlyphs" textLength="376" x="729" y="135.7515">writeToCsvFile(writeStrings:List&lt;String[]&gt;, writer:BufferedWriter): void</text></a><!--class sg.edu.ntu.scse.cz2002.util.TableCSVHelper--><a target="_top" xlink:actuate="onRequest" xlink:href="../sg/edu/ntu/scse/cz2002/util/TableCSVHelper.html" xlink:show="new" xlink:title="../sg/edu/ntu/scse/cz2002/util/TableCSVHelper.html" xlink:type="simple"><rect fill="#FEFECE" filter="url(#fwo6wl6e500ar)" height="99.1973" id="sg.edu.ntu.scse.cz2002.util.TableCSVHelper" style="stroke: #A80036; stroke-width: 1.5;" width="208" x="22" y="292"/><ellipse cx="74.75" cy="308" fill="#ADD1B2" rx="11" ry="11" style="stroke: #A80036; stroke-width: 1.0;"/><path d="M78.5781,313.6563 Q76.7031,314.3125 74.8906,314.3125 Q72.2969,314.3125 70.7109,312.5313 Q69.125,310.75 69.125,307.8438 Q69.125,305.1563 70.5313,303.3906 Q71.3906,302.3125 72.5078,301.8594 Q73.625,301.4063 75.4063,301.4063 Q77.125,301.4063 78.5781,301.7656 L78.5781,303.75 Q76.7031,303.0469 75.4531,303.0469 Q73.7656,303.0469 72.7734,304.3672 Q71.7813,305.6875 71.7813,307.9219 Q71.7813,309.9688 72.8203,311.2656 Q73.8594,312.5625 75.5,312.5625 Q76.8906,312.5625 78.5781,311.7813 L78.5781,313.6563 Z "/><text fill="#000000" font-family="sans-serif" font-size="12" lengthAdjust="spacingAndGlyphs" textLength="94" x="95.25" y="312.4209">TableCSVHelper</text><line style="stroke: #A80036; stroke-width: 1.5;" x1="23" x2="229" y1="324" y2="324"/><rect fill="none" height="6" style="stroke: #C82930; stroke-width: 1.0;" width="6" x="30" y="332.8997"/><text fill="#000000" font-family="sans-serif" font-size="11" lengthAdjust="spacingAndGlyphs" text-decoration="underline" textLength="146" x="42" y="338.4521">mInstance: TableCSVHelper</text><line style="stroke: #000000; stroke-width: 1.0;" x1="42" x2="188" y1="340.4521" y2="340.4521"/><rect fill="none" height="6" style="stroke: #C82930; stroke-width: 1.0;" width="6" x="30" y="345.699"/><text fill="#000000" font-family="sans-serif" font-size="11" lengthAdjust="spacingAndGlyphs" textLength="84" x="42" y="351.2515">tableCsv: String</text><line style="stroke: #A80036; stroke-width: 1.5;" x1="23" x2="229" y1="357.5986" y2="357.5986"/><ellipse cx="33" cy="369.4983" fill="#84BE84" rx="3" ry="3" style="stroke: #038048; stroke-width: 1.0;"/><text fill="#000000" font-family="sans-serif" font-size="11" lengthAdjust="spacingAndGlyphs" text-decoration="underline" textLength="161" x="42" y="372.0508">getInstance(): TableCSVHelper</text><line style="stroke: #000000; stroke-width: 1.0;" x1="42" x2="203" y1="374.0508" y2="374.0508"/><ellipse cx="33" cy="382.2976" fill="#84BE84" rx="3" ry="3" style="stroke: #038048; stroke-width: 1.0;"/><text fill="#000000" font-family="sans-serif" font-size="11" lengthAdjust="spacingAndGlyphs" textLength="182" x="42" y="384.8501">readFromCsv(): ArrayList&lt;Table&gt;</text></a><!--class sg.edu.ntu.scse.cz2002.util.ICsvSerializable--><a target="_top" xlink:actuate="onRequest" xlink:href="../sg/edu/ntu/scse/cz2002/util/ICsvSerializable.html" xlink:show="new" xlink:title="../sg/edu/ntu/scse/cz2002/util/ICsvSerializable.html" xlink:type="simple"><rect fill="#FEFECE" filter="url(#fwo6wl6e500ar)" height="60.7993" id="sg.edu.ntu.scse.cz2002.util.ICsvSerializable" style="stroke: #A80036; stroke-width: 1.5;" width="121" x="2070.5" y="75"/><ellipse cx="2085.5" cy="91" fill="#B4A7E5" rx="11" ry="11" style="stroke: #A80036; stroke-width: 1.0;"/><path d="M2081.5156,97 L2081.5156,95.3594 L2084.3906,95.3594 L2084.3906,86.3438 L2081.5156,86.3438 L2081.5156,84.7188 L2089.7188,84.7188 L2089.7188,86.3438 L2086.8438,86.3438 L2086.8438,95.3594 L2089.7188,95.3594 L2089.7188,97 L2081.5156,97 Z "/><text fill="#000000" font-family="sans-serif" font-size="12" font-style="italic" lengthAdjust="spacingAndGlyphs" textLength="89" x="2099.5" y="95.4209">ICsvSerializable</text><line style="stroke: #A80036; stroke-width: 1.5;" x1="2071.5" x2="2190.5" y1="107" y2="107"/><line style="stroke: #A80036; stroke-width: 1.5;" x1="2071.5" x2="2190.5" y1="115" y2="115"/><ellipse cx="2081.5" cy="126.8997" fill="#84BE84" rx="3" ry="3" style="stroke: #038048; stroke-width: 1.0;"/><text fill="#000000" font-family="sans-serif" font-size="11" font-style="italic" lengthAdjust="spacingAndGlyphs" textLength="85" x="2090.5" y="129.4521">toCsv(): String[]</text></a><!--class sg.edu.ntu.scse.cz2002.util.PromoCSVHelper--><a target="_top" xlink:actuate="onRequest" xlink:href="../sg/edu/ntu/scse/cz2002/util/PromoCSVHelper.html" xlink:show="new" xlink:title="../sg/edu/ntu/scse/cz2002/util/PromoCSVHelper.html" xlink:type="simple"><rect fill="#FEFECE" filter="url(#fwo6wl6e500ar)" height="111.9966" id="sg.edu.ntu.scse.cz2002.util.PromoCSVHelper" style="stroke: #A80036; stroke-width: 1.5;" width="335" x="265.5" y="285.5"/><ellipse cx="379.75" cy="301.5" fill="#ADD1B2" rx="11" ry="11" style="stroke: #A80036; stroke-width: 1.0;"/><path d="M383.5781,307.1563 Q381.7031,307.8125 379.8906,307.8125 Q377.2969,307.8125 375.7109,306.0313 Q374.125,304.25 374.125,301.3438 Q374.125,298.6563 375.5313,296.8906 Q376.3906,295.8125 377.5078,295.3594 Q378.625,294.9063 380.4063,294.9063 Q382.125,294.9063 383.5781,295.2656 L383.5781,297.25 Q381.7031,296.5469 380.4531,296.5469 Q378.7656,296.5469 377.7734,297.8672 Q376.7813,299.1875 376.7813,301.4219 Q376.7813,303.4688 377.8203,304.7656 Q378.8594,306.0625 380.5,306.0625 Q381.8906,306.0625 383.5781,305.2813 L383.5781,307.1563 Z "/><text fill="#000000" font-family="sans-serif" font-size="12" lengthAdjust="spacingAndGlyphs" textLength="98" x="400.25" y="305.9209">PromoCSVHelper</text><line style="stroke: #A80036; stroke-width: 1.5;" x1="266.5" x2="599.5" y1="317.5" y2="317.5"/><rect fill="none" height="6" style="stroke: #C82930; stroke-width: 1.0;" width="6" x="273.5" y="326.3997"/><text fill="#000000" font-family="sans-serif" font-size="11" lengthAdjust="spacingAndGlyphs" text-decoration="underline" textLength="149" x="285.5" y="331.9521">pInstance: PromoCSVHelper</text><line style="stroke: #000000; stroke-width: 1.0;" x1="285.5" x2="434.5" y1="333.9521" y2="333.9521"/><rect fill="none" height="6" style="stroke: #C82930; stroke-width: 1.0;" width="6" x="273.5" y="339.199"/><text fill="#000000" font-family="sans-serif" font-size="11" lengthAdjust="spacingAndGlyphs" textLength="115" x="285.5" y="344.7515">promotionCsv: String</text><line style="stroke: #A80036; stroke-width: 1.5;" x1="266.5" x2="599.5" y1="351.0986" y2="351.0986"/><ellipse cx="276.5" cy="362.9983" fill="#84BE84" rx="3" ry="3" style="stroke: #038048; stroke-width: 1.0;"/><text fill="#000000" font-family="sans-serif" font-size="11" lengthAdjust="spacingAndGlyphs" text-decoration="underline" textLength="167" x="285.5" y="365.5508">getInstance(): PromoCSVHelper</text><line style="stroke: #000000; stroke-width: 1.0;" x1="285.5" x2="452.5" y1="367.5508" y2="367.5508"/><ellipse cx="276.5" cy="375.7976" fill="#84BE84" rx="3" ry="3" style="stroke: #038048; stroke-width: 1.0;"/><text fill="#000000" font-family="sans-serif" font-size="11" lengthAdjust="spacingAndGlyphs" textLength="232" x="285.5" y="378.3501">readFromCsv(): ArrayList&lt;PromotionItem&gt;</text><ellipse cx="276.5" cy="388.5969" fill="#84BE84" rx="3" ry="3" style="stroke: #038048; stroke-width: 1.0;"/><text fill="#000000" font-family="sans-serif" font-size="11" lengthAdjust="spacingAndGlyphs" textLength="309" x="285.5" y="391.1494">writeToCsv(promotions:ArrayList&lt;PromotionItem&gt;): void</text></a><!--class sg.edu.ntu.scse.cz2002.util.InvoiceCSVHelper--><a target="_top" xlink:actuate="onRequest" xlink:href="../sg/edu/ntu/scse/cz2002/util/InvoiceCSVHelper.html" xlink:show="new" xlink:title="../sg/edu/ntu/scse/cz2002/util/InvoiceCSVHelper.html" xlink:type="simple"><rect fill="#FEFECE" filter="url(#fwo6wl6e500ar)" height="111.9966" id="sg.edu.ntu.scse.cz2002.util.InvoiceCSVHelper" style="stroke: #A80036; stroke-width: 1.5;" width="260" x="636" y="285.5"/><ellipse cx="711.75" cy="301.5" fill="#ADD1B2" rx="11" ry="11" style="stroke: #A80036; stroke-width: 1.0;"/><path d="M715.5781,307.1563 Q713.7031,307.8125 711.8906,307.8125 Q709.2969,307.8125 707.7109,306.0313 Q706.125,304.25 706.125,301.3438 Q706.125,298.6563 707.5313,296.8906 Q708.3906,295.8125 709.5078,295.3594 Q710.625,294.9063 712.4063,294.9063 Q714.125,294.9063 715.5781,295.2656 L715.5781,297.25 Q713.7031,296.5469 712.4531,296.5469 Q710.7656,296.5469 709.7734,297.8672 Q708.7813,299.1875 708.7813,301.4219 Q708.7813,303.4688 709.8203,304.7656 Q710.8594,306.0625 712.5,306.0625 Q713.8906,306.0625 715.5781,305.2813 L715.5781,307.1563 Z "/><text fill="#000000" font-family="sans-serif" font-size="12" lengthAdjust="spacingAndGlyphs" textLength="100" x="732.25" y="305.9209">InvoiceCSVHelper</text><line style="stroke: #A80036; stroke-width: 1.5;" x1="637" x2="895" y1="317.5" y2="317.5"/><rect fill="none" height="6" style="stroke: #C82930; stroke-width: 1.0;" width="6" x="644" y="326.3997"/><text fill="#000000" font-family="sans-serif" font-size="11" lengthAdjust="spacingAndGlyphs" text-decoration="underline" textLength="155" x="656" y="331.9521">mInstance: InvoiceCSVHelper</text><line style="stroke: #000000; stroke-width: 1.0;" x1="656" x2="811" y1="333.9521" y2="333.9521"/><rect fill="none" height="6" style="stroke: #C82930; stroke-width: 1.0;" width="6" x="644" y="339.199"/><text fill="#000000" font-family="sans-serif" font-size="11" lengthAdjust="spacingAndGlyphs" textLength="88" x="656" y="344.7515">orderCsv: String</text><line style="stroke: #A80036; stroke-width: 1.5;" x1="637" x2="895" y1="351.0986" y2="351.0986"/><ellipse cx="647" cy="362.9983" fill="#84BE84" rx="3" ry="3" style="stroke: #038048; stroke-width: 1.0;"/><text fill="#000000" font-family="sans-serif" font-size="11" lengthAdjust="spacingAndGlyphs" text-decoration="underline" textLength="170" x="656" y="365.5508">getInstance(): InvoiceCSVHelper</text><line style="stroke: #000000; stroke-width: 1.0;" x1="656" x2="826" y1="367.5508" y2="367.5508"/><ellipse cx="647" cy="375.7976" fill="#84BE84" rx="3" ry="3" style="stroke: #038048; stroke-width: 1.0;"/><text fill="#000000" font-family="sans-serif" font-size="11" lengthAdjust="spacingAndGlyphs" textLength="191" x="656" y="378.3501">readFromCsv(): ArrayList&lt;Invoice&gt;</text><ellipse cx="647" cy="388.5969" fill="#84BE84" rx="3" ry="3" style="stroke: #038048; stroke-width: 1.0;"/><text fill="#000000" font-family="sans-serif" font-size="11" lengthAdjust="spacingAndGlyphs" textLength="234" x="656" y="391.1494">writeToCsv(items:ArrayList&lt;Invoice&gt;): void</text></a><!--class sg.edu.ntu.scse.cz2002.util.StaffCSVHelper--><a target="_top" xlink:actuate="onRequest" xlink:href="../sg/edu/ntu/scse/cz2002/util/StaffCSVHelper.html" xlink:show="new" xlink:title="../sg/edu/ntu/scse/cz2002/util/StaffCSVHelper.html" xlink:type="simple"><rect fill="#FEFECE" filter="url(#fwo6wl6e500ar)" height="111.9966" id="sg.edu.ntu.scse.cz2002.util.StaffCSVHelper" style="stroke: #A80036; stroke-width: 1.5;" width="247" x="931.5" y="285.5"/><ellipse cx="1007.75" cy="301.5" fill="#ADD1B2" rx="11" ry="11" style="stroke: #A80036; stroke-width: 1.0;"/><path d="M1011.5781,307.1563 Q1009.7031,307.8125 1007.8906,307.8125 Q1005.2969,307.8125 1003.7109,306.0313 Q1002.125,304.25 1002.125,301.3438 Q1002.125,298.6563 1003.5313,296.8906 Q1004.3906,295.8125 1005.5078,295.3594 Q1006.625,294.9063 1008.4063,294.9063 Q1010.125,294.9063 1011.5781,295.2656 L1011.5781,297.25 Q1009.7031,296.5469 1008.4531,296.5469 Q1006.7656,296.5469 1005.7734,297.8672 Q1004.7813,299.1875 1004.7813,301.4219 Q1004.7813,303.4688 1005.8203,304.7656 Q1006.8594,306.0625 1008.5,306.0625 Q1009.8906,306.0625 1011.5781,305.2813 L1011.5781,307.1563 Z "/><text fill="#000000" font-family="sans-serif" font-size="12" lengthAdjust="spacingAndGlyphs" textLength="86" x="1028.25" y="305.9209">StaffCSVHelper</text><line style="stroke: #A80036; stroke-width: 1.5;" x1="932.5" x2="1177.5" y1="317.5" y2="317.5"/><rect fill="none" height="6" style="stroke: #C82930; stroke-width: 1.0;" width="6" x="939.5" y="326.3997"/><text fill="#000000" font-family="sans-serif" font-size="11" lengthAdjust="spacingAndGlyphs" text-decoration="underline" textLength="141" x="951.5" y="331.9521">mInstance: StaffCSVHelper</text><line style="stroke: #000000; stroke-width: 1.0;" x1="951.5" x2="1092.5" y1="333.9521" y2="333.9521"/><rect fill="none" height="6" style="stroke: #C82930; stroke-width: 1.0;" width="6" x="939.5" y="339.199"/><text fill="#000000" font-family="sans-serif" font-size="11" lengthAdjust="spacingAndGlyphs" textLength="82" x="951.5" y="344.7515">staffCsv: String</text><line style="stroke: #A80036; stroke-width: 1.5;" x1="932.5" x2="1177.5" y1="351.0986" y2="351.0986"/><ellipse cx="942.5" cy="362.9983" fill="#84BE84" rx="3" ry="3" style="stroke: #038048; stroke-width: 1.0;"/><text fill="#000000" font-family="sans-serif" font-size="11" lengthAdjust="spacingAndGlyphs" text-decoration="underline" textLength="156" x="951.5" y="365.5508">getInstance(): StaffCSVHelper</text><line style="stroke: #000000; stroke-width: 1.0;" x1="951.5" x2="1107.5" y1="367.5508" y2="367.5508"/><ellipse cx="942.5" cy="375.7976" fill="#84BE84" rx="3" ry="3" style="stroke: #038048; stroke-width: 1.0;"/><text fill="#000000" font-family="sans-serif" font-size="11" lengthAdjust="spacingAndGlyphs" textLength="177" x="951.5" y="378.3501">readFromCsv(): ArrayList&lt;Staff&gt;</text><ellipse cx="942.5" cy="388.5969" fill="#84BE84" rx="3" ry="3" style="stroke: #038048; stroke-width: 1.0;"/><text fill="#000000" font-family="sans-serif" font-size="11" lengthAdjust="spacingAndGlyphs" textLength="221" x="951.5" y="391.1494">writeToCsv(staffs:ArrayList&lt;Staff&gt;): void</text></a><!--class sg.edu.ntu.scse.cz2002.util.FileIOHelper--><a target="_top" xlink:actuate="onRequest" xlink:href="../sg/edu/ntu/scse/cz2002/util/FileIOHelper.html" xlink:show="new" xlink:title="../sg/edu/ntu/scse/cz2002/util/FileIOHelper.html" xlink:type="simple"><rect fill="#FEFECE" filter="url(#fwo6wl6e500ar)" height="124.7959" id="sg.edu.ntu.scse.cz2002.util.FileIOHelper" style="stroke: #A80036; stroke-width: 1.5;" width="303" x="2226.5" y="43"/><ellipse cx="2338.75" cy="59" fill="#ADD1B2" rx="11" ry="11" style="stroke: #A80036; stroke-width: 1.0;"/><path d="M2342.5781,64.6563 Q2340.7031,65.3125 2338.8906,65.3125 Q2336.2969,65.3125 2334.7109,63.5313 Q2333.125,61.75 2333.125,58.8438 Q2333.125,56.1563 2334.5313,54.3906 Q2335.3906,53.3125 2336.5078,52.8594 Q2337.625,52.4063 2339.4063,52.4063 Q2341.125,52.4063 2342.5781,52.7656 L2342.5781,54.75 Q2340.7031,54.0469 2339.4531,54.0469 Q2337.7656,54.0469 2336.7734,55.3672 Q2335.7813,56.6875 2335.7813,58.9219 Q2335.7813,60.9688 2336.8203,62.2656 Q2337.8594,63.5625 2339.5,63.5625 Q2340.8906,63.5625 2342.5781,62.7813 L2342.5781,64.6563 Z "/><text fill="#000000" font-family="sans-serif" font-size="12" lengthAdjust="spacingAndGlyphs" textLength="70" x="2359.25" y="63.4209">FileIOHelper</text><line style="stroke: #A80036; stroke-width: 1.5;" x1="2227.5" x2="2528.5" y1="75" y2="75"/><line style="stroke: #A80036; stroke-width: 1.5;" x1="2227.5" x2="2528.5" y1="83" y2="83"/><rect fill="#F24D5C" height="6" style="stroke: #C82930; stroke-width: 1.0;" width="6" x="2234.5" y="91.8997"/><text fill="#000000" font-family="sans-serif" font-size="11" lengthAdjust="spacingAndGlyphs" text-decoration="underline" textLength="49" x="2246.5" y="97.4521">init(): File</text><line style="stroke: #000000; stroke-width: 1.0;" x1="2246.5" x2="2295.5" y1="99.4521" y2="99.4521"/><ellipse cx="2237.5" cy="107.699" fill="#84BE84" rx="3" ry="3" style="stroke: #038048; stroke-width: 1.0;"/><text fill="#000000" font-family="sans-serif" font-size="11" lengthAdjust="spacingAndGlyphs" text-decoration="underline" textLength="153" x="2246.5" y="110.2515">exists(name:String): boolean</text><line style="stroke: #000000; stroke-width: 1.0;" x1="2246.5" x2="2399.5" y1="112.2515" y2="112.2515"/><ellipse cx="2237.5" cy="120.4983" fill="#84BE84" rx="3" ry="3" style="stroke: #038048; stroke-width: 1.0;"/><text fill="#000000" font-family="sans-serif" font-size="11" lengthAdjust="spacingAndGlyphs" text-decoration="underline" textLength="188" x="2246.5" y="123.0508">createFolder(name:String): boolean</text><line style="stroke: #000000; stroke-width: 1.0;" x1="2246.5" x2="2434.5" y1="125.0508" y2="125.0508"/><ellipse cx="2237.5" cy="133.2976" fill="#84BE84" rx="3" ry="3" style="stroke: #038048; stroke-width: 1.0;"/><text fill="#000000" font-family="sans-serif" font-size="11" lengthAdjust="spacingAndGlyphs" text-decoration="underline" textLength="131" x="2246.5" y="135.8501">getFile(name:String): File</text><line style="stroke: #000000; stroke-width: 1.0;" x1="2246.5" x2="2377.5" y1="137.8501" y2="137.8501"/><ellipse cx="2237.5" cy="146.0969" fill="#84BE84" rx="3" ry="3" style="stroke: #038048; stroke-width: 1.0;"/><text fill="#000000" font-family="sans-serif" font-size="11" lengthAdjust="spacingAndGlyphs" text-decoration="underline" textLength="277" x="2246.5" y="148.6494">getFileBufferedReader(name:String): BufferedReader</text><line style="stroke: #000000; stroke-width: 1.0;" x1="2246.5" x2="2523.5" y1="150.6494" y2="150.6494"/><ellipse cx="2237.5" cy="158.8962" fill="#84BE84" rx="3" ry="3" style="stroke: #038048; stroke-width: 1.0;"/><text fill="#000000" font-family="sans-serif" font-size="11" lengthAdjust="spacingAndGlyphs" text-decoration="underline" textLength="267" x="2246.5" y="161.4487">getFileBufferedWriter(name:String): BufferedWriter</text><line style="stroke: #000000; stroke-width: 1.0;" x1="2246.5" x2="2513.5" y1="163.4487" y2="163.4487"/></a><!--class sg.edu.ntu.scse.cz2002.util.ReservationCSVHelper--><a target="_top" xlink:actuate="onRequest" xlink:href="../sg/edu/ntu/scse/cz2002/util/ReservationCSVHelper.html" xlink:show="new" xlink:title="../sg/edu/ntu/scse/cz2002/util/ReservationCSVHelper.html" xlink:type="simple"><rect fill="#FEFECE" filter="url(#fwo6wl6e500ar)" height="111.9966" id="sg.edu.ntu.scse.cz2002.util.ReservationCSVHelper" style="stroke: #A80036; stroke-width: 1.5;" width="323" x="1213.5" y="285.5"/><ellipse cx="1306.75" cy="301.5" fill="#ADD1B2" rx="11" ry="11" style="stroke: #A80036; stroke-width: 1.0;"/><path d="M1310.5781,307.1563 Q1308.7031,307.8125 1306.8906,307.8125 Q1304.2969,307.8125 1302.7109,306.0313 Q1301.125,304.25 1301.125,301.3438 Q1301.125,298.6563 1302.5313,296.8906 Q1303.3906,295.8125 1304.5078,295.3594 Q1305.625,294.9063 1307.4063,294.9063 Q1309.125,294.9063 1310.5781,295.2656 L1310.5781,297.25 Q1308.7031,296.5469 1307.4531,296.5469 Q1305.7656,296.5469 1304.7734,297.8672 Q1303.7813,299.1875 1303.7813,301.4219 Q1303.7813,303.4688 1304.8203,304.7656 Q1305.8594,306.0625 1307.5,306.0625 Q1308.8906,306.0625 1310.5781,305.2813 L1310.5781,307.1563 Z "/><text fill="#000000" font-family="sans-serif" font-size="12" lengthAdjust="spacingAndGlyphs" textLength="128" x="1327.25" y="305.9209">ReservationCSVHelper</text><line style="stroke: #A80036; stroke-width: 1.5;" x1="1214.5" x2="1535.5" y1="317.5" y2="317.5"/><rect fill="none" height="6" style="stroke: #C82930; stroke-width: 1.0;" width="6" x="1221.5" y="326.3997"/><text fill="#000000" font-family="sans-serif" font-size="11" lengthAdjust="spacingAndGlyphs" text-decoration="underline" textLength="180" x="1233.5" y="331.9521">mInstance: ReservationCSVHelper</text><line style="stroke: #000000; stroke-width: 1.0;" x1="1233.5" x2="1413.5" y1="333.9521" y2="333.9521"/><rect fill="none" height="6" style="stroke: #C82930; stroke-width: 1.0;" width="6" x="1221.5" y="339.199"/><text fill="#000000" font-family="sans-serif" font-size="11" lengthAdjust="spacingAndGlyphs" textLength="119" x="1233.5" y="344.7515">reservationCsv: String</text><line style="stroke: #A80036; stroke-width: 1.5;" x1="1214.5" x2="1535.5" y1="351.0986" y2="351.0986"/><ellipse cx="1224.5" cy="362.9983" fill="#84BE84" rx="3" ry="3" style="stroke: #038048; stroke-width: 1.0;"/><text fill="#000000" font-family="sans-serif" font-size="11" lengthAdjust="spacingAndGlyphs" text-decoration="underline" textLength="195" x="1233.5" y="365.5508">getInstance(): ReservationCSVHelper</text><line style="stroke: #000000; stroke-width: 1.0;" x1="1233.5" x2="1428.5" y1="367.5508" y2="367.5508"/><ellipse cx="1224.5" cy="375.7976" fill="#84BE84" rx="3" ry="3" style="stroke: #038048; stroke-width: 1.0;"/><text fill="#000000" font-family="sans-serif" font-size="11" lengthAdjust="spacingAndGlyphs" textLength="216" x="1233.5" y="378.3501">readFromCsv(): ArrayList&lt;Reservation&gt;</text><ellipse cx="1224.5" cy="388.5969" fill="#84BE84" rx="3" ry="3" style="stroke: #038048; stroke-width: 1.0;"/><text fill="#000000" font-family="sans-serif" font-size="11" lengthAdjust="spacingAndGlyphs" textLength="297" x="1233.5" y="391.1494">writeToCsv(reservations:ArrayList&lt;Reservation&gt;): void</text></a><!--class sg.edu.ntu.scse.cz2002.util.ScannerHelper--><a target="_top" xlink:actuate="onRequest" xlink:href="../sg/edu/ntu/scse/cz2002/util/ScannerHelper.html" xlink:show="new" xlink:title="../sg/edu/ntu/scse/cz2002/util/ScannerHelper.html" xlink:type="simple"><rect fill="#FEFECE" filter="url(#fwo6wl6e500ar)" height="163.1938" id="sg.edu.ntu.scse.cz2002.util.ScannerHelper" style="stroke: #A80036; stroke-width: 1.5;" width="500" x="1881" y="260"/><ellipse cx="2084.75" cy="276" fill="#ADD1B2" rx="11" ry="11" style="stroke: #A80036; stroke-width: 1.0;"/><path d="M2088.5781,281.6563 Q2086.7031,282.3125 2084.8906,282.3125 Q2082.2969,282.3125 2080.7109,280.5313 Q2079.125,278.75 2079.125,275.8438 Q2079.125,273.1563 2080.5313,271.3906 Q2081.3906,270.3125 2082.5078,269.8594 Q2083.625,269.4063 2085.4063,269.4063 Q2087.125,269.4063 2088.5781,269.7656 L2088.5781,271.75 Q2086.7031,271.0469 2085.4531,271.0469 Q2083.7656,271.0469 2082.7734,272.3672 Q2081.7813,273.6875 2081.7813,275.9219 Q2081.7813,277.9688 2082.8203,279.2656 Q2083.8594,280.5625 2085.5,280.5625 Q2086.8906,280.5625 2088.5781,279.7813 L2088.5781,281.6563 Z "/><text fill="#000000" font-family="sans-serif" font-size="12" lengthAdjust="spacingAndGlyphs" textLength="84" x="2105.25" y="280.4209">ScannerHelper</text><line style="stroke: #A80036; stroke-width: 1.5;" x1="1882" x2="2380" y1="292" y2="292"/><ellipse cx="1892" cy="303.8997" fill="none" rx="3" ry="3" style="stroke: #038048; stroke-width: 1.0;"/><text fill="#000000" font-family="sans-serif" font-size="11" lengthAdjust="spacingAndGlyphs" text-decoration="underline" textLength="94" x="1901" y="306.4521">instance: Scanner</text><line style="stroke: #000000; stroke-width: 1.0;" x1="1901" x2="1995" y1="308.4521" y2="308.4521"/><line style="stroke: #A80036; stroke-width: 1.5;" x1="1882" x2="2380" y1="312.7993" y2="312.7993"/><ellipse cx="1892" cy="324.699" fill="#84BE84" rx="3" ry="3" style="stroke: #038048; stroke-width: 1.0;"/><text fill="#000000" font-family="sans-serif" font-size="11" lengthAdjust="spacingAndGlyphs" text-decoration="underline" textLength="186" x="1901" y="327.2515">getIntegerInput(prompt:String): int</text><line style="stroke: #000000; stroke-width: 1.0;" x1="1901" x2="2087" y1="329.2515" y2="329.2515"/><ellipse cx="1892" cy="337.4983" fill="#84BE84" rx="3" ry="3" style="stroke: #038048; stroke-width: 1.0;"/><text fill="#000000" font-family="sans-serif" font-size="11" lengthAdjust="spacingAndGlyphs" text-decoration="underline" textLength="229" x="1901" y="340.0508">getIntegerInput(prompt:String, min:int): int</text><line style="stroke: #000000; stroke-width: 1.0;" x1="1901" x2="2130" y1="342.0508" y2="342.0508"/><ellipse cx="1892" cy="350.2976" fill="#84BE84" rx="3" ry="3" style="stroke: #038048; stroke-width: 1.0;"/><text fill="#000000" font-family="sans-serif" font-size="11" lengthAdjust="spacingAndGlyphs" text-decoration="underline" textLength="275" x="1901" y="352.8501">getIntegerInput(prompt:String, min:int, max:int): int</text><line style="stroke: #000000; stroke-width: 1.0;" x1="1901" x2="2176" y1="354.8501" y2="354.8501"/><ellipse cx="1892" cy="363.0969" fill="#84BE84" rx="3" ry="3" style="stroke: #038048; stroke-width: 1.0;"/><text fill="#000000" font-family="sans-serif" font-size="11" lengthAdjust="spacingAndGlyphs" text-decoration="underline" textLength="474" x="1901" y="365.6494">getIntegerInput(prompt:String, acceptedValues:ArrayList&lt;Integer&gt;, errorMsg:String): int</text><line style="stroke: #000000; stroke-width: 1.0;" x1="1901" x2="2375" y1="367.6494" y2="367.6494"/><ellipse cx="1892" cy="375.8962" fill="#84BE84" rx="3" ry="3" style="stroke: #038048; stroke-width: 1.0;"/><text fill="#000000" font-family="sans-serif" font-size="11" lengthAdjust="spacingAndGlyphs" text-decoration="underline" textLength="209" x="1901" y="378.4487">getDoubleInput(prompt:String): double</text><line style="stroke: #000000; stroke-width: 1.0;" x1="1901" x2="2110" y1="380.4487" y2="380.4487"/><ellipse cx="1892" cy="388.6956" fill="#84BE84" rx="3" ry="3" style="stroke: #038048; stroke-width: 1.0;"/><text fill="#000000" font-family="sans-serif" font-size="11" lengthAdjust="spacingAndGlyphs" text-decoration="underline" textLength="252" x="1901" y="391.248">getDoubleInput(prompt:String, min:int): double</text><line style="stroke: #000000; stroke-width: 1.0;" x1="1901" x2="2153" y1="393.248" y2="393.248"/><ellipse cx="1892" cy="401.4949" fill="#84BE84" rx="3" ry="3" style="stroke: #038048; stroke-width: 1.0;"/><text fill="#000000" font-family="sans-serif" font-size="11" lengthAdjust="spacingAndGlyphs" text-decoration="underline" textLength="211" x="1901" y="404.0474">getYesNoInput(prompt:String): boolean</text><line style="stroke: #000000; stroke-width: 1.0;" x1="1901" x2="2112" y1="406.0474" y2="406.0474"/><ellipse cx="1892" cy="414.2942" fill="#84BE84" rx="3" ry="3" style="stroke: #038048; stroke-width: 1.0;"/><text fill="#000000" font-family="sans-serif" font-size="11" lengthAdjust="spacingAndGlyphs" text-decoration="underline" textLength="145" x="1901" y="416.8467">getScannerInput(): Scanner</text><line style="stroke: #000000; stroke-width: 1.0;" x1="1901" x2="2046" y1="418.8467" y2="418.8467"/></a><!--class sg.edu.ntu.scse.cz2002.util.MenuItemCSVHelper--><a target="_top" xlink:actuate="onRequest" xlink:href="../sg/edu/ntu/scse/cz2002/util/MenuItemCSVHelper.html" xlink:show="new" xlink:title="../sg/edu/ntu/scse/cz2002/util/MenuItemCSVHelper.html" xlink:type="simple"><rect fill="#FEFECE" filter="url(#fwo6wl6e500ar)" height="111.9966" id="sg.edu.ntu.scse.cz2002.util.MenuItemCSVHelper" style="stroke: #A80036; stroke-width: 1.5;" width="274" x="1572" y="285.5"/><ellipse cx="1646.25" cy="301.5" fill="#ADD1B2" rx="11" ry="11" style="stroke: #A80036; stroke-width: 1.0;"/><path d="M1650.0781,307.1563 Q1648.2031,307.8125 1646.3906,307.8125 Q1643.7969,307.8125 1642.2109,306.0313 Q1640.625,304.25 1640.625,301.3438 Q1640.625,298.6563 1642.0313,296.8906 Q1642.8906,295.8125 1644.0078,295.3594 Q1645.125,294.9063 1646.9063,294.9063 Q1648.625,294.9063 1650.0781,295.2656 L1650.0781,297.25 Q1648.2031,296.5469 1646.9531,296.5469 Q1645.2656,296.5469 1644.2734,297.8672 Q1643.2813,299.1875 1643.2813,301.4219 Q1643.2813,303.4688 1644.3203,304.7656 Q1645.3594,306.0625 1647,306.0625 Q1648.3906,306.0625 1650.0781,305.2813 L1650.0781,307.1563 Z "/><text fill="#000000" font-family="sans-serif" font-size="12" lengthAdjust="spacingAndGlyphs" textLength="117" x="1666.75" y="305.9209">MenuItemCSVHelper</text><line style="stroke: #A80036; stroke-width: 1.5;" x1="1573" x2="1845" y1="317.5" y2="317.5"/><rect fill="none" height="6" style="stroke: #C82930; stroke-width: 1.0;" width="6" x="1580" y="326.3997"/><text fill="#000000" font-family="sans-serif" font-size="11" lengthAdjust="spacingAndGlyphs" text-decoration="underline" textLength="169" x="1592" y="331.9521">mInstance: MenuItemCSVHelper</text><line style="stroke: #000000; stroke-width: 1.0;" x1="1592" x2="1761" y1="333.9521" y2="333.9521"/><rect fill="none" height="6" style="stroke: #C82930; stroke-width: 1.0;" width="6" x="1580" y="339.199"/><text fill="#000000" font-family="sans-serif" font-size="11" lengthAdjust="spacingAndGlyphs" textLength="111" x="1592" y="344.7515">menuItemCsv: String</text><line style="stroke: #A80036; stroke-width: 1.5;" x1="1573" x2="1845" y1="351.0986" y2="351.0986"/><ellipse cx="1583" cy="362.9983" fill="#84BE84" rx="3" ry="3" style="stroke: #038048; stroke-width: 1.0;"/><text fill="#000000" font-family="sans-serif" font-size="11" lengthAdjust="spacingAndGlyphs" text-decoration="underline" textLength="184" x="1592" y="365.5508">getInstance(): MenuItemCSVHelper</text><line style="stroke: #000000; stroke-width: 1.0;" x1="1592" x2="1776" y1="367.5508" y2="367.5508"/><ellipse cx="1583" cy="375.7976" fill="#84BE84" rx="3" ry="3" style="stroke: #038048; stroke-width: 1.0;"/><text fill="#000000" font-family="sans-serif" font-size="11" lengthAdjust="spacingAndGlyphs" textLength="205" x="1592" y="378.3501">readFromCsv(): ArrayList&lt;MenuItem&gt;</text><ellipse cx="1583" cy="388.5969" fill="#84BE84" rx="3" ry="3" style="stroke: #038048; stroke-width: 1.0;"/><text fill="#000000" font-family="sans-serif" font-size="11" lengthAdjust="spacingAndGlyphs" textLength="248" x="1592" y="391.1494">writeToCsv(items:ArrayList&lt;MenuItem&gt;): void</text></a><!--class sg.edu.ntu.scse.cz2002.util.DateTimeFormatHelper--><a target="_top" xlink:actuate="onRequest" xlink:href="../sg/edu/ntu/scse/cz2002/util/DateTimeFormatHelper.html" xlink:show="new" xlink:title="../sg/edu/ntu/scse/cz2002/util/DateTimeFormatHelper.html" xlink:type="simple"><rect fill="#FEFECE" filter="url(#fwo6wl6e500ar)" height="227.1904" id="sg.edu.ntu.scse.cz2002.util.DateTimeFormatHelper" style="stroke: #A80036; stroke-width: 1.5;" width="565" x="2416.5" y="228"/><ellipse cx="2627.25" cy="244" fill="#ADD1B2" rx="11" ry="11" style="stroke: #A80036; stroke-width: 1.0;"/><path d="M2631.0781,249.6563 Q2629.2031,250.3125 2627.3906,250.3125 Q2624.7969,250.3125 2623.2109,248.5313 Q2621.625,246.75 2621.625,243.8438 Q2621.625,241.1563 2623.0313,239.3906 Q2623.8906,238.3125 2625.0078,237.8594 Q2626.125,237.4063 2627.9063,237.4063 Q2629.625,237.4063 2631.0781,237.7656 L2631.0781,239.75 Q2629.2031,239.0469 2627.9531,239.0469 Q2626.2656,239.0469 2625.2734,240.3672 Q2624.2813,241.6875 2624.2813,243.9219 Q2624.2813,245.9688 2625.3203,247.2656 Q2626.3594,248.5625 2628,248.5625 Q2629.3906,248.5625 2631.0781,247.7813 L2631.0781,249.6563 Z "/><text fill="#000000" font-family="sans-serif" font-size="12" lengthAdjust="spacingAndGlyphs" textLength="135" x="2647.75" y="248.4209">DateTimeFormatHelper</text><line style="stroke: #A80036; stroke-width: 1.5;" x1="2417.5" x2="2980.5" y1="260" y2="260"/><rect fill="none" height="6" style="stroke: #C82930; stroke-width: 1.0;" width="6" x="2424.5" y="268.8997"/><text fill="#000000" font-family="sans-serif" font-size="11" lengthAdjust="spacingAndGlyphs" text-decoration="underline" textLength="120" x="2436.5" y="274.4521">MILLIS_TO_DAYS: long</text><line style="stroke: #000000; stroke-width: 1.0;" x1="2436.5" x2="2556.5" y1="276.4521" y2="276.4521"/><rect fill="none" height="6" style="stroke: #C82930; stroke-width: 1.0;" width="6" x="2424.5" y="281.699"/><text fill="#000000" font-family="sans-serif" font-size="11" lengthAdjust="spacingAndGlyphs" text-decoration="underline" textLength="120" x="2436.5" y="287.2515">TO_UTC_PLUS_8: long</text><line style="stroke: #000000; stroke-width: 1.0;" x1="2436.5" x2="2556.5" y1="289.2515" y2="289.2515"/><line style="stroke: #A80036; stroke-width: 1.5;" x1="2417.5" x2="2980.5" y1="293.5986" y2="293.5986"/><ellipse cx="2427.5" cy="305.4983" fill="#84BE84" rx="3" ry="3" style="stroke: #038048; stroke-width: 1.0;"/><text fill="#000000" font-family="sans-serif" font-size="11" lengthAdjust="spacingAndGlyphs" text-decoration="underline" textLength="230" x="2436.5" y="308.0508">formatToStringDate(date:LocalDate): String</text><line style="stroke: #000000; stroke-width: 1.0;" x1="2436.5" x2="2666.5" y1="310.0508" y2="310.0508"/><ellipse cx="2427.5" cy="318.2976" fill="#84BE84" rx="3" ry="3" style="stroke: #038048; stroke-width: 1.0;"/><text fill="#000000" font-family="sans-serif" font-size="11" lengthAdjust="spacingAndGlyphs" text-decoration="underline" textLength="234" x="2436.5" y="320.8501">formatToStringTime(time:LocalTime): String</text><line style="stroke: #000000; stroke-width: 1.0;" x1="2436.5" x2="2670.5" y1="322.8501" y2="322.8501"/><ellipse cx="2427.5" cy="331.0969" fill="#84BE84" rx="3" ry="3" style="stroke: #038048; stroke-width: 1.0;"/><text fill="#000000" font-family="sans-serif" font-size="11" lengthAdjust="spacingAndGlyphs" text-decoration="underline" textLength="226" x="2436.5" y="333.6494">formatToLocalDate(date:String): LocalDate</text><line style="stroke: #000000; stroke-width: 1.0;" x1="2436.5" x2="2662.5" y1="335.6494" y2="335.6494"/><ellipse cx="2427.5" cy="343.8962" fill="#84BE84" rx="3" ry="3" style="stroke: #038048; stroke-width: 1.0;"/><text fill="#000000" font-family="sans-serif" font-size="11" lengthAdjust="spacingAndGlyphs" text-decoration="underline" textLength="230" x="2436.5" y="346.4487">formatToLocalTime(time:String): LocalTime</text><line style="stroke: #000000; stroke-width: 1.0;" x1="2436.5" x2="2666.5" y1="348.4487" y2="348.4487"/><ellipse cx="2427.5" cy="356.6956" fill="#84BE84" rx="3" ry="3" style="stroke: #038048; stroke-width: 1.0;"/><text fill="#000000" font-family="sans-serif" font-size="11" lengthAdjust="spacingAndGlyphs" text-decoration="underline" textLength="262" x="2436.5" y="359.248">getTodayDate(getNextMonth:boolean): LocalDate</text><line style="stroke: #000000; stroke-width: 1.0;" x1="2436.5" x2="2698.5" y1="361.248" y2="361.248"/><ellipse cx="2427.5" cy="369.4949" fill="#84BE84" rx="3" ry="3" style="stroke: #038048; stroke-width: 1.0;"/><text fill="#000000" font-family="sans-serif" font-size="11" lengthAdjust="spacingAndGlyphs" text-decoration="underline" textLength="134" x="2436.5" y="372.0474">getTimeNow(): LocalTime</text><line style="stroke: #000000; stroke-width: 1.0;" x1="2436.5" x2="2570.5" y1="374.0474" y2="374.0474"/><ellipse cx="2427.5" cy="382.2942" fill="#84BE84" rx="3" ry="3" style="stroke: #038048; stroke-width: 1.0;"/><text fill="#000000" font-family="sans-serif" font-size="11" lengthAdjust="spacingAndGlyphs" text-decoration="underline" textLength="358" x="2436.5" y="384.8467">getTimeDifferenceMinutes(time1:LocalTime, time2:LocalTime): long</text><line style="stroke: #000000; stroke-width: 1.0;" x1="2436.5" x2="2794.5" y1="386.8467" y2="386.8467"/><ellipse cx="2427.5" cy="395.0935" fill="#84BE84" rx="3" ry="3" style="stroke: #038048; stroke-width: 1.0;"/><text fill="#000000" font-family="sans-serif" font-size="11" lengthAdjust="spacingAndGlyphs" text-decoration="underline" textLength="285" x="2436.5" y="397.646">compareIfBeforeToday(inputDate:LocalDate): boolean</text><line style="stroke: #000000; stroke-width: 1.0;" x1="2436.5" x2="2721.5" y1="399.646" y2="399.646"/><ellipse cx="2427.5" cy="407.8928" fill="#84BE84" rx="3" ry="3" style="stroke: #038048; stroke-width: 1.0;"/><text fill="#000000" font-family="sans-serif" font-size="11" lengthAdjust="spacingAndGlyphs" text-decoration="underline" textLength="228" x="2436.5" y="410.4453">formatMillisToDateTime(millis:long): String</text><line style="stroke: #000000; stroke-width: 1.0;" x1="2436.5" x2="2664.5" y1="412.4453" y2="412.4453"/><ellipse cx="2427.5" cy="420.6921" fill="#84BE84" rx="3" ry="3" style="stroke: #038048; stroke-width: 1.0;"/><text fill="#000000" font-family="sans-serif" font-size="11" lengthAdjust="spacingAndGlyphs" text-decoration="underline" textLength="539" x="2436.5" y="423.2446">checkResvTimeSession(resvTime:LocalTime, sessionStart:LocalTime, sessionEnd:LocalTime): boolean</text><line style="stroke: #000000; stroke-width: 1.0;" x1="2436.5" x2="2975.5" y1="425.2446" y2="425.2446"/><ellipse cx="2427.5" cy="433.4915" fill="#84BE84" rx="3" ry="3" style="stroke: #038048; stroke-width: 1.0;"/><text fill="#000000" font-family="sans-serif" font-size="11" lengthAdjust="spacingAndGlyphs" text-decoration="underline" textLength="180" x="2436.5" y="436.0439">validateDate(date:String): boolean</text><line style="stroke: #000000; stroke-width: 1.0;" x1="2436.5" x2="2616.5" y1="438.0439" y2="438.0439"/><ellipse cx="2427.5" cy="446.2908" fill="#84BE84" rx="3" ry="3" style="stroke: #038048; stroke-width: 1.0;"/><text fill="#000000" font-family="sans-serif" font-size="11" lengthAdjust="spacingAndGlyphs" text-decoration="underline" textLength="216" x="2436.5" y="448.8433">getSysTimeMillisWithSGTimeZone(): long</text><line style="stroke: #000000; stroke-width: 1.0;" x1="2436.5" x2="2652.5" y1="450.8433" y2="450.8433"/></a><!--link sg.edu.ntu.scse.cz2002.util.CSVBaseHelper to sg.edu.ntu.scse.cz2002.util.TableCSVHelper--><path d="M688.6951,132.9367 C527.2372,155.4674 323.9247,189.8001 248,228 C217.3765,243.4076 188.963,268.8705 167.2751,291.7784 " fill="none" id="sg.edu.ntu.scse.cz2002.util.CSVBaseHelper-sg.edu.ntu.scse.cz2002.util.TableCSVHelper" style="stroke: #A80036; stroke-width: 1.0;"/><polygon fill="none" points="687.8977,125.9804,708.6671,130.1796,689.8123,139.8489,687.8977,125.9804" style="stroke: #A80036; stroke-width: 1.0;"/><!--link sg.edu.ntu.scse.cz2002.util.CSVBaseHelper to sg.edu.ntu.scse.cz2002.util.PromoCSVHelper--><path d="M793.4014,149.9353 C739.4737,171.661 675.0852,199.2865 619,228 C585.4957,245.1529 549.9375,266.1181 518.9834,285.3409 " fill="none" id="sg.edu.ntu.scse.cz2002.util.CSVBaseHelper-sg.edu.ntu.scse.cz2002.util.PromoCSVHelper" style="stroke: #A80036; stroke-width: 1.0;"/><polygon fill="none" points="790.8394,143.4209,812.0093,142.5046,796.0314,156.4226,790.8394,143.4209" style="stroke: #A80036; stroke-width: 1.0;"/><!--link sg.edu.ntu.scse.cz2002.util.CSVBaseHelper to sg.edu.ntu.scse.cz2002.util.InvoiceCSVHelper--><path d="M876.9125,159.7268 C853.9799,197.3107 823.5191,247.2325 800.3226,285.2491 " fill="none" id="sg.edu.ntu.scse.cz2002.util.CSVBaseHelper-sg.edu.ntu.scse.cz2002.util.InvoiceCSVHelper" style="stroke: #A80036; stroke-width: 1.0;"/><polygon fill="none" points="870.9488,156.0613,887.3416,142.6346,882.8997,163.3535,870.9488,156.0613" style="stroke: #A80036; stroke-width: 1.0;"/><!--link sg.edu.ntu.scse.cz2002.util.CSVBaseHelper to sg.edu.ntu.scse.cz2002.util.StaffCSVHelper--><path d="M943.3173,159.7268 C966.4091,197.3107 997.0814,247.2325 1020.4391,285.2491 " fill="none" id="sg.edu.ntu.scse.cz2002.util.CSVBaseHelper-sg.edu.ntu.scse.cz2002.util.StaffCSVHelper" style="stroke: #A80036; stroke-width: 1.0;"/><polygon fill="none" points="937.3215,163.3397,932.8158,142.6346,949.2499,156.0108,937.3215,163.3397" style="stroke: #A80036; stroke-width: 1.0;"/><!--link sg.edu.ntu.scse.cz2002.util.CSVBaseHelper to sg.edu.ntu.scse.cz2002.util.ReservationCSVHelper--><path d="M1025.7338,150.1236 C1078.5721,171.746 1141.4009,199.2349 1196,228 C1228.3925,245.0658 1262.6457,266.0116 1292.4198,285.2432 " fill="none" id="sg.edu.ntu.scse.cz2002.util.CSVBaseHelper-sg.edu.ntu.scse.cz2002.util.ReservationCSVHelper" style="stroke: #A80036; stroke-width: 1.0;"/><polygon fill="none" points="1023.0281,156.5801,1007.1225,142.5797,1028.2873,143.6055,1023.0281,156.5801" style="stroke: #A80036; stroke-width: 1.0;"/><!--link sg.edu.ntu.scse.cz2002.util.CSVBaseHelper to sg.edu.ntu.scse.cz2002.util.MenuItemCSVHelper--><path d="M1131.3657,123.1432 C1259.0334,139.2362 1420.2462,169.8647 1554,228 C1586.7297,242.2257 1619.1776,264.3879 1645.8614,285.3668 " fill="none" id="sg.edu.ntu.scse.cz2002.util.CSVBaseHelper-sg.edu.ntu.scse.cz2002.util.MenuItemCSVHelper" style="stroke: #A80036; stroke-width: 1.0;"/><polygon fill="none" points="1130.1798,130.0506,1111.1731,120.6832,1131.8729,116.1534,1130.1798,130.0506" style="stroke: #A80036; stroke-width: 1.0;"/><!--link sg.edu.ntu.scse.cz2002.util.ICsvSerializable to sg.edu.ntu.scse.cz2002.util.FileIOHelper--><!--link sg.edu.ntu.scse.cz2002.util.ICsvSerializable to sg.edu.ntu.scse.cz2002.util.ScannerHelper--><!--link sg.edu.ntu.scse.cz2002.util.ScannerHelper to sg.edu.ntu.scse.cz2002.util.DateTimeFormatHelper--><text fill="#888888" font-family="sans-serif" font-size="10" lengthAdjust="spacingAndGlyphs" textLength="182" x="1417" y="490.502">UMLDoclet 1.1.3, PlantUML 1.2018.12</text><!--
@startuml

    namespace sg.edu.ntu.scse.cz2002.util {

        class CSVBaseHelper [[../sg/edu/ntu/scse/cz2002/util/CSVBaseHelper.html]] {
            #readAll(reader:BufferedReader, skip:int): List<String[]>
            #writeToCsvFile(writeStrings:List<String[]>, writer:BufferedWriter): void
        }

        class TableCSVHelper [[../sg/edu/ntu/scse/cz2002/util/TableCSVHelper.html]] {
            {static} -mInstance: TableCSVHelper
            -tableCsv: String
            {static} +getInstance(): TableCSVHelper
            +readFromCsv(): ArrayList<Table>
        }

        interface ICsvSerializable [[../sg/edu/ntu/scse/cz2002/util/ICsvSerializable.html]] {
            {abstract} +toCsv(): String[]
        }

        class PromoCSVHelper [[../sg/edu/ntu/scse/cz2002/util/PromoCSVHelper.html]] {
            {static} -pInstance: PromoCSVHelper
            -promotionCsv: String
            {static} +getInstance(): PromoCSVHelper
            +readFromCsv(): ArrayList<PromotionItem>
            +writeToCsv(promotions:ArrayList<PromotionItem>): void
        }

        class InvoiceCSVHelper [[../sg/edu/ntu/scse/cz2002/util/InvoiceCSVHelper.html]] {
            {static} -mInstance: InvoiceCSVHelper
            -orderCsv: String
            {static} +getInstance(): InvoiceCSVHelper
            +readFromCsv(): ArrayList<Invoice>
            +writeToCsv(items:ArrayList<Invoice>): void
        }

        class StaffCSVHelper [[../sg/edu/ntu/scse/cz2002/util/StaffCSVHelper.html]] {
            {static} -mInstance: StaffCSVHelper
            -staffCsv: String
            {static} +getInstance(): StaffCSVHelper
            +readFromCsv(): ArrayList<Staff>
            +writeToCsv(staffs:ArrayList<Staff>): void
        }

        class FileIOHelper [[../sg/edu/ntu/scse/cz2002/util/FileIOHelper.html]] {
            {static} -init(): File
            {static} +exists(name:String): boolean
            {static} +createFolder(name:String): boolean
            {static} +getFile(name:String): File
            {static} +getFileBufferedReader(name:String): BufferedReader
            {static} +getFileBufferedWriter(name:String): BufferedWriter
        }

        class ReservationCSVHelper [[../sg/edu/ntu/scse/cz2002/util/ReservationCSVHelper.html]] {
            {static} -mInstance: ReservationCSVHelper
            -reservationCsv: String
            {static} +getInstance(): ReservationCSVHelper
            +readFromCsv(): ArrayList<Reservation>
            +writeToCsv(reservations:ArrayList<Reservation>): void
        }

        class ScannerHelper [[../sg/edu/ntu/scse/cz2002/util/ScannerHelper.html]] {
            {static} +instance: Scanner
            {static} +getIntegerInput(prompt:String): int
            {static} +getIntegerInput(prompt:String, min:int): int
            {static} +getIntegerInput(prompt:String, min:int, max:int): int
            {static} +getIntegerInput(prompt:String, acceptedValues:ArrayList<Integer>, errorMsg:String): int
            {static} +getDoubleInput(prompt:String): double
            {static} +getDoubleInput(prompt:String, min:int): double
            {static} +getYesNoInput(prompt:String): boolean
            {static} +getScannerInput(): Scanner
        }

        class MenuItemCSVHelper [[../sg/edu/ntu/scse/cz2002/util/MenuItemCSVHelper.html]] {
            {static} -mInstance: MenuItemCSVHelper
            -menuItemCsv: String
            {static} +getInstance(): MenuItemCSVHelper
            +readFromCsv(): ArrayList<MenuItem>
            +writeToCsv(items:ArrayList<MenuItem>): void
        }

        class DateTimeFormatHelper [[../sg/edu/ntu/scse/cz2002/util/DateTimeFormatHelper.html]] {
            {static} -MILLIS_TO_DAYS: long
            {static} -TO_UTC_PLUS_8: long
            {static} +formatToStringDate(date:LocalDate): String
            {static} +formatToStringTime(time:LocalTime): String
            {static} +formatToLocalDate(date:String): LocalDate
            {static} +formatToLocalTime(time:String): LocalTime
            {static} +getTodayDate(getNextMonth:boolean): LocalDate
            {static} +getTimeNow(): LocalTime
            {static} +getTimeDifferenceMinutes(time1:LocalTime, time2:LocalTime): long
            {static} +compareIfBeforeToday(inputDate:LocalDate): boolean
            {static} +formatMillisToDateTime(millis:long): String
            {static} +checkResvTimeSession(resvTime:LocalTime, sessionStart:LocalTime, sessionEnd:LocalTime): boolean
            {static} +validateDate(date:String): boolean
            {static} +getSysTimeMillisWithSGTimeZone(): long
        }

        CSVBaseHelper <|- - TableCSVHelper

        CSVBaseHelper <|- - PromoCSVHelper

        CSVBaseHelper <|- - InvoiceCSVHelper

        CSVBaseHelper <|- - StaffCSVHelper

        CSVBaseHelper <|- - ReservationCSVHelper

        CSVBaseHelper <|- - MenuItemCSVHelper

    }


    center footer UMLDoclet 1.1.3, PlantUML 1.2018.12
@enduml

PlantUML version 1.2018.12(Sun Oct 21 10:15:15 GMT 2018)
(APACHE source distribution)
Java Runtime: Java(TM) SE Runtime Environment
JVM: Java HotSpot(TM) 64-Bit Server VM
Java Version: 1.8.0_202-b08
Operating System: Linux
OS Version: 4.19.23-coreos-r1
Default Encoding: UTF-8
Language: en
Country: null
--></g></svg>