<?xml version="1.0" encoding="UTF-8" standalone="no"?><svg xmlns="http://www.w3.org/2000/svg" xmlns:xlink="http://www.w3.org/1999/xlink" contentScriptType="application/ecmascript" contentStyleType="text/css" height="153px" preserveAspectRatio="none" style="width:198px;height:153px;" version="1.1" viewBox="0 0 198 153" width="198px" zoomAndPan="magnify"><defs><filter height="300%" id="fevx2ncfxbv71" width="300%" x="-1" y="-1"><feGaussianBlur result="blurOut" stdDeviation="2.0"/><feColorMatrix in="blurOut" result="blurOut2" type="matrix" values="0 0 0 0 0 0 0 0 0 0 0 0 0 0 0 0 0 0 .4 0"/><feOffset dx="4.0" dy="4.0" in="blurOut2" result="blurOut3"/><feBlend in="SourceGraphic" in2="blurOut3" mode="normal"/></filter></defs><g><!--class StaffMgmtMenuUI--><a target="_top" xlink:actuate="onRequest" xlink:href="../sg/edu/ntu/scse/cz2002/ui/StaffMgmtMenuUI.html" xlink:show="new" xlink:title="../sg/edu/ntu/scse/cz2002/ui/StaffMgmtMenuUI.html" xlink:type="simple"><rect fill="#FEFECE" filter="url(#fevx2ncfxbv71)" height="111.9966" id="StaffMgmtMenuUI" style="stroke: #A80036; stroke-width: 1.5;" width="166" x="6" y="8"/><ellipse cx="36.75" cy="24" fill="#ADD1B2" rx="11" ry="11" style="stroke: #A80036; stroke-width: 1.0;"/><path d="M40.5781,29.6563 Q38.7031,30.3125 36.8906,30.3125 Q34.2969,30.3125 32.7109,28.5313 Q31.125,26.75 31.125,23.8438 Q31.125,21.1563 32.5313,19.3906 Q33.3906,18.3125 34.5078,17.8594 Q35.625,17.4063 37.4063,17.4063 Q39.125,17.4063 40.5781,17.7656 L40.5781,19.75 Q38.7031,19.0469 37.4531,19.0469 Q35.7656,19.0469 34.7734,20.3672 Q33.7813,21.6875 33.7813,23.9219 Q33.7813,25.9688 34.8203,27.2656 Q35.8594,28.5625 37.5,28.5625 Q38.8906,28.5625 40.5781,27.7813 L40.5781,29.6563 Z "/><text fill="#000000" font-family="sans-serif" font-size="12" lengthAdjust="spacingAndGlyphs" textLength="99" x="54.25" y="28.4209">StaffMgmtMenuUI</text><line style="stroke: #A80036; stroke-width: 1.5;" x1="7" x2="171" y1="40" y2="40"/><line style="stroke: #A80036; stroke-width: 1.5;" x1="7" x2="171" y1="48" y2="48"/><polygon fill="#FFFF44" points="17,54.8997,21,58.8997,17,62.8997,13,58.8997" style="stroke: #B38D22; stroke-width: 1.0;"/><text fill="#000000" font-family="sans-serif" font-size="11" lengthAdjust="spacingAndGlyphs" textLength="140" x="26" y="62.4521">generateMenuScreen(): int</text><rect fill="#F24D5C" height="6" style="stroke: #C82930; stroke-width: 1.0;" width="6" x="14" y="69.699"/><text fill="#000000" font-family="sans-serif" font-size="11" lengthAdjust="spacingAndGlyphs" textLength="116" x="26" y="75.2515">createNewStaff(): void</text><rect fill="#F24D5C" height="6" style="stroke: #C82930; stroke-width: 1.0;" width="6" x="14" y="82.4983"/><text fill="#000000" font-family="sans-serif" font-size="11" lengthAdjust="spacingAndGlyphs" textLength="102" x="26" y="88.0508">editStaffInfo(): void</text><rect fill="#F24D5C" height="6" style="stroke: #C82930; stroke-width: 1.0;" width="6" x="14" y="95.2976"/><text fill="#000000" font-family="sans-serif" font-size="11" lengthAdjust="spacingAndGlyphs" textLength="101" x="26" y="100.8501">removeStaff(): void</text><rect fill="#F24D5C" height="6" style="stroke: #C82930; stroke-width: 1.0;" width="6" x="14" y="108.0969"/><text fill="#000000" font-family="sans-serif" font-size="11" lengthAdjust="spacingAndGlyphs" textLength="91" x="26" y="113.6494">listAllStaff(): void</text></a><text fill="#888888" font-family="sans-serif" font-size="10" lengthAdjust="spacingAndGlyphs" textLength="182" x="4" y="139.502">UMLDoclet 1.1.3, PlantUML 1.2018.12</text><!--
@startuml

    class StaffMgmtMenuUI [[../sg/edu/ntu/scse/cz2002/ui/StaffMgmtMenuUI.html]] {
        #generateMenuScreen(): int
        -createNewStaff(): void
        -editStaffInfo(): void
        -removeStaff(): void
        -listAllStaff(): void
    }


    center footer UMLDoclet 1.1.3, PlantUML 1.2018.12
@enduml

PlantUML version 1.2018.12(Sun Oct 21 10:15:15 GMT 2018)
(APACHE source distribution)
Java Runtime: Java(TM) SE Runtime Environment
JVM: Java HotSpot(TM) 64-Bit Server VM
Java Version: 1.8.0_202-b08
Operating System: Linux
OS Version: 4.19.23-coreos-r1
Default Encoding: UTF-8
Language: en
Country: null
--></g></svg>