<?xml version="1.0" encoding="UTF-8" standalone="no"?><svg xmlns="http://www.w3.org/2000/svg" xmlns:xlink="http://www.w3.org/1999/xlink" contentScriptType="application/ecmascript" contentStyleType="text/css" height="115px" preserveAspectRatio="none" style="width:419px;height:115px;" version="1.1" viewBox="0 0 419 115" width="419px" zoomAndPan="magnify"><defs><filter height="300%" id="f1a6z2zk67xgd8" width="300%" x="-1" y="-1"><feGaussianBlur result="blurOut" stdDeviation="2.0"/><feColorMatrix in="blurOut" result="blurOut2" type="matrix" values="0 0 0 0 0 0 0 0 0 0 0 0 0 0 0 0 0 0 .4 0"/><feOffset dx="4.0" dy="4.0" in="blurOut2" result="blurOut3"/><feBlend in="SourceGraphic" in2="blurOut3" mode="normal"/></filter></defs><g><!--class CSVBaseHelper--><a target="_top" xlink:actuate="onRequest" xlink:href="../sg/edu/ntu/scse/cz2002/util/CSVBaseHelper.html" xlink:show="new" xlink:title="../sg/edu/ntu/scse/cz2002/util/CSVBaseHelper.html" xlink:type="simple"><rect fill="#FEFECE" filter="url(#f1a6z2zk67xgd8)" height="73.5986" id="CSVBaseHelper" style="stroke: #A80036; stroke-width: 1.5;" width="402" x="6" y="8"/><ellipse cx="158.75" cy="24" fill="#ADD1B2" rx="11" ry="11" style="stroke: #A80036; stroke-width: 1.0;"/><path d="M162.5781,29.6563 Q160.7031,30.3125 158.8906,30.3125 Q156.2969,30.3125 154.7109,28.5313 Q153.125,26.75 153.125,23.8438 Q153.125,21.1563 154.5313,19.3906 Q155.3906,18.3125 156.5078,17.8594 Q157.625,17.4063 159.4063,17.4063 Q161.125,17.4063 162.5781,17.7656 L162.5781,19.75 Q160.7031,19.0469 159.4531,19.0469 Q157.7656,19.0469 156.7734,20.3672 Q155.7813,21.6875 155.7813,23.9219 Q155.7813,25.9688 156.8203,27.2656 Q157.8594,28.5625 159.5,28.5625 Q160.8906,28.5625 162.5781,27.7813 L162.5781,29.6563 Z "/><text fill="#000000" font-family="sans-serif" font-size="12" lengthAdjust="spacingAndGlyphs" textLength="88" x="179.25" y="28.4209">CSVBaseHelper</text><line style="stroke: #A80036; stroke-width: 1.5;" x1="7" x2="407" y1="40" y2="40"/><line style="stroke: #A80036; stroke-width: 1.5;" x1="7" x2="407" y1="48" y2="48"/><polygon fill="#FFFF44" points="17,54.8997,21,58.8997,17,62.8997,13,58.8997" style="stroke: #B38D22; stroke-width: 1.0;"/><text fill="#000000" font-family="sans-serif" font-size="11" lengthAdjust="spacingAndGlyphs" textLength="294" x="26" y="62.4521">readAll(reader:BufferedReader, skip:int): List&lt;String[]&gt;</text><polygon fill="#FFFF44" points="17,67.699,21,71.699,17,75.699,13,71.699" style="stroke: #B38D22; stroke-width: 1.0;"/><text fill="#000000" font-family="sans-serif" font-size="11" lengthAdjust="spacingAndGlyphs" textLength="376" x="26" y="75.2515">writeToCsvFile(writeStrings:List&lt;String[]&gt;, writer:BufferedWriter): void</text></a><text fill="#888888" font-family="sans-serif" font-size="10" lengthAdjust="spacingAndGlyphs" textLength="182" x="122" y="101.502">UMLDoclet 1.1.3, PlantUML 1.2018.12</text><!--
@startuml

    class CSVBaseHelper [[../sg/edu/ntu/scse/cz2002/util/CSVBaseHelper.html]] {
        #readAll(reader:BufferedReader, skip:int): List<String[]>
        #writeToCsvFile(writeStrings:List<String[]>, writer:BufferedWriter): void
    }


    center footer UMLDoclet 1.1.3, PlantUML 1.2018.12
@enduml

PlantUML version 1.2018.12(Sun Oct 21 10:15:15 GMT 2018)
(APACHE source distribution)
Java Runtime: Java(TM) SE Runtime Environment
JVM: Java HotSpot(TM) 64-Bit Server VM
Java Version: 1.8.0_202-b08
Operating System: Linux
OS Version: 4.19.23-coreos-r1
Default Encoding: UTF-8
Language: en
Country: null
--></g></svg>