<?xml version="1.0" encoding="UTF-8" standalone="no"?><svg xmlns="http://www.w3.org/2000/svg" xmlns:xlink="http://www.w3.org/1999/xlink" contentScriptType="application/ecmascript" contentStyleType="text/css" height="127px" preserveAspectRatio="none" style="width:210px;height:127px;" version="1.1" viewBox="0 0 210 127" width="210px" zoomAndPan="magnify"><defs><filter height="300%" id="f15ubbarotsdkh" width="300%" x="-1" y="-1"><feGaussianBlur result="blurOut" stdDeviation="2.0"/><feColorMatrix in="blurOut" result="blurOut2" type="matrix" values="0 0 0 0 0 0 0 0 0 0 0 0 0 0 0 0 0 0 .4 0"/><feOffset dx="4.0" dy="4.0" in="blurOut2" result="blurOut3"/><feBlend in="SourceGraphic" in2="blurOut3" mode="normal"/></filter></defs><g><!--class SalesRevenueReportMenuUI--><a target="_top" xlink:actuate="onRequest" xlink:href="../sg/edu/ntu/scse/cz2002/ui/SalesRevenueReportMenuUI.html" xlink:show="new" xlink:title="../sg/edu/ntu/scse/cz2002/ui/SalesRevenueReportMenuUI.html" xlink:type="simple"><rect fill="#FEFECE" filter="url(#f15ubbarotsdkh)" height="86.3979" id="SalesRevenueReportMenuUI" style="stroke: #A80036; stroke-width: 1.5;" width="191" x="6" y="8"/><ellipse cx="21" cy="24" fill="#ADD1B2" rx="11" ry="11" style="stroke: #A80036; stroke-width: 1.0;"/><path d="M24.8281,29.6563 Q22.9531,30.3125 21.1406,30.3125 Q18.5469,30.3125 16.9609,28.5313 Q15.375,26.75 15.375,23.8438 Q15.375,21.1563 16.7813,19.3906 Q17.6406,18.3125 18.7578,17.8594 Q19.875,17.4063 21.6563,17.4063 Q23.375,17.4063 24.8281,17.7656 L24.8281,19.75 Q22.9531,19.0469 21.7031,19.0469 Q20.0156,19.0469 19.0234,20.3672 Q18.0313,21.6875 18.0313,23.9219 Q18.0313,25.9688 19.0703,27.2656 Q20.1094,28.5625 21.75,28.5625 Q23.1406,28.5625 24.8281,27.7813 L24.8281,29.6563 Z "/><text fill="#000000" font-family="sans-serif" font-size="12" lengthAdjust="spacingAndGlyphs" textLength="159" x="35" y="28.4209">SalesRevenueReportMenuUI</text><line style="stroke: #A80036; stroke-width: 1.5;" x1="7" x2="196" y1="40" y2="40"/><line style="stroke: #A80036; stroke-width: 1.5;" x1="7" x2="196" y1="48" y2="48"/><polygon fill="#FFFF44" points="17,54.8997,21,58.8997,17,62.8997,13,58.8997" style="stroke: #B38D22; stroke-width: 1.0;"/><text fill="#000000" font-family="sans-serif" font-size="11" lengthAdjust="spacingAndGlyphs" textLength="140" x="26" y="62.4521">generateMenuScreen(): int</text><rect fill="#F24D5C" height="6" style="stroke: #C82930; stroke-width: 1.0;" width="6" x="14" y="69.699"/><text fill="#000000" font-family="sans-serif" font-size="11" lengthAdjust="spacingAndGlyphs" textLength="140" x="26" y="75.2515">generateDayReport(): void</text><rect fill="#F24D5C" height="6" style="stroke: #C82930; stroke-width: 1.0;" width="6" x="14" y="82.4983"/><text fill="#000000" font-family="sans-serif" font-size="11" lengthAdjust="spacingAndGlyphs" textLength="154" x="26" y="88.0508">generatePeriodReport(): void</text></a><text fill="#888888" font-family="sans-serif" font-size="10" lengthAdjust="spacingAndGlyphs" textLength="182" x="16.5" y="113.502">UMLDoclet 1.1.3, PlantUML 1.2018.12</text><!--
@startuml

    class SalesRevenueReportMenuUI [[../sg/edu/ntu/scse/cz2002/ui/SalesRevenueReportMenuUI.html]] {
        #generateMenuScreen(): int
        -generateDayReport(): void
        -generatePeriodReport(): void
    }


    center footer UMLDoclet 1.1.3, PlantUML 1.2018.12
@enduml

PlantUML version 1.2018.12(Sun Oct 21 10:15:15 GMT 2018)
(APACHE source distribution)
Java Runtime: Java(TM) SE Runtime Environment
JVM: Java HotSpot(TM) 64-Bit Server VM
Java Version: 1.8.0_202-b08
Operating System: Linux
OS Version: 4.19.23-coreos-r1
Default Encoding: UTF-8
Language: en
Country: null
--></g></svg>