<?xml version="1.0" encoding="UTF-8" standalone="no"?><svg xmlns="http://www.w3.org/2000/svg" xmlns:xlink="http://www.w3.org/1999/xlink" contentScriptType="application/ecmascript" contentStyleType="text/css" height="543px" preserveAspectRatio="none" style="width:819px;height:543px;" version="1.1" viewBox="0 0 819 543" width="819px" zoomAndPan="magnify"><defs><filter height="300%" id="f1appjhsxsvskf" width="300%" x="-1" y="-1"><feGaussianBlur result="blurOut" stdDeviation="2.0"/><feColorMatrix in="blurOut" result="blurOut2" type="matrix" values="0 0 0 0 0 0 0 0 0 0 0 0 0 0 0 0 0 0 .4 0"/><feOffset dx="4.0" dy="4.0" in="blurOut2" result="blurOut3"/><feBlend in="SourceGraphic" in2="blurOut3" mode="normal"/></filter></defs><g><!--cluster sg.edu.ntu.scse.cz2002.objects.menuitem--><polygon fill="#FFFFFF" filter="url(#f1appjhsxsvskf)" points="14,137,312,137,319,159.29,797,159.29,797,502,14,502,14,137" style="stroke: #000000; stroke-width: 1.5;"/><line style="stroke: #000000; stroke-width: 1.5;" x1="14" x2="319" y1="159.29" y2="159.29"/><text fill="#000000" font-family="sans-serif" font-size="14" font-weight="bold" lengthAdjust="spacingAndGlyphs" textLength="292" x="18" y="152.3369">sg.edu.ntu.scse.cz2002.objects.menuitem</text><!--cluster sg.edu.ntu.scse.cz2002.util--><polygon fill="#FFFFFF" filter="url(#f1appjhsxsvskf)" points="188,16,383,16,390,38.29,393,38.29,393,112,188,112,188,16" style="stroke: #000000; stroke-width: 1.5;"/><line style="stroke: #000000; stroke-width: 1.5;" x1="188" x2="390" y1="38.29" y2="38.29"/><text fill="#000000" font-family="sans-serif" font-size="14" font-weight="bold" lengthAdjust="spacingAndGlyphs" textLength="189" x="192" y="31.3369">sg.edu.ntu.scse.cz2002.util</text><!--cluster java.lang--><polygon fill="#FFFFFF" filter="url(#f1appjhsxsvskf)" points="640,22.5,709,22.5,716,44.79,744,44.79,744,105.5,640,105.5,640,22.5" style="stroke: #000000; stroke-width: 1.5;"/><line style="stroke: #000000; stroke-width: 1.5;" x1="640" x2="716" y1="44.79" y2="44.79"/><text fill="#000000" font-family="sans-serif" font-size="14" font-weight="bold" lengthAdjust="spacingAndGlyphs" textLength="63" x="644" y="37.8369">java.lang</text><!--class sg.edu.ntu.scse.cz2002.objects.menuitem.MenuItem--><rect fill="#FEFECE" filter="url(#f1appjhsxsvskf)" height="291.187" id="sg.edu.ntu.scse.cz2002.objects.menuitem.MenuItem" style="stroke: #A80036; stroke-width: 1.5;" width="257" x="302.5" y="183.5"/><ellipse cx="398.75" cy="199.5" fill="#ADD1B2" rx="11" ry="11" style="stroke: #A80036; stroke-width: 1.0;"/><path d="M402.5781,205.1563 Q400.7031,205.8125 398.8906,205.8125 Q396.2969,205.8125 394.7109,204.0313 Q393.125,202.25 393.125,199.3438 Q393.125,196.6563 394.5313,194.8906 Q395.3906,193.8125 396.5078,193.3594 Q397.625,192.9063 399.4063,192.9063 Q401.125,192.9063 402.5781,193.2656 L402.5781,195.25 Q400.7031,194.5469 399.4531,194.5469 Q397.7656,194.5469 396.7734,195.8672 Q395.7813,197.1875 395.7813,199.4219 Q395.7813,201.4688 396.8203,202.7656 Q397.8594,204.0625 399.5,204.0625 Q400.8906,204.0625 402.5781,203.2813 L402.5781,205.1563 Z "/><text fill="#000000" font-family="sans-serif" font-size="12" lengthAdjust="spacingAndGlyphs" textLength="56" x="419.25" y="203.9209">MenuItem</text><line style="stroke: #A80036; stroke-width: 1.5;" x1="303.5" x2="558.5" y1="215.5" y2="215.5"/><polygon fill="none" points="313.5,222.3997,317.5,226.3997,313.5,230.3997,309.5,226.3997" style="stroke: #B38D22; stroke-width: 1.0;"/><text fill="#000000" font-family="sans-serif" font-size="11" lengthAdjust="spacingAndGlyphs" textLength="30" x="322.5" y="229.9521">id: int</text><polygon fill="none" points="313.5,235.199,317.5,239.199,313.5,243.199,309.5,239.199" style="stroke: #B38D22; stroke-width: 1.0;"/><text fill="#000000" font-family="sans-serif" font-size="11" lengthAdjust="spacingAndGlyphs" textLength="67" x="322.5" y="242.7515">name: String</text><polygon fill="none" points="313.5,247.9983,317.5,251.9983,313.5,255.9983,309.5,251.9983" style="stroke: #B38D22; stroke-width: 1.0;"/><text fill="#000000" font-family="sans-serif" font-size="11" lengthAdjust="spacingAndGlyphs" textLength="61" x="322.5" y="255.5508">type: String</text><polygon fill="none" points="313.5,260.7976,317.5,264.7976,313.5,268.7976,309.5,264.7976" style="stroke: #B38D22; stroke-width: 1.0;"/><text fill="#000000" font-family="sans-serif" font-size="11" lengthAdjust="spacingAndGlyphs" textLength="99" x="322.5" y="268.3501">description: String</text><polygon fill="none" points="313.5,273.5969,317.5,277.5969,313.5,281.5969,309.5,277.5969" style="stroke: #B38D22; stroke-width: 1.0;"/><text fill="#000000" font-family="sans-serif" font-size="11" lengthAdjust="spacingAndGlyphs" textLength="70" x="322.5" y="281.1494">price: double</text><line style="stroke: #A80036; stroke-width: 1.5;" x1="303.5" x2="558.5" y1="287.4966" y2="287.4966"/><ellipse cx="313.5" cy="299.3962" fill="#84BE84" rx="3" ry="3" style="stroke: #038048; stroke-width: 1.0;"/><text fill="#000000" font-family="sans-serif" font-size="11" lengthAdjust="spacingAndGlyphs" textLength="60" x="322.5" y="301.9487">MenuItem()</text><ellipse cx="313.5" cy="312.1956" fill="#84BE84" rx="3" ry="3" style="stroke: #038048; stroke-width: 1.0;"/><text fill="#000000" font-family="sans-serif" font-size="11" lengthAdjust="spacingAndGlyphs" textLength="231" x="322.5" y="314.748">MenuItem(int, String, String, String, double)</text><ellipse cx="313.5" cy="324.9949" fill="#84BE84" rx="3" ry="3" style="stroke: #038048; stroke-width: 1.0;"/><text fill="#000000" font-family="sans-serif" font-size="11" lengthAdjust="spacingAndGlyphs" textLength="100" x="322.5" y="327.5474">MenuItem(String[])</text><ellipse cx="313.5" cy="337.7942" fill="#84BE84" rx="3" ry="3" style="stroke: #038048; stroke-width: 1.0;"/><text fill="#000000" font-family="sans-serif" font-size="11" lengthAdjust="spacingAndGlyphs" textLength="85" x="322.5" y="340.3467">toCsv(): String[]</text><ellipse cx="313.5" cy="350.5935" fill="#84BE84" rx="3" ry="3" style="stroke: #038048; stroke-width: 1.0;"/><text fill="#000000" font-family="sans-serif" font-size="11" lengthAdjust="spacingAndGlyphs" textLength="55" x="322.5" y="353.146">getId(): int</text><ellipse cx="313.5" cy="363.3928" fill="#84BE84" rx="3" ry="3" style="stroke: #038048; stroke-width: 1.0;"/><text fill="#000000" font-family="sans-serif" font-size="11" lengthAdjust="spacingAndGlyphs" textLength="77" x="322.5" y="365.9453">setId(int): void</text><ellipse cx="313.5" cy="376.1921" fill="#84BE84" rx="3" ry="3" style="stroke: #038048; stroke-width: 1.0;"/><text fill="#000000" font-family="sans-serif" font-size="11" lengthAdjust="spacingAndGlyphs" textLength="93" x="322.5" y="378.7446">getName(): String</text><ellipse cx="313.5" cy="388.9915" fill="#84BE84" rx="3" ry="3" style="stroke: #038048; stroke-width: 1.0;"/><text fill="#000000" font-family="sans-serif" font-size="11" lengthAdjust="spacingAndGlyphs" textLength="115" x="322.5" y="391.5439">setName(String): void</text><ellipse cx="313.5" cy="401.7908" fill="#84BE84" rx="3" ry="3" style="stroke: #038048; stroke-width: 1.0;"/><text fill="#000000" font-family="sans-serif" font-size="11" lengthAdjust="spacingAndGlyphs" textLength="89" x="322.5" y="404.3433">getType(): String</text><ellipse cx="313.5" cy="414.5901" fill="#84BE84" rx="3" ry="3" style="stroke: #038048; stroke-width: 1.0;"/><text fill="#000000" font-family="sans-serif" font-size="11" lengthAdjust="spacingAndGlyphs" textLength="111" x="322.5" y="417.1426">setType(String): void</text><ellipse cx="313.5" cy="427.3894" fill="#84BE84" rx="3" ry="3" style="stroke: #038048; stroke-width: 1.0;"/><text fill="#000000" font-family="sans-serif" font-size="11" lengthAdjust="spacingAndGlyphs" textLength="125" x="322.5" y="429.9419">getDescription(): String</text><ellipse cx="313.5" cy="440.1887" fill="#84BE84" rx="3" ry="3" style="stroke: #038048; stroke-width: 1.0;"/><text fill="#000000" font-family="sans-serif" font-size="11" lengthAdjust="spacingAndGlyphs" textLength="147" x="322.5" y="442.7412">setDescription(String): void</text><ellipse cx="313.5" cy="452.988" fill="#84BE84" rx="3" ry="3" style="stroke: #038048; stroke-width: 1.0;"/><text fill="#000000" font-family="sans-serif" font-size="11" lengthAdjust="spacingAndGlyphs" textLength="94" x="322.5" y="455.5405">getPrice(): double</text><ellipse cx="313.5" cy="465.7874" fill="#84BE84" rx="3" ry="3" style="stroke: #038048; stroke-width: 1.0;"/><text fill="#000000" font-family="sans-serif" font-size="11" lengthAdjust="spacingAndGlyphs" textLength="116" x="322.5" y="468.3398">setPrice(double): void</text><!--class sg.edu.ntu.scse.cz2002.objects.menuitem.ItemNotFoundException--><rect fill="#FEFECE" filter="url(#f1appjhsxsvskf)" height="60.7993" id="sg.edu.ntu.scse.cz2002.objects.menuitem.ItemNotFoundException" style="stroke: #A80036; stroke-width: 1.5;" width="195" x="594.5" y="298.5"/><ellipse cx="621.65" cy="314.5" fill="#ADD1B2" rx="11" ry="11" style="stroke: #A80036; stroke-width: 1.0;"/><path d="M625.4781,320.1563 Q623.6031,320.8125 621.7906,320.8125 Q619.1969,320.8125 617.6109,319.0313 Q616.025,317.25 616.025,314.3438 Q616.025,311.6563 617.4313,309.8906 Q618.2906,308.8125 619.4078,308.3594 Q620.525,307.9063 622.3063,307.9063 Q624.025,307.9063 625.4781,308.2656 L625.4781,310.25 Q623.6031,309.5469 622.3531,309.5469 Q620.6656,309.5469 619.6734,310.8672 Q618.6813,312.1875 618.6813,314.4219 Q618.6813,316.4688 619.7203,317.7656 Q620.7594,319.0625 622.4,319.0625 Q623.7906,319.0625 625.4781,318.2813 L625.4781,320.1563 Z "/><text fill="#000000" font-family="sans-serif" font-size="12" lengthAdjust="spacingAndGlyphs" textLength="136" x="638.35" y="318.9209">ItemNotFoundException</text><line style="stroke: #A80036; stroke-width: 1.5;" x1="595.5" x2="788.5" y1="330.5" y2="330.5"/><line style="stroke: #A80036; stroke-width: 1.5;" x1="595.5" x2="788.5" y1="338.5" y2="338.5"/><ellipse cx="605.5" cy="350.3997" fill="#84BE84" rx="3" ry="3" style="stroke: #038048; stroke-width: 1.0;"/><text fill="#000000" font-family="sans-serif" font-size="11" lengthAdjust="spacingAndGlyphs" textLength="169" x="614.5" y="352.9521">ItemNotFoundException(String)</text><!--class sg.edu.ntu.scse.cz2002.objects.menuitem.Promotion--><rect fill="#FEFECE" filter="url(#f1appjhsxsvskf)" height="329.585" id="sg.edu.ntu.scse.cz2002.objects.menuitem.Promotion" style="stroke: #A80036; stroke-width: 1.5;" width="245" x="22.5" y="164"/><ellipse cx="111.75" cy="180" fill="#ADD1B2" rx="11" ry="11" style="stroke: #A80036; stroke-width: 1.0;"/><path d="M115.5781,185.6563 Q113.7031,186.3125 111.8906,186.3125 Q109.2969,186.3125 107.7109,184.5313 Q106.125,182.75 106.125,179.8438 Q106.125,177.1563 107.5313,175.3906 Q108.3906,174.3125 109.5078,173.8594 Q110.625,173.4063 112.4063,173.4063 Q114.125,173.4063 115.5781,173.7656 L115.5781,175.75 Q113.7031,175.0469 112.4531,175.0469 Q110.7656,175.0469 109.7734,176.3672 Q108.7813,177.6875 108.7813,179.9219 Q108.7813,181.9688 109.8203,183.2656 Q110.8594,184.5625 112.5,184.5625 Q113.8906,184.5625 115.5781,183.7813 L115.5781,185.6563 Z "/><text fill="#000000" font-family="sans-serif" font-size="12" lengthAdjust="spacingAndGlyphs" textLength="58" x="132.25" y="184.4209">Promotion</text><line style="stroke: #A80036; stroke-width: 1.5;" x1="23.5" x2="266.5" y1="196" y2="196"/><polygon fill="none" points="33.5,202.8997,37.5,206.8997,33.5,210.8997,29.5,206.8997" style="stroke: #B38D22; stroke-width: 1.0;"/><text fill="#000000" font-family="sans-serif" font-size="11" lengthAdjust="spacingAndGlyphs" textLength="67" x="42.5" y="210.4521">promoID: int</text><polygon fill="none" points="33.5,215.699,37.5,219.699,33.5,223.699,29.5,219.699" style="stroke: #B38D22; stroke-width: 1.0;"/><text fill="#000000" font-family="sans-serif" font-size="11" lengthAdjust="spacingAndGlyphs" textLength="104" x="42.5" y="223.2515">promoName: String</text><polygon fill="none" points="33.5,228.4983,37.5,232.4983,33.5,236.4983,29.5,232.4983" style="stroke: #B38D22; stroke-width: 1.0;"/><text fill="#000000" font-family="sans-serif" font-size="11" lengthAdjust="spacingAndGlyphs" textLength="105" x="42.5" y="236.0508">promoPrice: double</text><polygon fill="none" points="33.5,241.2976,37.5,245.2976,33.5,249.2976,29.5,245.2976" style="stroke: #B38D22; stroke-width: 1.0;"/><text fill="#000000" font-family="sans-serif" font-size="11" lengthAdjust="spacingAndGlyphs" textLength="81" x="42.5" y="248.8501">promoMain: int</text><polygon fill="none" points="33.5,254.0969,37.5,258.0969,33.5,262.0969,29.5,258.0969" style="stroke: #B38D22; stroke-width: 1.0;"/><text fill="#000000" font-family="sans-serif" font-size="11" lengthAdjust="spacingAndGlyphs" textLength="97" x="42.5" y="261.6494">promoDessert: int</text><polygon fill="none" points="33.5,266.8962,37.5,270.8962,33.5,274.8962,29.5,270.8962" style="stroke: #B38D22; stroke-width: 1.0;"/><text fill="#000000" font-family="sans-serif" font-size="11" lengthAdjust="spacingAndGlyphs" textLength="85" x="42.5" y="274.4487">promoDrink: int</text><line style="stroke: #A80036; stroke-width: 1.5;" x1="23.5" x2="266.5" y1="280.7959" y2="280.7959"/><ellipse cx="33.5" cy="292.6956" fill="#84BE84" rx="3" ry="3" style="stroke: #038048; stroke-width: 1.0;"/><text fill="#000000" font-family="sans-serif" font-size="11" lengthAdjust="spacingAndGlyphs" textLength="64" x="42.5" y="295.248">Promotion()</text><ellipse cx="33.5" cy="305.4949" fill="#84BE84" rx="3" ry="3" style="stroke: #038048; stroke-width: 1.0;"/><text fill="#000000" font-family="sans-serif" font-size="11" lengthAdjust="spacingAndGlyphs" textLength="219" x="42.5" y="308.0474">Promotion(int, String, double, int, int, int)</text><ellipse cx="33.5" cy="318.2942" fill="#84BE84" rx="3" ry="3" style="stroke: #038048; stroke-width: 1.0;"/><text fill="#000000" font-family="sans-serif" font-size="11" lengthAdjust="spacingAndGlyphs" textLength="104" x="42.5" y="320.8467">Promotion(String[])</text><ellipse cx="33.5" cy="331.0935" fill="#84BE84" rx="3" ry="3" style="stroke: #038048; stroke-width: 1.0;"/><text fill="#000000" font-family="sans-serif" font-size="11" lengthAdjust="spacingAndGlyphs" textLength="85" x="42.5" y="333.646">toCsv(): String[]</text><ellipse cx="33.5" cy="343.8928" fill="#84BE84" rx="3" ry="3" style="stroke: #038048; stroke-width: 1.0;"/><text fill="#000000" font-family="sans-serif" font-size="11" lengthAdjust="spacingAndGlyphs" textLength="91" x="42.5" y="346.4453">getPromoID(): int</text><ellipse cx="33.5" cy="356.6921" fill="#84BE84" rx="3" ry="3" style="stroke: #038048; stroke-width: 1.0;"/><text fill="#000000" font-family="sans-serif" font-size="11" lengthAdjust="spacingAndGlyphs" textLength="113" x="42.5" y="359.2446">setPromoID(int): void</text><ellipse cx="33.5" cy="369.4915" fill="#84BE84" rx="3" ry="3" style="stroke: #038048; stroke-width: 1.0;"/><text fill="#000000" font-family="sans-serif" font-size="11" lengthAdjust="spacingAndGlyphs" textLength="128" x="42.5" y="372.0439">getPromoName(): String</text><ellipse cx="33.5" cy="382.2908" fill="#84BE84" rx="3" ry="3" style="stroke: #038048; stroke-width: 1.0;"/><text fill="#000000" font-family="sans-serif" font-size="11" lengthAdjust="spacingAndGlyphs" textLength="150" x="42.5" y="384.8433">setPromoName(String): void</text><ellipse cx="33.5" cy="395.0901" fill="#84BE84" rx="3" ry="3" style="stroke: #038048; stroke-width: 1.0;"/><text fill="#000000" font-family="sans-serif" font-size="11" lengthAdjust="spacingAndGlyphs" textLength="129" x="42.5" y="397.6426">getPromoPrice(): double</text><ellipse cx="33.5" cy="407.8894" fill="#84BE84" rx="3" ry="3" style="stroke: #038048; stroke-width: 1.0;"/><text fill="#000000" font-family="sans-serif" font-size="11" lengthAdjust="spacingAndGlyphs" textLength="151" x="42.5" y="410.4419">setPromoPrice(double): void</text><ellipse cx="33.5" cy="420.6887" fill="#84BE84" rx="3" ry="3" style="stroke: #038048; stroke-width: 1.0;"/><text fill="#000000" font-family="sans-serif" font-size="11" lengthAdjust="spacingAndGlyphs" textLength="105" x="42.5" y="423.2412">getPromoMain(): int</text><ellipse cx="33.5" cy="433.488" fill="#84BE84" rx="3" ry="3" style="stroke: #038048; stroke-width: 1.0;"/><text fill="#000000" font-family="sans-serif" font-size="11" lengthAdjust="spacingAndGlyphs" textLength="127" x="42.5" y="436.0405">setPromoMain(int): void</text><ellipse cx="33.5" cy="446.2874" fill="#84BE84" rx="3" ry="3" style="stroke: #038048; stroke-width: 1.0;"/><text fill="#000000" font-family="sans-serif" font-size="11" lengthAdjust="spacingAndGlyphs" textLength="121" x="42.5" y="448.8398">getPromoDessert(): int</text><ellipse cx="33.5" cy="459.0867" fill="#84BE84" rx="3" ry="3" style="stroke: #038048; stroke-width: 1.0;"/><text fill="#000000" font-family="sans-serif" font-size="11" lengthAdjust="spacingAndGlyphs" textLength="143" x="42.5" y="461.6392">setPromoDessert(int): void</text><ellipse cx="33.5" cy="471.886" fill="#84BE84" rx="3" ry="3" style="stroke: #038048; stroke-width: 1.0;"/><text fill="#000000" font-family="sans-serif" font-size="11" lengthAdjust="spacingAndGlyphs" textLength="109" x="42.5" y="474.4385">getPromoDrink(): int</text><ellipse cx="33.5" cy="484.6853" fill="#84BE84" rx="3" ry="3" style="stroke: #038048; stroke-width: 1.0;"/><text fill="#000000" font-family="sans-serif" font-size="11" lengthAdjust="spacingAndGlyphs" textLength="131" x="42.5" y="487.2378">setPromoDrink(int): void</text><!--class sg.edu.ntu.scse.cz2002.util.ICsvSerializable--><rect fill="#FEFECE" filter="url(#f1appjhsxsvskf)" height="60.7993" id="sg.edu.ntu.scse.cz2002.util.ICsvSerializable" style="stroke: #A80036; stroke-width: 1.5;" width="121" x="227.5" y="43"/><ellipse cx="242.5" cy="59" fill="#B4A7E5" rx="11" ry="11" style="stroke: #A80036; stroke-width: 1.0;"/><path d="M238.5156,65 L238.5156,63.3594 L241.3906,63.3594 L241.3906,54.3438 L238.5156,54.3438 L238.5156,52.7188 L246.7188,52.7188 L246.7188,54.3438 L243.8438,54.3438 L243.8438,63.3594 L246.7188,63.3594 L246.7188,65 L238.5156,65 Z "/><text fill="#000000" font-family="sans-serif" font-size="12" font-style="italic" lengthAdjust="spacingAndGlyphs" textLength="89" x="256.5" y="63.4209">ICsvSerializable</text><line style="stroke: #A80036; stroke-width: 1.5;" x1="228.5" x2="347.5" y1="75" y2="75"/><line style="stroke: #A80036; stroke-width: 1.5;" x1="228.5" x2="347.5" y1="83" y2="83"/><ellipse cx="238.5" cy="94.8997" fill="#84BE84" rx="3" ry="3" style="stroke: #038048; stroke-width: 1.0;"/><text fill="#000000" font-family="sans-serif" font-size="11" font-style="italic" lengthAdjust="spacingAndGlyphs" textLength="85" x="247.5" y="97.4521">toCsv(): String[]</text><!--class java.lang.Exception--><rect fill="#FEFECE" filter="url(#f1appjhsxsvskf)" height="48" id="java.lang.Exception" style="stroke: #A80036; stroke-width: 1.5;" width="88" x="648" y="49.5"/><ellipse cx="663" cy="65.5" fill="#ADD1B2" rx="11" ry="11" style="stroke: #A80036; stroke-width: 1.0;"/><path d="M666.8281,71.1563 Q664.9531,71.8125 663.1406,71.8125 Q660.5469,71.8125 658.9609,70.0313 Q657.375,68.25 657.375,65.3438 Q657.375,62.6563 658.7813,60.8906 Q659.6406,59.8125 660.7578,59.3594 Q661.875,58.9063 663.6563,58.9063 Q665.375,58.9063 666.8281,59.2656 L666.8281,61.25 Q664.9531,60.5469 663.7031,60.5469 Q662.0156,60.5469 661.0234,61.8672 Q660.0313,63.1875 660.0313,65.4219 Q660.0313,67.4688 661.0703,68.7656 Q662.1094,70.0625 663.75,70.0625 Q665.1406,70.0625 666.8281,69.2813 L666.8281,71.1563 Z "/><text fill="#000000" font-family="sans-serif" font-size="12" lengthAdjust="spacingAndGlyphs" textLength="56" x="677" y="69.9209">Exception</text><line style="stroke: #A80036; stroke-width: 1.5;" x1="649" x2="735" y1="81.5" y2="81.5"/><line style="stroke: #A80036; stroke-width: 1.5;" x1="649" x2="735" y1="89.5" y2="89.5"/><!--link sg.edu.ntu.scse.cz2002.util.ICsvSerializable to sg.edu.ntu.scse.cz2002.objects.menuitem.MenuItem--><path d="M315.0018,121.7446 C325.0619,139.719 337.0728,161.179 349.4946,183.3733 " fill="none" id="sg.edu.ntu.scse.cz2002.util.ICsvSerializable-sg.edu.ntu.scse.cz2002.objects.menuitem.MenuItem" style="stroke: #A80036; stroke-width: 1.0; stroke-dasharray: 7.0,7.0;"/><polygon fill="none" points="308.7667,124.9367,305.1071,104.0655,320.9834,118.0992,308.7667,124.9367" style="stroke: #A80036; stroke-width: 1.0;"/><!--link java.lang.Exception to sg.edu.ntu.scse.cz2002.objects.menuitem.ItemNotFoundException--><path d="M692,117.7643 C692,169.3279 692,253.1745 692,298.1579 " fill="none" id="java.lang.Exception-sg.edu.ntu.scse.cz2002.objects.menuitem.ItemNotFoundException" style="stroke: #A80036; stroke-width: 1.0;"/><polygon fill="none" points="685.0001,117.5369,692,97.5368,699.0001,117.5368,685.0001,117.5369" style="stroke: #A80036; stroke-width: 1.0;"/><!--link sg.edu.ntu.scse.cz2002.util.ICsvSerializable to sg.edu.ntu.scse.cz2002.objects.menuitem.Promotion--><path d="M260.9765,121.7832 C253.9107,134.4078 245.8836,148.7499 237.4283,163.8571 " fill="none" id="sg.edu.ntu.scse.cz2002.util.ICsvSerializable-sg.edu.ntu.scse.cz2002.objects.menuitem.Promotion" style="stroke: #A80036; stroke-width: 1.0; stroke-dasharray: 7.0,7.0;"/><polygon fill="none" points="255.0166,118.0992,270.8929,104.0655,267.2333,124.9367,255.0166,118.0992" style="stroke: #A80036; stroke-width: 1.0;"/><text fill="#888888" font-family="sans-serif" font-size="10" lengthAdjust="spacingAndGlyphs" textLength="182" x="320.5" y="529.502">UMLDoclet 1.1.3, PlantUML 1.2018.12</text><!--
@startuml

    namespace sg.edu.ntu.scse.cz2002.objects.menuitem {

        class MenuItem {
            #id: int
            #name: String
            #type: String
            #description: String
            #price: double
            +MenuItem()
            +MenuItem(int, String, String, String, double)
            +MenuItem(String[])
            +toCsv(): String[]
            +getId(): int
            +setId(int): void
            +getName(): String
            +setName(String): void
            +getType(): String
            +setType(String): void
            +getDescription(): String
            +setDescription(String): void
            +getPrice(): double
            +setPrice(double): void
        }

        class ItemNotFoundException {
            +ItemNotFoundException(String)
        }

        class Promotion {
            #promoID: int
            #promoName: String
            #promoPrice: double
            #promoMain: int
            #promoDessert: int
            #promoDrink: int
            +Promotion()
            +Promotion(int, String, double, int, int, int)
            +Promotion(String[])
            +toCsv(): String[]
            +getPromoID(): int
            +setPromoID(int): void
            +getPromoName(): String
            +setPromoName(String): void
            +getPromoPrice(): double
            +setPromoPrice(double): void
            +getPromoMain(): int
            +setPromoMain(int): void
            +getPromoDessert(): int
            +setPromoDessert(int): void
            +getPromoDrink(): int
            +setPromoDrink(int): void
        }

        interface sg.edu.ntu.scse.cz2002.util.ICsvSerializable {
            {abstract} +toCsv(): String[]
        }
        sg.edu.ntu.scse.cz2002.util.ICsvSerializable <|.. MenuItem

        class java.lang.Exception
        java.lang.Exception <|- - ItemNotFoundException

        sg.edu.ntu.scse.cz2002.util.ICsvSerializable <|.. Promotion

    }


    center footer UMLDoclet 1.1.3, PlantUML 1.2018.12
@enduml

PlantUML version 1.2018.12(Sun Oct 21 10:15:15 GMT 2018)
(APACHE source distribution)
Java Runtime: Java(TM) SE Runtime Environment
JVM: Java HotSpot(TM) 64-Bit Server VM
Java Version: 1.8.0_202-b08
Operating System: Linux
OS Version: 4.19.23-coreos-r1
Default Encoding: UTF-8
Language: en
Country: null
--></g></svg>