<?xml version="1.0" encoding="UTF-8" standalone="no"?><svg xmlns="http://www.w3.org/2000/svg" xmlns:xlink="http://www.w3.org/1999/xlink" contentScriptType="application/ecmascript" contentStyleType="text/css" height="153px" preserveAspectRatio="none" style="width:329px;height:153px;" version="1.1" viewBox="0 0 329 153" width="329px" zoomAndPan="magnify"><defs><filter height="300%" id="f1uf49txpl2zl1" width="300%" x="-1" y="-1"><feGaussianBlur result="blurOut" stdDeviation="2.0"/><feColorMatrix in="blurOut" result="blurOut2" type="matrix" values="0 0 0 0 0 0 0 0 0 0 0 0 0 0 0 0 0 0 .4 0"/><feOffset dx="4.0" dy="4.0" in="blurOut2" result="blurOut3"/><feBlend in="SourceGraphic" in2="blurOut3" mode="normal"/></filter></defs><g><!--class PromoCSVHelper--><a target="_top" xlink:actuate="onRequest" xlink:href="../sg/edu/ntu/scse/cz2002/util/PromoCSVHelper.html" xlink:show="new" xlink:title="../sg/edu/ntu/scse/cz2002/util/PromoCSVHelper.html" xlink:type="simple"><rect fill="#FEFECE" filter="url(#f1uf49txpl2zl1)" height="111.9966" id="PromoCSVHelper" style="stroke: #A80036; stroke-width: 1.5;" width="312" x="6" y="8"/><ellipse cx="108.75" cy="24" fill="#ADD1B2" rx="11" ry="11" style="stroke: #A80036; stroke-width: 1.0;"/><path d="M112.5781,29.6563 Q110.7031,30.3125 108.8906,30.3125 Q106.2969,30.3125 104.7109,28.5313 Q103.125,26.75 103.125,23.8438 Q103.125,21.1563 104.5313,19.3906 Q105.3906,18.3125 106.5078,17.8594 Q107.625,17.4063 109.4063,17.4063 Q111.125,17.4063 112.5781,17.7656 L112.5781,19.75 Q110.7031,19.0469 109.4531,19.0469 Q107.7656,19.0469 106.7734,20.3672 Q105.7813,21.6875 105.7813,23.9219 Q105.7813,25.9688 106.8203,27.2656 Q107.8594,28.5625 109.5,28.5625 Q110.8906,28.5625 112.5781,27.7813 L112.5781,29.6563 Z "/><text fill="#000000" font-family="sans-serif" font-size="12" lengthAdjust="spacingAndGlyphs" textLength="98" x="129.25" y="28.4209">PromoCSVHelper</text><line style="stroke: #A80036; stroke-width: 1.5;" x1="7" x2="317" y1="40" y2="40"/><rect fill="none" height="6" style="stroke: #C82930; stroke-width: 1.0;" width="6" x="14" y="48.8997"/><text fill="#000000" font-family="sans-serif" font-size="11" lengthAdjust="spacingAndGlyphs" text-decoration="underline" textLength="149" x="26" y="54.4521">pInstance: PromoCSVHelper</text><line style="stroke: #000000; stroke-width: 1.0;" x1="26" x2="175" y1="56.4521" y2="56.4521"/><rect fill="none" height="6" style="stroke: #C82930; stroke-width: 1.0;" width="6" x="14" y="61.699"/><text fill="#000000" font-family="sans-serif" font-size="11" lengthAdjust="spacingAndGlyphs" textLength="115" x="26" y="67.2515">promotionCsv: String</text><line style="stroke: #A80036; stroke-width: 1.5;" x1="7" x2="317" y1="73.5986" y2="73.5986"/><ellipse cx="17" cy="85.4983" fill="#84BE84" rx="3" ry="3" style="stroke: #038048; stroke-width: 1.0;"/><text fill="#000000" font-family="sans-serif" font-size="11" lengthAdjust="spacingAndGlyphs" text-decoration="underline" textLength="167" x="26" y="88.0508">getInstance(): PromoCSVHelper</text><line style="stroke: #000000; stroke-width: 1.0;" x1="26" x2="193" y1="90.0508" y2="90.0508"/><ellipse cx="17" cy="98.2976" fill="#84BE84" rx="3" ry="3" style="stroke: #038048; stroke-width: 1.0;"/><text fill="#000000" font-family="sans-serif" font-size="11" lengthAdjust="spacingAndGlyphs" textLength="209" x="26" y="100.8501">readFromCsv(): ArrayList&lt;Promotion&gt;</text><ellipse cx="17" cy="111.0969" fill="#84BE84" rx="3" ry="3" style="stroke: #038048; stroke-width: 1.0;"/><text fill="#000000" font-family="sans-serif" font-size="11" lengthAdjust="spacingAndGlyphs" textLength="286" x="26" y="113.6494">writeToCsv(promotions:ArrayList&lt;Promotion&gt;): void</text></a><text fill="#888888" font-family="sans-serif" font-size="10" lengthAdjust="spacingAndGlyphs" textLength="182" x="77" y="139.502">UMLDoclet 1.1.3, PlantUML 1.2018.12</text><!--
@startuml

    class PromoCSVHelper [[../sg/edu/ntu/scse/cz2002/util/PromoCSVHelper.html]] {
        {static} -pInstance: PromoCSVHelper
        -promotionCsv: String
        {static} +getInstance(): PromoCSVHelper
        +readFromCsv(): ArrayList<Promotion>
        +writeToCsv(promotions:ArrayList<Promotion>): void
    }


    center footer UMLDoclet 1.1.3, PlantUML 1.2018.12
@enduml

PlantUML version 1.2018.12(Sun Oct 21 10:15:15 GMT 2018)
(APACHE source distribution)
Java Runtime: Java(TM) SE Runtime Environment
JVM: Java HotSpot(TM) 64-Bit Server VM
Java Version: 1.8.0_202-b08
Operating System: Linux
OS Version: 4.19.23-coreos-r1
Default Encoding: UTF-8
Language: en
Country: null
--></g></svg>