<?xml version="1.0" encoding="UTF-8" standalone="no"?><svg xmlns="http://www.w3.org/2000/svg" xmlns:xlink="http://www.w3.org/1999/xlink" contentScriptType="application/ecmascript" contentStyleType="text/css" height="166px" preserveAspectRatio="none" style="width:198px;height:166px;" version="1.1" viewBox="0 0 198 166" width="198px" zoomAndPan="magnify"><defs><filter height="300%" id="f15l47z1qow4qs" width="300%" x="-1" y="-1"><feGaussianBlur result="blurOut" stdDeviation="2.0"/><feColorMatrix in="blurOut" result="blurOut2" type="matrix" values="0 0 0 0 0 0 0 0 0 0 0 0 0 0 0 0 0 0 .4 0"/><feOffset dx="4.0" dy="4.0" in="blurOut2" result="blurOut3"/><feBlend in="SourceGraphic" in2="blurOut3" mode="normal"/></filter></defs><g><!--class FoodMenuUI--><a target="_top" xlink:actuate="onRequest" xlink:href="../sg/edu/ntu/scse/cz2002/ui/FoodMenuUI.html" xlink:show="new" xlink:title="../sg/edu/ntu/scse/cz2002/ui/FoodMenuUI.html" xlink:type="simple"><rect fill="#FEFECE" filter="url(#f15l47z1qow4qs)" height="124.7959" id="FoodMenuUI" style="stroke: #A80036; stroke-width: 1.5;" width="166" x="6" y="8"/><ellipse cx="49.8" cy="24" fill="#ADD1B2" rx="11" ry="11" style="stroke: #A80036; stroke-width: 1.0;"/><path d="M53.6281,29.6563 Q51.7531,30.3125 49.9406,30.3125 Q47.3469,30.3125 45.7609,28.5313 Q44.175,26.75 44.175,23.8438 Q44.175,21.1563 45.5813,19.3906 Q46.4406,18.3125 47.5578,17.8594 Q48.675,17.4063 50.4563,17.4063 Q52.175,17.4063 53.6281,17.7656 L53.6281,19.75 Q51.7531,19.0469 50.5031,19.0469 Q48.8156,19.0469 47.8234,20.3672 Q46.8313,21.6875 46.8313,23.9219 Q46.8313,25.9688 47.8703,27.2656 Q48.9094,28.5625 50.55,28.5625 Q51.9406,28.5625 53.6281,27.7813 L53.6281,29.6563 Z "/><text fill="#000000" font-family="sans-serif" font-size="12" lengthAdjust="spacingAndGlyphs" textLength="70" x="70.2" y="28.4209">FoodMenuUI</text><line style="stroke: #A80036; stroke-width: 1.5;" x1="7" x2="171" y1="40" y2="40"/><rect fill="none" height="6" style="stroke: #C82930; stroke-width: 1.0;" width="6" x="14" y="48.8997"/><text fill="#000000" font-family="sans-serif" font-size="11" lengthAdjust="spacingAndGlyphs" textLength="61" x="26" y="54.4521">sc: Scanner</text><line style="stroke: #A80036; stroke-width: 1.5;" x1="7" x2="171" y1="60.7993" y2="60.7993"/><polygon fill="#FFFF44" points="17,67.699,21,71.699,17,75.699,13,71.699" style="stroke: #B38D22; stroke-width: 1.0;"/><text fill="#000000" font-family="sans-serif" font-size="11" lengthAdjust="spacingAndGlyphs" textLength="140" x="26" y="75.2515">generateMenuScreen(): int</text><rect fill="#F24D5C" height="6" style="stroke: #C82930; stroke-width: 1.0;" width="6" x="14" y="82.4983"/><text fill="#000000" font-family="sans-serif" font-size="11" lengthAdjust="spacingAndGlyphs" textLength="92" x="26" y="88.0508">printMenu(): void</text><rect fill="#F24D5C" height="6" style="stroke: #C82930; stroke-width: 1.0;" width="6" x="14" y="95.2976"/><text fill="#000000" font-family="sans-serif" font-size="11" lengthAdjust="spacingAndGlyphs" textLength="131" x="26" y="100.8501">addNewMenuItem(): void</text><rect fill="#F24D5C" height="6" style="stroke: #C82930; stroke-width: 1.0;" width="6" x="14" y="108.0969"/><text fill="#000000" font-family="sans-serif" font-size="11" lengthAdjust="spacingAndGlyphs" textLength="109" x="26" y="113.6494">editMenuItem(): void</text><rect fill="#F24D5C" height="6" style="stroke: #C82930; stroke-width: 1.0;" width="6" x="14" y="120.8962"/><text fill="#000000" font-family="sans-serif" font-size="11" lengthAdjust="spacingAndGlyphs" textLength="121" x="26" y="126.4487">deleteMenuItem(): void</text></a><text fill="#888888" font-family="sans-serif" font-size="10" lengthAdjust="spacingAndGlyphs" textLength="182" x="4" y="152.502">UMLDoclet 1.1.3, PlantUML 1.2018.12</text><!--
@startuml

    class FoodMenuUI [[../sg/edu/ntu/scse/cz2002/ui/FoodMenuUI.html]] {
        -sc: Scanner
        #generateMenuScreen(): int
        -printMenu(): void
        -addNewMenuItem(): void
        -editMenuItem(): void
        -deleteMenuItem(): void
    }


    center footer UMLDoclet 1.1.3, PlantUML 1.2018.12
@enduml

PlantUML version 1.2018.12(Sun Oct 21 10:15:15 GMT 2018)
(APACHE source distribution)
Java Runtime: Java(TM) SE Runtime Environment
JVM: Java HotSpot(TM) 64-Bit Server VM
Java Version: 1.8.0_202-b08
Operating System: Linux
OS Version: 4.19.23-coreos-r1
Default Encoding: UTF-8
Language: en
Country: null
--></g></svg>