<?xml version="1.0" encoding="UTF-8" standalone="no"?><svg xmlns="http://www.w3.org/2000/svg" xmlns:xlink="http://www.w3.org/1999/xlink" contentScriptType="application/ecmascript" contentStyleType="text/css" height="166px" preserveAspectRatio="none" style="width:320px;height:166px;" version="1.1" viewBox="0 0 320 166" width="320px" zoomAndPan="magnify"><defs><filter height="300%" id="fq1ve6j5sl62g" width="300%" x="-1" y="-1"><feGaussianBlur result="blurOut" stdDeviation="2.0"/><feColorMatrix in="blurOut" result="blurOut2" type="matrix" values="0 0 0 0 0 0 0 0 0 0 0 0 0 0 0 0 0 0 .4 0"/><feOffset dx="4.0" dy="4.0" in="blurOut2" result="blurOut3"/><feBlend in="SourceGraphic" in2="blurOut3" mode="normal"/></filter></defs><g><!--class FileIOHelper--><a target="_top" xlink:actuate="onRequest" xlink:href="../sg/edu/ntu/scse/cz2002/util/FileIOHelper.html" xlink:show="new" xlink:title="../sg/edu/ntu/scse/cz2002/util/FileIOHelper.html" xlink:type="simple"><rect fill="#FEFECE" filter="url(#fq1ve6j5sl62g)" height="124.7959" id="FileIOHelper" style="stroke: #A80036; stroke-width: 1.5;" width="303" x="6" y="8"/><ellipse cx="118.25" cy="24" fill="#ADD1B2" rx="11" ry="11" style="stroke: #A80036; stroke-width: 1.0;"/><path d="M122.0781,29.6563 Q120.2031,30.3125 118.3906,30.3125 Q115.7969,30.3125 114.2109,28.5313 Q112.625,26.75 112.625,23.8438 Q112.625,21.1563 114.0313,19.3906 Q114.8906,18.3125 116.0078,17.8594 Q117.125,17.4063 118.9063,17.4063 Q120.625,17.4063 122.0781,17.7656 L122.0781,19.75 Q120.2031,19.0469 118.9531,19.0469 Q117.2656,19.0469 116.2734,20.3672 Q115.2813,21.6875 115.2813,23.9219 Q115.2813,25.9688 116.3203,27.2656 Q117.3594,28.5625 119,28.5625 Q120.3906,28.5625 122.0781,27.7813 L122.0781,29.6563 Z "/><text fill="#000000" font-family="sans-serif" font-size="12" lengthAdjust="spacingAndGlyphs" textLength="70" x="138.75" y="28.4209">FileIOHelper</text><line style="stroke: #A80036; stroke-width: 1.5;" x1="7" x2="308" y1="40" y2="40"/><line style="stroke: #A80036; stroke-width: 1.5;" x1="7" x2="308" y1="48" y2="48"/><rect fill="#F24D5C" height="6" style="stroke: #C82930; stroke-width: 1.0;" width="6" x="14" y="56.8997"/><text fill="#000000" font-family="sans-serif" font-size="11" lengthAdjust="spacingAndGlyphs" text-decoration="underline" textLength="49" x="26" y="62.4521">init(): File</text><line style="stroke: #000000; stroke-width: 1.0;" x1="26" x2="75" y1="64.4521" y2="64.4521"/><ellipse cx="17" cy="72.699" fill="#84BE84" rx="3" ry="3" style="stroke: #038048; stroke-width: 1.0;"/><text fill="#000000" font-family="sans-serif" font-size="11" lengthAdjust="spacingAndGlyphs" text-decoration="underline" textLength="153" x="26" y="75.2515">exists(name:String): boolean</text><line style="stroke: #000000; stroke-width: 1.0;" x1="26" x2="179" y1="77.2515" y2="77.2515"/><ellipse cx="17" cy="85.4983" fill="#84BE84" rx="3" ry="3" style="stroke: #038048; stroke-width: 1.0;"/><text fill="#000000" font-family="sans-serif" font-size="11" lengthAdjust="spacingAndGlyphs" text-decoration="underline" textLength="188" x="26" y="88.0508">createFolder(name:String): boolean</text><line style="stroke: #000000; stroke-width: 1.0;" x1="26" x2="214" y1="90.0508" y2="90.0508"/><ellipse cx="17" cy="98.2976" fill="#84BE84" rx="3" ry="3" style="stroke: #038048; stroke-width: 1.0;"/><text fill="#000000" font-family="sans-serif" font-size="11" lengthAdjust="spacingAndGlyphs" text-decoration="underline" textLength="131" x="26" y="100.8501">getFile(name:String): File</text><line style="stroke: #000000; stroke-width: 1.0;" x1="26" x2="157" y1="102.8501" y2="102.8501"/><ellipse cx="17" cy="111.0969" fill="#84BE84" rx="3" ry="3" style="stroke: #038048; stroke-width: 1.0;"/><text fill="#000000" font-family="sans-serif" font-size="11" lengthAdjust="spacingAndGlyphs" text-decoration="underline" textLength="277" x="26" y="113.6494">getFileBufferedReader(name:String): BufferedReader</text><line style="stroke: #000000; stroke-width: 1.0;" x1="26" x2="303" y1="115.6494" y2="115.6494"/><ellipse cx="17" cy="123.8962" fill="#84BE84" rx="3" ry="3" style="stroke: #038048; stroke-width: 1.0;"/><text fill="#000000" font-family="sans-serif" font-size="11" lengthAdjust="spacingAndGlyphs" text-decoration="underline" textLength="267" x="26" y="126.4487">getFileBufferedWriter(name:String): BufferedWriter</text><line style="stroke: #000000; stroke-width: 1.0;" x1="26" x2="293" y1="128.4487" y2="128.4487"/></a><text fill="#888888" font-family="sans-serif" font-size="10" lengthAdjust="spacingAndGlyphs" textLength="182" x="72.5" y="152.502">UMLDoclet 1.1.3, PlantUML 1.2018.12</text><!--
@startuml

    class FileIOHelper [[../sg/edu/ntu/scse/cz2002/util/FileIOHelper.html]] {
        {static} -init(): File
        {static} +exists(name:String): boolean
        {static} +createFolder(name:String): boolean
        {static} +getFile(name:String): File
        {static} +getFileBufferedReader(name:String): BufferedReader
        {static} +getFileBufferedWriter(name:String): BufferedWriter
    }


    center footer UMLDoclet 1.1.3, PlantUML 1.2018.12
@enduml

PlantUML version 1.2018.12(Sun Oct 21 10:15:15 GMT 2018)
(APACHE source distribution)
Java Runtime: Java(TM) SE Runtime Environment
JVM: Java HotSpot(TM) 64-Bit Server VM
Java Version: 1.8.0_202-b08
Operating System: Linux
OS Version: 4.19.23-coreos-r1
Default Encoding: UTF-8
Language: en
Country: null
--></g></svg>