<?xml version="1.0" encoding="UTF-8" standalone="no"?><svg xmlns="http://www.w3.org/2000/svg" xmlns:xlink="http://www.w3.org/1999/xlink" contentScriptType="application/ecmascript" contentStyleType="text/css" height="204px" preserveAspectRatio="none" style="width:196px;height:204px;" version="1.1" viewBox="0 0 196 204" width="196px" zoomAndPan="magnify"><defs><filter height="300%" id="f4iacve48se4k" width="300%" x="-1" y="-1"><feGaussianBlur result="blurOut" stdDeviation="2.0"/><feColorMatrix in="blurOut" result="blurOut2" type="matrix" values="0 0 0 0 0 0 0 0 0 0 0 0 0 0 0 0 0 0 .4 0"/><feOffset dx="4.0" dy="4.0" in="blurOut2" result="blurOut3"/><feBlend in="SourceGraphic" in2="blurOut3" mode="normal"/></filter></defs><g><!--cluster Table--><polygon fill="#FFFFFF" filter="url(#f4iacve48se4k)" points="14,16,60,16,67,38.29,160,38.29,160,163,14,163,14,16" style="stroke: #000000; stroke-width: 1.5;"/><line style="stroke: #000000; stroke-width: 1.5;" x1="14" x2="67" y1="38.29" y2="38.29"/><text fill="#000000" font-family="sans-serif" font-size="14" font-weight="bold" lengthAdjust="spacingAndGlyphs" textLength="40" x="18" y="31.3369">Table</text><!--class Table.TableSeats--><rect fill="#FEFECE" filter="url(#f4iacve48se4k)" height="111.9966" id="Table.TableSeats" style="stroke: #A80036; stroke-width: 1.5;" width="129" x="22.5" y="43"/><ellipse cx="52.8" cy="59" fill="#EB937F" rx="11" ry="11" style="stroke: #A80036; stroke-width: 1.0;"/><path d="M49.1906,65 L49.1906,52.7188 L56.8781,52.7188 L56.8781,54.3438 L51.6594,54.3438 L51.6594,57.8281 L56.0656,57.8281 L56.0656,59.3594 L51.6594,59.3594 L51.6594,63.3594 L57.3156,63.3594 L57.3156,65 L49.1906,65 Z "/><text fill="#000000" font-family="sans-serif" font-size="12" lengthAdjust="spacingAndGlyphs" textLength="63" x="70.2" y="63.4209">TableSeats</text><line style="stroke: #A80036; stroke-width: 1.5;" x1="23.5" x2="150.5" y1="75" y2="75"/><ellipse cx="33.5" cy="86.8997" fill="none" rx="3" ry="3" style="stroke: #038048; stroke-width: 1.0;"/><text fill="#000000" font-family="sans-serif" font-size="11" lengthAdjust="spacingAndGlyphs" text-decoration="underline" textLength="71" x="42.5" y="89.4521">TWO_SEATER</text><line style="stroke: #000000; stroke-width: 1.0;" x1="42.5" x2="113.5" y1="91.4521" y2="91.4521"/><ellipse cx="33.5" cy="99.699" fill="none" rx="3" ry="3" style="stroke: #038048; stroke-width: 1.0;"/><text fill="#000000" font-family="sans-serif" font-size="11" lengthAdjust="spacingAndGlyphs" text-decoration="underline" textLength="76" x="42.5" y="102.2515">FOUR_SEATER</text><line style="stroke: #000000; stroke-width: 1.0;" x1="42.5" x2="118.5" y1="104.2515" y2="104.2515"/><ellipse cx="33.5" cy="112.4983" fill="none" rx="3" ry="3" style="stroke: #038048; stroke-width: 1.0;"/><text fill="#000000" font-family="sans-serif" font-size="11" lengthAdjust="spacingAndGlyphs" text-decoration="underline" textLength="78" x="42.5" y="115.0508">EIGHT_SEATER</text><line style="stroke: #000000; stroke-width: 1.0;" x1="42.5" x2="120.5" y1="117.0508" y2="117.0508"/><ellipse cx="33.5" cy="125.2976" fill="none" rx="3" ry="3" style="stroke: #038048; stroke-width: 1.0;"/><text fill="#000000" font-family="sans-serif" font-size="11" lengthAdjust="spacingAndGlyphs" text-decoration="underline" textLength="67" x="42.5" y="127.8501">TEN_SEATER</text><line style="stroke: #000000; stroke-width: 1.0;" x1="42.5" x2="109.5" y1="129.8501" y2="129.8501"/><ellipse cx="33.5" cy="138.0969" fill="none" rx="3" ry="3" style="stroke: #038048; stroke-width: 1.0;"/><text fill="#000000" font-family="sans-serif" font-size="11" lengthAdjust="spacingAndGlyphs" text-decoration="underline" textLength="103" x="42.5" y="140.6494">UNKNOWN_SEATER</text><line style="stroke: #000000; stroke-width: 1.0;" x1="42.5" x2="145.5" y1="142.6494" y2="142.6494"/><line style="stroke: #A80036; stroke-width: 1.5;" x1="23.5" x2="150.5" y1="146.9966" y2="146.9966"/><text fill="#888888" font-family="sans-serif" font-size="10" lengthAdjust="spacingAndGlyphs" textLength="182" x="2" y="190.502">UMLDoclet 1.1.3, PlantUML 1.2018.12</text><!--
@startuml

    enum Table.TableSeats {
        {static} +TWO_SEATER
        {static} +FOUR_SEATER
        {static} +EIGHT_SEATER
        {static} +TEN_SEATER
        {static} +UNKNOWN_SEATER
    }


    center footer UMLDoclet 1.1.3, PlantUML 1.2018.12
@enduml

PlantUML version 1.2018.12(Sun Oct 21 10:15:15 GMT 2018)
(APACHE source distribution)
Java Runtime: Java(TM) SE Runtime Environment
JVM: Java HotSpot(TM) 64-Bit Server VM
Java Version: 1.8.0_202-b08
Operating System: Linux
OS Version: 4.19.23-coreos-r1
Default Encoding: UTF-8
Language: en
Country: null
--></g></svg>