<?xml version="1.0" encoding="UTF-8" standalone="no"?><svg xmlns="http://www.w3.org/2000/svg" xmlns:xlink="http://www.w3.org/1999/xlink" contentScriptType="application/ecmascript" contentStyleType="text/css" height="179px" preserveAspectRatio="none" style="width:204px;height:179px;" version="1.1" viewBox="0 0 204 179" width="204px" zoomAndPan="magnify"><defs><filter height="300%" id="ffj9emb19psho" width="300%" x="-1" y="-1"><feGaussianBlur result="blurOut" stdDeviation="2.0"/><feColorMatrix in="blurOut" result="blurOut2" type="matrix" values="0 0 0 0 0 0 0 0 0 0 0 0 0 0 0 0 0 0 .4 0"/><feOffset dx="4.0" dy="4.0" in="blurOut2" result="blurOut3"/><feBlend in="SourceGraphic" in2="blurOut3" mode="normal"/></filter></defs><g><!--class BaseMenu--><rect fill="#FEFECE" filter="url(#ffj9emb19psho)" height="137.5952" id="BaseMenu" style="stroke: #A80036; stroke-width: 1.5;" width="179" x="6" y="8"/><ellipse cx="62.25" cy="24" fill="#A9DCDF" rx="11" ry="11" style="stroke: #A80036; stroke-width: 1.0;"/><path d="M57.9219,29.25 L61.6406,16.9688 L64.0938,16.9688 L67.8125,29.25 L65.2656,29.25 L64.3281,26.125 L60.6875,26.125 L59.75,29.25 L57.9219,29.25 Z M61.1563,24.5938 L63.875,24.5938 L62.5,20.1094 L61.1563,24.5938 Z "/><text fill="#000000" font-family="sans-serif" font-size="12" font-style="italic" lengthAdjust="spacingAndGlyphs" textLength="58" x="82.75" y="28.4209">BaseMenu</text><line style="stroke: #A80036; stroke-width: 1.5;" x1="7" x2="184" y1="40" y2="40"/><line style="stroke: #A80036; stroke-width: 1.5;" x1="7" x2="184" y1="48" y2="48"/><ellipse cx="17" cy="59.8997" fill="#84BE84" rx="3" ry="3" style="stroke: #038048; stroke-width: 1.0;"/><text fill="#000000" font-family="sans-serif" font-size="11" lengthAdjust="spacingAndGlyphs" textLength="136" x="26" y="62.4521">startMainMenu(): boolean</text><polygon fill="#FFFF44" points="17,67.699,21,71.699,17,75.699,13,71.699" style="stroke: #B38D22; stroke-width: 1.0;"/><text fill="#000000" font-family="sans-serif" font-size="11" lengthAdjust="spacingAndGlyphs" text-decoration="underline" textLength="133" x="26" y="75.2515">printHeader(String): void</text><line style="stroke: #000000; stroke-width: 1.0;" x1="26" x2="159" y1="77.2515" y2="77.2515"/><polygon fill="#FFFF44" points="17,80.4983,21,84.4983,17,88.4983,13,84.4983" style="stroke: #B38D22; stroke-width: 1.0;"/><text fill="#000000" font-family="sans-serif" font-size="11" lengthAdjust="spacingAndGlyphs" text-decoration="underline" textLength="153" x="26" y="88.0508">printHeader(String, int): void</text><line style="stroke: #000000; stroke-width: 1.0;" x1="26" x2="179" y1="90.0508" y2="90.0508"/><polygon fill="#FFFF44" points="17,93.2976,21,97.2976,17,101.2976,13,97.2976" style="stroke: #B38D22; stroke-width: 1.0;"/><text fill="#000000" font-family="sans-serif" font-size="11" lengthAdjust="spacingAndGlyphs" text-decoration="underline" textLength="112" x="26" y="100.8501">printBreaks(int): void</text><line style="stroke: #000000; stroke-width: 1.0;" x1="26" x2="138" y1="102.8501" y2="102.8501"/><polygon fill="#FFFF44" points="17,106.0969,21,110.0969,17,114.0969,13,110.0969" style="stroke: #B38D22; stroke-width: 1.0;"/><text fill="#000000" font-family="sans-serif" font-size="11" lengthAdjust="spacingAndGlyphs" text-decoration="underline" textLength="98" x="26" y="113.6494">printBreaks(): void</text><line style="stroke: #000000; stroke-width: 1.0;" x1="26" x2="124" y1="115.6494" y2="115.6494"/><polygon fill="#FFFF44" points="17,118.8962,21,122.8962,17,126.8962,13,122.8962" style="stroke: #B38D22; stroke-width: 1.0;"/><text fill="#000000" font-family="sans-serif" font-size="11" lengthAdjust="spacingAndGlyphs" text-decoration="underline" textLength="142" x="26" y="126.4487">doMenuChoice(int, int): int</text><line style="stroke: #000000; stroke-width: 1.0;" x1="26" x2="168" y1="128.4487" y2="128.4487"/><polygon fill="#FFFF44" points="17,131.6956,21,135.6956,17,139.6956,13,135.6956" style="stroke: #B38D22; stroke-width: 1.0;"/><text fill="#000000" font-family="sans-serif" font-size="11" font-style="italic" lengthAdjust="spacingAndGlyphs" textLength="140" x="26" y="139.248">generateMenuScreen(): int</text><text fill="#888888" font-family="sans-serif" font-size="10" lengthAdjust="spacingAndGlyphs" textLength="182" x="10.5" y="165.502">UMLDoclet 1.1.3, PlantUML 1.2018.12</text><!--
@startuml

    abstract class BaseMenu {
        +startMainMenu(): boolean
        {static} #printHeader(String): void
        {static} #printHeader(String, int): void
        {static} #printBreaks(int): void
        {static} #printBreaks(): void
        {static} #doMenuChoice(int, int): int
        {abstract} #generateMenuScreen(): int
    }


    center footer UMLDoclet 1.1.3, PlantUML 1.2018.12
@enduml

PlantUML version 1.2018.12(Sun Oct 21 10:15:15 GMT 2018)
(APACHE source distribution)
Java Runtime: Java(TM) SE Runtime Environment
JVM: Java HotSpot(TM) 64-Bit Server VM
Java Version: 1.8.0_202-b08
Operating System: Linux
OS Version: 4.19.23-coreos-r1
Default Encoding: UTF-8
Language: en
Country: null
--></g></svg>