<?xml version="1.0" encoding="UTF-8" standalone="no"?><svg xmlns="http://www.w3.org/2000/svg" xmlns:xlink="http://www.w3.org/1999/xlink" contentScriptType="application/ecmascript" contentStyleType="text/css" height="230px" preserveAspectRatio="none" style="width:204px;height:230px;" version="1.1" viewBox="0 0 204 230" width="204px" zoomAndPan="magnify"><defs><filter height="300%" id="ff7o7vy4t92d8" width="300%" x="-1" y="-1"><feGaussianBlur result="blurOut" stdDeviation="2.0"/><feColorMatrix in="blurOut" result="blurOut2" type="matrix" values="0 0 0 0 0 0 0 0 0 0 0 0 0 0 0 0 0 0 .4 0"/><feOffset dx="4.0" dy="4.0" in="blurOut2" result="blurOut3"/><feBlend in="SourceGraphic" in2="blurOut3" mode="normal"/></filter></defs><g><!--class Staff--><rect fill="#FEFECE" filter="url(#ff7o7vy4t92d8)" height="188.7925" id="Staff" style="stroke: #A80036; stroke-width: 1.5;" width="178" x="6" y="8"/><ellipse cx="78.25" cy="24" fill="#ADD1B2" rx="11" ry="11" style="stroke: #A80036; stroke-width: 1.0;"/><path d="M82.0781,29.6563 Q80.2031,30.3125 78.3906,30.3125 Q75.7969,30.3125 74.2109,28.5313 Q72.625,26.75 72.625,23.8438 Q72.625,21.1563 74.0313,19.3906 Q74.8906,18.3125 76.0078,17.8594 Q77.125,17.4063 78.9063,17.4063 Q80.625,17.4063 82.0781,17.7656 L82.0781,19.75 Q80.2031,19.0469 78.9531,19.0469 Q77.2656,19.0469 76.2734,20.3672 Q75.2813,21.6875 75.2813,23.9219 Q75.2813,25.9688 76.3203,27.2656 Q77.3594,28.5625 79,28.5625 Q80.3906,28.5625 82.0781,27.7813 L82.0781,29.6563 Z "/><text fill="#000000" font-family="sans-serif" font-size="12" lengthAdjust="spacingAndGlyphs" textLength="25" x="98.75" y="28.4209">Staff</text><line style="stroke: #A80036; stroke-width: 1.5;" x1="7" x2="183" y1="40" y2="40"/><line style="stroke: #A80036; stroke-width: 1.5;" x1="7" x2="183" y1="48" y2="48"/><ellipse cx="17" cy="59.8997" fill="#84BE84" rx="3" ry="3" style="stroke: #038048; stroke-width: 1.0;"/><text fill="#000000" font-family="sans-serif" font-size="11" lengthAdjust="spacingAndGlyphs" textLength="152" x="26" y="62.4521">Staff(int, String, char, String)</text><ellipse cx="17" cy="72.699" fill="#84BE84" rx="3" ry="3" style="stroke: #038048; stroke-width: 1.0;"/><text fill="#000000" font-family="sans-serif" font-size="11" lengthAdjust="spacingAndGlyphs" textLength="72" x="26" y="75.2515">Staff(String[])</text><ellipse cx="17" cy="85.4983" fill="#84BE84" rx="3" ry="3" style="stroke: #038048; stroke-width: 1.0;"/><text fill="#000000" font-family="sans-serif" font-size="11" lengthAdjust="spacingAndGlyphs" textLength="85" x="26" y="88.0508">toCsv(): String[]</text><ellipse cx="17" cy="98.2976" fill="#84BE84" rx="3" ry="3" style="stroke: #038048; stroke-width: 1.0;"/><text fill="#000000" font-family="sans-serif" font-size="11" lengthAdjust="spacingAndGlyphs" textLength="79" x="26" y="100.8501">getStaffId(): int</text><ellipse cx="17" cy="111.0969" fill="#84BE84" rx="3" ry="3" style="stroke: #038048; stroke-width: 1.0;"/><text fill="#000000" font-family="sans-serif" font-size="11" lengthAdjust="spacingAndGlyphs" textLength="117" x="26" y="113.6494">getStaffName(): String</text><ellipse cx="17" cy="123.8962" fill="#84BE84" rx="3" ry="3" style="stroke: #038048; stroke-width: 1.0;"/><text fill="#000000" font-family="sans-serif" font-size="11" lengthAdjust="spacingAndGlyphs" textLength="139" x="26" y="126.4487">setStaffName(String): void</text><ellipse cx="17" cy="136.6956" fill="#84BE84" rx="3" ry="3" style="stroke: #038048; stroke-width: 1.0;"/><text fill="#000000" font-family="sans-serif" font-size="11" lengthAdjust="spacingAndGlyphs" textLength="94" x="26" y="139.248">getGender(): char</text><ellipse cx="17" cy="149.4949" fill="#84BE84" rx="3" ry="3" style="stroke: #038048; stroke-width: 1.0;"/><text fill="#000000" font-family="sans-serif" font-size="11" lengthAdjust="spacingAndGlyphs" textLength="116" x="26" y="152.0474">setGender(char): void</text><ellipse cx="17" cy="162.2942" fill="#84BE84" rx="3" ry="3" style="stroke: #038048; stroke-width: 1.0;"/><text fill="#000000" font-family="sans-serif" font-size="11" lengthAdjust="spacingAndGlyphs" textLength="103" x="26" y="164.8467">getJobTitle(): String</text><ellipse cx="17" cy="175.0935" fill="#84BE84" rx="3" ry="3" style="stroke: #038048; stroke-width: 1.0;"/><text fill="#000000" font-family="sans-serif" font-size="11" lengthAdjust="spacingAndGlyphs" textLength="125" x="26" y="177.646">setJobTitle(String): void</text><ellipse cx="17" cy="187.8928" fill="#84BE84" rx="3" ry="3" style="stroke: #038048; stroke-width: 1.0;"/><text fill="#000000" font-family="sans-serif" font-size="11" lengthAdjust="spacingAndGlyphs" text-decoration="underline" textLength="93" x="26" y="190.4453">getStaff(int): Staff</text><line style="stroke: #000000; stroke-width: 1.0;" x1="26" x2="119" y1="192.4453" y2="192.4453"/><text fill="#888888" font-family="sans-serif" font-size="10" lengthAdjust="spacingAndGlyphs" textLength="182" x="10" y="216.502">UMLDoclet 1.1.3, PlantUML 1.2018.12</text><!--
@startuml

    class Staff {
        +Staff(int, String, char, String)
        +Staff(String[])
        +toCsv(): String[]
        +getStaffId(): int
        +getStaffName(): String
        +setStaffName(String): void
        +getGender(): char
        +setGender(char): void
        +getJobTitle(): String
        +setJobTitle(String): void
        {static} +getStaff(int): Staff
    }


    center footer UMLDoclet 1.1.3, PlantUML 1.2018.12
@enduml

PlantUML version 1.2018.12(Sun Oct 21 10:15:15 GMT 2018)
(APACHE source distribution)
Java Runtime: Java(TM) SE Runtime Environment
JVM: Java HotSpot(TM) 64-Bit Server VM
Java Version: 1.8.0_202-b08
Operating System: Linux
OS Version: 4.19.23-coreos-r1
Default Encoding: UTF-8
Language: en
Country: null
--></g></svg>