<?xml version="1.0" encoding="UTF-8" standalone="no"?><svg xmlns="http://www.w3.org/2000/svg" xmlns:xlink="http://www.w3.org/1999/xlink" contentScriptType="application/ecmascript" contentStyleType="text/css" height="204px" preserveAspectRatio="none" style="width:517px;height:204px;" version="1.1" viewBox="0 0 517 204" width="517px" zoomAndPan="magnify"><defs><filter height="300%" id="f1g1vwhf7m0tk0" width="300%" x="-1" y="-1"><feGaussianBlur result="blurOut" stdDeviation="2.0"/><feColorMatrix in="blurOut" result="blurOut2" type="matrix" values="0 0 0 0 0 0 0 0 0 0 0 0 0 0 0 0 0 0 .4 0"/><feOffset dx="4.0" dy="4.0" in="blurOut2" result="blurOut3"/><feBlend in="SourceGraphic" in2="blurOut3" mode="normal"/></filter></defs><g><!--class ScannerHelper--><a target="_top" xlink:actuate="onRequest" xlink:href="../sg/edu/ntu/scse/cz2002/util/ScannerHelper.html" xlink:show="new" xlink:title="../sg/edu/ntu/scse/cz2002/util/ScannerHelper.html" xlink:type="simple"><rect fill="#FEFECE" filter="url(#f1g1vwhf7m0tk0)" height="163.1938" id="ScannerHelper" style="stroke: #A80036; stroke-width: 1.5;" width="500" x="6" y="8"/><ellipse cx="209.75" cy="24" fill="#ADD1B2" rx="11" ry="11" style="stroke: #A80036; stroke-width: 1.0;"/><path d="M213.5781,29.6563 Q211.7031,30.3125 209.8906,30.3125 Q207.2969,30.3125 205.7109,28.5313 Q204.125,26.75 204.125,23.8438 Q204.125,21.1563 205.5313,19.3906 Q206.3906,18.3125 207.5078,17.8594 Q208.625,17.4063 210.4063,17.4063 Q212.125,17.4063 213.5781,17.7656 L213.5781,19.75 Q211.7031,19.0469 210.4531,19.0469 Q208.7656,19.0469 207.7734,20.3672 Q206.7813,21.6875 206.7813,23.9219 Q206.7813,25.9688 207.8203,27.2656 Q208.8594,28.5625 210.5,28.5625 Q211.8906,28.5625 213.5781,27.7813 L213.5781,29.6563 Z "/><text fill="#000000" font-family="sans-serif" font-size="12" lengthAdjust="spacingAndGlyphs" textLength="84" x="230.25" y="28.4209">ScannerHelper</text><line style="stroke: #A80036; stroke-width: 1.5;" x1="7" x2="505" y1="40" y2="40"/><ellipse cx="17" cy="51.8997" fill="none" rx="3" ry="3" style="stroke: #038048; stroke-width: 1.0;"/><text fill="#000000" font-family="sans-serif" font-size="11" lengthAdjust="spacingAndGlyphs" text-decoration="underline" textLength="94" x="26" y="54.4521">instance: Scanner</text><line style="stroke: #000000; stroke-width: 1.0;" x1="26" x2="120" y1="56.4521" y2="56.4521"/><line style="stroke: #A80036; stroke-width: 1.5;" x1="7" x2="505" y1="60.7993" y2="60.7993"/><ellipse cx="17" cy="72.699" fill="#84BE84" rx="3" ry="3" style="stroke: #038048; stroke-width: 1.0;"/><text fill="#000000" font-family="sans-serif" font-size="11" lengthAdjust="spacingAndGlyphs" text-decoration="underline" textLength="186" x="26" y="75.2515">getIntegerInput(prompt:String): int</text><line style="stroke: #000000; stroke-width: 1.0;" x1="26" x2="212" y1="77.2515" y2="77.2515"/><ellipse cx="17" cy="85.4983" fill="#84BE84" rx="3" ry="3" style="stroke: #038048; stroke-width: 1.0;"/><text fill="#000000" font-family="sans-serif" font-size="11" lengthAdjust="spacingAndGlyphs" text-decoration="underline" textLength="229" x="26" y="88.0508">getIntegerInput(prompt:String, min:int): int</text><line style="stroke: #000000; stroke-width: 1.0;" x1="26" x2="255" y1="90.0508" y2="90.0508"/><ellipse cx="17" cy="98.2976" fill="#84BE84" rx="3" ry="3" style="stroke: #038048; stroke-width: 1.0;"/><text fill="#000000" font-family="sans-serif" font-size="11" lengthAdjust="spacingAndGlyphs" text-decoration="underline" textLength="275" x="26" y="100.8501">getIntegerInput(prompt:String, min:int, max:int): int</text><line style="stroke: #000000; stroke-width: 1.0;" x1="26" x2="301" y1="102.8501" y2="102.8501"/><ellipse cx="17" cy="111.0969" fill="#84BE84" rx="3" ry="3" style="stroke: #038048; stroke-width: 1.0;"/><text fill="#000000" font-family="sans-serif" font-size="11" lengthAdjust="spacingAndGlyphs" text-decoration="underline" textLength="474" x="26" y="113.6494">getIntegerInput(prompt:String, acceptedValues:ArrayList&lt;Integer&gt;, errorMsg:String): int</text><line style="stroke: #000000; stroke-width: 1.0;" x1="26" x2="500" y1="115.6494" y2="115.6494"/><ellipse cx="17" cy="123.8962" fill="#84BE84" rx="3" ry="3" style="stroke: #038048; stroke-width: 1.0;"/><text fill="#000000" font-family="sans-serif" font-size="11" lengthAdjust="spacingAndGlyphs" text-decoration="underline" textLength="209" x="26" y="126.4487">getDoubleInput(prompt:String): double</text><line style="stroke: #000000; stroke-width: 1.0;" x1="26" x2="235" y1="128.4487" y2="128.4487"/><ellipse cx="17" cy="136.6956" fill="#84BE84" rx="3" ry="3" style="stroke: #038048; stroke-width: 1.0;"/><text fill="#000000" font-family="sans-serif" font-size="11" lengthAdjust="spacingAndGlyphs" text-decoration="underline" textLength="252" x="26" y="139.248">getDoubleInput(prompt:String, min:int): double</text><line style="stroke: #000000; stroke-width: 1.0;" x1="26" x2="278" y1="141.248" y2="141.248"/><ellipse cx="17" cy="149.4949" fill="#84BE84" rx="3" ry="3" style="stroke: #038048; stroke-width: 1.0;"/><text fill="#000000" font-family="sans-serif" font-size="11" lengthAdjust="spacingAndGlyphs" text-decoration="underline" textLength="211" x="26" y="152.0474">getYesNoInput(prompt:String): boolean</text><line style="stroke: #000000; stroke-width: 1.0;" x1="26" x2="237" y1="154.0474" y2="154.0474"/><ellipse cx="17" cy="162.2942" fill="#84BE84" rx="3" ry="3" style="stroke: #038048; stroke-width: 1.0;"/><text fill="#000000" font-family="sans-serif" font-size="11" lengthAdjust="spacingAndGlyphs" text-decoration="underline" textLength="145" x="26" y="164.8467">getScannerInput(): Scanner</text><line style="stroke: #000000; stroke-width: 1.0;" x1="26" x2="171" y1="166.8467" y2="166.8467"/></a><text fill="#888888" font-family="sans-serif" font-size="10" lengthAdjust="spacingAndGlyphs" textLength="182" x="171" y="190.502">UMLDoclet 1.1.3, PlantUML 1.2018.12</text><!--
@startuml

    class ScannerHelper [[../sg/edu/ntu/scse/cz2002/util/ScannerHelper.html]] {
        {static} +instance: Scanner
        {static} +getIntegerInput(prompt:String): int
        {static} +getIntegerInput(prompt:String, min:int): int
        {static} +getIntegerInput(prompt:String, min:int, max:int): int
        {static} +getIntegerInput(prompt:String, acceptedValues:ArrayList<Integer>, errorMsg:String): int
        {static} +getDoubleInput(prompt:String): double
        {static} +getDoubleInput(prompt:String, min:int): double
        {static} +getYesNoInput(prompt:String): boolean
        {static} +getScannerInput(): Scanner
    }


    center footer UMLDoclet 1.1.3, PlantUML 1.2018.12
@enduml

PlantUML version 1.2018.12(Sun Oct 21 10:15:15 GMT 2018)
(APACHE source distribution)
Java Runtime: Java(TM) SE Runtime Environment
JVM: Java HotSpot(TM) 64-Bit Server VM
Java Version: 1.8.0_202-b08
Operating System: Linux
OS Version: 4.19.23-coreos-r1
Default Encoding: UTF-8
Language: en
Country: null
--></g></svg>