<?xml version="1.0" encoding="UTF-8" standalone="no"?><svg xmlns="http://www.w3.org/2000/svg" xmlns:xlink="http://www.w3.org/1999/xlink" contentScriptType="application/ecmascript" contentStyleType="text/css" height="153px" preserveAspectRatio="none" style="width:291px;height:153px;" version="1.1" viewBox="0 0 291 153" width="291px" zoomAndPan="magnify"><defs><filter height="300%" id="fpwbt3alz2gqt" width="300%" x="-1" y="-1"><feGaussianBlur result="blurOut" stdDeviation="2.0"/><feColorMatrix in="blurOut" result="blurOut2" type="matrix" values="0 0 0 0 0 0 0 0 0 0 0 0 0 0 0 0 0 0 .4 0"/><feOffset dx="4.0" dy="4.0" in="blurOut2" result="blurOut3"/><feBlend in="SourceGraphic" in2="blurOut3" mode="normal"/></filter></defs><g><!--class MenuItemCSVHelper--><a target="_top" xlink:actuate="onRequest" xlink:href="../sg/edu/ntu/scse/cz2002/util/MenuItemCSVHelper.html" xlink:show="new" xlink:title="../sg/edu/ntu/scse/cz2002/util/MenuItemCSVHelper.html" xlink:type="simple"><rect fill="#FEFECE" filter="url(#fpwbt3alz2gqt)" height="111.9966" id="MenuItemCSVHelper" style="stroke: #A80036; stroke-width: 1.5;" width="274" x="6" y="8"/><ellipse cx="80.25" cy="24" fill="#ADD1B2" rx="11" ry="11" style="stroke: #A80036; stroke-width: 1.0;"/><path d="M84.0781,29.6563 Q82.2031,30.3125 80.3906,30.3125 Q77.7969,30.3125 76.2109,28.5313 Q74.625,26.75 74.625,23.8438 Q74.625,21.1563 76.0313,19.3906 Q76.8906,18.3125 78.0078,17.8594 Q79.125,17.4063 80.9063,17.4063 Q82.625,17.4063 84.0781,17.7656 L84.0781,19.75 Q82.2031,19.0469 80.9531,19.0469 Q79.2656,19.0469 78.2734,20.3672 Q77.2813,21.6875 77.2813,23.9219 Q77.2813,25.9688 78.3203,27.2656 Q79.3594,28.5625 81,28.5625 Q82.3906,28.5625 84.0781,27.7813 L84.0781,29.6563 Z "/><text fill="#000000" font-family="sans-serif" font-size="12" lengthAdjust="spacingAndGlyphs" textLength="117" x="100.75" y="28.4209">MenuItemCSVHelper</text><line style="stroke: #A80036; stroke-width: 1.5;" x1="7" x2="279" y1="40" y2="40"/><rect fill="none" height="6" style="stroke: #C82930; stroke-width: 1.0;" width="6" x="14" y="48.8997"/><text fill="#000000" font-family="sans-serif" font-size="11" lengthAdjust="spacingAndGlyphs" text-decoration="underline" textLength="169" x="26" y="54.4521">mInstance: MenuItemCSVHelper</text><line style="stroke: #000000; stroke-width: 1.0;" x1="26" x2="195" y1="56.4521" y2="56.4521"/><rect fill="none" height="6" style="stroke: #C82930; stroke-width: 1.0;" width="6" x="14" y="61.699"/><text fill="#000000" font-family="sans-serif" font-size="11" lengthAdjust="spacingAndGlyphs" textLength="111" x="26" y="67.2515">menuItemCsv: String</text><line style="stroke: #A80036; stroke-width: 1.5;" x1="7" x2="279" y1="73.5986" y2="73.5986"/><ellipse cx="17" cy="85.4983" fill="#84BE84" rx="3" ry="3" style="stroke: #038048; stroke-width: 1.0;"/><text fill="#000000" font-family="sans-serif" font-size="11" lengthAdjust="spacingAndGlyphs" text-decoration="underline" textLength="184" x="26" y="88.0508">getInstance(): MenuItemCSVHelper</text><line style="stroke: #000000; stroke-width: 1.0;" x1="26" x2="210" y1="90.0508" y2="90.0508"/><ellipse cx="17" cy="98.2976" fill="#84BE84" rx="3" ry="3" style="stroke: #038048; stroke-width: 1.0;"/><text fill="#000000" font-family="sans-serif" font-size="11" lengthAdjust="spacingAndGlyphs" textLength="205" x="26" y="100.8501">readFromCsv(): ArrayList&lt;MenuItem&gt;</text><ellipse cx="17" cy="111.0969" fill="#84BE84" rx="3" ry="3" style="stroke: #038048; stroke-width: 1.0;"/><text fill="#000000" font-family="sans-serif" font-size="11" lengthAdjust="spacingAndGlyphs" textLength="248" x="26" y="113.6494">writeToCsv(items:ArrayList&lt;MenuItem&gt;): void</text></a><text fill="#888888" font-family="sans-serif" font-size="10" lengthAdjust="spacingAndGlyphs" textLength="182" x="58" y="139.502">UMLDoclet 1.1.3, PlantUML 1.2018.12</text><!--
@startuml

    class MenuItemCSVHelper [[../sg/edu/ntu/scse/cz2002/util/MenuItemCSVHelper.html]] {
        {static} -mInstance: MenuItemCSVHelper
        -menuItemCsv: String
        {static} +getInstance(): MenuItemCSVHelper
        +readFromCsv(): ArrayList<MenuItem>
        +writeToCsv(items:ArrayList<MenuItem>): void
    }


    center footer UMLDoclet 1.1.3, PlantUML 1.2018.12
@enduml

PlantUML version 1.2018.12(Sun Oct 21 10:15:15 GMT 2018)
(APACHE source distribution)
Java Runtime: Java(TM) SE Runtime Environment
JVM: Java HotSpot(TM) 64-Bit Server VM
Java Version: 1.8.0_202-b08
Operating System: Linux
OS Version: 4.19.23-coreos-r1
Default Encoding: UTF-8
Language: en
Country: null
--></g></svg>