<?xml version="1.0" encoding="UTF-8" standalone="no"?><svg xmlns="http://www.w3.org/2000/svg" xmlns:xlink="http://www.w3.org/1999/xlink" contentScriptType="application/ecmascript" contentStyleType="text/css" height="191px" preserveAspectRatio="none" style="width:214px;height:191px;" version="1.1" viewBox="0 0 214 191" width="214px" zoomAndPan="magnify"><defs><filter height="300%" id="f1vz3s2co33zi0" width="300%" x="-1" y="-1"><feGaussianBlur result="blurOut" stdDeviation="2.0"/><feColorMatrix in="blurOut" result="blurOut2" type="matrix" values="0 0 0 0 0 0 0 0 0 0 0 0 0 0 0 0 0 0 .4 0"/><feOffset dx="4.0" dy="4.0" in="blurOut2" result="blurOut3"/><feBlend in="SourceGraphic" in2="blurOut3" mode="normal"/></filter></defs><g><!--cluster Table--><polygon fill="#FFFFFF" filter="url(#f1vz3s2co33zi0)" points="14,16,60,16,67,38.29,192,38.29,192,150,14,150,14,16" style="stroke: #000000; stroke-width: 1.5;"/><line style="stroke: #000000; stroke-width: 1.5;" x1="14" x2="67" y1="38.29" y2="38.29"/><text fill="#000000" font-family="sans-serif" font-size="14" font-weight="bold" lengthAdjust="spacingAndGlyphs" textLength="40" x="18" y="31.3369">Table</text><!--class Table.TableState--><rect fill="#FEFECE" filter="url(#f1vz3s2co33zi0)" height="99.1973" id="Table.TableState" style="stroke: #A80036; stroke-width: 1.5;" width="162" x="22" y="43"/><ellipse cx="68.25" cy="59" fill="#EB937F" rx="11" ry="11" style="stroke: #A80036; stroke-width: 1.0;"/><path d="M64.6406,65 L64.6406,52.7188 L72.3281,52.7188 L72.3281,54.3438 L67.1094,54.3438 L67.1094,57.8281 L71.5156,57.8281 L71.5156,59.3594 L67.1094,59.3594 L67.1094,63.3594 L72.7656,63.3594 L72.7656,65 L64.6406,65 Z "/><text fill="#000000" font-family="sans-serif" font-size="12" lengthAdjust="spacingAndGlyphs" textLength="61" x="88.75" y="63.4209">TableState</text><line style="stroke: #A80036; stroke-width: 1.5;" x1="23" x2="183" y1="75" y2="75"/><ellipse cx="33" cy="86.8997" fill="none" rx="3" ry="3" style="stroke: #038048; stroke-width: 1.0;"/><text fill="#000000" font-family="sans-serif" font-size="11" lengthAdjust="spacingAndGlyphs" text-decoration="underline" textLength="91" x="42" y="89.4521">TABLE_VACATED</text><line style="stroke: #000000; stroke-width: 1.0;" x1="42" x2="133" y1="91.4521" y2="91.4521"/><ellipse cx="33" cy="99.699" fill="none" rx="3" ry="3" style="stroke: #038048; stroke-width: 1.0;"/><text fill="#000000" font-family="sans-serif" font-size="11" lengthAdjust="spacingAndGlyphs" text-decoration="underline" textLength="95" x="42" y="102.2515">TABLE_OCCUPIED</text><line style="stroke: #000000; stroke-width: 1.0;" x1="42" x2="137" y1="104.2515" y2="104.2515"/><ellipse cx="33" cy="112.4983" fill="none" rx="3" ry="3" style="stroke: #038048; stroke-width: 1.0;"/><text fill="#000000" font-family="sans-serif" font-size="11" lengthAdjust="spacingAndGlyphs" text-decoration="underline" textLength="92" x="42" y="115.0508">TABLE_RESERVED</text><line style="stroke: #000000; stroke-width: 1.0;" x1="42" x2="134" y1="117.0508" y2="117.0508"/><ellipse cx="33" cy="125.2976" fill="none" rx="3" ry="3" style="stroke: #038048; stroke-width: 1.0;"/><text fill="#000000" font-family="sans-serif" font-size="11" lengthAdjust="spacingAndGlyphs" text-decoration="underline" textLength="136" x="42" y="127.8501">TABLE_STATE_UNKNOWN</text><line style="stroke: #000000; stroke-width: 1.0;" x1="42" x2="178" y1="129.8501" y2="129.8501"/><line style="stroke: #A80036; stroke-width: 1.5;" x1="23" x2="183" y1="134.1973" y2="134.1973"/><text fill="#888888" font-family="sans-serif" font-size="10" lengthAdjust="spacingAndGlyphs" textLength="182" x="18" y="177.502">UMLDoclet 1.1.3, PlantUML 1.2018.12</text><!--
@startuml

    enum Table.TableState {
        {static} +TABLE_VACATED
        {static} +TABLE_OCCUPIED
        {static} +TABLE_RESERVED
        {static} +TABLE_STATE_UNKNOWN
    }


    center footer UMLDoclet 1.1.3, PlantUML 1.2018.12
@enduml

PlantUML version 1.2018.12(Sun Oct 21 10:15:15 GMT 2018)
(APACHE source distribution)
Java Runtime: Java(TM) SE Runtime Environment
JVM: Java HotSpot(TM) 64-Bit Server VM
Java Version: 1.8.0_202-b08
Operating System: Linux
OS Version: 4.19.23-coreos-r1
Default Encoding: UTF-8
Language: en
Country: null
--></g></svg>