<?xml version="1.0" encoding="UTF-8" standalone="no"?><svg xmlns="http://www.w3.org/2000/svg" xmlns:xlink="http://www.w3.org/1999/xlink" contentScriptType="application/ecmascript" contentStyleType="text/css" height="543px" preserveAspectRatio="none" style="width:1431px;height:543px;" version="1.1" viewBox="0 0 1431 543" width="1431px" zoomAndPan="magnify"><defs><filter height="300%" id="f1qjdnuf98y4id" width="300%" x="-1" y="-1"><feGaussianBlur result="blurOut" stdDeviation="2.0"/><feColorMatrix in="blurOut" result="blurOut2" type="matrix" values="0 0 0 0 0 0 0 0 0 0 0 0 0 0 0 0 0 0 .4 0"/><feOffset dx="4.0" dy="4.0" in="blurOut2" result="blurOut3"/><feBlend in="SourceGraphic" in2="blurOut3" mode="normal"/></filter></defs><g><!--cluster sg.edu.ntu.scse.cz2002.objects.menuitem--><polygon fill="#FFFFFF" filter="url(#f1qjdnuf98y4id)" points="14,137,312,137,319,159.29,1409,159.29,1409,502,14,502,14,137" style="stroke: #000000; stroke-width: 1.5;"/><line style="stroke: #000000; stroke-width: 1.5;" x1="14" x2="319" y1="159.29" y2="159.29"/><text fill="#000000" font-family="sans-serif" font-size="14" font-weight="bold" lengthAdjust="spacingAndGlyphs" textLength="292" x="18" y="152.3369">sg.edu.ntu.scse.cz2002.objects.menuitem</text><!--cluster sg.edu.ntu.scse.cz2002.util--><polygon fill="#FFFFFF" filter="url(#f1qjdnuf98y4id)" points="523,16,718,16,725,38.29,728,38.29,728,112,523,112,523,16" style="stroke: #000000; stroke-width: 1.5;"/><line style="stroke: #000000; stroke-width: 1.5;" x1="523" x2="725" y1="38.29" y2="38.29"/><text fill="#000000" font-family="sans-serif" font-size="14" font-weight="bold" lengthAdjust="spacingAndGlyphs" textLength="189" x="527" y="31.3369">sg.edu.ntu.scse.cz2002.util</text><!--cluster java.lang--><polygon fill="#FFFFFF" filter="url(#f1qjdnuf98y4id)" points="1226,22.5,1295,22.5,1302,44.79,1330,44.79,1330,105.5,1226,105.5,1226,22.5" style="stroke: #000000; stroke-width: 1.5;"/><line style="stroke: #000000; stroke-width: 1.5;" x1="1226" x2="1302" y1="44.79" y2="44.79"/><text fill="#000000" font-family="sans-serif" font-size="14" font-weight="bold" lengthAdjust="spacingAndGlyphs" textLength="63" x="1230" y="37.8369">java.lang</text><!--class sg.edu.ntu.scse.cz2002.objects.menuitem.MenuItem--><a target="_top" xlink:actuate="onRequest" xlink:href="../sg/edu/ntu/scse/cz2002/objects/menuitem/MenuItem.html" xlink:show="new" xlink:title="../sg/edu/ntu/scse/cz2002/objects/menuitem/MenuItem.html" xlink:type="simple"><rect fill="#FEFECE" filter="url(#f1qjdnuf98y4id)" height="291.187" id="sg.edu.ntu.scse.cz2002.objects.menuitem.MenuItem" style="stroke: #A80036; stroke-width: 1.5;" width="422" x="698" y="183.5"/><ellipse cx="876.75" cy="199.5" fill="#ADD1B2" rx="11" ry="11" style="stroke: #A80036; stroke-width: 1.0;"/><path d="M880.5781,205.1563 Q878.7031,205.8125 876.8906,205.8125 Q874.2969,205.8125 872.7109,204.0313 Q871.125,202.25 871.125,199.3438 Q871.125,196.6563 872.5313,194.8906 Q873.3906,193.8125 874.5078,193.3594 Q875.625,192.9063 877.4063,192.9063 Q879.125,192.9063 880.5781,193.2656 L880.5781,195.25 Q878.7031,194.5469 877.4531,194.5469 Q875.7656,194.5469 874.7734,195.8672 Q873.7813,197.1875 873.7813,199.4219 Q873.7813,201.4688 874.8203,202.7656 Q875.8594,204.0625 877.5,204.0625 Q878.8906,204.0625 880.5781,203.2813 L880.5781,205.1563 Z "/><text fill="#000000" font-family="sans-serif" font-size="12" lengthAdjust="spacingAndGlyphs" textLength="56" x="897.25" y="203.9209">MenuItem</text><line style="stroke: #A80036; stroke-width: 1.5;" x1="699" x2="1119" y1="215.5" y2="215.5"/><polygon fill="none" points="709,222.3997,713,226.3997,709,230.3997,705,226.3997" style="stroke: #B38D22; stroke-width: 1.0;"/><text fill="#000000" font-family="sans-serif" font-size="11" lengthAdjust="spacingAndGlyphs" textLength="30" x="718" y="229.9521">id: int</text><polygon fill="none" points="709,235.199,713,239.199,709,243.199,705,239.199" style="stroke: #B38D22; stroke-width: 1.0;"/><text fill="#000000" font-family="sans-serif" font-size="11" lengthAdjust="spacingAndGlyphs" textLength="67" x="718" y="242.7515">name: String</text><polygon fill="none" points="709,247.9983,713,251.9983,709,255.9983,705,251.9983" style="stroke: #B38D22; stroke-width: 1.0;"/><text fill="#000000" font-family="sans-serif" font-size="11" lengthAdjust="spacingAndGlyphs" textLength="61" x="718" y="255.5508">type: String</text><polygon fill="none" points="709,260.7976,713,264.7976,709,268.7976,705,264.7976" style="stroke: #B38D22; stroke-width: 1.0;"/><text fill="#000000" font-family="sans-serif" font-size="11" lengthAdjust="spacingAndGlyphs" textLength="99" x="718" y="268.3501">description: String</text><polygon fill="none" points="709,273.5969,713,277.5969,709,281.5969,705,277.5969" style="stroke: #B38D22; stroke-width: 1.0;"/><text fill="#000000" font-family="sans-serif" font-size="11" lengthAdjust="spacingAndGlyphs" textLength="70" x="718" y="281.1494">price: double</text><line style="stroke: #A80036; stroke-width: 1.5;" x1="699" x2="1119" y1="287.4966" y2="287.4966"/><ellipse cx="709" cy="299.3962" fill="#84BE84" rx="3" ry="3" style="stroke: #038048; stroke-width: 1.0;"/><text fill="#000000" font-family="sans-serif" font-size="11" lengthAdjust="spacingAndGlyphs" textLength="60" x="718" y="301.9487">MenuItem()</text><ellipse cx="709" cy="312.1956" fill="#84BE84" rx="3" ry="3" style="stroke: #038048; stroke-width: 1.0;"/><text fill="#000000" font-family="sans-serif" font-size="11" lengthAdjust="spacingAndGlyphs" textLength="396" x="718" y="314.748">MenuItem(id:int, name:String, type:String, description:String, price:double)</text><ellipse cx="709" cy="324.9949" fill="#84BE84" rx="3" ry="3" style="stroke: #038048; stroke-width: 1.0;"/><text fill="#000000" font-family="sans-serif" font-size="11" lengthAdjust="spacingAndGlyphs" textLength="121" x="718" y="327.5474">MenuItem(csv:String[])</text><ellipse cx="709" cy="337.7942" fill="#84BE84" rx="3" ry="3" style="stroke: #038048; stroke-width: 1.0;"/><text fill="#000000" font-family="sans-serif" font-size="11" lengthAdjust="spacingAndGlyphs" textLength="85" x="718" y="340.3467">toCsv(): String[]</text><ellipse cx="709" cy="350.5935" fill="#84BE84" rx="3" ry="3" style="stroke: #038048; stroke-width: 1.0;"/><text fill="#000000" font-family="sans-serif" font-size="11" lengthAdjust="spacingAndGlyphs" textLength="55" x="718" y="353.146">getId(): int</text><ellipse cx="709" cy="363.3928" fill="#84BE84" rx="3" ry="3" style="stroke: #038048; stroke-width: 1.0;"/><text fill="#000000" font-family="sans-serif" font-size="11" lengthAdjust="spacingAndGlyphs" textLength="90" x="718" y="365.9453">setId(id:int): void</text><ellipse cx="709" cy="376.1921" fill="#84BE84" rx="3" ry="3" style="stroke: #038048; stroke-width: 1.0;"/><text fill="#000000" font-family="sans-serif" font-size="11" lengthAdjust="spacingAndGlyphs" textLength="93" x="718" y="378.7446">getName(): String</text><ellipse cx="709" cy="388.9915" fill="#84BE84" rx="3" ry="3" style="stroke: #038048; stroke-width: 1.0;"/><text fill="#000000" font-family="sans-serif" font-size="11" lengthAdjust="spacingAndGlyphs" textLength="147" x="718" y="391.5439">setName(name:String): void</text><ellipse cx="709" cy="401.7908" fill="#84BE84" rx="3" ry="3" style="stroke: #038048; stroke-width: 1.0;"/><text fill="#000000" font-family="sans-serif" font-size="11" lengthAdjust="spacingAndGlyphs" textLength="89" x="718" y="404.3433">getType(): String</text><ellipse cx="709" cy="414.5901" fill="#84BE84" rx="3" ry="3" style="stroke: #038048; stroke-width: 1.0;"/><text fill="#000000" font-family="sans-serif" font-size="11" lengthAdjust="spacingAndGlyphs" textLength="137" x="718" y="417.1426">setType(type:String): void</text><ellipse cx="709" cy="427.3894" fill="#84BE84" rx="3" ry="3" style="stroke: #038048; stroke-width: 1.0;"/><text fill="#000000" font-family="sans-serif" font-size="11" lengthAdjust="spacingAndGlyphs" textLength="125" x="718" y="429.9419">getDescription(): String</text><ellipse cx="709" cy="440.1887" fill="#84BE84" rx="3" ry="3" style="stroke: #038048; stroke-width: 1.0;"/><text fill="#000000" font-family="sans-serif" font-size="11" lengthAdjust="spacingAndGlyphs" textLength="211" x="718" y="442.7412">setDescription(description:String): void</text><ellipse cx="709" cy="452.988" fill="#84BE84" rx="3" ry="3" style="stroke: #038048; stroke-width: 1.0;"/><text fill="#000000" font-family="sans-serif" font-size="11" lengthAdjust="spacingAndGlyphs" textLength="94" x="718" y="455.5405">getPrice(): double</text><ellipse cx="709" cy="465.7874" fill="#84BE84" rx="3" ry="3" style="stroke: #038048; stroke-width: 1.0;"/><text fill="#000000" font-family="sans-serif" font-size="11" lengthAdjust="spacingAndGlyphs" textLength="146" x="718" y="468.3398">setPrice(price:double): void</text></a><!--class sg.edu.ntu.scse.cz2002.objects.menuitem.ItemNotFoundException--><a target="_top" xlink:actuate="onRequest" xlink:href="../sg/edu/ntu/scse/cz2002/objects/menuitem/ItemNotFoundException.html" xlink:show="new" xlink:title="../sg/edu/ntu/scse/cz2002/objects/menuitem/ItemNotFoundException.html" xlink:type="simple"><rect fill="#FEFECE" filter="url(#f1qjdnuf98y4id)" height="60.7993" id="sg.edu.ntu.scse.cz2002.objects.menuitem.ItemNotFoundException" style="stroke: #A80036; stroke-width: 1.5;" width="245" x="1155.5" y="298.5"/><ellipse cx="1205.75" cy="314.5" fill="#ADD1B2" rx="11" ry="11" style="stroke: #A80036; stroke-width: 1.0;"/><path d="M1209.5781,320.1563 Q1207.7031,320.8125 1205.8906,320.8125 Q1203.2969,320.8125 1201.7109,319.0313 Q1200.125,317.25 1200.125,314.3438 Q1200.125,311.6563 1201.5313,309.8906 Q1202.3906,308.8125 1203.5078,308.3594 Q1204.625,307.9063 1206.4063,307.9063 Q1208.125,307.9063 1209.5781,308.2656 L1209.5781,310.25 Q1207.7031,309.5469 1206.4531,309.5469 Q1204.7656,309.5469 1203.7734,310.8672 Q1202.7813,312.1875 1202.7813,314.4219 Q1202.7813,316.4688 1203.8203,317.7656 Q1204.8594,319.0625 1206.5,319.0625 Q1207.8906,319.0625 1209.5781,318.2813 L1209.5781,320.1563 Z "/><text fill="#000000" font-family="sans-serif" font-size="12" lengthAdjust="spacingAndGlyphs" textLength="136" x="1226.25" y="318.9209">ItemNotFoundException</text><line style="stroke: #A80036; stroke-width: 1.5;" x1="1156.5" x2="1399.5" y1="330.5" y2="330.5"/><line style="stroke: #A80036; stroke-width: 1.5;" x1="1156.5" x2="1399.5" y1="338.5" y2="338.5"/><ellipse cx="1166.5" cy="350.3997" fill="#84BE84" rx="3" ry="3" style="stroke: #038048; stroke-width: 1.0;"/><text fill="#000000" font-family="sans-serif" font-size="11" lengthAdjust="spacingAndGlyphs" textLength="219" x="1175.5" y="352.9521">ItemNotFoundException(message:String)</text></a><!--class sg.edu.ntu.scse.cz2002.objects.menuitem.Promotion--><a target="_top" xlink:actuate="onRequest" xlink:href="../sg/edu/ntu/scse/cz2002/objects/menuitem/Promotion.html" xlink:show="new" xlink:title="../sg/edu/ntu/scse/cz2002/objects/menuitem/Promotion.html" xlink:type="simple"><rect fill="#FEFECE" filter="url(#f1qjdnuf98y4id)" height="329.585" id="sg.edu.ntu.scse.cz2002.objects.menuitem.Promotion" style="stroke: #A80036; stroke-width: 1.5;" width="641" x="21.5" y="164"/><ellipse cx="308.75" cy="180" fill="#ADD1B2" rx="11" ry="11" style="stroke: #A80036; stroke-width: 1.0;"/><path d="M312.5781,185.6563 Q310.7031,186.3125 308.8906,186.3125 Q306.2969,186.3125 304.7109,184.5313 Q303.125,182.75 303.125,179.8438 Q303.125,177.1563 304.5313,175.3906 Q305.3906,174.3125 306.5078,173.8594 Q307.625,173.4063 309.4063,173.4063 Q311.125,173.4063 312.5781,173.7656 L312.5781,175.75 Q310.7031,175.0469 309.4531,175.0469 Q307.7656,175.0469 306.7734,176.3672 Q305.7813,177.6875 305.7813,179.9219 Q305.7813,181.9688 306.8203,183.2656 Q307.8594,184.5625 309.5,184.5625 Q310.8906,184.5625 312.5781,183.7813 L312.5781,185.6563 Z "/><text fill="#000000" font-family="sans-serif" font-size="12" lengthAdjust="spacingAndGlyphs" textLength="58" x="329.25" y="184.4209">Promotion</text><line style="stroke: #A80036; stroke-width: 1.5;" x1="22.5" x2="661.5" y1="196" y2="196"/><polygon fill="none" points="32.5,202.8997,36.5,206.8997,32.5,210.8997,28.5,206.8997" style="stroke: #B38D22; stroke-width: 1.0;"/><text fill="#000000" font-family="sans-serif" font-size="11" lengthAdjust="spacingAndGlyphs" textLength="67" x="41.5" y="210.4521">promoID: int</text><polygon fill="none" points="32.5,215.699,36.5,219.699,32.5,223.699,28.5,219.699" style="stroke: #B38D22; stroke-width: 1.0;"/><text fill="#000000" font-family="sans-serif" font-size="11" lengthAdjust="spacingAndGlyphs" textLength="104" x="41.5" y="223.2515">promoName: String</text><polygon fill="none" points="32.5,228.4983,36.5,232.4983,32.5,236.4983,28.5,232.4983" style="stroke: #B38D22; stroke-width: 1.0;"/><text fill="#000000" font-family="sans-serif" font-size="11" lengthAdjust="spacingAndGlyphs" textLength="105" x="41.5" y="236.0508">promoPrice: double</text><polygon fill="none" points="32.5,241.2976,36.5,245.2976,32.5,249.2976,28.5,245.2976" style="stroke: #B38D22; stroke-width: 1.0;"/><text fill="#000000" font-family="sans-serif" font-size="11" lengthAdjust="spacingAndGlyphs" textLength="81" x="41.5" y="248.8501">promoMain: int</text><polygon fill="none" points="32.5,254.0969,36.5,258.0969,32.5,262.0969,28.5,258.0969" style="stroke: #B38D22; stroke-width: 1.0;"/><text fill="#000000" font-family="sans-serif" font-size="11" lengthAdjust="spacingAndGlyphs" textLength="97" x="41.5" y="261.6494">promoDessert: int</text><polygon fill="none" points="32.5,266.8962,36.5,270.8962,32.5,274.8962,28.5,270.8962" style="stroke: #B38D22; stroke-width: 1.0;"/><text fill="#000000" font-family="sans-serif" font-size="11" lengthAdjust="spacingAndGlyphs" textLength="85" x="41.5" y="274.4487">promoDrink: int</text><line style="stroke: #A80036; stroke-width: 1.5;" x1="22.5" x2="661.5" y1="280.7959" y2="280.7959"/><ellipse cx="32.5" cy="292.6956" fill="#84BE84" rx="3" ry="3" style="stroke: #038048; stroke-width: 1.0;"/><text fill="#000000" font-family="sans-serif" font-size="11" lengthAdjust="spacingAndGlyphs" textLength="64" x="41.5" y="295.248">Promotion()</text><ellipse cx="32.5" cy="305.4949" fill="#84BE84" rx="3" ry="3" style="stroke: #038048; stroke-width: 1.0;"/><text fill="#000000" font-family="sans-serif" font-size="11" lengthAdjust="spacingAndGlyphs" textLength="615" x="41.5" y="308.0474">Promotion(promoID:int, promoName:String, promoPrice:double, promoMain:int, promoDessert:int, promoDrink:int)</text><ellipse cx="32.5" cy="318.2942" fill="#84BE84" rx="3" ry="3" style="stroke: #038048; stroke-width: 1.0;"/><text fill="#000000" font-family="sans-serif" font-size="11" lengthAdjust="spacingAndGlyphs" textLength="125" x="41.5" y="320.8467">Promotion(csv:String[])</text><ellipse cx="32.5" cy="331.0935" fill="#84BE84" rx="3" ry="3" style="stroke: #038048; stroke-width: 1.0;"/><text fill="#000000" font-family="sans-serif" font-size="11" lengthAdjust="spacingAndGlyphs" textLength="85" x="41.5" y="333.646">toCsv(): String[]</text><ellipse cx="32.5" cy="343.8928" fill="#84BE84" rx="3" ry="3" style="stroke: #038048; stroke-width: 1.0;"/><text fill="#000000" font-family="sans-serif" font-size="11" lengthAdjust="spacingAndGlyphs" textLength="91" x="41.5" y="346.4453">getPromoID(): int</text><ellipse cx="32.5" cy="356.6921" fill="#84BE84" rx="3" ry="3" style="stroke: #038048; stroke-width: 1.0;"/><text fill="#000000" font-family="sans-serif" font-size="11" lengthAdjust="spacingAndGlyphs" textLength="163" x="41.5" y="359.2446">setPromoID(promoID:int): void</text><ellipse cx="32.5" cy="369.4915" fill="#84BE84" rx="3" ry="3" style="stroke: #038048; stroke-width: 1.0;"/><text fill="#000000" font-family="sans-serif" font-size="11" lengthAdjust="spacingAndGlyphs" textLength="128" x="41.5" y="372.0439">getPromoName(): String</text><ellipse cx="32.5" cy="382.2908" fill="#84BE84" rx="3" ry="3" style="stroke: #038048; stroke-width: 1.0;"/><text fill="#000000" font-family="sans-serif" font-size="11" lengthAdjust="spacingAndGlyphs" textLength="219" x="41.5" y="384.8433">setPromoName(promoName:String): void</text><ellipse cx="32.5" cy="395.0901" fill="#84BE84" rx="3" ry="3" style="stroke: #038048; stroke-width: 1.0;"/><text fill="#000000" font-family="sans-serif" font-size="11" lengthAdjust="spacingAndGlyphs" textLength="129" x="41.5" y="397.6426">getPromoPrice(): double</text><ellipse cx="32.5" cy="407.8894" fill="#84BE84" rx="3" ry="3" style="stroke: #038048; stroke-width: 1.0;"/><text fill="#000000" font-family="sans-serif" font-size="11" lengthAdjust="spacingAndGlyphs" textLength="216" x="41.5" y="410.4419">setPromoPrice(promoPrice:double): void</text><ellipse cx="32.5" cy="420.6887" fill="#84BE84" rx="3" ry="3" style="stroke: #038048; stroke-width: 1.0;"/><text fill="#000000" font-family="sans-serif" font-size="11" lengthAdjust="spacingAndGlyphs" textLength="105" x="41.5" y="423.2412">getPromoMain(): int</text><ellipse cx="32.5" cy="433.488" fill="#84BE84" rx="3" ry="3" style="stroke: #038048; stroke-width: 1.0;"/><text fill="#000000" font-family="sans-serif" font-size="11" lengthAdjust="spacingAndGlyphs" textLength="191" x="41.5" y="436.0405">setPromoMain(promoMain:int): void</text><ellipse cx="32.5" cy="446.2874" fill="#84BE84" rx="3" ry="3" style="stroke: #038048; stroke-width: 1.0;"/><text fill="#000000" font-family="sans-serif" font-size="11" lengthAdjust="spacingAndGlyphs" textLength="121" x="41.5" y="448.8398">getPromoDessert(): int</text><ellipse cx="32.5" cy="459.0867" fill="#84BE84" rx="3" ry="3" style="stroke: #038048; stroke-width: 1.0;"/><text fill="#000000" font-family="sans-serif" font-size="11" lengthAdjust="spacingAndGlyphs" textLength="223" x="41.5" y="461.6392">setPromoDessert(promoDessert:int): void</text><ellipse cx="32.5" cy="471.886" fill="#84BE84" rx="3" ry="3" style="stroke: #038048; stroke-width: 1.0;"/><text fill="#000000" font-family="sans-serif" font-size="11" lengthAdjust="spacingAndGlyphs" textLength="109" x="41.5" y="474.4385">getPromoDrink(): int</text><ellipse cx="32.5" cy="484.6853" fill="#84BE84" rx="3" ry="3" style="stroke: #038048; stroke-width: 1.0;"/><text fill="#000000" font-family="sans-serif" font-size="11" lengthAdjust="spacingAndGlyphs" textLength="199" x="41.5" y="487.2378">setPromoDrink(promoDrink:int): void</text></a><!--class sg.edu.ntu.scse.cz2002.util.ICsvSerializable--><rect fill="#FEFECE" filter="url(#f1qjdnuf98y4id)" height="60.7993" id="sg.edu.ntu.scse.cz2002.util.ICsvSerializable" style="stroke: #A80036; stroke-width: 1.5;" width="121" x="564.5" y="43"/><ellipse cx="579.5" cy="59" fill="#B4A7E5" rx="11" ry="11" style="stroke: #A80036; stroke-width: 1.0;"/><path d="M575.5156,65 L575.5156,63.3594 L578.3906,63.3594 L578.3906,54.3438 L575.5156,54.3438 L575.5156,52.7188 L583.7188,52.7188 L583.7188,54.3438 L580.8438,54.3438 L580.8438,63.3594 L583.7188,63.3594 L583.7188,65 L575.5156,65 Z "/><text fill="#000000" font-family="sans-serif" font-size="12" font-style="italic" lengthAdjust="spacingAndGlyphs" textLength="89" x="593.5" y="63.4209">ICsvSerializable</text><line style="stroke: #A80036; stroke-width: 1.5;" x1="565.5" x2="684.5" y1="75" y2="75"/><line style="stroke: #A80036; stroke-width: 1.5;" x1="565.5" x2="684.5" y1="83" y2="83"/><ellipse cx="575.5" cy="94.8997" fill="#84BE84" rx="3" ry="3" style="stroke: #038048; stroke-width: 1.0;"/><text fill="#000000" font-family="sans-serif" font-size="11" font-style="italic" lengthAdjust="spacingAndGlyphs" textLength="85" x="584.5" y="97.4521">toCsv(): String[]</text><!--class java.lang.Exception--><rect fill="#FEFECE" filter="url(#f1qjdnuf98y4id)" height="48" id="java.lang.Exception" style="stroke: #A80036; stroke-width: 1.5;" width="88" x="1234" y="49.5"/><ellipse cx="1249" cy="65.5" fill="#ADD1B2" rx="11" ry="11" style="stroke: #A80036; stroke-width: 1.0;"/><path d="M1252.8281,71.1563 Q1250.9531,71.8125 1249.1406,71.8125 Q1246.5469,71.8125 1244.9609,70.0313 Q1243.375,68.25 1243.375,65.3438 Q1243.375,62.6563 1244.7813,60.8906 Q1245.6406,59.8125 1246.7578,59.3594 Q1247.875,58.9063 1249.6563,58.9063 Q1251.375,58.9063 1252.8281,59.2656 L1252.8281,61.25 Q1250.9531,60.5469 1249.7031,60.5469 Q1248.0156,60.5469 1247.0234,61.8672 Q1246.0313,63.1875 1246.0313,65.4219 Q1246.0313,67.4688 1247.0703,68.7656 Q1248.1094,70.0625 1249.75,70.0625 Q1251.1406,70.0625 1252.8281,69.2813 L1252.8281,71.1563 Z "/><text fill="#000000" font-family="sans-serif" font-size="12" lengthAdjust="spacingAndGlyphs" textLength="56" x="1263" y="69.9209">Exception</text><line style="stroke: #A80036; stroke-width: 1.5;" x1="1235" x2="1321" y1="81.5" y2="81.5"/><line style="stroke: #A80036; stroke-width: 1.5;" x1="1235" x2="1321" y1="89.5" y2="89.5"/><!--link sg.edu.ntu.scse.cz2002.util.ICsvSerializable to sg.edu.ntu.scse.cz2002.objects.menuitem.MenuItem--><path d="M673.9438,117.5322 C694.8243,136.3173 720.5013,159.4175 747.1292,183.3733 " fill="none" id="sg.edu.ntu.scse.cz2002.util.ICsvSerializable-sg.edu.ntu.scse.cz2002.objects.menuitem.MenuItem" style="stroke: #A80036; stroke-width: 1.0; stroke-dasharray: 7.0,7.0;"/><polygon fill="none" points="669.1617,122.6459,658.9749,104.0655,678.5252,112.2379,669.1617,122.6459" style="stroke: #A80036; stroke-width: 1.0;"/><!--link java.lang.Exception to sg.edu.ntu.scse.cz2002.objects.menuitem.ItemNotFoundException--><path d="M1278,117.7643 C1278,169.3279 1278,253.1745 1278,298.1579 " fill="none" id="java.lang.Exception-sg.edu.ntu.scse.cz2002.objects.menuitem.ItemNotFoundException" style="stroke: #A80036; stroke-width: 1.0;"/><polygon fill="none" points="1271.0001,117.5369,1278,97.5368,1285.0001,117.5368,1271.0001,117.5369" style="stroke: #A80036; stroke-width: 1.0;"/><!--link sg.edu.ntu.scse.cz2002.util.ICsvSerializable to sg.edu.ntu.scse.cz2002.objects.menuitem.Promotion--><path d="M575.8965,117.832 C560.8911,131.3792 543.4225,147.1503 524.9176,163.8571 " fill="none" id="sg.edu.ntu.scse.cz2002.util.ICsvSerializable-sg.edu.ntu.scse.cz2002.objects.menuitem.Promotion" style="stroke: #A80036; stroke-width: 1.0; stroke-dasharray: 7.0,7.0;"/><polygon fill="none" points="571.6088,112.2722,591.1447,104.0655,580.9905,122.6637,571.6088,112.2722" style="stroke: #A80036; stroke-width: 1.0;"/><text fill="#888888" font-family="sans-serif" font-size="10" lengthAdjust="spacingAndGlyphs" textLength="182" x="626.5" y="529.502">UMLDoclet 1.1.3, PlantUML 1.2018.12</text><!--
@startuml

    namespace sg.edu.ntu.scse.cz2002.objects.menuitem {

        class MenuItem [[../sg/edu/ntu/scse/cz2002/objects/menuitem/MenuItem.html]] {
            #id: int
            #name: String
            #type: String
            #description: String
            #price: double
            +MenuItem()
            +MenuItem(id:int, name:String, type:String, description:String, price:double)
            +MenuItem(csv:String[])
            +toCsv(): String[]
            +getId(): int
            +setId(id:int): void
            +getName(): String
            +setName(name:String): void
            +getType(): String
            +setType(type:String): void
            +getDescription(): String
            +setDescription(description:String): void
            +getPrice(): double
            +setPrice(price:double): void
        }

        class ItemNotFoundException [[../sg/edu/ntu/scse/cz2002/objects/menuitem/ItemNotFoundException.html]] {
            +ItemNotFoundException(message:String)
        }

        class Promotion [[../sg/edu/ntu/scse/cz2002/objects/menuitem/Promotion.html]] {
            #promoID: int
            #promoName: String
            #promoPrice: double
            #promoMain: int
            #promoDessert: int
            #promoDrink: int
            +Promotion()
            +Promotion(promoID:int, promoName:String, promoPrice:double, promoMain:int, promoDessert:int, promoDrink:int)
            +Promotion(csv:String[])
            +toCsv(): String[]
            +getPromoID(): int
            +setPromoID(promoID:int): void
            +getPromoName(): String
            +setPromoName(promoName:String): void
            +getPromoPrice(): double
            +setPromoPrice(promoPrice:double): void
            +getPromoMain(): int
            +setPromoMain(promoMain:int): void
            +getPromoDessert(): int
            +setPromoDessert(promoDessert:int): void
            +getPromoDrink(): int
            +setPromoDrink(promoDrink:int): void
        }

        interface sg.edu.ntu.scse.cz2002.util.ICsvSerializable {
            {abstract} +toCsv(): String[]
        }
        sg.edu.ntu.scse.cz2002.util.ICsvSerializable <|.. MenuItem

        class java.lang.Exception
        java.lang.Exception <|- - ItemNotFoundException

        sg.edu.ntu.scse.cz2002.util.ICsvSerializable <|.. Promotion

    }


    center footer UMLDoclet 1.1.3, PlantUML 1.2018.12
@enduml

PlantUML version 1.2018.12(Sun Oct 21 10:15:15 GMT 2018)
(APACHE source distribution)
Java Runtime: Java(TM) SE Runtime Environment
JVM: Java HotSpot(TM) 64-Bit Server VM
Java Version: 1.8.0_202-b08
Operating System: Linux
OS Version: 4.19.23-coreos-r1
Default Encoding: UTF-8
Language: en
Country: null
--></g></svg>