<?xml version="1.0" encoding="UTF-8" standalone="no"?><svg xmlns="http://www.w3.org/2000/svg" xmlns:xlink="http://www.w3.org/1999/xlink" contentScriptType="application/ecmascript" contentStyleType="text/css" height="102px" preserveAspectRatio="none" style="width:257px;height:102px;" version="1.1" viewBox="0 0 257 102" width="257px" zoomAndPan="magnify"><defs><filter height="300%" id="f1txi29utof8u4" width="300%" x="-1" y="-1"><feGaussianBlur result="blurOut" stdDeviation="2.0"/><feColorMatrix in="blurOut" result="blurOut2" type="matrix" values="0 0 0 0 0 0 0 0 0 0 0 0 0 0 0 0 0 0 .4 0"/><feOffset dx="4.0" dy="4.0" in="blurOut2" result="blurOut3"/><feBlend in="SourceGraphic" in2="blurOut3" mode="normal"/></filter></defs><g><!--class MenuChoiceInvalidException--><a target="_top" xlink:actuate="onRequest" xlink:href="../sg/edu/ntu/scse/cz2002/ui/MenuChoiceInvalidException.html" xlink:show="new" xlink:title="../sg/edu/ntu/scse/cz2002/ui/MenuChoiceInvalidException.html" xlink:type="simple"><rect fill="#FEFECE" filter="url(#f1txi29utof8u4)" height="60.7993" id="MenuChoiceInvalidException" style="stroke: #A80036; stroke-width: 1.5;" width="240" x="6" y="8"/><ellipse cx="41.7" cy="24" fill="#ADD1B2" rx="11" ry="11" style="stroke: #A80036; stroke-width: 1.0;"/><path d="M45.5281,29.6563 Q43.6531,30.3125 41.8406,30.3125 Q39.2469,30.3125 37.6609,28.5313 Q36.075,26.75 36.075,23.8438 Q36.075,21.1563 37.4813,19.3906 Q38.3406,18.3125 39.4578,17.8594 Q40.575,17.4063 42.3563,17.4063 Q44.075,17.4063 45.5281,17.7656 L45.5281,19.75 Q43.6531,19.0469 42.4031,19.0469 Q40.7156,19.0469 39.7234,20.3672 Q38.7313,21.6875 38.7313,23.9219 Q38.7313,25.9688 39.7703,27.2656 Q40.8094,28.5625 42.45,28.5625 Q43.8406,28.5625 45.5281,27.7813 L45.5281,29.6563 Z "/><text fill="#000000" font-family="sans-serif" font-size="12" lengthAdjust="spacingAndGlyphs" textLength="162" x="60.3" y="28.4209">MenuChoiceInvalidException</text><line style="stroke: #A80036; stroke-width: 1.5;" x1="7" x2="245" y1="40" y2="40"/><line style="stroke: #A80036; stroke-width: 1.5;" x1="7" x2="245" y1="48" y2="48"/><ellipse cx="17" cy="59.8997" fill="#84BE84" rx="3" ry="3" style="stroke: #038048; stroke-width: 1.0;"/><text fill="#000000" font-family="sans-serif" font-size="11" lengthAdjust="spacingAndGlyphs" textLength="214" x="26" y="62.4521">MenuChoiceInvalidException(tag:String)</text></a><text fill="#888888" font-family="sans-serif" font-size="10" lengthAdjust="spacingAndGlyphs" textLength="182" x="41" y="88.502">UMLDoclet 1.1.3, PlantUML 1.2018.12</text><!--
@startuml

    class MenuChoiceInvalidException [[../sg/edu/ntu/scse/cz2002/ui/MenuChoiceInvalidException.html]] {
        +MenuChoiceInvalidException(tag:String)
    }


    center footer UMLDoclet 1.1.3, PlantUML 1.2018.12
@enduml

PlantUML version 1.2018.12(Sun Oct 21 10:15:15 GMT 2018)
(APACHE source distribution)
Java Runtime: Java(TM) SE Runtime Environment
JVM: Java HotSpot(TM) 64-Bit Server VM
Java Version: 1.8.0_202-b08
Operating System: Linux
OS Version: 4.19.23-coreos-r1
Default Encoding: UTF-8
Language: en
Country: null
--></g></svg>