<?xml version="1.0" encoding="UTF-8" standalone="no"?><svg xmlns="http://www.w3.org/2000/svg" xmlns:xlink="http://www.w3.org/1999/xlink" contentScriptType="application/ecmascript" contentStyleType="text/css" height="268px" preserveAspectRatio="none" style="width:282px;height:268px;" version="1.1" viewBox="0 0 282 268" width="282px" zoomAndPan="magnify"><defs><filter height="300%" id="f1aec61gpngbys" width="300%" x="-1" y="-1"><feGaussianBlur result="blurOut" stdDeviation="2.0"/><feColorMatrix in="blurOut" result="blurOut2" type="matrix" values="0 0 0 0 0 0 0 0 0 0 0 0 0 0 0 0 0 0 .4 0"/><feOffset dx="4.0" dy="4.0" in="blurOut2" result="blurOut3"/><feBlend in="SourceGraphic" in2="blurOut3" mode="normal"/></filter></defs><g><!--cluster sg.edu.ntu.scse.cz2002--><polygon fill="#FFFFFF" filter="url(#f1aec61gpngbys)" points="14,16,181,16,188,38.29,260,38.29,260,227,14,227,14,16" style="stroke: #000000; stroke-width: 1.5;"/><line style="stroke: #000000; stroke-width: 1.5;" x1="14" x2="188" y1="38.29" y2="38.29"/><text fill="#000000" font-family="sans-serif" font-size="14" font-weight="bold" lengthAdjust="spacingAndGlyphs" textLength="161" x="18" y="31.3369">sg.edu.ntu.scse.cz2002</text><!--class sg.edu.ntu.scse.cz2002.MainApp--><rect fill="#FEFECE" filter="url(#f1aec61gpngbys)" height="175.9932" id="sg.edu.ntu.scse.cz2002.MainApp" style="stroke: #A80036; stroke-width: 1.5;" width="229" x="22.5" y="43"/><ellipse cx="107.25" cy="59" fill="#ADD1B2" rx="11" ry="11" style="stroke: #A80036; stroke-width: 1.0;"/><path d="M111.0781,64.6563 Q109.2031,65.3125 107.3906,65.3125 Q104.7969,65.3125 103.2109,63.5313 Q101.625,61.75 101.625,58.8438 Q101.625,56.1563 103.0313,54.3906 Q103.8906,53.3125 105.0078,52.8594 Q106.125,52.4063 107.9063,52.4063 Q109.625,52.4063 111.0781,52.7656 L111.0781,54.75 Q109.2031,54.0469 107.9531,54.0469 Q106.2656,54.0469 105.2734,55.3672 Q104.2813,56.6875 104.2813,58.9219 Q104.2813,60.9688 105.3203,62.2656 Q106.3594,63.5625 108,63.5625 Q109.3906,63.5625 111.0781,62.7813 L111.0781,64.6563 Z "/><text fill="#000000" font-family="sans-serif" font-size="12" lengthAdjust="spacingAndGlyphs" textLength="51" x="127.75" y="63.4209">MainApp</text><line style="stroke: #A80036; stroke-width: 1.5;" x1="23.5" x2="250.5" y1="75" y2="75"/><ellipse cx="33.5" cy="86.8997" fill="none" rx="3" ry="3" style="stroke: #038048; stroke-width: 1.0;"/><text fill="#000000" font-family="sans-serif" font-size="11" lengthAdjust="spacingAndGlyphs" text-decoration="underline" textLength="134" x="42.5" y="89.4521">tables: ArrayList&lt;Table&gt;</text><line style="stroke: #000000; stroke-width: 1.0;" x1="42.5" x2="176.5" y1="91.4521" y2="91.4521"/><ellipse cx="33.5" cy="99.699" fill="none" rx="3" ry="3" style="stroke: #038048; stroke-width: 1.0;"/><text fill="#000000" font-family="sans-serif" font-size="11" lengthAdjust="spacingAndGlyphs" text-decoration="underline" textLength="184" x="42.5" y="102.2515">menuItems: ArrayList&lt;MenuItem&gt;</text><line style="stroke: #000000; stroke-width: 1.0;" x1="42.5" x2="226.5" y1="104.2515" y2="104.2515"/><ellipse cx="33.5" cy="112.4983" fill="none" rx="3" ry="3" style="stroke: #038048; stroke-width: 1.0;"/><text fill="#000000" font-family="sans-serif" font-size="11" lengthAdjust="spacingAndGlyphs" text-decoration="underline" textLength="199" x="42.5" y="115.0508">completedOrders: ArrayList&lt;Order&gt;</text><line style="stroke: #000000; stroke-width: 1.0;" x1="42.5" x2="241.5" y1="117.0508" y2="117.0508"/><ellipse cx="33.5" cy="125.2976" fill="none" rx="3" ry="3" style="stroke: #038048; stroke-width: 1.0;"/><text fill="#000000" font-family="sans-serif" font-size="11" lengthAdjust="spacingAndGlyphs" text-decoration="underline" textLength="203" x="42.5" y="127.8501">reservations: ArrayList&lt;Reservation&gt;</text><line style="stroke: #000000; stroke-width: 1.0;" x1="42.5" x2="245.5" y1="129.8501" y2="129.8501"/><ellipse cx="33.5" cy="138.0969" fill="none" rx="3" ry="3" style="stroke: #038048; stroke-width: 1.0;"/><text fill="#000000" font-family="sans-serif" font-size="11" lengthAdjust="spacingAndGlyphs" text-decoration="underline" textLength="192" x="42.5" y="140.6494">promotions: ArrayList&lt;Promotion&gt;</text><line style="stroke: #000000; stroke-width: 1.0;" x1="42.5" x2="234.5" y1="142.6494" y2="142.6494"/><ellipse cx="33.5" cy="150.8962" fill="none" rx="3" ry="3" style="stroke: #038048; stroke-width: 1.0;"/><text fill="#000000" font-family="sans-serif" font-size="11" lengthAdjust="spacingAndGlyphs" text-decoration="underline" textLength="127" x="42.5" y="153.4487">staffs: ArrayList&lt;Staff&gt;</text><line style="stroke: #000000; stroke-width: 1.0;" x1="42.5" x2="169.5" y1="155.4487" y2="155.4487"/><ellipse cx="33.5" cy="163.6956" fill="none" rx="3" ry="3" style="stroke: #038048; stroke-width: 1.0;"/><text fill="#000000" font-family="sans-serif" font-size="11" lengthAdjust="spacingAndGlyphs" text-decoration="underline" textLength="127" x="42.5" y="166.248">restaurantSession: char</text><line style="stroke: #000000; stroke-width: 1.0;" x1="42.5" x2="169.5" y1="168.248" y2="168.248"/><ellipse cx="33.5" cy="176.4949" fill="none" rx="3" ry="3" style="stroke: #038048; stroke-width: 1.0;"/><text fill="#000000" font-family="sans-serif" font-size="11" lengthAdjust="spacingAndGlyphs" text-decoration="underline" textLength="85" x="42.5" y="179.0474">DEBUG: boolean</text><line style="stroke: #000000; stroke-width: 1.0;" x1="42.5" x2="127.5" y1="181.0474" y2="181.0474"/><line style="stroke: #A80036; stroke-width: 1.5;" x1="23.5" x2="250.5" y1="185.3945" y2="185.3945"/><ellipse cx="33.5" cy="197.2942" fill="#84BE84" rx="3" ry="3" style="stroke: #038048; stroke-width: 1.0;"/><text fill="#000000" font-family="sans-serif" font-size="11" lengthAdjust="spacingAndGlyphs" text-decoration="underline" textLength="95" x="42.5" y="199.8467">saveAll(): boolean</text><line style="stroke: #000000; stroke-width: 1.0;" x1="42.5" x2="137.5" y1="201.8467" y2="201.8467"/><ellipse cx="33.5" cy="210.0935" fill="#84BE84" rx="3" ry="3" style="stroke: #038048; stroke-width: 1.0;"/><text fill="#000000" font-family="sans-serif" font-size="11" lengthAdjust="spacingAndGlyphs" text-decoration="underline" textLength="103" x="42.5" y="212.646">main(String[]): void</text><line style="stroke: #000000; stroke-width: 1.0;" x1="42.5" x2="145.5" y1="214.646" y2="214.646"/><text fill="#888888" font-family="sans-serif" font-size="10" lengthAdjust="spacingAndGlyphs" textLength="182" x="52" y="254.502">UMLDoclet 1.1.3, PlantUML 1.2018.12</text><!--
@startuml

    namespace sg.edu.ntu.scse.cz2002 {

        class MainApp {
            {static} +tables: ArrayList<Table>
            {static} +menuItems: ArrayList<MenuItem>
            {static} +completedOrders: ArrayList<Order>
            {static} +reservations: ArrayList<Reservation>
            {static} +promotions: ArrayList<Promotion>
            {static} +staffs: ArrayList<Staff>
            {static} +restaurantSession: char
            {static} +DEBUG: boolean
            {static} +saveAll(): boolean
            {static} +main(String[]): void
        }

    }


    center footer UMLDoclet 1.1.3, PlantUML 1.2018.12
@enduml

PlantUML version 1.2018.12(Sun Oct 21 10:15:15 GMT 2018)
(APACHE source distribution)
Java Runtime: Java(TM) SE Runtime Environment
JVM: Java HotSpot(TM) 64-Bit Server VM
Java Version: 1.8.0_202-b08
Operating System: Linux
OS Version: 4.19.23-coreos-r1
Default Encoding: UTF-8
Language: en
Country: null
--></g></svg>