<?xml version="1.0" encoding="UTF-8" standalone="no"?><svg xmlns="http://www.w3.org/2000/svg" xmlns:xlink="http://www.w3.org/1999/xlink" contentScriptType="application/ecmascript" contentStyleType="text/css" height="428px" preserveAspectRatio="none" style="width:1593px;height:428px;" version="1.1" viewBox="0 0 1593 428" width="1593px" zoomAndPan="magnify"><defs><filter height="300%" id="firlzlj4uxscm" width="300%" x="-1" y="-1"><feGaussianBlur result="blurOut" stdDeviation="2.0"/><feColorMatrix in="blurOut" result="blurOut2" type="matrix" values="0 0 0 0 0 0 0 0 0 0 0 0 0 0 0 0 0 0 .4 0"/><feOffset dx="4.0" dy="4.0" in="blurOut2" result="blurOut3"/><feBlend in="SourceGraphic" in2="blurOut3" mode="normal"/></filter></defs><g><!--cluster sg.edu.ntu.scse.cz2002.ui--><polygon fill="#FFFFFF" filter="url(#firlzlj4uxscm)" points="14,16,198,16,205,38.29,1571,38.29,1571,387,14,387,14,16" style="stroke: #000000; stroke-width: 1.5;"/><line style="stroke: #000000; stroke-width: 1.5;" x1="14" x2="205" y1="38.29" y2="38.29"/><text fill="#000000" font-family="sans-serif" font-size="14" font-weight="bold" lengthAdjust="spacingAndGlyphs" textLength="178" x="18" y="31.3369">sg.edu.ntu.scse.cz2002.ui</text><!--class sg.edu.ntu.scse.cz2002.ui.ReservationMenuUI--><rect fill="#FEFECE" filter="url(#firlzlj4uxscm)" height="60.7993" id="sg.edu.ntu.scse.cz2002.ui.ReservationMenuUI" style="stroke: #A80036; stroke-width: 1.5;" width="166" x="22" y="279.5"/><ellipse cx="48.25" cy="295.5" fill="#ADD1B2" rx="11" ry="11" style="stroke: #A80036; stroke-width: 1.0;"/><path d="M52.0781,301.1563 Q50.2031,301.8125 48.3906,301.8125 Q45.7969,301.8125 44.2109,300.0313 Q42.625,298.25 42.625,295.3438 Q42.625,292.6563 44.0313,290.8906 Q44.8906,289.8125 46.0078,289.3594 Q47.125,288.9063 48.9063,288.9063 Q50.625,288.9063 52.0781,289.2656 L52.0781,291.25 Q50.2031,290.5469 48.9531,290.5469 Q47.2656,290.5469 46.2734,291.8672 Q45.2813,293.1875 45.2813,295.4219 Q45.2813,297.4688 46.3203,298.7656 Q47.3594,300.0625 49,300.0625 Q50.3906,300.0625 52.0781,299.2813 L52.0781,301.1563 Z "/><text fill="#000000" font-family="sans-serif" font-size="12" lengthAdjust="spacingAndGlyphs" textLength="109" x="64.75" y="299.9209">ReservationMenuUI</text><line style="stroke: #A80036; stroke-width: 1.5;" x1="23" x2="187" y1="311.5" y2="311.5"/><line style="stroke: #A80036; stroke-width: 1.5;" x1="23" x2="187" y1="319.5" y2="319.5"/><polygon fill="#FFFF44" points="33,326.3997,37,330.3997,33,334.3997,29,330.3997" style="stroke: #B38D22; stroke-width: 1.0;"/><text fill="#000000" font-family="sans-serif" font-size="11" lengthAdjust="spacingAndGlyphs" textLength="140" x="42" y="333.9521">generateMenuScreen(): int</text><!--class sg.edu.ntu.scse.cz2002.ui.FoodMenuUI--><rect fill="#FEFECE" filter="url(#firlzlj4uxscm)" height="137.5952" id="sg.edu.ntu.scse.cz2002.ui.FoodMenuUI" style="stroke: #A80036; stroke-width: 1.5;" width="343" x="223.5" y="241"/><ellipse cx="355.75" cy="257" fill="#ADD1B2" rx="11" ry="11" style="stroke: #A80036; stroke-width: 1.0;"/><path d="M359.5781,262.6563 Q357.7031,263.3125 355.8906,263.3125 Q353.2969,263.3125 351.7109,261.5313 Q350.125,259.75 350.125,256.8438 Q350.125,254.1563 351.5313,252.3906 Q352.3906,251.3125 353.5078,250.8594 Q354.625,250.4063 356.4063,250.4063 Q358.125,250.4063 359.5781,250.7656 L359.5781,252.75 Q357.7031,252.0469 356.4531,252.0469 Q354.7656,252.0469 353.7734,253.3672 Q352.7813,254.6875 352.7813,256.9219 Q352.7813,258.9688 353.8203,260.2656 Q354.8594,261.5625 356.5,261.5625 Q357.8906,261.5625 359.5781,260.7813 L359.5781,262.6563 Z "/><text fill="#000000" font-family="sans-serif" font-size="12" lengthAdjust="spacingAndGlyphs" textLength="70" x="376.25" y="261.4209">FoodMenuUI</text><line style="stroke: #A80036; stroke-width: 1.5;" x1="224.5" x2="565.5" y1="273" y2="273"/><line style="stroke: #A80036; stroke-width: 1.5;" x1="224.5" x2="565.5" y1="281" y2="281"/><polygon fill="#FFFF44" points="234.5,287.8997,238.5,291.8997,234.5,295.8997,230.5,291.8997" style="stroke: #B38D22; stroke-width: 1.0;"/><text fill="#000000" font-family="sans-serif" font-size="11" lengthAdjust="spacingAndGlyphs" textLength="140" x="243.5" y="295.4521">generateMenuScreen(): int</text><ellipse cx="234.5" cy="305.699" fill="#84BE84" rx="3" ry="3" style="stroke: #038048; stroke-width: 1.0;"/><text fill="#000000" font-family="sans-serif" font-size="11" lengthAdjust="spacingAndGlyphs" textLength="92" x="243.5" y="308.2515">printMenu(): void</text><ellipse cx="234.5" cy="318.4983" fill="#84BE84" rx="3" ry="3" style="stroke: #038048; stroke-width: 1.0;"/><text fill="#000000" font-family="sans-serif" font-size="11" lengthAdjust="spacingAndGlyphs" textLength="282" x="243.5" y="321.0508">addNewMenuItem(String, String, String, double): void</text><ellipse cx="234.5" cy="331.2976" fill="#84BE84" rx="3" ry="3" style="stroke: #038048; stroke-width: 1.0;"/><text fill="#000000" font-family="sans-serif" font-size="11" lengthAdjust="spacingAndGlyphs" textLength="280" x="243.5" y="333.8501">editMenuItem(int, String, String, String, double): void</text><ellipse cx="234.5" cy="344.0969" fill="#84BE84" rx="3" ry="3" style="stroke: #038048; stroke-width: 1.0;"/><text fill="#000000" font-family="sans-serif" font-size="11" lengthAdjust="spacingAndGlyphs" textLength="135" x="243.5" y="346.6494">deleteMenuItem(int): void</text><ellipse cx="234.5" cy="356.8962" fill="#84BE84" rx="3" ry="3" style="stroke: #038048; stroke-width: 1.0;"/><text fill="#000000" font-family="sans-serif" font-size="11" lengthAdjust="spacingAndGlyphs" text-decoration="underline" textLength="173" x="243.5" y="359.4487">retrieveMenuItem(int): MenuItem</text><line style="stroke: #000000; stroke-width: 1.0;" x1="243.5" x2="416.5" y1="361.4487" y2="361.4487"/><ellipse cx="234.5" cy="369.6956" fill="#84BE84" rx="3" ry="3" style="stroke: #038048; stroke-width: 1.0;"/><text fill="#000000" font-family="sans-serif" font-size="11" lengthAdjust="spacingAndGlyphs" text-decoration="underline" textLength="317" x="243.5" y="372.248">retrieveMenuItemListFiltered(String): ArrayList&lt;MenuItem&gt;</text><line style="stroke: #000000; stroke-width: 1.0;" x1="243.5" x2="560.5" y1="374.248" y2="374.248"/><!--class sg.edu.ntu.scse.cz2002.ui.PromotionMenuUI--><rect fill="#FEFECE" filter="url(#firlzlj4uxscm)" height="124.7959" id="sg.edu.ntu.scse.cz2002.ui.PromotionMenuUI" style="stroke: #A80036; stroke-width: 1.5;" width="296" x="602" y="247.5"/><ellipse cx="695.75" cy="263.5" fill="#ADD1B2" rx="11" ry="11" style="stroke: #A80036; stroke-width: 1.0;"/><path d="M699.5781,269.1563 Q697.7031,269.8125 695.8906,269.8125 Q693.2969,269.8125 691.7109,268.0313 Q690.125,266.25 690.125,263.3438 Q690.125,260.6563 691.5313,258.8906 Q692.3906,257.8125 693.5078,257.3594 Q694.625,256.9063 696.4063,256.9063 Q698.125,256.9063 699.5781,257.2656 L699.5781,259.25 Q697.7031,258.5469 696.4531,258.5469 Q694.7656,258.5469 693.7734,259.8672 Q692.7813,261.1875 692.7813,263.4219 Q692.7813,265.4688 693.8203,266.7656 Q694.8594,268.0625 696.5,268.0625 Q697.8906,268.0625 699.5781,267.2813 L699.5781,269.1563 Z "/><text fill="#000000" font-family="sans-serif" font-size="12" lengthAdjust="spacingAndGlyphs" textLength="100" x="716.25" y="267.9209">PromotionMenuUI</text><line style="stroke: #A80036; stroke-width: 1.5;" x1="603" x2="897" y1="279.5" y2="279.5"/><line style="stroke: #A80036; stroke-width: 1.5;" x1="603" x2="897" y1="287.5" y2="287.5"/><polygon fill="#FFFF44" points="613,294.3997,617,298.3997,613,302.3997,609,298.3997" style="stroke: #B38D22; stroke-width: 1.0;"/><text fill="#000000" font-family="sans-serif" font-size="11" lengthAdjust="spacingAndGlyphs" textLength="140" x="622" y="301.9521">generateMenuScreen(): int</text><ellipse cx="613" cy="312.199" fill="#84BE84" rx="3" ry="3" style="stroke: #038048; stroke-width: 1.0;"/><text fill="#000000" font-family="sans-serif" font-size="11" lengthAdjust="spacingAndGlyphs" textLength="119" x="622" y="314.7515">printPromotion(): void</text><ellipse cx="613" cy="324.9983" fill="#84BE84" rx="3" ry="3" style="stroke: #038048; stroke-width: 1.0;"/><text fill="#000000" font-family="sans-serif" font-size="11" lengthAdjust="spacingAndGlyphs" textLength="270" x="622" y="327.5508">addNewPromotion(String, double, int, int, int): void</text><ellipse cx="613" cy="337.7976" fill="#84BE84" rx="3" ry="3" style="stroke: #038048; stroke-width: 1.0;"/><text fill="#000000" font-family="sans-serif" font-size="11" lengthAdjust="spacingAndGlyphs" textLength="268" x="622" y="340.3501">editPromotion(int, String, double, int, int, int): void</text><ellipse cx="613" cy="350.5969" fill="#84BE84" rx="3" ry="3" style="stroke: #038048; stroke-width: 1.0;"/><text fill="#000000" font-family="sans-serif" font-size="11" lengthAdjust="spacingAndGlyphs" textLength="139" x="622" y="353.1494">deletePromotion(int): void</text><ellipse cx="613" cy="363.3962" fill="#84BE84" rx="3" ry="3" style="stroke: #038048; stroke-width: 1.0;"/><text fill="#000000" font-family="sans-serif" font-size="11" lengthAdjust="spacingAndGlyphs" text-decoration="underline" textLength="181" x="622" y="365.9487">retrievePromotion(int): Promotion</text><line style="stroke: #000000; stroke-width: 1.0;" x1="622" x2="803" y1="367.9487" y2="367.9487"/><!--class sg.edu.ntu.scse.cz2002.ui.MainMenuUI--><rect fill="#FEFECE" filter="url(#firlzlj4uxscm)" height="60.7993" id="sg.edu.ntu.scse.cz2002.ui.MainMenuUI" style="stroke: #A80036; stroke-width: 1.5;" width="166" x="933" y="279.5"/><ellipse cx="977.25" cy="295.5" fill="#ADD1B2" rx="11" ry="11" style="stroke: #A80036; stroke-width: 1.0;"/><path d="M981.0781,301.1563 Q979.2031,301.8125 977.3906,301.8125 Q974.7969,301.8125 973.2109,300.0313 Q971.625,298.25 971.625,295.3438 Q971.625,292.6563 973.0313,290.8906 Q973.8906,289.8125 975.0078,289.3594 Q976.125,288.9063 977.9063,288.9063 Q979.625,288.9063 981.0781,289.2656 L981.0781,291.25 Q979.2031,290.5469 977.9531,290.5469 Q976.2656,290.5469 975.2734,291.8672 Q974.2813,293.1875 974.2813,295.4219 Q974.2813,297.4688 975.3203,298.7656 Q976.3594,300.0625 978,300.0625 Q979.3906,300.0625 981.0781,299.2813 L981.0781,301.1563 Z "/><text fill="#000000" font-family="sans-serif" font-size="12" lengthAdjust="spacingAndGlyphs" textLength="69" x="997.75" y="299.9209">MainMenuUI</text><line style="stroke: #A80036; stroke-width: 1.5;" x1="934" x2="1098" y1="311.5" y2="311.5"/><line style="stroke: #A80036; stroke-width: 1.5;" x1="934" x2="1098" y1="319.5" y2="319.5"/><polygon fill="#FFFF44" points="944,326.3997,948,330.3997,944,334.3997,940,330.3997" style="stroke: #B38D22; stroke-width: 1.0;"/><text fill="#000000" font-family="sans-serif" font-size="11" lengthAdjust="spacingAndGlyphs" textLength="140" x="953" y="333.9521">generateMenuScreen(): int</text><!--class sg.edu.ntu.scse.cz2002.ui.StaffMgmtMenuUI--><rect fill="#FEFECE" filter="url(#firlzlj4uxscm)" height="60.7993" id="sg.edu.ntu.scse.cz2002.ui.StaffMgmtMenuUI" style="stroke: #A80036; stroke-width: 1.5;" width="166" x="1134" y="279.5"/><ellipse cx="1164.75" cy="295.5" fill="#ADD1B2" rx="11" ry="11" style="stroke: #A80036; stroke-width: 1.0;"/><path d="M1168.5781,301.1563 Q1166.7031,301.8125 1164.8906,301.8125 Q1162.2969,301.8125 1160.7109,300.0313 Q1159.125,298.25 1159.125,295.3438 Q1159.125,292.6563 1160.5313,290.8906 Q1161.3906,289.8125 1162.5078,289.3594 Q1163.625,288.9063 1165.4063,288.9063 Q1167.125,288.9063 1168.5781,289.2656 L1168.5781,291.25 Q1166.7031,290.5469 1165.4531,290.5469 Q1163.7656,290.5469 1162.7734,291.8672 Q1161.7813,293.1875 1161.7813,295.4219 Q1161.7813,297.4688 1162.8203,298.7656 Q1163.8594,300.0625 1165.5,300.0625 Q1166.8906,300.0625 1168.5781,299.2813 L1168.5781,301.1563 Z "/><text fill="#000000" font-family="sans-serif" font-size="12" lengthAdjust="spacingAndGlyphs" textLength="99" x="1182.25" y="299.9209">StaffMgmtMenuUI</text><line style="stroke: #A80036; stroke-width: 1.5;" x1="1135" x2="1299" y1="311.5" y2="311.5"/><line style="stroke: #A80036; stroke-width: 1.5;" x1="1135" x2="1299" y1="319.5" y2="319.5"/><polygon fill="#FFFF44" points="1145,326.3997,1149,330.3997,1145,334.3997,1141,330.3997" style="stroke: #B38D22; stroke-width: 1.0;"/><text fill="#000000" font-family="sans-serif" font-size="11" lengthAdjust="spacingAndGlyphs" textLength="140" x="1154" y="333.9521">generateMenuScreen(): int</text><!--class sg.edu.ntu.scse.cz2002.ui.BaseMenu--><rect fill="#FEFECE" filter="url(#firlzlj4uxscm)" height="137.5952" id="sg.edu.ntu.scse.cz2002.ui.BaseMenu" style="stroke: #A80036; stroke-width: 1.5;" width="179" x="793.5" y="43"/><ellipse cx="849.75" cy="59" fill="#A9DCDF" rx="11" ry="11" style="stroke: #A80036; stroke-width: 1.0;"/><path d="M845.4219,64.25 L849.1406,51.9688 L851.5938,51.9688 L855.3125,64.25 L852.7656,64.25 L851.8281,61.125 L848.1875,61.125 L847.25,64.25 L845.4219,64.25 Z M848.6563,59.5938 L851.375,59.5938 L850,55.1094 L848.6563,59.5938 Z "/><text fill="#000000" font-family="sans-serif" font-size="12" font-style="italic" lengthAdjust="spacingAndGlyphs" textLength="58" x="870.25" y="63.4209">BaseMenu</text><line style="stroke: #A80036; stroke-width: 1.5;" x1="794.5" x2="971.5" y1="75" y2="75"/><line style="stroke: #A80036; stroke-width: 1.5;" x1="794.5" x2="971.5" y1="83" y2="83"/><ellipse cx="804.5" cy="94.8997" fill="#84BE84" rx="3" ry="3" style="stroke: #038048; stroke-width: 1.0;"/><text fill="#000000" font-family="sans-serif" font-size="11" lengthAdjust="spacingAndGlyphs" textLength="136" x="813.5" y="97.4521">startMainMenu(): boolean</text><polygon fill="#FFFF44" points="804.5,102.699,808.5,106.699,804.5,110.699,800.5,106.699" style="stroke: #B38D22; stroke-width: 1.0;"/><text fill="#000000" font-family="sans-serif" font-size="11" lengthAdjust="spacingAndGlyphs" text-decoration="underline" textLength="133" x="813.5" y="110.2515">printHeader(String): void</text><line style="stroke: #000000; stroke-width: 1.0;" x1="813.5" x2="946.5" y1="112.2515" y2="112.2515"/><polygon fill="#FFFF44" points="804.5,115.4983,808.5,119.4983,804.5,123.4983,800.5,119.4983" style="stroke: #B38D22; stroke-width: 1.0;"/><text fill="#000000" font-family="sans-serif" font-size="11" lengthAdjust="spacingAndGlyphs" text-decoration="underline" textLength="153" x="813.5" y="123.0508">printHeader(String, int): void</text><line style="stroke: #000000; stroke-width: 1.0;" x1="813.5" x2="966.5" y1="125.0508" y2="125.0508"/><polygon fill="#FFFF44" points="804.5,128.2976,808.5,132.2976,804.5,136.2976,800.5,132.2976" style="stroke: #B38D22; stroke-width: 1.0;"/><text fill="#000000" font-family="sans-serif" font-size="11" lengthAdjust="spacingAndGlyphs" text-decoration="underline" textLength="112" x="813.5" y="135.8501">printBreaks(int): void</text><line style="stroke: #000000; stroke-width: 1.0;" x1="813.5" x2="925.5" y1="137.8501" y2="137.8501"/><polygon fill="#FFFF44" points="804.5,141.0969,808.5,145.0969,804.5,149.0969,800.5,145.0969" style="stroke: #B38D22; stroke-width: 1.0;"/><text fill="#000000" font-family="sans-serif" font-size="11" lengthAdjust="spacingAndGlyphs" text-decoration="underline" textLength="98" x="813.5" y="148.6494">printBreaks(): void</text><line style="stroke: #000000; stroke-width: 1.0;" x1="813.5" x2="911.5" y1="150.6494" y2="150.6494"/><polygon fill="#FFFF44" points="804.5,153.8962,808.5,157.8962,804.5,161.8962,800.5,157.8962" style="stroke: #B38D22; stroke-width: 1.0;"/><text fill="#000000" font-family="sans-serif" font-size="11" lengthAdjust="spacingAndGlyphs" text-decoration="underline" textLength="142" x="813.5" y="161.4487">doMenuChoice(int, int): int</text><line style="stroke: #000000; stroke-width: 1.0;" x1="813.5" x2="955.5" y1="163.4487" y2="163.4487"/><polygon fill="#FFFF44" points="804.5,166.6956,808.5,170.6956,804.5,174.6956,800.5,170.6956" style="stroke: #B38D22; stroke-width: 1.0;"/><text fill="#000000" font-family="sans-serif" font-size="11" font-style="italic" lengthAdjust="spacingAndGlyphs" textLength="140" x="813.5" y="174.248">generateMenuScreen(): int</text><!--class sg.edu.ntu.scse.cz2002.ui.OrderMenuUI--><rect fill="#FEFECE" filter="url(#firlzlj4uxscm)" height="73.5986" id="sg.edu.ntu.scse.cz2002.ui.OrderMenuUI" style="stroke: #A80036; stroke-width: 1.5;" width="228" x="1335" y="273"/><ellipse cx="1406.75" cy="289" fill="#ADD1B2" rx="11" ry="11" style="stroke: #A80036; stroke-width: 1.0;"/><path d="M1410.5781,294.6563 Q1408.7031,295.3125 1406.8906,295.3125 Q1404.2969,295.3125 1402.7109,293.5313 Q1401.125,291.75 1401.125,288.8438 Q1401.125,286.1563 1402.5313,284.3906 Q1403.3906,283.3125 1404.5078,282.8594 Q1405.625,282.4063 1407.4063,282.4063 Q1409.125,282.4063 1410.5781,282.7656 L1410.5781,284.75 Q1408.7031,284.0469 1407.4531,284.0469 Q1405.7656,284.0469 1404.7734,285.3672 Q1403.7813,286.6875 1403.7813,288.9219 Q1403.7813,290.9688 1404.8203,292.2656 Q1405.8594,293.5625 1407.5,293.5625 Q1408.8906,293.5625 1410.5781,292.7813 L1410.5781,294.6563 Z "/><text fill="#000000" font-family="sans-serif" font-size="12" lengthAdjust="spacingAndGlyphs" textLength="76" x="1427.25" y="293.4209">OrderMenuUI</text><line style="stroke: #A80036; stroke-width: 1.5;" x1="1336" x2="1562" y1="305" y2="305"/><ellipse cx="1346" cy="316.8997" fill="none" rx="3" ry="3" style="stroke: #038048; stroke-width: 1.0;"/><text fill="#000000" font-family="sans-serif" font-size="11" lengthAdjust="spacingAndGlyphs" text-decoration="underline" textLength="202" x="1355" y="319.4521">incompleteOrders: ArrayList&lt;Order&gt;</text><line style="stroke: #000000; stroke-width: 1.0;" x1="1355" x2="1557" y1="321.4521" y2="321.4521"/><line style="stroke: #A80036; stroke-width: 1.5;" x1="1336" x2="1562" y1="325.7993" y2="325.7993"/><polygon fill="#FFFF44" points="1346,332.699,1350,336.699,1346,340.699,1342,336.699" style="stroke: #B38D22; stroke-width: 1.0;"/><text fill="#000000" font-family="sans-serif" font-size="11" lengthAdjust="spacingAndGlyphs" textLength="140" x="1355" y="340.2515">generateMenuScreen(): int</text><!--link sg.edu.ntu.scse.cz2002.ui.BaseMenu to sg.edu.ntu.scse.cz2002.ui.ReservationMenuUI--><path d="M773.0819,119.0864 C635.7812,131.0155 395.8287,162.1222 206,241 C183.0558,250.5338 159.9874,265.7657 141.7009,279.4958 " fill="none" id="sg.edu.ntu.scse.cz2002.ui.BaseMenu-sg.edu.ntu.scse.cz2002.ui.ReservationMenuUI" style="stroke: #A80036; stroke-width: 1.0;"/><polygon fill="none" points="772.8832,112.0788,793.3946,117.397,774.0436,126.0306,772.8832,112.0788" style="stroke: #A80036; stroke-width: 1.0;"/><!--link sg.edu.ntu.scse.cz2002.ui.BaseMenu to sg.edu.ntu.scse.cz2002.ui.FoodMenuUI--><path d="M774.5792,155.9904 C713.1321,180.9218 634.8781,212.6724 565.4057,240.86 " fill="none" id="sg.edu.ntu.scse.cz2002.ui.BaseMenu-sg.edu.ntu.scse.cz2002.ui.FoodMenuUI" style="stroke: #A80036; stroke-width: 1.0;"/><polygon fill="none" points="772.3288,149.3493,793.4933,148.3163,777.5924,162.3221,772.3288,149.3493" style="stroke: #A80036; stroke-width: 1.0;"/><!--link sg.edu.ntu.scse.cz2002.ui.BaseMenu to sg.edu.ntu.scse.cz2002.ui.PromotionMenuUI--><path d="M825.2527,197.9697 C814.0889,214.5894 802.5903,231.7076 792.0449,247.4068 " fill="none" id="sg.edu.ntu.scse.cz2002.ui.BaseMenu-sg.edu.ntu.scse.cz2002.ui.PromotionMenuUI" style="stroke: #A80036; stroke-width: 1.0;"/><polygon fill="none" points="819.5202,193.9498,836.4831,181.2508,831.1418,201.7562,819.5202,193.9498" style="stroke: #A80036; stroke-width: 1.0;"/><!--link sg.edu.ntu.scse.cz2002.ui.BaseMenu to sg.edu.ntu.scse.cz2002.ui.MainMenuUI--><path d="M940.7973,198.0441 C960.2416,226.9912 980.6959,257.442 995.3556,279.2662 " fill="none" id="sg.edu.ntu.scse.cz2002.ui.BaseMenu-sg.edu.ntu.scse.cz2002.ui.MainMenuUI" style="stroke: #A80036; stroke-width: 1.0;"/><polygon fill="none" points="934.8582,201.7562,929.5169,181.2508,946.4798,193.9498,934.8582,201.7562" style="stroke: #A80036; stroke-width: 1.0;"/><!--link sg.edu.ntu.scse.cz2002.ui.BaseMenu to sg.edu.ntu.scse.cz2002.ui.StaffMgmtMenuUI--><path d="M990.3042,168.2282 C1030.5526,190.0786 1076.3661,215.8683 1117,241 C1136.3741,252.9827 1157.1992,267.1355 1174.8028,279.4948 " fill="none" id="sg.edu.ntu.scse.cz2002.ui.BaseMenu-sg.edu.ntu.scse.cz2002.ui.StaffMgmtMenuUI" style="stroke: #A80036; stroke-width: 1.0;"/><polygon fill="none" points="986.8164,174.3003,972.5397,158.6422,993.4649,161.9796,986.8164,174.3003" style="stroke: #A80036; stroke-width: 1.0;"/><!--link sg.edu.ntu.scse.cz2002.ui.BaseMenu to sg.edu.ntu.scse.cz2002.ui.OrderMenuUI--><path d="M992.1884,138.0151 C1081.4105,160.7759 1209.9811,197.0344 1318,241 C1340.2609,250.0606 1363.7358,261.707 1384.5684,272.8418 " fill="none" id="sg.edu.ntu.scse.cz2002.ui.BaseMenu-sg.edu.ntu.scse.cz2002.ui.OrderMenuUI" style="stroke: #A80036; stroke-width: 1.0;"/><polygon fill="none" points="990.3259,144.7646,972.6458,133.085,993.7505,131.1899,990.3259,144.7646" style="stroke: #A80036; stroke-width: 1.0;"/><text fill="#888888" font-family="sans-serif" font-size="10" lengthAdjust="spacingAndGlyphs" textLength="182" x="707.5" y="414.502">UMLDoclet 1.1.3, PlantUML 1.2018.12</text><!--
@startuml

    namespace sg.edu.ntu.scse.cz2002.ui {

        class ReservationMenuUI {
            #generateMenuScreen(): int
        }

        class FoodMenuUI {
            #generateMenuScreen(): int
            +printMenu(): void
            +addNewMenuItem(String, String, String, double): void
            +editMenuItem(int, String, String, String, double): void
            +deleteMenuItem(int): void
            {static} +retrieveMenuItem(int): MenuItem
            {static} +retrieveMenuItemListFiltered(String): ArrayList<MenuItem>
        }

        class PromotionMenuUI {
            #generateMenuScreen(): int
            +printPromotion(): void
            +addNewPromotion(String, double, int, int, int): void
            +editPromotion(int, String, double, int, int, int): void
            +deletePromotion(int): void
            {static} +retrievePromotion(int): Promotion
        }

        class MainMenuUI {
            #generateMenuScreen(): int
        }

        class StaffMgmtMenuUI {
            #generateMenuScreen(): int
        }

        abstract class BaseMenu {
            +startMainMenu(): boolean
            {static} #printHeader(String): void
            {static} #printHeader(String, int): void
            {static} #printBreaks(int): void
            {static} #printBreaks(): void
            {static} #doMenuChoice(int, int): int
            {abstract} #generateMenuScreen(): int
        }

        class OrderMenuUI {
            {static} +incompleteOrders: ArrayList<Order>
            #generateMenuScreen(): int
        }

        BaseMenu <|- - ReservationMenuUI

        BaseMenu <|- - FoodMenuUI

        BaseMenu <|- - PromotionMenuUI

        BaseMenu <|- - MainMenuUI

        BaseMenu <|- - StaffMgmtMenuUI

        BaseMenu <|- - OrderMenuUI

    }


    center footer UMLDoclet 1.1.3, PlantUML 1.2018.12
@enduml

PlantUML version 1.2018.12(Sun Oct 21 10:15:15 GMT 2018)
(APACHE source distribution)
Java Runtime: Java(TM) SE Runtime Environment
JVM: Java HotSpot(TM) 64-Bit Server VM
Java Version: 1.8.0_202-b08
Operating System: Linux
OS Version: 4.19.23-coreos-r1
Default Encoding: UTF-8
Language: en
Country: null
--></g></svg>