<?xml version="1.0" encoding="UTF-8" standalone="no"?><svg xmlns="http://www.w3.org/2000/svg" xmlns:xlink="http://www.w3.org/1999/xlink" contentScriptType="application/ecmascript" contentStyleType="text/css" height="102px" preserveAspectRatio="none" style="width:262px;height:102px;" version="1.1" viewBox="0 0 262 102" width="262px" zoomAndPan="magnify"><defs><filter height="300%" id="frh3h22scryu5" width="300%" x="-1" y="-1"><feGaussianBlur result="blurOut" stdDeviation="2.0"/><feColorMatrix in="blurOut" result="blurOut2" type="matrix" values="0 0 0 0 0 0 0 0 0 0 0 0 0 0 0 0 0 0 .4 0"/><feOffset dx="4.0" dy="4.0" in="blurOut2" result="blurOut3"/><feBlend in="SourceGraphic" in2="blurOut3" mode="normal"/></filter></defs><g><!--class ItemNotFoundException--><a target="_top" xlink:actuate="onRequest" xlink:href="../sg/edu/ntu/scse/cz2002/objects/menuitem/ItemNotFoundException.html" xlink:show="new" xlink:title="../sg/edu/ntu/scse/cz2002/objects/menuitem/ItemNotFoundException.html" xlink:type="simple"><rect fill="#FEFECE" filter="url(#frh3h22scryu5)" height="60.7993" id="ItemNotFoundException" style="stroke: #A80036; stroke-width: 1.5;" width="245" x="6" y="8"/><ellipse cx="56.25" cy="24" fill="#ADD1B2" rx="11" ry="11" style="stroke: #A80036; stroke-width: 1.0;"/><path d="M60.0781,29.6563 Q58.2031,30.3125 56.3906,30.3125 Q53.7969,30.3125 52.2109,28.5313 Q50.625,26.75 50.625,23.8438 Q50.625,21.1563 52.0313,19.3906 Q52.8906,18.3125 54.0078,17.8594 Q55.125,17.4063 56.9063,17.4063 Q58.625,17.4063 60.0781,17.7656 L60.0781,19.75 Q58.2031,19.0469 56.9531,19.0469 Q55.2656,19.0469 54.2734,20.3672 Q53.2813,21.6875 53.2813,23.9219 Q53.2813,25.9688 54.3203,27.2656 Q55.3594,28.5625 57,28.5625 Q58.3906,28.5625 60.0781,27.7813 L60.0781,29.6563 Z "/><text fill="#000000" font-family="sans-serif" font-size="12" lengthAdjust="spacingAndGlyphs" textLength="136" x="76.75" y="28.4209">ItemNotFoundException</text><line style="stroke: #A80036; stroke-width: 1.5;" x1="7" x2="250" y1="40" y2="40"/><line style="stroke: #A80036; stroke-width: 1.5;" x1="7" x2="250" y1="48" y2="48"/><ellipse cx="17" cy="59.8997" fill="#84BE84" rx="3" ry="3" style="stroke: #038048; stroke-width: 1.0;"/><text fill="#000000" font-family="sans-serif" font-size="11" lengthAdjust="spacingAndGlyphs" textLength="219" x="26" y="62.4521">ItemNotFoundException(message:String)</text></a><text fill="#888888" font-family="sans-serif" font-size="10" lengthAdjust="spacingAndGlyphs" textLength="182" x="43.5" y="88.502">UMLDoclet 1.1.3, PlantUML 1.2018.12</text><!--
@startuml

    class ItemNotFoundException [[../sg/edu/ntu/scse/cz2002/objects/menuitem/ItemNotFoundException.html]] {
        +ItemNotFoundException(message:String)
    }


    center footer UMLDoclet 1.1.3, PlantUML 1.2018.12
@enduml

PlantUML version 1.2018.12(Sun Oct 21 10:15:15 GMT 2018)
(APACHE source distribution)
Java Runtime: Java(TM) SE Runtime Environment
JVM: Java HotSpot(TM) 64-Bit Server VM
Java Version: 1.8.0_202-b08
Operating System: Linux
OS Version: 4.19.23-coreos-r1
Default Encoding: UTF-8
Language: en
Country: null
--></g></svg>