<?xml version="1.0" encoding="UTF-8" standalone="no"?><svg xmlns="http://www.w3.org/2000/svg" xmlns:xlink="http://www.w3.org/1999/xlink" contentScriptType="application/ecmascript" contentStyleType="text/css" height="166px" preserveAspectRatio="none" style="width:313px;height:166px;" version="1.1" viewBox="0 0 313 166" width="313px" zoomAndPan="magnify"><defs><filter height="300%" id="fr3wr20xjlqm5" width="300%" x="-1" y="-1"><feGaussianBlur result="blurOut" stdDeviation="2.0"/><feColorMatrix in="blurOut" result="blurOut2" type="matrix" values="0 0 0 0 0 0 0 0 0 0 0 0 0 0 0 0 0 0 .4 0"/><feOffset dx="4.0" dy="4.0" in="blurOut2" result="blurOut3"/><feBlend in="SourceGraphic" in2="blurOut3" mode="normal"/></filter></defs><g><!--class PromotionMenuUI--><rect fill="#FEFECE" filter="url(#fr3wr20xjlqm5)" height="124.7959" id="PromotionMenuUI" style="stroke: #A80036; stroke-width: 1.5;" width="296" x="6" y="8"/><ellipse cx="99.75" cy="24" fill="#ADD1B2" rx="11" ry="11" style="stroke: #A80036; stroke-width: 1.0;"/><path d="M103.5781,29.6563 Q101.7031,30.3125 99.8906,30.3125 Q97.2969,30.3125 95.7109,28.5313 Q94.125,26.75 94.125,23.8438 Q94.125,21.1563 95.5313,19.3906 Q96.3906,18.3125 97.5078,17.8594 Q98.625,17.4063 100.4063,17.4063 Q102.125,17.4063 103.5781,17.7656 L103.5781,19.75 Q101.7031,19.0469 100.4531,19.0469 Q98.7656,19.0469 97.7734,20.3672 Q96.7813,21.6875 96.7813,23.9219 Q96.7813,25.9688 97.8203,27.2656 Q98.8594,28.5625 100.5,28.5625 Q101.8906,28.5625 103.5781,27.7813 L103.5781,29.6563 Z "/><text fill="#000000" font-family="sans-serif" font-size="12" lengthAdjust="spacingAndGlyphs" textLength="100" x="120.25" y="28.4209">PromotionMenuUI</text><line style="stroke: #A80036; stroke-width: 1.5;" x1="7" x2="301" y1="40" y2="40"/><line style="stroke: #A80036; stroke-width: 1.5;" x1="7" x2="301" y1="48" y2="48"/><polygon fill="#FFFF44" points="17,54.8997,21,58.8997,17,62.8997,13,58.8997" style="stroke: #B38D22; stroke-width: 1.0;"/><text fill="#000000" font-family="sans-serif" font-size="11" lengthAdjust="spacingAndGlyphs" textLength="140" x="26" y="62.4521">generateMenuScreen(): int</text><ellipse cx="17" cy="72.699" fill="#84BE84" rx="3" ry="3" style="stroke: #038048; stroke-width: 1.0;"/><text fill="#000000" font-family="sans-serif" font-size="11" lengthAdjust="spacingAndGlyphs" textLength="119" x="26" y="75.2515">printPromotion(): void</text><ellipse cx="17" cy="85.4983" fill="#84BE84" rx="3" ry="3" style="stroke: #038048; stroke-width: 1.0;"/><text fill="#000000" font-family="sans-serif" font-size="11" lengthAdjust="spacingAndGlyphs" textLength="270" x="26" y="88.0508">addNewPromotion(String, double, int, int, int): void</text><ellipse cx="17" cy="98.2976" fill="#84BE84" rx="3" ry="3" style="stroke: #038048; stroke-width: 1.0;"/><text fill="#000000" font-family="sans-serif" font-size="11" lengthAdjust="spacingAndGlyphs" textLength="268" x="26" y="100.8501">editPromotion(int, String, double, int, int, int): void</text><ellipse cx="17" cy="111.0969" fill="#84BE84" rx="3" ry="3" style="stroke: #038048; stroke-width: 1.0;"/><text fill="#000000" font-family="sans-serif" font-size="11" lengthAdjust="spacingAndGlyphs" textLength="139" x="26" y="113.6494">deletePromotion(int): void</text><ellipse cx="17" cy="123.8962" fill="#84BE84" rx="3" ry="3" style="stroke: #038048; stroke-width: 1.0;"/><text fill="#000000" font-family="sans-serif" font-size="11" lengthAdjust="spacingAndGlyphs" text-decoration="underline" textLength="181" x="26" y="126.4487">retrievePromotion(int): Promotion</text><line style="stroke: #000000; stroke-width: 1.0;" x1="26" x2="207" y1="128.4487" y2="128.4487"/><text fill="#888888" font-family="sans-serif" font-size="10" lengthAdjust="spacingAndGlyphs" textLength="182" x="69" y="152.502">UMLDoclet 1.1.3, PlantUML 1.2018.12</text><!--
@startuml

    class PromotionMenuUI {
        #generateMenuScreen(): int
        +printPromotion(): void
        +addNewPromotion(String, double, int, int, int): void
        +editPromotion(int, String, double, int, int, int): void
        +deletePromotion(int): void
        {static} +retrievePromotion(int): Promotion
    }


    center footer UMLDoclet 1.1.3, PlantUML 1.2018.12
@enduml

PlantUML version 1.2018.12(Sun Oct 21 10:15:15 GMT 2018)
(APACHE source distribution)
Java Runtime: Java(TM) SE Runtime Environment
JVM: Java HotSpot(TM) 64-Bit Server VM
Java Version: 1.8.0_202-b08
Operating System: Linux
OS Version: 4.19.23-coreos-r1
Default Encoding: UTF-8
Language: en
Country: null
--></g></svg>