<?xml version="1.0" encoding="UTF-8" standalone="no"?><svg xmlns="http://www.w3.org/2000/svg" xmlns:xlink="http://www.w3.org/1999/xlink" contentScriptType="application/ecmascript" contentStyleType="text/css" height="1011px" preserveAspectRatio="none" style="width:1155px;height:1011px;" version="1.1" viewBox="0 0 1155 1011" width="1155px" zoomAndPan="magnify"><defs><filter height="300%" id="f1928o6k7giier" width="300%" x="-1" y="-1"><feGaussianBlur result="blurOut" stdDeviation="2.0"/><feColorMatrix in="blurOut" result="blurOut2" type="matrix" values="0 0 0 0 0 0 0 0 0 0 0 0 0 0 0 0 0 0 .4 0"/><feOffset dx="4.0" dy="4.0" in="blurOut2" result="blurOut3"/><feBlend in="SourceGraphic" in2="blurOut3" mode="normal"/></filter></defs><g><!--cluster sg.edu.ntu.scse.cz2002.objects.restaurantItem--><polygon fill="#FFFFFF" filter="url(#f1928o6k7giier)" points="14,143,346,143,353,165.29,1133,165.29,1133,970,14,970,14,143" style="stroke: #000000; stroke-width: 1.5;"/><line style="stroke: #000000; stroke-width: 1.5;" x1="14" x2="353" y1="165.29" y2="165.29"/><text fill="#000000" font-family="sans-serif" font-size="14" font-weight="bold" lengthAdjust="spacingAndGlyphs" textLength="326" x="18" y="158.3369">sg.edu.ntu.scse.cz2002.objects.restaurantItem</text><!--cluster sg.edu.ntu.scse.cz2002.util--><polygon fill="#FFFFFF" filter="url(#f1928o6k7giier)" points="166,16,361,16,368,38.29,371,38.29,371,112,166,112,166,16" style="stroke: #000000; stroke-width: 1.5;"/><line style="stroke: #000000; stroke-width: 1.5;" x1="166" x2="368" y1="38.29" y2="38.29"/><text fill="#000000" font-family="sans-serif" font-size="14" font-weight="bold" lengthAdjust="spacingAndGlyphs" textLength="189" x="170" y="31.3369">sg.edu.ntu.scse.cz2002.util</text><!--cluster java.lang--><polygon fill="#FFFFFF" filter="url(#f1928o6k7giier)" points="950,22.5,1019,22.5,1026,44.79,1054,44.79,1054,105.5,950,105.5,950,22.5" style="stroke: #000000; stroke-width: 1.5;"/><line style="stroke: #000000; stroke-width: 1.5;" x1="950" x2="1026" y1="44.79" y2="44.79"/><text fill="#000000" font-family="sans-serif" font-size="14" font-weight="bold" lengthAdjust="spacingAndGlyphs" textLength="63" x="954" y="37.8369">java.lang</text><!--class sg.edu.ntu.scse.cz2002.objects.restaurantItem.MenuItem--><a target="_top" xlink:actuate="onRequest" xlink:href="../sg/edu/ntu/scse/cz2002/objects/restaurantItem/MenuItem.html" xlink:show="new" xlink:title="../sg/edu/ntu/scse/cz2002/objects/restaurantItem/MenuItem.html" xlink:type="simple"><rect fill="#FEFECE" filter="url(#f1928o6k7giier)" height="163.1938" id="sg.edu.ntu.scse.cz2002.objects.restaurantItem.MenuItem" style="stroke: #A80036; stroke-width: 1.5;" width="404" x="22" y="520.5"/><ellipse cx="191.75" cy="536.5" fill="#ADD1B2" rx="11" ry="11" style="stroke: #A80036; stroke-width: 1.0;"/><path d="M195.5781,542.1563 Q193.7031,542.8125 191.8906,542.8125 Q189.2969,542.8125 187.7109,541.0313 Q186.125,539.25 186.125,536.3438 Q186.125,533.6563 187.5313,531.8906 Q188.3906,530.8125 189.5078,530.3594 Q190.625,529.9063 192.4063,529.9063 Q194.125,529.9063 195.5781,530.2656 L195.5781,532.25 Q193.7031,531.5469 192.4531,531.5469 Q190.7656,531.5469 189.7734,532.8672 Q188.7813,534.1875 188.7813,536.4219 Q188.7813,538.4688 189.8203,539.7656 Q190.8594,541.0625 192.5,541.0625 Q193.8906,541.0625 195.5781,540.2813 L195.5781,542.1563 Z "/><text fill="#000000" font-family="sans-serif" font-size="12" lengthAdjust="spacingAndGlyphs" textLength="56" x="212.25" y="540.9209">MenuItem</text><line style="stroke: #A80036; stroke-width: 1.5;" x1="23" x2="425" y1="552.5" y2="552.5"/><polygon fill="none" points="33,559.3997,37,563.3997,33,567.3997,29,563.3997" style="stroke: #B38D22; stroke-width: 1.0;"/><text fill="#000000" font-family="sans-serif" font-size="11" lengthAdjust="spacingAndGlyphs" textLength="99" x="42" y="566.9521">description: String</text><line style="stroke: #A80036; stroke-width: 1.5;" x1="23" x2="425" y1="573.2993" y2="573.2993"/><ellipse cx="33" cy="585.199" fill="#84BE84" rx="3" ry="3" style="stroke: #038048; stroke-width: 1.0;"/><text fill="#000000" font-family="sans-serif" font-size="11" lengthAdjust="spacingAndGlyphs" textLength="378" x="42" y="587.7515">MenuItem(id:int, name:String, type:int, description:String, price:double)</text><ellipse cx="33" cy="597.9983" fill="#84BE84" rx="3" ry="3" style="stroke: #038048; stroke-width: 1.0;"/><text fill="#000000" font-family="sans-serif" font-size="11" lengthAdjust="spacingAndGlyphs" textLength="121" x="42" y="600.5508">MenuItem(csv:String[])</text><ellipse cx="33" cy="610.7976" fill="#84BE84" rx="3" ry="3" style="stroke: #038048; stroke-width: 1.0;"/><text fill="#000000" font-family="sans-serif" font-size="11" lengthAdjust="spacingAndGlyphs" textLength="85" x="42" y="613.3501">toCsv(): String[]</text><ellipse cx="33" cy="623.5969" fill="#84BE84" rx="3" ry="3" style="stroke: #038048; stroke-width: 1.0;"/><text fill="#000000" font-family="sans-serif" font-size="11" lengthAdjust="spacingAndGlyphs" textLength="119" x="42" y="626.1494">setType(type:int): void</text><ellipse cx="33" cy="636.3962" fill="#84BE84" rx="3" ry="3" style="stroke: #038048; stroke-width: 1.0;"/><text fill="#000000" font-family="sans-serif" font-size="11" lengthAdjust="spacingAndGlyphs" textLength="291" x="42" y="638.9487">convertToItemType(type:int): MenuItem.MenuItemType</text><ellipse cx="33" cy="649.1956" fill="#84BE84" rx="3" ry="3" style="stroke: #038048; stroke-width: 1.0;"/><text fill="#000000" font-family="sans-serif" font-size="11" lengthAdjust="spacingAndGlyphs" textLength="125" x="42" y="651.748">getDescription(): String</text><ellipse cx="33" cy="661.9949" fill="#84BE84" rx="3" ry="3" style="stroke: #038048; stroke-width: 1.0;"/><text fill="#000000" font-family="sans-serif" font-size="11" lengthAdjust="spacingAndGlyphs" textLength="211" x="42" y="664.5474">setDescription(description:String): void</text><ellipse cx="33" cy="674.7942" fill="#84BE84" rx="3" ry="3" style="stroke: #038048; stroke-width: 1.0;"/><text fill="#000000" font-family="sans-serif" font-size="11" lengthAdjust="spacingAndGlyphs" textLength="125" x="42" y="677.3467">printItemDetail(): String</text></a><!--class sg.edu.ntu.scse.cz2002.objects.restaurantItem.MenuItem.MenuItemType--><a target="_top" xlink:actuate="onRequest" xlink:href="../sg/edu/ntu/scse/cz2002/objects/restaurantItem/MenuItem.MenuItemType.html" xlink:show="new" xlink:title="../sg/edu/ntu/scse/cz2002/objects/restaurantItem/MenuItem.MenuItemType.html" xlink:type="simple"><rect fill="#FEFECE" filter="url(#f1928o6k7giier)" height="99.1973" id="sg.edu.ntu.scse.cz2002.objects.restaurantItem.MenuItem.MenuItemType" style="stroke: #A80036; stroke-width: 1.5;" width="177" x="135.5" y="863"/><ellipse cx="150.5" cy="879" fill="#EB937F" rx="11" ry="11" style="stroke: #A80036; stroke-width: 1.0;"/><path d="M146.8906,885 L146.8906,872.7188 L154.5781,872.7188 L154.5781,874.3438 L149.3594,874.3438 L149.3594,877.8281 L153.7656,877.8281 L153.7656,879.3594 L149.3594,879.3594 L149.3594,883.3594 L155.0156,883.3594 L155.0156,885 L146.8906,885 Z "/><text fill="#000000" font-family="sans-serif" font-size="12" lengthAdjust="spacingAndGlyphs" textLength="145" x="164.5" y="883.4209">MenuItem.MenuItemType</text><line style="stroke: #A80036; stroke-width: 1.5;" x1="136.5" x2="311.5" y1="895" y2="895"/><ellipse cx="146.5" cy="906.8997" fill="none" rx="3" ry="3" style="stroke: #038048; stroke-width: 1.0;"/><text fill="#000000" font-family="sans-serif" font-size="11" lengthAdjust="spacingAndGlyphs" text-decoration="underline" textLength="21" x="155.5" y="909.4521">TBA</text><line style="stroke: #000000; stroke-width: 1.0;" x1="155.5" x2="176.5" y1="911.4521" y2="911.4521"/><ellipse cx="146.5" cy="919.699" fill="none" rx="3" ry="3" style="stroke: #038048; stroke-width: 1.0;"/><text fill="#000000" font-family="sans-serif" font-size="11" lengthAdjust="spacingAndGlyphs" text-decoration="underline" textLength="28" x="155.5" y="922.2515">MAIN</text><line style="stroke: #000000; stroke-width: 1.0;" x1="155.5" x2="183.5" y1="924.2515" y2="924.2515"/><ellipse cx="146.5" cy="932.4983" fill="none" rx="3" ry="3" style="stroke: #038048; stroke-width: 1.0;"/><text fill="#000000" font-family="sans-serif" font-size="11" lengthAdjust="spacingAndGlyphs" text-decoration="underline" textLength="46" x="155.5" y="935.0508">DESSERT</text><line style="stroke: #000000; stroke-width: 1.0;" x1="155.5" x2="201.5" y1="937.0508" y2="937.0508"/><ellipse cx="146.5" cy="945.2976" fill="none" rx="3" ry="3" style="stroke: #038048; stroke-width: 1.0;"/><text fill="#000000" font-family="sans-serif" font-size="11" lengthAdjust="spacingAndGlyphs" text-decoration="underline" textLength="33" x="155.5" y="947.8501">DRINK</text><line style="stroke: #000000; stroke-width: 1.0;" x1="155.5" x2="188.5" y1="949.8501" y2="949.8501"/><line style="stroke: #A80036; stroke-width: 1.5;" x1="136.5" x2="311.5" y1="954.1973" y2="954.1973"/></a><!--class sg.edu.ntu.scse.cz2002.objects.restaurantItem.ItemNotFoundException--><a target="_top" xlink:actuate="onRequest" xlink:href="../sg/edu/ntu/scse/cz2002/objects/restaurantItem/ItemNotFoundException.html" xlink:show="new" xlink:title="../sg/edu/ntu/scse/cz2002/objects/restaurantItem/ItemNotFoundException.html" xlink:type="simple"><rect fill="#FEFECE" filter="url(#f1928o6k7giier)" height="60.7993" id="sg.edu.ntu.scse.cz2002.objects.restaurantItem.ItemNotFoundException" style="stroke: #A80036; stroke-width: 1.5;" width="245" x="879.5" y="240.5"/><ellipse cx="929.75" cy="256.5" fill="#ADD1B2" rx="11" ry="11" style="stroke: #A80036; stroke-width: 1.0;"/><path d="M933.5781,262.1563 Q931.7031,262.8125 929.8906,262.8125 Q927.2969,262.8125 925.7109,261.0313 Q924.125,259.25 924.125,256.3438 Q924.125,253.6563 925.5313,251.8906 Q926.3906,250.8125 927.5078,250.3594 Q928.625,249.9063 930.4063,249.9063 Q932.125,249.9063 933.5781,250.2656 L933.5781,252.25 Q931.7031,251.5469 930.4531,251.5469 Q928.7656,251.5469 927.7734,252.8672 Q926.7813,254.1875 926.7813,256.4219 Q926.7813,258.4688 927.8203,259.7656 Q928.8594,261.0625 930.5,261.0625 Q931.8906,261.0625 933.5781,260.2813 L933.5781,262.1563 Z "/><text fill="#000000" font-family="sans-serif" font-size="12" lengthAdjust="spacingAndGlyphs" textLength="136" x="950.25" y="260.9209">ItemNotFoundException</text><line style="stroke: #A80036; stroke-width: 1.5;" x1="880.5" x2="1123.5" y1="272.5" y2="272.5"/><line style="stroke: #A80036; stroke-width: 1.5;" x1="880.5" x2="1123.5" y1="280.5" y2="280.5"/><ellipse cx="890.5" cy="292.3997" fill="#84BE84" rx="3" ry="3" style="stroke: #038048; stroke-width: 1.0;"/><text fill="#000000" font-family="sans-serif" font-size="11" lengthAdjust="spacingAndGlyphs" textLength="219" x="899.5" y="294.9521">ItemNotFoundException(message:String)</text></a><!--class sg.edu.ntu.scse.cz2002.objects.restaurantItem.PromotionItem--><a target="_top" xlink:actuate="onRequest" xlink:href="../sg/edu/ntu/scse/cz2002/objects/restaurantItem/PromotionItem.html" xlink:show="new" xlink:title="../sg/edu/ntu/scse/cz2002/objects/restaurantItem/PromotionItem.html" xlink:type="simple"><rect fill="#FEFECE" filter="url(#f1928o6k7giier)" height="214.3911" id="sg.edu.ntu.scse.cz2002.objects.restaurantItem.PromotionItem" style="stroke: #A80036; stroke-width: 1.5;" width="664" x="461" y="495"/><ellipse cx="747.25" cy="511" fill="#ADD1B2" rx="11" ry="11" style="stroke: #A80036; stroke-width: 1.0;"/><path d="M751.0781,516.6563 Q749.2031,517.3125 747.3906,517.3125 Q744.7969,517.3125 743.2109,515.5313 Q741.625,513.75 741.625,510.8438 Q741.625,508.1563 743.0313,506.3906 Q743.8906,505.3125 745.0078,504.8594 Q746.125,504.4063 747.9063,504.4063 Q749.625,504.4063 751.0781,504.7656 L751.0781,506.75 Q749.2031,506.0469 747.9531,506.0469 Q746.2656,506.0469 745.2734,507.3672 Q744.2813,508.6875 744.2813,510.9219 Q744.2813,512.9688 745.3203,514.2656 Q746.3594,515.5625 748,515.5625 Q749.3906,515.5625 751.0781,514.7813 L751.0781,516.6563 Z "/><text fill="#000000" font-family="sans-serif" font-size="12" lengthAdjust="spacingAndGlyphs" textLength="83" x="767.75" y="515.4209">PromotionItem</text><line style="stroke: #A80036; stroke-width: 1.5;" x1="462" x2="1124" y1="527" y2="527"/><polygon fill="none" points="472,533.8997,476,537.8997,472,541.8997,468,537.8997" style="stroke: #B38D22; stroke-width: 1.0;"/><text fill="#000000" font-family="sans-serif" font-size="11" lengthAdjust="spacingAndGlyphs" textLength="81" x="481" y="541.4521">promoMain: int</text><polygon fill="none" points="472,546.699,476,550.699,472,554.699,468,550.699" style="stroke: #B38D22; stroke-width: 1.0;"/><text fill="#000000" font-family="sans-serif" font-size="11" lengthAdjust="spacingAndGlyphs" textLength="97" x="481" y="554.2515">promoDessert: int</text><polygon fill="none" points="472,559.4983,476,563.4983,472,567.4983,468,563.4983" style="stroke: #B38D22; stroke-width: 1.0;"/><text fill="#000000" font-family="sans-serif" font-size="11" lengthAdjust="spacingAndGlyphs" textLength="85" x="481" y="567.0508">promoDrink: int</text><line style="stroke: #A80036; stroke-width: 1.5;" x1="462" x2="1124" y1="573.3979" y2="573.3979"/><ellipse cx="472" cy="585.2976" fill="#84BE84" rx="3" ry="3" style="stroke: #038048; stroke-width: 1.0;"/><text fill="#000000" font-family="sans-serif" font-size="11" lengthAdjust="spacingAndGlyphs" textLength="638" x="481" y="587.8501">PromotionItem(promoID:int, promoName:String, promoPrice:double, promoMain:int, promoDessert:int, promoDrink:int)</text><ellipse cx="472" cy="598.0969" fill="#84BE84" rx="3" ry="3" style="stroke: #038048; stroke-width: 1.0;"/><text fill="#000000" font-family="sans-serif" font-size="11" lengthAdjust="spacingAndGlyphs" textLength="148" x="481" y="600.6494">PromotionItem(csv:String[])</text><ellipse cx="472" cy="610.8962" fill="#84BE84" rx="3" ry="3" style="stroke: #038048; stroke-width: 1.0;"/><text fill="#000000" font-family="sans-serif" font-size="11" lengthAdjust="spacingAndGlyphs" textLength="85" x="481" y="613.4487">toCsv(): String[]</text><ellipse cx="472" cy="623.6956" fill="#84BE84" rx="3" ry="3" style="stroke: #038048; stroke-width: 1.0;"/><text fill="#000000" font-family="sans-serif" font-size="11" lengthAdjust="spacingAndGlyphs" textLength="105" x="481" y="626.248">getPromoMain(): int</text><ellipse cx="472" cy="636.4949" fill="#84BE84" rx="3" ry="3" style="stroke: #038048; stroke-width: 1.0;"/><text fill="#000000" font-family="sans-serif" font-size="11" lengthAdjust="spacingAndGlyphs" textLength="191" x="481" y="639.0474">setPromoMain(promoMain:int): void</text><ellipse cx="472" cy="649.2942" fill="#84BE84" rx="3" ry="3" style="stroke: #038048; stroke-width: 1.0;"/><text fill="#000000" font-family="sans-serif" font-size="11" lengthAdjust="spacingAndGlyphs" textLength="121" x="481" y="651.8467">getPromoDessert(): int</text><ellipse cx="472" cy="662.0935" fill="#84BE84" rx="3" ry="3" style="stroke: #038048; stroke-width: 1.0;"/><text fill="#000000" font-family="sans-serif" font-size="11" lengthAdjust="spacingAndGlyphs" textLength="223" x="481" y="664.646">setPromoDessert(promoDessert:int): void</text><ellipse cx="472" cy="674.8928" fill="#84BE84" rx="3" ry="3" style="stroke: #038048; stroke-width: 1.0;"/><text fill="#000000" font-family="sans-serif" font-size="11" lengthAdjust="spacingAndGlyphs" textLength="109" x="481" y="677.4453">getPromoDrink(): int</text><ellipse cx="472" cy="687.6921" fill="#84BE84" rx="3" ry="3" style="stroke: #038048; stroke-width: 1.0;"/><text fill="#000000" font-family="sans-serif" font-size="11" lengthAdjust="spacingAndGlyphs" textLength="199" x="481" y="690.2446">setPromoDrink(promoDrink:int): void</text><ellipse cx="472" cy="700.4915" fill="#84BE84" rx="3" ry="3" style="stroke: #038048; stroke-width: 1.0;"/><text fill="#000000" font-family="sans-serif" font-size="11" lengthAdjust="spacingAndGlyphs" textLength="158" x="481" y="703.0439">printPromotionDetail(): String</text></a><!--class sg.edu.ntu.scse.cz2002.objects.restaurantItem.RestaurantItem--><a target="_top" xlink:actuate="onRequest" xlink:href="../sg/edu/ntu/scse/cz2002/objects/restaurantItem/RestaurantItem.html" xlink:show="new" xlink:title="../sg/edu/ntu/scse/cz2002/objects/restaurantItem/RestaurantItem.html" xlink:type="simple"><rect fill="#FEFECE" filter="url(#f1928o6k7giier)" height="201.5918" id="sg.edu.ntu.scse.cz2002.objects.restaurantItem.RestaurantItem" style="stroke: #A80036; stroke-width: 1.5;" width="523" x="321.5" y="170"/><ellipse cx="535.25" cy="186" fill="#ADD1B2" rx="11" ry="11" style="stroke: #A80036; stroke-width: 1.0;"/><path d="M539.0781,191.6563 Q537.2031,192.3125 535.3906,192.3125 Q532.7969,192.3125 531.2109,190.5313 Q529.625,188.75 529.625,185.8438 Q529.625,183.1563 531.0313,181.3906 Q531.8906,180.3125 533.0078,179.8594 Q534.125,179.4063 535.9063,179.4063 Q537.625,179.4063 539.0781,179.7656 L539.0781,181.75 Q537.2031,181.0469 535.9531,181.0469 Q534.2656,181.0469 533.2734,182.3672 Q532.2813,183.6875 532.2813,185.9219 Q532.2813,187.9688 533.3203,189.2656 Q534.3594,190.5625 536,190.5625 Q537.3906,190.5625 539.0781,189.7813 L539.0781,191.6563 Z "/><text fill="#000000" font-family="sans-serif" font-size="12" lengthAdjust="spacingAndGlyphs" textLength="87" x="555.75" y="190.4209">RestaurantItem</text><line style="stroke: #A80036; stroke-width: 1.5;" x1="322.5" x2="843.5" y1="202" y2="202"/><polygon fill="none" points="332.5,208.8997,336.5,212.8997,332.5,216.8997,328.5,212.8997" style="stroke: #B38D22; stroke-width: 1.0;"/><text fill="#000000" font-family="sans-serif" font-size="11" lengthAdjust="spacingAndGlyphs" textLength="110" x="341.5" y="216.4521">restaurantItemID: int</text><polygon fill="none" points="332.5,221.699,336.5,225.699,332.5,229.699,328.5,225.699" style="stroke: #B38D22; stroke-width: 1.0;"/><text fill="#000000" font-family="sans-serif" font-size="11" lengthAdjust="spacingAndGlyphs" textLength="147" x="341.5" y="229.2515">restaurantItemName: String</text><polygon fill="none" points="332.5,234.4983,336.5,238.4983,332.5,242.4983,328.5,238.4983" style="stroke: #B38D22; stroke-width: 1.0;"/><text fill="#000000" font-family="sans-serif" font-size="11" lengthAdjust="spacingAndGlyphs" textLength="148" x="341.5" y="242.0508">restaurantItemPrice: double</text><line style="stroke: #A80036; stroke-width: 1.5;" x1="322.5" x2="843.5" y1="248.3979" y2="248.3979"/><ellipse cx="332.5" cy="260.2976" fill="#84BE84" rx="3" ry="3" style="stroke: #038048; stroke-width: 1.0;"/><text fill="#000000" font-family="sans-serif" font-size="11" lengthAdjust="spacingAndGlyphs" textLength="497" x="341.5" y="262.8501">RestaurantItem(restaurantItemID:int, restaurantItemName:String, restaurantItemPrice:double)</text><ellipse cx="332.5" cy="273.0969" fill="#84BE84" rx="3" ry="3" style="stroke: #038048; stroke-width: 1.0;"/><text fill="#000000" font-family="sans-serif" font-size="11" lengthAdjust="spacingAndGlyphs" textLength="150" x="341.5" y="275.6494">RestaurantItem(csv:String[])</text><ellipse cx="332.5" cy="285.8962" fill="#84BE84" rx="3" ry="3" style="stroke: #038048; stroke-width: 1.0;"/><text fill="#000000" font-family="sans-serif" font-size="11" lengthAdjust="spacingAndGlyphs" textLength="85" x="341.5" y="288.4487">toCsv(): String[]</text><ellipse cx="332.5" cy="298.6956" fill="#84BE84" rx="3" ry="3" style="stroke: #038048; stroke-width: 1.0;"/><text fill="#000000" font-family="sans-serif" font-size="11" lengthAdjust="spacingAndGlyphs" textLength="55" x="341.5" y="301.248">getId(): int</text><ellipse cx="332.5" cy="311.4949" fill="#84BE84" rx="3" ry="3" style="stroke: #038048; stroke-width: 1.0;"/><text fill="#000000" font-family="sans-serif" font-size="11" lengthAdjust="spacingAndGlyphs" textLength="170" x="341.5" y="314.0474">setId(restaurantItemID:int): void</text><ellipse cx="332.5" cy="324.2942" fill="#84BE84" rx="3" ry="3" style="stroke: #038048; stroke-width: 1.0;"/><text fill="#000000" font-family="sans-serif" font-size="11" lengthAdjust="spacingAndGlyphs" textLength="93" x="341.5" y="326.8467">getName(): String</text><ellipse cx="332.5" cy="337.0935" fill="#84BE84" rx="3" ry="3" style="stroke: #038048; stroke-width: 1.0;"/><text fill="#000000" font-family="sans-serif" font-size="11" lengthAdjust="spacingAndGlyphs" textLength="227" x="341.5" y="339.646">setName(restaurantItemName:String): void</text><ellipse cx="332.5" cy="349.8928" fill="#84BE84" rx="3" ry="3" style="stroke: #038048; stroke-width: 1.0;"/><text fill="#000000" font-family="sans-serif" font-size="11" lengthAdjust="spacingAndGlyphs" textLength="94" x="341.5" y="352.4453">getPrice(): double</text><ellipse cx="332.5" cy="362.6921" fill="#84BE84" rx="3" ry="3" style="stroke: #038048; stroke-width: 1.0;"/><text fill="#000000" font-family="sans-serif" font-size="11" lengthAdjust="spacingAndGlyphs" textLength="224" x="341.5" y="365.2446">setPrice(restaurantItemPrice:double): void</text></a><!--class sg.edu.ntu.scse.cz2002.util.ICsvSerializable--><rect fill="#FEFECE" filter="url(#f1928o6k7giier)" height="60.7993" id="sg.edu.ntu.scse.cz2002.util.ICsvSerializable" style="stroke: #A80036; stroke-width: 1.5;" width="121" x="207.5" y="43"/><ellipse cx="222.5" cy="59" fill="#B4A7E5" rx="11" ry="11" style="stroke: #A80036; stroke-width: 1.0;"/><path d="M218.5156,65 L218.5156,63.3594 L221.3906,63.3594 L221.3906,54.3438 L218.5156,54.3438 L218.5156,52.7188 L226.7188,52.7188 L226.7188,54.3438 L223.8438,54.3438 L223.8438,63.3594 L226.7188,63.3594 L226.7188,65 L218.5156,65 Z "/><text fill="#000000" font-family="sans-serif" font-size="12" font-style="italic" lengthAdjust="spacingAndGlyphs" textLength="89" x="236.5" y="63.4209">ICsvSerializable</text><line style="stroke: #A80036; stroke-width: 1.5;" x1="208.5" x2="327.5" y1="75" y2="75"/><line style="stroke: #A80036; stroke-width: 1.5;" x1="208.5" x2="327.5" y1="83" y2="83"/><ellipse cx="218.5" cy="94.8997" fill="#84BE84" rx="3" ry="3" style="stroke: #038048; stroke-width: 1.0;"/><text fill="#000000" font-family="sans-serif" font-size="11" font-style="italic" lengthAdjust="spacingAndGlyphs" textLength="85" x="227.5" y="97.4521">toCsv(): String[]</text><!--class java.lang.Exception--><rect fill="#FEFECE" filter="url(#f1928o6k7giier)" height="48" id="java.lang.Exception" style="stroke: #A80036; stroke-width: 1.5;" width="88" x="958" y="49.5"/><ellipse cx="973" cy="65.5" fill="#ADD1B2" rx="11" ry="11" style="stroke: #A80036; stroke-width: 1.0;"/><path d="M976.8281,71.1563 Q974.9531,71.8125 973.1406,71.8125 Q970.5469,71.8125 968.9609,70.0313 Q967.375,68.25 967.375,65.3438 Q967.375,62.6563 968.7813,60.8906 Q969.6406,59.8125 970.7578,59.3594 Q971.875,58.9063 973.6563,58.9063 Q975.375,58.9063 976.8281,59.2656 L976.8281,61.25 Q974.9531,60.5469 973.7031,60.5469 Q972.0156,60.5469 971.0234,61.8672 Q970.0313,63.1875 970.0313,65.4219 Q970.0313,67.4688 971.0703,68.7656 Q972.1094,70.0625 973.75,70.0625 Q975.1406,70.0625 976.8281,69.2813 L976.8281,71.1563 Z "/><text fill="#000000" font-family="sans-serif" font-size="12" lengthAdjust="spacingAndGlyphs" textLength="56" x="987" y="69.9209">Exception</text><line style="stroke: #A80036; stroke-width: 1.5;" x1="959" x2="1045" y1="81.5" y2="81.5"/><line style="stroke: #A80036; stroke-width: 1.5;" x1="959" x2="1045" y1="89.5" y2="89.5"/><!--link sg.edu.ntu.scse.cz2002.objects.restaurantItem.RestaurantItem to sg.edu.ntu.scse.cz2002.objects.restaurantItem.MenuItem--><path d="M458.6163,385.6825 C410.5204,430.0272 356.578,479.7624 312.5544,520.3523 " fill="none" id="sg.edu.ntu.scse.cz2002.objects.restaurantItem.RestaurantItem-sg.edu.ntu.scse.cz2002.objects.restaurantItem.MenuItem" style="stroke: #A80036; stroke-width: 1.0;"/><polygon fill="none" points="453.8885,380.5202,473.3375,372.1095,463.3785,390.813,453.8885,380.5202" style="stroke: #A80036; stroke-width: 1.0;"/><!--link sg.edu.ntu.scse.cz2002.util.ICsvSerializable to sg.edu.ntu.scse.cz2002.objects.restaurantItem.MenuItem--><path d="M245.0058,123.088 C243.8386,126.7321 242.8147,130.3932 242,134 C212.0354,266.6488 213.5408,425.7285 218.186,520.0853 " fill="none" id="sg.edu.ntu.scse.cz2002.util.ICsvSerializable-sg.edu.ntu.scse.cz2002.objects.restaurantItem.MenuItem" style="stroke: #A80036; stroke-width: 1.0; stroke-dasharray: 7.0,7.0;"/><polygon fill="none" points="238.5598,120.3463,252.2408,104.1651,251.6366,125.3462,238.5598,120.3463" style="stroke: #A80036; stroke-width: 1.0;"/><!--link sg.edu.ntu.scse.cz2002.objects.restaurantItem.MenuItem to sg.edu.ntu.scse.cz2002.objects.restaurantItem.MenuItem.MenuItemType--><path d="M217.1512,698.9518 C215.6304,731.6799 214.7861,768.423 216,802 C216.7192,821.8944 218.1645,843.7642 219.6313,862.7603 " fill="none" id="sg.edu.ntu.scse.cz2002.objects.restaurantItem.MenuItem-sg.edu.ntu.scse.cz2002.objects.restaurantItem.MenuItem.MenuItemType" style="stroke: #A80036; stroke-width: 1.0;"/><ellipse cx="217.516" cy="691.7227" fill="#FFFFFF" rx="8" ry="8" style="stroke: #A80036; stroke-width: 1.0;"/><line style="stroke: #A80036; stroke-width: 1.0;" x1="217.1128" x2="217.9192" y1="699.7126" y2="683.7329"/><line style="stroke: #A80036; stroke-width: 1.0;" x1="209.5262" x2="225.5058" y1="691.3195" y2="692.1259"/><!--link sg.edu.ntu.scse.cz2002.objects.restaurantItem.MenuItem to sg.edu.ntu.scse.cz2002.objects.restaurantItem.MenuItem.MenuItemType--><path d="M225.5495,683.5175 C226.1775,727.7467 226.6241,783.3732 226,833 C225.8994,841.0028 225.7417,849.4577 225.5581,857.7495 " fill="none" id="sg.edu.ntu.scse.cz2002.objects.restaurantItem.MenuItem-sg.edu.ntu.scse.cz2002.objects.restaurantItem.MenuItem.MenuItemType" style="stroke: #A80036; stroke-width: 1.0;"/><polygon fill="#A80036" points="225.4407,862.8858,229.6454,853.9796,225.555,857.8871,221.6475,853.7967,225.4407,862.8858" style="stroke: #A80036; stroke-width: 1.0;"/><text fill="#000000" font-family="sans-serif" font-size="13" lengthAdjust="spacingAndGlyphs" textLength="37" x="227" y="783.3525">eType</text><text fill="#000000" font-family="sans-serif" font-size="13" lengthAdjust="spacingAndGlyphs" textLength="27" x="232" y="798.479">type</text><!--link java.lang.Exception to sg.edu.ntu.scse.cz2002.objects.restaurantItem.ItemNotFoundException--><path d="M1002,117.9534 C1002,155.2868 1002,207.6448 1002,240.4249 " fill="none" id="java.lang.Exception-sg.edu.ntu.scse.cz2002.objects.restaurantItem.ItemNotFoundException" style="stroke: #A80036; stroke-width: 1.0;"/><polygon fill="none" points="995.0001,117.7174,1002,97.7174,1009.0001,117.7173,995.0001,117.7174" style="stroke: #A80036; stroke-width: 1.0;"/><!--link sg.edu.ntu.scse.cz2002.objects.restaurantItem.RestaurantItem to sg.edu.ntu.scse.cz2002.objects.restaurantItem.PromotionItem--><path d="M658.0462,389.287 C679.9078,423.7451 703.6599,461.183 725.0569,494.9088 " fill="none" id="sg.edu.ntu.scse.cz2002.objects.restaurantItem.RestaurantItem-sg.edu.ntu.scse.cz2002.objects.restaurantItem.PromotionItem" style="stroke: #A80036; stroke-width: 1.0;"/><polygon fill="none" points="651.9517,392.7474,647.148,372.1095,663.7732,385.2473,651.9517,392.7474" style="stroke: #A80036; stroke-width: 1.0;"/><!--link sg.edu.ntu.scse.cz2002.util.ICsvSerializable to sg.edu.ntu.scse.cz2002.objects.restaurantItem.PromotionItem--><path d="M260.1719,124.6767 C253.2604,188.7596 251.2512,298.979 304,372 C343.8294,427.1366 400.3189,469.4903 460.8377,501.8794 " fill="none" id="sg.edu.ntu.scse.cz2002.util.ICsvSerializable-sg.edu.ntu.scse.cz2002.objects.restaurantItem.PromotionItem" style="stroke: #A80036; stroke-width: 1.0; stroke-dasharray: 7.0,7.0;"/><polygon fill="none" points="253.2722,123.4358,262.6854,104.4518,267.1653,125.1624,253.2722,123.4358" style="stroke: #A80036; stroke-width: 1.0;"/><!--link sg.edu.ntu.scse.cz2002.util.ICsvSerializable to sg.edu.ntu.scse.cz2002.objects.restaurantItem.RestaurantItem--><path d="M333.8837,114.8081 C359.7024,130.9959 390.5564,150.3409 421.612,169.8123 " fill="none" id="sg.edu.ntu.scse.cz2002.util.ICsvSerializable-sg.edu.ntu.scse.cz2002.objects.restaurantItem.RestaurantItem" style="stroke: #A80036; stroke-width: 1.0; stroke-dasharray: 7.0,7.0;"/><polygon fill="none" points="330.0995,120.6976,316.8731,104.1427,337.5365,108.8362,330.0995,120.6976" style="stroke: #A80036; stroke-width: 1.0;"/><text fill="#888888" font-family="sans-serif" font-size="10" lengthAdjust="spacingAndGlyphs" textLength="182" x="488.5" y="997.502">UMLDoclet 1.1.3, PlantUML 1.2018.12</text><!--
@startuml

    namespace sg.edu.ntu.scse.cz2002.objects.restaurantItem {

        class MenuItem [[../sg/edu/ntu/scse/cz2002/objects/restaurantItem/MenuItem.html]] {
            #description: String
            +MenuItem(id:int, name:String, type:int, description:String, price:double)
            +MenuItem(csv:String[])
            +toCsv(): String[]
            +setType(type:int): void
            +convertToItemType(type:int): MenuItem.MenuItemType
            +getDescription(): String
            +setDescription(description:String): void
            +printItemDetail(): String
        }

        enum sg.edu.ntu.scse.cz2002.objects.restaurantItem.MenuItem.MenuItemType [[../sg/edu/ntu/scse/cz2002/objects/restaurantItem/MenuItem.MenuItemType.html]] {
            {static} +TBA
            {static} +MAIN
            {static} +DESSERT
            {static} +DRINK
        }

        class ItemNotFoundException [[../sg/edu/ntu/scse/cz2002/objects/restaurantItem/ItemNotFoundException.html]] {
            +ItemNotFoundException(message:String)
        }

        class PromotionItem [[../sg/edu/ntu/scse/cz2002/objects/restaurantItem/PromotionItem.html]] {
            #promoMain: int
            #promoDessert: int
            #promoDrink: int
            +PromotionItem(promoID:int, promoName:String, promoPrice:double, promoMain:int, promoDessert:int, promoDrink:int)
            +PromotionItem(csv:String[])
            +toCsv(): String[]
            +getPromoMain(): int
            +setPromoMain(promoMain:int): void
            +getPromoDessert(): int
            +setPromoDessert(promoDessert:int): void
            +getPromoDrink(): int
            +setPromoDrink(promoDrink:int): void
            +printPromotionDetail(): String
        }

        class RestaurantItem [[../sg/edu/ntu/scse/cz2002/objects/restaurantItem/RestaurantItem.html]] {
            #restaurantItemID: int
            #restaurantItemName: String
            #restaurantItemPrice: double
            +RestaurantItem(restaurantItemID:int, restaurantItemName:String, restaurantItemPrice:double)
            +RestaurantItem(csv:String[])
            +toCsv(): String[]
            +getId(): int
            +setId(restaurantItemID:int): void
            +getName(): String
            +setName(restaurantItemName:String): void
            +getPrice(): double
            +setPrice(restaurantItemPrice:double): void
        }

        RestaurantItem <|- - MenuItem

        interface sg.edu.ntu.scse.cz2002.util.ICsvSerializable {
            {abstract} +toCsv(): String[]
        }
        sg.edu.ntu.scse.cz2002.util.ICsvSerializable <|.. MenuItem

        MenuItem +- - sg.edu.ntu.scse.cz2002.objects.restaurantItem.MenuItem.MenuItemType

        class java.lang.Exception
        java.lang.Exception <|- - ItemNotFoundException

        RestaurantItem <|- - PromotionItem

        sg.edu.ntu.scse.cz2002.util.ICsvSerializable <|.. PromotionItem

        sg.edu.ntu.scse.cz2002.util.ICsvSerializable <|.. RestaurantItem

        MenuItem - -> sg.edu.ntu.scse.cz2002.objects.restaurantItem.MenuItem.MenuItemType: eType\ntype

    }


    center footer UMLDoclet 1.1.3, PlantUML 1.2018.12
@enduml

PlantUML version 1.2018.12(Sun Oct 21 10:15:15 GMT 2018)
(APACHE source distribution)
Java Runtime: Java(TM) SE Runtime Environment
JVM: Java HotSpot(TM) 64-Bit Server VM
Java Version: 1.8.0_202-b08
Operating System: Linux
OS Version: 4.19.23-coreos-r1
Default Encoding: UTF-8
Language: en
Country: null
--></g></svg>