<?xml version="1.0" encoding="UTF-8" standalone="no"?><svg xmlns="http://www.w3.org/2000/svg" xmlns:xlink="http://www.w3.org/1999/xlink" contentScriptType="application/ecmascript" contentStyleType="text/css" height="255px" preserveAspectRatio="none" style="width:413px;height:255px;" version="1.1" viewBox="0 0 413 255" width="413px" zoomAndPan="magnify"><defs><filter height="300%" id="flbexkgcvzacv" width="300%" x="-1" y="-1"><feGaussianBlur result="blurOut" stdDeviation="2.0"/><feColorMatrix in="blurOut" result="blurOut2" type="matrix" values="0 0 0 0 0 0 0 0 0 0 0 0 0 0 0 0 0 0 .4 0"/><feOffset dx="4.0" dy="4.0" in="blurOut2" result="blurOut3"/><feBlend in="SourceGraphic" in2="blurOut3" mode="normal"/></filter></defs><g><!--class Table--><rect fill="#FEFECE" filter="url(#flbexkgcvzacv)" height="214.3911" id="Table" style="stroke: #A80036; stroke-width: 1.5;" width="396" x="6" y="8"/><ellipse cx="183.25" cy="24" fill="#ADD1B2" rx="11" ry="11" style="stroke: #A80036; stroke-width: 1.0;"/><path d="M187.0781,29.6563 Q185.2031,30.3125 183.3906,30.3125 Q180.7969,30.3125 179.2109,28.5313 Q177.625,26.75 177.625,23.8438 Q177.625,21.1563 179.0313,19.3906 Q179.8906,18.3125 181.0078,17.8594 Q182.125,17.4063 183.9063,17.4063 Q185.625,17.4063 187.0781,17.7656 L187.0781,19.75 Q185.2031,19.0469 183.9531,19.0469 Q182.2656,19.0469 181.2734,20.3672 Q180.2813,21.6875 180.2813,23.9219 Q180.2813,25.9688 181.3203,27.2656 Q182.3594,28.5625 184,28.5625 Q185.3906,28.5625 187.0781,27.7813 L187.0781,29.6563 Z "/><text fill="#000000" font-family="sans-serif" font-size="12" lengthAdjust="spacingAndGlyphs" textLength="33" x="203.75" y="28.4209">Table</text><line style="stroke: #A80036; stroke-width: 1.5;" x1="7" x2="401" y1="40" y2="40"/><line style="stroke: #A80036; stroke-width: 1.5;" x1="7" x2="401" y1="48" y2="48"/><ellipse cx="17" cy="59.8997" fill="#84BE84" rx="3" ry="3" style="stroke: #038048; stroke-width: 1.0;"/><text fill="#000000" font-family="sans-serif" font-size="11" lengthAdjust="spacingAndGlyphs" textLength="140" x="26" y="62.4521">Table(int, boolean, int, int)</text><ellipse cx="17" cy="72.699" fill="#84BE84" rx="3" ry="3" style="stroke: #038048; stroke-width: 1.0;"/><text fill="#000000" font-family="sans-serif" font-size="11" lengthAdjust="spacingAndGlyphs" textLength="77" x="26" y="75.2515">Table(String[])</text><ellipse cx="17" cy="85.4983" fill="#84BE84" rx="3" ry="3" style="stroke: #038048; stroke-width: 1.0;"/><text fill="#000000" font-family="sans-serif" font-size="11" lengthAdjust="spacingAndGlyphs" textLength="85" x="26" y="88.0508">toCsv(): String[]</text><ellipse cx="17" cy="98.2976" fill="#84BE84" rx="3" ry="3" style="stroke: #038048; stroke-width: 1.0;"/><text fill="#000000" font-family="sans-serif" font-size="11" lengthAdjust="spacingAndGlyphs" textLength="121" x="26" y="100.8501">setTableNum(int): void</text><ellipse cx="17" cy="111.0969" fill="#84BE84" rx="3" ry="3" style="stroke: #038048; stroke-width: 1.0;"/><text fill="#000000" font-family="sans-serif" font-size="11" lengthAdjust="spacingAndGlyphs" textLength="99" x="26" y="113.6494">getTableNum(): int</text><ellipse cx="17" cy="123.8962" fill="#84BE84" rx="3" ry="3" style="stroke: #038048; stroke-width: 1.0;"/><text fill="#000000" font-family="sans-serif" font-size="11" lengthAdjust="spacingAndGlyphs" textLength="195" x="26" y="126.4487">setNumSeats(Table.TableSeats): void</text><ellipse cx="17" cy="136.6956" fill="#84BE84" rx="3" ry="3" style="stroke: #038048; stroke-width: 1.0;"/><text fill="#000000" font-family="sans-serif" font-size="11" lengthAdjust="spacingAndGlyphs" textLength="173" x="26" y="139.248">getNumSeats(): Table.TableSeats</text><ellipse cx="17" cy="149.4949" fill="#84BE84" rx="3" ry="3" style="stroke: #038048; stroke-width: 1.0;"/><text fill="#000000" font-family="sans-serif" font-size="11" lengthAdjust="spacingAndGlyphs" textLength="166" x="26" y="152.0474">setState(Table.TableState): void</text><ellipse cx="17" cy="162.2942" fill="#84BE84" rx="3" ry="3" style="stroke: #038048; stroke-width: 1.0;"/><text fill="#000000" font-family="sans-serif" font-size="11" lengthAdjust="spacingAndGlyphs" textLength="144" x="26" y="164.8467">getState(): Table.TableState</text><ellipse cx="17" cy="175.0935" fill="#84BE84" rx="3" ry="3" style="stroke: #038048; stroke-width: 1.0;"/><text fill="#000000" font-family="sans-serif" font-size="11" lengthAdjust="spacingAndGlyphs" textLength="145" x="26" y="177.646">setReserved(boolean): void</text><ellipse cx="17" cy="187.8928" fill="#84BE84" rx="3" ry="3" style="stroke: #038048; stroke-width: 1.0;"/><text fill="#000000" font-family="sans-serif" font-size="11" lengthAdjust="spacingAndGlyphs" textLength="137" x="26" y="190.4453">checkReserved(): boolean</text><ellipse cx="17" cy="200.6921" fill="#84BE84" rx="3" ry="3" style="stroke: #038048; stroke-width: 1.0;"/><text fill="#000000" font-family="sans-serif" font-size="11" lengthAdjust="spacingAndGlyphs" text-decoration="underline" textLength="158" x="26" y="203.2446">getTableByNumber(int): Table</text><line style="stroke: #000000; stroke-width: 1.0;" x1="26" x2="184" y1="205.2446" y2="205.2446"/><ellipse cx="17" cy="213.4915" fill="#84BE84" rx="3" ry="3" style="stroke: #038048; stroke-width: 1.0;"/><text fill="#000000" font-family="sans-serif" font-size="11" lengthAdjust="spacingAndGlyphs" text-decoration="underline" textLength="370" x="26" y="216.0439">getVacantTablesByNumPax(int, ArrayList&lt;Table&gt;): ArrayList&lt;Table&gt;</text><line style="stroke: #000000; stroke-width: 1.0;" x1="26" x2="396" y1="218.0439" y2="218.0439"/><text fill="#888888" font-family="sans-serif" font-size="10" lengthAdjust="spacingAndGlyphs" textLength="182" x="119" y="241.502">UMLDoclet 1.1.3, PlantUML 1.2018.12</text><!--
@startuml

    class Table {
        +Table(int, boolean, int, int)
        +Table(String[])
        +toCsv(): String[]
        +setTableNum(int): void
        +getTableNum(): int
        +setNumSeats(Table.TableSeats): void
        +getNumSeats(): Table.TableSeats
        +setState(Table.TableState): void
        +getState(): Table.TableState
        +setReserved(boolean): void
        +checkReserved(): boolean
        {static} +getTableByNumber(int): Table
        {static} +getVacantTablesByNumPax(int, ArrayList<Table>): ArrayList<Table>
    }


    center footer UMLDoclet 1.1.3, PlantUML 1.2018.12
@enduml

PlantUML version 1.2018.12(Sun Oct 21 10:15:15 GMT 2018)
(APACHE source distribution)
Java Runtime: Java(TM) SE Runtime Environment
JVM: Java HotSpot(TM) 64-Bit Server VM
Java Version: 1.8.0_202-b08
Operating System: Linux
OS Version: 4.19.23-coreos-r1
Default Encoding: UTF-8
Language: en
Country: null
--></g></svg>