<?xml version="1.0" encoding="UTF-8" standalone="no"?><svg xmlns="http://www.w3.org/2000/svg" xmlns:xlink="http://www.w3.org/1999/xlink" contentScriptType="application/ecmascript" contentStyleType="text/css" height="179px" preserveAspectRatio="none" style="width:271px;height:179px;" version="1.1" viewBox="0 0 271 179" width="271px" zoomAndPan="magnify"><defs><filter height="300%" id="f1a5m5pkjtq8o9" width="300%" x="-1" y="-1"><feGaussianBlur result="blurOut" stdDeviation="2.0"/><feColorMatrix in="blurOut" result="blurOut2" type="matrix" values="0 0 0 0 0 0 0 0 0 0 0 0 0 0 0 0 0 0 .4 0"/><feOffset dx="4.0" dy="4.0" in="blurOut2" result="blurOut3"/><feBlend in="SourceGraphic" in2="blurOut3" mode="normal"/></filter></defs><g><!--class OrderCSVHelper--><a target="_top" xlink:actuate="onRequest" xlink:href="../sg/edu/ntu/scse/cz2002/util/OrderCSVHelper.html" xlink:show="new" xlink:title="../sg/edu/ntu/scse/cz2002/util/OrderCSVHelper.html" xlink:type="simple"><rect fill="#FEFECE" filter="url(#f1a5m5pkjtq8o9)" height="137.5952" id="OrderCSVHelper" style="stroke: #A80036; stroke-width: 1.5;" width="254" x="6" y="8"/><ellipse cx="81.25" cy="24" fill="#ADD1B2" rx="11" ry="11" style="stroke: #A80036; stroke-width: 1.0;"/><path d="M85.0781,29.6563 Q83.2031,30.3125 81.3906,30.3125 Q78.7969,30.3125 77.2109,28.5313 Q75.625,26.75 75.625,23.8438 Q75.625,21.1563 77.0313,19.3906 Q77.8906,18.3125 79.0078,17.8594 Q80.125,17.4063 81.9063,17.4063 Q83.625,17.4063 85.0781,17.7656 L85.0781,19.75 Q83.2031,19.0469 81.9531,19.0469 Q80.2656,19.0469 79.2734,20.3672 Q78.2813,21.6875 78.2813,23.9219 Q78.2813,25.9688 79.3203,27.2656 Q80.3594,28.5625 82,28.5625 Q83.3906,28.5625 85.0781,27.7813 L85.0781,29.6563 Z "/><text fill="#000000" font-family="sans-serif" font-size="12" lengthAdjust="spacingAndGlyphs" textLength="95" x="101.75" y="28.4209">OrderCSVHelper</text><line style="stroke: #A80036; stroke-width: 1.5;" x1="7" x2="259" y1="40" y2="40"/><rect fill="none" height="6" style="stroke: #C82930; stroke-width: 1.0;" width="6" x="14" y="48.8997"/><text fill="#000000" font-family="sans-serif" font-size="11" lengthAdjust="spacingAndGlyphs" text-decoration="underline" textLength="149" x="26" y="54.4521">mInstance: OrderCSVHelper</text><line style="stroke: #000000; stroke-width: 1.0;" x1="26" x2="175" y1="56.4521" y2="56.4521"/><rect fill="none" height="6" style="stroke: #C82930; stroke-width: 1.0;" width="6" x="14" y="61.699"/><text fill="#000000" font-family="sans-serif" font-size="11" lengthAdjust="spacingAndGlyphs" textLength="88" x="26" y="67.2515">orderCsv: String</text><line style="stroke: #A80036; stroke-width: 1.5;" x1="7" x2="259" y1="73.5986" y2="73.5986"/><rect fill="#F24D5C" height="6" style="stroke: #C82930; stroke-width: 1.0;" width="6" x="14" y="82.4983"/><text fill="#000000" font-family="sans-serif" font-size="11" lengthAdjust="spacingAndGlyphs" textLength="96" x="26" y="88.0508">OrderCSVHelper()</text><ellipse cx="17" cy="98.2976" fill="#84BE84" rx="3" ry="3" style="stroke: #038048; stroke-width: 1.0;"/><text fill="#000000" font-family="sans-serif" font-size="11" lengthAdjust="spacingAndGlyphs" text-decoration="line-through" textLength="88" x="26" y="100.8501">OrderCSVHelper</text><text fill="#000000" font-family="sans-serif" font-size="11" lengthAdjust="spacingAndGlyphs" textLength="88" x="117" y="100.8501">(filename:String)</text><ellipse cx="17" cy="111.0969" fill="#84BE84" rx="3" ry="3" style="stroke: #038048; stroke-width: 1.0;"/><text fill="#000000" font-family="sans-serif" font-size="11" lengthAdjust="spacingAndGlyphs" text-decoration="underline" textLength="164" x="26" y="113.6494">getInstance(): OrderCSVHelper</text><line style="stroke: #000000; stroke-width: 1.0;" x1="26" x2="190" y1="115.6494" y2="115.6494"/><ellipse cx="17" cy="123.8962" fill="#84BE84" rx="3" ry="3" style="stroke: #038048; stroke-width: 1.0;"/><text fill="#000000" font-family="sans-serif" font-size="11" lengthAdjust="spacingAndGlyphs" textLength="185" x="26" y="126.4487">readFromCsv(): ArrayList&lt;Order&gt;</text><ellipse cx="17" cy="136.6956" fill="#84BE84" rx="3" ry="3" style="stroke: #038048; stroke-width: 1.0;"/><text fill="#000000" font-family="sans-serif" font-size="11" lengthAdjust="spacingAndGlyphs" textLength="228" x="26" y="139.248">writeToCsv(items:ArrayList&lt;Order&gt;): void</text></a><text fill="#888888" font-family="sans-serif" font-size="10" lengthAdjust="spacingAndGlyphs" textLength="182" x="48" y="165.502">UMLDoclet 1.1.3, PlantUML 1.2018.12</text><!--
@startuml

    class OrderCSVHelper [[../sg/edu/ntu/scse/cz2002/util/OrderCSVHelper.html]] {
        {static} -mInstance: OrderCSVHelper
        -orderCsv: String
        -OrderCSVHelper()
        + - -OrderCSVHelper- - (filename:String)
        {static} +getInstance(): OrderCSVHelper
        +readFromCsv(): ArrayList<Order>
        +writeToCsv(items:ArrayList<Order>): void
    }


    center footer UMLDoclet 1.1.3, PlantUML 1.2018.12
@enduml

PlantUML version 1.2018.12(Sun Oct 21 10:15:15 GMT 2018)
(APACHE source distribution)
Java Runtime: Java(TM) SE Runtime Environment
JVM: Java HotSpot(TM) 64-Bit Server VM
Java Version: 1.8.0_202-b08
Operating System: Linux
OS Version: 4.19.23-coreos-r1
Default Encoding: UTF-8
Language: en
Country: null
--></g></svg>