<?xml version="1.0" encoding="UTF-8" standalone="no"?><svg xmlns="http://www.w3.org/2000/svg" xmlns:xlink="http://www.w3.org/1999/xlink" contentScriptType="application/ecmascript" contentStyleType="text/css" height="115px" preserveAspectRatio="none" style="width:245px;height:115px;" version="1.1" viewBox="0 0 245 115" width="245px" zoomAndPan="magnify"><defs><filter height="300%" id="f1jhqs6bx76uih" width="300%" x="-1" y="-1"><feGaussianBlur result="blurOut" stdDeviation="2.0"/><feColorMatrix in="blurOut" result="blurOut2" type="matrix" values="0 0 0 0 0 0 0 0 0 0 0 0 0 0 0 0 0 0 .4 0"/><feOffset dx="4.0" dy="4.0" in="blurOut2" result="blurOut3"/><feBlend in="SourceGraphic" in2="blurOut3" mode="normal"/></filter></defs><g><!--class OrderMenuUI--><rect fill="#FEFECE" filter="url(#f1jhqs6bx76uih)" height="73.5986" id="OrderMenuUI" style="stroke: #A80036; stroke-width: 1.5;" width="228" x="6" y="8"/><ellipse cx="77.75" cy="24" fill="#ADD1B2" rx="11" ry="11" style="stroke: #A80036; stroke-width: 1.0;"/><path d="M81.5781,29.6563 Q79.7031,30.3125 77.8906,30.3125 Q75.2969,30.3125 73.7109,28.5313 Q72.125,26.75 72.125,23.8438 Q72.125,21.1563 73.5313,19.3906 Q74.3906,18.3125 75.5078,17.8594 Q76.625,17.4063 78.4063,17.4063 Q80.125,17.4063 81.5781,17.7656 L81.5781,19.75 Q79.7031,19.0469 78.4531,19.0469 Q76.7656,19.0469 75.7734,20.3672 Q74.7813,21.6875 74.7813,23.9219 Q74.7813,25.9688 75.8203,27.2656 Q76.8594,28.5625 78.5,28.5625 Q79.8906,28.5625 81.5781,27.7813 L81.5781,29.6563 Z "/><text fill="#000000" font-family="sans-serif" font-size="12" lengthAdjust="spacingAndGlyphs" textLength="76" x="98.25" y="28.4209">OrderMenuUI</text><line style="stroke: #A80036; stroke-width: 1.5;" x1="7" x2="233" y1="40" y2="40"/><ellipse cx="17" cy="51.8997" fill="none" rx="3" ry="3" style="stroke: #038048; stroke-width: 1.0;"/><text fill="#000000" font-family="sans-serif" font-size="11" lengthAdjust="spacingAndGlyphs" text-decoration="underline" textLength="202" x="26" y="54.4521">incompleteOrders: ArrayList&lt;Order&gt;</text><line style="stroke: #000000; stroke-width: 1.0;" x1="26" x2="228" y1="56.4521" y2="56.4521"/><line style="stroke: #A80036; stroke-width: 1.5;" x1="7" x2="233" y1="60.7993" y2="60.7993"/><polygon fill="#FFFF44" points="17,67.699,21,71.699,17,75.699,13,71.699" style="stroke: #B38D22; stroke-width: 1.0;"/><text fill="#000000" font-family="sans-serif" font-size="11" lengthAdjust="spacingAndGlyphs" textLength="140" x="26" y="75.2515">generateMenuScreen(): int</text><text fill="#888888" font-family="sans-serif" font-size="10" lengthAdjust="spacingAndGlyphs" textLength="182" x="35" y="101.502">UMLDoclet 1.1.3, PlantUML 1.2018.12</text><!--
@startuml

    class OrderMenuUI {
        {static} +incompleteOrders: ArrayList<Order>
        #generateMenuScreen(): int
    }


    center footer UMLDoclet 1.1.3, PlantUML 1.2018.12
@enduml

PlantUML version 1.2018.12(Sun Oct 21 10:15:15 GMT 2018)
(APACHE source distribution)
Java Runtime: Java(TM) SE Runtime Environment
JVM: Java HotSpot(TM) 64-Bit Server VM
Java Version: 1.8.0_202-b08
Operating System: Linux
OS Version: 4.19.23-coreos-r1
Default Encoding: UTF-8
Language: en
Country: null
--></g></svg>