<?xml version="1.0" encoding="UTF-8" standalone="no"?><svg xmlns="http://www.w3.org/2000/svg" xmlns:xlink="http://www.w3.org/1999/xlink" contentScriptType="application/ecmascript" contentStyleType="text/css" height="243px" preserveAspectRatio="none" style="width:540px;height:243px;" version="1.1" viewBox="0 0 540 243" width="540px" zoomAndPan="magnify"><defs><filter height="300%" id="f1gdgqf8vaeak" width="300%" x="-1" y="-1"><feGaussianBlur result="blurOut" stdDeviation="2.0"/><feColorMatrix in="blurOut" result="blurOut2" type="matrix" values="0 0 0 0 0 0 0 0 0 0 0 0 0 0 0 0 0 0 .4 0"/><feOffset dx="4.0" dy="4.0" in="blurOut2" result="blurOut3"/><feBlend in="SourceGraphic" in2="blurOut3" mode="normal"/></filter></defs><g><!--class RestaurantItem--><a target="_top" xlink:actuate="onRequest" xlink:href="../sg/edu/ntu/scse/cz2002/objects/restaurantItem/RestaurantItem.html" xlink:show="new" xlink:title="../sg/edu/ntu/scse/cz2002/objects/restaurantItem/RestaurantItem.html" xlink:type="simple"><rect fill="#FEFECE" filter="url(#f1gdgqf8vaeak)" height="201.5918" id="RestaurantItem" style="stroke: #A80036; stroke-width: 1.5;" width="523" x="6" y="8"/><ellipse cx="219.75" cy="24" fill="#ADD1B2" rx="11" ry="11" style="stroke: #A80036; stroke-width: 1.0;"/><path d="M223.5781,29.6563 Q221.7031,30.3125 219.8906,30.3125 Q217.2969,30.3125 215.7109,28.5313 Q214.125,26.75 214.125,23.8438 Q214.125,21.1563 215.5313,19.3906 Q216.3906,18.3125 217.5078,17.8594 Q218.625,17.4063 220.4063,17.4063 Q222.125,17.4063 223.5781,17.7656 L223.5781,19.75 Q221.7031,19.0469 220.4531,19.0469 Q218.7656,19.0469 217.7734,20.3672 Q216.7813,21.6875 216.7813,23.9219 Q216.7813,25.9688 217.8203,27.2656 Q218.8594,28.5625 220.5,28.5625 Q221.8906,28.5625 223.5781,27.7813 L223.5781,29.6563 Z "/><text fill="#000000" font-family="sans-serif" font-size="12" lengthAdjust="spacingAndGlyphs" textLength="87" x="240.25" y="28.4209">RestaurantItem</text><line style="stroke: #A80036; stroke-width: 1.5;" x1="7" x2="528" y1="40" y2="40"/><polygon fill="none" points="17,46.8997,21,50.8997,17,54.8997,13,50.8997" style="stroke: #B38D22; stroke-width: 1.0;"/><text fill="#000000" font-family="sans-serif" font-size="11" lengthAdjust="spacingAndGlyphs" textLength="110" x="26" y="54.4521">restaurantItemID: int</text><polygon fill="none" points="17,59.699,21,63.699,17,67.699,13,63.699" style="stroke: #B38D22; stroke-width: 1.0;"/><text fill="#000000" font-family="sans-serif" font-size="11" lengthAdjust="spacingAndGlyphs" textLength="147" x="26" y="67.2515">restaurantItemName: String</text><polygon fill="none" points="17,72.4983,21,76.4983,17,80.4983,13,76.4983" style="stroke: #B38D22; stroke-width: 1.0;"/><text fill="#000000" font-family="sans-serif" font-size="11" lengthAdjust="spacingAndGlyphs" textLength="148" x="26" y="80.0508">restaurantItemPrice: double</text><line style="stroke: #A80036; stroke-width: 1.5;" x1="7" x2="528" y1="86.3979" y2="86.3979"/><ellipse cx="17" cy="98.2976" fill="#84BE84" rx="3" ry="3" style="stroke: #038048; stroke-width: 1.0;"/><text fill="#000000" font-family="sans-serif" font-size="11" lengthAdjust="spacingAndGlyphs" textLength="497" x="26" y="100.8501">RestaurantItem(restaurantItemID:int, restaurantItemName:String, restaurantItemPrice:double)</text><ellipse cx="17" cy="111.0969" fill="#84BE84" rx="3" ry="3" style="stroke: #038048; stroke-width: 1.0;"/><text fill="#000000" font-family="sans-serif" font-size="11" lengthAdjust="spacingAndGlyphs" textLength="150" x="26" y="113.6494">RestaurantItem(csv:String[])</text><ellipse cx="17" cy="123.8962" fill="#84BE84" rx="3" ry="3" style="stroke: #038048; stroke-width: 1.0;"/><text fill="#000000" font-family="sans-serif" font-size="11" lengthAdjust="spacingAndGlyphs" textLength="85" x="26" y="126.4487">toCsv(): String[]</text><ellipse cx="17" cy="136.6956" fill="#84BE84" rx="3" ry="3" style="stroke: #038048; stroke-width: 1.0;"/><text fill="#000000" font-family="sans-serif" font-size="11" lengthAdjust="spacingAndGlyphs" textLength="55" x="26" y="139.248">getId(): int</text><ellipse cx="17" cy="149.4949" fill="#84BE84" rx="3" ry="3" style="stroke: #038048; stroke-width: 1.0;"/><text fill="#000000" font-family="sans-serif" font-size="11" lengthAdjust="spacingAndGlyphs" textLength="170" x="26" y="152.0474">setId(restaurantItemID:int): void</text><ellipse cx="17" cy="162.2942" fill="#84BE84" rx="3" ry="3" style="stroke: #038048; stroke-width: 1.0;"/><text fill="#000000" font-family="sans-serif" font-size="11" lengthAdjust="spacingAndGlyphs" textLength="93" x="26" y="164.8467">getName(): String</text><ellipse cx="17" cy="175.0935" fill="#84BE84" rx="3" ry="3" style="stroke: #038048; stroke-width: 1.0;"/><text fill="#000000" font-family="sans-serif" font-size="11" lengthAdjust="spacingAndGlyphs" textLength="227" x="26" y="177.646">setName(restaurantItemName:String): void</text><ellipse cx="17" cy="187.8928" fill="#84BE84" rx="3" ry="3" style="stroke: #038048; stroke-width: 1.0;"/><text fill="#000000" font-family="sans-serif" font-size="11" lengthAdjust="spacingAndGlyphs" textLength="94" x="26" y="190.4453">getPrice(): double</text><ellipse cx="17" cy="200.6921" fill="#84BE84" rx="3" ry="3" style="stroke: #038048; stroke-width: 1.0;"/><text fill="#000000" font-family="sans-serif" font-size="11" lengthAdjust="spacingAndGlyphs" textLength="224" x="26" y="203.2446">setPrice(restaurantItemPrice:double): void</text></a><text fill="#888888" font-family="sans-serif" font-size="10" lengthAdjust="spacingAndGlyphs" textLength="182" x="182.5" y="229.502">UMLDoclet 1.1.3, PlantUML 1.2018.12</text><!--
@startuml

    class RestaurantItem [[../sg/edu/ntu/scse/cz2002/objects/restaurantItem/RestaurantItem.html]] {
        #restaurantItemID: int
        #restaurantItemName: String
        #restaurantItemPrice: double
        +RestaurantItem(restaurantItemID:int, restaurantItemName:String, restaurantItemPrice:double)
        +RestaurantItem(csv:String[])
        +toCsv(): String[]
        +getId(): int
        +setId(restaurantItemID:int): void
        +getName(): String
        +setName(restaurantItemName:String): void
        +getPrice(): double
        +setPrice(restaurantItemPrice:double): void
    }


    center footer UMLDoclet 1.1.3, PlantUML 1.2018.12
@enduml

PlantUML version 1.2018.12(Sun Oct 21 10:15:15 GMT 2018)
(APACHE source distribution)
Java Runtime: Java(TM) SE Runtime Environment
JVM: Java HotSpot(TM) 64-Bit Server VM
Java Version: 1.8.0_202-b08
Operating System: Linux
OS Version: 4.19.23-coreos-r1
Default Encoding: UTF-8
Language: en
Country: null
--></g></svg>