<?xml version="1.0" encoding="UTF-8" standalone="no"?><svg xmlns="http://www.w3.org/2000/svg" xmlns:xlink="http://www.w3.org/1999/xlink" contentScriptType="application/ecmascript" contentStyleType="text/css" height="802px" preserveAspectRatio="none" style="width:1413px;height:802px;" version="1.1" viewBox="0 0 1413 802" width="1413px" zoomAndPan="magnify"><defs><filter height="300%" id="f1jl2yjh3nt6fp" width="300%" x="-1" y="-1"><feGaussianBlur result="blurOut" stdDeviation="2.0"/><feColorMatrix in="blurOut" result="blurOut2" type="matrix" values="0 0 0 0 0 0 0 0 0 0 0 0 0 0 0 0 0 0 .4 0"/><feOffset dx="4.0" dy="4.0" in="blurOut2" result="blurOut3"/><feBlend in="SourceGraphic" in2="blurOut3" mode="normal"/></filter></defs><g><!--cluster sg.edu.ntu.scse.cz2002.objects.menuitem--><polygon fill="#FFFFFF" filter="url(#f1jl2yjh3nt6fp)" points="14,143,312,143,319,165.29,1391,165.29,1391,761,14,761,14,143" style="stroke: #000000; stroke-width: 1.5;"/><line style="stroke: #000000; stroke-width: 1.5;" x1="14" x2="319" y1="165.29" y2="165.29"/><text fill="#000000" font-family="sans-serif" font-size="14" font-weight="bold" lengthAdjust="spacingAndGlyphs" textLength="292" x="18" y="158.3369">sg.edu.ntu.scse.cz2002.objects.menuitem</text><!--cluster sg.edu.ntu.scse.cz2002.util--><polygon fill="#FFFFFF" filter="url(#f1jl2yjh3nt6fp)" points="336,16,531,16,538,38.29,541,38.29,541,112,336,112,336,16" style="stroke: #000000; stroke-width: 1.5;"/><line style="stroke: #000000; stroke-width: 1.5;" x1="336" x2="538" y1="38.29" y2="38.29"/><text fill="#000000" font-family="sans-serif" font-size="14" font-weight="bold" lengthAdjust="spacingAndGlyphs" textLength="189" x="340" y="31.3369">sg.edu.ntu.scse.cz2002.util</text><!--cluster java.lang--><polygon fill="#FFFFFF" filter="url(#f1jl2yjh3nt6fp)" points="1208,22.5,1277,22.5,1284,44.79,1312,44.79,1312,105.5,1208,105.5,1208,22.5" style="stroke: #000000; stroke-width: 1.5;"/><line style="stroke: #000000; stroke-width: 1.5;" x1="1208" x2="1284" y1="44.79" y2="44.79"/><text fill="#000000" font-family="sans-serif" font-size="14" font-weight="bold" lengthAdjust="spacingAndGlyphs" textLength="63" x="1212" y="37.8369">java.lang</text><!--class sg.edu.ntu.scse.cz2002.objects.menuitem.MenuItem--><a target="_top" xlink:actuate="onRequest" xlink:href="../sg/edu/ntu/scse/cz2002/objects/menuitem/MenuItem.html" xlink:show="new" xlink:title="../sg/edu/ntu/scse/cz2002/objects/menuitem/MenuItem.html" xlink:type="simple"><rect fill="#FEFECE" filter="url(#f1jl2yjh3nt6fp)" height="303.9863" id="sg.edu.ntu.scse.cz2002.objects.menuitem.MenuItem" style="stroke: #A80036; stroke-width: 1.5;" width="404" x="22" y="183"/><ellipse cx="191.75" cy="199" fill="#ADD1B2" rx="11" ry="11" style="stroke: #A80036; stroke-width: 1.0;"/><path d="M195.5781,204.6563 Q193.7031,205.3125 191.8906,205.3125 Q189.2969,205.3125 187.7109,203.5313 Q186.125,201.75 186.125,198.8438 Q186.125,196.1563 187.5313,194.3906 Q188.3906,193.3125 189.5078,192.8594 Q190.625,192.4063 192.4063,192.4063 Q194.125,192.4063 195.5781,192.7656 L195.5781,194.75 Q193.7031,194.0469 192.4531,194.0469 Q190.7656,194.0469 189.7734,195.3672 Q188.7813,196.6875 188.7813,198.9219 Q188.7813,200.9688 189.8203,202.2656 Q190.8594,203.5625 192.5,203.5625 Q193.8906,203.5625 195.5781,202.7813 L195.5781,204.6563 Z "/><text fill="#000000" font-family="sans-serif" font-size="12" lengthAdjust="spacingAndGlyphs" textLength="56" x="212.25" y="203.4209">MenuItem</text><line style="stroke: #A80036; stroke-width: 1.5;" x1="23" x2="425" y1="215" y2="215"/><polygon fill="none" points="33,221.8997,37,225.8997,33,229.8997,29,225.8997" style="stroke: #B38D22; stroke-width: 1.0;"/><text fill="#000000" font-family="sans-serif" font-size="11" lengthAdjust="spacingAndGlyphs" textLength="30" x="42" y="229.4521">id: int</text><polygon fill="none" points="33,234.699,37,238.699,33,242.699,29,238.699" style="stroke: #B38D22; stroke-width: 1.0;"/><text fill="#000000" font-family="sans-serif" font-size="11" lengthAdjust="spacingAndGlyphs" textLength="67" x="42" y="242.2515">name: String</text><polygon fill="none" points="33,247.4983,37,251.4983,33,255.4983,29,251.4983" style="stroke: #B38D22; stroke-width: 1.0;"/><text fill="#000000" font-family="sans-serif" font-size="11" lengthAdjust="spacingAndGlyphs" textLength="43" x="42" y="255.0508">type: int</text><polygon fill="none" points="33,260.2976,37,264.2976,33,268.2976,29,264.2976" style="stroke: #B38D22; stroke-width: 1.0;"/><text fill="#000000" font-family="sans-serif" font-size="11" lengthAdjust="spacingAndGlyphs" textLength="99" x="42" y="267.8501">description: String</text><polygon fill="none" points="33,273.0969,37,277.0969,33,281.0969,29,277.0969" style="stroke: #B38D22; stroke-width: 1.0;"/><text fill="#000000" font-family="sans-serif" font-size="11" lengthAdjust="spacingAndGlyphs" textLength="70" x="42" y="280.6494">price: double</text><line style="stroke: #A80036; stroke-width: 1.5;" x1="23" x2="425" y1="286.9966" y2="286.9966"/><ellipse cx="33" cy="298.8962" fill="#84BE84" rx="3" ry="3" style="stroke: #038048; stroke-width: 1.0;"/><text fill="#000000" font-family="sans-serif" font-size="11" lengthAdjust="spacingAndGlyphs" textLength="378" x="42" y="301.4487">MenuItem(id:int, name:String, type:int, description:String, price:double)</text><ellipse cx="33" cy="311.6956" fill="#84BE84" rx="3" ry="3" style="stroke: #038048; stroke-width: 1.0;"/><text fill="#000000" font-family="sans-serif" font-size="11" lengthAdjust="spacingAndGlyphs" textLength="121" x="42" y="314.248">MenuItem(csv:String[])</text><ellipse cx="33" cy="324.4949" fill="#84BE84" rx="3" ry="3" style="stroke: #038048; stroke-width: 1.0;"/><text fill="#000000" font-family="sans-serif" font-size="11" lengthAdjust="spacingAndGlyphs" textLength="85" x="42" y="327.0474">toCsv(): String[]</text><ellipse cx="33" cy="337.2942" fill="#84BE84" rx="3" ry="3" style="stroke: #038048; stroke-width: 1.0;"/><text fill="#000000" font-family="sans-serif" font-size="11" lengthAdjust="spacingAndGlyphs" textLength="55" x="42" y="339.8467">getId(): int</text><ellipse cx="33" cy="350.0935" fill="#84BE84" rx="3" ry="3" style="stroke: #038048; stroke-width: 1.0;"/><text fill="#000000" font-family="sans-serif" font-size="11" lengthAdjust="spacingAndGlyphs" textLength="90" x="42" y="352.646">setId(id:int): void</text><ellipse cx="33" cy="362.8928" fill="#84BE84" rx="3" ry="3" style="stroke: #038048; stroke-width: 1.0;"/><text fill="#000000" font-family="sans-serif" font-size="11" lengthAdjust="spacingAndGlyphs" textLength="93" x="42" y="365.4453">getName(): String</text><ellipse cx="33" cy="375.6921" fill="#84BE84" rx="3" ry="3" style="stroke: #038048; stroke-width: 1.0;"/><text fill="#000000" font-family="sans-serif" font-size="11" lengthAdjust="spacingAndGlyphs" textLength="147" x="42" y="378.2446">setName(name:String): void</text><ellipse cx="33" cy="388.4915" fill="#84BE84" rx="3" ry="3" style="stroke: #038048; stroke-width: 1.0;"/><text fill="#000000" font-family="sans-serif" font-size="11" lengthAdjust="spacingAndGlyphs" textLength="119" x="42" y="391.0439">setType(type:int): void</text><ellipse cx="33" cy="401.2908" fill="#84BE84" rx="3" ry="3" style="stroke: #038048; stroke-width: 1.0;"/><text fill="#000000" font-family="sans-serif" font-size="11" lengthAdjust="spacingAndGlyphs" textLength="291" x="42" y="403.8433">convertToItemType(type:int): MenuItem.MenuItemType</text><ellipse cx="33" cy="414.0901" fill="#84BE84" rx="3" ry="3" style="stroke: #038048; stroke-width: 1.0;"/><text fill="#000000" font-family="sans-serif" font-size="11" lengthAdjust="spacingAndGlyphs" text-decoration="line-through" textLength="104" x="42" y="416.6426">convertToItemType</text><text fill="#000000" font-family="sans-serif" font-size="11" lengthAdjust="spacingAndGlyphs" textLength="205" x="149" y="416.6426">(type:String): MenuItem.MenuItemType</text><ellipse cx="33" cy="426.8894" fill="#84BE84" rx="3" ry="3" style="stroke: #038048; stroke-width: 1.0;"/><text fill="#000000" font-family="sans-serif" font-size="11" lengthAdjust="spacingAndGlyphs" textLength="125" x="42" y="429.4419">getDescription(): String</text><ellipse cx="33" cy="439.6887" fill="#84BE84" rx="3" ry="3" style="stroke: #038048; stroke-width: 1.0;"/><text fill="#000000" font-family="sans-serif" font-size="11" lengthAdjust="spacingAndGlyphs" textLength="211" x="42" y="442.2412">setDescription(description:String): void</text><ellipse cx="33" cy="452.488" fill="#84BE84" rx="3" ry="3" style="stroke: #038048; stroke-width: 1.0;"/><text fill="#000000" font-family="sans-serif" font-size="11" lengthAdjust="spacingAndGlyphs" textLength="94" x="42" y="455.0405">getPrice(): double</text><ellipse cx="33" cy="465.2874" fill="#84BE84" rx="3" ry="3" style="stroke: #038048; stroke-width: 1.0;"/><text fill="#000000" font-family="sans-serif" font-size="11" lengthAdjust="spacingAndGlyphs" textLength="146" x="42" y="467.8398">setPrice(price:double): void</text><ellipse cx="33" cy="478.0867" fill="#84BE84" rx="3" ry="3" style="stroke: #038048; stroke-width: 1.0;"/><text fill="#000000" font-family="sans-serif" font-size="11" lengthAdjust="spacingAndGlyphs" textLength="125" x="42" y="480.6392">printItemDetail(): String</text></a><!--class sg.edu.ntu.scse.cz2002.objects.menuitem.MenuItem.MenuItemType--><a target="_top" xlink:actuate="onRequest" xlink:href="../sg/edu/ntu/scse/cz2002/objects/menuitem/MenuItem.MenuItemType.html" xlink:show="new" xlink:title="../sg/edu/ntu/scse/cz2002/objects/menuitem/MenuItem.MenuItemType.html" xlink:type="simple"><rect fill="#FEFECE" filter="url(#f1jl2yjh3nt6fp)" height="99.1973" id="sg.edu.ntu.scse.cz2002.objects.menuitem.MenuItem.MenuItemType" style="stroke: #A80036; stroke-width: 1.5;" width="177" x="135.5" y="654"/><ellipse cx="150.5" cy="670" fill="#EB937F" rx="11" ry="11" style="stroke: #A80036; stroke-width: 1.0;"/><path d="M146.8906,676 L146.8906,663.7188 L154.5781,663.7188 L154.5781,665.3438 L149.3594,665.3438 L149.3594,668.8281 L153.7656,668.8281 L153.7656,670.3594 L149.3594,670.3594 L149.3594,674.3594 L155.0156,674.3594 L155.0156,676 L146.8906,676 Z "/><text fill="#000000" font-family="sans-serif" font-size="12" lengthAdjust="spacingAndGlyphs" textLength="145" x="164.5" y="674.4209">MenuItem.MenuItemType</text><line style="stroke: #A80036; stroke-width: 1.5;" x1="136.5" x2="311.5" y1="686" y2="686"/><ellipse cx="146.5" cy="697.8997" fill="none" rx="3" ry="3" style="stroke: #038048; stroke-width: 1.0;"/><text fill="#000000" font-family="sans-serif" font-size="11" lengthAdjust="spacingAndGlyphs" text-decoration="underline" textLength="21" x="155.5" y="700.4521">TBA</text><line style="stroke: #000000; stroke-width: 1.0;" x1="155.5" x2="176.5" y1="702.4521" y2="702.4521"/><ellipse cx="146.5" cy="710.699" fill="none" rx="3" ry="3" style="stroke: #038048; stroke-width: 1.0;"/><text fill="#000000" font-family="sans-serif" font-size="11" lengthAdjust="spacingAndGlyphs" text-decoration="underline" textLength="28" x="155.5" y="713.2515">MAIN</text><line style="stroke: #000000; stroke-width: 1.0;" x1="155.5" x2="183.5" y1="715.2515" y2="715.2515"/><ellipse cx="146.5" cy="723.4983" fill="none" rx="3" ry="3" style="stroke: #038048; stroke-width: 1.0;"/><text fill="#000000" font-family="sans-serif" font-size="11" lengthAdjust="spacingAndGlyphs" text-decoration="underline" textLength="46" x="155.5" y="726.0508">DESSERT</text><line style="stroke: #000000; stroke-width: 1.0;" x1="155.5" x2="201.5" y1="728.0508" y2="728.0508"/><ellipse cx="146.5" cy="736.2976" fill="none" rx="3" ry="3" style="stroke: #038048; stroke-width: 1.0;"/><text fill="#000000" font-family="sans-serif" font-size="11" lengthAdjust="spacingAndGlyphs" text-decoration="underline" textLength="33" x="155.5" y="738.8501">DRINK</text><line style="stroke: #000000; stroke-width: 1.0;" x1="155.5" x2="188.5" y1="740.8501" y2="740.8501"/><line style="stroke: #A80036; stroke-width: 1.5;" x1="136.5" x2="311.5" y1="745.1973" y2="745.1973"/></a><!--class sg.edu.ntu.scse.cz2002.objects.menuitem.ItemNotFoundException--><a target="_top" xlink:actuate="onRequest" xlink:href="../sg/edu/ntu/scse/cz2002/objects/menuitem/ItemNotFoundException.html" xlink:show="new" xlink:title="../sg/edu/ntu/scse/cz2002/objects/menuitem/ItemNotFoundException.html" xlink:type="simple"><rect fill="#FEFECE" filter="url(#f1jl2yjh3nt6fp)" height="60.7993" id="sg.edu.ntu.scse.cz2002.objects.menuitem.ItemNotFoundException" style="stroke: #A80036; stroke-width: 1.5;" width="245" x="1137.5" y="304.5"/><ellipse cx="1187.75" cy="320.5" fill="#ADD1B2" rx="11" ry="11" style="stroke: #A80036; stroke-width: 1.0;"/><path d="M1191.5781,326.1563 Q1189.7031,326.8125 1187.8906,326.8125 Q1185.2969,326.8125 1183.7109,325.0313 Q1182.125,323.25 1182.125,320.3438 Q1182.125,317.6563 1183.5313,315.8906 Q1184.3906,314.8125 1185.5078,314.3594 Q1186.625,313.9063 1188.4063,313.9063 Q1190.125,313.9063 1191.5781,314.2656 L1191.5781,316.25 Q1189.7031,315.5469 1188.4531,315.5469 Q1186.7656,315.5469 1185.7734,316.8672 Q1184.7813,318.1875 1184.7813,320.4219 Q1184.7813,322.4688 1185.8203,323.7656 Q1186.8594,325.0625 1188.5,325.0625 Q1189.8906,325.0625 1191.5781,324.2813 L1191.5781,326.1563 Z "/><text fill="#000000" font-family="sans-serif" font-size="12" lengthAdjust="spacingAndGlyphs" textLength="136" x="1208.25" y="324.9209">ItemNotFoundException</text><line style="stroke: #A80036; stroke-width: 1.5;" x1="1138.5" x2="1381.5" y1="336.5" y2="336.5"/><line style="stroke: #A80036; stroke-width: 1.5;" x1="1138.5" x2="1381.5" y1="344.5" y2="344.5"/><ellipse cx="1148.5" cy="356.3997" fill="#84BE84" rx="3" ry="3" style="stroke: #038048; stroke-width: 1.0;"/><text fill="#000000" font-family="sans-serif" font-size="11" lengthAdjust="spacingAndGlyphs" textLength="219" x="1157.5" y="358.9521">ItemNotFoundException(message:String)</text></a><!--class sg.edu.ntu.scse.cz2002.objects.menuitem.Promotion--><a target="_top" xlink:actuate="onRequest" xlink:href="../sg/edu/ntu/scse/cz2002/objects/menuitem/Promotion.html" xlink:show="new" xlink:title="../sg/edu/ntu/scse/cz2002/objects/menuitem/Promotion.html" xlink:type="simple"><rect fill="#FEFECE" filter="url(#f1jl2yjh3nt6fp)" height="329.585" id="sg.edu.ntu.scse.cz2002.objects.menuitem.Promotion" style="stroke: #A80036; stroke-width: 1.5;" width="641" x="461.5" y="170"/><ellipse cx="748.75" cy="186" fill="#ADD1B2" rx="11" ry="11" style="stroke: #A80036; stroke-width: 1.0;"/><path d="M752.5781,191.6563 Q750.7031,192.3125 748.8906,192.3125 Q746.2969,192.3125 744.7109,190.5313 Q743.125,188.75 743.125,185.8438 Q743.125,183.1563 744.5313,181.3906 Q745.3906,180.3125 746.5078,179.8594 Q747.625,179.4063 749.4063,179.4063 Q751.125,179.4063 752.5781,179.7656 L752.5781,181.75 Q750.7031,181.0469 749.4531,181.0469 Q747.7656,181.0469 746.7734,182.3672 Q745.7813,183.6875 745.7813,185.9219 Q745.7813,187.9688 746.8203,189.2656 Q747.8594,190.5625 749.5,190.5625 Q750.8906,190.5625 752.5781,189.7813 L752.5781,191.6563 Z "/><text fill="#000000" font-family="sans-serif" font-size="12" lengthAdjust="spacingAndGlyphs" textLength="58" x="769.25" y="190.4209">Promotion</text><line style="stroke: #A80036; stroke-width: 1.5;" x1="462.5" x2="1101.5" y1="202" y2="202"/><polygon fill="none" points="472.5,208.8997,476.5,212.8997,472.5,216.8997,468.5,212.8997" style="stroke: #B38D22; stroke-width: 1.0;"/><text fill="#000000" font-family="sans-serif" font-size="11" lengthAdjust="spacingAndGlyphs" textLength="67" x="481.5" y="216.4521">promoID: int</text><polygon fill="none" points="472.5,221.699,476.5,225.699,472.5,229.699,468.5,225.699" style="stroke: #B38D22; stroke-width: 1.0;"/><text fill="#000000" font-family="sans-serif" font-size="11" lengthAdjust="spacingAndGlyphs" textLength="104" x="481.5" y="229.2515">promoName: String</text><polygon fill="none" points="472.5,234.4983,476.5,238.4983,472.5,242.4983,468.5,238.4983" style="stroke: #B38D22; stroke-width: 1.0;"/><text fill="#000000" font-family="sans-serif" font-size="11" lengthAdjust="spacingAndGlyphs" textLength="105" x="481.5" y="242.0508">promoPrice: double</text><polygon fill="none" points="472.5,247.2976,476.5,251.2976,472.5,255.2976,468.5,251.2976" style="stroke: #B38D22; stroke-width: 1.0;"/><text fill="#000000" font-family="sans-serif" font-size="11" lengthAdjust="spacingAndGlyphs" textLength="81" x="481.5" y="254.8501">promoMain: int</text><polygon fill="none" points="472.5,260.0969,476.5,264.0969,472.5,268.0969,468.5,264.0969" style="stroke: #B38D22; stroke-width: 1.0;"/><text fill="#000000" font-family="sans-serif" font-size="11" lengthAdjust="spacingAndGlyphs" textLength="97" x="481.5" y="267.6494">promoDessert: int</text><polygon fill="none" points="472.5,272.8962,476.5,276.8962,472.5,280.8962,468.5,276.8962" style="stroke: #B38D22; stroke-width: 1.0;"/><text fill="#000000" font-family="sans-serif" font-size="11" lengthAdjust="spacingAndGlyphs" textLength="85" x="481.5" y="280.4487">promoDrink: int</text><line style="stroke: #A80036; stroke-width: 1.5;" x1="462.5" x2="1101.5" y1="286.7959" y2="286.7959"/><ellipse cx="472.5" cy="298.6956" fill="#84BE84" rx="3" ry="3" style="stroke: #038048; stroke-width: 1.0;"/><text fill="#000000" font-family="sans-serif" font-size="11" lengthAdjust="spacingAndGlyphs" textLength="615" x="481.5" y="301.248">Promotion(promoID:int, promoName:String, promoPrice:double, promoMain:int, promoDessert:int, promoDrink:int)</text><ellipse cx="472.5" cy="311.4949" fill="#84BE84" rx="3" ry="3" style="stroke: #038048; stroke-width: 1.0;"/><text fill="#000000" font-family="sans-serif" font-size="11" lengthAdjust="spacingAndGlyphs" textLength="125" x="481.5" y="314.0474">Promotion(csv:String[])</text><ellipse cx="472.5" cy="324.2942" fill="#84BE84" rx="3" ry="3" style="stroke: #038048; stroke-width: 1.0;"/><text fill="#000000" font-family="sans-serif" font-size="11" lengthAdjust="spacingAndGlyphs" textLength="85" x="481.5" y="326.8467">toCsv(): String[]</text><ellipse cx="472.5" cy="337.0935" fill="#84BE84" rx="3" ry="3" style="stroke: #038048; stroke-width: 1.0;"/><text fill="#000000" font-family="sans-serif" font-size="11" lengthAdjust="spacingAndGlyphs" textLength="91" x="481.5" y="339.646">getPromoID(): int</text><ellipse cx="472.5" cy="349.8928" fill="#84BE84" rx="3" ry="3" style="stroke: #038048; stroke-width: 1.0;"/><text fill="#000000" font-family="sans-serif" font-size="11" lengthAdjust="spacingAndGlyphs" textLength="163" x="481.5" y="352.4453">setPromoID(promoID:int): void</text><ellipse cx="472.5" cy="362.6921" fill="#84BE84" rx="3" ry="3" style="stroke: #038048; stroke-width: 1.0;"/><text fill="#000000" font-family="sans-serif" font-size="11" lengthAdjust="spacingAndGlyphs" textLength="128" x="481.5" y="365.2446">getPromoName(): String</text><ellipse cx="472.5" cy="375.4915" fill="#84BE84" rx="3" ry="3" style="stroke: #038048; stroke-width: 1.0;"/><text fill="#000000" font-family="sans-serif" font-size="11" lengthAdjust="spacingAndGlyphs" textLength="219" x="481.5" y="378.0439">setPromoName(promoName:String): void</text><ellipse cx="472.5" cy="388.2908" fill="#84BE84" rx="3" ry="3" style="stroke: #038048; stroke-width: 1.0;"/><text fill="#000000" font-family="sans-serif" font-size="11" lengthAdjust="spacingAndGlyphs" textLength="129" x="481.5" y="390.8433">getPromoPrice(): double</text><ellipse cx="472.5" cy="401.0901" fill="#84BE84" rx="3" ry="3" style="stroke: #038048; stroke-width: 1.0;"/><text fill="#000000" font-family="sans-serif" font-size="11" lengthAdjust="spacingAndGlyphs" textLength="216" x="481.5" y="403.6426">setPromoPrice(promoPrice:double): void</text><ellipse cx="472.5" cy="413.8894" fill="#84BE84" rx="3" ry="3" style="stroke: #038048; stroke-width: 1.0;"/><text fill="#000000" font-family="sans-serif" font-size="11" lengthAdjust="spacingAndGlyphs" textLength="105" x="481.5" y="416.4419">getPromoMain(): int</text><ellipse cx="472.5" cy="426.6887" fill="#84BE84" rx="3" ry="3" style="stroke: #038048; stroke-width: 1.0;"/><text fill="#000000" font-family="sans-serif" font-size="11" lengthAdjust="spacingAndGlyphs" textLength="191" x="481.5" y="429.2412">setPromoMain(promoMain:int): void</text><ellipse cx="472.5" cy="439.488" fill="#84BE84" rx="3" ry="3" style="stroke: #038048; stroke-width: 1.0;"/><text fill="#000000" font-family="sans-serif" font-size="11" lengthAdjust="spacingAndGlyphs" textLength="121" x="481.5" y="442.0405">getPromoDessert(): int</text><ellipse cx="472.5" cy="452.2874" fill="#84BE84" rx="3" ry="3" style="stroke: #038048; stroke-width: 1.0;"/><text fill="#000000" font-family="sans-serif" font-size="11" lengthAdjust="spacingAndGlyphs" textLength="223" x="481.5" y="454.8398">setPromoDessert(promoDessert:int): void</text><ellipse cx="472.5" cy="465.0867" fill="#84BE84" rx="3" ry="3" style="stroke: #038048; stroke-width: 1.0;"/><text fill="#000000" font-family="sans-serif" font-size="11" lengthAdjust="spacingAndGlyphs" textLength="109" x="481.5" y="467.6392">getPromoDrink(): int</text><ellipse cx="472.5" cy="477.886" fill="#84BE84" rx="3" ry="3" style="stroke: #038048; stroke-width: 1.0;"/><text fill="#000000" font-family="sans-serif" font-size="11" lengthAdjust="spacingAndGlyphs" textLength="199" x="481.5" y="480.4385">setPromoDrink(promoDrink:int): void</text><ellipse cx="472.5" cy="490.6853" fill="#84BE84" rx="3" ry="3" style="stroke: #038048; stroke-width: 1.0;"/><text fill="#000000" font-family="sans-serif" font-size="11" lengthAdjust="spacingAndGlyphs" textLength="158" x="481.5" y="493.2378">printPromotionDetail(): String</text></a><!--class sg.edu.ntu.scse.cz2002.util.ICsvSerializable--><rect fill="#FEFECE" filter="url(#f1jl2yjh3nt6fp)" height="60.7993" id="sg.edu.ntu.scse.cz2002.util.ICsvSerializable" style="stroke: #A80036; stroke-width: 1.5;" width="121" x="377.5" y="43"/><ellipse cx="392.5" cy="59" fill="#B4A7E5" rx="11" ry="11" style="stroke: #A80036; stroke-width: 1.0;"/><path d="M388.5156,65 L388.5156,63.3594 L391.3906,63.3594 L391.3906,54.3438 L388.5156,54.3438 L388.5156,52.7188 L396.7188,52.7188 L396.7188,54.3438 L393.8438,54.3438 L393.8438,63.3594 L396.7188,63.3594 L396.7188,65 L388.5156,65 Z "/><text fill="#000000" font-family="sans-serif" font-size="12" font-style="italic" lengthAdjust="spacingAndGlyphs" textLength="89" x="406.5" y="63.4209">ICsvSerializable</text><line style="stroke: #A80036; stroke-width: 1.5;" x1="378.5" x2="497.5" y1="75" y2="75"/><line style="stroke: #A80036; stroke-width: 1.5;" x1="378.5" x2="497.5" y1="83" y2="83"/><ellipse cx="388.5" cy="94.8997" fill="#84BE84" rx="3" ry="3" style="stroke: #038048; stroke-width: 1.0;"/><text fill="#000000" font-family="sans-serif" font-size="11" font-style="italic" lengthAdjust="spacingAndGlyphs" textLength="85" x="397.5" y="97.4521">toCsv(): String[]</text><!--class java.lang.Exception--><rect fill="#FEFECE" filter="url(#f1jl2yjh3nt6fp)" height="48" id="java.lang.Exception" style="stroke: #A80036; stroke-width: 1.5;" width="88" x="1216" y="49.5"/><ellipse cx="1231" cy="65.5" fill="#ADD1B2" rx="11" ry="11" style="stroke: #A80036; stroke-width: 1.0;"/><path d="M1234.8281,71.1563 Q1232.9531,71.8125 1231.1406,71.8125 Q1228.5469,71.8125 1226.9609,70.0313 Q1225.375,68.25 1225.375,65.3438 Q1225.375,62.6563 1226.7813,60.8906 Q1227.6406,59.8125 1228.7578,59.3594 Q1229.875,58.9063 1231.6563,58.9063 Q1233.375,58.9063 1234.8281,59.2656 L1234.8281,61.25 Q1232.9531,60.5469 1231.7031,60.5469 Q1230.0156,60.5469 1229.0234,61.8672 Q1228.0313,63.1875 1228.0313,65.4219 Q1228.0313,67.4688 1229.0703,68.7656 Q1230.1094,70.0625 1231.75,70.0625 Q1233.1406,70.0625 1234.8281,69.2813 L1234.8281,71.1563 Z "/><text fill="#000000" font-family="sans-serif" font-size="12" lengthAdjust="spacingAndGlyphs" textLength="56" x="1245" y="69.9209">Exception</text><line style="stroke: #A80036; stroke-width: 1.5;" x1="1217" x2="1303" y1="81.5" y2="81.5"/><line style="stroke: #A80036; stroke-width: 1.5;" x1="1217" x2="1303" y1="89.5" y2="89.5"/><!--link sg.edu.ntu.scse.cz2002.util.ICsvSerializable to sg.edu.ntu.scse.cz2002.objects.menuitem.MenuItem--><path d="M400.3043,119.5627 C385.4064,137.7674 367.3625,159.8163 348.5754,182.7735 " fill="none" id="sg.edu.ntu.scse.cz2002.util.ICsvSerializable-sg.edu.ntu.scse.cz2002.objects.menuitem.MenuItem" style="stroke: #A80036; stroke-width: 1.0; stroke-dasharray: 7.0,7.0;"/><polygon fill="none" points="394.949,115.0538,413.0327,104.0092,405.7835,123.9202,394.949,115.0538" style="stroke: #A80036; stroke-width: 1.0;"/><!--link sg.edu.ntu.scse.cz2002.objects.menuitem.MenuItem to sg.edu.ntu.scse.cz2002.objects.menuitem.MenuItem.MenuItemType--><path d="M215.5399,502.3222 C214.9454,532.5078 214.9405,563.6919 216,593 C216.7192,612.8944 218.1645,634.7642 219.6313,653.7603 " fill="none" id="sg.edu.ntu.scse.cz2002.objects.menuitem.MenuItem-sg.edu.ntu.scse.cz2002.objects.menuitem.MenuItem.MenuItemType" style="stroke: #A80036; stroke-width: 1.0;"/><ellipse cx="215.7055" cy="495.1199" fill="#FFFFFF" rx="8" ry="8" style="stroke: #A80036; stroke-width: 1.0;"/><line style="stroke: #A80036; stroke-width: 1.0;" x1="215.5216" x2="215.8894" y1="503.1178" y2="487.122"/><line style="stroke: #A80036; stroke-width: 1.0;" x1="207.7076" x2="223.7034" y1="494.936" y2="495.3038"/><!--link sg.edu.ntu.scse.cz2002.objects.menuitem.MenuItem to sg.edu.ntu.scse.cz2002.objects.menuitem.MenuItem.MenuItemType--><path d="M226.1654,487.2394 C226.4917,531.3583 226.5584,579.5988 226,624 C225.8994,632.0028 225.7417,640.4577 225.5581,648.7495 " fill="none" id="sg.edu.ntu.scse.cz2002.objects.menuitem.MenuItem-sg.edu.ntu.scse.cz2002.objects.menuitem.MenuItem.MenuItemType" style="stroke: #A80036; stroke-width: 1.0;"/><polygon fill="#A80036" points="225.4407,653.8858,229.6454,644.9796,225.555,648.8871,221.6475,644.7967,225.4407,653.8858" style="stroke: #A80036; stroke-width: 1.0;"/><text fill="#000000" font-family="sans-serif" font-size="13" lengthAdjust="spacingAndGlyphs" textLength="37" x="227" y="574.3525">eType</text><text fill="#000000" font-family="sans-serif" font-size="13" lengthAdjust="spacingAndGlyphs" textLength="27" x="232" y="589.479">type</text><!--link java.lang.Exception to sg.edu.ntu.scse.cz2002.objects.menuitem.ItemNotFoundException--><path d="M1260,117.677 C1260,170.6166 1260,257.9464 1260,304.137 " fill="none" id="java.lang.Exception-sg.edu.ntu.scse.cz2002.objects.menuitem.ItemNotFoundException" style="stroke: #A80036; stroke-width: 1.0;"/><polygon fill="none" points="1253.0001,117.6326,1260,97.6326,1267.0001,117.6325,1253.0001,117.6326" style="stroke: #A80036; stroke-width: 1.0;"/><!--link sg.edu.ntu.scse.cz2002.util.ICsvSerializable to sg.edu.ntu.scse.cz2002.objects.menuitem.Promotion--><path d="M494.1974,116.2198 C514.5139,131.6639 538.8555,150.1678 564.6636,169.7864 " fill="none" id="sg.edu.ntu.scse.cz2002.util.ICsvSerializable-sg.edu.ntu.scse.cz2002.objects.menuitem.Promotion" style="stroke: #A80036; stroke-width: 1.0; stroke-dasharray: 7.0,7.0;"/><polygon fill="none" points="489.8201,121.6853,478.1344,104.0092,498.2926,110.5399,489.8201,121.6853" style="stroke: #A80036; stroke-width: 1.0;"/><text fill="#888888" font-family="sans-serif" font-size="10" lengthAdjust="spacingAndGlyphs" textLength="182" x="617.5" y="788.502">UMLDoclet 1.1.3, PlantUML 1.2018.12</text><!--
@startuml

    namespace sg.edu.ntu.scse.cz2002.objects.menuitem {

        class MenuItem [[../sg/edu/ntu/scse/cz2002/objects/menuitem/MenuItem.html]] {
            #id: int
            #name: String
            #type: int
            #description: String
            #price: double
            +MenuItem(id:int, name:String, type:int, description:String, price:double)
            +MenuItem(csv:String[])
            +toCsv(): String[]
            +getId(): int
            +setId(id:int): void
            +getName(): String
            +setName(name:String): void
            +setType(type:int): void
            +convertToItemType(type:int): MenuItem.MenuItemType
            + - -convertToItemType- - (type:String): MenuItem.MenuItemType
            +getDescription(): String
            +setDescription(description:String): void
            +getPrice(): double
            +setPrice(price:double): void
            +printItemDetail(): String
        }

        enum sg.edu.ntu.scse.cz2002.objects.menuitem.MenuItem.MenuItemType [[../sg/edu/ntu/scse/cz2002/objects/menuitem/MenuItem.MenuItemType.html]] {
            {static} +TBA
            {static} +MAIN
            {static} +DESSERT
            {static} +DRINK
        }

        class ItemNotFoundException [[../sg/edu/ntu/scse/cz2002/objects/menuitem/ItemNotFoundException.html]] {
            +ItemNotFoundException(message:String)
        }

        class Promotion [[../sg/edu/ntu/scse/cz2002/objects/menuitem/Promotion.html]] {
            #promoID: int
            #promoName: String
            #promoPrice: double
            #promoMain: int
            #promoDessert: int
            #promoDrink: int
            +Promotion(promoID:int, promoName:String, promoPrice:double, promoMain:int, promoDessert:int, promoDrink:int)
            +Promotion(csv:String[])
            +toCsv(): String[]
            +getPromoID(): int
            +setPromoID(promoID:int): void
            +getPromoName(): String
            +setPromoName(promoName:String): void
            +getPromoPrice(): double
            +setPromoPrice(promoPrice:double): void
            +getPromoMain(): int
            +setPromoMain(promoMain:int): void
            +getPromoDessert(): int
            +setPromoDessert(promoDessert:int): void
            +getPromoDrink(): int
            +setPromoDrink(promoDrink:int): void
            +printPromotionDetail(): String
        }

        interface sg.edu.ntu.scse.cz2002.util.ICsvSerializable {
            {abstract} +toCsv(): String[]
        }
        sg.edu.ntu.scse.cz2002.util.ICsvSerializable <|.. MenuItem

        MenuItem +- - sg.edu.ntu.scse.cz2002.objects.menuitem.MenuItem.MenuItemType

        class java.lang.Exception
        java.lang.Exception <|- - ItemNotFoundException

        sg.edu.ntu.scse.cz2002.util.ICsvSerializable <|.. Promotion

        MenuItem - -> sg.edu.ntu.scse.cz2002.objects.menuitem.MenuItem.MenuItemType: eType\ntype

    }


    center footer UMLDoclet 1.1.3, PlantUML 1.2018.12
@enduml

PlantUML version 1.2018.12(Sun Oct 21 10:15:15 GMT 2018)
(APACHE source distribution)
Java Runtime: Java(TM) SE Runtime Environment
JVM: Java HotSpot(TM) 64-Bit Server VM
Java Version: 1.8.0_202-b08
Operating System: Linux
OS Version: 4.19.23-coreos-r1
Default Encoding: UTF-8
Language: en
Country: null
--></g></svg>