<?xml version="1.0" encoding="UTF-8" standalone="no"?><svg xmlns="http://www.w3.org/2000/svg" xmlns:xlink="http://www.w3.org/1999/xlink" contentScriptType="application/ecmascript" contentStyleType="text/css" height="1063px" preserveAspectRatio="none" style="width:1253px;height:1063px;" version="1.1" viewBox="0 0 1253 1063" width="1253px" zoomAndPan="magnify"><defs><filter height="300%" id="f1t19057kjq7e6" width="300%" x="-1" y="-1"><feGaussianBlur result="blurOut" stdDeviation="2.0"/><feColorMatrix in="blurOut" result="blurOut2" type="matrix" values="0 0 0 0 0 0 0 0 0 0 0 0 0 0 0 0 0 0 .4 0"/><feOffset dx="4.0" dy="4.0" in="blurOut2" result="blurOut3"/><feBlend in="SourceGraphic" in2="blurOut3" mode="normal"/></filter></defs><g><!--cluster sg.edu.ntu.scse.cz2002.features--><polygon fill="#FFFFFF" filter="url(#f1t19057kjq7e6)" points="14,143,243,143,250,165.29,1139,165.29,1139,1022,14,1022,14,143" style="stroke: #000000; stroke-width: 1.5;"/><line style="stroke: #000000; stroke-width: 1.5;" x1="14" x2="250" y1="165.29" y2="165.29"/><text fill="#000000" font-family="sans-serif" font-size="14" font-weight="bold" lengthAdjust="spacingAndGlyphs" textLength="223" x="18" y="158.3369">sg.edu.ntu.scse.cz2002.features</text><!--cluster sg.edu.ntu.scse.cz2002.util--><polygon fill="#FFFFFF" filter="url(#f1t19057kjq7e6)" points="595,16,790,16,797,38.29,800,38.29,800,112,595,112,595,16" style="stroke: #000000; stroke-width: 1.5;"/><line style="stroke: #000000; stroke-width: 1.5;" x1="595" x2="797" y1="38.29" y2="38.29"/><text fill="#000000" font-family="sans-serif" font-size="14" font-weight="bold" lengthAdjust="spacingAndGlyphs" textLength="189" x="599" y="31.3369">sg.edu.ntu.scse.cz2002.util</text><!--class sg.edu.ntu.scse.cz2002.features.OrderItem--><rect fill="#FEFECE" filter="url(#f1t19057kjq7e6)" height="175.9932" id="sg.edu.ntu.scse.cz2002.features.OrderItem" style="stroke: #A80036; stroke-width: 1.5;" width="268" x="863" y="227.5"/><ellipse cx="963.25" cy="243.5" fill="#ADD1B2" rx="11" ry="11" style="stroke: #A80036; stroke-width: 1.0;"/><path d="M967.0781,249.1563 Q965.2031,249.8125 963.3906,249.8125 Q960.7969,249.8125 959.2109,248.0313 Q957.625,246.25 957.625,243.3438 Q957.625,240.6563 959.0313,238.8906 Q959.8906,237.8125 961.0078,237.3594 Q962.125,236.9063 963.9063,236.9063 Q965.625,236.9063 967.0781,237.2656 L967.0781,239.25 Q965.2031,238.5469 963.9531,238.5469 Q962.2656,238.5469 961.2734,239.8672 Q960.2813,241.1875 960.2813,243.4219 Q960.2813,245.4688 961.3203,246.7656 Q962.3594,248.0625 964,248.0625 Q965.3906,248.0625 967.0781,247.2813 L967.0781,249.1563 Z "/><text fill="#000000" font-family="sans-serif" font-size="12" lengthAdjust="spacingAndGlyphs" textLength="59" x="983.75" y="247.9209">OrderItem</text><line style="stroke: #A80036; stroke-width: 1.5;" x1="864" x2="1130" y1="259.5" y2="259.5"/><line style="stroke: #A80036; stroke-width: 1.5;" x1="864" x2="1130" y1="267.5" y2="267.5"/><ellipse cx="874" cy="279.3997" fill="#84BE84" rx="3" ry="3" style="stroke: #038048; stroke-width: 1.0;"/><text fill="#000000" font-family="sans-serif" font-size="11" lengthAdjust="spacingAndGlyphs" textLength="103" x="883" y="281.9521">OrderItem(String[])</text><ellipse cx="874" cy="292.199" fill="#84BE84" rx="3" ry="3" style="stroke: #038048; stroke-width: 1.0;"/><text fill="#000000" font-family="sans-serif" font-size="11" lengthAdjust="spacingAndGlyphs" textLength="242" x="883" y="294.7515">OrderItem(int, int, OrderItem.OrderItemType)</text><ellipse cx="874" cy="304.9983" fill="#84BE84" rx="3" ry="3" style="stroke: #038048; stroke-width: 1.0;"/><text fill="#000000" font-family="sans-serif" font-size="11" lengthAdjust="spacingAndGlyphs" textLength="140" x="883" y="307.5508">toCompiledString(): String</text><ellipse cx="874" cy="317.7976" fill="#84BE84" rx="3" ry="3" style="stroke: #038048; stroke-width: 1.0;"/><text fill="#000000" font-family="sans-serif" font-size="11" lengthAdjust="spacingAndGlyphs" textLength="89" x="883" y="320.3501">getItem(): Object</text><ellipse cx="874" cy="330.5969" fill="#84BE84" rx="3" ry="3" style="stroke: #038048; stroke-width: 1.0;"/><text fill="#000000" font-family="sans-serif" font-size="11" lengthAdjust="spacingAndGlyphs" textLength="116" x="883" y="333.1494">getItemName(): String</text><ellipse cx="874" cy="343.3962" fill="#84BE84" rx="3" ry="3" style="stroke: #038048; stroke-width: 1.0;"/><text fill="#000000" font-family="sans-serif" font-size="11" lengthAdjust="spacingAndGlyphs" textLength="91" x="883" y="345.9487">getQuantity(): int</text><ellipse cx="874" cy="356.1956" fill="#84BE84" rx="3" ry="3" style="stroke: #038048; stroke-width: 1.0;"/><text fill="#000000" font-family="sans-serif" font-size="11" lengthAdjust="spacingAndGlyphs" textLength="113" x="883" y="358.748">setQuantity(int): void</text><ellipse cx="874" cy="368.9949" fill="#84BE84" rx="3" ry="3" style="stroke: #038048; stroke-width: 1.0;"/><text fill="#000000" font-family="sans-serif" font-size="11" lengthAdjust="spacingAndGlyphs" textLength="122" x="883" y="371.5474">isPromotion(): boolean</text><ellipse cx="874" cy="381.7942" fill="#84BE84" rx="3" ry="3" style="stroke: #038048; stroke-width: 1.0;"/><text fill="#000000" font-family="sans-serif" font-size="11" lengthAdjust="spacingAndGlyphs" textLength="118" x="883" y="384.3467">getItemTotal(): double</text><ellipse cx="874" cy="394.5935" fill="#84BE84" rx="3" ry="3" style="stroke: #038048; stroke-width: 1.0;"/><text fill="#000000" font-family="sans-serif" font-size="11" lengthAdjust="spacingAndGlyphs" textLength="111" x="883" y="397.146">calculateTotal(): void</text><!--class sg.edu.ntu.scse.cz2002.features.OrderItem.OrderItemType--><rect fill="#FEFECE" filter="url(#f1t19057kjq7e6)" height="73.5986" id="sg.edu.ntu.scse.cz2002.features.OrderItem.OrderItemType" style="stroke: #A80036; stroke-width: 1.5;" width="183" x="947.5" y="644.5"/><ellipse cx="962.5" cy="660.5" fill="#EB937F" rx="11" ry="11" style="stroke: #A80036; stroke-width: 1.0;"/><path d="M958.8906,666.5 L958.8906,654.2188 L966.5781,654.2188 L966.5781,655.8438 L961.3594,655.8438 L961.3594,659.3281 L965.7656,659.3281 L965.7656,660.8594 L961.3594,660.8594 L961.3594,664.8594 L967.0156,664.8594 L967.0156,666.5 L958.8906,666.5 Z "/><text fill="#000000" font-family="sans-serif" font-size="12" lengthAdjust="spacingAndGlyphs" textLength="151" x="976.5" y="664.9209">OrderItem.OrderItemType</text><line style="stroke: #A80036; stroke-width: 1.5;" x1="948.5" x2="1129.5" y1="676.5" y2="676.5"/><ellipse cx="958.5" cy="688.3997" fill="none" rx="3" ry="3" style="stroke: #038048; stroke-width: 1.0;"/><text fill="#000000" font-family="sans-serif" font-size="11" lengthAdjust="spacingAndGlyphs" text-decoration="underline" textLength="63" x="967.5" y="690.9521">TYPE_MENU</text><line style="stroke: #000000; stroke-width: 1.0;" x1="967.5" x2="1030.5" y1="692.9521" y2="692.9521"/><ellipse cx="958.5" cy="701.199" fill="none" rx="3" ry="3" style="stroke: #038048; stroke-width: 1.0;"/><text fill="#000000" font-family="sans-serif" font-size="11" lengthAdjust="spacingAndGlyphs" text-decoration="underline" textLength="72" x="967.5" y="703.7515">TYPE_PROMO</text><line style="stroke: #000000; stroke-width: 1.0;" x1="967.5" x2="1039.5" y1="705.7515" y2="705.7515"/><line style="stroke: #A80036; stroke-width: 1.5;" x1="948.5" x2="1129.5" y1="710.0986" y2="710.0986"/><!--class sg.edu.ntu.scse.cz2002.features.Reservation--><rect fill="#FEFECE" filter="url(#f1t19057kjq7e6)" height="291.187" id="sg.edu.ntu.scse.cz2002.features.Reservation" style="stroke: #A80036; stroke-width: 1.5;" width="402" x="129" y="170"/><ellipse cx="292.25" cy="186" fill="#ADD1B2" rx="11" ry="11" style="stroke: #A80036; stroke-width: 1.0;"/><path d="M296.0781,191.6563 Q294.2031,192.3125 292.3906,192.3125 Q289.7969,192.3125 288.2109,190.5313 Q286.625,188.75 286.625,185.8438 Q286.625,183.1563 288.0313,181.3906 Q288.8906,180.3125 290.0078,179.8594 Q291.125,179.4063 292.9063,179.4063 Q294.625,179.4063 296.0781,179.7656 L296.0781,181.75 Q294.2031,181.0469 292.9531,181.0469 Q291.2656,181.0469 290.2734,182.3672 Q289.2813,183.6875 289.2813,185.9219 Q289.2813,187.9688 290.3203,189.2656 Q291.3594,190.5625 293,190.5625 Q294.3906,190.5625 296.0781,189.7813 L296.0781,191.6563 Z "/><text fill="#000000" font-family="sans-serif" font-size="12" lengthAdjust="spacingAndGlyphs" textLength="67" x="312.75" y="190.4209">Reservation</text><line style="stroke: #A80036; stroke-width: 1.5;" x1="130" x2="530" y1="202" y2="202"/><line style="stroke: #A80036; stroke-width: 1.5;" x1="130" x2="530" y1="210" y2="210"/><ellipse cx="140" cy="221.8997" fill="#84BE84" rx="3" ry="3" style="stroke: #038048; stroke-width: 1.0;"/><text fill="#000000" font-family="sans-serif" font-size="11" lengthAdjust="spacingAndGlyphs" textLength="349" x="149" y="224.4521">Reservation(int, LocalDate, LocalTime, char, String, String, int, int)</text><ellipse cx="140" cy="234.699" fill="#84BE84" rx="3" ry="3" style="stroke: #038048; stroke-width: 1.0;"/><text fill="#000000" font-family="sans-serif" font-size="11" lengthAdjust="spacingAndGlyphs" textLength="111" x="149" y="237.2515">Reservation(String[])</text><ellipse cx="140" cy="247.4983" fill="#84BE84" rx="3" ry="3" style="stroke: #038048; stroke-width: 1.0;"/><text fill="#000000" font-family="sans-serif" font-size="11" lengthAdjust="spacingAndGlyphs" textLength="85" x="149" y="250.0508">toCsv(): String[]</text><ellipse cx="140" cy="260.2976" fill="#84BE84" rx="3" ry="3" style="stroke: #038048; stroke-width: 1.0;"/><text fill="#000000" font-family="sans-serif" font-size="11" lengthAdjust="spacingAndGlyphs" textLength="80" x="149" y="262.8501">getResvId(): int</text><ellipse cx="140" cy="273.0969" fill="#84BE84" rx="3" ry="3" style="stroke: #038048; stroke-width: 1.0;"/><text fill="#000000" font-family="sans-serif" font-size="11" lengthAdjust="spacingAndGlyphs" textLength="102" x="149" y="275.6494">setResvId(int): void</text><ellipse cx="140" cy="285.8962" fill="#84BE84" rx="3" ry="3" style="stroke: #038048; stroke-width: 1.0;"/><text fill="#000000" font-family="sans-serif" font-size="11" lengthAdjust="spacingAndGlyphs" textLength="132" x="149" y="288.4487">getResvDate(): LocalDate</text><ellipse cx="140" cy="298.6956" fill="#84BE84" rx="3" ry="3" style="stroke: #038048; stroke-width: 1.0;"/><text fill="#000000" font-family="sans-serif" font-size="11" lengthAdjust="spacingAndGlyphs" textLength="154" x="149" y="301.248">setResvDate(LocalDate): void</text><ellipse cx="140" cy="311.4949" fill="#84BE84" rx="3" ry="3" style="stroke: #038048; stroke-width: 1.0;"/><text fill="#000000" font-family="sans-serif" font-size="11" lengthAdjust="spacingAndGlyphs" textLength="136" x="149" y="314.0474">getResvTime(): LocalTime</text><ellipse cx="140" cy="324.2942" fill="#84BE84" rx="3" ry="3" style="stroke: #038048; stroke-width: 1.0;"/><text fill="#000000" font-family="sans-serif" font-size="11" lengthAdjust="spacingAndGlyphs" textLength="158" x="149" y="326.8467">setResvTime(LocalTime): void</text><ellipse cx="140" cy="337.0935" fill="#84BE84" rx="3" ry="3" style="stroke: #038048; stroke-width: 1.0;"/><text fill="#000000" font-family="sans-serif" font-size="11" lengthAdjust="spacingAndGlyphs" textLength="89" x="149" y="339.646">getNumPax(): int</text><ellipse cx="140" cy="349.8928" fill="#84BE84" rx="3" ry="3" style="stroke: #038048; stroke-width: 1.0;"/><text fill="#000000" font-family="sans-serif" font-size="11" lengthAdjust="spacingAndGlyphs" textLength="111" x="149" y="352.4453">setNumPax(int): void</text><ellipse cx="140" cy="362.6921" fill="#84BE84" rx="3" ry="3" style="stroke: #038048; stroke-width: 1.0;"/><text fill="#000000" font-family="sans-serif" font-size="11" lengthAdjust="spacingAndGlyphs" textLength="118" x="149" y="365.2446">getCustName(): String</text><ellipse cx="140" cy="375.4915" fill="#84BE84" rx="3" ry="3" style="stroke: #038048; stroke-width: 1.0;"/><text fill="#000000" font-family="sans-serif" font-size="11" lengthAdjust="spacingAndGlyphs" textLength="140" x="149" y="378.0439">setCustName(String): void</text><ellipse cx="140" cy="388.2908" fill="#84BE84" rx="3" ry="3" style="stroke: #038048; stroke-width: 1.0;"/><text fill="#000000" font-family="sans-serif" font-size="11" lengthAdjust="spacingAndGlyphs" textLength="119" x="149" y="390.8433">getCustTelNo(): String</text><ellipse cx="140" cy="401.0901" fill="#84BE84" rx="3" ry="3" style="stroke: #038048; stroke-width: 1.0;"/><text fill="#000000" font-family="sans-serif" font-size="11" lengthAdjust="spacingAndGlyphs" textLength="141" x="149" y="403.6426">setCustTelNo(String): void</text><ellipse cx="140" cy="413.8894" fill="#84BE84" rx="3" ry="3" style="stroke: #038048; stroke-width: 1.0;"/><text fill="#000000" font-family="sans-serif" font-size="11" lengthAdjust="spacingAndGlyphs" textLength="99" x="149" y="416.4419">getTableNum(): int</text><ellipse cx="140" cy="426.6887" fill="#84BE84" rx="3" ry="3" style="stroke: #038048; stroke-width: 1.0;"/><text fill="#000000" font-family="sans-serif" font-size="11" lengthAdjust="spacingAndGlyphs" textLength="121" x="149" y="429.2412">setTableNum(int): void</text><ellipse cx="140" cy="439.488" fill="#84BE84" rx="3" ry="3" style="stroke: #038048; stroke-width: 1.0;"/><text fill="#000000" font-family="sans-serif" font-size="11" lengthAdjust="spacingAndGlyphs" text-decoration="underline" textLength="157" x="149" y="442.0405">hasReservation(String): Table</text><line style="stroke: #000000; stroke-width: 1.0;" x1="149" x2="306" y1="444.0405" y2="444.0405"/><ellipse cx="140" cy="452.2874" fill="#84BE84" rx="3" ry="3" style="stroke: #038048; stroke-width: 1.0;"/><text fill="#000000" font-family="sans-serif" font-size="11" lengthAdjust="spacingAndGlyphs" text-decoration="underline" textLength="376" x="149" y="454.8398">getTablesBookedOnDateBySession(LocalDate, char): ArrayList&lt;Table&gt;</text><line style="stroke: #000000; stroke-width: 1.0;" x1="149" x2="525" y1="456.8398" y2="456.8398"/><!--class sg.edu.ntu.scse.cz2002.features.Reservation.ReservationSession--><rect fill="#FEFECE" filter="url(#f1t19057kjq7e6)" height="73.5986" id="sg.edu.ntu.scse.cz2002.features.Reservation.ReservationSession" style="stroke: #A80036; stroke-width: 1.5;" width="212" x="102" y="644.5"/><ellipse cx="117" cy="660.5" fill="#EB937F" rx="11" ry="11" style="stroke: #A80036; stroke-width: 1.0;"/><path d="M113.3906,666.5 L113.3906,654.2188 L121.0781,654.2188 L121.0781,655.8438 L115.8594,655.8438 L115.8594,659.3281 L120.2656,659.3281 L120.2656,660.8594 L115.8594,660.8594 L115.8594,664.8594 L121.5156,664.8594 L121.5156,666.5 L113.3906,666.5 Z "/><text fill="#000000" font-family="sans-serif" font-size="12" lengthAdjust="spacingAndGlyphs" textLength="180" x="131" y="664.9209">Reservation.ReservationSession</text><line style="stroke: #A80036; stroke-width: 1.5;" x1="103" x2="313" y1="676.5" y2="676.5"/><ellipse cx="113" cy="688.3997" fill="none" rx="3" ry="3" style="stroke: #038048; stroke-width: 1.0;"/><text fill="#000000" font-family="sans-serif" font-size="11" lengthAdjust="spacingAndGlyphs" text-decoration="underline" textLength="67" x="122" y="690.9521">AM_SESSION</text><line style="stroke: #000000; stroke-width: 1.0;" x1="122" x2="189" y1="692.9521" y2="692.9521"/><ellipse cx="113" cy="701.199" fill="none" rx="3" ry="3" style="stroke: #038048; stroke-width: 1.0;"/><text fill="#000000" font-family="sans-serif" font-size="11" lengthAdjust="spacingAndGlyphs" text-decoration="underline" textLength="65" x="122" y="703.7515">PM_SESSION</text><line style="stroke: #000000; stroke-width: 1.0;" x1="122" x2="187" y1="705.7515" y2="705.7515"/><line style="stroke: #A80036; stroke-width: 1.5;" x1="103" x2="313" y1="710.0986" y2="710.0986"/><!--class sg.edu.ntu.scse.cz2002.features.Order--><rect fill="#FEFECE" filter="url(#f1t19057kjq7e6)" height="252.7891" id="sg.edu.ntu.scse.cz2002.features.Order" style="stroke: #A80036; stroke-width: 1.5;" width="262" x="566" y="189"/><ellipse cx="675.75" cy="205" fill="#ADD1B2" rx="11" ry="11" style="stroke: #A80036; stroke-width: 1.0;"/><path d="M679.5781,210.6563 Q677.7031,211.3125 675.8906,211.3125 Q673.2969,211.3125 671.7109,209.5313 Q670.125,207.75 670.125,204.8438 Q670.125,202.1563 671.5313,200.3906 Q672.3906,199.3125 673.5078,198.8594 Q674.625,198.4063 676.4063,198.4063 Q678.125,198.4063 679.5781,198.7656 L679.5781,200.75 Q677.7031,200.0469 676.4531,200.0469 Q674.7656,200.0469 673.7734,201.3672 Q672.7813,202.6875 672.7813,204.9219 Q672.7813,206.9688 673.8203,208.2656 Q674.8594,209.5625 676.5,209.5625 Q677.8906,209.5625 679.5781,208.7813 L679.5781,210.6563 Z "/><text fill="#000000" font-family="sans-serif" font-size="12" lengthAdjust="spacingAndGlyphs" textLength="34" x="696.25" y="209.4209">Order</text><line style="stroke: #A80036; stroke-width: 1.5;" x1="567" x2="827" y1="221" y2="221"/><line style="stroke: #A80036; stroke-width: 1.5;" x1="567" x2="827" y1="229" y2="229"/><ellipse cx="577" cy="240.8997" fill="#84BE84" rx="3" ry="3" style="stroke: #038048; stroke-width: 1.0;"/><text fill="#000000" font-family="sans-serif" font-size="11" lengthAdjust="spacingAndGlyphs" textLength="54" x="586" y="243.4521">Order(int)</text><ellipse cx="577" cy="253.699" fill="#84BE84" rx="3" ry="3" style="stroke: #038048; stroke-width: 1.0;"/><text fill="#000000" font-family="sans-serif" font-size="11" lengthAdjust="spacingAndGlyphs" textLength="80" x="586" y="256.2515">Order(String[])</text><ellipse cx="577" cy="266.4983" fill="#84BE84" rx="3" ry="3" style="stroke: #038048; stroke-width: 1.0;"/><text fill="#000000" font-family="sans-serif" font-size="11" lengthAdjust="spacingAndGlyphs" textLength="85" x="586" y="269.0508">toCsv(): String[]</text><ellipse cx="577" cy="279.2976" fill="#84BE84" rx="3" ry="3" style="stroke: #038048; stroke-width: 1.0;"/><text fill="#000000" font-family="sans-serif" font-size="11" lengthAdjust="spacingAndGlyphs" textLength="88" x="586" y="281.8501">getOrderID(): int</text><ellipse cx="577" cy="292.0969" fill="#84BE84" rx="3" ry="3" style="stroke: #038048; stroke-width: 1.0;"/><text fill="#000000" font-family="sans-serif" font-size="11" lengthAdjust="spacingAndGlyphs" textLength="214" x="586" y="294.6494">getOrderItems(): ArrayList&lt;OrderItem&gt;</text><ellipse cx="577" cy="304.8962" fill="#84BE84" rx="3" ry="3" style="stroke: #038048; stroke-width: 1.0;"/><text fill="#000000" font-family="sans-serif" font-size="11" lengthAdjust="spacingAndGlyphs" textLength="236" x="586" y="307.4487">setOrderItems(ArrayList&lt;OrderItem&gt;): void</text><ellipse cx="577" cy="317.6956" fill="#84BE84" rx="3" ry="3" style="stroke: #038048; stroke-width: 1.0;"/><text fill="#000000" font-family="sans-serif" font-size="11" lengthAdjust="spacingAndGlyphs" textLength="112" x="586" y="320.248">getSubtotal(): double</text><ellipse cx="577" cy="330.4949" fill="#84BE84" rx="3" ry="3" style="stroke: #038048; stroke-width: 1.0;"/><text fill="#000000" font-family="sans-serif" font-size="11" lengthAdjust="spacingAndGlyphs" textLength="128" x="586" y="333.0474">calculateSubtotal(): void</text><ellipse cx="577" cy="343.2942" fill="#84BE84" rx="3" ry="3" style="stroke: #038048; stroke-width: 1.0;"/><text fill="#000000" font-family="sans-serif" font-size="11" lengthAdjust="spacingAndGlyphs" textLength="86" x="586" y="345.8467">markPaid(): void</text><ellipse cx="577" cy="356.0935" fill="#84BE84" rx="3" ry="3" style="stroke: #038048; stroke-width: 1.0;"/><text fill="#000000" font-family="sans-serif" font-size="11" lengthAdjust="spacingAndGlyphs" textLength="109" x="586" y="358.646">getCreatedAt(): long</text><ellipse cx="577" cy="368.8928" fill="#84BE84" rx="3" ry="3" style="stroke: #038048; stroke-width: 1.0;"/><text fill="#000000" font-family="sans-serif" font-size="11" lengthAdjust="spacingAndGlyphs" textLength="125" x="586" y="371.4453">getCompletedAt(): long</text><ellipse cx="577" cy="381.6921" fill="#84BE84" rx="3" ry="3" style="stroke: #038048; stroke-width: 1.0;"/><text fill="#000000" font-family="sans-serif" font-size="11" lengthAdjust="spacingAndGlyphs" textLength="79" x="586" y="384.2446">getStaffId(): int</text><ellipse cx="577" cy="394.4915" fill="#84BE84" rx="3" ry="3" style="stroke: #038048; stroke-width: 1.0;"/><text fill="#000000" font-family="sans-serif" font-size="11" lengthAdjust="spacingAndGlyphs" textLength="101" x="586" y="397.0439">setStaffId(int): void</text><ellipse cx="577" cy="407.2908" fill="#84BE84" rx="3" ry="3" style="stroke: #038048; stroke-width: 1.0;"/><text fill="#000000" font-family="sans-serif" font-size="11" lengthAdjust="spacingAndGlyphs" textLength="84" x="586" y="409.8433">getTableId(): int</text><ellipse cx="577" cy="420.0901" fill="#84BE84" rx="3" ry="3" style="stroke: #038048; stroke-width: 1.0;"/><text fill="#000000" font-family="sans-serif" font-size="11" lengthAdjust="spacingAndGlyphs" textLength="106" x="586" y="422.6426">setTableId(int): void</text><ellipse cx="577" cy="432.8894" fill="#84BE84" rx="3" ry="3" style="stroke: #038048; stroke-width: 1.0;"/><text fill="#000000" font-family="sans-serif" font-size="11" lengthAdjust="spacingAndGlyphs" textLength="79" x="586" y="435.4419">getStaff(): Staff</text><!--class sg.edu.ntu.scse.cz2002.features.Order.OrderState--><rect fill="#FEFECE" filter="url(#f1t19057kjq7e6)" height="73.5986" id="sg.edu.ntu.scse.cz2002.features.Order.OrderState" style="stroke: #A80036; stroke-width: 1.5;" width="132" x="349" y="644.5"/><ellipse cx="364" cy="660.5" fill="#EB937F" rx="11" ry="11" style="stroke: #A80036; stroke-width: 1.0;"/><path d="M360.3906,666.5 L360.3906,654.2188 L368.0781,654.2188 L368.0781,655.8438 L362.8594,655.8438 L362.8594,659.3281 L367.2656,659.3281 L367.2656,660.8594 L362.8594,660.8594 L362.8594,664.8594 L368.5156,664.8594 L368.5156,666.5 L360.3906,666.5 Z "/><text fill="#000000" font-family="sans-serif" font-size="12" lengthAdjust="spacingAndGlyphs" textLength="100" x="378" y="664.9209">Order.OrderState</text><line style="stroke: #A80036; stroke-width: 1.5;" x1="350" x2="480" y1="676.5" y2="676.5"/><ellipse cx="360" cy="688.3997" fill="none" rx="3" ry="3" style="stroke: #038048; stroke-width: 1.0;"/><text fill="#000000" font-family="sans-serif" font-size="11" lengthAdjust="spacingAndGlyphs" text-decoration="underline" textLength="68" x="369" y="690.9521">ORDER_PAID</text><line style="stroke: #000000; stroke-width: 1.0;" x1="369" x2="437" y1="692.9521" y2="692.9521"/><ellipse cx="360" cy="701.199" fill="none" rx="3" ry="3" style="stroke: #038048; stroke-width: 1.0;"/><text fill="#000000" font-family="sans-serif" font-size="11" lengthAdjust="spacingAndGlyphs" text-decoration="underline" textLength="84" x="369" y="703.7515">ORDER_UNPAID</text><line style="stroke: #000000; stroke-width: 1.0;" x1="369" x2="453" y1="705.7515" y2="705.7515"/><line style="stroke: #A80036; stroke-width: 1.5;" x1="350" x2="480" y1="710.0986" y2="710.0986"/><!--class sg.edu.ntu.scse.cz2002.features.Invoice--><rect fill="#FEFECE" filter="url(#f1t19057kjq7e6)" height="48" id="sg.edu.ntu.scse.cz2002.features.Invoice" style="stroke: #A80036; stroke-width: 1.5;" width="71" x="22.5" y="291.5"/><ellipse cx="37.5" cy="307.5" fill="#ADD1B2" rx="11" ry="11" style="stroke: #A80036; stroke-width: 1.0;"/><path d="M41.3281,313.1563 Q39.4531,313.8125 37.6406,313.8125 Q35.0469,313.8125 33.4609,312.0313 Q31.875,310.25 31.875,307.3438 Q31.875,304.6563 33.2813,302.8906 Q34.1406,301.8125 35.2578,301.3594 Q36.375,300.9063 38.1563,300.9063 Q39.875,300.9063 41.3281,301.2656 L41.3281,303.25 Q39.4531,302.5469 38.2031,302.5469 Q36.5156,302.5469 35.5234,303.8672 Q34.5313,305.1875 34.5313,307.4219 Q34.5313,309.4688 35.5703,310.7656 Q36.6094,312.0625 38.25,312.0625 Q39.6406,312.0625 41.3281,311.2813 L41.3281,313.1563 Z "/><text fill="#000000" font-family="sans-serif" font-size="12" lengthAdjust="spacingAndGlyphs" textLength="39" x="51.5" y="311.9209">Invoice</text><line style="stroke: #A80036; stroke-width: 1.5;" x1="23.5" x2="92.5" y1="323.5" y2="323.5"/><line style="stroke: #A80036; stroke-width: 1.5;" x1="23.5" x2="92.5" y1="331.5" y2="331.5"/><!--class sg.edu.ntu.scse.cz2002.features.Table--><rect fill="#FEFECE" filter="url(#f1t19057kjq7e6)" height="163.1938" id="sg.edu.ntu.scse.cz2002.features.Table" style="stroke: #A80036; stroke-width: 1.5;" width="396" x="516" y="600"/><ellipse cx="693.25" cy="616" fill="#ADD1B2" rx="11" ry="11" style="stroke: #A80036; stroke-width: 1.0;"/><path d="M697.0781,621.6563 Q695.2031,622.3125 693.3906,622.3125 Q690.7969,622.3125 689.2109,620.5313 Q687.625,618.75 687.625,615.8438 Q687.625,613.1563 689.0313,611.3906 Q689.8906,610.3125 691.0078,609.8594 Q692.125,609.4063 693.9063,609.4063 Q695.625,609.4063 697.0781,609.7656 L697.0781,611.75 Q695.2031,611.0469 693.9531,611.0469 Q692.2656,611.0469 691.2734,612.3672 Q690.2813,613.6875 690.2813,615.9219 Q690.2813,617.9688 691.3203,619.2656 Q692.3594,620.5625 694,620.5625 Q695.3906,620.5625 697.0781,619.7813 L697.0781,621.6563 Z "/><text fill="#000000" font-family="sans-serif" font-size="12" lengthAdjust="spacingAndGlyphs" textLength="33" x="713.75" y="620.4209">Table</text><line style="stroke: #A80036; stroke-width: 1.5;" x1="517" x2="911" y1="632" y2="632"/><line style="stroke: #A80036; stroke-width: 1.5;" x1="517" x2="911" y1="640" y2="640"/><ellipse cx="527" cy="651.8997" fill="#84BE84" rx="3" ry="3" style="stroke: #038048; stroke-width: 1.0;"/><text fill="#000000" font-family="sans-serif" font-size="11" lengthAdjust="spacingAndGlyphs" textLength="140" x="536" y="654.4521">Table(int, boolean, int, int)</text><ellipse cx="527" cy="664.699" fill="#84BE84" rx="3" ry="3" style="stroke: #038048; stroke-width: 1.0;"/><text fill="#000000" font-family="sans-serif" font-size="11" lengthAdjust="spacingAndGlyphs" textLength="77" x="536" y="667.2515">Table(String[])</text><ellipse cx="527" cy="677.4983" fill="#84BE84" rx="3" ry="3" style="stroke: #038048; stroke-width: 1.0;"/><text fill="#000000" font-family="sans-serif" font-size="11" lengthAdjust="spacingAndGlyphs" textLength="85" x="536" y="680.0508">toCsv(): String[]</text><ellipse cx="527" cy="690.2976" fill="#84BE84" rx="3" ry="3" style="stroke: #038048; stroke-width: 1.0;"/><text fill="#000000" font-family="sans-serif" font-size="11" lengthAdjust="spacingAndGlyphs" textLength="121" x="536" y="692.8501">setTableNum(int): void</text><ellipse cx="527" cy="703.0969" fill="#84BE84" rx="3" ry="3" style="stroke: #038048; stroke-width: 1.0;"/><text fill="#000000" font-family="sans-serif" font-size="11" lengthAdjust="spacingAndGlyphs" textLength="99" x="536" y="705.6494">getTableNum(): int</text><ellipse cx="527" cy="715.8962" fill="#84BE84" rx="3" ry="3" style="stroke: #038048; stroke-width: 1.0;"/><text fill="#000000" font-family="sans-serif" font-size="11" lengthAdjust="spacingAndGlyphs" textLength="145" x="536" y="718.4487">setReserved(boolean): void</text><ellipse cx="527" cy="728.6956" fill="#84BE84" rx="3" ry="3" style="stroke: #038048; stroke-width: 1.0;"/><text fill="#000000" font-family="sans-serif" font-size="11" lengthAdjust="spacingAndGlyphs" textLength="137" x="536" y="731.248">checkReserved(): boolean</text><ellipse cx="527" cy="741.4949" fill="#84BE84" rx="3" ry="3" style="stroke: #038048; stroke-width: 1.0;"/><text fill="#000000" font-family="sans-serif" font-size="11" lengthAdjust="spacingAndGlyphs" text-decoration="underline" textLength="158" x="536" y="744.0474">getTableByNumber(int): Table</text><line style="stroke: #000000; stroke-width: 1.0;" x1="536" x2="694" y1="746.0474" y2="746.0474"/><ellipse cx="527" cy="754.2942" fill="#84BE84" rx="3" ry="3" style="stroke: #038048; stroke-width: 1.0;"/><text fill="#000000" font-family="sans-serif" font-size="11" lengthAdjust="spacingAndGlyphs" text-decoration="underline" textLength="370" x="536" y="756.8467">getVacantTablesByNumPax(int, ArrayList&lt;Table&gt;): ArrayList&lt;Table&gt;</text><line style="stroke: #000000; stroke-width: 1.0;" x1="536" x2="906" y1="758.8467" y2="758.8467"/><!--class sg.edu.ntu.scse.cz2002.features.Table.TableState--><rect fill="#FEFECE" filter="url(#f1t19057kjq7e6)" height="99.1973" id="sg.edu.ntu.scse.cz2002.features.Table.TableState" style="stroke: #A80036; stroke-width: 1.5;" width="162" x="534" y="908.5"/><ellipse cx="563.4" cy="924.5" fill="#EB937F" rx="11" ry="11" style="stroke: #A80036; stroke-width: 1.0;"/><path d="M559.7906,930.5 L559.7906,918.2188 L567.4781,918.2188 L567.4781,919.8438 L562.2594,919.8438 L562.2594,923.3281 L566.6656,923.3281 L566.6656,924.8594 L562.2594,924.8594 L562.2594,928.8594 L567.9156,928.8594 L567.9156,930.5 L559.7906,930.5 Z "/><text fill="#000000" font-family="sans-serif" font-size="12" lengthAdjust="spacingAndGlyphs" textLength="98" x="580.6" y="928.9209">Table.TableState</text><line style="stroke: #A80036; stroke-width: 1.5;" x1="535" x2="695" y1="940.5" y2="940.5"/><ellipse cx="545" cy="952.3997" fill="none" rx="3" ry="3" style="stroke: #038048; stroke-width: 1.0;"/><text fill="#000000" font-family="sans-serif" font-size="11" lengthAdjust="spacingAndGlyphs" text-decoration="underline" textLength="91" x="554" y="954.9521">TABLE_VACATED</text><line style="stroke: #000000; stroke-width: 1.0;" x1="554" x2="645" y1="956.9521" y2="956.9521"/><ellipse cx="545" cy="965.199" fill="none" rx="3" ry="3" style="stroke: #038048; stroke-width: 1.0;"/><text fill="#000000" font-family="sans-serif" font-size="11" lengthAdjust="spacingAndGlyphs" text-decoration="underline" textLength="95" x="554" y="967.7515">TABLE_OCCUPIED</text><line style="stroke: #000000; stroke-width: 1.0;" x1="554" x2="649" y1="969.7515" y2="969.7515"/><ellipse cx="545" cy="977.9983" fill="none" rx="3" ry="3" style="stroke: #038048; stroke-width: 1.0;"/><text fill="#000000" font-family="sans-serif" font-size="11" lengthAdjust="spacingAndGlyphs" text-decoration="underline" textLength="92" x="554" y="980.5508">TABLE_RESERVED</text><line style="stroke: #000000; stroke-width: 1.0;" x1="554" x2="646" y1="982.5508" y2="982.5508"/><ellipse cx="545" cy="990.7976" fill="none" rx="3" ry="3" style="stroke: #038048; stroke-width: 1.0;"/><text fill="#000000" font-family="sans-serif" font-size="11" lengthAdjust="spacingAndGlyphs" text-decoration="underline" textLength="136" x="554" y="993.3501">TABLE_STATE_UNKNOWN</text><line style="stroke: #000000; stroke-width: 1.0;" x1="554" x2="690" y1="995.3501" y2="995.3501"/><line style="stroke: #A80036; stroke-width: 1.5;" x1="535" x2="695" y1="999.6973" y2="999.6973"/><!--class sg.edu.ntu.scse.cz2002.features.Table.TableSeats--><rect fill="#FEFECE" filter="url(#f1t19057kjq7e6)" height="111.9966" id="sg.edu.ntu.scse.cz2002.features.Table.TableSeats" style="stroke: #A80036; stroke-width: 1.5;" width="132" x="739" y="902"/><ellipse cx="754" cy="918" fill="#EB937F" rx="11" ry="11" style="stroke: #A80036; stroke-width: 1.0;"/><path d="M750.3906,924 L750.3906,911.7188 L758.0781,911.7188 L758.0781,913.3438 L752.8594,913.3438 L752.8594,916.8281 L757.2656,916.8281 L757.2656,918.3594 L752.8594,918.3594 L752.8594,922.3594 L758.5156,922.3594 L758.5156,924 L750.3906,924 Z "/><text fill="#000000" font-family="sans-serif" font-size="12" lengthAdjust="spacingAndGlyphs" textLength="100" x="768" y="922.4209">Table.TableSeats</text><line style="stroke: #A80036; stroke-width: 1.5;" x1="740" x2="870" y1="934" y2="934"/><ellipse cx="750" cy="945.8997" fill="none" rx="3" ry="3" style="stroke: #038048; stroke-width: 1.0;"/><text fill="#000000" font-family="sans-serif" font-size="11" lengthAdjust="spacingAndGlyphs" text-decoration="underline" textLength="71" x="759" y="948.4521">TWO_SEATER</text><line style="stroke: #000000; stroke-width: 1.0;" x1="759" x2="830" y1="950.4521" y2="950.4521"/><ellipse cx="750" cy="958.699" fill="none" rx="3" ry="3" style="stroke: #038048; stroke-width: 1.0;"/><text fill="#000000" font-family="sans-serif" font-size="11" lengthAdjust="spacingAndGlyphs" text-decoration="underline" textLength="76" x="759" y="961.2515">FOUR_SEATER</text><line style="stroke: #000000; stroke-width: 1.0;" x1="759" x2="835" y1="963.2515" y2="963.2515"/><ellipse cx="750" cy="971.4983" fill="none" rx="3" ry="3" style="stroke: #038048; stroke-width: 1.0;"/><text fill="#000000" font-family="sans-serif" font-size="11" lengthAdjust="spacingAndGlyphs" text-decoration="underline" textLength="78" x="759" y="974.0508">EIGHT_SEATER</text><line style="stroke: #000000; stroke-width: 1.0;" x1="759" x2="837" y1="976.0508" y2="976.0508"/><ellipse cx="750" cy="984.2976" fill="none" rx="3" ry="3" style="stroke: #038048; stroke-width: 1.0;"/><text fill="#000000" font-family="sans-serif" font-size="11" lengthAdjust="spacingAndGlyphs" text-decoration="underline" textLength="67" x="759" y="986.8501">TEN_SEATER</text><line style="stroke: #000000; stroke-width: 1.0;" x1="759" x2="826" y1="988.8501" y2="988.8501"/><ellipse cx="750" cy="997.0969" fill="none" rx="3" ry="3" style="stroke: #038048; stroke-width: 1.0;"/><text fill="#000000" font-family="sans-serif" font-size="11" lengthAdjust="spacingAndGlyphs" text-decoration="underline" textLength="103" x="759" y="999.6494">UNKNOWN_SEATER</text><line style="stroke: #000000; stroke-width: 1.0;" x1="759" x2="862" y1="1001.6494" y2="1001.6494"/><line style="stroke: #A80036; stroke-width: 1.5;" x1="740" x2="870" y1="1005.9966" y2="1005.9966"/><!--class sg.edu.ntu.scse.cz2002.util.ICsvSerializable--><rect fill="#FEFECE" filter="url(#f1t19057kjq7e6)" height="60.7993" id="sg.edu.ntu.scse.cz2002.util.ICsvSerializable" style="stroke: #A80036; stroke-width: 1.5;" width="121" x="636.5" y="43"/><ellipse cx="651.5" cy="59" fill="#B4A7E5" rx="11" ry="11" style="stroke: #A80036; stroke-width: 1.0;"/><path d="M647.5156,65 L647.5156,63.3594 L650.3906,63.3594 L650.3906,54.3438 L647.5156,54.3438 L647.5156,52.7188 L655.7188,52.7188 L655.7188,54.3438 L652.8438,54.3438 L652.8438,63.3594 L655.7188,63.3594 L655.7188,65 L647.5156,65 Z "/><text fill="#000000" font-family="sans-serif" font-size="12" font-style="italic" lengthAdjust="spacingAndGlyphs" textLength="89" x="665.5" y="63.4209">ICsvSerializable</text><line style="stroke: #A80036; stroke-width: 1.5;" x1="637.5" x2="756.5" y1="75" y2="75"/><line style="stroke: #A80036; stroke-width: 1.5;" x1="637.5" x2="756.5" y1="83" y2="83"/><ellipse cx="647.5" cy="94.8997" fill="#84BE84" rx="3" ry="3" style="stroke: #038048; stroke-width: 1.0;"/><text fill="#000000" font-family="sans-serif" font-size="11" font-style="italic" lengthAdjust="spacingAndGlyphs" textLength="85" x="656.5" y="97.4521">toCsv(): String[]</text><!--link sg.edu.ntu.scse.cz2002.features.OrderItem to sg.edu.ntu.scse.cz2002.features.OrderItem.OrderItemType--><path d="M1008.8587,418.8403 C1017.4914,494.0681 1028.6849,591.6111 1034.709,644.1068 " fill="none" id="sg.edu.ntu.scse.cz2002.features.OrderItem-sg.edu.ntu.scse.cz2002.features.OrderItem.OrderItemType" style="stroke: #A80036; stroke-width: 1.0;"/><ellipse cx="1008.0256" cy="411.5797" fill="#FFFFFF" rx="8" ry="8" style="stroke: #A80036; stroke-width: 1.0;"/><line style="stroke: #A80036; stroke-width: 1.0;" x1="1008.9377" x2="1007.1135" y1="419.5276" y2="403.6319"/><line style="stroke: #A80036; stroke-width: 1.0;" x1="1000.0777" x2="1015.9734" y1="412.4918" y2="410.6677"/><!--link sg.edu.ntu.scse.cz2002.util.ICsvSerializable to sg.edu.ntu.scse.cz2002.features.Reservation--><path d="M618.0596,106.5156 C595.2139,117.1422 570.6197,129.6523 549,143 C535.4097,151.3904 521.6841,160.4841 508.0839,169.9602 " fill="none" id="sg.edu.ntu.scse.cz2002.util.ICsvSerializable-sg.edu.ntu.scse.cz2002.features.Reservation" style="stroke: #A80036; stroke-width: 1.0; stroke-dasharray: 7.0,7.0;"/><polygon fill="none" points="615.2181,100.1181,636.3241,98.2368,620.9979,112.8694,615.2181,100.1181" style="stroke: #A80036; stroke-width: 1.0;"/><!--link sg.edu.ntu.scse.cz2002.features.Reservation to sg.edu.ntu.scse.cz2002.features.Reservation.ReservationSession--><path d="M311.7811,476.1043 C307.1356,497.5838 301.3085,519.0618 294,539 C279.9777,577.2541 255.3129,616.5977 235.9827,644.2259 " fill="none" id="sg.edu.ntu.scse.cz2002.features.Reservation-sg.edu.ntu.scse.cz2002.features.Reservation.ReservationSession" style="stroke: #A80036; stroke-width: 1.0;"/><ellipse cx="313.2123" cy="469.0908" fill="#FFFFFF" rx="8" ry="8" style="stroke: #A80036; stroke-width: 1.0;"/><line style="stroke: #A80036; stroke-width: 1.0;" x1="311.6126" x2="314.8121" y1="476.9292" y2="461.2524"/><line style="stroke: #A80036; stroke-width: 1.0;" x1="305.3739" x2="321.0507" y1="467.491" y2="470.6906"/><!--link sg.edu.ntu.scse.cz2002.features.Reservation to sg.edu.ntu.scse.cz2002.features.Reservation.ReservationSession--><path d="M233.3596,461.176 C223.8591,480.9581 215.6575,501.5164 210,522 C199.3276,560.6407 200.0852,606.5804 202.7589,639.2098 " fill="none" id="sg.edu.ntu.scse.cz2002.features.Reservation-sg.edu.ntu.scse.cz2002.features.Reservation.ReservationSession" style="stroke: #A80036; stroke-width: 1.0;"/><polygon fill="#A80036" points="203.203,644.3292,206.4099,635.0171,202.7707,639.3479,198.4399,635.7087,203.203,644.3292" style="stroke: #A80036; stroke-width: 1.0;"/><text fill="#000000" font-family="sans-serif" font-size="13" lengthAdjust="spacingAndGlyphs" textLength="74" x="211" y="535.3525">resvSession</text><!--link sg.edu.ntu.scse.cz2002.util.ICsvSerializable to sg.edu.ntu.scse.cz2002.features.Order--><path d="M697,124.3429 C697,143.405 697,166.0161 697,188.895 " fill="none" id="sg.edu.ntu.scse.cz2002.util.ICsvSerializable-sg.edu.ntu.scse.cz2002.features.Order" style="stroke: #A80036; stroke-width: 1.0; stroke-dasharray: 7.0,7.0;"/><polygon fill="none" points="690.0001,124.1495,697,104.1495,704.0001,124.1494,690.0001,124.1495" style="stroke: #A80036; stroke-width: 1.0;"/><!--link sg.edu.ntu.scse.cz2002.features.Order to sg.edu.ntu.scse.cz2002.features.Order.OrderState--><path d="M557.4101,453.1949 C520.7371,489.5414 490.762,519.4881 489,522 C461.9161,560.6107 440.5702,610.712 427.9012,644.3711 " fill="none" id="sg.edu.ntu.scse.cz2002.features.Order-sg.edu.ntu.scse.cz2002.features.Order.OrderState" style="stroke: #A80036; stroke-width: 1.0;"/><ellipse cx="562.7617" cy="447.8943" fill="#FFFFFF" rx="8" ry="8" style="stroke: #A80036; stroke-width: 1.0;"/><line style="stroke: #A80036; stroke-width: 1.0;" x1="557.0779" x2="568.4455" y1="453.5241" y2="442.2645"/><line style="stroke: #A80036; stroke-width: 1.0;" x1="557.1319" x2="568.3915" y1="442.2105" y2="453.5781"/><!--link sg.edu.ntu.scse.cz2002.features.Order to sg.edu.ntu.scse.cz2002.features.Order.OrderState--><path d="M599.3592,442.2253 C546.0643,511.3952 483.6141,592.4477 446.7864,640.2453 " fill="none" id="sg.edu.ntu.scse.cz2002.features.Order-sg.edu.ntu.scse.cz2002.features.Order.OrderState" style="stroke: #A80036; stroke-width: 1.0;"/><polygon fill="#A80036" points="443.5229,644.481,452.1846,639.7933,446.5747,640.5204,445.8476,634.9104,443.5229,644.481" style="stroke: #A80036; stroke-width: 1.0;"/><text fill="#000000" font-family="sans-serif" font-size="13" lengthAdjust="spacingAndGlyphs" textLength="64" x="538" y="535.3525">orderState</text><!--link sg.edu.ntu.scse.cz2002.util.ICsvSerializable to sg.edu.ntu.scse.cz2002.features.Table--><path d="M777.9234,80.2701 C901.4158,91.4302 1125.1812,115.2388 1149,143 C1241.031,250.2633 1222.9723,340.5707 1149,461 C1120.8047,506.9029 1013.1601,561.6527 912.0166,605.1128 " fill="none" id="sg.edu.ntu.scse.cz2002.util.ICsvSerializable-sg.edu.ntu.scse.cz2002.features.Table" style="stroke: #A80036; stroke-width: 1.0; stroke-dasharray: 7.0,7.0;"/><polygon fill="none" points="777.2217,87.2354,757.9193,78.4936,778.4601,73.2903,777.2217,87.2354" style="stroke: #A80036; stroke-width: 1.0;"/><!--link sg.edu.ntu.scse.cz2002.features.Table to sg.edu.ntu.scse.cz2002.features.Table.TableState--><path d="M656.1118,776.6662 C648.4366,792.0961 641.378,808.2031 636,824 C626.7794,851.0841 621.5808,882.6435 618.6635,908.3294 " fill="none" id="sg.edu.ntu.scse.cz2002.features.Table-sg.edu.ntu.scse.cz2002.features.Table.TableState" style="stroke: #A80036; stroke-width: 1.0;"/><ellipse cx="659.3274" cy="770.4188" fill="#FFFFFF" rx="8" ry="8" style="stroke: #A80036; stroke-width: 1.0;"/><line style="stroke: #A80036; stroke-width: 1.0;" x1="655.6661" x2="662.9886" y1="777.5319" y2="763.3058"/><line style="stroke: #A80036; stroke-width: 1.0;" x1="652.2143" x2="666.4404" y1="766.7576" y2="774.0801"/><!--link sg.edu.ntu.scse.cz2002.features.Table to sg.edu.ntu.scse.cz2002.features.Table.TableState--><path d="M684.6986,763.3368 C668.4808,808.6319 648.7715,863.6787 634.4553,903.6629 " fill="none" id="sg.edu.ntu.scse.cz2002.features.Table-sg.edu.ntu.scse.cz2002.features.Table.TableState" style="stroke: #A80036; stroke-width: 1.0;"/><polygon fill="#A80036" points="632.7367,908.4626,639.5365,901.3378,634.4222,903.7553,632.0048,898.641,632.7367,908.4626" style="stroke: #A80036; stroke-width: 1.0;"/><text fill="#000000" font-family="sans-serif" font-size="13" lengthAdjust="spacingAndGlyphs" textLength="31" x="663" y="837.3525">state</text><!--link sg.edu.ntu.scse.cz2002.features.Table to sg.edu.ntu.scse.cz2002.features.Table.TableSeats--><path d="M745.6714,777.7325 C759.3077,819.1658 774.7751,866.1629 786.4974,901.7806 " fill="none" id="sg.edu.ntu.scse.cz2002.features.Table-sg.edu.ntu.scse.cz2002.features.Table.TableSeats" style="stroke: #A80036; stroke-width: 1.0;"/><ellipse cx="743.4345" cy="770.9358" fill="#FFFFFF" rx="8" ry="8" style="stroke: #A80036; stroke-width: 1.0;"/><line style="stroke: #A80036; stroke-width: 1.0;" x1="745.9355" x2="740.9336" y1="778.5349" y2="763.3368"/><line style="stroke: #A80036; stroke-width: 1.0;" x1="735.8355" x2="751.0336" y1="773.4368" y2="768.4349"/><!--link sg.edu.ntu.scse.cz2002.features.Table to sg.edu.ntu.scse.cz2002.features.Table.TableSeats--><path d="M749.0845,763.018 C757.0713,782.8082 765.1984,804.0251 772,824 C778.986,844.5164 779.682,849.9894 785,871 C787.0785,879.2117 789.1811,887.8827 791.2028,896.4426 " fill="none" id="sg.edu.ntu.scse.cz2002.features.Table-sg.edu.ntu.scse.cz2002.features.Table.TableSeats" style="stroke: #A80036; stroke-width: 1.0;"/><polygon fill="#A80036" points="792.4502,901.7528,794.2861,892.0766,791.3068,896.8853,786.4981,893.906,792.4502,901.7528" style="stroke: #A80036; stroke-width: 1.0;"/><text fill="#000000" font-family="sans-serif" font-size="13" lengthAdjust="spacingAndGlyphs" textLength="61" x="778" y="837.3525">numSeats</text><!--link sg.edu.ntu.scse.cz2002.features.Order to sg.edu.ntu.scse.cz2002.features.Table--><path d="M702.8862,442.2253 C705.2232,492.5417 707.8524,549.1458 709.9666,594.6631 " fill="none" id="sg.edu.ntu.scse.cz2002.features.Order-sg.edu.ntu.scse.cz2002.features.Table" style="stroke: #A80036; stroke-width: 1.0;"/><polygon fill="#A80036" points="710.2087,599.8753,713.7868,590.6994,709.9767,594.8807,705.7954,591.0706,710.2087,599.8753" style="stroke: #A80036; stroke-width: 1.0;"/><text fill="#000000" font-family="sans-serif" font-size="13" lengthAdjust="spacingAndGlyphs" textLength="31" x="708" y="535.3525">table</text><text fill="#888888" font-family="sans-serif" font-size="10" lengthAdjust="spacingAndGlyphs" textLength="182" x="524" y="1049.502">UMLDoclet 1.1.3, PlantUML 1.2018.12</text><!--
@startuml

    namespace sg.edu.ntu.scse.cz2002.features {

        class OrderItem {
            +OrderItem(String[])
            +OrderItem(int, int, OrderItem.OrderItemType)
            +toCompiledString(): String
            +getItem(): Object
            +getItemName(): String
            +getQuantity(): int
            +setQuantity(int): void
            +isPromotion(): boolean
            +getItemTotal(): double
            +calculateTotal(): void
        }

        enum sg.edu.ntu.scse.cz2002.features.OrderItem.OrderItemType {
            {static} +TYPE_MENU
            {static} +TYPE_PROMO
        }

        class Reservation {
            +Reservation(int, LocalDate, LocalTime, char, String, String, int, int)
            +Reservation(String[])
            +toCsv(): String[]
            +getResvId(): int
            +setResvId(int): void
            +getResvDate(): LocalDate
            +setResvDate(LocalDate): void
            +getResvTime(): LocalTime
            +setResvTime(LocalTime): void
            +getNumPax(): int
            +setNumPax(int): void
            +getCustName(): String
            +setCustName(String): void
            +getCustTelNo(): String
            +setCustTelNo(String): void
            +getTableNum(): int
            +setTableNum(int): void
            {static} +hasReservation(String): Table
            {static} +getTablesBookedOnDateBySession(LocalDate, char): ArrayList<Table>
        }

        enum sg.edu.ntu.scse.cz2002.features.Reservation.ReservationSession {
            {static} +AM_SESSION
            {static} +PM_SESSION
        }

        class Order {
            +Order(int)
            +Order(String[])
            +toCsv(): String[]
            +getOrderID(): int
            +getOrderItems(): ArrayList<OrderItem>
            +setOrderItems(ArrayList<OrderItem>): void
            +getSubtotal(): double
            +calculateSubtotal(): void
            +markPaid(): void
            +getCreatedAt(): long
            +getCompletedAt(): long
            +getStaffId(): int
            +setStaffId(int): void
            +getTableId(): int
            +setTableId(int): void
            +getStaff(): Staff
        }

        enum sg.edu.ntu.scse.cz2002.features.Order.OrderState {
            {static} +ORDER_PAID
            {static} +ORDER_UNPAID
        }

        class Invoice {
        }

        class Table {
            +Table(int, boolean, int, int)
            +Table(String[])
            +toCsv(): String[]
            +setTableNum(int): void
            +getTableNum(): int
            +setReserved(boolean): void
            +checkReserved(): boolean
            {static} +getTableByNumber(int): Table
            {static} +getVacantTablesByNumPax(int, ArrayList<Table>): ArrayList<Table>
        }

        enum sg.edu.ntu.scse.cz2002.features.Table.TableState {
            {static} +TABLE_VACATED
            {static} +TABLE_OCCUPIED
            {static} +TABLE_RESERVED
            {static} +TABLE_STATE_UNKNOWN
        }

        enum sg.edu.ntu.scse.cz2002.features.Table.TableSeats {
            {static} +TWO_SEATER
            {static} +FOUR_SEATER
            {static} +EIGHT_SEATER
            {static} +TEN_SEATER
            {static} +UNKNOWN_SEATER
        }

        OrderItem +- - sg.edu.ntu.scse.cz2002.features.OrderItem.OrderItemType

        interface sg.edu.ntu.scse.cz2002.util.ICsvSerializable {
            {abstract} +toCsv(): String[]
        }
        sg.edu.ntu.scse.cz2002.util.ICsvSerializable <|.. Reservation

        Reservation +- - sg.edu.ntu.scse.cz2002.features.Reservation.ReservationSession

        sg.edu.ntu.scse.cz2002.util.ICsvSerializable <|.. Order

        Order +- - sg.edu.ntu.scse.cz2002.features.Order.OrderState

        sg.edu.ntu.scse.cz2002.util.ICsvSerializable <|.. Table

        Table +- - sg.edu.ntu.scse.cz2002.features.Table.TableState

        Table +- - sg.edu.ntu.scse.cz2002.features.Table.TableSeats

        Reservation - -> sg.edu.ntu.scse.cz2002.features.Reservation.ReservationSession: resvSession

        Order - -> sg.edu.ntu.scse.cz2002.features.Order.OrderState: orderState

        Order - -> Table: table

        Table - -> sg.edu.ntu.scse.cz2002.features.Table.TableSeats: numSeats

        Table - -> sg.edu.ntu.scse.cz2002.features.Table.TableState: state

    }


    center footer UMLDoclet 1.1.3, PlantUML 1.2018.12
@enduml

PlantUML version 1.2018.12(Sun Oct 21 10:15:15 GMT 2018)
(APACHE source distribution)
Java Runtime: Java(TM) SE Runtime Environment
JVM: Java HotSpot(TM) 64-Bit Server VM
Java Version: 1.8.0_202-b08
Operating System: Linux
OS Version: 4.19.23-coreos-r1
Default Encoding: UTF-8
Language: en
Country: null
--></g></svg>