<?xml version="1.0" encoding="UTF-8" standalone="no"?><svg xmlns="http://www.w3.org/2000/svg" xmlns:xlink="http://www.w3.org/1999/xlink" contentScriptType="application/ecmascript" contentStyleType="text/css" height="89px" preserveAspectRatio="none" style="width:194px;height:89px;" version="1.1" viewBox="0 0 194 89" width="194px" zoomAndPan="magnify"><defs><filter height="300%" id="f1ujyrckb6n8af" width="300%" x="-1" y="-1"><feGaussianBlur result="blurOut" stdDeviation="2.0"/><feColorMatrix in="blurOut" result="blurOut2" type="matrix" values="0 0 0 0 0 0 0 0 0 0 0 0 0 0 0 0 0 0 .4 0"/><feOffset dx="4.0" dy="4.0" in="blurOut2" result="blurOut3"/><feBlend in="SourceGraphic" in2="blurOut3" mode="normal"/></filter></defs><g><!--class Invoice--><a target="_top" xlink:actuate="onRequest" xlink:href="../sg/edu/ntu/scse/cz2002/features/Invoice.html" xlink:show="new" xlink:title="../sg/edu/ntu/scse/cz2002/features/Invoice.html" xlink:type="simple"><rect fill="#FEFECE" filter="url(#f1ujyrckb6n8af)" height="48" id="Invoice" style="stroke: #A80036; stroke-width: 1.5;" width="71" x="49.5" y="8"/><ellipse cx="64.5" cy="24" fill="#ADD1B2" rx="11" ry="11" style="stroke: #A80036; stroke-width: 1.0;"/><path d="M68.3281,29.6563 Q66.4531,30.3125 64.6406,30.3125 Q62.0469,30.3125 60.4609,28.5313 Q58.875,26.75 58.875,23.8438 Q58.875,21.1563 60.2813,19.3906 Q61.1406,18.3125 62.2578,17.8594 Q63.375,17.4063 65.1563,17.4063 Q66.875,17.4063 68.3281,17.7656 L68.3281,19.75 Q66.4531,19.0469 65.2031,19.0469 Q63.5156,19.0469 62.5234,20.3672 Q61.5313,21.6875 61.5313,23.9219 Q61.5313,25.9688 62.5703,27.2656 Q63.6094,28.5625 65.25,28.5625 Q66.6406,28.5625 68.3281,27.7813 L68.3281,29.6563 Z "/><text fill="#000000" font-family="sans-serif" font-size="12" lengthAdjust="spacingAndGlyphs" textLength="39" x="78.5" y="28.4209">Invoice</text><line style="stroke: #A80036; stroke-width: 1.5;" x1="50.5" x2="119.5" y1="40" y2="40"/><line style="stroke: #A80036; stroke-width: 1.5;" x1="50.5" x2="119.5" y1="48" y2="48"/></a><text fill="#888888" font-family="sans-serif" font-size="10" lengthAdjust="spacingAndGlyphs" textLength="182" x="0" y="75.502">UMLDoclet 1.1.3, PlantUML 1.2018.12</text><!--
@startuml

    class Invoice [[../sg/edu/ntu/scse/cz2002/features/Invoice.html]] {
    }


    center footer UMLDoclet 1.1.3, PlantUML 1.2018.12
@enduml

PlantUML version 1.2018.12(Sun Oct 21 10:15:15 GMT 2018)
(APACHE source distribution)
Java Runtime: Java(TM) SE Runtime Environment
JVM: Java HotSpot(TM) 64-Bit Server VM
Java Version: 1.8.0_202-b08
Operating System: Linux
OS Version: 4.19.23-coreos-r1
Default Encoding: UTF-8
Language: en
Country: null
--></g></svg>