<?xml version="1.0" encoding="UTF-8" standalone="no"?><svg xmlns="http://www.w3.org/2000/svg" xmlns:xlink="http://www.w3.org/1999/xlink" contentScriptType="application/ecmascript" contentStyleType="text/css" height="166px" preserveAspectRatio="none" style="width:198px;height:166px;" version="1.1" viewBox="0 0 198 166" width="198px" zoomAndPan="magnify"><defs><filter height="300%" id="f17sixa5ddhm3j" width="300%" x="-1" y="-1"><feGaussianBlur result="blurOut" stdDeviation="2.0"/><feColorMatrix in="blurOut" result="blurOut2" type="matrix" values="0 0 0 0 0 0 0 0 0 0 0 0 0 0 0 0 0 0 .4 0"/><feOffset dx="4.0" dy="4.0" in="blurOut2" result="blurOut3"/><feBlend in="SourceGraphic" in2="blurOut3" mode="normal"/></filter></defs><g><!--class PromotionMenuUI--><a target="_top" xlink:actuate="onRequest" xlink:href="../sg/edu/ntu/scse/cz2002/ui/PromotionMenuUI.html" xlink:show="new" xlink:title="../sg/edu/ntu/scse/cz2002/ui/PromotionMenuUI.html" xlink:type="simple"><rect fill="#FEFECE" filter="url(#f17sixa5ddhm3j)" height="124.7959" id="PromotionMenuUI" style="stroke: #A80036; stroke-width: 1.5;" width="166" x="6" y="8"/><ellipse cx="36.3" cy="24" fill="#ADD1B2" rx="11" ry="11" style="stroke: #A80036; stroke-width: 1.0;"/><path d="M40.1281,29.6563 Q38.2531,30.3125 36.4406,30.3125 Q33.8469,30.3125 32.2609,28.5313 Q30.675,26.75 30.675,23.8438 Q30.675,21.1563 32.0813,19.3906 Q32.9406,18.3125 34.0578,17.8594 Q35.175,17.4063 36.9563,17.4063 Q38.675,17.4063 40.1281,17.7656 L40.1281,19.75 Q38.2531,19.0469 37.0031,19.0469 Q35.3156,19.0469 34.3234,20.3672 Q33.3313,21.6875 33.3313,23.9219 Q33.3313,25.9688 34.3703,27.2656 Q35.4094,28.5625 37.05,28.5625 Q38.4406,28.5625 40.1281,27.7813 L40.1281,29.6563 Z "/><text fill="#000000" font-family="sans-serif" font-size="12" lengthAdjust="spacingAndGlyphs" textLength="100" x="53.7" y="28.4209">PromotionMenuUI</text><line style="stroke: #A80036; stroke-width: 1.5;" x1="7" x2="171" y1="40" y2="40"/><rect fill="none" height="6" style="stroke: #C82930; stroke-width: 1.0;" width="6" x="14" y="48.8997"/><text fill="#000000" font-family="sans-serif" font-size="11" lengthAdjust="spacingAndGlyphs" textLength="61" x="26" y="54.4521">sc: Scanner</text><line style="stroke: #A80036; stroke-width: 1.5;" x1="7" x2="171" y1="60.7993" y2="60.7993"/><polygon fill="#FFFF44" points="17,67.699,21,71.699,17,75.699,13,71.699" style="stroke: #B38D22; stroke-width: 1.0;"/><text fill="#000000" font-family="sans-serif" font-size="11" lengthAdjust="spacingAndGlyphs" textLength="140" x="26" y="75.2515">generateMenuScreen(): int</text><ellipse cx="17" cy="85.4983" fill="#84BE84" rx="3" ry="3" style="stroke: #038048; stroke-width: 1.0;"/><text fill="#000000" font-family="sans-serif" font-size="11" lengthAdjust="spacingAndGlyphs" textLength="119" x="26" y="88.0508">printPromotion(): void</text><ellipse cx="17" cy="98.2976" fill="#84BE84" rx="3" ry="3" style="stroke: #038048; stroke-width: 1.0;"/><text fill="#000000" font-family="sans-serif" font-size="11" lengthAdjust="spacingAndGlyphs" textLength="135" x="26" y="100.8501">addNewPromotion(): void</text><ellipse cx="17" cy="111.0969" fill="#84BE84" rx="3" ry="3" style="stroke: #038048; stroke-width: 1.0;"/><text fill="#000000" font-family="sans-serif" font-size="11" lengthAdjust="spacingAndGlyphs" textLength="113" x="26" y="113.6494">editPromotion(): void</text><ellipse cx="17" cy="123.8962" fill="#84BE84" rx="3" ry="3" style="stroke: #038048; stroke-width: 1.0;"/><text fill="#000000" font-family="sans-serif" font-size="11" lengthAdjust="spacingAndGlyphs" textLength="125" x="26" y="126.4487">deletePromotion(): void</text></a><text fill="#888888" font-family="sans-serif" font-size="10" lengthAdjust="spacingAndGlyphs" textLength="182" x="4" y="152.502">UMLDoclet 1.1.3, PlantUML 1.2018.12</text><!--
@startuml

    class PromotionMenuUI [[../sg/edu/ntu/scse/cz2002/ui/PromotionMenuUI.html]] {
        -sc: Scanner
        #generateMenuScreen(): int
        +printPromotion(): void
        +addNewPromotion(): void
        +editPromotion(): void
        +deletePromotion(): void
    }


    center footer UMLDoclet 1.1.3, PlantUML 1.2018.12
@enduml

PlantUML version 1.2018.12(Sun Oct 21 10:15:15 GMT 2018)
(APACHE source distribution)
Java Runtime: Java(TM) SE Runtime Environment
JVM: Java HotSpot(TM) 64-Bit Server VM
Java Version: 1.8.0_202-b08
Operating System: Linux
OS Version: 4.19.23-coreos-r1
Default Encoding: UTF-8
Language: en
Country: null
--></g></svg>