<?xml version="1.0" encoding="UTF-8" standalone="no"?><svg xmlns="http://www.w3.org/2000/svg" xmlns:xlink="http://www.w3.org/1999/xlink" contentScriptType="application/ecmascript" contentStyleType="text/css" height="542px" preserveAspectRatio="none" style="width:2940px;height:542px;" version="1.1" viewBox="0 0 2940 542" width="2940px" zoomAndPan="magnify"><defs><filter height="300%" id="ftsi02e3berul" width="300%" x="-1" y="-1"><feGaussianBlur result="blurOut" stdDeviation="2.0"/><feColorMatrix in="blurOut" result="blurOut2" type="matrix" values="0 0 0 0 0 0 0 0 0 0 0 0 0 0 0 0 0 0 .4 0"/><feOffset dx="4.0" dy="4.0" in="blurOut2" result="blurOut3"/><feBlend in="SourceGraphic" in2="blurOut3" mode="normal"/></filter></defs><g><!--cluster sg.edu.ntu.scse.cz2002.ui--><polygon fill="#FFFFFF" filter="url(#ftsi02e3berul)" points="14,16,198,16,205,38.29,2918,38.29,2918,501,14,501,14,16" style="stroke: #000000; stroke-width: 1.5;"/><line style="stroke: #000000; stroke-width: 1.5;" x1="14" x2="205" y1="38.29" y2="38.29"/><text fill="#000000" font-family="sans-serif" font-size="14" font-weight="bold" lengthAdjust="spacingAndGlyphs" textLength="178" x="18" y="31.3369">sg.edu.ntu.scse.cz2002.ui</text><!--class sg.edu.ntu.scse.cz2002.ui.ReservationMenuUI--><a target="_top" xlink:actuate="onRequest" xlink:href="../sg/edu/ntu/scse/cz2002/ui/ReservationMenuUI.html" xlink:show="new" xlink:title="../sg/edu/ntu/scse/cz2002/ui/ReservationMenuUI.html" xlink:type="simple"><rect fill="#FEFECE" filter="url(#ftsi02e3berul)" height="214.3911" id="sg.edu.ntu.scse.cz2002.ui.ReservationMenuUI" style="stroke: #A80036; stroke-width: 1.5;" width="450" x="22" y="266"/><ellipse cx="188.25" cy="282" fill="#ADD1B2" rx="11" ry="11" style="stroke: #A80036; stroke-width: 1.0;"/><path d="M192.0781,287.6563 Q190.2031,288.3125 188.3906,288.3125 Q185.7969,288.3125 184.2109,286.5313 Q182.625,284.75 182.625,281.8438 Q182.625,279.1563 184.0313,277.3906 Q184.8906,276.3125 186.0078,275.8594 Q187.125,275.4063 188.9063,275.4063 Q190.625,275.4063 192.0781,275.7656 L192.0781,277.75 Q190.2031,277.0469 188.9531,277.0469 Q187.2656,277.0469 186.2734,278.3672 Q185.2813,279.6875 185.2813,281.9219 Q185.2813,283.9688 186.3203,285.2656 Q187.3594,286.5625 189,286.5625 Q190.3906,286.5625 192.0781,285.7813 L192.0781,287.6563 Z "/><text fill="#000000" font-family="sans-serif" font-size="12" lengthAdjust="spacingAndGlyphs" textLength="109" x="208.75" y="286.4209">ReservationMenuUI</text><line style="stroke: #A80036; stroke-width: 1.5;" x1="23" x2="471" y1="298" y2="298"/><rect fill="none" height="6" style="stroke: #C82930; stroke-width: 1.0;" width="6" x="30" y="306.8997"/><text fill="#000000" font-family="sans-serif" font-size="11" lengthAdjust="spacingAndGlyphs" textLength="77" x="42" y="312.4521">input: Scanner</text><rect fill="none" height="6" style="stroke: #C82930; stroke-width: 1.0;" width="6" x="30" y="319.699"/><text fill="#000000" font-family="sans-serif" font-size="11" lengthAdjust="spacingAndGlyphs" textLength="89" x="42" y="325.2515">MAX_TABLES: int</text><line style="stroke: #A80036; stroke-width: 1.5;" x1="23" x2="471" y1="331.5986" y2="331.5986"/><polygon fill="#FFFF44" points="33,338.4983,37,342.4983,33,346.4983,29,342.4983" style="stroke: #B38D22; stroke-width: 1.0;"/><text fill="#000000" font-family="sans-serif" font-size="11" lengthAdjust="spacingAndGlyphs" textLength="140" x="42" y="346.0508">generateMenuScreen(): int</text><rect fill="#F24D5C" height="6" style="stroke: #C82930; stroke-width: 1.0;" width="6" x="30" y="353.2976"/><text fill="#000000" font-family="sans-serif" font-size="11" lengthAdjust="spacingAndGlyphs" textLength="176" x="42" y="358.8501">createReservationBooking(): void</text><rect fill="#F24D5C" height="6" style="stroke: #C82930; stroke-width: 1.0;" width="6" x="30" y="366.0969"/><text fill="#000000" font-family="sans-serif" font-size="11" lengthAdjust="spacingAndGlyphs" textLength="424" x="42" y="371.6494">findTableForReservation(numPax:int, resvDate:LocalDate, resvSession:char): int</text><rect fill="#F24D5C" height="6" style="stroke: #C82930; stroke-width: 1.0;" width="6" x="30" y="378.8962"/><text fill="#000000" font-family="sans-serif" font-size="11" lengthAdjust="spacingAndGlyphs" textLength="174" x="42" y="384.4487">checkReservationBooking(): void</text><rect fill="#F24D5C" height="6" style="stroke: #C82930; stroke-width: 1.0;" width="6" x="30" y="391.6956"/><text fill="#000000" font-family="sans-serif" font-size="11" lengthAdjust="spacingAndGlyphs" textLength="183" x="42" y="397.248">removeReservationBooking(): void</text><rect fill="#F24D5C" height="6" style="stroke: #C82930; stroke-width: 1.0;" width="6" x="30" y="404.4949"/><text fill="#000000" font-family="sans-serif" font-size="11" lengthAdjust="spacingAndGlyphs" textLength="122" x="42" y="410.0474">listReservations(): void</text><rect fill="#F24D5C" height="6" style="stroke: #C82930; stroke-width: 1.0;" width="6" x="30" y="417.2942"/><text fill="#000000" font-family="sans-serif" font-size="11" lengthAdjust="spacingAndGlyphs" textLength="178" x="42" y="422.8467">checkExpiredReservations(): void</text><rect fill="#F24D5C" height="6" style="stroke: #C82930; stroke-width: 1.0;" width="6" x="30" y="430.0935"/><text fill="#000000" font-family="sans-serif" font-size="11" lengthAdjust="spacingAndGlyphs" textLength="202" x="42" y="435.646">printReservationLine(telNo:String): int</text><rect fill="#F24D5C" height="6" style="stroke: #C82930; stroke-width: 1.0;" width="6" x="30" y="442.8928"/><text fill="#000000" font-family="sans-serif" font-size="11" lengthAdjust="spacingAndGlyphs" textLength="219" x="42" y="448.4453">printReservationLine(r:Reservation): void</text><rect fill="#F24D5C" height="6" style="stroke: #C82930; stroke-width: 1.0;" width="6" x="30" y="455.6921"/><text fill="#000000" font-family="sans-serif" font-size="11" lengthAdjust="spacingAndGlyphs" textLength="370" x="42" y="461.2446">checkMorningSessionDate(date:LocalDate, isToday:boolean): boolean</text><rect fill="#F24D5C" height="6" style="stroke: #C82930; stroke-width: 1.0;" width="6" x="30" y="468.4915"/><text fill="#000000" font-family="sans-serif" font-size="11" lengthAdjust="spacingAndGlyphs" textLength="367" x="42" y="474.0439">checkEveningSessionDate(date:LocalDate, isToday:boolean): boolean</text></a><!--class sg.edu.ntu.scse.cz2002.ui.FoodMenuUI--><a target="_top" xlink:actuate="onRequest" xlink:href="../sg/edu/ntu/scse/cz2002/ui/FoodMenuUI.html" xlink:show="new" xlink:title="../sg/edu/ntu/scse/cz2002/ui/FoodMenuUI.html" xlink:type="simple"><rect fill="#FEFECE" filter="url(#ftsi02e3berul)" height="163.1938" id="sg.edu.ntu.scse.cz2002.ui.FoodMenuUI" style="stroke: #A80036; stroke-width: 1.5;" width="685" x="507.5" y="291.5"/><ellipse cx="810.75" cy="307.5" fill="#ADD1B2" rx="11" ry="11" style="stroke: #A80036; stroke-width: 1.0;"/><path d="M814.5781,313.1563 Q812.7031,313.8125 810.8906,313.8125 Q808.2969,313.8125 806.7109,312.0313 Q805.125,310.25 805.125,307.3438 Q805.125,304.6563 806.5313,302.8906 Q807.3906,301.8125 808.5078,301.3594 Q809.625,300.9063 811.4063,300.9063 Q813.125,300.9063 814.5781,301.2656 L814.5781,303.25 Q812.7031,302.5469 811.4531,302.5469 Q809.7656,302.5469 808.7734,303.8672 Q807.7813,305.1875 807.7813,307.4219 Q807.7813,309.4688 808.8203,310.7656 Q809.8594,312.0625 811.5,312.0625 Q812.8906,312.0625 814.5781,311.2813 L814.5781,313.1563 Z "/><text fill="#000000" font-family="sans-serif" font-size="12" lengthAdjust="spacingAndGlyphs" textLength="70" x="831.25" y="311.9209">FoodMenuUI</text><line style="stroke: #A80036; stroke-width: 1.5;" x1="508.5" x2="1191.5" y1="323.5" y2="323.5"/><polygon fill="none" points="518.5,331.3997,514.5,337.3997,522.5,337.3997" style="stroke: #1963A0; stroke-width: 1.0;"/><text fill="#000000" font-family="sans-serif" font-size="11" lengthAdjust="spacingAndGlyphs" textLength="61" x="527.5" y="337.9521">sc: Scanner</text><line style="stroke: #A80036; stroke-width: 1.5;" x1="508.5" x2="1191.5" y1="344.2993" y2="344.2993"/><polygon fill="#FFFF44" points="518.5,351.199,522.5,355.199,518.5,359.199,514.5,355.199" style="stroke: #B38D22; stroke-width: 1.0;"/><text fill="#000000" font-family="sans-serif" font-size="11" lengthAdjust="spacingAndGlyphs" textLength="140" x="527.5" y="358.7515">generateMenuScreen(): int</text><ellipse cx="518.5" cy="368.9983" fill="#84BE84" rx="3" ry="3" style="stroke: #038048; stroke-width: 1.0;"/><text fill="#000000" font-family="sans-serif" font-size="11" lengthAdjust="spacingAndGlyphs" textLength="92" x="527.5" y="371.5508">printMenu(): void</text><ellipse cx="518.5" cy="381.7976" fill="#84BE84" rx="3" ry="3" style="stroke: #038048; stroke-width: 1.0;"/><text fill="#000000" font-family="sans-serif" font-size="11" lengthAdjust="spacingAndGlyphs" textLength="596" x="527.5" y="384.3501">addNewMenuItem(newItemName:String, newItemType:int, newItemDescription:String, newItemPrice:double): void</text><ellipse cx="518.5" cy="394.5969" fill="#84BE84" rx="3" ry="3" style="stroke: #038048; stroke-width: 1.0;"/><text fill="#000000" font-family="sans-serif" font-size="11" lengthAdjust="spacingAndGlyphs" textLength="659" x="527.5" y="397.1494">editMenuItem(targetItemID:int, editItemName:String, editItemType:int, editItemDescription:String, editItemPrice:double): void</text><ellipse cx="518.5" cy="407.3962" fill="#84BE84" rx="3" ry="3" style="stroke: #038048; stroke-width: 1.0;"/><text fill="#000000" font-family="sans-serif" font-size="11" lengthAdjust="spacingAndGlyphs" textLength="204" x="527.5" y="409.9487">deleteMenuItem(targetItemID:int): void</text><ellipse cx="518.5" cy="420.1956" fill="#84BE84" rx="3" ry="3" style="stroke: #038048; stroke-width: 1.0;"/><text fill="#000000" font-family="sans-serif" font-size="11" lengthAdjust="spacingAndGlyphs" text-decoration="underline" textLength="242" x="527.5" y="422.748">retrieveMenuItem(targetItemID:int): MenuItem</text><line style="stroke: #000000; stroke-width: 1.0;" x1="527.5" x2="769.5" y1="424.748" y2="424.748"/><ellipse cx="518.5" cy="432.9949" fill="#84BE84" rx="3" ry="3" style="stroke: #038048; stroke-width: 1.0;"/><text fill="#000000" font-family="sans-serif" font-size="11" lengthAdjust="spacingAndGlyphs" text-decoration="underline" textLength="152" x="527.5" y="435.5474">retrieveMenuItemListFiltered</text><line style="stroke: #000000; stroke-width: 1.0;" x1="527.5" x2="679.5" y1="437.5474" y2="437.5474"/><text fill="#000000" font-family="sans-serif" font-size="11" lengthAdjust="spacingAndGlyphs" text-decoration="underline" textLength="249" x="682.5" y="435.5474">(targetItemType:String): ArrayList&lt;MenuItem&gt;</text><line style="stroke: #000000; stroke-width: 1.0;" x1="682.5" x2="931.5" y1="437.5474" y2="437.5474"/><ellipse cx="518.5" cy="445.7942" fill="#84BE84" rx="3" ry="3" style="stroke: #038048; stroke-width: 1.0;"/><text fill="#000000" font-family="sans-serif" font-size="11" lengthAdjust="spacingAndGlyphs" text-decoration="underline" textLength="502" x="527.5" y="448.3467">retrieveMenuItemListFiltered(targetItemType:MenuItem.MenuItemType): ArrayList&lt;MenuItem&gt;</text><line style="stroke: #000000; stroke-width: 1.0;" x1="527.5" x2="1029.5" y1="450.3467" y2="450.3467"/></a><!--class sg.edu.ntu.scse.cz2002.ui.PromotionMenuUI--><a target="_top" xlink:actuate="onRequest" xlink:href="../sg/edu/ntu/scse/cz2002/ui/PromotionMenuUI.html" xlink:show="new" xlink:title="../sg/edu/ntu/scse/cz2002/ui/PromotionMenuUI.html" xlink:type="simple"><rect fill="#FEFECE" filter="url(#ftsi02e3berul)" height="137.5952" id="sg.edu.ntu.scse.cz2002.ui.PromotionMenuUI" style="stroke: #A80036; stroke-width: 1.5;" width="816" x="1227" y="304"/><ellipse cx="1580.75" cy="320" fill="#ADD1B2" rx="11" ry="11" style="stroke: #A80036; stroke-width: 1.0;"/><path d="M1584.5781,325.6563 Q1582.7031,326.3125 1580.8906,326.3125 Q1578.2969,326.3125 1576.7109,324.5313 Q1575.125,322.75 1575.125,319.8438 Q1575.125,317.1563 1576.5313,315.3906 Q1577.3906,314.3125 1578.5078,313.8594 Q1579.625,313.4063 1581.4063,313.4063 Q1583.125,313.4063 1584.5781,313.7656 L1584.5781,315.75 Q1582.7031,315.0469 1581.4531,315.0469 Q1579.7656,315.0469 1578.7734,316.3672 Q1577.7813,317.6875 1577.7813,319.9219 Q1577.7813,321.9688 1578.8203,323.2656 Q1579.8594,324.5625 1581.5,324.5625 Q1582.8906,324.5625 1584.5781,323.7813 L1584.5781,325.6563 Z "/><text fill="#000000" font-family="sans-serif" font-size="12" lengthAdjust="spacingAndGlyphs" textLength="100" x="1601.25" y="324.4209">PromotionMenuUI</text><line style="stroke: #A80036; stroke-width: 1.5;" x1="1228" x2="2042" y1="336" y2="336"/><polygon fill="none" points="1238,343.8997,1234,349.8997,1242,349.8997" style="stroke: #1963A0; stroke-width: 1.0;"/><text fill="#000000" font-family="sans-serif" font-size="11" lengthAdjust="spacingAndGlyphs" textLength="61" x="1247" y="350.4521">sc: Scanner</text><line style="stroke: #A80036; stroke-width: 1.5;" x1="1228" x2="2042" y1="356.7993" y2="356.7993"/><polygon fill="#FFFF44" points="1238,363.699,1242,367.699,1238,371.699,1234,367.699" style="stroke: #B38D22; stroke-width: 1.0;"/><text fill="#000000" font-family="sans-serif" font-size="11" lengthAdjust="spacingAndGlyphs" textLength="140" x="1247" y="371.2515">generateMenuScreen(): int</text><ellipse cx="1238" cy="381.4983" fill="#84BE84" rx="3" ry="3" style="stroke: #038048; stroke-width: 1.0;"/><text fill="#000000" font-family="sans-serif" font-size="11" lengthAdjust="spacingAndGlyphs" textLength="119" x="1247" y="384.0508">printPromotion(): void</text><ellipse cx="1238" cy="394.2976" fill="#84BE84" rx="3" ry="3" style="stroke: #038048; stroke-width: 1.0;"/><text fill="#000000" font-family="sans-serif" font-size="11" lengthAdjust="spacingAndGlyphs" textLength="716" x="1247" y="396.8501">addNewPromotion(newPromoName:String, newPromoPrice:double, newPromoMain:int, newPromoDessert:int, newPromoDrink:int): void</text><ellipse cx="1238" cy="407.0969" fill="#84BE84" rx="3" ry="3" style="stroke: #038048; stroke-width: 1.0;"/><text fill="#000000" font-family="sans-serif" font-size="11" lengthAdjust="spacingAndGlyphs" textLength="790" x="1247" y="409.6494">editPromotion(targetPromoID:int, editPromoName:String, editPromoPrice:double, editPromoMain:int, editPromoDessert:int, editPromoDrink:int): void</text><ellipse cx="1238" cy="419.8962" fill="#84BE84" rx="3" ry="3" style="stroke: #038048; stroke-width: 1.0;"/><text fill="#000000" font-family="sans-serif" font-size="11" lengthAdjust="spacingAndGlyphs" textLength="220" x="1247" y="422.4487">deletePromotion(targetPromoID:int): void</text><ellipse cx="1238" cy="432.6956" fill="#84BE84" rx="3" ry="3" style="stroke: #038048; stroke-width: 1.0;"/><text fill="#000000" font-family="sans-serif" font-size="11" lengthAdjust="spacingAndGlyphs" text-decoration="underline" textLength="262" x="1247" y="435.248">retrievePromotion(targetPromoID:int): Promotion</text><line style="stroke: #000000; stroke-width: 1.0;" x1="1247" x2="1509" y1="437.248" y2="437.248"/></a><!--class sg.edu.ntu.scse.cz2002.ui.MainMenuUI--><a target="_top" xlink:actuate="onRequest" xlink:href="../sg/edu/ntu/scse/cz2002/ui/MainMenuUI.html" xlink:show="new" xlink:title="../sg/edu/ntu/scse/cz2002/ui/MainMenuUI.html" xlink:type="simple"><rect fill="#FEFECE" filter="url(#ftsi02e3berul)" height="73.5986" id="sg.edu.ntu.scse.cz2002.ui.MainMenuUI" style="stroke: #A80036; stroke-width: 1.5;" width="181" x="2078.5" y="336"/><ellipse cx="2130.25" cy="352" fill="#ADD1B2" rx="11" ry="11" style="stroke: #A80036; stroke-width: 1.0;"/><path d="M2134.0781,357.6563 Q2132.2031,358.3125 2130.3906,358.3125 Q2127.7969,358.3125 2126.2109,356.5313 Q2124.625,354.75 2124.625,351.8438 Q2124.625,349.1563 2126.0313,347.3906 Q2126.8906,346.3125 2128.0078,345.8594 Q2129.125,345.4063 2130.9063,345.4063 Q2132.625,345.4063 2134.0781,345.7656 L2134.0781,347.75 Q2132.2031,347.0469 2130.9531,347.0469 Q2129.2656,347.0469 2128.2734,348.3672 Q2127.2813,349.6875 2127.2813,351.9219 Q2127.2813,353.9688 2128.3203,355.2656 Q2129.3594,356.5625 2131,356.5625 Q2132.3906,356.5625 2134.0781,355.7813 L2134.0781,357.6563 Z "/><text fill="#000000" font-family="sans-serif" font-size="12" lengthAdjust="spacingAndGlyphs" textLength="69" x="2150.75" y="356.4209">MainMenuUI</text><line style="stroke: #A80036; stroke-width: 1.5;" x1="2079.5" x2="2258.5" y1="368" y2="368"/><line style="stroke: #A80036; stroke-width: 1.5;" x1="2079.5" x2="2258.5" y1="376" y2="376"/><polygon fill="#FFFF44" points="2089.5,382.8997,2093.5,386.8997,2089.5,390.8997,2085.5,386.8997" style="stroke: #B38D22; stroke-width: 1.0;"/><text fill="#000000" font-family="sans-serif" font-size="11" lengthAdjust="spacingAndGlyphs" textLength="140" x="2098.5" y="390.4521">generateMenuScreen(): int</text><rect fill="#F24D5C" height="6" style="stroke: #C82930; stroke-width: 1.0;" width="6" x="2086.5" y="397.699"/><text fill="#000000" font-family="sans-serif" font-size="11" lengthAdjust="spacingAndGlyphs" textLength="155" x="2098.5" y="403.2515">checkTableAvailability(): void</text></a><!--class sg.edu.ntu.scse.cz2002.ui.StaffMgmtMenuUI--><a target="_top" xlink:actuate="onRequest" xlink:href="../sg/edu/ntu/scse/cz2002/ui/StaffMgmtMenuUI.html" xlink:show="new" xlink:title="../sg/edu/ntu/scse/cz2002/ui/StaffMgmtMenuUI.html" xlink:type="simple"><rect fill="#FEFECE" filter="url(#ftsi02e3berul)" height="111.9966" id="sg.edu.ntu.scse.cz2002.ui.StaffMgmtMenuUI" style="stroke: #A80036; stroke-width: 1.5;" width="166" x="2295" y="317"/><ellipse cx="2325.75" cy="333" fill="#ADD1B2" rx="11" ry="11" style="stroke: #A80036; stroke-width: 1.0;"/><path d="M2329.5781,338.6563 Q2327.7031,339.3125 2325.8906,339.3125 Q2323.2969,339.3125 2321.7109,337.5313 Q2320.125,335.75 2320.125,332.8438 Q2320.125,330.1563 2321.5313,328.3906 Q2322.3906,327.3125 2323.5078,326.8594 Q2324.625,326.4063 2326.4063,326.4063 Q2328.125,326.4063 2329.5781,326.7656 L2329.5781,328.75 Q2327.7031,328.0469 2326.4531,328.0469 Q2324.7656,328.0469 2323.7734,329.3672 Q2322.7813,330.6875 2322.7813,332.9219 Q2322.7813,334.9688 2323.8203,336.2656 Q2324.8594,337.5625 2326.5,337.5625 Q2327.8906,337.5625 2329.5781,336.7813 L2329.5781,338.6563 Z "/><text fill="#000000" font-family="sans-serif" font-size="12" lengthAdjust="spacingAndGlyphs" textLength="99" x="2343.25" y="337.4209">StaffMgmtMenuUI</text><line style="stroke: #A80036; stroke-width: 1.5;" x1="2296" x2="2460" y1="349" y2="349"/><line style="stroke: #A80036; stroke-width: 1.5;" x1="2296" x2="2460" y1="357" y2="357"/><polygon fill="#FFFF44" points="2306,363.8997,2310,367.8997,2306,371.8997,2302,367.8997" style="stroke: #B38D22; stroke-width: 1.0;"/><text fill="#000000" font-family="sans-serif" font-size="11" lengthAdjust="spacingAndGlyphs" textLength="140" x="2315" y="371.4521">generateMenuScreen(): int</text><rect fill="#F24D5C" height="6" style="stroke: #C82930; stroke-width: 1.0;" width="6" x="2303" y="378.699"/><text fill="#000000" font-family="sans-serif" font-size="11" lengthAdjust="spacingAndGlyphs" textLength="116" x="2315" y="384.2515">createNewStaff(): void</text><rect fill="#F24D5C" height="6" style="stroke: #C82930; stroke-width: 1.0;" width="6" x="2303" y="391.4983"/><text fill="#000000" font-family="sans-serif" font-size="11" lengthAdjust="spacingAndGlyphs" textLength="102" x="2315" y="397.0508">editStaffInfo(): void</text><rect fill="#F24D5C" height="6" style="stroke: #C82930; stroke-width: 1.0;" width="6" x="2303" y="404.2976"/><text fill="#000000" font-family="sans-serif" font-size="11" lengthAdjust="spacingAndGlyphs" textLength="101" x="2315" y="409.8501">removeStaff(): void</text><rect fill="#F24D5C" height="6" style="stroke: #C82930; stroke-width: 1.0;" width="6" x="2303" y="417.0969"/><text fill="#000000" font-family="sans-serif" font-size="11" lengthAdjust="spacingAndGlyphs" textLength="91" x="2315" y="422.6494">listAllStaff(): void</text></a><!--class sg.edu.ntu.scse.cz2002.ui.BaseMenu--><a target="_top" xlink:actuate="onRequest" xlink:href="../sg/edu/ntu/scse/cz2002/ui/BaseMenu.html" xlink:show="new" xlink:title="../sg/edu/ntu/scse/cz2002/ui/BaseMenu.html" xlink:type="simple"><rect fill="#FEFECE" filter="url(#ftsi02e3berul)" height="150.3945" id="sg.edu.ntu.scse.cz2002.ui.BaseMenu" style="stroke: #A80036; stroke-width: 1.5;" width="286" x="1759" y="43"/><ellipse cx="1868.75" cy="59" fill="#A9DCDF" rx="11" ry="11" style="stroke: #A80036; stroke-width: 1.0;"/><path d="M1864.4219,64.25 L1868.1406,51.9688 L1870.5938,51.9688 L1874.3125,64.25 L1871.7656,64.25 L1870.8281,61.125 L1867.1875,61.125 L1866.25,64.25 L1864.4219,64.25 Z M1867.6563,59.5938 L1870.375,59.5938 L1869,55.1094 L1867.6563,59.5938 Z "/><text fill="#000000" font-family="sans-serif" font-size="12" font-style="italic" lengthAdjust="spacingAndGlyphs" textLength="58" x="1889.25" y="63.4209">BaseMenu</text><line style="stroke: #A80036; stroke-width: 1.5;" x1="1760" x2="2044" y1="75" y2="75"/><rect fill="none" height="6" style="stroke: #C82930; stroke-width: 1.0;" width="6" x="1767" y="83.8997"/><text fill="#000000" font-family="sans-serif" font-size="11" lengthAdjust="spacingAndGlyphs" text-decoration="underline" textLength="161" x="1779" y="89.4521">PRINT_WINDOW_MAX_SIZE: int</text><line style="stroke: #000000; stroke-width: 1.0;" x1="1779" x2="1940" y1="91.4521" y2="91.4521"/><line style="stroke: #A80036; stroke-width: 1.5;" x1="1760" x2="2044" y1="95.7993" y2="95.7993"/><ellipse cx="1770" cy="107.699" fill="#84BE84" rx="3" ry="3" style="stroke: #038048; stroke-width: 1.0;"/><text fill="#000000" font-family="sans-serif" font-size="11" lengthAdjust="spacingAndGlyphs" textLength="136" x="1779" y="110.2515">startMainMenu(): boolean</text><polygon fill="#FFFF44" points="1770,115.4983,1774,119.4983,1770,123.4983,1766,119.4983" style="stroke: #B38D22; stroke-width: 1.0;"/><text fill="#000000" font-family="sans-serif" font-size="11" lengthAdjust="spacingAndGlyphs" text-decoration="underline" textLength="203" x="1779" y="123.0508">printHeader(headerName:String): void</text><line style="stroke: #000000; stroke-width: 1.0;" x1="1779" x2="1982" y1="125.0508" y2="125.0508"/><polygon fill="#FFFF44" points="1770,128.2976,1774,132.2976,1770,136.2976,1766,132.2976" style="stroke: #B38D22; stroke-width: 1.0;"/><text fill="#000000" font-family="sans-serif" font-size="11" lengthAdjust="spacingAndGlyphs" text-decoration="underline" textLength="260" x="1779" y="135.8501">printHeader(headerName:String, length:int): void</text><line style="stroke: #000000; stroke-width: 1.0;" x1="1779" x2="2039" y1="137.8501" y2="137.8501"/><polygon fill="#FFFF44" points="1770,141.0969,1774,145.0969,1770,149.0969,1766,145.0969" style="stroke: #B38D22; stroke-width: 1.0;"/><text fill="#000000" font-family="sans-serif" font-size="11" lengthAdjust="spacingAndGlyphs" text-decoration="underline" textLength="149" x="1779" y="148.6494">printBreaks(length:int): void</text><line style="stroke: #000000; stroke-width: 1.0;" x1="1779" x2="1928" y1="150.6494" y2="150.6494"/><polygon fill="#FFFF44" points="1770,153.8962,1774,157.8962,1770,161.8962,1766,157.8962" style="stroke: #B38D22; stroke-width: 1.0;"/><text fill="#000000" font-family="sans-serif" font-size="11" lengthAdjust="spacingAndGlyphs" text-decoration="underline" textLength="98" x="1779" y="161.4487">printBreaks(): void</text><line style="stroke: #000000; stroke-width: 1.0;" x1="1779" x2="1877" y1="163.4487" y2="163.4487"/><polygon fill="#FFFF44" points="1770,166.6956,1774,170.6956,1770,174.6956,1766,170.6956" style="stroke: #B38D22; stroke-width: 1.0;"/><text fill="#000000" font-family="sans-serif" font-size="11" lengthAdjust="spacingAndGlyphs" text-decoration="underline" textLength="245" x="1779" y="174.248">doMenuChoice(max:int, specialEscape:int): int</text><line style="stroke: #000000; stroke-width: 1.0;" x1="1779" x2="2024" y1="176.248" y2="176.248"/><polygon fill="#FFFF44" points="1770,179.4949,1774,183.4949,1770,187.4949,1766,183.4949" style="stroke: #B38D22; stroke-width: 1.0;"/><text fill="#000000" font-family="sans-serif" font-size="11" font-style="italic" lengthAdjust="spacingAndGlyphs" textLength="140" x="1779" y="187.0474">generateMenuScreen(): int</text></a><!--class sg.edu.ntu.scse.cz2002.ui.OrderMenuUI--><a target="_top" xlink:actuate="onRequest" xlink:href="../sg/edu/ntu/scse/cz2002/ui/OrderMenuUI.html" xlink:show="new" xlink:title="../sg/edu/ntu/scse/cz2002/ui/OrderMenuUI.html" xlink:type="simple"><rect fill="#FEFECE" filter="url(#ftsi02e3berul)" height="239.9897" id="sg.edu.ntu.scse.cz2002.ui.OrderMenuUI" style="stroke: #A80036; stroke-width: 1.5;" width="413" x="2496.5" y="253"/><ellipse cx="2660.75" cy="269" fill="#ADD1B2" rx="11" ry="11" style="stroke: #A80036; stroke-width: 1.0;"/><path d="M2664.5781,274.6563 Q2662.7031,275.3125 2660.8906,275.3125 Q2658.2969,275.3125 2656.7109,273.5313 Q2655.125,271.75 2655.125,268.8438 Q2655.125,266.1563 2656.5313,264.3906 Q2657.3906,263.3125 2658.5078,262.8594 Q2659.625,262.4063 2661.4063,262.4063 Q2663.125,262.4063 2664.5781,262.7656 L2664.5781,264.75 Q2662.7031,264.0469 2661.4531,264.0469 Q2659.7656,264.0469 2658.7734,265.3672 Q2657.7813,266.6875 2657.7813,268.9219 Q2657.7813,270.9688 2658.8203,272.2656 Q2659.8594,273.5625 2661.5,273.5625 Q2662.8906,273.5625 2664.5781,272.7813 L2664.5781,274.6563 Z "/><text fill="#000000" font-family="sans-serif" font-size="12" lengthAdjust="spacingAndGlyphs" textLength="76" x="2681.25" y="273.4209">OrderMenuUI</text><line style="stroke: #A80036; stroke-width: 1.5;" x1="2497.5" x2="2908.5" y1="285" y2="285"/><ellipse cx="2507.5" cy="296.8997" fill="none" rx="3" ry="3" style="stroke: #038048; stroke-width: 1.0;"/><text fill="#000000" font-family="sans-serif" font-size="11" lengthAdjust="spacingAndGlyphs" text-decoration="underline" textLength="202" x="2516.5" y="299.4521">incompleteOrders: ArrayList&lt;Order&gt;</text><line style="stroke: #000000; stroke-width: 1.0;" x1="2516.5" x2="2718.5" y1="301.4521" y2="301.4521"/><line style="stroke: #A80036; stroke-width: 1.5;" x1="2497.5" x2="2908.5" y1="305.7993" y2="305.7993"/><polygon fill="#FFFF44" points="2507.5,312.699,2511.5,316.699,2507.5,320.699,2503.5,316.699" style="stroke: #B38D22; stroke-width: 1.0;"/><text fill="#000000" font-family="sans-serif" font-size="11" lengthAdjust="spacingAndGlyphs" textLength="140" x="2516.5" y="320.2515">generateMenuScreen(): int</text><rect fill="#F24D5C" height="6" style="stroke: #C82930; stroke-width: 1.0;" width="6" x="2504.5" y="327.4983"/><text fill="#000000" font-family="sans-serif" font-size="11" lengthAdjust="spacingAndGlyphs" textLength="244" x="2516.5" y="333.0508">editOrderMenuScreen(orderNumber:int): void</text><rect fill="#F24D5C" height="6" style="stroke: #C82930; stroke-width: 1.0;" width="6" x="2504.5" y="340.2976"/><text fill="#000000" font-family="sans-serif" font-size="11" lengthAdjust="spacingAndGlyphs" textLength="102" x="2516.5" y="345.8501">createOrder(): void</text><rect fill="#F24D5C" height="6" style="stroke: #C82930; stroke-width: 1.0;" width="6" x="2504.5" y="353.0969"/><text fill="#000000" font-family="sans-serif" font-size="11" lengthAdjust="spacingAndGlyphs" textLength="92" x="2516.5" y="358.6494">viewOrder(): void</text><rect fill="#F24D5C" height="6" style="stroke: #C82930; stroke-width: 1.0;" width="6" x="2504.5" y="365.8962"/><text fill="#000000" font-family="sans-serif" font-size="11" lengthAdjust="spacingAndGlyphs" textLength="89" x="2516.5" y="371.4487">editOrder(): void</text><rect fill="#F24D5C" height="6" style="stroke: #C82930; stroke-width: 1.0;" width="6" x="2504.5" y="378.6956"/><text fill="#000000" font-family="sans-serif" font-size="11" lengthAdjust="spacingAndGlyphs" textLength="154" x="2516.5" y="384.248">addOrderItem(o:Order): void</text><rect fill="#F24D5C" height="6" style="stroke: #C82930; stroke-width: 1.0;" width="6" x="2504.5" y="391.4949"/><text fill="#000000" font-family="sans-serif" font-size="11" lengthAdjust="spacingAndGlyphs" textLength="168" x="2516.5" y="397.0474">addAlaCarteItem(o:Order): void</text><rect fill="#F24D5C" height="6" style="stroke: #C82930; stroke-width: 1.0;" width="6" x="2504.5" y="404.2942"/><text fill="#000000" font-family="sans-serif" font-size="11" lengthAdjust="spacingAndGlyphs" textLength="154" x="2516.5" y="409.8467">editOrderItem(o:Order): void</text><rect fill="#F24D5C" height="6" style="stroke: #C82930; stroke-width: 1.0;" width="6" x="2504.5" y="417.0935"/><text fill="#000000" font-family="sans-serif" font-size="11" lengthAdjust="spacingAndGlyphs" textLength="174" x="2516.5" y="422.646">removeOrderItem(o:Order): void</text><rect fill="#F24D5C" height="6" style="stroke: #C82930; stroke-width: 1.0;" width="6" x="2504.5" y="429.8928"/><text fill="#000000" font-family="sans-serif" font-size="11" lengthAdjust="spacingAndGlyphs" textLength="255" x="2516.5" y="435.4453">findOrder(id:int, allowFromPaid:boolean): Order</text><rect fill="#F24D5C" height="6" style="stroke: #C82930; stroke-width: 1.0;" width="6" x="2504.5" y="442.6921"/><text fill="#000000" font-family="sans-serif" font-size="11" lengthAdjust="spacingAndGlyphs" textLength="310" x="2516.5" y="448.2446">printOrderList(orders:ArrayList&lt;Order&gt;, tag:String): void</text><rect fill="#F24D5C" height="6" style="stroke: #C82930; stroke-width: 1.0;" width="6" x="2504.5" y="455.4915"/><text fill="#000000" font-family="sans-serif" font-size="11" lengthAdjust="spacingAndGlyphs" textLength="173" x="2516.5" y="461.0439">printOrderDetails(o:Order): void</text><rect fill="#F24D5C" height="6" style="stroke: #C82930; stroke-width: 1.0;" width="6" x="2504.5" y="468.2908"/><text fill="#000000" font-family="sans-serif" font-size="11" lengthAdjust="spacingAndGlyphs" textLength="257" x="2516.5" y="473.8433">getOrderItemToEdit(o:Order, prompt:String): int</text><rect fill="#F24D5C" height="6" style="stroke: #C82930; stroke-width: 1.0;" width="6" x="2504.5" y="481.0901"/><text fill="#000000" font-family="sans-serif" font-size="11" lengthAdjust="spacingAndGlyphs" textLength="387" x="2516.5" y="486.6426">printOrderItems(items:ArrayList&lt;OrderItem&gt;, prettyPrint:boolean): void</text></a><!--link sg.edu.ntu.scse.cz2002.ui.BaseMenu to sg.edu.ntu.scse.cz2002.ui.ReservationMenuUI--><path d="M1738.7582,126.1725 C1418.925,143.4038 720.8811,187.3564 490,253 C476.9885,256.6994 463.8347,261.0814 450.7346,265.9459 " fill="none" id="sg.edu.ntu.scse.cz2002.ui.BaseMenu-sg.edu.ntu.scse.cz2002.ui.ReservationMenuUI" style="stroke: #A80036; stroke-width: 1.0;"/><polygon fill="none" points="1738.4606,119.1785,1758.8058,125.1007,1739.208,133.1585,1738.4606,119.1785" style="stroke: #A80036; stroke-width: 1.0;"/><!--link sg.edu.ntu.scse.cz2002.ui.BaseMenu to sg.edu.ntu.scse.cz2002.ui.FoodMenuUI--><path d="M1739.0966,143.6677 C1598.0101,167.3477 1389.0159,205.9126 1210,253 C1167.6305,264.1447 1122.9811,277.5967 1080.0954,291.4054 " fill="none" id="sg.edu.ntu.scse.cz2002.ui.BaseMenu-sg.edu.ntu.scse.cz2002.ui.FoodMenuUI" style="stroke: #A80036; stroke-width: 1.0;"/><polygon fill="none" points="1738.0971,136.7378,1758.9758,140.3543,1740.3989,150.5473,1738.0971,136.7378" style="stroke: #A80036; stroke-width: 1.0;"/><!--link sg.edu.ntu.scse.cz2002.ui.BaseMenu to sg.edu.ntu.scse.cz2002.ui.PromotionMenuUI--><path d="M1808.429,207.3655 C1775.3627,238.9457 1738.6971,273.9635 1707.6283,303.6359 " fill="none" id="sg.edu.ntu.scse.cz2002.ui.BaseMenu-sg.edu.ntu.scse.cz2002.ui.PromotionMenuUI" style="stroke: #A80036; stroke-width: 1.0;"/><polygon fill="none" points="1804.0372,201.8804,1823.3353,193.1292,1813.7065,212.0048,1804.0372,201.8804" style="stroke: #A80036; stroke-width: 1.0;"/><!--link sg.edu.ntu.scse.cz2002.ui.BaseMenu to sg.edu.ntu.scse.cz2002.ui.MainMenuUI--><path d="M2009.9017,206.2191 C2027.3388,221.4345 2044.9294,237.3868 2061,253 C2088.2397,279.4644 2116.9003,311.5324 2137.8464,335.8579 " fill="none" id="sg.edu.ntu.scse.cz2002.ui.BaseMenu-sg.edu.ntu.scse.cz2002.ui.MainMenuUI" style="stroke: #A80036; stroke-width: 1.0;"/><polygon fill="none" points="2005.2272,211.4313,1994.6598,193.0648,2014.3743,200.8327,2005.2272,211.4313" style="stroke: #A80036; stroke-width: 1.0;"/><!--link sg.edu.ntu.scse.cz2002.ui.BaseMenu to sg.edu.ntu.scse.cz2002.ui.StaffMgmtMenuUI--><path d="M2064.5858,156.194 C2134.0439,177.4756 2213.5516,208.8096 2277,253 C2301.4677,270.0412 2323.4827,294.459 2340.6666,316.8251 " fill="none" id="sg.edu.ntu.scse.cz2002.ui.BaseMenu-sg.edu.ntu.scse.cz2002.ui.StaffMgmtMenuUI" style="stroke: #A80036; stroke-width: 1.0;"/><polygon fill="none" points="2062.4593,162.8647,2045.2832,150.4557,2066.4487,149.4451,2062.4593,162.8647" style="stroke: #A80036; stroke-width: 1.0;"/><!--link sg.edu.ntu.scse.cz2002.ui.BaseMenu to sg.edu.ntu.scse.cz2002.ui.OrderMenuUI--><path d="M2065.2039,144.3724 C2182.6364,166.1707 2343.5382,201.8846 2479,253 C2484.7788,255.1806 2490.5954,257.4815 2496.4285,259.8832 " fill="none" id="sg.edu.ntu.scse.cz2002.ui.BaseMenu-sg.edu.ntu.scse.cz2002.ui.OrderMenuUI" style="stroke: #A80036; stroke-width: 1.0;"/><polygon fill="none" points="2063.6879,151.2114,2045.2729,140.7287,2066.2057,137.4396,2063.6879,151.2114" style="stroke: #A80036; stroke-width: 1.0;"/><text fill="#888888" font-family="sans-serif" font-size="10" lengthAdjust="spacingAndGlyphs" textLength="182" x="1381" y="528.502">UMLDoclet 1.1.3, PlantUML 1.2018.12</text><!--
@startuml

    namespace sg.edu.ntu.scse.cz2002.ui {

        class ReservationMenuUI [[../sg/edu/ntu/scse/cz2002/ui/ReservationMenuUI.html]] {
            -input: Scanner
            -MAX_TABLES: int
            #generateMenuScreen(): int
            -createReservationBooking(): void
            -findTableForReservation(numPax:int, resvDate:LocalDate, resvSession:char): int
            -checkReservationBooking(): void
            -removeReservationBooking(): void
            -listReservations(): void
            -checkExpiredReservations(): void
            -printReservationLine(telNo:String): int
            -printReservationLine(r:Reservation): void
            -checkMorningSessionDate(date:LocalDate, isToday:boolean): boolean
            -checkEveningSessionDate(date:LocalDate, isToday:boolean): boolean
        }

        class FoodMenuUI [[../sg/edu/ntu/scse/cz2002/ui/FoodMenuUI.html]] {
            ~sc: Scanner
            #generateMenuScreen(): int
            +printMenu(): void
            +addNewMenuItem(newItemName:String, newItemType:int, newItemDescription:String, newItemPrice:double): void
            +editMenuItem(targetItemID:int, editItemName:String, editItemType:int, editItemDescription:String, editItemPrice:double): void
            +deleteMenuItem(targetItemID:int): void
            {static} +retrieveMenuItem(targetItemID:int): MenuItem
            {static} + - -retrieveMenuItemListFiltered- - (targetItemType:String): ArrayList<MenuItem>
            {static} +retrieveMenuItemListFiltered(targetItemType:MenuItem.MenuItemType): ArrayList<MenuItem>
        }

        class PromotionMenuUI [[../sg/edu/ntu/scse/cz2002/ui/PromotionMenuUI.html]] {
            ~sc: Scanner
            #generateMenuScreen(): int
            +printPromotion(): void
            +addNewPromotion(newPromoName:String, newPromoPrice:double, newPromoMain:int, newPromoDessert:int, newPromoDrink:int): void
            +editPromotion(targetPromoID:int, editPromoName:String, editPromoPrice:double, editPromoMain:int, editPromoDessert:int, editPromoDrink:int): void
            +deletePromotion(targetPromoID:int): void
            {static} +retrievePromotion(targetPromoID:int): Promotion
        }

        class MainMenuUI [[../sg/edu/ntu/scse/cz2002/ui/MainMenuUI.html]] {
            #generateMenuScreen(): int
            -checkTableAvailability(): void
        }

        class StaffMgmtMenuUI [[../sg/edu/ntu/scse/cz2002/ui/StaffMgmtMenuUI.html]] {
            #generateMenuScreen(): int
            -createNewStaff(): void
            -editStaffInfo(): void
            -removeStaff(): void
            -listAllStaff(): void
        }

        abstract class BaseMenu [[../sg/edu/ntu/scse/cz2002/ui/BaseMenu.html]] {
            {static} -PRINT_WINDOW_MAX_SIZE: int
            +startMainMenu(): boolean
            {static} #printHeader(headerName:String): void
            {static} #printHeader(headerName:String, length:int): void
            {static} #printBreaks(length:int): void
            {static} #printBreaks(): void
            {static} #doMenuChoice(max:int, specialEscape:int): int
            {abstract} #generateMenuScreen(): int
        }

        class OrderMenuUI [[../sg/edu/ntu/scse/cz2002/ui/OrderMenuUI.html]] {
            {static} +incompleteOrders: ArrayList<Order>
            #generateMenuScreen(): int
            -editOrderMenuScreen(orderNumber:int): void
            -createOrder(): void
            -viewOrder(): void
            -editOrder(): void
            -addOrderItem(o:Order): void
            -addAlaCarteItem(o:Order): void
            -editOrderItem(o:Order): void
            -removeOrderItem(o:Order): void
            -findOrder(id:int, allowFromPaid:boolean): Order
            -printOrderList(orders:ArrayList<Order>, tag:String): void
            -printOrderDetails(o:Order): void
            -getOrderItemToEdit(o:Order, prompt:String): int
            -printOrderItems(items:ArrayList<OrderItem>, prettyPrint:boolean): void
        }

        BaseMenu <|- - ReservationMenuUI

        BaseMenu <|- - FoodMenuUI

        BaseMenu <|- - PromotionMenuUI

        BaseMenu <|- - MainMenuUI

        BaseMenu <|- - StaffMgmtMenuUI

        BaseMenu <|- - OrderMenuUI

    }


    center footer UMLDoclet 1.1.3, PlantUML 1.2018.12
@enduml

PlantUML version 1.2018.12(Sun Oct 21 10:15:15 GMT 2018)
(APACHE source distribution)
Java Runtime: Java(TM) SE Runtime Environment
JVM: Java HotSpot(TM) 64-Bit Server VM
Java Version: 1.8.0_202-b08
Operating System: Linux
OS Version: 4.19.23-coreos-r1
Default Encoding: UTF-8
Language: en
Country: null
--></g></svg>