<?xml version="1.0" encoding="UTF-8" standalone="no"?><svg xmlns="http://www.w3.org/2000/svg" xmlns:xlink="http://www.w3.org/1999/xlink" contentScriptType="application/ecmascript" contentStyleType="text/css" height="140px" preserveAspectRatio="none" style="width:288px;height:140px;" version="1.1" viewBox="0 0 288 140" width="288px" zoomAndPan="magnify"><defs><filter height="300%" id="f1oz1kuzfe1rqg" width="300%" x="-1" y="-1"><feGaussianBlur result="blurOut" stdDeviation="2.0"/><feColorMatrix in="blurOut" result="blurOut2" type="matrix" values="0 0 0 0 0 0 0 0 0 0 0 0 0 0 0 0 0 0 .4 0"/><feOffset dx="4.0" dy="4.0" in="blurOut2" result="blurOut3"/><feBlend in="SourceGraphic" in2="blurOut3" mode="normal"/></filter></defs><g><!--class FileIOHelper--><rect fill="#FEFECE" filter="url(#f1oz1kuzfe1rqg)" height="99.1973" id="FileIOHelper" style="stroke: #A80036; stroke-width: 1.5;" width="271" x="6" y="8"/><ellipse cx="102.25" cy="24" fill="#ADD1B2" rx="11" ry="11" style="stroke: #A80036; stroke-width: 1.0;"/><path d="M106.0781,29.6563 Q104.2031,30.3125 102.3906,30.3125 Q99.7969,30.3125 98.2109,28.5313 Q96.625,26.75 96.625,23.8438 Q96.625,21.1563 98.0313,19.3906 Q98.8906,18.3125 100.0078,17.8594 Q101.125,17.4063 102.9063,17.4063 Q104.625,17.4063 106.0781,17.7656 L106.0781,19.75 Q104.2031,19.0469 102.9531,19.0469 Q101.2656,19.0469 100.2734,20.3672 Q99.2813,21.6875 99.2813,23.9219 Q99.2813,25.9688 100.3203,27.2656 Q101.3594,28.5625 103,28.5625 Q104.3906,28.5625 106.0781,27.7813 L106.0781,29.6563 Z "/><text fill="#000000" font-family="sans-serif" font-size="12" lengthAdjust="spacingAndGlyphs" textLength="70" x="122.75" y="28.4209">FileIOHelper</text><line style="stroke: #A80036; stroke-width: 1.5;" x1="7" x2="276" y1="40" y2="40"/><line style="stroke: #A80036; stroke-width: 1.5;" x1="7" x2="276" y1="48" y2="48"/><ellipse cx="17" cy="59.8997" fill="#84BE84" rx="3" ry="3" style="stroke: #038048; stroke-width: 1.0;"/><text fill="#000000" font-family="sans-serif" font-size="11" lengthAdjust="spacingAndGlyphs" text-decoration="underline" textLength="121" x="26" y="62.4521">exists(String): boolean</text><line style="stroke: #000000; stroke-width: 1.0;" x1="26" x2="147" y1="64.4521" y2="64.4521"/><ellipse cx="17" cy="72.699" fill="#84BE84" rx="3" ry="3" style="stroke: #038048; stroke-width: 1.0;"/><text fill="#000000" font-family="sans-serif" font-size="11" lengthAdjust="spacingAndGlyphs" text-decoration="underline" textLength="99" x="26" y="75.2515">getFile(String): File</text><line style="stroke: #000000; stroke-width: 1.0;" x1="26" x2="125" y1="77.2515" y2="77.2515"/><ellipse cx="17" cy="85.4983" fill="#84BE84" rx="3" ry="3" style="stroke: #038048; stroke-width: 1.0;"/><text fill="#000000" font-family="sans-serif" font-size="11" lengthAdjust="spacingAndGlyphs" text-decoration="underline" textLength="245" x="26" y="88.0508">getFileBufferedReader(String): BufferedReader</text><line style="stroke: #000000; stroke-width: 1.0;" x1="26" x2="271" y1="90.0508" y2="90.0508"/><ellipse cx="17" cy="98.2976" fill="#84BE84" rx="3" ry="3" style="stroke: #038048; stroke-width: 1.0;"/><text fill="#000000" font-family="sans-serif" font-size="11" lengthAdjust="spacingAndGlyphs" text-decoration="underline" textLength="235" x="26" y="100.8501">getFileBufferedWriter(String): BufferedWriter</text><line style="stroke: #000000; stroke-width: 1.0;" x1="26" x2="261" y1="102.8501" y2="102.8501"/><text fill="#888888" font-family="sans-serif" font-size="10" lengthAdjust="spacingAndGlyphs" textLength="182" x="56.5" y="126.502">UMLDoclet 1.1.3, PlantUML 1.2018.12</text><!--
@startuml

    class FileIOHelper {
        {static} +exists(String): boolean
        {static} +getFile(String): File
        {static} +getFileBufferedReader(String): BufferedReader
        {static} +getFileBufferedWriter(String): BufferedWriter
    }


    center footer UMLDoclet 1.1.3, PlantUML 1.2018.12
@enduml

PlantUML version 1.2018.12(Sun Oct 21 10:15:15 GMT 2018)
(APACHE source distribution)
Java Runtime: Java(TM) SE Runtime Environment
JVM: Java HotSpot(TM) 64-Bit Server VM
Java Version: 1.8.0_202-b08
Operating System: Linux
OS Version: 4.19.23-coreos-r1
Default Encoding: UTF-8
Language: en
Country: null
--></g></svg>