<?xml version="1.0" encoding="UTF-8" standalone="no"?><svg xmlns="http://www.w3.org/2000/svg" xmlns:xlink="http://www.w3.org/1999/xlink" contentScriptType="application/ecmascript" contentStyleType="text/css" height="153px" preserveAspectRatio="none" style="width:277px;height:153px;" version="1.1" viewBox="0 0 277 153" width="277px" zoomAndPan="magnify"><defs><filter height="300%" id="f13tzoe6gey105" width="300%" x="-1" y="-1"><feGaussianBlur result="blurOut" stdDeviation="2.0"/><feColorMatrix in="blurOut" result="blurOut2" type="matrix" values="0 0 0 0 0 0 0 0 0 0 0 0 0 0 0 0 0 0 .4 0"/><feOffset dx="4.0" dy="4.0" in="blurOut2" result="blurOut3"/><feBlend in="SourceGraphic" in2="blurOut3" mode="normal"/></filter></defs><g><!--class InvoiceCSVHelper--><a target="_top" xlink:actuate="onRequest" xlink:href="../sg/edu/ntu/scse/cz2002/util/InvoiceCSVHelper.html" xlink:show="new" xlink:title="../sg/edu/ntu/scse/cz2002/util/InvoiceCSVHelper.html" xlink:type="simple"><rect fill="#FEFECE" filter="url(#f13tzoe6gey105)" height="111.9966" id="InvoiceCSVHelper" style="stroke: #A80036; stroke-width: 1.5;" width="260" x="6" y="8"/><ellipse cx="81.75" cy="24" fill="#ADD1B2" rx="11" ry="11" style="stroke: #A80036; stroke-width: 1.0;"/><path d="M85.5781,29.6563 Q83.7031,30.3125 81.8906,30.3125 Q79.2969,30.3125 77.7109,28.5313 Q76.125,26.75 76.125,23.8438 Q76.125,21.1563 77.5313,19.3906 Q78.3906,18.3125 79.5078,17.8594 Q80.625,17.4063 82.4063,17.4063 Q84.125,17.4063 85.5781,17.7656 L85.5781,19.75 Q83.7031,19.0469 82.4531,19.0469 Q80.7656,19.0469 79.7734,20.3672 Q78.7813,21.6875 78.7813,23.9219 Q78.7813,25.9688 79.8203,27.2656 Q80.8594,28.5625 82.5,28.5625 Q83.8906,28.5625 85.5781,27.7813 L85.5781,29.6563 Z "/><text fill="#000000" font-family="sans-serif" font-size="12" lengthAdjust="spacingAndGlyphs" textLength="100" x="102.25" y="28.4209">InvoiceCSVHelper</text><line style="stroke: #A80036; stroke-width: 1.5;" x1="7" x2="265" y1="40" y2="40"/><rect fill="none" height="6" style="stroke: #C82930; stroke-width: 1.0;" width="6" x="14" y="48.8997"/><text fill="#000000" font-family="sans-serif" font-size="11" lengthAdjust="spacingAndGlyphs" text-decoration="underline" textLength="155" x="26" y="54.4521">mInstance: InvoiceCSVHelper</text><line style="stroke: #000000; stroke-width: 1.0;" x1="26" x2="181" y1="56.4521" y2="56.4521"/><rect fill="none" height="6" style="stroke: #C82930; stroke-width: 1.0;" width="6" x="14" y="61.699"/><text fill="#000000" font-family="sans-serif" font-size="11" lengthAdjust="spacingAndGlyphs" textLength="88" x="26" y="67.2515">orderCsv: String</text><line style="stroke: #A80036; stroke-width: 1.5;" x1="7" x2="265" y1="73.5986" y2="73.5986"/><ellipse cx="17" cy="85.4983" fill="#84BE84" rx="3" ry="3" style="stroke: #038048; stroke-width: 1.0;"/><text fill="#000000" font-family="sans-serif" font-size="11" lengthAdjust="spacingAndGlyphs" text-decoration="underline" textLength="170" x="26" y="88.0508">getInstance(): InvoiceCSVHelper</text><line style="stroke: #000000; stroke-width: 1.0;" x1="26" x2="196" y1="90.0508" y2="90.0508"/><ellipse cx="17" cy="98.2976" fill="#84BE84" rx="3" ry="3" style="stroke: #038048; stroke-width: 1.0;"/><text fill="#000000" font-family="sans-serif" font-size="11" lengthAdjust="spacingAndGlyphs" textLength="191" x="26" y="100.8501">readFromCsv(): ArrayList&lt;Invoice&gt;</text><ellipse cx="17" cy="111.0969" fill="#84BE84" rx="3" ry="3" style="stroke: #038048; stroke-width: 1.0;"/><text fill="#000000" font-family="sans-serif" font-size="11" lengthAdjust="spacingAndGlyphs" textLength="234" x="26" y="113.6494">writeToCsv(items:ArrayList&lt;Invoice&gt;): void</text></a><text fill="#888888" font-family="sans-serif" font-size="10" lengthAdjust="spacingAndGlyphs" textLength="182" x="51" y="139.502">UMLDoclet 1.1.3, PlantUML 1.2018.12</text><!--
@startuml

    class InvoiceCSVHelper [[../sg/edu/ntu/scse/cz2002/util/InvoiceCSVHelper.html]] {
        {static} -mInstance: InvoiceCSVHelper
        -orderCsv: String
        {static} +getInstance(): InvoiceCSVHelper
        +readFromCsv(): ArrayList<Invoice>
        +writeToCsv(items:ArrayList<Invoice>): void
    }


    center footer UMLDoclet 1.1.3, PlantUML 1.2018.12
@enduml

PlantUML version 1.2018.12(Sun Oct 21 10:15:15 GMT 2018)
(APACHE source distribution)
Java Runtime: Java(TM) SE Runtime Environment
JVM: Java HotSpot(TM) 64-Bit Server VM
Java Version: 1.8.0_202-b08
Operating System: Linux
OS Version: 4.19.23-coreos-r1
Default Encoding: UTF-8
Language: en
Country: null
--></g></svg>