<?xml version="1.0" encoding="UTF-8" standalone="no"?><svg xmlns="http://www.w3.org/2000/svg" xmlns:xlink="http://www.w3.org/1999/xlink" contentScriptType="application/ecmascript" contentStyleType="text/css" height="371px" preserveAspectRatio="none" style="width:262px;height:371px;" version="1.1" viewBox="0 0 262 371" width="262px" zoomAndPan="magnify"><defs><filter height="300%" id="fpnxy143fhwkx" width="300%" x="-1" y="-1"><feGaussianBlur result="blurOut" stdDeviation="2.0"/><feColorMatrix in="blurOut" result="blurOut2" type="matrix" values="0 0 0 0 0 0 0 0 0 0 0 0 0 0 0 0 0 0 .4 0"/><feOffset dx="4.0" dy="4.0" in="blurOut2" result="blurOut3"/><feBlend in="SourceGraphic" in2="blurOut3" mode="normal"/></filter></defs><g><!--class Promotion--><rect fill="#FEFECE" filter="url(#fpnxy143fhwkx)" height="329.585" id="Promotion" style="stroke: #A80036; stroke-width: 1.5;" width="245" x="6" y="8"/><ellipse cx="95.25" cy="24" fill="#ADD1B2" rx="11" ry="11" style="stroke: #A80036; stroke-width: 1.0;"/><path d="M99.0781,29.6563 Q97.2031,30.3125 95.3906,30.3125 Q92.7969,30.3125 91.2109,28.5313 Q89.625,26.75 89.625,23.8438 Q89.625,21.1563 91.0313,19.3906 Q91.8906,18.3125 93.0078,17.8594 Q94.125,17.4063 95.9063,17.4063 Q97.625,17.4063 99.0781,17.7656 L99.0781,19.75 Q97.2031,19.0469 95.9531,19.0469 Q94.2656,19.0469 93.2734,20.3672 Q92.2813,21.6875 92.2813,23.9219 Q92.2813,25.9688 93.3203,27.2656 Q94.3594,28.5625 96,28.5625 Q97.3906,28.5625 99.0781,27.7813 L99.0781,29.6563 Z "/><text fill="#000000" font-family="sans-serif" font-size="12" lengthAdjust="spacingAndGlyphs" textLength="58" x="115.75" y="28.4209">Promotion</text><line style="stroke: #A80036; stroke-width: 1.5;" x1="7" x2="250" y1="40" y2="40"/><polygon fill="none" points="17,46.8997,21,50.8997,17,54.8997,13,50.8997" style="stroke: #B38D22; stroke-width: 1.0;"/><text fill="#000000" font-family="sans-serif" font-size="11" lengthAdjust="spacingAndGlyphs" textLength="67" x="26" y="54.4521">promoID: int</text><polygon fill="none" points="17,59.699,21,63.699,17,67.699,13,63.699" style="stroke: #B38D22; stroke-width: 1.0;"/><text fill="#000000" font-family="sans-serif" font-size="11" lengthAdjust="spacingAndGlyphs" textLength="104" x="26" y="67.2515">promoName: String</text><polygon fill="none" points="17,72.4983,21,76.4983,17,80.4983,13,76.4983" style="stroke: #B38D22; stroke-width: 1.0;"/><text fill="#000000" font-family="sans-serif" font-size="11" lengthAdjust="spacingAndGlyphs" textLength="105" x="26" y="80.0508">promoPrice: double</text><polygon fill="none" points="17,85.2976,21,89.2976,17,93.2976,13,89.2976" style="stroke: #B38D22; stroke-width: 1.0;"/><text fill="#000000" font-family="sans-serif" font-size="11" lengthAdjust="spacingAndGlyphs" textLength="81" x="26" y="92.8501">promoMain: int</text><polygon fill="none" points="17,98.0969,21,102.0969,17,106.0969,13,102.0969" style="stroke: #B38D22; stroke-width: 1.0;"/><text fill="#000000" font-family="sans-serif" font-size="11" lengthAdjust="spacingAndGlyphs" textLength="97" x="26" y="105.6494">promoDessert: int</text><polygon fill="none" points="17,110.8962,21,114.8962,17,118.8962,13,114.8962" style="stroke: #B38D22; stroke-width: 1.0;"/><text fill="#000000" font-family="sans-serif" font-size="11" lengthAdjust="spacingAndGlyphs" textLength="85" x="26" y="118.4487">promoDrink: int</text><line style="stroke: #A80036; stroke-width: 1.5;" x1="7" x2="250" y1="124.7959" y2="124.7959"/><ellipse cx="17" cy="136.6956" fill="#84BE84" rx="3" ry="3" style="stroke: #038048; stroke-width: 1.0;"/><text fill="#000000" font-family="sans-serif" font-size="11" lengthAdjust="spacingAndGlyphs" textLength="64" x="26" y="139.248">Promotion()</text><ellipse cx="17" cy="149.4949" fill="#84BE84" rx="3" ry="3" style="stroke: #038048; stroke-width: 1.0;"/><text fill="#000000" font-family="sans-serif" font-size="11" lengthAdjust="spacingAndGlyphs" textLength="219" x="26" y="152.0474">Promotion(int, String, double, int, int, int)</text><ellipse cx="17" cy="162.2942" fill="#84BE84" rx="3" ry="3" style="stroke: #038048; stroke-width: 1.0;"/><text fill="#000000" font-family="sans-serif" font-size="11" lengthAdjust="spacingAndGlyphs" textLength="104" x="26" y="164.8467">Promotion(String[])</text><ellipse cx="17" cy="175.0935" fill="#84BE84" rx="3" ry="3" style="stroke: #038048; stroke-width: 1.0;"/><text fill="#000000" font-family="sans-serif" font-size="11" lengthAdjust="spacingAndGlyphs" textLength="85" x="26" y="177.646">toCsv(): String[]</text><ellipse cx="17" cy="187.8928" fill="#84BE84" rx="3" ry="3" style="stroke: #038048; stroke-width: 1.0;"/><text fill="#000000" font-family="sans-serif" font-size="11" lengthAdjust="spacingAndGlyphs" textLength="91" x="26" y="190.4453">getPromoID(): int</text><ellipse cx="17" cy="200.6921" fill="#84BE84" rx="3" ry="3" style="stroke: #038048; stroke-width: 1.0;"/><text fill="#000000" font-family="sans-serif" font-size="11" lengthAdjust="spacingAndGlyphs" textLength="113" x="26" y="203.2446">setPromoID(int): void</text><ellipse cx="17" cy="213.4915" fill="#84BE84" rx="3" ry="3" style="stroke: #038048; stroke-width: 1.0;"/><text fill="#000000" font-family="sans-serif" font-size="11" lengthAdjust="spacingAndGlyphs" textLength="128" x="26" y="216.0439">getPromoName(): String</text><ellipse cx="17" cy="226.2908" fill="#84BE84" rx="3" ry="3" style="stroke: #038048; stroke-width: 1.0;"/><text fill="#000000" font-family="sans-serif" font-size="11" lengthAdjust="spacingAndGlyphs" textLength="150" x="26" y="228.8433">setPromoName(String): void</text><ellipse cx="17" cy="239.0901" fill="#84BE84" rx="3" ry="3" style="stroke: #038048; stroke-width: 1.0;"/><text fill="#000000" font-family="sans-serif" font-size="11" lengthAdjust="spacingAndGlyphs" textLength="129" x="26" y="241.6426">getPromoPrice(): double</text><ellipse cx="17" cy="251.8894" fill="#84BE84" rx="3" ry="3" style="stroke: #038048; stroke-width: 1.0;"/><text fill="#000000" font-family="sans-serif" font-size="11" lengthAdjust="spacingAndGlyphs" textLength="151" x="26" y="254.4419">setPromoPrice(double): void</text><ellipse cx="17" cy="264.6887" fill="#84BE84" rx="3" ry="3" style="stroke: #038048; stroke-width: 1.0;"/><text fill="#000000" font-family="sans-serif" font-size="11" lengthAdjust="spacingAndGlyphs" textLength="105" x="26" y="267.2412">getPromoMain(): int</text><ellipse cx="17" cy="277.488" fill="#84BE84" rx="3" ry="3" style="stroke: #038048; stroke-width: 1.0;"/><text fill="#000000" font-family="sans-serif" font-size="11" lengthAdjust="spacingAndGlyphs" textLength="127" x="26" y="280.0405">setPromoMain(int): void</text><ellipse cx="17" cy="290.2874" fill="#84BE84" rx="3" ry="3" style="stroke: #038048; stroke-width: 1.0;"/><text fill="#000000" font-family="sans-serif" font-size="11" lengthAdjust="spacingAndGlyphs" textLength="121" x="26" y="292.8398">getPromoDessert(): int</text><ellipse cx="17" cy="303.0867" fill="#84BE84" rx="3" ry="3" style="stroke: #038048; stroke-width: 1.0;"/><text fill="#000000" font-family="sans-serif" font-size="11" lengthAdjust="spacingAndGlyphs" textLength="143" x="26" y="305.6392">setPromoDessert(int): void</text><ellipse cx="17" cy="315.886" fill="#84BE84" rx="3" ry="3" style="stroke: #038048; stroke-width: 1.0;"/><text fill="#000000" font-family="sans-serif" font-size="11" lengthAdjust="spacingAndGlyphs" textLength="109" x="26" y="318.4385">getPromoDrink(): int</text><ellipse cx="17" cy="328.6853" fill="#84BE84" rx="3" ry="3" style="stroke: #038048; stroke-width: 1.0;"/><text fill="#000000" font-family="sans-serif" font-size="11" lengthAdjust="spacingAndGlyphs" textLength="131" x="26" y="331.2378">setPromoDrink(int): void</text><text fill="#888888" font-family="sans-serif" font-size="10" lengthAdjust="spacingAndGlyphs" textLength="182" x="43.5" y="357.502">UMLDoclet 1.1.3, PlantUML 1.2018.12</text><!--
@startuml

    class Promotion {
        #promoID: int
        #promoName: String
        #promoPrice: double
        #promoMain: int
        #promoDessert: int
        #promoDrink: int
        +Promotion()
        +Promotion(int, String, double, int, int, int)
        +Promotion(String[])
        +toCsv(): String[]
        +getPromoID(): int
        +setPromoID(int): void
        +getPromoName(): String
        +setPromoName(String): void
        +getPromoPrice(): double
        +setPromoPrice(double): void
        +getPromoMain(): int
        +setPromoMain(int): void
        +getPromoDessert(): int
        +setPromoDessert(int): void
        +getPromoDrink(): int
        +setPromoDrink(int): void
    }


    center footer UMLDoclet 1.1.3, PlantUML 1.2018.12
@enduml

PlantUML version 1.2018.12(Sun Oct 21 10:15:15 GMT 2018)
(APACHE source distribution)
Java Runtime: Java(TM) SE Runtime Environment
JVM: Java HotSpot(TM) 64-Bit Server VM
Java Version: 1.8.0_202-b08
Operating System: Linux
OS Version: 4.19.23-coreos-r1
Default Encoding: UTF-8
Language: en
Country: null
--></g></svg>